<svg xmlns="http://www.w3.org/2000/svg" viewBox="0 0 40 40"><defs><style>.a{fill:#a3cc26;}.b{fill-opacity:0.25;}.c{fill:#fff;}</style></defs><title>arto_hover</title><rect class="a" y="0.03" width="40" height="40"/><rect class="b" y="0.03" width="40" height="40"/><path class="c" d="M23.2,10.47a2.24,2.24,0,0,1,1.7-.6,1.72,1.72,0,0,1,.8,1.6v8h1.7a0.71,0.71,0,0,1,.6.3,0.46,0.46,0,0,1-.5.3c-0.6.1-1.1,0.2-1.6,0.3V29a2.22,2.22,0,0,1-1.3.8,2.35,2.35,0,0,1-2.1-.8c-0.1-2.6-.1-5.2-0.1-7.8a14.5,14.5,0,0,0-8.4,3.6l-0.9.9a1.31,1.31,0,0,1-1.3-.3,0.54,0.54,0,0,1-.4-0.4,2.1,2.1,0,0,1,.4-1.1c3.8-4.4,7.6-8.9,11.4-13.4h0Zm-4.4,8.8a0.62,0.62,0,0,0-.3.4,1.27,1.27,0,0,0,.6.1l3.6-.3v-4.6c-1.3,1.6-2.6,3-3.9,4.4h0Z"/><path class="c" d="M32,20.07a3.35,3.35,0,0,0-3.3-3.4V12A4.85,4.85,0,0,0,26,7.27l-0.2-.1-0.2-.1a5,5,0,0,0-1.2-.2A5.13,5.13,0,0,0,21,8.27l-0.2.2-0.2.2c-2.9,3.3-5.9,6.8-8.8,10.2l-2.7,3.2-0.1.2a4.64,4.64,0,0,0-.9,3.3,3.58,3.58,0,0,0,2,2.8,5.24,5.24,0,0,0,2.6.8,4,4,0,0,0,1.5-.3l0.5-.2,0.3-.4a4.62,4.62,0,0,0,.7-0.7l0.3-.3h0a9.07,9.07,0,0,1,3-1.9c0,1.3,0,2.6.1,3.9v1.2l0.8,0.9a5.69,5.69,0,0,0,4.2,1.9,2.77,2.77,0,0,0,.9-0.1h0.1a5.69,5.69,0,0,0,3.2-2l0.7-.9v-6.8a3.54,3.54,0,0,0,3-3.4h0Zm-3.5,2.7H28.1V30l-0.5.6a4.36,4.36,0,0,1-2.7,1.7H24.8c-0.2,0-.5.1-0.7,0.1a5.19,5.19,0,0,1-3.6-1.6l-0.5-.7v-0.9c0-1.7-.1-3.3-0.1-5a11.2,11.2,0,0,0-4.3,2.4h0l-0.3.3-0.6.6-0.4.4-0.4.2a3.84,3.84,0,0,1-3.4-.4h0a2.72,2.72,0,0,1-1.6-2.2,4.05,4.05,0,0,1,.8-2.7l0.1-.2,2.7-3.2c2.9-3.4,5.8-6.8,8.7-10.3L21.3,9l0.2-.1a4.36,4.36,0,0,1,2.9-1.2,3.4,3.4,0,0,1,1,.1h0.1l0.2,0.1a4,4,0,0,1,2.2,4v5.6h0.6a2.65,2.65,0,1,1,0,5.3h0Z"/></svg>