<svg xmlns="http://www.w3.org/2000/svg" viewBox="0 0 40 40"><defs><style>.a{fill:#de484a;}.b{fill-opacity:0.25;}.c{fill:#fff;}</style></defs><title>bebo_hover</title><rect class="a" x="0.08" width="39.92" height="39.95"/><rect class="b" x="0.08" width="39.92" height="39.95"/><path class="c" d="M18.9,31.34a9.1,9.1,0,0,1-9.08-9.09V10.88a2.27,2.27,0,1,1,4.54,0V22.25a4.55,4.55,0,0,0,4.54,4.55h2.27a4.29,4.29,0,0,0,4.54-4c0-2.24-1.22-4-2.27-4H18.9a2.27,2.27,0,0,1,0-4.55h4.54c3.76,0,6.81,3.82,6.81,8.52s-4.07,8.52-9.08,8.52H18.9Z"/></svg>