<svg xmlns="http://www.w3.org/2000/svg" viewBox="0 0 40 40"><defs><style>.a{fill:#f60;}.b{fill-opacity:0.25;}.c{fill:#fff;}</style></defs><title>blinklist_hover</title><rect class="a" width="40" height="40"/><rect class="b" width="40" height="40"/><path class="c" d="M21.9,30.6a10.57,10.57,0,0,1-10-7.3L7.6,25.6V14.3l4.3,2.3a10.54,10.54,0,1,1,10,14h0Zm-0.2-19a8.49,8.49,0,0,0-8.1,6L18.1,20l-4.5,2.4a8.31,8.31,0,0,0,8,5.9A8.45,8.45,0,0,0,30,19.9a8.22,8.22,0,0,0-8.3-8.3h0Zm0,14.6a6.12,6.12,0,0,1-5.6-3.5h0.1L21,20l-4.8-2.8h0a6.33,6.33,0,0,1,5.6-3.4A6.25,6.25,0,0,1,28.1,20a6.34,6.34,0,0,1-6.4,6.2h0Z"/></svg>