<?xml version="1.0" encoding="utf-8"?>
<!-- Generator: Adobe Illustrator 19.2.0, SVG Export Plug-In . SVG Version: 6.00 Build 0)  -->
<svg version="1.1" id="Layer_1" xmlns:sketch="http://www.bohemiancoding.com/sketch/ns"
	 xmlns="http://www.w3.org/2000/svg" xmlns:xlink="http://www.w3.org/1999/xlink" x="0px" y="0px" viewBox="0 0 40 40"
	 style="enable-background:new 0 0 40 40;" xml:space="preserve">
<style type="text/css">
	.st0{fill:#FFFFFF;}
</style>
<g id="Page-1" sketch:type="MSPage">
	<g id="digg" sketch:type="MSLayerGroup">
		<rect id="bg" sketch:type="MSShapeGroup" width="40" height="40">
		</rect>
		<path id="icon" sketch:type="MSShapeGroup" class="st0" d="M5.7,25v-9.5c0-0.2,0.1-0.3,0.3-0.3h4.5V12c0-0.2,0.1-0.4,0.3-0.4h2.5
			v13.1c0,0.2-0.1,0.4-0.3,0.4H5.7V25z M8.5,22.9h1.7c0.2,0,0.3-0.1,0.3-0.4v-5.2H8.8c-0.2,0-0.3,0.1-0.3,0.4V22.9L8.5,22.9z
			 M14.2,25v-9.5c0-0.2,0.1-0.3,0.3-0.3H17v9.4c0,0.2-0.1,0.4-0.3,0.4L14.2,25L14.2,25z M14.2,13.7V12c0-0.2,0.1-0.4,0.3-0.4H17v1.8
			c0,0.2-0.1,0.4-0.3,0.4h-2.5V13.7z M18,25v-9.5c0-0.2,0.1-0.3,0.3-0.3h7.3V28c0,0.2-0.1,0.3-0.3,0.3H18v-1.8
			c0-0.2,0.1-0.4,0.3-0.4h4.5V25H18L18,25z M20.8,22.9h1.7c0.2,0,0.3-0.1,0.3-0.4v-5.2h-1.7c-0.2,0-0.3,0.1-0.3,0.4V22.9L20.8,22.9z
			 M26.6,26.6c0-0.2,0.1-0.4,0.3-0.4h4.5V25h-4.8v-9.5c0-0.2,0.1-0.3,0.3-0.3h7.3V28c0,0.2-0.1,0.3-0.3,0.3h-7.3L26.6,26.6
			L26.6,26.6z M29.4,22.9h1.7c0.2,0,0.3-0.1,0.3-0.4v-5.2h-1.7c-0.2,0-0.3,0.1-0.3,0.4V22.9L29.4,22.9z"/>
	</g>
</g>
</svg>
