<svg xmlns="http://www.w3.org/2000/svg" viewBox="0 0 40 40"><defs><style>.a{fill:#276bb2;}.b{fill:#2e5086;}.c{fill:#fff;}</style></defs><title>diigo_hover</title><rect class="a" width="40" height="40"/><rect class="b" width="40" height="40"/><path class="c" d="M20,16.8c3.4-.1,5.3-1.9,7-3.6V33.7H23.6a20.9,20.9,0,0,0-.1-2.5V25.5c0-2.2.1-4.3,0.1-6.5-0.5.1-1,.4-1.6,0.5a8.45,8.45,0,0,1-5.7-.6V33.6H12.9V13.2c1.7,1.9,3.7,3.7,7.1,3.6h0Zm5.4-6a2.24,2.24,0,0,0,2.2-2.3,2.2,2.2,0,1,0-4.4,0,2.24,2.24,0,0,0,2.2,2.3h0Zm-10.8,0a2.24,2.24,0,0,0,2.2-2.3,2.2,2.2,0,1,0-4.4,0,2.24,2.24,0,0,0,2.2,2.3h0Z"/></svg>