<svg xmlns="http://www.w3.org/2000/svg" viewBox="0 0 40 40"><defs><style>.a{fill:#17bbe1;}.b{fill-opacity:0.25;}.c{fill:#fefefe;}</style></defs><title>foursquare_hover</title><rect class="a" width="40" height="40"/><rect class="b" width="40" height="40"/><path class="c" d="M30.24,15.44a0.88,0.88,0,0,1-.35.64q-4.69,4.74-9.37,9.47a0.79,0.79,0,0,1-1.29,0l-5.14-5.21a0.77,0.77,0,0,1,0-1.24c0.44-.43.88-0.86,1.3-1.31a0.77,0.77,0,0,1,1.28,0c0.92,0.94,1.87,1.87,2.78,2.83,0.32,0.34.49,0.29,0.8,0q3.42-3.49,6.87-6.95c0.73-.73.93-0.73,1.67,0l1.11,1.11A0.82,0.82,0,0,1,30.24,15.44Zm-1,3L20.59,27.2a0.79,0.79,0,0,1-1.29,0l-0.5-.51-0.22-.19c-1.78-1.8-3.57-3.59-5.33-5.41a1.83,1.83,0,0,1,0-2.74q0.69-.71,1.4-1.41A1.85,1.85,0,0,1,17.6,17c0.64,0.65,1.3,1.28,1.92,1.95,0.31,0.34.49,0.32,0.8,0,1.49-1.53,3-3.06,4.53-4.56a0.46,0.46,0,0,0,0-.81c-1-1-2-2-3.06-3a2.39,2.39,0,0,0-3.63,0q-3.82,3.82-7.6,7.69a2.43,2.43,0,0,0,0,3.61q3.81,3.88,7.66,7.73a2.41,2.41,0,0,0,3.64-.07l3.37-3.4c1.38-1.39,2.77-2.78,4.14-4.18a2.53,2.53,0,0,0,.54-3.08C29.7,18.4,29.53,18.28,29.27,18.42Z"/></svg>