<svg xmlns="http://www.w3.org/2000/svg" viewBox="0 0 40 40"><defs><style>.a{fill:#fff;}.b{fill-opacity:0.25;}.c{fill:#fbbc05;}.d{fill:#ea4335;}.e{fill:#34a853;}.f{fill:#4285f4;}</style></defs><title>google_hover</title><polygon class="a" points="0 0 29 0 40 0 40 40 0 40 0 0"/><polygon class="b" points="0 0 29 0 40 0 40 40 0 40 0 0"/><path class="c" d="M8.13,14.12l4.43,3.39a7.89,7.89,0,0,0,0,4.9L8.13,25.81A13.33,13.33,0,0,1,8.13,14.12Z"/><path class="d" d="M8.13,14.12l4.43,3.39A7.77,7.77,0,0,1,20,12.17a7.61,7.61,0,0,1,4.85,1.74l3.83-3.84A13.15,13.15,0,0,0,8.13,14.12Z"/><path class="e" d="M8.14,25.83l4.43-3.4A7.77,7.77,0,0,0,20,27.76c3.65,0,6.41-1.86,7.07-5.09H20V17.57H32.23a11,11,0,0,1,.3,2.4c0,8.39-6,13.19-12.58,13.19A13.14,13.14,0,0,1,8.14,25.83Z"/><path class="f" d="M28.54,29.87l-4.21-3.26A5.94,5.94,0,0,0,27,22.66H20V17.57H32.23a11,11,0,0,1,.3,2.4A13.14,13.14,0,0,1,28.54,29.87Z"/></svg>