<svg xmlns="http://www.w3.org/2000/svg" viewBox="0 0 40 40"><defs><style>.a{fill:#1385c8;}.b{fill:#fff;}</style></defs><title>linkedin</title><polygon class="a" points="0 40 40 40 40 0 0 0 0 40"/><path class="b" d="M14,30.65H9.57V16.47H14V30.65h0ZM11.72,14.77h0A2.49,2.49,0,0,1,9,12.38,2.43,2.43,0,0,1,11.72,10a2.49,2.49,0,0,1,2.72,2.38,2.43,2.43,0,0,1-2.72,2.38h0Zm20,15.88h-5.1V23.27c0-1.82-.79-3.18-2.49-3.18a2.52,2.52,0,0,0-2.38,1.7v8.85h-5V16.47h5v2.27c0.23-.91,1.81-2.38,4.42-2.38,3.17,0,5.56,2,5.56,6.35v7.94h0Z"/></svg>