<svg xmlns="http://www.w3.org/2000/svg" viewBox="0 0 40 40"><defs><style>.a{fill:#ff6400;}.b{fill-opacity:0.25;}.c{fill:#fff;}</style></defs><title>meneame_hover</title><rect class="a" width="39.62" height="39.65"/><rect class="b" width="39.62" height="39.65"/><path class="c" d="M30.16,13.77c-1.72,1.75-4.83,1.7-6,4.05-1,2.8,1.34,7.27,2.3,9.82,0.66,1.32-5.13,2.59-4.42,2.91,4.08,0,5.82-1.54,5.33-3.37s-2.58-5.24-2.58-8c0.06-2.11,2.42-2.76,3.93-3.61,1.76-.79,3.41-2.56,3-4.63,0-.73-1.29-3.16-0.77-1.28C31.21,11,31.34,12.74,30.16,13.77Zm-5.31-3.14a10.49,10.49,0,0,0-7.27-1.24,6.48,6.48,0,0,0-4,2.29,4.93,4.93,0,0,0-.47,5.24c0.62,1.28,1.57,2.71,3.1,2.93a5.5,5.5,0,0,0,3.88-.74c-1.33.23-2.87,0.7-4.06-.19a4.93,4.93,0,0,1-1.76-6.31c1-1.85,2.94-2.37,5-2.46C22.11,10,24.77,11.6,25.79,12s2.39,0.7,3.09-.34a1.79,1.79,0,0,0-.09-1.95c0.1,0.94-.59,2.11-1.66,1.81A15.23,15.23,0,0,1,24.85,10.62ZM10,18.91c-1.29,2-2.46,4.41-2,6.88s2.91,4.41,5.4,4.73a40.67,40.67,0,0,0,7.66,0c0.43-.42-2.09-0.41-3.15-0.56-2.42-.27-5-0.32-7.12-1.76s-2.19-4.29-1.26-6.38a24.89,24.89,0,0,1,3.16-5.53A12.33,12.33,0,0,0,10,18.91Zm6.36,6.38c1.51,0.12,4,0,5.19.79,0.42,0.63-.36,4.14-0.09,4.54,0.6,0.18,1.29-4.11.91-5.17C22,24.63,16.92,25.07,16.32,25.29Z"/></svg>