<svg xmlns="http://www.w3.org/2000/svg" viewBox="0 0 40 40"><defs><style>.a{fill:#c71e24;}.b{fill-opacity:0.25;}.c{fill:#fff;}</style></defs><title>misterwong_hover</title><rect class="a" width="40" height="40"/><rect class="b" width="40" height="40"/><path class="c" d="M14.44,31.2h5V28H16.94q-2.33.34-2.5,3.19h0ZM31.2,24.12V9.81a1,1,0,0,0-1-1H9.81a1,1,0,0,0-1,1V24.44A15.54,15.54,0,0,1,12.44,23,8.8,8.8,0,0,0,15,21.95q0.9,0.18.36,1.29-1.2,1.75-6.52,3v3.95a1,1,0,0,0,1,1h2.83q0.19-4,2-4.66a24.18,24.18,0,0,1,4.86-.73,15.51,15.51,0,0,0-.18-2v-1.1q-2.16.18-3.06-2.2a12.79,12.79,0,0,1-.9-3.49,20.35,20.35,0,0,1-2.52.18q-3.6.73-3.24-.92-0.18-1.1.54-.92h0.72a7.54,7.54,0,0,1,1.26-.18H13A19.62,19.62,0,0,1,15.32,15V13.32q0-4,1.44-4.22Q18,9.46,17.3,13v2q3.78,0,5.4.18V11.3q0-2,.54-2,0.9,0.37,1.26,2.39v3.49h1.08a23.52,23.52,0,0,0,4,.18A0.94,0.94,0,0,1,29.73,17a10.29,10.29,0,0,1-3.24.18,19,19,0,0,1-2-.18A30,30,0,0,1,24,20.48a2.52,2.52,0,0,1-2.7,2v3.3a23.88,23.88,0,0,1,4,.55q2.16,0.74,2.34,4.59c0,0.09,0,.17,0,0.26h2.6a1,1,0,0,0,1-1V25.93q-2.49-.9-6.33-2-0.9-1.47.54-1.84A19.29,19.29,0,0,1,31.2,24.12Zm-7.05,4.07A15.9,15.9,0,0,0,21.27,28q0.16,1.52.18,3.19h4.34q0.08-3-1.63-3h0Zm-1.62-9V17H17.3a5.79,5.79,0,0,0,.36,2.39q0,1.65,2.7,1.47,2,0,2.16-1.65h0Z"/></svg>