<svg xmlns="http://www.w3.org/2000/svg" viewBox="0 0 40 40"><defs><style>.a{fill:#f43f06;}.b{fill:#ae3308;}.c{fill:#fff;}</style></defs><title>reddit_hover</title><rect class="a" width="40" height="40"/><rect class="b" width="40" height="40"/><path class="c" d="M31.59,18.08a2.79,2.79,0,0,0-3.9-.6,0.33,0.33,0,0,1-.43,0A12.59,12.59,0,0,0,23.62,16a18,18,0,0,0-3-.42c0.51-1.47,1-2.9,1.53-4.33,0.08-.2.2-0.13,0.33-0.1,1.11,0.27,2.21.54,3.31,0.78a0.47,0.47,0,0,1,.42.45,2.23,2.23,0,0,0,2.19,1.92,2.28,2.28,0,0,0,.85-4.41,2.24,2.24,0,0,0-2.75,1,0.41,0.41,0,0,1-.56.22c-1.31-.33-2.63-0.62-3.93-1-0.33-.08-0.42,0-0.52.3-0.55,1.62-1.14,3.23-1.7,4.85a0.41,0.41,0,0,1-.45.33,13.78,13.78,0,0,0-6.63,1.86,0.34,0.34,0,0,1-.43,0A2.66,2.66,0,0,0,10.05,17,2.64,2.64,0,0,0,8,19.07a2.69,2.69,0,0,0,1,2.84,0.35,0.35,0,0,1,.2.36,5.19,5.19,0,0,0,1.11,3.93,8.67,8.67,0,0,0,3.23,2.57,15.07,15.07,0,0,0,11,.8,9.92,9.92,0,0,0,5.09-3.18,5.25,5.25,0,0,0,1.28-4A0.39,0.39,0,0,1,31,21.95a2.77,2.77,0,0,0,.58-3.87h0Zm-3.14-7.43A1.39,1.39,0,0,1,29.83,12,1.4,1.4,0,1,1,27,12a1.39,1.39,0,0,1,1.42-1.37h0ZM9.14,18.55a1.87,1.87,0,0,1,2.57-.42,7.18,7.18,0,0,0-2.3,3,1.86,1.86,0,0,1-.27-2.56h0Zm20,7a8.57,8.57,0,0,1-4.3,3,13.68,13.68,0,0,1-4.83.81,13.44,13.44,0,0,1-6.56-1.57,7.31,7.31,0,0,1-2.65-2.32,4.37,4.37,0,0,1,0-5.11,7.76,7.76,0,0,1,3.68-2.8,14.22,14.22,0,0,1,12,.46,7.09,7.09,0,0,1,2.66,2.26,4.35,4.35,0,0,1,0,5.26h0Zm1.42-4.37a7.13,7.13,0,0,0-2.28-3,1.84,1.84,0,0,1,2.52.32A1.9,1.9,0,0,1,30.55,21.15Zm-7.19,4.52a2.81,2.81,0,0,1-1,.58c-2,.63-4,0.74-5.75-0.64a0.44,0.44,0,0,0-.58.65,3.14,3.14,0,0,0,.86.62,6.9,6.9,0,0,0,3.26.68,6.67,6.67,0,0,0,1-.09,5.47,5.47,0,0,0,2.77-1.13A0.44,0.44,0,1,0,23.36,25.68Zm0.33-5.77a1.71,1.71,0,1,0,0,3.43A1.71,1.71,0,0,0,23.68,19.9Zm-5.44,1.71a1.72,1.72,0,1,0-1.75,1.71A1.73,1.73,0,0,0,18.24,21.62Z"/></svg>