<svg xmlns="http://www.w3.org/2000/svg" viewBox="0 0 40 40"><defs><style>.a{fill:#fff;}.b{fill:#0f7789;}</style></defs><title>share_hover</title><path class="a" d="M0,0V40H40V0H0Z"/><path class="b" d="M22.4,24.5l-4.6-2.6a4.14,4.14,0,0,0,.5-1.9,5,5,0,0,0-.2-1.2l4.8-2.7A4.1,4.1,0,0,0,26,17.5a4.27,4.27,0,0,0,4.3-4.3A4.33,4.33,0,0,0,26,8.9a4.27,4.27,0,0,0-4.3,4.3,5,5,0,0,0,.2,1.2l-4.8,2.7A4.48,4.48,0,0,0,14,15.7a4.3,4.3,0,1,0,0,8.6,3.92,3.92,0,0,0,2.6-.9l5.2,3v0.5a4.3,4.3,0,1,0,4.3-4.3A4.17,4.17,0,0,0,22.4,24.5Z"/></svg>