<svg xmlns="http://www.w3.org/2000/svg" viewBox="0 0 40 40"><defs><style>.a{fill:#008dcb;}.b{fill:#fff;}</style></defs><title>skype_hover</title><polygon class="a" points="0 40 40 40 40 0 0 0 0 40"/><path class="b" d="M29.73,20.05A9.66,9.66,0,0,0,20,10.32a8.28,8.28,0,0,0-1.64.1,5,5,0,0,0-3-.82,5.62,5.62,0,0,0-5.63,5.63,5.19,5.19,0,0,0,.72,2.87,11.76,11.76,0,0,0-.1,1.95,9.66,9.66,0,0,0,9.73,9.73,11.13,11.13,0,0,0,1.84-.1,4.73,4.73,0,0,0,2.66.72,5.62,5.62,0,0,0,5.63-5.63,5.26,5.26,0,0,0-.61-2.56c0-.72.1-1.43,0.1-2.15h0Zm-4.61,4.71a4.83,4.83,0,0,1-1.95,1.54,7,7,0,0,1-3,.51,7,7,0,0,1-3.48-.72,4.16,4.16,0,0,1-1.54-1.43,3.3,3.3,0,0,1-.61-1.84A1,1,0,0,1,15,21.89a1.53,1.53,0,0,1,.92-0.41,1.93,1.93,0,0,1,.82.2,5.68,5.68,0,0,1,.61.82,2.08,2.08,0,0,0,.61.92,2.46,2.46,0,0,0,.82.61,5.34,5.34,0,0,0,1.43.2,2.92,2.92,0,0,0,1.95-.51,1.45,1.45,0,0,0,.72-1.23,1,1,0,0,0-.41-0.92A2.32,2.32,0,0,0,21.33,21a8.5,8.5,0,0,1-1.84-.51c-0.92-.2-1.95-0.51-2.56-0.72a2.93,2.93,0,0,1-1.64-1.23,3.15,3.15,0,0,1-.61-1.95,2.7,2.7,0,0,1,.72-1.95,5.46,5.46,0,0,1,1.95-1.33,11.92,11.92,0,0,1,2.87-.51,14.12,14.12,0,0,1,2.25.2A4.31,4.31,0,0,1,24,13.8a3,3,0,0,1,.92,1.13,2.52,2.52,0,0,1,.41,1.13,1,1,0,0,1-.41.92,1.84,1.84,0,0,1-.92.41,1.93,1.93,0,0,1-.82-0.2,2.22,2.22,0,0,1-.61-0.72,3.21,3.21,0,0,0-.82-1.13,3.17,3.17,0,0,0-1.64-.41,2.42,2.42,0,0,0-1.64.41,1.17,1.17,0,0,0-.92,1.13,1.46,1.46,0,0,0,.2.61,3.25,3.25,0,0,0,.61.51,6,6,0,0,1,.82.41c0.2,0.1.72,0.2,1.33,0.41a10.77,10.77,0,0,1,2.15.61,12.92,12.92,0,0,1,1.64.72A4.25,4.25,0,0,1,25.43,21a4.82,4.82,0,0,1,.41,1.64,17.65,17.65,0,0,1-.72,2.15h0Z"/></svg>