<svg xmlns="http://www.w3.org/2000/svg" viewBox="0 0 40 40"><defs><style>.a{fill:#0a50b4;}.b{fill-opacity:0.25;}.c{fill:#e00;}.d{fill:#fff;}</style></defs><title>studivz_hover</title><rect class="a" width="40" height="40"/><rect class="b" width="40" height="40"/><path class="c" d="M22.13,18.11a6.29,6.29,0,0,0,1.08-1.91,9,9,0,0,0-2.39.4A3.89,3.89,0,0,0,20.14,15a8.11,8.11,0,0,0-1.61,1.57A5.92,5.92,0,0,0,16.59,16a4.58,4.58,0,0,0-.08,1.84,8.86,8.86,0,0,0-2.15.9,4.41,4.41,0,0,0,1.49,1.12,7.35,7.35,0,0,0-1.18,1.94A7.83,7.83,0,0,0,17,21.49a5,5,0,0,0,.64,2,8.45,8.45,0,0,0,1.76-1.77,6.85,6.85,0,0,0,2.23.73,5.4,5.4,0,0,0,0-2.16,9.35,9.35,0,0,0,2.39-1,5.74,5.74,0,0,0-1.83-1.18h0Z"/><path class="d" d="M30.75,19.67c0-.25-2.4-1.79-4.59-2.7,1.34-1.83,2.41-4.07,2.25-4.22a21.47,21.47,0,0,0-5.36,1c-0.43-1.65-1.35-3.32-1.58-3.31a17.59,17.59,0,0,0-3.41,3.28,12,12,0,0,0-4-.93,9.47,9.47,0,0,0-.32,3.75,19.12,19.12,0,0,0-4.49,1.92c-0.08.2,1.35,1.54,2.92,2.44a18,18,0,0,0-2.76,4.38c0.1,0.19,2.76,0,5.09-.62,0.22,2.21,1,4.84,1.31,4.89s2.58-2.18,4.15-4.26c2.15,1.18,5.17,2.19,5.43,2s0.18-3.13-.35-5.38c2.63-.7,5.65-2,5.69-2.25h0Zm-6.64-.37c-0.16.66,0.8,2.54,0.8,2.54a11.9,11.9,0,0,0-3.21.68A10,10,0,0,0,20,25.09a7.75,7.75,0,0,0-2.38-1.5,10.88,10.88,0,0,0-2.95.9,7.09,7.09,0,0,0-.1-2.59,6.34,6.34,0,0,0-2.19-1,10.67,10.67,0,0,0,1.88-2.11,5.06,5.06,0,0,0-.35-2.13,10.49,10.49,0,0,0,2.65-.67,8.91,8.91,0,0,0,1.55-2.07,6.22,6.22,0,0,0,2.1,1,12,12,0,0,0,2.78-.95,5.1,5.1,0,0,0,.39,2.22A9,9,0,0,0,26,17a9.48,9.48,0,0,0-1.87,2.26h0Z"/></svg>