<svg xmlns="http://www.w3.org/2000/svg" viewBox="0 0 40 40"><defs><style>.a{fill:#49ae48;}.b{fill:#3d8131;}.c{fill:#fff;}</style></defs><title>technorati_hover</title><rect class="a" width="39.92" height="40"/><rect class="b" width="39.92" height="40"/><path class="c" d="M39.92,10.88v11.9a23,23,0,0,1-12.65,3.65,24.26,24.26,0,0,1-6.21-.8c-1.88,1-7,3.82-7.64,4.43a9.39,9.39,0,0,1-1.13.94l0.9-9.26A15.5,15.5,0,0,1,6.95,9.64,14.81,14.81,0,0,1,10.63,0H39.92V8.59C39.17,3.8,33.79.09,27.27,0.09c-7,0-12.74,4.32-12.74,9.64s5.71,9.64,12.74,9.64C33.79,19.38,39.17,15.66,39.92,10.88Z"/></svg>