<?xml version="1.0" encoding="utf-8"?>
<!-- Generator: Adobe Illustrator 19.1.0, SVG Export Plug-In . SVG Version: 6.00 Build 0)  -->
<svg version="1.1" id="Layer_1" xmlns="http://www.w3.org/2000/svg" xmlns:xlink="http://www.w3.org/1999/xlink" x="0px" y="0px"
	 viewBox="-80.5 128.3 450 164" style="enable-background:new -80.5 128.3 450 164;" xml:space="preserve">
<style type="text/css">
	.st0{fill:#404040;}
	.st1{fill:#BCBEC0;}
	.st2{fill:#0D4F9E;}
	.st3{fill:#FAEA27;}
</style>
<g>
	<path class="st0" d="M-2,257.4c0-0.5,0.3-0.8,0.8-0.8h14.7c0.5,0,0.8,0.3,0.8,0.8v2.5c0,0.5-0.3,0.7-0.8,0.7H2.6v6.9h9.7
		c0.5,0,0.8,0.2,0.8,0.7v2.5c0,0.5-0.3,0.7-0.8,0.7H2.6v7.9h11.2c0.5,0,0.7,0.3,0.7,0.8v2.4c0,0.5-0.3,0.7-0.8,0.7H-1.2
		c-0.5,0-0.8-0.2-0.8-0.7V257.4z"/>
	<path class="st0" d="M34.6,283.2h-2.8c-0.3,0-0.5-0.1-0.6-0.2s-0.2-0.3-0.2-0.6v-1.2h-0.1c-0.4,0.3-0.9,0.5-1.4,0.8
		c-0.5,0.3-1.1,0.5-1.7,0.8c-0.6,0.2-1.2,0.4-1.8,0.6c-0.6,0.1-1.2,0.2-1.9,0.2c-1.4,0-2.4-0.2-3.2-0.6c-0.8-0.4-1.4-0.9-1.8-1.6
		s-0.7-1.5-0.8-2.4c-0.1-0.9-0.2-1.9-0.2-2.9v-11.8c0-0.5,0.3-0.8,0.8-0.8H22c0.5,0,0.7,0.3,0.7,0.8v11.2c0,0.6,0,1.2,0.1,1.6
		c0.1,0.5,0.2,0.9,0.4,1.2c0.2,0.3,0.5,0.6,0.9,0.8c0.4,0.2,0.9,0.3,1.5,0.3c0.4,0,0.9-0.1,1.4-0.2s1-0.3,1.5-0.5
		c0.5-0.2,1-0.4,1.4-0.6c0.4-0.2,0.8-0.4,1-0.5v-13.4c0-0.2,0.1-0.4,0.2-0.6c0.1-0.1,0.3-0.2,0.6-0.2h2.8c0.5,0,0.8,0.3,0.8,0.8v18
		C35.4,282.9,35.1,283.2,34.6,283.2z"/>
	<path class="st0" d="M44.8,282.4c0,0.5-0.3,0.8-0.8,0.8h-2.9c-0.5,0-0.8-0.3-0.8-0.8v-18c0-0.5,0.3-0.8,0.8-0.8H44
		c0.5,0,0.8,0.3,0.8,0.8v1.8l0.1,0.1c0.3-0.3,0.7-0.6,1.2-0.9s1-0.6,1.5-0.8c0.5-0.3,1.1-0.5,1.7-0.7c0.6-0.2,1.1-0.4,1.6-0.4
		c0.3-0.1,0.5,0,0.6,0c0.2,0.1,0.3,0.3,0.3,0.6l0.3,2.7c0,0.3,0,0.5,0,0.6c-0.1,0.1-0.3,0.2-0.7,0.3c-0.6,0.1-1.1,0.2-1.8,0.4
		c-0.6,0.1-1.2,0.3-1.8,0.5c-0.6,0.2-1.1,0.3-1.6,0.5c-0.5,0.2-0.9,0.3-1.3,0.5L44.8,282.4L44.8,282.4z"/>
	<path class="st0" d="M71.2,273.1c0,1.1-0.1,2.3-0.2,3.6c-0.1,1.2-0.5,2.4-1.1,3.4s-1.5,1.9-2.6,2.5c-1.2,0.7-2.8,1-4.9,1
		c-2,0-3.6-0.3-4.7-1c-1.1-0.7-2-1.5-2.6-2.5s-0.9-2.2-1.1-3.4c-0.1-1.2-0.2-2.4-0.2-3.6c0-0.9,0.1-2,0.3-3.1s0.6-2.2,1.1-3.2
		c0.6-1,1.4-1.8,2.6-2.5c1.1-0.7,2.7-1,4.6-1s3.5,0.3,4.6,0.9c1.2,0.6,2,1.4,2.7,2.3c0.6,0.9,1,2,1.2,3.2
		C71.1,270.7,71.2,271.9,71.2,273.1z M66.8,273.4c0-1.1-0.1-2-0.2-2.8c-0.1-0.8-0.3-1.4-0.6-2c-0.3-0.5-0.8-0.9-1.3-1.2
		c-0.5-0.3-1.3-0.4-2.2-0.4c-0.9,0-1.5,0.1-2.1,0.4c-0.5,0.3-1,0.7-1.3,1.2s-0.5,1.2-0.6,2c-0.1,0.8-0.2,1.7-0.2,2.7
		c0,1.1,0.1,2,0.2,2.8c0.1,0.8,0.3,1.4,0.6,2c0.3,0.5,0.7,0.9,1.2,1.2c0.5,0.3,1.2,0.4,2.1,0.4c0.9,0,1.6-0.1,2.2-0.4s1-0.6,1.3-1.2
		c0.3-0.5,0.5-1.2,0.6-2C66.7,275.4,66.8,274.4,66.8,273.4z"/>
	<path class="st0" d="M92.4,273.3c0,1.6-0.1,3.1-0.4,4.4c-0.2,1.3-0.7,2.4-1.3,3.2c-0.6,0.9-1.4,1.5-2.4,2s-2.3,0.7-3.9,0.7
		c-0.7,0-1.4-0.1-2.3-0.2s-1.8-0.4-2.7-0.7l0,0v7c0,0.2,0,0.4-0.1,0.6c-0.1,0.2-0.3,0.2-0.6,0.2h-2.8c-0.3,0-0.5-0.1-0.6-0.2
		c-0.1-0.1-0.1-0.3-0.1-0.6v-25.4c0-0.5,0.3-0.8,0.8-0.8h2.8c0.3,0,0.5,0.1,0.6,0.2s0.1,0.3,0.1,0.6v1.2l0.1,0.1
		c0.3-0.2,0.8-0.5,1.3-0.8c0.5-0.3,1-0.5,1.6-0.8c0.6-0.2,1.1-0.4,1.7-0.6c0.6-0.2,1.2-0.2,1.8-0.2c1.3,0,2.4,0.2,3.2,0.7
		c0.9,0.5,1.5,1.2,2,2c0.5,0.9,0.8,1.9,1,3.1C92.3,270.4,92.4,271.8,92.4,273.3z M87.9,273.2c0-1.3-0.1-2.3-0.2-3.1
		c-0.1-0.8-0.3-1.4-0.6-1.8c-0.3-0.4-0.6-0.7-1-0.9c-0.4-0.1-0.8-0.2-1.4-0.2c-0.4,0-0.9,0.1-1.4,0.2c-0.5,0.1-1,0.3-1.5,0.5
		c-0.5,0.2-1,0.4-1.4,0.6s-0.8,0.4-1.1,0.6v10c0.9,0.3,1.7,0.4,2.5,0.5c0.7,0.1,1.4,0.1,2.1,0.1s1.3-0.1,1.8-0.3
		c0.5-0.2,0.9-0.6,1.2-1.1c0.3-0.5,0.5-1.2,0.7-2C87.9,275.5,87.9,274.5,87.9,273.2z"/>
	<path class="st0" d="M113,273.1c0,1.1-0.1,2.3-0.2,3.6c-0.1,1.2-0.5,2.4-1.1,3.4s-1.5,1.9-2.6,2.5c-1.2,0.7-2.8,1-4.9,1
		c-2,0-3.6-0.3-4.7-1c-1.1-0.7-2-1.5-2.6-2.5s-0.9-2.2-1.1-3.4c-0.1-1.2-0.2-2.4-0.2-3.6c0-0.9,0.1-2,0.3-3.1
		c0.2-1.1,0.6-2.2,1.1-3.2c0.6-1,1.4-1.8,2.6-2.5c1.1-0.7,2.7-1,4.6-1s3.5,0.3,4.6,0.9c1.2,0.6,2,1.4,2.7,2.3c0.6,0.9,1,2,1.2,3.2
		C112.9,270.7,113,271.9,113,273.1z M108.5,273.4c0-1.1-0.1-2-0.2-2.8c-0.1-0.8-0.3-1.4-0.6-2c-0.3-0.5-0.8-0.9-1.3-1.2
		c-0.5-0.3-1.3-0.4-2.2-0.4c-0.9,0-1.5,0.1-2.1,0.4c-0.5,0.3-1,0.7-1.3,1.2s-0.5,1.2-0.6,2c-0.1,0.8-0.2,1.7-0.2,2.7
		c0,1.1,0.1,2,0.2,2.8c0.1,0.8,0.3,1.4,0.6,2c0.3,0.5,0.7,0.9,1.2,1.2c0.5,0.3,1.2,0.4,2.1,0.4s1.6-0.1,2.2-0.4s1-0.6,1.3-1.2
		c0.3-0.5,0.5-1.2,0.6-2C108.5,275.4,108.5,274.4,108.5,273.4z"/>
	<path class="st0" d="M131.6,277.3c0,1.2-0.2,2.2-0.7,2.9c-0.5,0.8-1.1,1.4-1.8,1.9c-0.8,0.5-1.6,0.8-2.6,1c-1,0.2-2,0.3-3,0.3
		s-2.1-0.1-3.3-0.2c-1.2-0.1-2.1-0.4-2.9-0.7c-0.4-0.2-0.7-0.3-0.8-0.5c-0.1-0.2-0.1-0.5-0.1-0.8l0.3-1.3c0.1-0.3,0.2-0.5,0.3-0.6
		c0.2-0.1,0.4-0.1,0.7,0c0.4,0.1,0.9,0.1,1.4,0.2s1,0.1,1.6,0.1s1,0.1,1.5,0.1s0.9,0,1.2,0c1.3,0,2.2-0.2,2.8-0.5
		c0.6-0.4,0.8-0.9,0.8-1.7c0-0.5,0-0.8-0.1-1.1c-0.1-0.3-0.3-0.5-0.5-0.7c-0.2-0.2-0.6-0.3-1-0.5c-0.4-0.1-0.9-0.2-1.6-0.3
		c-1-0.1-1.9-0.3-2.8-0.5c-0.9-0.2-1.7-0.5-2.3-0.9c-0.7-0.4-1.2-1-1.6-1.6c-0.4-0.7-0.6-1.6-0.6-2.7c0-2,0.7-3.5,2.1-4.5
		s3.2-1.5,5.4-1.5c0.4,0,0.9,0,1.4,0s1.1,0.1,1.6,0.2c0.5,0.1,1.1,0.2,1.6,0.3s1,0.2,1.4,0.4c0.7,0.3,0.9,0.7,0.8,1.2l-0.3,1.4
		c-0.1,0.3-0.2,0.5-0.3,0.5c-0.1,0.1-0.4,0.1-0.8,0c-0.9-0.1-1.8-0.2-2.8-0.3s-1.9-0.1-2.6-0.1c-1.3,0-2.1,0.2-2.5,0.5
		c-0.4,0.4-0.6,0.9-0.6,1.7c0,0.8,0.3,1.3,0.8,1.5c0.5,0.2,1.4,0.5,2.6,0.6c1,0.1,1.9,0.3,2.7,0.5c0.9,0.2,1.6,0.5,2.3,1
		c0.7,0.4,1.2,1,1.6,1.7C131.4,275.2,131.6,276.1,131.6,277.3z"/>
	<path class="st0" d="M151.6,269.4l3-3.9l6.7-8.3c0.2-0.2,0.4-0.4,0.6-0.5c0.2-0.1,0.4-0.1,0.8-0.1h3.6c0.3,0,0.5,0.1,0.5,0.2
		c0.1,0.2,0,0.3-0.2,0.6L158,268l9,14.4c0.2,0.3,0.2,0.5,0.1,0.6c-0.1,0.1-0.3,0.2-0.5,0.2h-3.7c-0.3,0-0.6-0.1-0.8-0.2
		s-0.3-0.3-0.5-0.6l-6.6-10.9l-3.5,4.4v6.5c0,0.2,0,0.4-0.1,0.5s-0.3,0.2-0.6,0.2h-3c-0.5,0-0.8-0.3-0.8-0.8v-25
		c0-0.5,0.3-0.8,0.8-0.8h3c0.3,0,0.5,0.1,0.6,0.2s0.1,0.3,0.1,0.6L151.6,269.4L151.6,269.4z"/>
	<path class="st0" d="M186.7,273.1c0,1.1-0.1,2.3-0.2,3.6c-0.1,1.2-0.5,2.4-1.1,3.4s-1.5,1.9-2.6,2.5c-1.2,0.7-2.8,1-4.9,1
		c-2,0-3.6-0.3-4.7-1c-1.1-0.7-2-1.5-2.6-2.5s-0.9-2.2-1.1-3.4c-0.1-1.2-0.2-2.4-0.2-3.6c0-0.9,0.1-2,0.3-3.1s0.6-2.2,1.1-3.2
		c0.6-1,1.4-1.8,2.6-2.5c1.1-0.7,2.7-1,4.6-1c1.9,0,3.5,0.3,4.6,0.9c1.2,0.6,2,1.4,2.7,2.3c0.6,0.9,1,2,1.2,3.2
		C186.6,270.7,186.7,271.9,186.7,273.1z M182.2,273.4c0-1.1-0.1-2-0.2-2.8c-0.1-0.8-0.3-1.4-0.6-2c-0.3-0.5-0.8-0.9-1.3-1.2
		c-0.5-0.3-1.3-0.4-2.2-0.4s-1.5,0.1-2.1,0.4c-0.5,0.3-1,0.7-1.3,1.2s-0.5,1.2-0.6,2c-0.1,0.8-0.2,1.7-0.2,2.7c0,1.1,0.1,2,0.2,2.8
		c0.1,0.8,0.3,1.4,0.6,2c0.3,0.5,0.7,0.9,1.2,1.2c0.5,0.3,1.2,0.4,2.1,0.4c0.9,0,1.6-0.1,2.2-0.4c0.6-0.3,1-0.6,1.3-1.2
		c0.3-0.5,0.5-1.2,0.6-2C182.2,275.4,182.2,274.4,182.2,273.4z"/>
	<path class="st0" d="M219.1,283c-0.1,0.1-0.3,0.2-0.6,0.2h-2.9c-0.5,0-0.8-0.3-0.8-0.8V271c0-1.5-0.2-2.5-0.6-3
		c-0.4-0.5-1.1-0.8-2.1-0.8c-0.4,0-0.8,0.1-1.3,0.2c-0.5,0.1-0.9,0.3-1.4,0.5c-0.5,0.2-0.9,0.4-1.3,0.6c-0.4,0.2-0.8,0.4-1.1,0.6
		c0,0.2,0,0.5,0,0.8c0,0.3,0,0.7,0,1.2v11.3c0,0.2-0.1,0.4-0.2,0.6c-0.1,0.1-0.3,0.2-0.6,0.2h-2.9c-0.5,0-0.7-0.3-0.7-0.8v-11.6
		c0-1.2-0.2-2.1-0.6-2.7c-0.4-0.6-1.1-0.9-2.1-0.9c-0.3,0-0.7,0.1-1.2,0.2c-0.5,0.1-0.9,0.3-1.4,0.4c-0.5,0.2-0.9,0.4-1.4,0.6
		c-0.5,0.2-0.9,0.4-1.2,0.6v13.4c0,0.5-0.3,0.8-0.8,0.8H191c-0.5,0-0.7-0.3-0.7-0.8v-18c0-0.5,0.2-0.8,0.7-0.8h2.8
		c0.5,0,0.8,0.3,0.8,0.8v1.2l0,0c0.4-0.3,0.8-0.5,1.3-0.8c0.5-0.3,0.9-0.5,1.5-0.7c0.5-0.2,1-0.4,1.6-0.5c0.5-0.1,1.1-0.2,1.6-0.3
		c1.1,0,2.2,0.2,3.1,0.5c0.9,0.4,1.7,1.1,2.3,2.3c1-0.7,2.1-1.4,3.3-2s2.4-0.8,3.7-0.8s2.3,0.2,3.1,0.6c0.8,0.4,1.4,0.9,1.8,1.6
		c0.4,0.7,0.7,1.5,0.8,2.4s0.2,1.9,0.2,2.8v11.8C219.3,282.7,219.2,282.9,219.1,283z"/>
	<path class="st0" d="M228.8,258.4c0,0.3,0,0.6-0.1,0.9c-0.1,0.3-0.2,0.5-0.3,0.7c-0.2,0.2-0.4,0.4-0.7,0.5s-0.7,0.2-1.2,0.2
		s-1-0.1-1.3-0.2c-0.3-0.1-0.5-0.3-0.7-0.5c-0.2-0.2-0.3-0.5-0.3-0.7c-0.1-0.3-0.1-0.6-0.1-0.9c0-0.6,0.2-1.2,0.5-1.6
		c0.3-0.4,0.9-0.7,1.9-0.7s1.6,0.2,1.9,0.6C228.6,257.2,228.8,257.7,228.8,258.4z M228.5,282.4c0,0.2,0,0.4-0.1,0.5
		s-0.3,0.2-0.6,0.2H225c-0.5,0-0.8-0.3-0.8-0.8v-18.1c0-0.5,0.3-0.8,0.8-0.8h2.8c0.3,0,0.5,0.1,0.6,0.2c0.1,0.1,0.1,0.3,0.1,0.5
		L228.5,282.4L228.5,282.4z"/>
	<path class="st0" d="M248.1,277.3c0,1.2-0.2,2.2-0.7,2.9c-0.5,0.8-1.1,1.4-1.8,1.9s-1.6,0.8-2.6,1c-1,0.2-2,0.3-3,0.3
		s-2.1-0.1-3.3-0.2c-1.2-0.1-2.1-0.4-2.9-0.7c-0.4-0.2-0.7-0.3-0.8-0.5c-0.1-0.2-0.1-0.5-0.1-0.8l0.3-1.3c0.1-0.3,0.2-0.5,0.3-0.6
		c0.2-0.1,0.4-0.1,0.7,0c0.4,0.1,0.9,0.1,1.4,0.2s1,0.1,1.6,0.1c0.5,0,1,0.1,1.5,0.1s0.9,0,1.2,0c1.3,0,2.2-0.2,2.8-0.5
		c0.6-0.4,0.8-0.9,0.8-1.7c0-0.5,0-0.8-0.1-1.1c-0.1-0.3-0.3-0.5-0.5-0.7c-0.2-0.2-0.6-0.3-1-0.5c-0.4-0.1-0.9-0.2-1.6-0.3
		c-1-0.1-1.9-0.3-2.8-0.5c-0.9-0.2-1.7-0.5-2.3-0.9c-0.7-0.4-1.2-1-1.6-1.6c-0.4-0.7-0.6-1.6-0.6-2.7c0-2,0.7-3.5,2.1-4.5
		c1.4-1,3.2-1.5,5.4-1.5c0.4,0,0.9,0,1.4,0s1.1,0.1,1.6,0.2c0.5,0.1,1.1,0.2,1.6,0.3s1,0.2,1.4,0.4c0.7,0.3,0.9,0.7,0.8,1.2
		l-0.3,1.4c-0.1,0.3-0.2,0.5-0.3,0.5c-0.1,0.1-0.4,0.1-0.8,0c-0.9-0.1-1.8-0.2-2.8-0.3s-1.9-0.1-2.6-0.1c-1.3,0-2.1,0.2-2.5,0.5
		c-0.4,0.4-0.6,0.9-0.6,1.7c0,0.8,0.3,1.3,0.8,1.5c0.5,0.2,1.4,0.5,2.6,0.6c1,0.1,1.9,0.3,2.7,0.5c0.9,0.2,1.6,0.5,2.3,1
		c0.7,0.4,1.2,1,1.6,1.7C247.9,275.2,248.1,276.1,248.1,277.3z"/>
	<path class="st0" d="M257,258.4c0,0.3,0,0.6-0.1,0.9c-0.1,0.3-0.2,0.5-0.3,0.7c-0.2,0.2-0.4,0.4-0.7,0.5c-0.3,0.1-0.7,0.2-1.2,0.2
		s-1-0.1-1.3-0.2c-0.3-0.1-0.5-0.3-0.7-0.5c-0.2-0.2-0.3-0.5-0.3-0.7c-0.1-0.3-0.1-0.6-0.1-0.9c0-0.6,0.2-1.2,0.5-1.6
		c0.3-0.4,0.9-0.7,1.9-0.7c1,0,1.6,0.2,1.9,0.6C256.9,257.2,257,257.7,257,258.4z M256.8,282.4c0,0.2,0,0.4-0.1,0.5
		s-0.3,0.2-0.6,0.2h-2.8c-0.5,0-0.8-0.3-0.8-0.8v-18.1c0-0.5,0.3-0.8,0.8-0.8h2.8c0.3,0,0.5,0.1,0.6,0.2c0.1,0.1,0.1,0.3,0.1,0.5
		V282.4z"/>
	<path class="st0" d="M267.3,283.6c0,1.3-0.1,2.5-0.4,3.5s-0.8,1.8-1.5,2.5c-0.7,0.7-1.6,1.2-2.8,1.5c-1.1,0.3-2.5,0.5-4.2,0.4
		c-0.1,0-0.3-0.1-0.5-0.2c-0.2-0.1-0.3-0.3-0.4-0.6l-0.2-1.9c-0.1-0.3,0-0.5,0.1-0.6s0.3-0.2,0.6-0.2c0.9-0.2,1.7-0.4,2.3-0.5
		c0.6-0.2,1.1-0.4,1.5-0.7c0.4-0.3,0.7-0.7,0.8-1.1c0.2-0.5,0.2-1.1,0.2-1.9v-19.4c0-0.5,0.3-0.8,0.8-0.8h2.8c0.5,0,0.8,0.3,0.8,0.8
		v19.2H267.3z M267.4,258.4c0,0.3,0,0.6-0.1,0.9c-0.1,0.3-0.2,0.5-0.3,0.7c-0.2,0.2-0.4,0.4-0.7,0.5c-0.3,0.1-0.7,0.2-1.2,0.2
		s-1-0.1-1.3-0.2c-0.3-0.1-0.5-0.3-0.7-0.5c-0.2-0.2-0.3-0.5-0.3-0.7c-0.1-0.3-0.1-0.6-0.1-0.9c0-0.6,0.2-1.2,0.5-1.6
		c0.3-0.4,1-0.7,1.9-0.7c1,0,1.6,0.2,1.9,0.6C267.3,257.2,267.4,257.7,267.4,258.4z"/>
	<path class="st0" d="M284.6,280.9c-1,0.8-2.2,1.4-3.4,1.9s-2.6,0.7-3.9,0.7c-1.1,0-2-0.1-2.7-0.4c-0.7-0.3-1.3-0.7-1.7-1.2
		c-0.4-0.5-0.7-1.1-0.9-1.8c-0.2-0.7-0.3-1.5-0.3-2.3c0-2.3,0.6-4,1.8-5.1c1.3-1.1,3.1-1.6,5.7-1.6h5.1v-1c0-0.6-0.1-1.1-0.2-1.5
		s-0.3-0.8-0.7-1c-0.3-0.3-0.7-0.5-1.3-0.6c-0.5-0.1-1.2-0.2-2-0.2c-0.3,0-0.7,0-1.2,0s-0.9,0.1-1.4,0.1s-1,0.1-1.5,0.1
		c-0.5,0.1-0.9,0.1-1.3,0.1c-0.4,0.1-0.7,0.1-0.8,0c-0.1,0-0.2-0.2-0.3-0.5l-0.4-1.5c-0.1-0.3,0-0.5,0.1-0.7
		c0.1-0.2,0.4-0.3,0.8-0.5c0.4-0.2,0.9-0.3,1.5-0.4s1.2-0.2,1.8-0.3c0.6-0.1,1.2-0.1,1.8-0.2c0.6,0,1.1-0.1,1.6-0.1
		c1.7,0,3.1,0.2,4.1,0.5c1,0.3,1.8,0.8,2.3,1.5c0.5,0.6,0.9,1.4,1,2.3c0.2,0.9,0.2,1.9,0.2,3v7.7c0,0.4,0,0.7,0.1,0.9
		c0,0.2,0.1,0.4,0.2,0.5s0.2,0.2,0.4,0.3c0.2,0.1,0.4,0.1,0.8,0.1c0.3,0,0.5,0.1,0.6,0.2c0.1,0.1,0.2,0.2,0.2,0.4v1.7
		c0,0.5-0.3,0.7-1,0.8c-0.3,0.1-0.6,0.1-1,0.1s-0.6,0.1-0.9,0.1c-0.9,0-1.7-0.2-2.3-0.5C285.3,282.5,284.9,281.9,284.6,280.9
		L284.6,280.9z M284.4,274.3h-4.9c-1,0-1.8,0.2-2.4,0.7s-0.9,1.4-0.9,2.7c0,0.9,0.2,1.5,0.5,1.8c0.4,0.3,1,0.5,1.9,0.5
		c0.4,0,0.9-0.1,1.4-0.2c0.5-0.1,1-0.3,1.5-0.4c0.5-0.1,1-0.4,1.5-0.6s0.9-0.4,1.3-0.7v-3.8H284.4z"/>
</g>
<g>
	<path class="st1" d="M55.4,167.4c0,0,62.2-8.1,64-8.4c2.7-0.4,5.1-1,7.3-1.6c5-1.4,9.7-3.5,13.8-6.3c3.9-2.7,7.6-6.5,11.2-10.8
		c2.3-2.7,4.7-6.2,7-9.6V129c-2.7,4-5.3,7.5-8,10.5c-3.6,4-7.4,7.4-11.2,9.8c-4,2.6-8.4,4.5-13.3,5.7c-2.2,0.6-4.5,1-7.1,1.4
		c-1.7,0.2-3.5,0.4-5.2,0.6c-0.7,0.1-58.4,6.3-58.4,6.3L55.4,167.4L55.4,167.4z"/>
	<path class="st1" d="M138.8,156.9c-3.9,2.3-8.4,3.9-13.4,4.9c-2.1,0.4-4.4,0.8-7.1,1.1c-1.6,0.2-3.1,0.3-4.7,0.4
		c-0.8,0.1-1.7,0.1-2.5,0.2c-19.1,1.7-38,3.6-55.8,5.3v4.2c17.9-2.2,37-4.5,56.1-6.7c0.8-0.1,1.7-0.2,2.5-0.3
		c1.6-0.2,3.1-0.3,4.7-0.6c2.7-0.4,5.1-0.8,7.3-1.3c5.2-1.2,9.8-3,13.9-5.5c4-2.4,7.6-5.8,11.4-10c2.4-2.6,5-6.3,7.5-9.7v-1.4
		c-2.9,4-5.7,7.3-8.4,10.2C146.5,151.6,142.7,154.7,138.8,156.9"/>
	<path class="st1" d="M149.7,155.9c-3.8,3.5-7.8,6.3-11.8,8.2c-3.9,1.9-8.3,3.3-13.5,4.1c-2.1,0.4-4.4,0.6-7,0.9l-62.1,5.2v4.1
		l55.2-5.9l7.1-0.8c2.7-0.3,5-0.7,7.2-1.1c5.3-1,9.9-2.5,13.9-4.6c4.1-2.1,8.3-5.6,12.1-9.4c2.6-2.5,5.1-5.7,7.7-9.1v-1.4
		C155.6,150,152.7,153.2,149.7,155.9"/>
	<path class="st1" d="M134.7,177c-3.6,2-6.3,3.2-11.5,3.8c-3.1,0.3-6.3,0.5-9.4,0.7c-1.5,0.1-3,0.2-4.5,0.2
		c-9.4,0.5-18.6,1.1-28,1.8l-25.9,1.8v4.1l26.2-2.4c8.5-0.8,18.3-1.7,27.9-2.4l7-0.5c2.7-0.2,5-0.4,7-0.7c5.3-0.7,9.8-1.8,13.9-3.3
		c4.3-1.6,8.4-4.2,12.5-7.2c3.7-2.7,8.8-8,8.8-8.1v-1.4c-3.3,3.3-5.3,5.1-8.9,7.6C145.4,173.7,138,175.2,134.7,177"/>
	<path class="st1" d="M136,184.8c-3.9,1.2-8.3,1.9-13.5,2.4c-2.1,0.2-4.3,0.3-6.9,0.4l-6.9,0.3c-17.3,0.8-34.4,1.7-53.4,2.7v4.1
		c18.1-1.4,35.8-2.8,53.5-4.1l6.9-0.5c2.7-0.2,4.9-0.4,7-0.6c5.3-0.6,9.8-1.5,13.8-2.8c4.4-1.4,8.8-3.5,12.9-6.1
		c3-1.9,6.1-4.3,9.2-7v-0.1c-3.5,3-6.8,3.6-10,5.7C144.6,181.6,140.4,183.5,136,184.8"/>
	<path class="st1" d="M135.4,191.5c-3.9,0.9-8.2,1.5-13.5,1.9c-2,0.1-4.2,0.2-6.8,0.3l-6.9,0.2c-17.3,0.7-34.9,1.4-52.9,2.2v4.1
		c17.8-1.2,35.3-2.4,53-3.5l6.9-0.4c2.7-0.2,4.9-0.3,6.9-0.5c5.3-0.5,9.7-1.2,13.7-2.3c4.5-1.2,8.9-2.9,13.1-5.1
		c3.2-1.7,6.4-3.8,9.7-6.3v-1.7c-3.6,2.6-7,4.8-10.5,6.5C144.1,188.9,139.8,190.5,135.4,191.5"/>
	<path class="st1" d="M134.8,198.1c-4,0.7-8.2,1.2-13.4,1.5c-2,0.1-4,0.2-6.8,0.2l-59.2,1.6v4.1l52.5-2.8l6.8-0.3
		c2.7-0.1,4.8-0.3,6.8-0.4c5.3-0.4,9.6-1,13.6-1.8c4.6-1,9-2.4,13.2-4.2c3.4-1.4,6.8-3.2,10.3-5.4V189c-3.8,2.2-7.3,4-10.9,5.4
		C143.6,196.1,139.3,197.3,134.8,198.1"/>
	<path class="st1" d="M134.3,204.8c-7.3,1-14.8,1.1-22,1.2c-1.7,0-3.3,0-5,0.1l-52,0.9v4.1l52.1-2.3c1.7-0.1,3.3-0.1,5-0.2
		c7.3-0.3,14.8-0.6,22.2-1.8c4.7-0.7,9.2-1.8,13.3-3.3c3.5-1.2,7.1-2.7,10.7-4.5v-1.6c-3.8,1.8-7.6,3.3-11.2,4.4
		C143.3,203.2,138.9,204.2,134.3,204.8"/>
	<path class="st1" d="M133.9,211.5c-6.8,0.6-13.8,0.6-20.5,0.6c-2.1,0-4.2,0-6.3,0c-17.2,0.1-34.3,0.2-51.7,0.4v4.1
		c16.6-0.6,34.2-1.2,51.8-1.7c2.1-0.1,4.2-0.1,6.3-0.2c6.8-0.2,13.8-0.4,20.7-1.1c4.8-0.5,9.2-1.3,13.4-2.3
		c3.7-0.9,7.4-2.1,11.2-3.6v-1.5c-3.9,1.4-7.8,2.6-11.5,3.4C143,210.4,138.6,211.1,133.9,211.5"/>
	<path class="st1" d="M133.7,218.1c-2.8,0.1-5.9,0.2-9.4,0.2c-1.3,0-2.6,0-3.9,0l-13.5-0.3c-9.1,0-18.2,0-26.8,0H55.4v4l24.8-0.7
		c8.5-0.2,17.7-0.4,26.8-0.6l13.4-0.2c3.7-0.1,8.5-0.2,13.4-0.5c4.8-0.3,9.2-0.8,13.4-1.5c3.8-0.6,7.6-1.4,11.5-2.4v-1.4
		c-4,0.9-7.9,1.7-11.7,2.2C142.7,217.5,138.4,217.9,133.7,218.1"/>
	<path class="st1" d="M120.2,224.4l-13.4-0.1c-17-0.2-34.1-0.6-51.4-0.9v4.1c16.6-0.1,34.1-0.2,51.4-0.4l13.4-0.2
		c4.5-0.1,8.9-0.2,13.4-0.3c9.2-0.3,17.4-1,25.1-2v-1.4c-7.7,0.8-16,1.3-25.1,1.3C129.1,224.5,124.6,224.5,120.2,224.4"/>
	<polygon class="st1" points="158.7,231.6 55.4,229 55.4,233 158.7,233 	"/>
	<path class="st1" d="M149.4,163.5c-3.9,3.2-7,5.5-11.8,7.4c-4.2,1.7-8.7,2.4-13.8,3.1c-3.3,0.5-6.8,1.2-10.1,1.4
		c-1.4,0.1-2.7,0.2-4.1,0.3l-54.3,4v4.1l54.5-5.3l7.1-0.7c2.6-0.3,4.9-0.5,7.1-0.9c5.3-0.9,9.8-2.2,13.9-4c4.2-1.9,8.5-5,12.5-8.4
		c2.7-2.3,5.3-5.2,8.2-8.4v-1.5C155.2,158.2,152.4,161.1,149.4,163.5"/>
	<path class="st1" d="M202.6,129c0,0,18.6,29.7,22,35.2c3.4,5.4,7.3,9.8,21,12.7c13.8,2.9,19.7,4.3,19.7,4.3v1.1c0,0-8.7-1.9-20-4.4
		c-11.2-2.5-15.8-3.4-21-10.5c-4.3-6-21.8-31.3-21.8-31.3L202.6,129L202.6,129z"/>
	<path class="st1" d="M202.6,162.9c0,0,16.9,17.8,21.8,22.9c5.2,5.4,11.8,7.4,21.1,9.1c8.8,1.6,19.9,3.4,19.9,3.4v1
		c0,0-10.4-1.7-19.9-3.3c-9.3-1.6-15.8-2.5-21.1-7.4c-4.8-4.4-21.8-20.4-21.8-20.4L202.6,162.9L202.6,162.9z"/>
	<path class="st1" d="M202.6,170.9c0,0,16.1,15,21.8,20.1c5.3,4.7,9.5,6.2,21.1,8.2c11.6,2.1,19.8,3.3,19.8,3.3v1.1
		c0,0-10.5-1.7-19.9-3.2s-15.4-2.1-21.1-6.7c-6.5-5.3-21.8-17.9-21.8-17.9L202.6,170.9L202.6,170.9z"/>
	<path class="st1" d="M202.6,179.5c0,0,18.4,14.6,21.8,17.2c3.4,2.6,8,5.5,21.2,7.5c13.1,1.9,19.8,2.8,19.8,2.8v1.1
		c0,0-11.9-1.7-19.8-2.7c-7.9-1-14-1.4-21.1-6.2c-6.9-4.6-21.9-15.2-21.9-15.2L202.6,179.5L202.6,179.5z"/>
	<path class="st1" d="M202.6,187.7c0,0,18.4,12.3,21.9,14.3c3.5,1.9,7.6,5.1,21.1,6.8s19.8,2.5,19.8,2.5v1.1c0,0-11.1-1.2-19.8-2.2
		c-8.7-0.9-14.6-2.2-21.1-5.8s-21.8-12.6-21.8-12.6L202.6,187.7L202.6,187.7z"/>
	<path class="st1" d="M202.6,195.9c0,0,16.3,8.9,21.8,11.7c6.2,3.1,11.5,4.6,21.1,5.7c9.5,1.1,19.8,2.2,19.8,2.2v1c0,0-9.6-1-19.8-2
		s-13.8-1.4-21.1-4.7c-6.6-2.9-21.8-10.1-21.8-10.1V195.9z"/>
	<path class="st1" d="M202.6,204.2c0,0,12.9,5.5,21.9,9.1c8.9,3.5,15.7,3.8,21.1,4.5c2.4,0.3,19.7,2.1,19.7,2.1v1
		c0,0-10.4-0.8-19.8-1.7c-9.4-0.8-13.5-1.2-21.1-3.7c-7.7-2.6-21.9-7.5-21.9-7.5L202.6,204.2L202.6,204.2z"/>
	<path class="st1" d="M202.6,212.7c0,0,13,4,21.9,6.4c8.9,2.3,17,3.3,21.1,3.6c4.1,0.3,19.8,1.6,19.8,1.6v0.9c0,0-8.9-0.6-19.8-1.4
		c-8.8-0.6-15.9-1.3-21.1-2.4c-5.8-1.3-21.8-5.1-21.8-5.1L202.6,212.7L202.6,212.7z"/>
	<path class="st1" d="M202.6,221.1c0,0,10.6,1.8,21.9,3.7c8.4,1.4,19.8,2.3,21.1,2.3c1.2,0.1,19.8,1.3,19.8,1.3v1
		c0,0-11.9-0.6-19.8-1.1c-8.3-0.5-16.5-1-21.1-1.4c-10.4-1.1-21.8-2.5-21.8-2.5L202.6,221.1L202.6,221.1z"/>
	<path class="st1" d="M202.6,229.7c0,0,16.8,0.6,21.9,0.7c5.1,0.1,40.9,1.6,40.9,1.6v1h-62.8L202.6,229.7L202.6,229.7z"/>
	<path class="st1" d="M245.5,181.4c-15.2-3.3-18.6-8.9-21.2-12.3c-2.5-3.5-21.8-31.6-21.8-31.6v6.4c0.8,1,17.2,22.6,21.8,28.5
		c5.2,6.7,13.4,8.2,21.1,9.9c7.8,1.7,19.8,4,19.8,4v-0.9C265.4,185.4,249.5,182.3,245.5,181.4"/>
	<path class="st1" d="M245.5,185.9c-12.5-2.4-17.5-6.4-21.2-11.2c-3.7-4.8-21.8-28.7-21.8-28.7v6c0.8,0.9,17.3,20.6,21.8,25.7
		c5.2,6,12.4,7.5,21.2,9.1c8.8,1.6,19.8,3.7,19.8,3.7v-0.9C265.4,189.7,252.7,187.3,245.5,185.9"/>
	<path class="st1" d="M245.5,190.5c-13-2.5-15.6-4.6-21.1-10.6c-3.4-3.8-21.1-24.7-21.8-25.5v5.6c0,0,16.5,17.6,21.8,22.8
		c6.9,6.8,13.5,7.3,21.2,8.7c7.7,1.4,19.8,3.6,19.8,3.6v-0.9C265.4,194.1,250.7,191.5,245.5,190.5"/>
	<rect x="98.3" y="172.3" class="st2" width="90.5" height="60.7"/>
	<polygon class="st3" points="144.5,180.9 147.7,180.9 145.1,182.9 146.1,186 143.6,184.1 141.1,186 142.1,182.9 139.5,180.9 
		142.6,180.9 143.6,177.8 	"/>
	<polygon class="st3" points="144.6,221.4 147.8,221.4 145.3,223.3 146.2,226.3 143.7,224.5 141.2,226.3 142.2,223.3 139.6,221.4 
		142.8,221.4 143.7,218.4 	"/>
	<polygon class="st3" points="154.6,218.7 157.8,218.7 155.2,220.6 156.2,223.7 153.7,221.8 151.2,223.7 152.2,220.6 149.6,218.7 
		152.7,218.7 153.7,215.8 	"/>
	<polygon class="st3" points="154.6,183.6 157.8,183.6 155.2,185.5 156.2,188.5 153.7,186.7 151.2,188.5 152.2,185.5 149.6,183.6 
		152.7,183.6 153.7,180.6 	"/>
	<polygon class="st3" points="162,191 165.2,191 162.6,192.9 163.6,196 161.1,194.1 158.6,196 159.6,192.9 157,191 160.2,191 
		161.1,188.1 	"/>
	<polygon class="st3" points="162,211.4 165.2,211.4 162.6,213.3 163.6,216.3 161.1,214.5 158.6,216.3 159.6,213.3 157,211.4 
		160.2,211.4 161.1,208.4 	"/>
	<polygon class="st3" points="164.8,201.1 168,201.1 165.4,203 166.4,206 163.9,204.1 161.4,206 162.4,203 159.8,201.1 162.9,201.1 
		163.9,198.1 	"/>
	<polygon class="st3" points="134.3,183.6 137.5,183.6 135,185.5 135.9,188.6 133.4,186.7 130.9,188.6 131.9,185.5 129.3,183.6 
		132.5,183.6 133.4,180.7 	"/>
	<polygon class="st3" points="127.1,191.1 130.3,191.1 127.8,193 128.7,196 126.2,194.1 123.7,196 124.7,193 122.1,191.1 
		125.3,191.1 126.2,188.1 	"/>
	<polygon class="st3" points="124.5,201.1 127.6,201.1 125.1,203 126.1,206 123.5,204.2 121,206 122,203 119.4,201.1 122.6,201.1 
		123.5,198.1 	"/>
	<polygon class="st3" points="127.1,211.4 130.3,211.4 127.8,213.3 128.7,216.4 126.2,214.5 123.7,216.4 124.7,213.3 122.1,211.4 
		125.3,211.4 126.2,208.5 	"/>
	<polygon class="st3" points="134.5,218.7 137.6,218.7 135.1,220.7 136,223.7 133.5,221.8 131,223.7 132,220.7 129.4,218.7 
		132.6,218.7 133.5,215.8 	"/>
</g>
</svg>
