<?xml version="1.0" encoding="utf-8"?>
<!-- Generator: Adobe Illustrator 19.1.0, SVG Export Plug-In . SVG Version: 6.00 Build 0)  -->
<svg version="1.1" id="Layer_1" xmlns="http://www.w3.org/2000/svg" xmlns:xlink="http://www.w3.org/1999/xlink" x="0px" y="0px"
	 viewBox="-39.9 128.3 450 164" style="enable-background:new -39.9 128.3 450 164;" xml:space="preserve">
<style type="text/css">
	.st0{fill:#404040;}
	.st1{fill:#BCBEC0;}
	.st2{fill:#0D4F9E;}
	.st3{fill:#FAEA27;}
</style>
<g>
	<path class="st0" d="M22.6,269.4l3-3.9l6.7-8.3c0.2-0.2,0.4-0.4,0.6-0.5c0.2-0.1,0.4-0.1,0.8-0.1h3.6c0.3,0,0.5,0.1,0.5,0.2
		c0.1,0.2,0,0.3-0.2,0.6L29,268l9,14.4c0.2,0.3,0.2,0.5,0.1,0.6c-0.1,0.1-0.3,0.2-0.5,0.2h-3.7c-0.3,0-0.6-0.1-0.8-0.2
		c-0.2-0.1-0.3-0.3-0.5-0.6L26,271.6l-3.5,4.4v6.5c0,0.2,0,0.4-0.1,0.5s-0.3,0.2-0.6,0.2h-3c-0.5,0-0.8-0.3-0.8-0.8v-25
		c0-0.5,0.3-0.8,0.8-0.8h3c0.3,0,0.5,0.1,0.6,0.2s0.1,0.3,0.1,0.6L22.6,269.4L22.6,269.4z"/>
	<path class="st0" d="M57.7,273.1c0,1.1-0.1,2.3-0.2,3.6c-0.1,1.2-0.5,2.4-1.1,3.4s-1.5,1.9-2.6,2.5c-1.2,0.7-2.8,1-4.9,1
		c-2,0-3.6-0.3-4.7-1c-1.1-0.7-2-1.5-2.6-2.5c-0.6-1-0.9-2.2-1.1-3.4c-0.1-1.2-0.2-2.4-0.2-3.6c0-0.9,0.1-2,0.3-3.1s0.6-2.2,1.1-3.2
		c0.6-1,1.4-1.8,2.6-2.5c1.1-0.7,2.7-1,4.6-1c1.9,0,3.5,0.3,4.6,0.9c1.2,0.6,2,1.4,2.7,2.3c0.6,0.9,1,2,1.2,3.2
		C57.6,270.7,57.7,271.9,57.7,273.1z M53.2,273.4c0-1.1-0.1-2-0.2-2.8c-0.1-0.8-0.3-1.4-0.6-2c-0.3-0.5-0.8-0.9-1.3-1.2
		c-0.5-0.3-1.3-0.4-2.2-0.4s-1.5,0.1-2.1,0.4c-0.5,0.3-1,0.7-1.3,1.2c-0.3,0.5-0.5,1.2-0.6,2c-0.1,0.8-0.2,1.7-0.2,2.7
		c0,1.1,0.1,2,0.2,2.8c0.1,0.8,0.3,1.4,0.6,2c0.3,0.5,0.7,0.9,1.2,1.2c0.5,0.3,1.2,0.4,2.1,0.4s1.6-0.1,2.2-0.4
		c0.6-0.3,1-0.6,1.3-1.2c0.3-0.5,0.5-1.2,0.6-2C53.2,275.4,53.2,274.4,53.2,273.4z"/>
	<path class="st0" d="M90.1,283c-0.1,0.1-0.3,0.2-0.6,0.2h-2.9c-0.5,0-0.8-0.3-0.8-0.8V271c0-1.5-0.2-2.5-0.6-3s-1.1-0.8-2.1-0.8
		c-0.4,0-0.8,0.1-1.3,0.2c-0.5,0.1-0.9,0.3-1.4,0.5c-0.5,0.2-0.9,0.4-1.3,0.6s-0.8,0.4-1.1,0.6c0,0.2,0,0.5,0,0.8c0,0.3,0,0.7,0,1.2
		v11.3c0,0.2-0.1,0.4-0.2,0.6c-0.1,0.1-0.3,0.2-0.6,0.2h-2.9c-0.5,0-0.7-0.3-0.7-0.8v-11.6c0-1.2-0.2-2.1-0.6-2.7
		c-0.4-0.6-1.1-0.9-2.1-0.9c-0.3,0-0.7,0.1-1.2,0.2c-0.5,0.1-0.9,0.3-1.4,0.4c-0.5,0.2-0.9,0.4-1.4,0.6c-0.5,0.2-0.9,0.4-1.2,0.6
		v13.4c0,0.5-0.3,0.8-0.8,0.8H62c-0.5,0-0.7-0.3-0.7-0.8v-18c0-0.5,0.2-0.8,0.7-0.8h2.8c0.5,0,0.8,0.3,0.8,0.8v1.2l0,0
		c0.4-0.3,0.8-0.5,1.3-0.8c0.5-0.3,0.9-0.5,1.5-0.7c0.5-0.2,1-0.4,1.6-0.5c0.5-0.1,1.1-0.2,1.6-0.3c1.1,0,2.2,0.2,3.1,0.5
		c0.9,0.4,1.7,1.1,2.3,2.3c1-0.7,2.1-1.4,3.3-2s2.4-0.8,3.7-0.8c1.3,0,2.3,0.2,3.1,0.6c0.8,0.4,1.4,0.9,1.8,1.6
		c0.4,0.7,0.7,1.5,0.8,2.4c0.1,0.9,0.2,1.9,0.2,2.8v11.8C90.3,282.7,90.2,282.9,90.1,283z"/>
	<path class="st0" d="M99.8,258.4c0,0.3,0,0.6-0.1,0.9c-0.1,0.3-0.2,0.5-0.3,0.7c-0.2,0.2-0.4,0.4-0.7,0.5c-0.3,0.1-0.7,0.2-1.2,0.2
		s-1-0.1-1.3-0.2c-0.3-0.1-0.5-0.3-0.7-0.5c-0.2-0.2-0.3-0.5-0.3-0.7c-0.1-0.3-0.1-0.6-0.1-0.9c0-0.6,0.2-1.2,0.5-1.6
		c0.3-0.4,0.9-0.7,1.9-0.7s1.6,0.2,1.9,0.6C99.6,257.2,99.8,257.7,99.8,258.4z M99.5,282.4c0,0.2,0,0.4-0.1,0.5s-0.3,0.2-0.6,0.2H96
		c-0.5,0-0.8-0.3-0.8-0.8v-18.1c0-0.5,0.3-0.8,0.8-0.8h2.8c0.3,0,0.5,0.1,0.6,0.2c0.1,0.1,0.1,0.3,0.1,0.5V282.4z"/>
	<path class="st0" d="M119.1,277.3c0,1.2-0.2,2.2-0.7,2.9c-0.5,0.8-1.1,1.4-1.8,1.9c-0.8,0.5-1.6,0.8-2.6,1c-1,0.2-2,0.3-3,0.3
		s-2.1-0.1-3.3-0.2c-1.2-0.1-2.1-0.4-2.9-0.7c-0.4-0.2-0.7-0.3-0.8-0.5c-0.1-0.2-0.1-0.5-0.1-0.8l0.3-1.3c0.1-0.3,0.2-0.5,0.3-0.6
		c0.2-0.1,0.4-0.1,0.7,0c0.4,0.1,0.9,0.1,1.4,0.2s1,0.1,1.6,0.1s1,0.1,1.5,0.1s0.9,0,1.2,0c1.3,0,2.2-0.2,2.8-0.5
		c0.6-0.4,0.8-0.9,0.8-1.7c0-0.5,0-0.8-0.1-1.1c-0.1-0.3-0.3-0.5-0.5-0.7c-0.2-0.2-0.6-0.3-1-0.5c-0.4-0.1-0.9-0.2-1.6-0.3
		c-1-0.1-1.9-0.3-2.8-0.5c-0.9-0.2-1.7-0.5-2.3-0.9c-0.7-0.4-1.2-1-1.6-1.6c-0.4-0.7-0.6-1.6-0.6-2.7c0-2,0.7-3.5,2.1-4.5
		s3.2-1.5,5.4-1.5c0.4,0,0.9,0,1.4,0s1.1,0.1,1.6,0.2c0.5,0.1,1.1,0.2,1.6,0.3s1,0.2,1.4,0.4c0.7,0.3,0.9,0.7,0.8,1.2l-0.3,1.4
		c-0.1,0.3-0.2,0.5-0.3,0.5c-0.1,0.1-0.4,0.1-0.8,0c-0.9-0.1-1.8-0.2-2.8-0.3s-1.9-0.1-2.6-0.1c-1.3,0-2.1,0.2-2.5,0.5
		c-0.4,0.4-0.6,0.9-0.6,1.7c0,0.8,0.3,1.3,0.8,1.5c0.5,0.2,1.4,0.5,2.6,0.6c1,0.1,1.9,0.3,2.7,0.5c0.9,0.2,1.6,0.5,2.3,1
		c0.7,0.4,1.2,1,1.6,1.7C118.9,275.2,119.1,276.1,119.1,277.3z"/>
	<path class="st0" d="M128.4,283.6c0,1.3-0.1,2.5-0.4,3.5s-0.8,1.8-1.5,2.5c-0.7,0.7-1.6,1.2-2.8,1.5c-1.1,0.3-2.5,0.5-4.2,0.4
		c-0.1,0-0.3-0.1-0.5-0.2c-0.2-0.1-0.3-0.3-0.4-0.6l-0.2-1.9c-0.1-0.3,0-0.5,0.1-0.6s0.3-0.2,0.6-0.2c0.9-0.2,1.7-0.4,2.3-0.5
		c0.6-0.2,1.1-0.4,1.5-0.7c0.4-0.3,0.7-0.7,0.8-1.1c0.2-0.5,0.2-1.1,0.2-1.9v-19.4c0-0.5,0.3-0.8,0.8-0.8h2.8c0.5,0,0.8,0.3,0.8,0.8
		L128.4,283.6L128.4,283.6z M128.6,258.4c0,0.3,0,0.6-0.1,0.9c-0.1,0.3-0.2,0.5-0.3,0.7c-0.2,0.2-0.4,0.4-0.7,0.5
		c-0.3,0.1-0.7,0.2-1.2,0.2s-1-0.1-1.3-0.2c-0.3-0.1-0.5-0.3-0.7-0.5c-0.2-0.2-0.3-0.5-0.3-0.7c-0.1-0.3-0.1-0.6-0.1-0.9
		c0-0.6,0.2-1.2,0.5-1.6c0.3-0.4,1-0.7,1.9-0.7c1,0,1.6,0.2,1.9,0.6C128.4,257.2,128.6,257.7,128.6,258.4z"/>
	<path class="st0" d="M145.7,280.9c-1,0.8-2.2,1.4-3.4,1.9c-1.3,0.5-2.6,0.7-3.9,0.7c-1.1,0-2-0.1-2.7-0.4c-0.7-0.3-1.3-0.7-1.7-1.2
		s-0.7-1.1-0.9-1.8c-0.2-0.7-0.3-1.5-0.3-2.3c0-2.3,0.6-4,1.8-5.1c1.3-1.1,3.1-1.6,5.7-1.6h5.1v-1c0-0.6-0.1-1.1-0.2-1.5
		s-0.3-0.8-0.7-1c-0.3-0.3-0.7-0.5-1.3-0.6c-0.5-0.1-1.2-0.2-2-0.2c-0.3,0-0.7,0-1.2,0s-0.9,0.1-1.4,0.1s-1,0.1-1.5,0.1
		c-0.5,0.1-0.9,0.1-1.3,0.1c-0.4,0.1-0.7,0.1-0.8,0c-0.1,0-0.2-0.2-0.3-0.5l-0.4-1.5c-0.1-0.3,0-0.5,0.1-0.7
		c0.1-0.2,0.4-0.3,0.8-0.5c0.4-0.2,0.9-0.3,1.5-0.4c0.6-0.1,1.2-0.2,1.8-0.3c0.6-0.1,1.2-0.1,1.8-0.2c0.6,0,1.1-0.1,1.6-0.1
		c1.7,0,3.1,0.2,4.1,0.5c1,0.3,1.8,0.8,2.3,1.5c0.5,0.6,0.9,1.4,1,2.3c0.2,0.9,0.2,1.9,0.2,3v7.7c0,0.4,0,0.7,0.1,0.9
		c0,0.2,0.1,0.4,0.2,0.5c0.1,0.1,0.2,0.2,0.4,0.3s0.4,0.1,0.8,0.1c0.3,0,0.5,0.1,0.6,0.2c0.1,0.1,0.2,0.2,0.2,0.4v1.7
		c0,0.5-0.3,0.7-1,0.8c-0.3,0.1-0.6,0.1-1,0.1s-0.6,0.1-0.9,0.1c-0.9,0-1.7-0.2-2.3-0.5C146.4,282.5,146,281.9,145.7,280.9
		L145.7,280.9z M145.5,274.3h-4.9c-1,0-1.8,0.2-2.4,0.7s-0.9,1.4-0.9,2.7c0,0.9,0.2,1.5,0.5,1.8c0.4,0.3,1,0.5,1.9,0.5
		c0.4,0,0.9-0.1,1.4-0.2c0.5-0.1,1-0.3,1.5-0.4c0.5-0.2,1-0.4,1.5-0.6s0.9-0.4,1.3-0.7v-3.8H145.5z"/>
	<path class="st0" d="M166.9,257.4c0-0.5,0.3-0.8,0.8-0.8h14.7c0.5,0,0.8,0.3,0.8,0.8v2.5c0,0.5-0.3,0.7-0.8,0.7h-10.9v6.9h9.7
		c0.5,0,0.8,0.2,0.8,0.7v2.5c0,0.5-0.3,0.7-0.8,0.7h-9.7v7.9h11.2c0.5,0,0.7,0.3,0.7,0.8v2.4c0,0.5-0.3,0.7-0.8,0.7h-14.9
		c-0.5,0-0.8-0.2-0.8-0.7V257.4z"/>
	<path class="st0" d="M203.5,283.2h-2.8c-0.3,0-0.5-0.1-0.6-0.2s-0.2-0.3-0.2-0.6v-1.2h-0.1c-0.4,0.3-0.9,0.5-1.4,0.8
		c-0.5,0.3-1.1,0.5-1.7,0.8c-0.6,0.2-1.2,0.4-1.8,0.6c-0.6,0.1-1.2,0.2-1.9,0.2c-1.4,0-2.4-0.2-3.2-0.6c-0.8-0.4-1.4-0.9-1.8-1.6
		s-0.7-1.5-0.8-2.4s-0.2-1.9-0.2-2.9v-11.8c0-0.5,0.3-0.8,0.8-0.8h2.9c0.5,0,0.7,0.3,0.7,0.8v11.2c0,0.6,0,1.2,0.1,1.6
		c0.1,0.5,0.2,0.9,0.4,1.2c0.2,0.3,0.5,0.6,0.9,0.8c0.4,0.2,0.9,0.3,1.5,0.3c0.4,0,0.9-0.1,1.4-0.2s1-0.3,1.5-0.5
		c0.5-0.2,1-0.4,1.4-0.6c0.4-0.2,0.8-0.4,1-0.5v-13.4c0-0.2,0.1-0.4,0.2-0.6c0.1-0.1,0.3-0.2,0.6-0.2h2.8c0.5,0,0.8,0.3,0.8,0.8v18
		C204.3,282.9,204,283.2,203.5,283.2z"/>
	<path class="st0" d="M213.7,282.4c0,0.5-0.3,0.8-0.8,0.8H210c-0.5,0-0.8-0.3-0.8-0.8v-18c0-0.5,0.3-0.8,0.8-0.8h2.9
		c0.5,0,0.8,0.3,0.8,0.8v1.8l0.1,0.1c0.3-0.3,0.7-0.6,1.2-0.9s1-0.6,1.5-0.8c0.5-0.3,1.1-0.5,1.7-0.7c0.6-0.2,1.1-0.4,1.6-0.4
		c0.3-0.1,0.5,0,0.6,0c0.2,0.1,0.3,0.3,0.3,0.6l0.3,2.7c0,0.3,0,0.5,0,0.6c-0.1,0.1-0.3,0.2-0.7,0.3c-0.6,0.1-1.1,0.2-1.8,0.4
		c-0.6,0.1-1.2,0.3-1.8,0.5c-0.6,0.2-1.1,0.3-1.6,0.5c-0.5,0.2-0.9,0.3-1.3,0.5v12.8H213.7z"/>
	<path class="st0" d="M240.1,273.1c0,1.1-0.1,2.3-0.2,3.6c-0.1,1.2-0.5,2.4-1.1,3.4s-1.5,1.9-2.6,2.5c-1.2,0.7-2.8,1-4.9,1
		c-2,0-3.6-0.3-4.7-1c-1.1-0.7-2-1.5-2.6-2.5s-0.9-2.2-1.1-3.4c-0.1-1.2-0.2-2.4-0.2-3.6c0-0.9,0.1-2,0.3-3.1s0.6-2.2,1.1-3.2
		c0.6-1,1.4-1.8,2.6-2.5c1.1-0.7,2.7-1,4.6-1c1.9,0,3.5,0.3,4.6,0.9c1.2,0.6,2,1.4,2.7,2.3c0.6,0.9,1,2,1.2,3.2
		C240,270.7,240.1,271.9,240.1,273.1z M235.6,273.4c0-1.1-0.1-2-0.2-2.8c-0.1-0.8-0.3-1.4-0.6-2c-0.3-0.5-0.8-0.9-1.3-1.2
		c-0.5-0.3-1.3-0.4-2.2-0.4s-1.5,0.1-2.1,0.4c-0.5,0.3-1,0.7-1.3,1.2s-0.5,1.2-0.6,2c-0.1,0.8-0.2,1.7-0.2,2.7c0,1.1,0.1,2,0.2,2.8
		c0.1,0.8,0.3,1.4,0.6,2c0.3,0.5,0.7,0.9,1.2,1.2c0.5,0.3,1.2,0.4,2.1,0.4c0.9,0,1.6-0.1,2.2-0.4c0.6-0.3,1-0.6,1.3-1.2
		c0.3-0.5,0.5-1.2,0.6-2C235.6,275.4,235.6,274.4,235.6,273.4z"/>
	<path class="st0" d="M261.3,273.3c0,1.6-0.1,3.1-0.4,4.4c-0.2,1.3-0.7,2.4-1.3,3.2c-0.6,0.9-1.4,1.5-2.4,2s-2.3,0.7-3.9,0.7
		c-0.7,0-1.4-0.1-2.3-0.2c-0.9-0.1-1.8-0.4-2.7-0.7l0,0v7c0,0.2,0,0.4-0.1,0.6c-0.1,0.2-0.3,0.2-0.6,0.2h-2.8
		c-0.3,0-0.5-0.1-0.6-0.2c-0.1-0.1-0.1-0.3-0.1-0.6v-25.4c0-0.5,0.3-0.8,0.8-0.8h2.8c0.3,0,0.5,0.1,0.6,0.2s0.1,0.3,0.1,0.6v1.2
		l0.1,0.1c0.3-0.2,0.8-0.5,1.3-0.8c0.5-0.3,1-0.5,1.6-0.8c0.6-0.2,1.1-0.4,1.7-0.6c0.6-0.2,1.2-0.2,1.8-0.2c1.3,0,2.4,0.2,3.2,0.7
		c0.8,0.5,1.5,1.2,2,2c0.5,0.9,0.8,1.9,1,3.1C261.2,270.4,261.3,271.8,261.3,273.3z M256.8,273.2c0-1.3-0.1-2.3-0.2-3.1
		c-0.1-0.8-0.3-1.4-0.6-1.8c-0.3-0.4-0.6-0.7-1-0.9c-0.4-0.1-0.8-0.2-1.4-0.2c-0.4,0-0.9,0.1-1.4,0.2c-0.5,0.1-1,0.3-1.5,0.5
		c-0.5,0.2-1,0.4-1.4,0.6s-0.8,0.4-1.1,0.6v10c0.9,0.3,1.7,0.4,2.5,0.5c0.7,0.1,1.4,0.1,2.1,0.1c0.7,0,1.3-0.1,1.8-0.3
		c0.5-0.2,0.9-0.6,1.2-1.1c0.3-0.5,0.5-1.2,0.7-2C256.7,275.5,256.8,274.5,256.8,273.2z"/>
	<path class="st0" d="M269,274.6c0,1,0.1,1.9,0.3,2.5c0.2,0.7,0.5,1.2,0.9,1.6c0.4,0.4,0.9,0.7,1.5,0.8c0.6,0.2,1.3,0.2,2.1,0.2
		c0.7,0,1.6-0.1,2.6-0.2c1-0.1,1.9-0.2,2.6-0.3c0.4-0.1,0.6,0,0.8,0c0.1,0.1,0.2,0.3,0.3,0.7l0.2,1.3c0.1,0.3,0,0.5,0,0.7
		c-0.1,0.2-0.3,0.4-0.7,0.5c-0.4,0.2-0.9,0.3-1.4,0.4s-1.1,0.2-1.7,0.3s-1.2,0.1-1.8,0.2c-0.6,0.1-1.1,0.1-1.6,0.1
		c-1.9,0-3.5-0.3-4.6-0.8s-2-1.3-2.6-2.2s-1-2-1.2-3.2c-0.2-1.2-0.3-2.5-0.3-3.8c0-1,0.1-2,0.2-3.2c0.1-1.2,0.5-2.3,1.1-3.4
		c0.6-1.1,1.4-1.9,2.6-2.6c1.1-0.7,2.7-1.1,4.6-1.1c1.8,0,3.2,0.3,4.3,0.8s2,1.2,2.6,2.1c0.6,0.8,1,1.8,1.3,2.9
		c0.2,1.1,0.4,2.2,0.4,3.2c0,0.7-0.1,1.3-0.4,1.8s-0.8,0.7-1.6,0.7H269z M273,266.8c-0.7,0-1.4,0.1-1.8,0.3
		c-0.5,0.2-0.9,0.5-1.2,0.9s-0.5,0.9-0.7,1.5c-0.1,0.6-0.2,1.3-0.3,2h7.9c0-0.6-0.1-1.2-0.2-1.8s-0.3-1.1-0.6-1.5
		c-0.3-0.4-0.7-0.8-1.2-1.1C274.5,267,273.8,266.8,273,266.8z"/>
	<path class="st0" d="M290.8,283.6c0,1.3-0.1,2.5-0.4,3.5s-0.8,1.8-1.5,2.5c-0.7,0.7-1.6,1.2-2.8,1.5c-1.1,0.3-2.5,0.5-4.2,0.4
		c-0.1,0-0.3-0.1-0.5-0.2c-0.2-0.1-0.3-0.3-0.4-0.6l-0.2-1.9c-0.1-0.3,0-0.5,0.1-0.6s0.3-0.2,0.6-0.2c0.9-0.2,1.7-0.4,2.3-0.5
		c0.6-0.2,1.1-0.4,1.5-0.7c0.4-0.3,0.7-0.7,0.8-1.1c0.2-0.5,0.2-1.1,0.2-1.9v-19.4c0-0.5,0.3-0.8,0.8-0.8h2.8c0.5,0,0.8,0.3,0.8,0.8
		v19.2H290.8z M290.9,258.4c0,0.3,0,0.6-0.1,0.9c-0.1,0.3-0.2,0.5-0.3,0.7c-0.2,0.2-0.4,0.4-0.7,0.5c-0.3,0.1-0.7,0.2-1.2,0.2
		s-1-0.1-1.3-0.2c-0.3-0.1-0.5-0.3-0.7-0.5c-0.2-0.2-0.3-0.5-0.3-0.7c-0.1-0.3-0.1-0.6-0.1-0.9c0-0.6,0.2-1.2,0.5-1.6
		c0.3-0.4,1-0.7,1.9-0.7c1,0,1.6,0.2,1.9,0.6C290.8,257.2,290.9,257.7,290.9,258.4z"/>
	<path class="st0" d="M310.4,277.3c0,1.2-0.2,2.2-0.7,2.9c-0.5,0.8-1.1,1.4-1.8,1.9s-1.6,0.8-2.6,1c-1,0.2-2,0.3-3,0.3
		s-2.1-0.1-3.3-0.2c-1.2-0.1-2.1-0.4-2.9-0.7c-0.4-0.2-0.7-0.3-0.8-0.5c-0.1-0.2-0.1-0.5-0.1-0.8l0.3-1.3c0.1-0.3,0.2-0.5,0.3-0.6
		c0.2-0.1,0.4-0.1,0.7,0c0.4,0.1,0.9,0.1,1.4,0.2s1,0.1,1.6,0.1c0.5,0,1,0.1,1.5,0.1s0.9,0,1.2,0c1.3,0,2.2-0.2,2.8-0.5
		c0.6-0.4,0.8-0.9,0.8-1.7c0-0.5,0-0.8-0.1-1.1c-0.1-0.3-0.3-0.5-0.5-0.7c-0.2-0.2-0.6-0.3-1-0.5c-0.4-0.1-0.9-0.2-1.6-0.3
		c-1-0.1-1.9-0.3-2.8-0.5c-0.9-0.2-1.7-0.5-2.3-0.9c-0.7-0.4-1.2-1-1.6-1.6c-0.4-0.7-0.6-1.6-0.6-2.7c0-2,0.7-3.5,2.1-4.5
		s3.2-1.5,5.4-1.5c0.4,0,0.9,0,1.4,0s1.1,0.1,1.6,0.2c0.5,0.1,1.1,0.2,1.6,0.3s1,0.2,1.4,0.4c0.7,0.3,0.9,0.7,0.8,1.2l-0.3,1.4
		c-0.1,0.3-0.2,0.5-0.3,0.5c-0.1,0.1-0.4,0.1-0.8,0c-0.9-0.1-1.8-0.2-2.8-0.3s-1.9-0.1-2.6-0.1c-1.3,0-2.1,0.2-2.5,0.5
		c-0.4,0.4-0.6,0.9-0.6,1.7c0,0.8,0.3,1.3,0.8,1.5c0.5,0.2,1.4,0.5,2.6,0.6c1,0.1,1.9,0.3,2.7,0.5c0.9,0.2,1.6,0.5,2.3,1
		c0.7,0.4,1.2,1,1.6,1.7C310.2,275.2,310.4,276.1,310.4,277.3z"/>
	<path class="st0" d="M318.6,270.8l3.1-3.2l3.3-3.4c0.2-0.2,0.4-0.4,0.6-0.5s0.5-0.2,0.8-0.2h3.2c0.4,0,0.6,0.1,0.7,0.3
		c0.1,0.2,0,0.4-0.2,0.6l-6.4,6.5l7.2,11.3c0.1,0.2,0.2,0.5,0.1,0.6s-0.3,0.3-0.6,0.3h-3.1c-0.4,0-0.7-0.1-0.9-0.2
		c-0.2-0.1-0.3-0.3-0.5-0.6l-5.1-8.2l-2.3,2.3v5.9c0,0.2-0.1,0.4-0.2,0.5s-0.3,0.2-0.6,0.2h-2.8c-0.5,0-0.8-0.3-0.8-0.8v-26.7
		c0-0.5,0.3-0.8,0.8-0.8h2.8c0.3,0,0.5,0.1,0.6,0.2c0.1,0.1,0.2,0.3,0.2,0.6v15L318.6,270.8z"/>
	<path class="st0" d="M345.8,280.9c-1,0.8-2.2,1.4-3.4,1.9s-2.6,0.7-3.9,0.7c-1.1,0-2-0.1-2.7-0.4c-0.7-0.3-1.3-0.7-1.7-1.2
		c-0.4-0.5-0.7-1.1-0.9-1.8c-0.2-0.7-0.3-1.5-0.3-2.3c0-2.3,0.6-4,1.8-5.1c1.3-1.1,3.1-1.6,5.7-1.6h5.1v-1c0-0.6-0.1-1.1-0.2-1.5
		s-0.3-0.8-0.7-1c-0.3-0.3-0.7-0.5-1.3-0.6c-0.5-0.1-1.2-0.2-2-0.2c-0.3,0-0.7,0-1.2,0s-0.9,0.1-1.4,0.1s-1,0.1-1.5,0.1
		c-0.5,0.1-0.9,0.1-1.3,0.1c-0.4,0.1-0.7,0.1-0.8,0c-0.1,0-0.2-0.2-0.3-0.5l-0.4-1.5c-0.1-0.3,0-0.5,0.1-0.7
		c0.1-0.2,0.4-0.3,0.8-0.5c0.4-0.2,0.9-0.3,1.5-0.4s1.2-0.2,1.8-0.3c0.6-0.1,1.2-0.1,1.8-0.2c0.6,0,1.1-0.1,1.6-0.1
		c1.7,0,3.1,0.2,4.1,0.5c1,0.3,1.8,0.8,2.3,1.5c0.5,0.6,0.9,1.4,1,2.3c0.2,0.9,0.2,1.9,0.2,3v7.7c0,0.4,0,0.7,0.1,0.9
		c0,0.2,0.1,0.4,0.2,0.5s0.2,0.2,0.4,0.3c0.2,0.1,0.4,0.1,0.8,0.1c0.3,0,0.5,0.1,0.6,0.2c0.1,0.1,0.2,0.2,0.2,0.4v1.7
		c0,0.5-0.3,0.7-1,0.8c-0.3,0.1-0.6,0.1-1,0.1s-0.6,0.1-0.9,0.1c-0.9,0-1.7-0.2-2.3-0.5C346.4,282.5,346,281.9,345.8,280.9
		L345.8,280.9z M345.5,274.3h-4.9c-1,0-1.8,0.2-2.4,0.7s-0.9,1.4-0.9,2.7c0,0.9,0.2,1.5,0.5,1.8c0.4,0.3,1,0.5,1.9,0.5
		c0.4,0,0.9-0.1,1.4-0.2c0.5-0.1,1-0.3,1.5-0.4c0.5-0.1,1-0.4,1.5-0.6s0.9-0.4,1.3-0.7v-3.8H345.5z"/>
</g>
<g>
	<path class="st1" d="M96.1,167.4c0,0,62.2-8.1,64-8.4c2.7-0.4,5.1-1,7.3-1.6c5-1.4,9.7-3.5,13.8-6.3c3.9-2.7,7.6-6.5,11.2-10.8
		c2.3-2.7,4.7-6.2,7-9.6V129c-2.7,4-5.3,7.5-8,10.5c-3.6,4-7.4,7.4-11.2,9.8c-4,2.6-8.4,4.5-13.3,5.7c-2.2,0.6-4.5,1-7.1,1.4
		c-1.7,0.2-3.5,0.4-5.2,0.6c-0.7,0.1-58.4,6.3-58.4,6.3v4.1H96.1z"/>
	<path class="st1" d="M179.5,156.9c-3.9,2.3-8.4,3.9-13.4,4.9c-2.1,0.4-4.4,0.8-7.1,1.1c-1.6,0.2-3.1,0.3-4.7,0.4
		c-0.8,0.1-1.7,0.1-2.5,0.2c-19.1,1.7-38,3.6-55.8,5.3v4.2c17.9-2.2,37-4.5,56.1-6.7c0.8-0.1,1.7-0.2,2.5-0.3
		c1.6-0.2,3.1-0.3,4.7-0.6c2.7-0.4,5.1-0.8,7.3-1.3c5.2-1.2,9.8-3,13.9-5.5c4-2.4,7.6-5.8,11.4-10c2.4-2.6,5-6.3,7.5-9.7v-1.4
		c-2.9,4-5.7,7.3-8.4,10.2C187.2,151.6,183.4,154.7,179.5,156.9"/>
	<path class="st1" d="M190.4,155.9c-3.8,3.5-7.8,6.3-11.8,8.2c-3.9,1.9-8.3,3.3-13.5,4.1c-2.1,0.4-4.4,0.6-7,0.9L96,174.3v4.1
		l55.2-5.9l7.1-0.8c2.7-0.3,5-0.7,7.2-1.1c5.3-1,9.9-2.5,13.9-4.6c4.1-2.1,8.3-5.6,12.1-9.4c2.6-2.5,5.1-5.7,7.7-9.1v-1.4
		C196.3,150,193.3,153.2,190.4,155.9"/>
	<path class="st1" d="M175.4,177c-3.6,2-6.3,3.2-11.5,3.8c-3.1,0.3-6.3,0.5-9.4,0.7c-1.5,0.1-3,0.2-4.5,0.2
		c-9.4,0.5-18.6,1.1-28,1.8l-25.9,1.8v4.1l26.2-2.4c8.5-0.8,18.3-1.7,27.9-2.4l7-0.5c2.7-0.2,5-0.4,7-0.7c5.3-0.7,9.8-1.8,13.9-3.3
		c4.3-1.6,8.4-4.2,12.5-7.2c3.7-2.7,8.8-8,8.8-8.1v-1.4c-3.3,3.3-5.3,5.1-8.9,7.6C186.1,173.7,178.6,175.2,175.4,177"/>
	<path class="st1" d="M176.7,184.8c-3.9,1.2-8.3,1.9-13.5,2.4c-2.1,0.2-4.3,0.3-6.9,0.4l-6.9,0.3c-17.3,0.8-34.4,1.7-53.4,2.7v4.1
		c18.1-1.4,35.8-2.8,53.5-4.1l6.9-0.5c2.7-0.2,4.9-0.4,7-0.6c5.3-0.6,9.8-1.5,13.8-2.8c4.4-1.4,8.8-3.5,12.9-6.1
		c3-1.9,6.1-4.3,9.2-7v-0.1c-3.5,3-6.8,3.6-10,5.7C185.3,181.6,181,183.5,176.7,184.8"/>
	<path class="st1" d="M176.1,191.5c-3.9,0.9-8.2,1.5-13.5,1.9c-2,0.1-4.2,0.2-6.8,0.3l-6.9,0.2c-17.3,0.7-34.9,1.4-52.9,2.2v4.1
		c17.8-1.2,35.3-2.4,53-3.5l6.9-0.4c2.7-0.2,4.9-0.3,6.9-0.5c5.3-0.5,9.7-1.2,13.7-2.3c4.5-1.2,8.9-2.9,13.1-5.1
		c3.2-1.7,6.4-3.8,9.7-6.3v-1.7c-3.6,2.6-7,4.8-10.5,6.5C184.8,188.9,180.5,190.5,176.1,191.5"/>
	<path class="st1" d="M175.5,198.1c-4,0.7-8.2,1.2-13.4,1.5c-2,0.1-4,0.2-6.8,0.2l-59.2,1.6v4.1l52.5-2.8l6.8-0.3
		c2.7-0.1,4.8-0.3,6.8-0.4c5.3-0.4,9.6-1,13.6-1.8c4.6-1,9-2.4,13.2-4.2c3.4-1.4,6.8-3.2,10.3-5.4V189c-3.8,2.2-7.3,4-10.9,5.4
		C184.3,196.1,180,197.3,175.5,198.1"/>
	<path class="st1" d="M175,204.8c-7.3,1-14.8,1.1-22,1.2c-1.7,0-3.3,0-5,0.1L96,207v4.1l52.1-2.3c1.7-0.1,3.3-0.1,5-0.2
		c7.3-0.3,14.8-0.6,22.2-1.8c4.7-0.7,9.2-1.8,13.3-3.3c3.5-1.2,7.1-2.7,10.7-4.5v-1.6c-3.8,1.8-7.6,3.3-11.2,4.4
		C184,203.2,179.6,204.2,175,204.8"/>
	<path class="st1" d="M174.6,211.5c-6.8,0.6-13.8,0.6-20.5,0.6c-2.1,0-4.2,0-6.3,0c-17.2,0.1-34.3,0.2-51.7,0.4v4.1
		c16.6-0.6,34.2-1.2,51.8-1.7c2.1-0.1,4.2-0.1,6.3-0.2c6.8-0.2,13.8-0.4,20.7-1.1c4.8-0.5,9.2-1.3,13.4-2.3
		c3.7-0.9,7.4-2.1,11.2-3.6v-1.5c-3.9,1.4-7.8,2.6-11.5,3.4C183.6,210.4,179.3,211.1,174.6,211.5"/>
	<path class="st1" d="M174.3,218.1c-2.8,0.1-5.9,0.2-9.4,0.2c-1.3,0-2.6,0-3.9,0l-13.4-0.3c-9.1-0.1-18.3-0.1-26.8-0.1H96.1v4.1
		l24.8-0.7c8.5-0.2,17.7-0.4,26.8-0.6l13.4-0.2c3.7-0.1,8.5-0.2,13.4-0.5c4.8-0.3,9.2-0.8,13.4-1.5c3.8-0.6,7.6-1.4,11.5-2.4v-1.4
		c-4,0.9-7.9,1.7-11.7,2.2C183.4,217.5,179.1,217.9,174.3,218.1"/>
	<path class="st1" d="M160.8,224.4l-13.4-0.1c-17-0.2-34.1-0.6-51.4-0.9v4.1c16.6-0.1,34.1-0.2,51.4-0.4l13.4-0.2
		c4.5-0.1,8.9-0.2,13.4-0.3c9.2-0.3,17.4-1,25.1-2v-1.4c-7.7,0.8-16,1.3-25.1,1.3C169.7,224.5,165.3,224.5,160.8,224.4"/>
	<polygon class="st1" points="199.3,231.6 96.1,229 96.1,233 199.3,233 	"/>
	<path class="st1" d="M190,163.5c-3.9,3.2-7,5.5-11.8,7.4c-4.2,1.7-8.7,2.4-13.8,3.1c-3.3,0.5-6.8,1.2-10.1,1.4
		c-1.4,0.1-2.7,0.2-4.1,0.3l-54.3,4v4.1l54.5-5.3l7.1-0.7c2.6-0.3,4.9-0.5,7.1-0.9c5.3-0.9,9.8-2.2,13.9-4c4.2-1.9,8.5-5,12.5-8.4
		c2.7-2.3,5.3-5.2,8.2-8.4v-1.5C195.9,158.2,193.1,161.1,190,163.5"/>
	<path class="st1" d="M243.3,129c0,0,18.6,29.7,22,35.2c3.4,5.4,7.3,9.8,21,12.7c13.8,2.9,19.7,4.3,19.7,4.3v1.1c0,0-8.7-1.9-20-4.4
		c-11.2-2.5-15.8-3.4-21-10.5c-4.3-6-21.8-31.3-21.8-31.3V129H243.3z"/>
	<path class="st1" d="M243.3,162.9c0,0,16.9,17.8,21.8,22.9c5.2,5.4,11.8,7.4,21.1,9.1c8.8,1.6,19.9,3.4,19.9,3.4v1
		c0,0-10.4-1.7-19.9-3.3c-9.3-1.6-15.8-2.5-21.1-7.4c-4.8-4.4-21.8-20.4-21.8-20.4V162.9z"/>
	<path class="st1" d="M243.3,170.9c0,0,16.1,15,21.8,20.1c5.3,4.7,9.5,6.2,21.1,8.2c11.6,2.1,19.8,3.3,19.8,3.3v1.1
		c0,0-10.5-1.7-19.9-3.2s-15.4-2.1-21.1-6.7c-6.5-5.3-21.8-17.9-21.8-17.9v-4.9H243.3z"/>
	<path class="st1" d="M243.3,179.5c0,0,18.4,14.6,21.8,17.2c3.4,2.6,8,5.5,21.2,7.5c13.1,1.9,19.8,2.8,19.8,2.8v1.1
		c0,0-11.9-1.7-19.8-2.7s-14-1.4-21.1-6.2c-6.9-4.6-21.9-15.2-21.9-15.2L243.3,179.5L243.3,179.5z"/>
	<path class="st1" d="M243.3,187.7c0,0,18.4,12.3,21.9,14.3c3.5,1.9,7.6,5.1,21.1,6.8s19.8,2.5,19.8,2.5v1.1c0,0-11.1-1.2-19.8-2.2
		c-8.7-0.9-14.6-2.2-21.1-5.8s-21.8-12.6-21.8-12.6L243.3,187.7L243.3,187.7z"/>
	<path class="st1" d="M243.3,195.9c0,0,16.3,8.9,21.8,11.7c6.2,3.1,11.5,4.6,21.1,5.7c9.5,1.1,19.8,2.2,19.8,2.2v1c0,0-9.6-1-19.8-2
		c-10.2-1-13.8-1.4-21.1-4.7c-6.6-2.9-21.8-10.1-21.8-10.1V195.9z"/>
	<path class="st1" d="M243.3,204.2c0,0,12.9,5.5,21.9,9.1c8.9,3.5,15.7,3.8,21.1,4.5c2.4,0.3,19.7,2.1,19.7,2.1v1
		c0,0-10.4-0.8-19.8-1.7c-9.4-0.8-13.5-1.2-21.1-3.7c-7.7-2.6-21.9-7.5-21.9-7.5L243.3,204.2L243.3,204.2z"/>
	<path class="st1" d="M243.3,212.7c0,0,13,4,21.9,6.4c8.9,2.3,17,3.3,21.1,3.6c4.1,0.3,19.8,1.6,19.8,1.6v0.9c0,0-8.9-0.6-19.8-1.4
		c-8.8-0.6-15.9-1.3-21.1-2.4c-5.8-1.3-21.8-5.1-21.8-5.1L243.3,212.7L243.3,212.7z"/>
	<path class="st1" d="M243.3,221.1c0,0,10.6,1.8,21.9,3.7c8.4,1.4,19.8,2.3,21.1,2.3c1.2,0.1,19.8,1.3,19.8,1.3v1
		c0,0-11.9-0.6-19.8-1.1c-8.3-0.5-16.5-1-21.1-1.4c-10.4-1.1-21.8-2.5-21.8-2.5L243.3,221.1L243.3,221.1z"/>
	<path class="st1" d="M243.3,229.7c0,0,16.8,0.6,21.9,0.7c5.1,0.1,40.9,1.6,40.9,1.6v1h-62.8V229.7z"/>
	<path class="st1" d="M286.2,181.4c-15.2-3.3-18.6-8.9-21.2-12.3c-2.5-3.5-21.8-31.6-21.8-31.6v6.4c0.8,1,17.2,22.6,21.8,28.5
		c5.2,6.7,13.4,8.2,21.1,9.9c7.8,1.7,19.8,4,19.8,4v-0.9C306.1,185.4,290.1,182.3,286.2,181.4"/>
	<path class="st1" d="M286.2,185.9c-12.5-2.4-17.5-6.4-21.2-11.2c-3.7-4.8-21.8-28.7-21.8-28.7v6c0.8,0.9,17.3,20.6,21.8,25.7
		c5.2,6,12.4,7.5,21.2,9.1s19.8,3.7,19.8,3.7v-0.9C306,189.7,293.4,187.3,286.2,185.9"/>
	<path class="st1" d="M286.2,190.5c-13-2.5-15.6-4.6-21.1-10.6c-3.4-3.8-21.1-24.7-21.8-25.5v5.6c0,0,16.5,17.6,21.8,22.8
		c6.9,6.8,13.5,7.3,21.2,8.7c7.7,1.4,19.8,3.6,19.8,3.6v-0.9C306,194.1,291.4,191.5,286.2,190.5"/>
	<rect x="139" y="172.3" class="st2" width="90.5" height="60.7"/>
	<polygon class="st3" points="185.2,180.9 188.4,180.9 185.8,182.9 186.8,186 184.3,184.1 181.7,186 182.7,182.9 180.2,180.9 
		183.3,180.9 184.3,177.8 	"/>
	<polygon class="st3" points="185.3,221.4 188.5,221.4 185.9,223.3 186.9,226.3 184.4,224.5 181.9,226.3 182.9,223.3 180.3,221.4 
		183.4,221.4 184.4,218.4 	"/>
	<polygon class="st3" points="195.3,218.7 198.5,218.7 195.9,220.6 196.9,223.7 194.4,221.8 191.8,223.7 192.8,220.6 190.3,218.7 
		193.4,218.7 194.4,215.8 	"/>
	<polygon class="st3" points="195.3,183.6 198.5,183.6 195.9,185.5 196.9,188.5 194.4,186.7 191.8,188.5 192.8,185.5 190.3,183.6 
		193.4,183.6 194.4,180.6 	"/>
	<polygon class="st3" points="202.7,191 205.9,191 203.3,192.9 204.3,196 201.8,194.1 199.3,196 200.3,192.9 197.7,191 200.8,191 
		201.8,188.1 	"/>
	<polygon class="st3" points="202.7,211.4 205.9,211.4 203.3,213.3 204.3,216.3 201.8,214.5 199.3,216.3 200.3,213.3 197.7,211.4 
		200.8,211.4 201.8,208.4 	"/>
	<polygon class="st3" points="205.5,201.1 208.6,201.1 206.1,203 207.1,206 204.6,204.1 202,206 203,203 200.5,201.1 203.6,201.1 
		204.6,198.1 	"/>
	<polygon class="st3" points="175,183.6 178.2,183.6 175.6,185.5 176.6,188.6 174.1,186.7 171.6,188.6 172.6,185.5 170,183.6 
		173.1,183.6 174.1,180.7 	"/>
	<polygon class="st3" points="167.8,191.1 171,191.1 168.4,193 169.4,196 166.9,194.1 164.4,196 165.4,193 162.8,191.1 165.9,191.1 
		166.9,188.1 	"/>
	<polygon class="st3" points="165.1,201.1 168.3,201.1 165.8,203 166.7,206 164.2,204.2 161.7,206 162.7,203 160.1,201.1 
		163.3,201.1 164.2,198.1 	"/>
	<polygon class="st3" points="167.8,211.4 171,211.4 168.4,213.3 169.4,216.4 166.9,214.5 164.4,216.4 165.4,213.3 162.8,211.4 
		165.9,211.4 166.9,208.5 	"/>
	<polygon class="st3" points="175.1,218.7 178.3,218.7 175.7,220.7 176.7,223.7 174.2,221.8 171.7,223.7 172.7,220.7 170.1,218.7 
		173.2,218.7 174.2,215.8 	"/>
</g>
</svg>
