<?xml version="1.0" encoding="UTF-8" standalone="no"?>
<svg width="253px" height="70px" viewBox="0 0 253 70" version="1.1" xmlns="http://www.w3.org/2000/svg" xmlns:xlink="http://www.w3.org/1999/xlink" xmlns:sketch="http://www.bohemiancoding.com/sketch/ns">
    <!-- Generator: Sketch 3.5.2 (25235) - http://www.bohemiancoding.com/sketch -->
    <title>logo copy</title>
    <desc>Created with Sketch.</desc>
    <defs>
        <path id="path-1" d="M0,0.475151515 L264.896439,0.475151515 L264.896439,70 L0,70"></path>
        <path id="path-3" d="M0,0.475151515 L264.896439,0.475151515 L264.896439,70 L0,70 L0,0.475151515 Z"></path>
    </defs>
    <g id="Page-1" stroke="none" stroke-width="1" fill="none" fill-rule="evenodd" sketch:type="MSPage">
        <g id="Version-2-menu" sketch:type="MSArtboardGroup" transform="translate(-131.000000, -108.000000)">
            <g id="Site-header" sketch:type="MSLayerGroup" transform="translate(131.000000, 108.000000)">
                <g id="logo-copy">
                    <path d="M149.778258,35.6307955 C149.778258,35.3693561 149.899697,35.2277652 150.181288,35.2277652 L157.595985,35.2277652 C157.837803,35.2277652 157.978864,35.3693561 157.978864,35.6106439 L157.978864,36.8600379 C157.978864,37.1018561 157.877576,37.2227652 157.575833,37.2227652 L152.07553,37.2227652 L152.07553,40.6882955 L156.951136,40.6882955 C157.213636,40.6882955 157.354167,40.8092045 157.354167,41.0510227 L157.354167,42.2998864 C157.354167,42.5417045 157.253409,42.6631439 156.951136,42.6631439 L152.07553,42.6631439 L152.07553,46.6319318 L157.717424,46.6319318 C157.958712,46.6319318 158.079621,46.7533712 158.079621,47.0148106 L158.079621,48.244053 C158.079621,48.5054924 157.978864,48.6067803 157.696742,48.6067803 L150.181288,48.6067803 C149.899697,48.6067803 149.778258,48.4858712 149.778258,48.244053 L149.778258,35.6307955 Z" id="Fill-1" fill="#626366" sketch:type="MSShapeGroup"></path>
                    <path d="M168.236303,48.6066212 L166.805545,48.6066212 C166.503273,48.6066212 166.422667,48.4655606 166.422667,48.2237424 L166.422667,47.5995758 L166.382364,47.5794242 C165.596455,48.1229848 164.226152,48.7879848 162.997439,48.7879848 C160.277515,48.7879848 160.015545,47.1763939 160.015545,45.0604848 L160.015545,39.137 C160.015545,38.8951818 160.115773,38.7339697 160.398424,38.7339697 L161.868955,38.7339697 C162.130924,38.7339697 162.232212,38.8745 162.232212,39.137 L162.232212,44.7985152 C162.232212,46.0076061 162.4735,46.7733636 163.702742,46.7733636 C164.568727,46.7733636 165.898727,46.1285152 166.422667,45.8665455 L166.422667,39.137 C166.422667,38.8951818 166.503273,38.7339697 166.805545,38.7339697 L168.236303,38.7339697 C168.517894,38.7339697 168.618652,38.8745 168.618652,39.137 L168.618652,48.2237424 C168.618652,48.4857121 168.517894,48.6066212 168.236303,48.6066212" id="Fill-3" fill="#626366" sketch:type="MSShapeGroup"></path>
                    <path d="M173.355,48.2239545 C173.355,48.4657727 173.254773,48.6068333 172.972121,48.6068333 L171.521742,48.6068333 C171.240152,48.6068333 171.138864,48.4859242 171.138864,48.2239545 L171.138864,39.1366818 C171.138864,38.8747121 171.240152,38.7341818 171.521742,38.7341818 L172.95197,38.7341818 C173.254773,38.7341818 173.355,38.8948636 173.355,39.1366818 L173.355,40.0233485 L173.395303,40.0636515 C174.000379,39.4994091 175.430606,38.8147879 176.377197,38.6328939 C176.639167,38.5729697 176.82053,38.6328939 176.860833,38.976 L177.001894,40.3256212 C177.022576,40.6077424 177.042197,40.7286515 176.619015,40.8092576 C175.49053,41.0309242 174.060303,41.4334242 173.355,41.7362273 L173.355,48.2239545 Z" id="Fill-5" fill="#626366" sketch:type="MSShapeGroup"></path>
                    <path d="M182.241712,40.4666818 C180.529364,40.4666818 180.146485,41.5548636 180.146485,43.6500909 C180.146485,45.7856212 180.529364,46.8335 182.222091,46.8335 C184.055348,46.8335 184.418076,45.8057727 184.418076,43.6500909 C184.418076,41.5145606 184.0755,40.4666818 182.241712,40.4666818 M182.222091,48.7675152 C178.171636,48.7675152 177.910197,45.8057727 177.910197,43.5090303 C177.910197,41.6153182 178.332848,38.5326667 182.222091,38.5326667 C186.130424,38.5326667 186.674515,41.1316818 186.674515,43.5090303 C186.674515,45.8057727 186.392394,48.7675152 182.222091,48.7675152" id="Fill-7" fill="#626366" sketch:type="MSShapeGroup"></path>
                    <path d="M193.505985,40.5873788 C192.679773,40.5873788 191.410758,41.1717727 190.806212,41.494197 L190.806212,46.5315455 C191.71303,46.7929848 192.437955,46.8735909 193.123106,46.8735909 C194.574015,46.8735909 195.077803,46.1285152 195.077803,43.5894242 C195.077803,41.0307121 194.574015,40.5873788 193.505985,40.5873788 M193.344773,48.7879848 C192.679773,48.7879848 191.752803,48.6670758 190.826364,48.3446515 L190.806212,48.364803 L190.806212,51.9109394 C190.806212,52.1326061 190.745758,52.3139697 190.423864,52.3139697 L188.992576,52.3139697 C188.670682,52.3139697 188.610227,52.1729091 188.610227,51.9109394 L188.610227,39.137 C188.610227,38.8745 188.710985,38.7339697 188.992576,38.7339697 L190.423864,38.7339697 C190.705455,38.7339697 190.786061,38.8951818 190.786061,39.137 L190.786061,39.7410152 L190.846515,39.7813182 C191.57197,39.2775303 192.861136,38.5727576 194.029924,38.5727576 C196.669773,38.5727576 197.354394,40.5672273 197.354394,43.6095758 C197.354394,46.8942727 196.528182,48.7879848 193.344773,48.7879848" id="Fill-9" fill="#626366" sketch:type="MSShapeGroup"></path>
                    <path d="M201.244591,42.7634773 L205.234061,42.7634773 C205.234061,41.5347652 204.911636,40.3452955 203.239591,40.3452955 C201.748379,40.3452955 201.345348,41.2521136 201.244591,42.7634773 L201.244591,42.7634773 Z M201.224439,44.2748409 C201.284894,46.3096136 202.010348,46.8738561 203.662242,46.8738561 C204.388227,46.8738561 205.516182,46.7327955 206.281939,46.6521894 C206.644667,46.6118864 206.765045,46.6118864 206.8255,46.9952955 L206.946939,47.6592348 C207.006864,47.9620379 206.967091,48.1227197 206.603833,48.2844621 C205.818455,48.5867348 204.347394,48.7877197 203.35997,48.7877197 C199.511561,48.7877197 198.947848,46.3302955 198.947848,43.7105985 C198.947848,41.7564318 199.310045,38.5327197 203.239591,38.5327197 C206.846182,38.5327197 207.4905,40.8697652 207.550955,43.0455985 C207.571636,43.7705227 207.370121,44.2748409 206.56353,44.2748409 L201.224439,44.2748409 Z" id="Fill-11" fill="#626366" sketch:type="MSShapeGroup"></path>
                    <path d="M215.491288,44.1135758 L213.032803,44.1135758 C212.025758,44.1135758 211.380909,44.476303 211.380909,45.8057727 C211.380909,46.6924394 211.682652,46.9745606 212.630303,46.9745606 C213.496288,46.9745606 214.72553,46.4707727 215.491288,46.0274394 L215.491288,44.1135758 Z M215.612197,47.458197 C214.604621,48.2239545 213.25447,48.7675152 211.904318,48.7675152 C209.768788,48.7675152 209.144091,47.5992576 209.144091,45.9070606 C209.123939,43.5493333 210.393485,42.5417576 212.932045,42.5417576 L215.510909,42.5417576 L215.510909,42.0183485 C215.510909,40.8087273 215.067576,40.3860758 213.415682,40.3860758 C212.750682,40.3860758 211.481667,40.4868333 210.675606,40.5674394 C210.272576,40.6278939 210.171818,40.6077424 210.111894,40.3256212 L209.93,39.5800152 C209.890227,39.3180455 209.950152,39.1568333 210.393485,38.9754697 C211.26,38.673197 212.851439,38.5326667 213.798561,38.5326667 C217.284242,38.5326667 217.707424,39.9628939 217.707424,42.2198636 L217.707424,46.1085758 C217.707424,46.9342576 217.808182,46.9544091 218.432879,47.0350152 C218.734621,47.0551667 218.815758,47.1156212 218.815758,47.3372879 L218.815758,48.1836515 C218.815758,48.4053182 218.674697,48.5458485 218.331591,48.6068333 C218.009697,48.6672879 217.687273,48.7075909 217.385,48.7075909 C216.437879,48.7075909 215.854015,48.4254697 215.6525,47.4783485 L215.612197,47.458197 Z" id="Fill-13" fill="#626366" sketch:type="MSShapeGroup"></path>
                    <path d="M228.407561,48.6066212 L226.957182,48.6066212 C226.695212,48.6066212 226.574303,48.4857121 226.574303,48.2237424 L226.594455,42.5622273 C226.594455,41.3732879 226.312333,40.5873788 225.143545,40.5873788 C224.337485,40.5873788 222.927409,41.2322273 222.383318,41.494197 L222.383318,48.2237424 C222.383318,48.4655606 222.282561,48.6066212 222.000439,48.6066212 L220.570212,48.6066212 C220.288091,48.6066212 220.186803,48.4857121 220.186803,48.2237424 L220.186803,39.137 C220.186803,38.8745 220.288091,38.7339697 220.570212,38.7339697 L222.000439,38.7339697 C222.282561,38.7339697 222.383318,38.8745 222.383318,39.137 L222.383318,39.7410152 C222.40347,39.7410152 222.423621,39.7611667 222.443773,39.7611667 C223.188848,39.2377576 224.599455,38.5526061 225.828697,38.5526061 C228.548621,38.5526061 228.790439,40.3455606 228.790439,42.3808636 L228.790439,48.2237424 C228.790439,48.4655606 228.709833,48.6066212 228.407561,48.6066212" id="Fill-15" fill="#626366" sketch:type="MSShapeGroup"></path>
                    <g id="Group-19">
                        <mask id="mask-2" sketch:name="Clip 18" fill="white">
                            <use xlink:href="#path-1"></use>
                        </mask>
                        <g id="Clip-18"></g>
                        <path d="M155.185864,56.2991439 C156.173288,56.2991439 157.80503,56.4402045 158.873061,56.8835379 C159.195485,57.0245985 159.316394,57.1858106 159.25647,57.5077045 L159.075106,58.3339167 C159.014121,58.5757348 158.913364,58.6764924 158.551167,58.6361894 C157.563742,58.5158106 156.354652,58.3742197 155.307303,58.3742197 C152.566697,58.3742197 152.163667,60.5908864 152.163667,63.210053 C152.163667,65.8493712 152.667455,67.9249773 155.307303,67.9249773 C156.475561,67.9249773 157.462985,67.8035379 158.551167,67.6630076 C158.933515,67.6221742 159.014121,67.7234621 159.094727,67.9854318 L159.25647,68.7506591 C159.336545,69.0730833 159.235788,69.2549773 158.913364,69.3955076 C157.92647,69.8186894 156.173288,70.000053 155.185864,70.000053 C150.692606,70.000053 149.746015,66.6755833 149.746015,63.2503561 C149.746015,59.8049773 150.592379,56.2991439 155.185864,56.2991439" id="Fill-17" fill="#626366" sketch:type="MSShapeGroup" mask="url(#mask-2)"></path>
                    </g>
                    <path d="M165.040008,61.678803 C163.328189,61.678803 162.94478,62.7669848 162.94478,64.8622121 C162.94478,66.9977424 163.328189,68.0456212 165.020386,68.0456212 C166.853644,68.0456212 167.216371,67.0178939 167.216371,64.8622121 C167.216371,62.7266818 166.873795,61.678803 165.040008,61.678803 M165.020386,69.9796364 C160.970462,69.9796364 160.708492,67.0178939 160.708492,64.7211515 C160.708492,62.8274394 161.131674,59.7447879 165.020386,59.7447879 C168.92925,59.7447879 169.472811,62.343803 169.472811,64.7211515 C169.472811,67.0178939 169.19122,69.9796364 165.020386,69.9796364" id="Fill-20" fill="#626366" sketch:type="MSShapeGroup"></path>
                    <path d="M185.512568,69.8187424 L184.062189,69.8187424 C183.780068,69.8187424 183.679311,69.6978333 183.679311,69.4358636 L183.679311,63.7133636 C183.679311,62.2226818 183.316583,61.7995 182.309008,61.7995 C181.563932,61.7995 180.354311,62.3838939 179.730144,62.7063182 C179.730144,62.9078333 179.750826,63.2700303 179.750826,63.7335152 L179.750826,69.4358636 C179.750826,69.6776818 179.669689,69.8187424 179.367417,69.8187424 L177.896886,69.8187424 C177.634917,69.8187424 177.55378,69.6978333 177.55378,69.4358636 L177.55378,63.6131364 C177.55378,62.3838939 177.231886,61.7995 176.22378,61.7995 C175.519008,61.7995 174.390523,62.3032879 173.625295,62.7063182 L173.625295,69.4358636 C173.625295,69.6776818 173.525068,69.8187424 173.241886,69.8187424 L171.792038,69.8187424 C171.530068,69.8187424 171.42878,69.6978333 171.42878,69.4358636 L171.42878,60.3491212 C171.42878,60.0866212 171.530068,59.9460909 171.792038,59.9460909 L173.222265,59.9460909 C173.525068,59.9460909 173.625295,60.107303 173.625295,60.3491212 L173.625295,60.9329848 L173.644917,60.9531364 C174.431356,60.4095758 175.539159,59.8050303 176.647492,59.7647273 C177.81575,59.7647273 178.783553,60.0065455 179.40772,61.174803 C180.415295,60.4297273 181.664689,59.7647273 182.954386,59.7647273 C185.613326,59.7647273 185.875826,61.4977576 185.875826,63.5118485 L185.875826,69.4358636 C185.875826,69.6776818 185.794689,69.8187424 185.512568,69.8187424" id="Fill-22" fill="#626366" sketch:type="MSShapeGroup"></path>
                    <path d="M202.117682,69.8187424 L200.666773,69.8187424 C200.384652,69.8187424 200.283894,69.6978333 200.283894,69.4358636 L200.283894,63.7133636 C200.283894,62.2226818 199.921167,61.7995 198.913591,61.7995 C198.168515,61.7995 196.959424,62.3838939 196.334727,62.7063182 C196.334727,62.9078333 196.354879,63.2700303 196.354879,63.7335152 L196.354879,69.4358636 C196.354879,69.6776818 196.274803,69.8187424 195.972,69.8187424 L194.50147,69.8187424 C194.2395,69.8187424 194.158894,69.6978333 194.158894,69.4358636 L194.158894,63.6131364 C194.158894,62.3838939 193.83647,61.7995 192.828894,61.7995 C192.123591,61.7995 190.995106,62.3032879 190.229879,62.7063182 L190.229879,69.4358636 C190.229879,69.6776818 190.129121,69.8187424 189.847,69.8187424 L188.396091,69.8187424 C188.134652,69.8187424 188.033364,69.6978333 188.033364,69.4358636 L188.033364,60.3491212 C188.033364,60.0866212 188.134652,59.9460909 188.396091,59.9460909 L189.826848,59.9460909 C190.129121,59.9460909 190.229879,60.107303 190.229879,60.3491212 L190.229879,60.9329848 L190.25003,60.9531364 C191.035939,60.4095758 192.143742,59.8050303 193.252076,59.7647273 C194.420333,59.7647273 195.388136,60.0065455 196.012303,61.174803 C197.019879,60.4297273 198.268742,59.7647273 199.558439,59.7647273 C202.217909,59.7647273 202.480409,61.4977576 202.480409,63.5118485 L202.480409,69.4358636 C202.480409,69.6776818 202.399273,69.8187424 202.117682,69.8187424" id="Fill-24" fill="#626366" sketch:type="MSShapeGroup"></path>
                    <path d="M207.136417,69.4360758 C207.136417,69.6577424 207.056341,69.8189545 206.773689,69.8189545 L205.343462,69.8189545 C205.061341,69.8189545 204.940432,69.6980455 204.940432,69.4360758 L204.940432,60.3286515 C204.940432,60.0465303 205.061341,59.946303 205.343462,59.946303 L206.773689,59.946303 C207.056341,59.946303 207.136417,60.1069848 207.136417,60.3286515 L207.136417,69.4360758 Z M206.068386,58.4953939 C205.021038,58.4953939 204.879977,57.911 204.879977,57.3266061 C204.879977,56.6817576 205.101644,56.1779697 206.068386,56.1779697 C207.056341,56.1779697 207.257326,56.6414545 207.257326,57.3266061 C207.257326,57.951303 207.076492,58.4953939 206.068386,58.4953939 L206.068386,58.4953939 Z" id="Fill-26" fill="#626366" sketch:type="MSShapeGroup"></path>
                    <path d="M212.940212,69.9798485 C211.932636,69.9798485 210.583015,69.8387879 209.816727,69.5365152 C209.414227,69.375303 209.333091,69.1939394 209.394076,68.8715152 L209.534606,68.2070455 C209.595061,67.8846212 209.736121,67.8644697 210.058545,67.9047727 C210.945212,68.045303 212.234909,68.1465909 212.920061,68.1465909 C214.209758,68.1465909 214.733167,67.8034848 214.733167,66.9979545 C214.733167,66.0709848 214.390591,65.8694697 213.121576,65.6881061 C211.146727,65.4065152 209.414227,64.982803 209.414227,62.7868182 C209.414227,60.7923485 210.945212,59.7444697 213.201652,59.7444697 C214.027864,59.7444697 215.418318,59.8653788 216.264682,60.187803 C216.606727,60.3288636 216.748318,60.4895455 216.687333,60.7923485 L216.526652,61.517803 C216.465667,61.7993939 216.345288,61.839697 215.98203,61.7993939 C215.116045,61.6991667 213.988091,61.5777273 213.241955,61.5777273 C211.952788,61.5777273 211.650515,61.9409848 211.650515,62.7062121 C211.650515,63.4921212 212.133621,63.5928788 213.363394,63.7943939 C215.277258,64.0765152 217.010288,64.4593939 217.010288,66.8568939 C217.010288,69.2146212 215.015288,69.9798485 212.940212,69.9798485" id="Fill-28" fill="#626366" sketch:type="MSShapeGroup"></path>
                    <path d="M222.18997,69.9798485 C221.182394,69.9798485 219.832773,69.8387879 219.066485,69.5365152 C218.663985,69.375303 218.582848,69.1939394 218.643833,68.8715152 L218.784364,68.2070455 C218.844818,67.8846212 218.985879,67.8644697 219.308303,67.9047727 C220.19497,68.045303 221.484667,68.1465909 222.169818,68.1465909 C223.459515,68.1465909 223.982924,67.8034848 223.982924,66.9979545 C223.982924,66.0709848 223.640348,65.8694697 222.371333,65.6881061 C220.396485,65.4065152 218.663985,64.982803 218.663985,62.7868182 C218.663985,60.7923485 220.19497,59.7444697 222.451409,59.7444697 C223.278152,59.7444697 224.668076,59.8653788 225.514439,60.187803 C225.857015,60.3288636 225.998076,60.4895455 225.937091,60.7923485 L225.776409,61.517803 C225.715424,61.7993939 225.595045,61.839697 225.231788,61.7993939 C224.365803,61.6991667 223.237848,61.5777273 222.491712,61.5777273 C221.202545,61.5777273 220.900273,61.9409848 220.900273,62.7062121 C220.900273,63.4921212 221.383379,63.5928788 222.613152,63.7943939 C224.527015,64.0765152 226.260045,64.4593939 226.260045,66.8568939 C226.260045,69.2146212 224.265045,69.9798485 222.18997,69.9798485" id="Fill-30" fill="#626366" sketch:type="MSShapeGroup"></path>
                    <path d="M230.613197,69.4360758 C230.613197,69.6577424 230.533121,69.8189545 230.25047,69.8189545 L228.820242,69.8189545 C228.538121,69.8189545 228.417212,69.6980455 228.417212,69.4360758 L228.417212,60.3286515 C228.417212,60.0465303 228.538121,59.946303 228.820242,59.946303 L230.25047,59.946303 C230.533121,59.946303 230.613197,60.1069848 230.613197,60.3286515 L230.613197,69.4360758 Z M229.545167,58.4953939 C228.497818,58.4953939 228.356758,57.911 228.356758,57.3266061 C228.356758,56.6817576 228.578424,56.1779697 229.545167,56.1779697 C230.533121,56.1779697 230.734106,56.6414545 230.734106,57.3266061 C230.734106,57.951303 230.553273,58.4953939 229.545167,58.4953939 L229.545167,58.4953939 Z" id="Fill-32" fill="#626366" sketch:type="MSShapeGroup"></path>
                    <path d="M237.243045,61.678803 C235.530697,61.678803 235.147288,62.7669848 235.147288,64.8622121 C235.147288,66.9977424 235.530697,68.0456212 237.222894,68.0456212 C239.056152,68.0456212 239.419409,67.0178939 239.419409,64.8622121 C239.419409,62.7266818 239.076303,61.678803 237.243045,61.678803 M237.222894,69.9796364 C233.17297,69.9796364 232.911,67.0178939 232.911,64.7211515 C232.911,62.8274394 233.334182,59.7447879 237.222894,59.7447879 C241.131758,59.7447879 241.675318,62.343803 241.675318,64.7211515 C241.675318,67.0178939 241.393197,69.9796364 237.222894,69.9796364" id="Fill-34" fill="#626366" sketch:type="MSShapeGroup"></path>
                    <path d="M251.791644,69.8187424 L250.341265,69.8187424 C250.078765,69.8187424 249.958386,69.6978333 249.958386,69.4358636 L249.978538,63.7743485 C249.978538,62.5854091 249.696417,61.7995 248.527629,61.7995 C247.721568,61.7995 246.311492,62.4443485 245.767402,62.7063182 L245.767402,69.4358636 C245.767402,69.6776818 245.666644,69.8187424 245.384523,69.8187424 L243.954295,69.8187424 C243.672174,69.8187424 243.570886,69.6978333 243.570886,69.4358636 L243.570886,60.3491212 C243.570886,60.0866212 243.672174,59.9460909 243.954295,59.9460909 L245.384523,59.9460909 C245.666644,59.9460909 245.767402,60.0866212 245.767402,60.3491212 L245.767402,60.9531364 C245.787553,60.9531364 245.807705,60.9732879 245.827856,60.9732879 C246.572932,60.4498788 247.983538,59.7647273 249.21278,59.7647273 C251.932705,59.7647273 252.174523,61.5576818 252.174523,63.5929848 L252.174523,69.4358636 C252.174523,69.6776818 252.093917,69.8187424 251.791644,69.8187424" id="Fill-36" fill="#626366" sketch:type="MSShapeGroup"></path>
                    <g id="Group-20">
                        <mask id="mask-4" sketch:name="Clip 39 Copy" fill="white">
                            <use xlink:href="#path-3"></use>
                        </mask>
                        <g id="Clip-39-Copy"></g>
                        <g id="Group-18-Copy" mask="url(#mask-4)" sketch:type="MSShapeGroup">
                            <path d="M0,26.1037424 C0,26.1037424 41.6335606,20.6755606 42.8097727,20.4814697 C44.6112121,20.1855606 46.2116667,19.8392727 47.7039394,19.4229848 C51.0718939,18.4933636 54.1715152,17.074803 56.9158333,15.2060152 C59.5466667,13.4279091 61.9940152,10.8410909 64.4201515,8.00343939 C65.962803,6.19775758 67.5828788,3.84374242 69.0942424,1.57139394 L69.0942424,0.475257576 C67.3012879,3.14957576 65.5348485,5.45374242 63.7185606,7.48798485 C61.3115152,10.1882879 58.7862121,12.397 56.2121212,14.054197 C53.5558333,15.7782121 50.5659848,17.0652576 47.3247727,17.879803 C45.8722727,18.2483636 44.3168939,18.5474545 42.5690152,18.7924545 C41.4161364,18.9557879 40.2282576,19.0814697 39.0801515,19.2034394 C38.6214394,19.2522273 0,23.3801061 0,23.3801061 L0,26.1037424 Z" id="Fill-40" fill="#BBBDBF"></path>
                            <path d="M55.8325303,19.0694318 C53.2266212,20.5797348 50.2166212,21.6848864 46.8868485,22.3541288 C45.4645758,22.6436742 43.9150303,22.8785985 42.147,23.0726894 C41.109197,23.1861742 40.0634394,23.2779167 39.0160909,23.3685985 C38.4507879,23.4179167 37.8860152,23.4672348 37.3228333,23.5197348 C24.5642727,24.6720833 11.8709394,25.8986742 0.000106060606,27.0595076 L0.000106060606,29.7810227 C11.9642727,28.3269318 24.7456364,26.7874621 37.4999545,25.3328409 C38.0673788,25.2660227 38.634803,25.2023864 39.2027576,25.1403409 C40.2474545,25.0242045 41.2937424,24.9080682 42.3432121,24.7685985 C44.1579091,24.5251894 45.7461667,24.2457197 47.1970758,23.91375 C50.6562424,23.1342045 53.7813182,21.9039015 56.4816212,20.2567803 C59.1654848,18.6335227 61.537,16.3611742 64.0872273,13.5818561 C65.6749545,11.8520076 67.4413939,9.41102273 69.0943485,7.11693182 L69.0943485,6.11943182 C67.1470758,8.78102273 65.2995,11.0167803 63.4704848,12.9242803 C60.9812424,15.5227652 58.4113939,17.5898864 55.8325303,19.0694318" id="Fill-41" fill="#BBBDBF"></path>
                            <path d="M63.1187348,18.4026818 C60.578053,20.7503333 57.9265379,22.5968485 55.2347197,23.8918485 C52.6033561,25.1709394 49.6585833,26.0682121 46.2312348,26.6361667 C44.8169167,26.8721515 43.2790379,27.0651818 41.5322197,27.2253333 L-5.3030303e-05,30.6622273 L-5.3030303e-05,33.3779091 L36.9185833,29.4303333 L41.695553,28.9238939 C43.4943409,28.7149545 45.0640379,28.4795 46.4921439,28.2058636 C50.0419924,27.5307879 53.0875227,26.5221515 55.8000227,25.1226818 C58.5735076,23.7094242 61.3448712,21.3580606 63.9210833,18.8682879 C65.6504015,17.1988939 67.3150227,15.0426818 69.0941894,12.7809394 L69.0941894,11.8762424 C67.0392652,14.449803 65.0771439,16.5948788 63.1187348,18.4026818" id="Fill-42" fill="#BBBDBF"></path>
                            <path d="M53.0755909,32.5043939 C50.6579394,33.8672727 48.8496061,34.6526515 45.396803,35.0159091 C43.3100606,35.2423485 41.1649848,35.35 39.0899091,35.4539394 C38.0860455,35.5048485 37.0805909,35.554697 36.0772576,35.6183333 C29.8027121,35.98 23.6411212,36.3809091 17.3549091,36.7934848 L0.000212121212,37.9712879 L0.000212121212,40.6864394 L17.5283182,39.0658333 C23.1919545,38.5540909 29.7740758,37.9633333 36.1997576,37.4351515 L40.8701364,37.0708333 C42.6938485,36.9297727 44.189303,36.779697 45.5744545,36.597803 C49.1274848,36.1359091 52.1624091,35.4125758 54.8515758,34.3885606 C57.7475606,33.2966667 60.4780909,31.6028788 63.2128636,29.6110606 C65.6782424,27.8159848 69.0902121,24.2746212 69.0944545,24.2284848 L69.0944545,23.2691667 C66.8634697,25.4619697 65.5790758,26.6933333 63.1375606,28.315 C60.219303,30.252197 55.2434697,31.2825758 53.0755909,32.5043939" id="Fill-43" fill="#BBBDBF"></path>
                            <path d="M53.9585985,37.6649848 C51.3383712,38.438697 48.3893561,38.9626364 44.9429167,39.2665 C43.5466288,39.3879394 42.0405682,39.481803 40.3377652,39.5507424 L35.6923106,39.7559697 C24.1492045,40.2963485 12.6623106,40.9008939 0.000265151515,41.5759697 L0.000265151515,44.2847576 C12.0954167,43.3413485 23.94875,42.4233939 35.7973106,41.5738485 L40.4289773,41.2551364 C42.2171591,41.1368788 43.6993561,41.0080152 45.094053,40.8499848 C48.6274621,40.4517273 51.6496591,39.8371061 54.3314015,38.9721818 C57.3042803,38.0234697 60.2018561,36.6478636 62.9435227,34.8835455 C64.9682197,33.5848333 66.993447,32.0363485 69.0945076,30.1882424 L69.0945076,30.1410455 C66.7786742,32.1323333 64.5726136,32.5740758 62.373447,33.9120303 C59.6805682,35.5559697 56.8498106,36.8186212 53.9585985,37.6649848" id="Fill-44" fill="#BBBDBF"></path>
                            <path d="M53.5303258,42.1640227 C50.8910076,42.7855379 48.0316136,43.1853864 44.5289621,43.4219015 C43.1782803,43.5131136 41.7263106,43.5815227 39.95775,43.6366742 L35.3568409,43.8015985 C23.7644167,44.2433409 12.01025,44.7513712 -5.3030303e-05,45.2763712 L-5.3030303e-05,47.9835682 C11.9328258,47.1631894 23.6392652,46.3650833 35.4475227,45.6205379 L40.0378258,45.3431894 C41.8376742,45.2397803 43.3044924,45.13425 44.6519924,45.0106894 C48.2193409,44.67925 51.1381288,44.1961439 53.8368409,43.4913712 C56.8648712,42.7054621 59.808053,41.5531136 62.5857803,40.0666742 C64.7335076,38.9196288 66.8748712,37.5408409 69.0941894,35.8804621 L69.0941894,34.7222803 C66.6956288,36.4685682 64.3946439,37.8913712 62.0910076,39.0516742 C59.3641894,40.4278106 56.4846439,41.4740985 53.5303258,42.1640227" id="Fill-45" fill="#BBBDBF"></path>
                            <path d="M53.1372652,46.5752955 C50.4894621,47.0637045 47.6374924,47.3755227 44.1613561,47.5568864 C42.8536288,47.6242348 41.4546894,47.6730227 39.6240833,47.715447 L-0.000159090909,48.7967348 L-0.000159090909,51.5012803 L35.1371894,49.6531742 L39.6893106,49.4203712 C41.4652955,49.336053 42.9183258,49.2496136 44.2621136,49.1446136 C47.7859773,48.8736288 50.6851439,48.4827955 53.3843864,47.9143106 C56.4490076,47.2731742 59.422947,46.3371894 62.2245379,45.1344621 C64.480447,44.1703712 66.7405985,42.9941591 69.0940833,41.5644621 L69.0940833,40.4773409 C66.5793864,41.9515833 64.18825,43.1346894 61.8140833,44.08075 C59.0517348,45.1874924 56.1324167,46.0259015 53.1372652,46.5752955" id="Fill-46" fill="#BBBDBF"></path>
                            <path d="M52.8262424,51.0049167 C47.9644242,51.65825 42.9588939,51.7340833 38.1182879,51.8067348 C37.0088939,51.8221136 35.8989697,51.8396136 34.7906364,51.8624167 L0.000106060606,52.4945379 L0.000106060606,55.1953712 L34.8510909,53.6824167 C35.9557121,53.6315076 37.0624545,53.5869621 38.1702576,53.5424167 C43.044803,53.3456742 48.0858636,53.1436288 53.0134394,52.3545379 C56.1332121,51.8592348 59.1347273,51.1263561 61.9357879,50.1776439 C64.2558636,49.3943864 66.6597273,48.3815076 69.0943485,47.1840833 L69.0943485,46.1473409 C66.5356364,47.3490076 64.0193485,48.3459773 61.6032879,49.0937045 C58.8351061,49.955447 55.8823788,50.5987045 52.8262424,51.0049167" id="Fill-47" fill="#BBBDBF"></path>
                            <path d="M52.5499545,55.462803 C47.9941212,55.8419697 43.3322273,55.8430303 38.8225303,55.8430303 C37.4198788,55.8430303 36.0172273,55.8430303 34.6145758,55.8541667 C23.0889697,55.9050758 11.6545758,56.0005303 0.000106060606,56.1018182 L0.000106060606,58.8042424 C11.1004091,58.4240152 22.8773788,58.0273485 34.6538182,57.6752273 C36.051697,57.6285606 37.4501061,57.5925 38.8501061,57.5559091 C43.3836667,57.4408333 48.0715455,57.3209848 52.6735152,56.8198485 C55.8892727,56.4725 58.8144242,55.9628788 61.6176061,55.2639394 C64.062303,54.6588636 66.5727576,53.8512121 69.0943485,52.8807576 L69.0943485,51.8885606 C66.4916212,52.8298485 63.8973788,53.5982576 61.3720758,54.1577273 C58.5964697,54.775 55.7100303,55.2018939 52.5499545,55.462803" id="Fill-48" fill="#BBBDBF"></path>
                            <path d="M52.3738939,59.8574773 C50.4759394,59.9333106 48.4204848,59.9693712 46.0892727,59.9693712 C45.2084394,59.9693712 44.3276061,59.9640682 43.4488939,59.9561136 L34.482,59.8463409 C28.3633636,59.8007348 22.2680606,59.7901288 16.5492727,59.7848258 L0.000106060606,59.8007348 L0.000106060606,62.5015682 L16.5890455,62.0635379 C22.2866212,61.9230076 28.3999545,61.7766439 34.4989697,61.6658106 L43.4584394,61.5470227 C45.9163939,61.50725 49.1597273,61.4351288 52.4449545,61.2171742 C55.6644242,61.0071742 58.5938182,60.6842197 61.4017727,60.2324015 C63.929197,59.8245985 66.5112424,59.2762652 69.0943485,58.6133864 L69.0943485,57.6545985 C66.4401818,58.2718712 63.8029848,58.7634621 61.2437424,59.1086894 C58.451697,59.4857348 55.5504091,59.7302045 52.3738939,59.8574773" id="Fill-49" fill="#BBBDBF"></path>
                            <path d="M43.3447424,64.1040379 L34.4080758,64.0075227 C23.0081515,63.8463106 11.618303,63.6357803 -0.000106060606,63.4172955 L-0.000106060606,66.1197197 C11.0901212,66.044947 22.835803,65.9600985 34.4165606,65.8285833 L43.3574697,65.694947 C46.3706515,65.6429773 49.3212576,65.5883561 52.3047424,65.4875985 C58.4477727,65.2887348 63.9512576,64.8538864 69.0941364,64.1682045 L69.0941364,63.2290379 C63.9316364,63.7879773 58.420197,64.0833561 52.2729242,64.1236591 C49.2989848,64.1507045 46.3218636,64.1289621 43.3447424,64.1040379" id="Fill-50" fill="#BBBDBF"></path>
                            <path d="M69.0942424,68.8809015 L0,67.116053 L0,69.8163561 L69.0942424,69.8163561 L69.0942424,68.8809015 Z" id="Fill-51" fill="#BBBDBF"></path>
                            <path d="M62.8727803,23.5055227 C60.2483106,25.6299167 58.2204318,27.1396894 55.0083864,28.4256742 C52.2110379,29.5462045 49.2063409,30.0049167 45.7731591,30.4763561 C43.5639167,30.7881742 41.2549773,31.2495379 39.049447,31.3974924 C38.1426288,31.4590076 37.2352803,31.5194621 36.3305833,31.591053 L5.3030303e-05,34.2590076 L5.3030303e-05,36.9699167 L36.476947,33.40575 L41.2061894,32.9587045 C42.9609621,32.7916591 44.5179318,32.5970379 45.96725,32.3615833 C49.50225,31.7899167 52.5483106,30.9165076 55.2783106,29.6920379 C58.1106591,28.4330985 60.9774773,26.3712803 63.6411894,24.1127197 C65.4537652,22.5790833 67.1968712,20.6493106 69.0942955,18.5418864 L69.0942955,17.5703712 C66.7991439,19.960447 64.896947,21.8705985 62.8727803,23.5055227" id="Fill-52" fill="#BBBDBF"></path>
                            <path d="M98.4988561,0.475151515 C98.4988561,0.475151515 110.933932,20.2803788 113.207341,23.9118939 C115.48075,27.5423485 118.079765,30.415 127.279992,32.3659848 C136.48022,34.3169697 140.485598,35.2386364 140.485598,35.2386364 L140.485598,35.9428788 C140.485598,35.9428788 134.639538,34.6961364 127.117189,33.0161364 C119.594841,31.3361364 116.519614,30.7708333 113.090674,25.999697 C110.237114,22.0287879 98.4988561,5.15348485 98.4988561,5.15348485 L98.4988561,0.475151515 Z" id="Fill-53" fill="#BBBDBF"></path>
                            <path d="M98.4988561,23.0927879 C98.4988561,23.0927879 109.818705,34.9546061 113.090674,38.3596818 C116.562568,41.9721061 121.01075,43.3084697 127.175523,44.4093788 C133.060295,45.4599091 140.482417,46.6732424 140.482417,46.6732424 L140.482417,47.3414242 C140.482417,47.3414242 133.512644,46.1996818 127.175523,45.1146818 C120.961962,44.0503636 116.612417,43.4569545 113.053553,40.1780909 C109.866962,37.241803 98.4988561,26.5816515 98.4988561,26.5816515 L98.4988561,23.0927879 Z" id="Fill-54" fill="#BBBDBF"></path>
                            <path d="M98.4988561,28.4372879 C98.4988561,28.4372879 109.264008,38.4335 113.090674,41.8486515 C116.612417,44.9912273 119.466508,45.9685758 127.212644,47.3415303 C134.959841,48.7150152 140.482417,49.5682727 140.482417,49.5682727 L140.482417,50.2735758 C140.482417,50.2735758 133.476583,49.1228182 127.175523,48.1205455 C120.874992,47.118803 116.859538,46.7226667 113.090674,43.6670606 C108.740068,40.1389545 98.4988561,31.7034242 98.4988561,31.7034242 L98.4988561,28.4372879 Z" id="Fill-55" fill="#BBBDBF"></path>
                            <path d="M98.4988561,34.1346515 C98.4988561,34.1346515 110.796053,43.8901061 113.093856,45.5971515 C115.391659,47.304197 118.431886,49.2960152 127.252947,50.5708636 C136.000826,51.8345758 140.485598,52.4635152 140.485598,52.4635152 L140.485598,53.2059394 C140.485598,53.2059394 132.553856,52.0551818 127.252947,51.387 C121.953098,50.7188182 117.888326,50.4351061 113.130977,47.2670758 C108.499841,44.1838939 98.4988561,37.1425303 98.4988561,37.1425303 L98.4988561,34.1346515 Z" id="Fill-56" fill="#BBBDBF"></path>
                            <path d="M98.4988561,39.6116742 C98.4988561,39.6116742 110.832644,47.823947 113.168098,49.1231894 C115.503553,50.4219015 118.24628,52.5378106 127.252947,53.6885682 C136.260674,54.8393258 140.485598,55.3579621 140.485598,55.3579621 L140.485598,56.0632652 C140.485598,56.0632652 133.035371,55.2471288 127.215826,54.6165985 C121.396811,53.9850076 117.431205,53.1312197 113.093856,50.7565227 C108.757038,48.3812955 98.4988561,42.3872803 98.4988561,42.3872803 L98.4988561,39.6116742 Z" id="Fill-57" fill="#BBBDBF"></path>
                            <path d="M98.4988561,45.08875 C98.4988561,45.08875 109.401356,51.0196591 113.090674,52.8714773 C117.205295,54.9375379 120.764159,55.926553 127.212644,56.6944318 C133.544992,57.4485227 140.482417,58.1798106 140.482417,58.1798106 L140.482417,58.8474621 C140.482417,58.8474621 134.067871,58.1607197 127.212644,57.5116288 C120.417341,56.8673106 117.997038,56.5708712 113.090674,54.3939773 C108.702947,52.4467045 98.4988561,47.6882955 98.4988561,47.6882955 L98.4988561,45.08875 Z" id="Fill-58" fill="#BBBDBF"></path>
                            <path d="M98.4988561,50.6403333 C98.4988561,50.6403333 107.114159,54.3296515 113.168098,56.7313939 C119.123932,59.0938939 123.67022,59.2927576 127.290068,59.7010909 C128.884159,59.8803333 140.485598,61.0745758 140.485598,61.0745758 L140.485598,61.741697 C140.485598,61.741697 133.554008,61.1854091 127.252947,60.6291212 C120.951356,60.0728333 118.234083,59.8368485 113.130977,58.1425303 C107.967417,56.4280606 98.4988561,53.1263939 98.4988561,53.1263939 L98.4988561,50.6403333 Z" id="Fill-59" fill="#BBBDBF"></path>
                            <path d="M98.4988561,56.2996742 C98.4988561,56.2996742 107.196886,58.9957348 113.127795,60.5542955 C119.058705,62.1133864 124.507038,62.7449773 127.249765,62.9295227 C129.992492,63.1161894 140.485598,63.9683864 140.485598,63.9683864 L140.485598,64.5999773 C140.485598,64.5999773 134.517568,64.1932348 127.212644,63.671947 C121.306659,63.2514167 116.562568,62.8064924 113.090674,62.0386136 C109.242795,61.1895985 98.4988561,58.6361894 98.4988561,58.6361894 L98.4988561,56.2996742 Z" id="Fill-60" fill="#BBBDBF"></path>
                            <path d="M98.4988561,61.8678561 C98.4988561,61.8678561 105.612341,63.094447 113.127795,64.3401288 C118.761735,65.2745227 126.397568,65.8626288 127.212644,65.9002803 C128.02878,65.9363409 140.482417,66.7906591 140.482417,66.7906591 L140.482417,67.4577803 C140.482417,67.4577803 132.511432,67.0457348 127.212644,66.7535379 C121.69325,66.4480833 116.207265,66.1134621 113.090674,65.7883864 C106.110295,65.0602803 98.4988561,64.0967197 98.4988561,64.0967197 L98.4988561,61.8678561 Z" id="Fill-61" fill="#BBBDBF"></path>
                            <path d="M98.4988561,67.6307652 C98.4988561,67.6307652 109.717947,68.0523561 113.127795,68.1271288 C116.538174,68.2003106 140.482417,69.1659924 140.482417,69.1659924 L140.482417,69.8161439 L98.4988561,69.8161439 L98.4988561,67.6307652 Z" id="Fill-62" fill="#BBBDBF"></path>
                            <path d="M127.212644,35.4275303 C117.056811,33.2379091 114.759008,29.5263182 113.053553,27.224803 C111.348098,24.9232879 98.4988561,6.14313636 98.4988561,6.14313636 L98.4988561,10.3813182 C99.0052955,11.044197 110.00325,25.4413939 113.090674,29.4144242 C116.569992,33.8912424 122.023629,34.9078333 127.212644,36.0214697 C132.401659,37.1345758 140.485598,38.6867727 140.485598,38.6867727 L140.485598,38.0933636 C140.485598,38.0933636 129.834992,35.9928333 127.212644,35.4275303" id="Fill-63" fill="#BBBDBF"></path>
                            <path d="M127.212644,38.39675 C118.873098,36.7634167 115.500371,34.1283409 113.053553,30.936447 C110.607265,27.744553 98.4988561,11.784553 98.4988561,11.784553 L98.4988561,15.7973561 C99.0058258,16.3987197 110.082265,29.5369773 113.053553,32.9404621 C116.519614,36.9103106 121.356508,37.9512955 127.212644,39.0272803 C133.069311,40.1037955 140.482417,41.5138712 140.482417,41.5138712 L140.482417,40.9204621 C140.482417,40.9204621 132.021432,39.3385682 127.212644,38.39675" id="Fill-64" fill="#BBBDBF"></path>
                            <path d="M127.212644,41.4770682 C118.540068,39.794947 116.760902,38.4092652 113.090674,34.3879773 C110.782795,31.860553 98.9962803,17.94275 98.4988561,17.3557045 L98.4988561,21.0635833 C98.4988561,21.0635833 109.51325,32.8119167 113.053553,36.2811591 C117.700068,40.8343409 122.06075,41.1800985 127.212644,42.1081288 C132.365068,43.0356288 140.482417,44.5210076 140.482417,44.5210076 L140.482417,43.889947 C140.482417,43.889947 130.681886,42.150553 127.212644,41.4770682" id="Fill-65" fill="#BBBDBF"></path>
                            <path d="M89.2531818,29.3215152 L28.7190909,29.3215152 L28.7190909,69.8165152 L89.2531818,69.8165152 L89.2531818,29.3215152 Z" id="Fill-66" fill="#034DA1"></path>
                            <path d="M59.6422803,35.0790152 L61.7486439,35.0790152 L60.0506136,36.4015909 L60.7108409,38.4994697 L59.0197045,37.2071212 L57.3285682,38.4994697 L57.9951591,36.4015909 L56.2838712,35.0790152 L58.3833409,35.0790152 L59.0197045,33.0331061 L59.6422803,35.0790152 Z" id="Fill-67" fill="#FFF100"></path>
                            <path d="M59.7163106,62.0843258 L61.8258561,62.0843258 L60.1278258,63.3591742 L60.7875227,65.3759167 L59.0969167,64.1328864 L57.4057803,65.3759167 L58.0718409,63.3591742 L56.3579015,62.0843258 L58.460553,62.0843258 L59.0969167,60.1153106 L59.7163106,62.0843258 Z" id="Fill-68" fill="#FFF100"></path>
                            <path d="M66.3963788,60.2955606 L68.5064545,60.2955606 L66.8084242,61.5677576 L67.4681212,63.5871515 L65.7769848,62.3414697 L64.0858485,63.5871515 L64.7524394,61.5677576 L63.0379697,60.2955606 L65.1406212,60.2955606 L65.7769848,58.3265455 L66.3963788,60.2955606 Z" id="Fill-69" fill="#FFF100"></path>
                            <path d="M66.3963788,36.8804015 L68.5064545,36.8804015 L66.8084242,38.1531288 L67.4681212,40.1719924 L65.7769848,38.9279015 L64.0858485,40.1719924 L64.7524394,38.1531288 L63.0379697,36.8804015 L65.1406212,36.8804015 L65.7769848,34.9119167 L66.3963788,36.8804015 Z" id="Fill-70" fill="#FFF100"></path>
                            <path d="M71.3560379,41.8395833 L73.4618712,41.8395833 L71.7643712,43.1101894 L72.4240682,45.1311742 L70.7329318,43.8870833 L69.0455076,45.1311742 L69.7115682,43.1101894 L67.9970985,41.8395833 L70.0965682,41.8395833 L70.7329318,39.8705682 L71.3560379,41.8395833 Z" id="Fill-71" fill="#FFF100"></path>
                            <path d="M71.3560379,55.4037273 L73.4618712,55.4037273 L71.7643712,56.6796364 L72.4240682,58.6985 L70.7329318,57.4522879 L69.0455076,58.6985 L69.7115682,56.6796364 L67.9970985,55.4037273 L70.0965682,55.4037273 L70.7329318,53.4347121 L71.3560379,55.4037273 Z" id="Fill-72" fill="#FFF100"></path>
                            <path d="M73.2141667,48.5181136 L75.3242424,48.5181136 L73.6256818,49.7908409 L74.2853788,51.8107652 L72.5942424,50.564553 L70.9036364,51.8107652 L71.569697,49.7908409 L69.8552273,48.5181136 L71.9552273,48.5181136 L72.5942424,46.5506894 L73.2141667,48.5181136 Z" id="Fill-73" fill="#FFF100"></path>
                            <path d="M52.8317045,36.897 L54.9375379,36.897 L53.2400379,38.1713182 L53.8997348,40.1901818 L52.2085985,38.9445 L50.5174621,40.1901818 L51.1845833,38.1713182 L49.4732955,36.897 L51.5727652,36.897 L52.2085985,34.9285152 L52.8317045,36.897 Z" id="Fill-74" fill="#FFF100"></path>
                            <path d="M48.0097652,41.8561818 L50.1193106,41.8561818 L48.4212803,43.1283788 L49.0777955,45.148303 L47.3903712,43.9036818 L45.6992348,45.148303 L46.3637045,43.1283788 L44.6513561,41.8561818 L46.7540076,41.8561818 L47.3903712,39.887697 L48.0097652,41.8561818 Z" id="Fill-75" fill="#FFF100"></path>
                            <path d="M46.2199924,48.5346591 L48.327947,48.5346591 L46.6299167,49.808447 L47.2896136,51.8273106 L45.5990076,50.5853409 L43.9078712,51.8273106 L44.5739318,49.808447 L42.8631742,48.5346591 L44.9626439,48.5346591 L45.5990076,46.5677652 L46.2199924,48.5346591 Z" id="Fill-76" fill="#FFF100"></path>
                            <path d="M48.0097652,55.4203258 L50.1193106,55.4203258 L48.4212803,56.6962348 L49.0777955,58.7150985 L47.3903712,57.469947 L45.6992348,58.7150985 L46.3637045,56.6962348 L44.6513561,55.4203258 L46.7540076,55.4203258 L47.3903712,53.4544924 L48.0097652,55.4203258 Z" id="Fill-77" fill="#FFF100"></path>
                            <path d="M52.9021288,60.3121591 L55.0079621,60.3121591 L53.3104621,61.5848864 L53.966447,63.60375 L52.2790227,62.3585985 L50.5878864,63.60375 L51.2544773,61.5848864 L49.5437197,60.3121591 L51.6426591,60.3121591 L52.2790227,58.3431439 L52.9021288,60.3121591 Z" id="Fill-78" fill="#FFF100"></path>
                        </g>
                    </g>
                </g>
            </g>
        </g>
    </g>
</svg>