<?xml version="1.0" encoding="utf-8"?>
<!-- Generator: Adobe Illustrator 19.1.0, SVG Export Plug-In . SVG Version: 6.00 Build 0)  -->
<svg version="1.1" id="Layer_1" xmlns="http://www.w3.org/2000/svg" xmlns:xlink="http://www.w3.org/1999/xlink" x="0px" y="0px"
	 viewBox="-68.4 127.7 450 164" style="enable-background:new -68.4 127.7 450 164;" xml:space="preserve">
<style type="text/css">
	.st0{fill:#404040;}
	.st1{fill:#BCBEC0;}
	.st2{fill:#0D4F9E;}
	.st3{fill:#FAEA27;}
</style>
<g>
	<path class="st0" d="M4,270.1c0-1.7,0.1-3.4,0.4-5c0.3-1.7,0.8-3.1,1.6-4.4c0.8-1.3,1.9-2.3,3.3-3.1c1.4-0.8,3.2-1.2,5.5-1.2
		c0.5,0,1,0,1.7,0.1c0.6,0,1.3,0.1,1.9,0.2c0.7,0.1,1.3,0.2,2,0.4c0.6,0.1,1.2,0.3,1.8,0.5c0.3,0.1,0.5,0.3,0.7,0.5
		c0.1,0.2,0.2,0.4,0.1,0.8l-0.4,1.6c-0.1,0.2-0.1,0.4-0.3,0.5c-0.1,0.1-0.4,0.1-0.8,0.1c-1-0.1-2-0.3-3.2-0.4
		c-1.1-0.1-2.2-0.2-3.3-0.2c-1.4,0-2.5,0.3-3.3,0.8s-1.5,1.2-1.9,2.1c-0.4,0.9-0.7,1.9-0.9,3.1c-0.1,1.2-0.2,2.4-0.2,3.7
		c0,1.3,0.1,2.5,0.2,3.7c0.2,1.1,0.5,2.1,0.9,3c0.5,0.8,1.1,1.5,1.9,2s1.9,0.7,3.2,0.7c1.2,0,2.3-0.1,3.3-0.2s2.1-0.2,3.2-0.4
		c0.4-0.1,0.6,0,0.8,0.1c0.1,0.1,0.2,0.3,0.3,0.6l0.3,1.5c0.2,0.6-0.1,1-0.7,1.3c-0.5,0.2-1,0.4-1.7,0.5s-1.3,0.3-2,0.4
		s-1.3,0.2-2,0.2c-0.7,0-1.2,0.1-1.7,0.1c-2.2,0-4.1-0.4-5.5-1.1c-1.4-0.8-2.5-1.8-3.3-3c-0.8-1.3-1.3-2.7-1.6-4.3
		C4.1,273.4,4,271.8,4,270.1z"/>
	<path class="st0" d="M43.1,273c0,1.1-0.1,2.3-0.2,3.6c-0.1,1.2-0.5,2.4-1.1,3.4s-1.5,1.9-2.6,2.5c-1.2,0.7-2.8,1-4.9,1
		c-2,0-3.6-0.3-4.7-1c-1.1-0.7-2-1.5-2.6-2.5s-0.9-2.2-1.1-3.4c-0.1-1.2-0.2-2.4-0.2-3.6c0-0.9,0.1-2,0.3-3.1
		c0.2-1.1,0.6-2.2,1.1-3.2c0.6-1,1.4-1.8,2.6-2.5c1.1-0.7,2.7-1,4.6-1c1.9,0,3.5,0.3,4.6,0.9c1.2,0.6,2,1.4,2.7,2.3
		c0.6,0.9,1,2,1.2,3.2C43,270.6,43.1,271.8,43.1,273z M38.7,273.3c0-1.1-0.1-2-0.2-2.8c-0.1-0.8-0.3-1.4-0.6-2
		c-0.3-0.5-0.8-0.9-1.3-1.2c-0.5-0.3-1.3-0.4-2.2-0.4s-1.5,0.1-2.1,0.4c-0.5,0.3-1,0.7-1.3,1.2s-0.5,1.2-0.6,2
		c-0.1,0.8-0.2,1.7-0.2,2.7c0,1.1,0.1,2,0.2,2.8c0.1,0.8,0.3,1.4,0.6,2c0.3,0.5,0.7,0.9,1.2,1.2c0.5,0.3,1.2,0.4,2.1,0.4
		s1.6-0.1,2.2-0.4c0.6-0.3,1-0.6,1.3-1.2c0.3-0.5,0.5-1.2,0.6-2C38.6,275.3,38.7,274.3,38.7,273.3z"/>
	<path class="st0" d="M75.6,282.9c-0.1,0.1-0.3,0.2-0.6,0.2h-2.9c-0.5,0-0.8-0.3-0.8-0.8v-11.4c0-1.5-0.2-2.5-0.6-3
		s-1.1-0.8-2.1-0.8c-0.4,0-0.8,0.1-1.3,0.2c-0.5,0.1-0.9,0.3-1.4,0.5c-0.5,0.2-0.9,0.4-1.3,0.6s-0.8,0.4-1.1,0.6c0,0.2,0,0.5,0,0.8
		c0,0.3,0,0.7,0,1.2v11.3c0,0.2-0.1,0.4-0.2,0.6c-0.1,0.1-0.3,0.2-0.6,0.2h-2.9c-0.5,0-0.7-0.3-0.7-0.8v-11.6c0-1.2-0.2-2.1-0.6-2.7
		c-0.4-0.6-1.1-0.9-2.1-0.9c-0.3,0-0.7,0.1-1.2,0.2c-0.5,0.1-0.9,0.3-1.4,0.4c-0.5,0.2-0.9,0.4-1.4,0.6c-0.5,0.2-0.9,0.4-1.2,0.6
		v13.4c0,0.5-0.3,0.8-0.8,0.8h-2.9c-0.5,0-0.7-0.3-0.7-0.8v-18c0-0.5,0.2-0.8,0.7-0.8h2.8c0.5,0,0.8,0.3,0.8,0.8v1.2l0,0
		c0.4-0.3,0.8-0.5,1.3-0.8c0.5-0.3,0.9-0.5,1.5-0.7c0.5-0.2,1-0.4,1.6-0.5c0.5-0.1,1.1-0.2,1.6-0.3c1.1,0,2.2,0.2,3.1,0.5
		c0.9,0.4,1.7,1.1,2.3,2.3c1-0.7,2.1-1.4,3.3-2s2.4-0.8,3.7-0.8c1.3,0,2.3,0.2,3.1,0.6c0.8,0.4,1.4,0.9,1.8,1.6
		c0.4,0.7,0.7,1.5,0.8,2.4c0.1,0.9,0.2,1.9,0.2,2.8v11.8C75.7,282.6,75.7,282.8,75.6,282.9z"/>
	<path class="st0" d="M85.2,258.3c0,0.3,0,0.6-0.1,0.9c-0.1,0.3-0.2,0.5-0.3,0.7c-0.2,0.2-0.4,0.4-0.7,0.5c-0.3,0.1-0.7,0.2-1.2,0.2
		s-1-0.1-1.3-0.2c-0.3-0.1-0.5-0.3-0.7-0.5c-0.2-0.2-0.3-0.5-0.3-0.7c-0.1-0.3-0.1-0.6-0.1-0.9c0-0.6,0.2-1.2,0.5-1.6
		c0.3-0.4,0.9-0.7,1.9-0.7s1.6,0.2,1.9,0.6C85.1,257.1,85.2,257.6,85.2,258.3z M85,282.3c0,0.2,0,0.4-0.1,0.5s-0.3,0.2-0.6,0.2h-2.8
		c-0.5,0-0.8-0.3-0.8-0.8v-18.1c0-0.5,0.3-0.8,0.8-0.8h2.8c0.3,0,0.5,0.1,0.6,0.2c0.1,0.1,0.1,0.3,0.1,0.5V282.3z"/>
	<path class="st0" d="M104.6,277.2c0,1.2-0.2,2.2-0.7,2.9c-0.5,0.8-1.1,1.4-1.8,1.9c-0.8,0.5-1.6,0.8-2.6,1c-1,0.2-2,0.3-3,0.3
		s-2.1-0.1-3.3-0.2c-1.2-0.1-2.1-0.4-2.9-0.7c-0.4-0.2-0.7-0.3-0.8-0.5c-0.1-0.2-0.1-0.5-0.1-0.8l0.3-1.3c0.1-0.3,0.2-0.5,0.3-0.6
		c0.2-0.1,0.4-0.1,0.7,0c0.4,0.1,0.9,0.1,1.4,0.2s1,0.1,1.6,0.1s1,0.1,1.5,0.1s0.9,0,1.2,0c1.3,0,2.2-0.2,2.8-0.5
		c0.6-0.4,0.8-0.9,0.8-1.7c0-0.5,0-0.8-0.1-1.1c-0.1-0.3-0.3-0.5-0.5-0.7c-0.2-0.2-0.6-0.3-1-0.5c-0.4-0.1-0.9-0.2-1.6-0.3
		c-1-0.1-1.9-0.3-2.8-0.5c-0.9-0.2-1.7-0.5-2.3-0.9c-0.7-0.4-1.2-1-1.6-1.6c-0.4-0.7-0.6-1.6-0.6-2.7c0-2,0.7-3.5,2.1-4.5
		s3.2-1.5,5.4-1.5c0.4,0,0.9,0,1.4,0s1.1,0.1,1.6,0.2c0.5,0.1,1.1,0.2,1.6,0.3s1,0.2,1.4,0.4c0.7,0.3,0.9,0.7,0.8,1.2l-0.3,1.4
		c-0.1,0.3-0.2,0.5-0.3,0.5c-0.1,0.1-0.4,0.1-0.8,0c-0.9-0.1-1.8-0.2-2.8-0.3s-1.9-0.1-2.6-0.1c-1.3,0-2.1,0.2-2.5,0.5
		c-0.4,0.4-0.6,0.9-0.6,1.7c0,0.8,0.3,1.3,0.8,1.5c0.5,0.2,1.4,0.5,2.6,0.6c1,0.1,1.9,0.3,2.7,0.5c0.9,0.2,1.6,0.5,2.3,1
		c0.7,0.4,1.2,1,1.6,1.7C104.4,275.1,104.6,276,104.6,277.2z"/>
	<path class="st0" d="M113.4,258.3c0,0.3,0,0.6-0.1,0.9c-0.1,0.3-0.2,0.5-0.3,0.7c-0.2,0.2-0.4,0.4-0.7,0.5
		c-0.3,0.1-0.7,0.2-1.2,0.2s-1-0.1-1.3-0.2c-0.3-0.1-0.5-0.3-0.7-0.5c-0.2-0.2-0.3-0.5-0.3-0.7c-0.1-0.3-0.1-0.6-0.1-0.9
		c0-0.6,0.2-1.2,0.5-1.6c0.3-0.4,0.9-0.7,1.9-0.7s1.6,0.2,1.9,0.6C113.3,257.1,113.4,257.6,113.4,258.3z M113.2,282.3
		c0,0.2,0,0.4-0.1,0.5s-0.3,0.2-0.6,0.2h-2.8c-0.5,0-0.8-0.3-0.8-0.8v-18.1c0-0.5,0.3-0.8,0.8-0.8h2.8c0.3,0,0.5,0.1,0.6,0.2
		c0.1,0.1,0.1,0.3,0.1,0.5V282.3z"/>
	<path class="st0" d="M135.1,273c0,1.1-0.1,2.3-0.2,3.6c-0.1,1.2-0.5,2.4-1.1,3.4s-1.5,1.9-2.6,2.5c-1.2,0.7-2.8,1-4.9,1
		c-2,0-3.6-0.3-4.7-1c-1.1-0.7-2-1.5-2.6-2.5s-0.9-2.2-1.1-3.4c-0.1-1.2-0.2-2.4-0.2-3.6c0-0.9,0.1-2,0.3-3.1
		c0.2-1.1,0.6-2.2,1.1-3.2c0.6-1,1.4-1.8,2.6-2.5c1.1-0.7,2.7-1,4.6-1s3.5,0.3,4.6,0.9c1.2,0.6,2,1.4,2.7,2.3c0.6,0.9,1,2,1.2,3.2
		C135,270.6,135.1,271.8,135.1,273z M130.7,273.3c0-1.1-0.1-2-0.2-2.8c-0.1-0.8-0.3-1.4-0.6-2c-0.3-0.5-0.8-0.9-1.3-1.2
		c-0.5-0.3-1.3-0.4-2.2-0.4c-0.9,0-1.5,0.1-2.1,0.4c-0.5,0.3-1,0.7-1.3,1.2s-0.5,1.2-0.6,2c-0.1,0.8-0.2,1.7-0.2,2.7
		c0,1.1,0.1,2,0.2,2.8c0.1,0.8,0.3,1.4,0.6,2c0.3,0.5,0.7,0.9,1.2,1.2c0.5,0.3,1.2,0.4,2.1,0.4s1.6-0.1,2.2-0.4
		c0.6-0.3,1-0.6,1.3-1.2c0.3-0.5,0.5-1.2,0.6-2C130.6,275.3,130.7,274.3,130.7,273.3z M131.5,254.7c0.4,0.2,0.5,0.5,0.2,0.9
		l-4.1,5.6c-0.2,0.3-0.5,0.4-0.8,0.2l-1.6-0.7c-0.3-0.2-0.4-0.4-0.2-0.8l3.2-6.2c0.2-0.3,0.5-0.4,0.9-0.2L131.5,254.7z"/>
	<path class="st0" d="M155.9,282.9c-0.1,0.1-0.3,0.2-0.6,0.2h-2.9c-0.5,0-0.8-0.3-0.8-0.8v-11.2c0-1.2-0.2-2.1-0.6-2.8
		c-0.4-0.7-1.2-1.1-2.3-1.1c-0.4,0-0.9,0.1-1.4,0.2s-1,0.3-1.6,0.5c-0.5,0.2-1,0.4-1.5,0.6c-0.5,0.2-0.8,0.4-1.1,0.5v13.4
		c0,0.5-0.3,0.8-0.8,0.8h-2.8c-0.5,0-0.8-0.3-0.8-0.8v-18c0-0.5,0.3-0.8,0.8-0.8h2.8c0.5,0,0.8,0.3,0.8,0.8v1.2c0,0,0,0,0.1,0
		c0,0,0,0,0.1,0c0.4-0.3,0.8-0.5,1.3-0.8c0.5-0.3,1.1-0.5,1.7-0.8c0.6-0.2,1.2-0.4,1.8-0.6c0.6-0.1,1.3-0.2,1.9-0.2
		c1.4,0,2.4,0.2,3.2,0.6c0.8,0.4,1.4,1,1.8,1.7c0.4,0.7,0.7,1.5,0.8,2.4s0.2,1.9,0.2,2.9v11.6C156,282.6,156,282.8,155.9,282.9z"/>
	<path class="st0" d="M172.1,257.3c0-0.5,0.3-0.8,0.8-0.8h14.7c0.5,0,0.8,0.3,0.8,0.8v2.5c0,0.5-0.3,0.7-0.8,0.7h-10.9v6.9h9.7
		c0.5,0,0.8,0.2,0.8,0.7v2.5c0,0.5-0.3,0.7-0.8,0.7h-9.7v7.9h11.2c0.5,0,0.7,0.3,0.7,0.8v2.4c0,0.5-0.3,0.7-0.8,0.7h-14.9
		c-0.5,0-0.8-0.2-0.8-0.7V257.3z"/>
	<path class="st0" d="M208.8,283.1H206c-0.3,0-0.5-0.1-0.6-0.2s-0.2-0.3-0.2-0.6v-1.2h-0.1c-0.4,0.3-0.9,0.5-1.4,0.8
		c-0.5,0.3-1.1,0.5-1.7,0.8c-0.6,0.2-1.2,0.4-1.8,0.6c-0.6,0.1-1.2,0.2-1.9,0.2c-1.4,0-2.4-0.2-3.2-0.6c-0.8-0.4-1.4-0.9-1.8-1.6
		s-0.7-1.5-0.8-2.4s-0.2-1.9-0.2-2.9v-11.8c0-0.5,0.3-0.8,0.8-0.8h2.9c0.5,0,0.7,0.3,0.7,0.8v11.2c0,0.6,0,1.2,0.1,1.6
		c0.1,0.5,0.2,0.9,0.4,1.2c0.2,0.3,0.5,0.6,0.9,0.8c0.4,0.2,0.9,0.3,1.5,0.3c0.4,0,0.9-0.1,1.4-0.2s1-0.3,1.5-0.5
		c0.5-0.2,1-0.4,1.4-0.6c0.4-0.2,0.8-0.4,1-0.5v-13.4c0-0.2,0.1-0.4,0.2-0.6c0.1-0.1,0.3-0.2,0.6-0.2h2.8c0.5,0,0.8,0.3,0.8,0.8v18
		C209.5,282.8,209.3,283.1,208.8,283.1z"/>
	<path class="st0" d="M219,282.3c0,0.5-0.3,0.8-0.8,0.8h-2.9c-0.5,0-0.8-0.3-0.8-0.8v-18c0-0.5,0.3-0.8,0.8-0.8h2.9
		c0.5,0,0.8,0.3,0.8,0.8v1.8l0.1,0.1c0.3-0.3,0.7-0.6,1.2-0.9c0.5-0.3,1-0.6,1.5-0.8c0.5-0.3,1.1-0.5,1.7-0.7
		c0.6-0.2,1.1-0.4,1.6-0.4c0.3-0.1,0.5,0,0.6,0c0.2,0.1,0.3,0.3,0.3,0.6l0.3,2.7c0,0.3,0,0.5,0,0.6c-0.1,0.1-0.3,0.2-0.7,0.3
		c-0.6,0.1-1.1,0.2-1.8,0.4c-0.6,0.1-1.2,0.3-1.8,0.5c-0.6,0.2-1.1,0.3-1.6,0.5c-0.5,0.2-0.9,0.3-1.3,0.5v12.8H219z"/>
	<path class="st0" d="M245.3,273c0,1.1-0.1,2.3-0.2,3.6c-0.1,1.2-0.5,2.4-1.1,3.4s-1.5,1.9-2.6,2.5c-1.2,0.7-2.8,1-4.9,1
		c-2,0-3.6-0.3-4.7-1c-1.1-0.7-2-1.5-2.6-2.5s-0.9-2.2-1.1-3.4c-0.1-1.2-0.2-2.4-0.2-3.6c0-0.9,0.1-2,0.3-3.1s0.6-2.2,1.1-3.2
		c0.6-1,1.4-1.8,2.6-2.5c1.2-0.7,2.7-1,4.6-1c1.9,0,3.5,0.3,4.6,0.9c1.2,0.6,2,1.4,2.7,2.3c0.6,0.9,1,2,1.2,3.2
		C245.2,270.6,245.3,271.8,245.3,273z M240.9,273.3c0-1.1-0.1-2-0.2-2.8c-0.1-0.8-0.3-1.4-0.6-2s-0.8-0.9-1.3-1.2
		c-0.6-0.3-1.3-0.4-2.2-0.4s-1.5,0.1-2.1,0.4c-0.5,0.3-1,0.7-1.3,1.2s-0.5,1.2-0.6,2c-0.1,0.8-0.2,1.7-0.2,2.7c0,1.1,0.1,2,0.2,2.8
		c0.1,0.8,0.3,1.4,0.6,2c0.3,0.5,0.7,0.9,1.2,1.2c0.5,0.3,1.2,0.4,2.1,0.4c0.9,0,1.6-0.1,2.2-0.4c0.6-0.3,1-0.6,1.3-1.2
		c0.3-0.6,0.5-1.2,0.6-2C240.7,275.2,240.9,274.3,240.9,273.3z"/>
	<path class="st0" d="M266.6,273.2c0,1.6-0.1,3.1-0.4,4.4c-0.2,1.3-0.7,2.4-1.3,3.2c-0.6,0.9-1.4,1.5-2.4,2s-2.3,0.7-3.9,0.7
		c-0.7,0-1.4-0.1-2.3-0.2c-0.9-0.1-1.8-0.4-2.7-0.7l0,0v7c0,0.2,0,0.4-0.1,0.6c-0.1,0.2-0.3,0.2-0.6,0.2H250c-0.3,0-0.5-0.1-0.6-0.2
		c-0.1-0.1-0.1-0.3-0.1-0.6v-25.4c0-0.5,0.3-0.8,0.8-0.8h2.8c0.3,0,0.5,0.1,0.6,0.2s0.1,0.3,0.1,0.6v1.2l0.1,0.1
		c0.3-0.2,0.8-0.5,1.3-0.8c0.5-0.3,1-0.5,1.6-0.8c0.6-0.2,1.1-0.4,1.7-0.6c0.6-0.2,1.2-0.2,1.8-0.2c1.3,0,2.4,0.2,3.2,0.7
		s1.5,1.2,2,2c0.5,0.9,0.8,1.9,1,3.1C266.5,270.3,266.6,271.7,266.6,273.2z M262,273.1c0-1.3-0.1-2.3-0.2-3.1
		c-0.1-0.8-0.3-1.4-0.6-1.8c-0.3-0.4-0.6-0.7-1-0.9c-0.4-0.1-0.8-0.2-1.4-0.2c-0.4,0-0.9,0.1-1.4,0.2c-0.5,0.1-1,0.3-1.5,0.5
		c-0.5,0.2-1,0.4-1.4,0.6s-0.8,0.4-1.1,0.6v10c0.9,0.3,1.7,0.4,2.5,0.5c0.7,0.1,1.4,0.1,2.1,0.1s1.3-0.1,1.8-0.3
		c0.5-0.2,0.9-0.6,1.2-1.1s0.5-1.2,0.7-2C262,275.4,262,274.4,262,273.1z"/>
	<path class="st0" d="M274.2,274.5c0,1,0.1,1.9,0.3,2.5c0.2,0.7,0.5,1.2,0.9,1.6s0.9,0.7,1.5,0.8c0.6,0.2,1.3,0.2,2.1,0.2
		c0.7,0,1.6-0.1,2.6-0.2c1-0.1,1.9-0.2,2.6-0.3c0.4-0.1,0.6,0,0.8,0c0.1,0.1,0.2,0.3,0.3,0.7l0.2,1.3c0.1,0.3,0,0.5,0,0.7
		c-0.1,0.2-0.3,0.4-0.7,0.5c-0.4,0.2-0.9,0.3-1.4,0.4s-1.1,0.2-1.7,0.3s-1.2,0.1-1.8,0.2c-0.6,0.1-1.1,0.1-1.6,0.1
		c-1.9,0-3.5-0.3-4.6-0.8s-2-1.3-2.6-2.2s-1-2-1.2-3.2c-0.2-1.2-0.3-2.5-0.3-3.8c0-1,0.1-2,0.2-3.2c0.1-1.2,0.5-2.3,1.1-3.4
		c0.6-1.1,1.4-1.9,2.6-2.6c1.1-0.7,2.7-1.1,4.6-1.1c1.8,0,3.2,0.3,4.3,0.8c1.1,0.5,2,1.2,2.6,2.1c0.6,0.8,1,1.8,1.3,2.9
		c0.2,1.1,0.4,2.2,0.4,3.2c0,0.7-0.1,1.3-0.4,1.8s-0.8,0.7-1.6,0.7H274.2z M278.2,266.7c-0.7,0-1.4,0.1-1.8,0.3
		c-0.5,0.2-0.9,0.5-1.2,0.9c-0.3,0.4-0.5,0.9-0.7,1.5c-0.1,0.6-0.2,1.3-0.3,2h7.9c0-0.6-0.1-1.2-0.2-1.8s-0.3-1.1-0.6-1.5
		c-0.3-0.4-0.7-0.8-1.2-1.1C279.7,266.9,279.1,266.7,278.2,266.7z"/>
	<path class="st0" d="M302.8,280.8c-1,0.8-2.2,1.4-3.4,1.9s-2.6,0.7-3.9,0.7c-1.1,0-2-0.1-2.7-0.4c-0.7-0.3-1.3-0.7-1.7-1.2
		c-0.4-0.5-0.7-1.1-0.9-1.8c-0.2-0.7-0.3-1.5-0.3-2.3c0-2.3,0.6-4,1.8-5.1c1.3-1.1,3.1-1.6,5.7-1.6h5.1v-1c0-0.6-0.1-1.1-0.2-1.5
		s-0.3-0.8-0.7-1c-0.3-0.3-0.7-0.5-1.3-0.6c-0.5-0.1-1.2-0.2-2-0.2c-0.3,0-0.7,0-1.2,0s-0.9,0.1-1.4,0.1s-1,0.1-1.5,0.1
		c-0.5,0.1-0.9,0.1-1.3,0.1c-0.4,0.1-0.7,0.1-0.8,0c-0.1,0-0.2-0.2-0.3-0.5l-0.4-1.5c-0.1-0.3,0-0.5,0.1-0.7
		c0.1-0.2,0.4-0.3,0.8-0.5c0.4-0.2,0.9-0.3,1.5-0.4s1.2-0.2,1.8-0.3c0.6-0.1,1.2-0.1,1.8-0.2c0.6,0,1.1-0.1,1.6-0.1
		c1.7,0,3.1,0.2,4.1,0.5c1,0.3,1.8,0.8,2.3,1.5c0.5,0.6,0.9,1.4,1,2.3c0.2,0.9,0.2,1.9,0.2,3v7.7c0,0.4,0,0.7,0.1,0.9
		c0,0.2,0.1,0.4,0.2,0.5s0.2,0.2,0.4,0.3c0.2,0.1,0.4,0.1,0.8,0.1c0.3,0,0.5,0.1,0.6,0.2c0.1,0.1,0.2,0.2,0.2,0.4v1.7
		c0,0.5-0.3,0.7-1,0.8c-0.3,0.1-0.6,0.1-1,0.1s-0.6,0.1-0.9,0.1c-0.9,0-1.7-0.2-2.3-0.5C303.5,282.4,303.1,281.8,302.8,280.8
		L302.8,280.8z M302.6,274.2h-4.9c-1,0-1.8,0.2-2.4,0.7s-0.9,1.4-0.9,2.7c0,0.9,0.2,1.5,0.5,1.8c0.4,0.3,1,0.5,1.9,0.5
		c0.4,0,0.9-0.1,1.4-0.2c0.5-0.1,1-0.3,1.5-0.4c0.5-0.1,1-0.4,1.5-0.6s0.9-0.4,1.3-0.7v-3.8H302.6z"/>
</g>
<g>
	<path class="st1" d="M67.7,167.3c0,0,62.2-8.1,64-8.4c2.7-0.4,5.1-1,7.3-1.6c5-1.4,9.7-3.5,13.8-6.3c3.9-2.7,7.6-6.5,11.2-10.8
		c2.3-2.7,4.7-6.2,7-9.6v-1.7c-2.7,4-5.3,7.5-8,10.5c-3.6,4-7.4,7.4-11.2,9.8c-4,2.6-8.4,4.5-13.3,5.7c-2.2,0.6-4.5,1-7.1,1.4
		c-1.7,0.2-3.5,0.4-5.2,0.6c-0.7,0.1-58.4,6.3-58.4,6.3v4.1H67.7z"/>
	<path class="st1" d="M151.1,156.8c-3.9,2.3-8.4,3.9-13.4,4.9c-2.1,0.4-4.4,0.8-7.1,1.1c-1.6,0.2-3.1,0.3-4.7,0.4
		c-0.8,0.1-1.7,0.1-2.5,0.2c-19.1,1.7-38,3.6-55.8,5.3v4.2c17.9-2.2,37-4.5,56.1-6.7c0.8-0.1,1.7-0.2,2.5-0.3
		c1.6-0.2,3.1-0.3,4.7-0.6c2.7-0.4,5.1-0.8,7.3-1.3c5.2-1.2,9.8-3,13.9-5.5c4-2.4,7.6-5.8,11.4-10c2.4-2.6,5-6.3,7.5-9.7v-1.4
		c-2.9,4-5.7,7.3-8.4,10.2C158.8,151.5,155,154.6,151.1,156.8"/>
	<path class="st1" d="M162,155.8c-3.8,3.5-7.8,6.3-11.8,8.2c-3.9,1.9-8.3,3.3-13.5,4.1c-2.1,0.4-4.4,0.6-7,0.9l-62.1,5.2v4.1
		l55.2-5.9l7.1-0.8c2.7-0.3,5-0.7,7.2-1.1c5.3-1,9.9-2.5,13.9-4.6c4.1-2.1,8.3-5.6,12.1-9.4c2.6-2.5,5.1-5.7,7.7-9.1V146
		C167.9,149.9,164.9,153.1,162,155.8"/>
	<path class="st1" d="M147,176.9c-3.6,2-6.3,3.2-11.5,3.8c-3.1,0.3-6.3,0.5-9.4,0.7c-1.5,0.1-3,0.2-4.5,0.2
		c-9.4,0.5-18.6,1.1-28,1.8l-25.9,1.8v4.1l26.2-2.4c8.5-0.8,18.3-1.7,27.9-2.4l7-0.5c2.7-0.2,5-0.4,7-0.7c5.3-0.7,9.8-1.8,13.9-3.3
		c4.3-1.6,8.4-4.2,12.5-7.2c3.7-2.7,8.8-8,8.8-8.1v-1.4c-3.3,3.3-5.3,5.1-8.9,7.6C157.7,173.6,150.2,175.1,147,176.9"/>
	<path class="st1" d="M148.3,184.7c-3.9,1.2-8.3,1.9-13.5,2.4c-2.1,0.2-4.3,0.3-6.9,0.4l-6.9,0.3c-17.3,0.8-34.4,1.7-53.4,2.7v4.1
		c18.1-1.4,35.8-2.8,53.5-4.1l6.9-0.5c2.7-0.2,4.9-0.4,7-0.6c5.3-0.6,9.8-1.5,13.8-2.8c4.4-1.4,8.8-3.5,12.9-6.1
		c3-1.9,6.1-4.3,9.2-7v-0.1c-3.5,3-6.8,3.6-10,5.7C156.9,181.5,152.6,183.4,148.3,184.7"/>
	<path class="st1" d="M147.7,191.4c-3.9,0.9-8.2,1.5-13.5,1.9c-2,0.1-4.2,0.2-6.8,0.3l-6.9,0.2c-17.3,0.7-34.9,1.4-52.9,2.2v4.1
		c17.8-1.2,35.3-2.4,53-3.5l6.9-0.4c2.7-0.2,4.9-0.3,6.9-0.5c5.3-0.5,9.7-1.2,13.7-2.3c4.5-1.2,8.9-2.9,13.1-5.1
		c3.2-1.7,6.4-3.8,9.7-6.3v-1.7c-3.6,2.6-7,4.8-10.5,6.5C156.4,188.8,152.1,190.4,147.7,191.4"/>
	<path class="st1" d="M147.1,198c-4,0.7-8.2,1.2-13.4,1.5c-2,0.1-4,0.2-6.8,0.2l-59.2,1.6v4.1l52.5-2.8l6.8-0.3
		c2.7-0.1,4.8-0.3,6.8-0.4c5.3-0.4,9.6-1,13.6-1.8c4.6-1,9-2.4,13.2-4.2c3.4-1.4,6.8-3.2,10.3-5.4v-1.6c-3.8,2.2-7.3,4-10.9,5.4
		C155.9,196,151.6,197.2,147.1,198"/>
	<path class="st1" d="M146.6,204.7c-7.3,1-14.8,1.1-22,1.2c-1.7,0-3.3,0-5,0.1l-52,0.9v4.1l52.1-2.3c1.7-0.1,3.3-0.1,5-0.2
		c7.3-0.3,14.8-0.6,22.2-1.8c4.7-0.7,9.2-1.8,13.3-3.3c3.5-1.2,7.1-2.7,10.7-4.5v-1.6c-3.8,1.8-7.6,3.3-11.2,4.4
		C155.6,203.1,151.2,204.1,146.6,204.7"/>
	<path class="st1" d="M146.2,211.4c-6.8,0.6-13.8,0.6-20.5,0.6c-2.1,0-4.2,0-6.3,0c-17.2,0.1-34.3,0.2-51.7,0.4v4.1
		c16.6-0.6,34.2-1.2,51.8-1.7c2.1-0.1,4.2-0.1,6.3-0.2c6.8-0.2,13.8-0.4,20.7-1.1c4.8-0.5,9.2-1.3,13.4-2.3
		c3.7-0.9,7.4-2.1,11.2-3.6v-1.5c-3.9,1.4-7.8,2.6-11.5,3.4C155.2,210.3,150.9,211,146.2,211.4"/>
	<path class="st1" d="M145.9,218c-2.8,0.1-5.9,0.2-9.4,0.2c-1.3,0-2.6,0-3.9,0l-13.4-0.3c-9.1,0-18.3,0-26.8,0H67.7v4l24.8-0.7
		c8.5-0.2,17.7-0.4,26.8-0.6l13.4-0.2c3.7-0.1,8.5-0.2,13.4-0.5c4.8-0.3,9.2-0.8,13.4-1.5c3.8-0.6,7.6-1.4,11.5-2.4v-1.4
		c-4,0.9-7.9,1.7-11.7,2.2C155,217.4,150.7,217.8,145.9,218"/>
	<path class="st1" d="M132.4,224.3l-13.4-0.1c-17-0.3-34-0.6-51.3-0.9v4.1c16.6-0.1,34.1-0.2,51.4-0.4l13.4-0.2
		c4.5-0.1,8.9-0.2,13.4-0.3c9.2-0.3,17.4-1,25.1-2v-1.4c-7.7,0.8-16,1.3-25.1,1.3C141.3,224.4,136.9,224.4,132.4,224.3"/>
	<polygon class="st1" points="170.9,231.5 67.7,228.9 67.7,232.9 170.9,232.9 	"/>
	<path class="st1" d="M161.6,163.4c-3.9,3.2-7,5.5-11.8,7.4c-4.2,1.7-8.7,2.4-13.8,3.1c-3.3,0.5-6.8,1.2-10.1,1.4
		c-1.4,0.1-2.7,0.2-4.1,0.3l-54.3,4v4.1l54.5-5.3l7.1-0.7c2.6-0.3,4.9-0.5,7.1-0.9c5.3-0.9,9.8-2.2,13.9-4c4.2-1.9,8.5-5,12.5-8.4
		c2.7-2.3,5.3-5.2,8.2-8.4v-1.5C167.5,158.1,164.7,161,161.6,163.4"/>
	<path class="st1" d="M214.9,128.9c0,0,18.6,29.7,22,35.2c3.4,5.4,7.3,9.8,21,12.7c13.8,2.9,19.7,4.3,19.7,4.3v1.1
		c0,0-8.7-1.9-20-4.4c-11.2-2.5-15.8-3.4-21-10.5c-4.3-6-21.8-31.3-21.8-31.3L214.9,128.9L214.9,128.9z"/>
	<path class="st1" d="M214.9,162.8c0,0,16.9,17.8,21.8,22.9c5.2,5.4,11.8,7.4,21.1,9.1c8.8,1.6,19.9,3.4,19.9,3.4v1
		c0,0-10.4-1.7-19.9-3.3c-9.3-1.6-15.8-2.5-21.1-7.4c-4.8-4.4-21.8-20.4-21.8-20.4L214.9,162.8L214.9,162.8z"/>
	<path class="st1" d="M214.9,170.8c0,0,16.1,15,21.8,20.1c5.3,4.7,9.5,6.2,21.1,8.2c11.6,2.1,19.8,3.3,19.8,3.3v1.1
		c0,0-10.5-1.7-19.9-3.2s-15.4-2.1-21.1-6.7c-6.5-5.3-21.8-17.9-21.8-17.9L214.9,170.8L214.9,170.8z"/>
	<path class="st1" d="M214.9,179.4c0,0,18.4,14.6,21.8,17.2c3.4,2.6,8,5.5,21.2,7.5c13.1,1.9,19.8,2.8,19.8,2.8v1.1
		c0,0-11.9-1.7-19.8-2.7c-7.9-1-14-1.4-21.1-6.2c-6.9-4.6-21.9-15.2-21.9-15.2L214.9,179.4L214.9,179.4z"/>
	<path class="st1" d="M214.9,187.6c0,0,18.4,12.3,21.9,14.3c3.5,1.9,7.6,5.1,21.1,6.8s19.8,2.5,19.8,2.5v1.1c0,0-11.1-1.2-19.8-2.2
		c-8.7-0.9-14.6-2.2-21.1-5.8S215,191.7,215,191.7L214.9,187.6L214.9,187.6z"/>
	<path class="st1" d="M214.9,195.8c0,0,16.3,8.9,21.8,11.7c6.2,3.1,11.5,4.6,21.1,5.7c9.5,1.1,19.8,2.2,19.8,2.2v1c0,0-9.6-1-19.8-2
		c-10.2-1-13.8-1.4-21.1-4.7c-6.6-2.9-21.8-10.1-21.8-10.1V195.8z"/>
	<path class="st1" d="M214.9,204.1c0,0,12.9,5.5,21.9,9.1c8.9,3.5,15.7,3.8,21.1,4.5c2.4,0.3,19.7,2.1,19.7,2.1v1
		c0,0-10.4-0.8-19.8-1.7c-9.4-0.8-13.5-1.2-21.1-3.7c-7.7-2.6-21.9-7.5-21.9-7.5L214.9,204.1L214.9,204.1z"/>
	<path class="st1" d="M214.9,212.6c0,0,13,4,21.9,6.4c8.9,2.3,17,3.3,21.1,3.6c4.1,0.3,19.8,1.6,19.8,1.6v0.9c0,0-8.9-0.6-19.8-1.4
		c-8.8-0.6-15.9-1.3-21.1-2.4c-5.8-1.3-21.8-5.1-21.8-5.1L214.9,212.6L214.9,212.6z"/>
	<path class="st1" d="M214.9,221c0,0,10.6,1.8,21.9,3.7c8.4,1.4,19.8,2.3,21.1,2.3c1.2,0.1,19.8,1.3,19.8,1.3v1
		c0,0-11.9-0.6-19.8-1.1c-8.3-0.5-16.5-1-21.1-1.4c-10.4-1.1-21.8-2.5-21.8-2.5L214.9,221L214.9,221z"/>
	<path class="st1" d="M214.9,229.6c0,0,16.8,0.6,21.9,0.7c5.1,0.1,40.9,1.6,40.9,1.6v1h-62.8L214.9,229.6L214.9,229.6z"/>
	<path class="st1" d="M257.8,181.3c-15.2-3.3-18.6-8.9-21.2-12.3c-2.5-3.5-21.8-31.6-21.8-31.6v6.4c0.8,1,17.2,22.6,21.8,28.5
		c5.2,6.7,13.4,8.2,21.1,9.9c7.8,1.7,19.8,4,19.8,4v-0.9C277.7,185.3,261.7,182.2,257.8,181.3"/>
	<path class="st1" d="M257.8,185.8c-12.5-2.4-17.5-6.4-21.2-11.2c-3.6-4.8-21.7-28.7-21.7-28.7v6c0.8,0.9,17.3,20.6,21.8,25.7
		c5.2,6,12.4,7.5,21.2,9.1c8.8,1.6,19.8,3.7,19.8,3.7v-0.9C277.6,189.6,265,187.2,257.8,185.8"/>
	<path class="st1" d="M257.8,190.4c-13-2.5-15.6-4.6-21.1-10.6c-3.4-3.8-21.1-24.7-21.8-25.5v5.6c0,0,16.5,17.6,21.8,22.8
		c6.9,6.8,13.5,7.3,21.2,8.7c7.7,1.4,19.8,3.6,19.8,3.6v-0.9C277.6,194,263,191.4,257.8,190.4"/>
	<rect x="110.6" y="172.2" class="st2" width="90.5" height="60.7"/>
	<polygon class="st3" points="156.8,180.8 160,180.8 157.4,182.8 158.4,185.9 155.9,184 153.4,185.9 154.3,182.8 151.8,180.8 
		154.9,180.8 155.9,177.7 	"/>
	<polygon class="st3" points="156.9,221.3 160.1,221.3 157.5,223.2 158.5,226.2 156,224.4 153.5,226.2 154.5,223.2 151.9,221.3 
		155,221.3 156,218.3 	"/>
	<polygon class="st3" points="166.9,218.6 170.1,218.6 167.5,220.5 168.5,223.6 166,221.7 163.5,223.6 164.4,220.5 161.9,218.6 
		165,218.6 166,215.7 	"/>
	<polygon class="st3" points="166.9,183.5 170.1,183.5 167.5,185.4 168.5,188.4 166,186.6 163.5,188.4 164.4,185.4 161.9,183.5 
		165,183.5 166,180.5 	"/>
	<polygon class="st3" points="174.3,190.9 177.5,190.9 174.9,192.8 175.9,195.9 173.4,194 170.9,195.9 171.9,192.8 169.3,190.9 
		172.4,190.9 173.4,188 	"/>
	<polygon class="st3" points="174.3,211.3 177.5,211.3 174.9,213.2 175.9,216.2 173.4,214.4 170.9,216.2 171.9,213.2 169.3,211.3 
		172.4,211.3 173.4,208.3 	"/>
	<polygon class="st3" points="177.1,201 180.2,201 177.7,202.9 178.7,205.9 176.2,204 173.6,205.9 174.6,202.9 172.1,201 175.2,201 
		176.2,198 	"/>
	<polygon class="st3" points="146.6,183.5 149.8,183.5 147.2,185.4 148.2,188.5 145.7,186.6 143.2,188.5 144.2,185.4 141.6,183.5 
		144.7,183.5 145.7,180.6 	"/>
	<polygon class="st3" points="139.4,191 142.6,191 140,192.9 141,195.9 138.5,194 136,195.9 137,192.9 134.4,191 137.5,191 
		138.5,188 	"/>
	<polygon class="st3" points="136.7,201 139.9,201 137.4,202.9 138.3,205.9 135.8,204.1 133.3,205.9 134.3,202.9 131.7,201 
		134.9,201 135.8,198 	"/>
	<polygon class="st3" points="139.4,211.3 142.6,211.3 140,213.2 141,216.3 138.5,214.4 136,216.3 137,213.2 134.4,211.3 
		137.5,211.3 138.5,208.4 	"/>
	<polygon class="st3" points="146.7,218.6 149.9,218.6 147.3,220.6 148.3,223.6 145.8,221.7 143.3,223.6 144.3,220.6 141.7,218.6 
		144.9,218.6 145.8,215.7 	"/>
</g>
</svg>
