<?xml version="1.0" encoding="utf-8"?>
<!-- Generator: Adobe Illustrator 19.1.0, SVG Export Plug-In . SVG Version: 6.00 Build 0)  -->
<!DOCTYPE svg PUBLIC "-//W3C//DTD SVG 1.1//EN" "http://www.w3.org/Graphics/SVG/1.1/DTD/svg11.dtd">
<svg version="1.1" id="Layer_1" xmlns="http://www.w3.org/2000/svg" xmlns:xlink="http://www.w3.org/1999/xlink" x="0px" y="0px"
	 viewBox="-72 338.9 450 164" style="enable-background:new -72 338.9 450 164;" xml:space="preserve">
<style type="text/css">
	.st0{fill:#404040;}
	.st1{fill:#BCBEC0;}
	.st2{fill:#0D4F9E;}
	.st3{fill:#FAEA27;}
</style>
<g>
	<g>
		<path class="st0" d="M10.6,467.3c0-0.5,0.3-0.8,0.8-0.8h14.7c0.5,0,0.8,0.3,0.8,0.8v2.5c0,0.5-0.3,0.7-0.8,0.7H15.2v6.9h9.7
			c0.5,0,0.8,0.2,0.8,0.7v2.5c0,0.5-0.3,0.7-0.8,0.7h-9.7v7.9h11.2c0.5,0,0.7,0.3,0.7,0.8v2.4c0,0.5-0.3,0.7-0.8,0.7H11.4
			c-0.5,0-0.8-0.2-0.8-0.7V467.3z"/>
		<path class="st0" d="M39,488.2c0-0.1,0.1-0.4,0.2-0.9c0.2-0.5,0.3-1,0.5-1.6c0.2-0.7,0.5-1.5,0.8-2.3l3.2-9.3
			c0.1-0.2,0.2-0.4,0.3-0.5c0.1-0.1,0.3-0.2,0.6-0.2h3c0.5,0,0.7,0.3,0.5,0.8l-6.8,18c-0.1,0.3-0.2,0.5-0.4,0.6
			c-0.2,0.1-0.4,0.2-0.7,0.2h-2.6c-0.4,0-0.6-0.1-0.8-0.2c-0.1-0.1-0.3-0.3-0.4-0.6l-6.8-18c-0.1-0.2-0.1-0.4,0-0.6s0.2-0.2,0.5-0.2
			h3.2c0.3,0,0.5,0,0.6,0.1s0.2,0.3,0.3,0.6l3.2,9.4c0.2,0.8,0.5,1.5,0.7,2.2c0.2,0.6,0.4,1.1,0.5,1.6S38.8,488.1,39,488.2L39,488.2
			z"/>
		<path class="st0" d="M56.2,492.3c0,0.5-0.3,0.8-0.8,0.8h-2.9c-0.5,0-0.8-0.3-0.8-0.8v-18c0-0.5,0.3-0.8,0.8-0.8h2.9
			c0.5,0,0.8,0.3,0.8,0.8v1.8l0.1,0.1c0.3-0.3,0.7-0.6,1.2-0.9s1-0.6,1.5-0.8c0.5-0.3,1.1-0.5,1.7-0.7s1.1-0.4,1.6-0.4
			c0.3-0.1,0.5,0,0.6,0c0.2,0.1,0.3,0.3,0.3,0.6l0.3,2.7c0,0.3,0,0.5,0,0.6c-0.1,0.1-0.3,0.2-0.7,0.3c-0.6,0.1-1.1,0.2-1.8,0.4
			c-0.6,0.1-1.2,0.3-1.8,0.5c-0.6,0.2-1.1,0.3-1.6,0.5s-0.9,0.3-1.3,0.5L56.2,492.3L56.2,492.3z"/>
		<path class="st0" d="M82.5,483c0,1.1-0.1,2.3-0.2,3.6c-0.1,1.2-0.5,2.4-1.1,3.4s-1.5,1.9-2.6,2.5c-1.2,0.7-2.8,1-4.9,1
			c-2,0-3.6-0.3-4.7-1s-2-1.5-2.6-2.5s-0.9-2.2-1.1-3.4c-0.1-1.2-0.2-2.4-0.2-3.6c0-0.9,0.1-2,0.3-3.1c0.2-1.1,0.6-2.2,1.1-3.2
			c0.6-1,1.4-1.8,2.6-2.5c1.1-0.7,2.7-1,4.6-1s3.5,0.3,4.6,0.9c1.2,0.6,2,1.4,2.7,2.3c0.6,0.9,1,2,1.2,3.2
			C82.4,480.6,82.5,481.8,82.5,483z M78.1,483.3c0-1.1-0.1-2-0.2-2.8s-0.3-1.4-0.6-2c-0.3-0.5-0.8-0.9-1.3-1.2
			c-0.5-0.3-1.3-0.4-2.2-0.4c-0.9,0-1.5,0.1-2.1,0.4c-0.5,0.3-1,0.7-1.3,1.2s-0.5,1.2-0.6,2s-0.2,1.7-0.2,2.7c0,1.1,0.1,2,0.2,2.8
			s0.3,1.4,0.6,2c0.3,0.5,0.7,0.9,1.2,1.2c0.5,0.3,1.2,0.4,2.1,0.4s1.6-0.1,2.2-0.4s1-0.6,1.3-1.2c0.3-0.5,0.5-1.2,0.6-2
			C78,485.3,78.1,484.3,78.1,483.3z"/>
		<path class="st0" d="M103.8,483.2c0,1.6-0.1,3.1-0.4,4.4c-0.2,1.3-0.7,2.4-1.3,3.2c-0.6,0.9-1.4,1.5-2.4,2s-2.3,0.7-3.9,0.7
			c-0.7,0-1.4-0.1-2.3-0.2s-1.8-0.4-2.7-0.7l0,0v7c0,0.2,0,0.4-0.1,0.6s-0.3,0.2-0.6,0.2h-2.8c-0.3,0-0.5-0.1-0.6-0.2
			s-0.1-0.3-0.1-0.6v-25.4c0-0.5,0.3-0.8,0.8-0.8h2.8c0.3,0,0.5,0.1,0.6,0.2s0.1,0.3,0.1,0.6v1.2l0.1,0.1c0.3-0.2,0.8-0.5,1.3-0.8
			s1-0.5,1.6-0.8c0.6-0.2,1.1-0.4,1.7-0.6s1.2-0.2,1.8-0.2c1.3,0,2.4,0.2,3.2,0.7c0.9,0.5,1.5,1.2,2,2c0.5,0.9,0.8,1.9,1,3.1
			C103.7,480.3,103.8,481.7,103.8,483.2z M99.2,483.1c0-1.3-0.1-2.3-0.2-3.1c-0.1-0.8-0.3-1.4-0.6-1.8c-0.3-0.4-0.6-0.7-1-0.9
			c-0.4-0.1-0.8-0.2-1.4-0.2c-0.4,0-0.9,0.1-1.4,0.2s-1,0.3-1.5,0.5s-1,0.4-1.4,0.6s-0.8,0.4-1.1,0.6v10c0.9,0.3,1.7,0.4,2.5,0.5
			c0.7,0.1,1.4,0.1,2.1,0.1s1.3-0.1,1.8-0.3c0.5-0.2,0.9-0.6,1.2-1.1c0.3-0.5,0.5-1.2,0.7-2C99.2,485.4,99.2,484.4,99.2,483.1z"/>
		<path class="st0" d="M122,487.2c0,1.2-0.2,2.2-0.7,2.9c-0.5,0.8-1.1,1.4-1.8,1.9c-0.8,0.5-1.6,0.8-2.6,1s-2,0.3-3,0.3
			s-2.1-0.1-3.3-0.2c-1.2-0.1-2.1-0.4-2.9-0.7c-0.4-0.2-0.7-0.3-0.8-0.5s-0.1-0.5-0.1-0.8l0.3-1.3c0.1-0.3,0.2-0.5,0.3-0.6
			c0.2-0.1,0.4-0.1,0.7,0c0.4,0.1,0.9,0.1,1.4,0.2s1,0.1,1.6,0.1c0.6,0,1,0.1,1.5,0.1s0.9,0,1.2,0c1.3,0,2.2-0.2,2.8-0.5
			c0.6-0.4,0.8-0.9,0.8-1.7c0-0.5,0-0.8-0.1-1.1c-0.1-0.3-0.3-0.5-0.5-0.7s-0.6-0.3-1-0.5c-0.4-0.1-0.9-0.2-1.6-0.3
			c-1-0.1-1.9-0.3-2.8-0.5c-0.9-0.2-1.7-0.5-2.3-0.9c-0.7-0.4-1.2-1-1.6-1.6c-0.4-0.7-0.6-1.6-0.6-2.7c0-2,0.7-3.5,2.1-4.5
			s3.2-1.5,5.4-1.5c0.4,0,0.9,0,1.4,0s1.1,0.1,1.6,0.2s1.1,0.2,1.6,0.3s1,0.2,1.4,0.4c0.7,0.3,0.9,0.7,0.8,1.2l-0.3,1.4
			c-0.1,0.3-0.2,0.5-0.3,0.5c-0.1,0.1-0.4,0.1-0.8,0c-0.9-0.1-1.8-0.2-2.8-0.3s-1.9-0.1-2.6-0.1c-1.3,0-2.1,0.2-2.5,0.5
			c-0.4,0.4-0.6,0.9-0.6,1.7c0,0.8,0.3,1.3,0.8,1.5s1.4,0.5,2.6,0.6c1,0.1,1.9,0.3,2.7,0.5c0.9,0.2,1.6,0.5,2.3,1
			c0.7,0.4,1.2,1,1.6,1.7C121.8,485.1,122,486,122,487.2z"/>
		<path class="st0" d="M130.1,480.7l3.1-3.2l3.3-3.4c0.2-0.2,0.4-0.4,0.6-0.5c0.2-0.1,0.5-0.2,0.8-0.2h3.2c0.4,0,0.6,0.1,0.7,0.3
			c0.1,0.2,0,0.4-0.2,0.6l-6.4,6.5l7.2,11.3c0.1,0.2,0.2,0.5,0.1,0.6c-0.1,0.2-0.3,0.3-0.6,0.3h-3.1c-0.4,0-0.7-0.1-0.9-0.2
			s-0.3-0.3-0.5-0.6l-5.1-8.2l-2.3,2.3v5.9c0,0.2-0.1,0.4-0.2,0.5s-0.3,0.2-0.6,0.2h-2.8c-0.5,0-0.8-0.3-0.8-0.8v-26.7
			c0-0.5,0.3-0.8,0.8-0.8h2.8c0.3,0,0.5,0.1,0.6,0.2c0.1,0.1,0.2,0.3,0.2,0.6v15L130.1,480.7z"/>
		<path class="st0" d="M157.4,490.8c-1,0.8-2.2,1.4-3.4,1.9c-1.3,0.5-2.6,0.7-3.9,0.7c-1.1,0-2-0.1-2.7-0.4
			c-0.7-0.3-1.3-0.7-1.7-1.2c-0.4-0.5-0.7-1.1-0.9-1.8c-0.2-0.7-0.3-1.5-0.3-2.3c0-2.3,0.6-4,1.8-5.1c1.3-1.1,3.1-1.6,5.7-1.6h5.1
			v-1c0-0.6-0.1-1.1-0.2-1.5c-0.1-0.4-0.3-0.8-0.7-1c-0.3-0.3-0.7-0.5-1.3-0.6c-0.5-0.1-1.2-0.2-2-0.2c-0.3,0-0.7,0-1.2,0
			s-0.9,0.1-1.4,0.1s-1,0.1-1.5,0.1c-0.5,0.1-0.9,0.1-1.3,0.1c-0.4,0.1-0.7,0.1-0.8,0c-0.1,0-0.2-0.2-0.3-0.5L146,475
			c-0.1-0.3,0-0.5,0.1-0.7c0.1-0.2,0.4-0.3,0.8-0.5s0.9-0.3,1.5-0.4s1.2-0.2,1.8-0.3c0.6-0.1,1.2-0.1,1.8-0.2c0.6,0,1.1-0.1,1.6-0.1
			c1.7,0,3.1,0.2,4.1,0.5s1.8,0.8,2.3,1.5c0.5,0.6,0.9,1.4,1,2.3c0.2,0.9,0.2,1.9,0.2,3v7.7c0,0.4,0,0.7,0.1,0.9
			c0,0.2,0.1,0.4,0.2,0.5c0.1,0.1,0.2,0.2,0.4,0.3s0.4,0.1,0.8,0.1c0.3,0,0.5,0.1,0.6,0.2c0.1,0.1,0.2,0.2,0.2,0.4v1.7
			c0,0.5-0.3,0.7-1,0.8c-0.3,0.1-0.6,0.1-1,0.1c-0.4,0-0.6,0.1-0.9,0.1c-0.9,0-1.7-0.2-2.3-0.5C157.9,492.4,157.7,491.8,157.4,490.8
			L157.4,490.8z M157.1,484.2h-4.9c-1,0-1.8,0.2-2.4,0.7c-0.6,0.5-0.9,1.4-0.9,2.7c0,0.9,0.2,1.5,0.5,1.8c0.4,0.3,1,0.5,1.9,0.5
			c0.4,0,0.9-0.1,1.4-0.2s1-0.3,1.5-0.4c0.5-0.2,1-0.4,1.5-0.6s0.9-0.4,1.3-0.7L157.1,484.2L157.1,484.2z M158.9,464.7
			c0.4,0.2,0.5,0.5,0.2,0.9l-4.1,5.6c-0.2,0.3-0.5,0.4-0.8,0.2l-1.6-0.7c-0.3-0.2-0.4-0.4-0.2-0.8l3.2-6.2c0.2-0.3,0.5-0.4,0.9-0.2
			L158.9,464.7z"/>
		<path class="st0" d="M182.4,480.7l3.1-3.2l3.3-3.4c0.2-0.2,0.4-0.4,0.6-0.5c0.2-0.1,0.5-0.2,0.8-0.2h3.2c0.4,0,0.6,0.1,0.7,0.3
			c0.1,0.2,0,0.4-0.2,0.6l-6.4,6.5l7.2,11.3c0.1,0.2,0.2,0.5,0.1,0.6c-0.1,0.2-0.3,0.3-0.6,0.3h-3.1c-0.4,0-0.7-0.1-0.9-0.2
			c-0.2-0.1-0.3-0.3-0.5-0.6l-5.1-8.2l-2.3,2.3v5.9c0,0.2-0.1,0.4-0.2,0.5c-0.1,0.1-0.3,0.2-0.6,0.2h-2.8c-0.5,0-0.8-0.3-0.8-0.8
			v-26.7c0-0.5,0.3-0.8,0.8-0.8h2.8c0.3,0,0.5,0.1,0.6,0.2c0.1,0.1,0.2,0.3,0.2,0.6v15L182.4,480.7z"/>
		<path class="st0" d="M213.6,483c0,1.1-0.1,2.3-0.2,3.6c-0.1,1.2-0.5,2.4-1.1,3.4c-0.6,1-1.5,1.9-2.6,2.5c-1.2,0.7-2.8,1-4.9,1
			c-2,0-3.6-0.3-4.7-1c-1.1-0.7-2-1.5-2.6-2.5c-0.6-1-0.9-2.2-1.1-3.4c-0.1-1.2-0.2-2.4-0.2-3.6c0-0.9,0.1-2,0.3-3.1
			s0.6-2.2,1.1-3.2c0.6-1,1.4-1.8,2.6-2.5c1.1-0.7,2.7-1,4.6-1c1.9,0,3.5,0.3,4.6,0.9c1.2,0.6,2,1.4,2.7,2.3c0.6,0.9,1,2,1.2,3.2
			C213.6,480.6,213.6,481.8,213.6,483z M209.3,483.3c0-1.1-0.1-2-0.2-2.8c-0.1-0.8-0.3-1.4-0.6-2c-0.3-0.6-0.8-0.9-1.3-1.2
			c-0.5-0.3-1.3-0.4-2.2-0.4c-0.9,0-1.5,0.1-2.1,0.4c-0.5,0.3-1,0.7-1.3,1.2s-0.5,1.2-0.6,2c-0.1,0.8-0.2,1.7-0.2,2.7
			c0,1.1,0.1,2,0.2,2.8c0.1,0.8,0.3,1.4,0.6,2c0.3,0.5,0.7,0.9,1.2,1.2c0.5,0.3,1.2,0.4,2.1,0.4s1.6-0.1,2.2-0.4
			c0.6-0.3,1-0.6,1.3-1.2s0.5-1.2,0.6-2C209.1,485.2,209.3,484.3,209.3,483.3z"/>
		<path class="st0" d="M246.1,492.9c-0.1,0.1-0.3,0.2-0.6,0.2h-2.9c-0.5,0-0.8-0.3-0.8-0.8v-11.4c0-1.5-0.2-2.5-0.6-3
			s-1.1-0.8-2.1-0.8c-0.4,0-0.8,0.1-1.3,0.2s-0.9,0.3-1.4,0.5s-0.9,0.4-1.3,0.6s-0.8,0.4-1.1,0.6c0,0.2,0,0.5,0,0.8s0,0.7,0,1.2
			v11.3c0,0.2-0.1,0.4-0.2,0.6c-0.1,0.1-0.3,0.2-0.6,0.2h-2.9c-0.5,0-0.7-0.3-0.7-0.8v-11.6c0-1.2-0.2-2.1-0.6-2.7
			c-0.4-0.6-1.1-0.9-2.1-0.9c-0.3,0-0.7,0.1-1.2,0.2s-0.9,0.3-1.4,0.4s-0.9,0.4-1.4,0.6s-0.9,0.4-1.2,0.6v13.4
			c0,0.5-0.3,0.8-0.8,0.8h-2.9c-0.5,0-0.7-0.3-0.7-0.8v-18c0-0.5,0.2-0.8,0.7-0.8h2.8c0.5,0,0.8,0.3,0.8,0.8v1.2l0,0
			c0.4-0.3,0.8-0.5,1.3-0.8s0.9-0.5,1.5-0.7c0.5-0.2,1-0.4,1.6-0.5c0.5-0.1,1.1-0.2,1.6-0.3c1.1,0,2.2,0.2,3.1,0.5
			c0.9,0.4,1.7,1.1,2.3,2.3c1-0.7,2.1-1.4,3.3-2c1.2-0.6,2.4-0.8,3.7-0.8c1.3,0,2.3,0.2,3.1,0.6c0.8,0.4,1.4,0.9,1.8,1.6
			s0.7,1.5,0.8,2.4s0.2,1.9,0.2,2.8v11.8C246.3,492.6,246.3,492.8,246.1,492.9z"/>
		<path class="st0" d="M255.8,468.3c0,0.3,0,0.6-0.1,0.9c-0.1,0.3-0.2,0.5-0.3,0.7c-0.2,0.2-0.4,0.4-0.7,0.5
			c-0.3,0.1-0.7,0.2-1.2,0.2s-1-0.1-1.3-0.2c-0.3-0.1-0.5-0.3-0.7-0.5c-0.2-0.2-0.3-0.5-0.3-0.7c-0.1-0.3-0.1-0.6-0.1-0.9
			c0-0.6,0.2-1.2,0.5-1.6s0.9-0.7,1.9-0.7s1.6,0.2,1.9,0.6C255.6,467.1,255.8,467.6,255.8,468.3z M255.6,492.3c0,0.2,0,0.4-0.1,0.5
			c-0.1,0.1-0.3,0.2-0.6,0.2h-2.8c-0.5,0-0.8-0.3-0.8-0.8v-18.1c0-0.5,0.3-0.8,0.8-0.8h2.8c0.3,0,0.5,0.1,0.6,0.2
			c0.1,0.1,0.1,0.3,0.1,0.5V492.3z"/>
		<path class="st0" d="M275.1,487.2c0,1.2-0.2,2.2-0.7,2.9c-0.5,0.8-1.1,1.4-1.8,1.9c-0.7,0.5-1.6,0.8-2.6,1s-2,0.3-3,0.3
			s-2.1-0.1-3.3-0.2s-2.1-0.4-2.9-0.7c-0.4-0.2-0.7-0.3-0.8-0.5c-0.1-0.2-0.1-0.5-0.1-0.8l0.3-1.3c0.1-0.3,0.2-0.5,0.3-0.6
			c0.2-0.1,0.4-0.1,0.7,0c0.4,0.1,0.9,0.1,1.4,0.2s1,0.1,1.6,0.1c0.5,0,1,0.1,1.5,0.1s0.9,0,1.2,0c1.3,0,2.2-0.2,2.8-0.5
			c0.6-0.4,0.8-0.9,0.8-1.7c0-0.5,0-0.8-0.1-1.1c-0.1-0.3-0.3-0.5-0.5-0.7c-0.2-0.2-0.6-0.3-1-0.5c-0.4-0.1-0.9-0.2-1.6-0.3
			c-1-0.1-1.9-0.3-2.8-0.5c-0.9-0.2-1.7-0.5-2.3-0.9c-0.7-0.4-1.2-1-1.6-1.6c-0.4-0.7-0.6-1.6-0.6-2.7c0-2,0.7-3.5,2.1-4.5
			s3.2-1.5,5.4-1.5c0.4,0,0.9,0,1.4,0s1.1,0.1,1.6,0.2s1.1,0.2,1.6,0.3s1,0.2,1.4,0.4c0.7,0.3,0.9,0.7,0.8,1.2l-0.3,1.4
			c-0.1,0.3-0.2,0.5-0.3,0.5c-0.1,0.1-0.4,0.1-0.8,0c-0.9-0.1-1.8-0.2-2.8-0.3s-1.9-0.1-2.6-0.1c-1.3,0-2.1,0.2-2.5,0.5
			c-0.4,0.4-0.6,0.9-0.6,1.7c0,0.8,0.3,1.3,0.8,1.5s1.4,0.5,2.6,0.6c1,0.1,1.9,0.3,2.7,0.5c0.9,0.2,1.6,0.5,2.3,1
			c0.7,0.4,1.2,1,1.6,1.7C275,485.1,275.1,486,275.1,487.2z"/>
		<path class="st0" d="M283,484.5c0,1,0.1,1.9,0.3,2.5c0.2,0.7,0.5,1.2,0.9,1.6c0.4,0.4,0.9,0.7,1.5,0.8c0.6,0.2,1.3,0.2,2.1,0.2
			c0.7,0,1.6-0.1,2.6-0.2s1.9-0.2,2.6-0.3c0.4-0.1,0.6,0,0.8,0c0.1,0.1,0.2,0.3,0.3,0.7l0.2,1.3c0.1,0.3,0,0.5,0,0.7
			c-0.1,0.2-0.3,0.4-0.7,0.5c-0.4,0.2-0.9,0.3-1.4,0.4s-1.1,0.2-1.7,0.3c-0.6,0.1-1.2,0.1-1.8,0.2s-1.1,0.1-1.6,0.1
			c-1.9,0-3.5-0.3-4.6-0.8c-1.1-0.5-2-1.3-2.6-2.2s-1-2-1.2-3.2c-0.2-1.2-0.3-2.5-0.3-3.8c0-1,0.1-2,0.2-3.2
			c0.1-1.2,0.5-2.3,1.1-3.4s1.4-1.9,2.6-2.6c1.1-0.7,2.7-1.1,4.6-1.1c1.8,0,3.2,0.3,4.3,0.8s2,1.2,2.6,2.1c0.6,0.8,1,1.8,1.3,2.9
			c0.2,1.1,0.4,2.2,0.4,3.2c0,0.7-0.1,1.3-0.4,1.8s-0.8,0.7-1.6,0.7H283z M287,476.7c-0.7,0-1.4,0.1-1.8,0.3
			c-0.5,0.2-0.9,0.5-1.2,0.9c-0.3,0.4-0.5,0.9-0.7,1.5c-0.1,0.6-0.2,1.3-0.3,2h7.9c0-0.6-0.1-1.2-0.2-1.8c-0.1-0.6-0.3-1.1-0.6-1.5
			c-0.3-0.4-0.7-0.8-1.2-1.1C288.5,476.9,287.8,476.7,287,476.7z"/>
	</g>
	<g>
		<path class="st1" d="M64.4,377.3c0,0,62.2-8.1,64-8.4c2.7-0.4,5.1-1,7.3-1.6c5-1.4,9.7-3.5,13.8-6.3c3.9-2.7,7.6-6.5,11.2-10.8
			c2.3-2.7,4.7-6.2,7-9.6v-1.7c-2.7,4-5.3,7.5-8,10.5c-3.6,4-7.4,7.4-11.2,9.8c-4,2.6-8.4,4.5-13.3,5.7c-2.2,0.6-4.5,1-7.1,1.4
			c-1.7,0.2-3.5,0.4-5.2,0.6c-0.7,0.1-58.4,6.3-58.4,6.3L64.4,377.3L64.4,377.3z"/>
		<path class="st1" d="M147.8,366.8c-3.9,2.3-8.4,3.9-13.4,4.9c-2.1,0.4-4.4,0.8-7.1,1.1c-1.6,0.2-3.1,0.3-4.7,0.4
			c-0.8,0.1-1.7,0.1-2.5,0.2c-19.1,1.7-38,3.6-55.8,5.3v4.2c17.9-2.2,37-4.5,56.1-6.7c0.8-0.1,1.7-0.2,2.5-0.3
			c1.6-0.2,3.1-0.3,4.7-0.6c2.7-0.4,5.1-0.8,7.3-1.3c5.2-1.2,9.8-3,13.9-5.5c4-2.4,7.6-5.8,11.4-10c2.4-2.6,5-6.3,7.5-9.7v-1.4
			c-2.9,4-5.7,7.3-8.4,10.2C155.4,361.5,151.7,364.6,147.8,366.8"/>
		<path class="st1" d="M158.7,365.8c-3.8,3.5-7.8,6.3-11.8,8.2c-3.9,1.9-8.3,3.3-13.5,4.1c-2.1,0.4-4.4,0.6-7,0.9l-62.1,5.2v4.1
			l55.2-5.9l7.1-0.8c2.7-0.3,5-0.7,7.2-1.1c5.3-1,9.9-2.5,13.9-4.6c4.1-2.1,8.3-5.6,12.1-9.4c2.6-2.5,5.1-5.7,7.7-9.1V356
			C164.6,359.9,161.6,363.1,158.7,365.8"/>
		<path class="st1" d="M143.7,386.9c-3.6,2-6.3,3.2-11.5,3.8c-3.1,0.3-6.3,0.5-9.4,0.7c-1.5,0.1-3,0.2-4.5,0.2
			c-9.4,0.5-18.6,1.1-28,1.8l-25.9,1.8v4.1l26.2-2.5c8.5-0.8,18.3-1.7,27.9-2.4l7-0.5c2.7-0.2,5-0.4,7-0.7c5.3-0.7,9.8-1.8,13.9-3.3
			c4.3-1.6,8.4-4.2,12.5-7.2c3.7-2.7,8.8-8,8.8-8.1v-1.4c-3.3,3.3-5.3,5.1-8.9,7.6C154.4,383.6,146.9,385.1,143.7,386.9"/>
		<path class="st1" d="M144.9,394.7c-3.9,1.2-8.3,1.9-13.5,2.4c-2.1,0.2-4.3,0.3-6.9,0.4l-6.9,0.3c-17.3,0.8-34.4,1.7-53.4,2.7v4.1
			c18.1-1.4,35.8-2.8,53.5-4.1l6.9-0.5c2.7-0.2,4.9-0.4,7-0.6c5.3-0.6,9.8-1.5,13.8-2.8c4.4-1.4,8.8-3.5,12.9-6.1
			c3-1.9,6.1-4.3,9.2-7v-0.1c-3.5,3-6.8,3.6-10,5.7C153.6,391.5,149.3,393.4,144.9,394.7"/>
		<path class="st1" d="M144.4,401.4c-3.9,0.9-8.2,1.5-13.5,1.9c-2,0.1-4.2,0.2-6.8,0.3l-6.9,0.2c-17.3,0.7-34.9,1.4-52.9,2.2v4.1
			c17.8-1.2,35.3-2.4,53-3.5l6.9-0.4c2.7-0.2,4.9-0.3,6.9-0.5c5.3-0.5,9.7-1.2,13.7-2.3c4.5-1.2,8.9-2.9,13.1-5.1
			c3.2-1.7,6.4-3.8,9.7-6.3v-1.7c-3.6,2.6-7,4.8-10.5,6.5C153.1,398.8,148.8,400.4,144.4,401.4"/>
		<path class="st1" d="M143.8,408c-4,0.7-8.2,1.2-13.4,1.5c-2,0.1-4,0.2-6.8,0.2l-59.2,1.6v4.1l52.5-2.8l6.8-0.3
			c2.7-0.1,4.8-0.3,6.8-0.4c5.3-0.4,9.6-1,13.6-1.8c4.6-1,9-2.4,13.2-4.2c3.4-1.4,6.8-3.2,10.3-5.4v-1.6c-3.8,2.2-7.3,4-10.9,5.4
			C152.6,406,148.3,407.2,143.8,408"/>
		<path class="st1" d="M143.3,414.7c-7.3,1-14.8,1.1-22,1.2c-1.7,0-3.3,0-5,0.1l-52,0.9v4.1l52.1-2.3c1.7-0.1,3.3-0.1,5-0.2
			c7.3-0.3,14.8-0.6,22.2-1.8c4.7-0.7,9.2-1.8,13.3-3.3c3.5-1.2,7.1-2.7,10.7-4.5v-1.6c-3.8,1.8-7.6,3.3-11.2,4.4
			C152.3,413.1,147.9,414.1,143.3,414.7"/>
		<path class="st1" d="M142.9,421.4c-6.8,0.6-13.8,0.6-20.5,0.6c-2.1,0-4.2,0-6.3,0c-17.2,0.1-34.3,0.2-51.7,0.4v4.1
			c16.6-0.6,34.2-1.2,51.8-1.7c2.1-0.1,4.2-0.1,6.3-0.2c6.8-0.2,13.8-0.4,20.7-1.1c4.8-0.5,9.2-1.3,13.4-2.3
			c3.7-0.9,7.4-2.1,11.2-3.6v-1.5c-3.9,1.4-7.8,2.6-11.5,3.4C151.9,420.3,147.6,421,142.9,421.4"/>
		<path class="st1" d="M142.6,428c-2.8,0.1-5.9,0.2-9.4,0.2c-1.3,0-2.6,0-3.9,0l-13.4-0.3c-9.1,0-18.3,0-26.8,0H64.4v4l24.8-0.7
			c8.5-0.2,17.7-0.4,26.8-0.6l13.4-0.2c3.7-0.1,8.5-0.2,13.4-0.5c4.8-0.3,9.2-0.8,13.4-1.5c3.8-0.6,7.6-1.4,11.5-2.4v-1.4
			c-4,0.9-7.9,1.7-11.7,2.2C151.7,427.4,147.4,427.8,142.6,428"/>
		<path class="st1" d="M129.1,434.3l-13.4-0.1c-17-0.2-34.1-0.6-51.4-0.9v4.1c16.6-0.1,34.1-0.2,51.4-0.4l13.4-0.2
			c4.5-0.1,8.9-0.2,13.4-0.3c9.2-0.3,17.4-1,25.1-2v-1.4c-7.7,0.8-16,1.3-25.1,1.3C137.9,434.4,133.6,434.4,129.1,434.3"/>
		<polygon class="st1" points="167.6,441.5 64.4,438.9 64.4,442.9 167.6,442.9 		"/>
		<path class="st1" d="M158.3,373.4c-3.9,3.2-7,5.5-11.8,7.4c-4.2,1.7-8.7,2.4-13.8,3.1c-3.3,0.5-6.8,1.2-10.1,1.4
			c-1.4,0.1-2.7,0.2-4.1,0.3l-54.3,4v4.1l54.5-5.3l7.1-0.7c2.6-0.3,4.9-0.5,7.1-0.9c5.3-0.9,9.8-2.2,13.9-4c4.2-1.9,8.5-5,12.5-8.4
			c2.7-2.3,5.3-5.2,8.2-8.4v-1.5C164.2,368.1,161.4,371,158.3,373.4"/>
		<path class="st1" d="M211.6,338.9c0,0,18.6,29.7,22,35.2c3.4,5.4,7.3,9.8,21,12.7c13.8,2.9,19.7,4.3,19.7,4.3v1.1
			c0,0-8.7-1.9-20-4.4c-11.2-2.5-15.8-3.4-21-10.5c-4.2-6.1-21.7-31.4-21.7-31.4S211.6,338.9,211.6,338.9z"/>
		<path class="st1" d="M211.6,372.8c0,0,16.9,17.8,21.8,22.9c5.2,5.4,11.8,7.4,21.1,9.1c8.8,1.6,19.9,3.4,19.9,3.4v1
			c0,0-10.4-1.7-19.9-3.3c-9.3-1.6-15.8-2.5-21.1-7.4c-4.8-4.5-21.8-20.4-21.8-20.4V372.8z"/>
		<path class="st1" d="M211.6,380.8c0,0,16.1,15,21.8,20.1c5.3,4.7,9.5,6.2,21.1,8.2c11.6,2.1,19.8,3.3,19.8,3.3v1.1
			c0,0-10.5-1.7-19.9-3.2c-9.4-1.5-15.4-2.1-21.1-6.7c-6.5-5.3-21.8-17.9-21.8-17.9L211.6,380.8L211.6,380.8z"/>
		<path class="st1" d="M211.6,389.4c0,0,18.4,14.6,21.8,17.2s8,5.5,21.2,7.5c13,1.8,19.8,2.8,19.8,2.8v1.1c0,0-11.9-1.7-19.8-2.7
			s-14-1.4-21.1-6.2c-7-4.6-21.9-15.2-21.9-15.2V389.4z"/>
		<path class="st1" d="M211.6,397.6c0,0,18.4,12.3,21.9,14.3c3.5,1.9,7.6,5.1,21.1,6.8c13.5,1.7,19.8,2.5,19.8,2.5v1.1
			c0,0-11.1-1.2-19.8-2.2c-8.7-0.9-14.6-2.2-21.1-5.8c-6.5-3.6-21.8-12.6-21.8-12.6L211.6,397.6L211.6,397.6z"/>
		<path class="st1" d="M211.6,405.8c0,0,16.3,8.9,21.8,11.7c6.2,3.1,11.5,4.6,21.1,5.7c9.5,1.1,19.8,2.2,19.8,2.2v1
			c0,0-9.6-1-19.8-2s-13.8-1.4-21.1-4.7c-6.6-2.9-21.8-10.1-21.8-10.1V405.8z"/>
		<path class="st1" d="M211.6,414.1c0,0,12.9,5.5,21.9,9.1c8.9,3.5,15.7,3.8,21.1,4.5c2.4,0.3,19.7,2.1,19.7,2.1v1
			c0,0-10.4-0.8-19.8-1.7c-9.4-0.8-13.5-1.2-21.1-3.7c-7.7-2.6-21.8-7.5-21.8-7.5S211.6,414.1,211.6,414.1z"/>
		<path class="st1" d="M211.6,422.6c0,0,13,4,21.9,6.4c8.9,2.3,17,3.3,21.1,3.6c4.1,0.3,19.8,1.6,19.8,1.6v0.9c0,0-8.9-0.6-19.8-1.4
			c-8.8-0.6-15.9-1.3-21.1-2.4c-5.8-1.3-21.8-5.1-21.8-5.1L211.6,422.6L211.6,422.6z"/>
		<path class="st1" d="M211.6,431c0,0,10.6,1.8,21.9,3.7c8.4,1.4,19.8,2.3,21.1,2.3c1.2,0.1,19.8,1.3,19.8,1.3v1
			c0,0-11.9-0.6-19.8-1.1c-8.3-0.5-16.5-1-21.1-1.4c-10.4-1.1-21.8-2.5-21.8-2.5L211.6,431L211.6,431z"/>
		<path class="st1" d="M211.6,439.6c0,0,16.8,0.6,21.9,0.7c5.1,0.1,40.9,1.6,40.9,1.6v1h-62.8V439.6z"/>
		<path class="st1" d="M254.5,391.3c-15.2-3.3-18.6-8.9-21.2-12.3c-2.5-3.4-21.7-31.6-21.7-31.6v6.4c0.8,1,17.2,22.6,21.8,28.5
			c5.2,6.7,13.4,8.2,21.1,9.9c7.8,1.7,19.8,4,19.8,4v-0.9C274.4,395.3,258.4,392.2,254.5,391.3"/>
		<path class="st1" d="M254.5,395.8c-12.5-2.4-17.5-6.4-21.2-11.2c-3.6-4.8-21.7-28.7-21.7-28.7v6c0.8,0.9,17.3,20.6,21.8,25.7
			c5.2,6,12.4,7.5,21.2,9.1s19.8,3.7,19.8,3.7v-0.9C274.3,399.6,261.6,397.2,254.5,395.8"/>
		<path class="st1" d="M254.5,400.4c-13-2.5-15.6-4.6-21.1-10.6c-3.4-3.8-21.1-24.7-21.8-25.5v5.6c0,0,16.5,17.6,21.8,22.8
			c6.9,6.8,13.5,7.3,21.2,8.7s19.8,3.6,19.8,3.6v-0.9C274.3,404,259.6,401.4,254.5,400.4"/>
		<rect x="107.3" y="382.2" class="st2" width="90.5" height="60.7"/>
		<polygon class="st3" points="153.4,390.8 156.7,390.8 154.1,392.8 155.1,395.9 152.6,394 149.9,395.9 150.9,392.8 148.4,390.8 
			151.6,390.8 152.6,387.7 		"/>
		<polygon class="st3" points="153.6,431.3 156.8,431.3 154.2,433.2 155.2,436.2 152.7,434.4 150.2,436.2 151.2,433.2 148.6,431.3 
			151.7,431.3 152.7,428.3 		"/>
		<polygon class="st3" points="163.6,428.6 166.8,428.6 164.2,430.5 165.2,433.6 162.7,431.7 160.2,433.6 161.1,430.5 158.6,428.6 
			161.7,428.6 162.7,425.7 		"/>
		<polygon class="st3" points="163.6,393.5 166.8,393.5 164.2,395.4 165.2,398.4 162.7,396.6 160.2,398.4 161.1,395.4 158.6,393.5 
			161.7,393.5 162.7,390.5 		"/>
		<polygon class="st3" points="170.9,400.9 174.2,400.9 171.6,402.8 172.6,405.9 170.1,404 167.6,405.9 168.6,402.8 165.9,400.9 
			169.1,400.9 170.1,398 		"/>
		<polygon class="st3" points="170.9,421.3 174.2,421.3 171.6,423.2 172.6,426.2 170.1,424.4 167.6,426.2 168.6,423.2 165.9,421.3 
			169.1,421.3 170.1,418.3 		"/>
		<polygon class="st3" points="173.8,411 176.9,411 174.4,412.9 175.4,415.9 172.9,414 170.3,415.9 171.3,412.9 168.8,411 
			171.9,411 172.9,408 		"/>
		<polygon class="st3" points="143.3,393.5 146.4,393.5 143.9,395.4 144.9,398.5 142.4,396.6 139.9,398.5 140.9,395.4 138.3,393.5 
			141.4,393.5 142.4,390.6 		"/>
		<polygon class="st3" points="136.1,401 139.3,401 136.7,402.9 137.7,405.9 135.2,404 132.6,405.9 133.7,402.9 131.1,401 
			134.2,401 135.2,398 		"/>
		<polygon class="st3" points="133.4,411 136.6,411 134.1,412.9 134.9,415.9 132.5,414.1 130,415.9 131,412.9 128.4,411 131.6,411 
			132.5,408 		"/>
		<polygon class="st3" points="136.1,421.3 139.3,421.3 136.7,423.2 137.7,426.3 135.2,424.4 132.6,426.3 133.7,423.2 131.1,421.3 
			134.2,421.3 135.2,418.4 		"/>
		<polygon class="st3" points="143.4,428.6 146.6,428.6 143.9,430.6 144.9,433.6 142.4,431.7 139.9,433.6 140.9,430.6 138.4,428.6 
			141.4,428.6 142.4,425.7 		"/>
	</g>
</g>
</svg>
