<?xml version="1.0" encoding="utf-8"?>
<!-- Generator: Adobe Illustrator 19.1.0, SVG Export Plug-In . SVG Version: 6.00 Build 0)  -->
<!DOCTYPE svg PUBLIC "-//W3C//DTD SVG 1.1//EN" "http://www.w3.org/Graphics/SVG/1.1/DTD/svg11.dtd">
<svg version="1.1" id="Layer_1" xmlns="http://www.w3.org/2000/svg" xmlns:xlink="http://www.w3.org/1999/xlink" x="0px" y="0px"
	 viewBox="-171.6 339.1 450 164" style="enable-background:new -171.6 339.1 450 164;" xml:space="preserve">
<style type="text/css">
	.st0{fill:#404040;}
	.st1{fill:#BCBEC0;}
	.st2{fill:#0D4F9E;}
	.st3{fill:#FAEA27;}
</style>
<g>
	<path class="st0" d="M-122,468.7c0-0.5,0.3-0.8,0.8-0.8h14.7c0.5,0,0.8,0.3,0.8,0.8v2.5c0,0.5-0.3,0.7-0.8,0.7h-10.9v6.9h9.7
		c0.5,0,0.8,0.2,0.8,0.7v2.5c0,0.5-0.3,0.7-0.8,0.7h-9.7v7.9h11.2c0.5,0,0.7,0.3,0.7,0.8v2.4c0,0.5-0.3,0.7-0.8,0.7h-14.9
		c-0.5,0-0.8-0.2-0.8-0.7V468.7z"/>
	<path class="st0" d="M-85.4,494.5h-2.8c-0.3,0-0.5-0.1-0.6-0.2c-0.1-0.1-0.2-0.3-0.2-0.6v-1.2h-0.1c-0.4,0.3-0.9,0.5-1.4,0.8
		c-0.5,0.3-1.1,0.5-1.7,0.8c-0.6,0.2-1.2,0.4-1.8,0.6c-0.6,0.1-1.2,0.2-1.9,0.2c-1.4,0-2.4-0.2-3.2-0.6c-0.8-0.4-1.4-0.9-1.8-1.6
		c-0.4-0.7-0.7-1.5-0.8-2.4s-0.2-1.9-0.2-2.9v-11.8c0-0.5,0.3-0.8,0.8-0.8h3.1c0.5,0,0.7,0.3,0.7,0.8v11.2c0,0.6,0,1.2,0.1,1.6
		c0.1,0.5,0.2,0.9,0.4,1.2c0.2,0.3,0.5,0.6,0.9,0.8c0.4,0.2,0.9,0.3,1.5,0.3c0.4,0,0.9-0.1,1.4-0.2s1-0.3,1.5-0.5
		c0.5-0.2,1-0.4,1.4-0.6c0.4-0.2,0.8-0.4,1-0.5v-13.4c0-0.2,0.1-0.4,0.2-0.6c0.1-0.1,0.3-0.2,0.6-0.2h2.8c0.5,0,0.8,0.3,0.8,0.8v18
		C-84.6,494.2-84.9,494.5-85.4,494.5z"/>
	<path class="st0" d="M-75.2,493.7c0,0.5-0.3,0.8-0.8,0.8h-2.9c-0.5,0-0.8-0.3-0.8-0.8v-18c0-0.5,0.3-0.8,0.8-0.8h2.9
		c0.5,0,0.8,0.3,0.8,0.8v1.8l0.1,0.1c0.3-0.3,0.7-0.6,1.2-0.9s1-0.6,1.5-0.8c0.5-0.3,1.1-0.5,1.7-0.7c0.6-0.2,1.1-0.4,1.6-0.4
		c0.3-0.1,0.5,0,0.6,0c0.2,0.1,0.3,0.3,0.3,0.6l0.3,2.7c0,0.3,0,0.5,0,0.6c-0.1,0.1-0.3,0.2-0.7,0.3c-0.6,0.1-1.1,0.2-1.8,0.4
		c-0.6,0.1-1.2,0.3-1.8,0.5c-0.6,0.2-1.1,0.3-1.6,0.5c-0.5,0.2-0.9,0.3-1.3,0.5L-75.2,493.7L-75.2,493.7z"/>
	<path class="st0" d="M-48.8,484.4c0,1.1-0.1,2.3-0.2,3.6c-0.1,1.2-0.5,2.4-1.1,3.4s-1.5,1.9-2.6,2.5c-1.2,0.7-2.8,1-4.9,1
		c-2,0-3.6-0.3-4.7-1c-1.1-0.7-2-1.5-2.6-2.5c-0.6-1-0.9-2.2-1.1-3.4c-0.1-1.2-0.2-2.4-0.2-3.6c0-0.9,0.1-2,0.3-3.1
		c0.2-1.1,0.6-2.2,1.1-3.2c0.6-1,1.4-1.8,2.6-2.5c1.1-0.7,2.7-1,4.6-1s3.5,0.3,4.6,0.9c1.2,0.6,2,1.4,2.7,2.3c0.6,0.9,1,2,1.2,3.2
		C-48.9,482-48.8,483.2-48.8,484.4z M-53.2,484.7c0-1.1-0.1-2-0.2-2.8c-0.1-0.8-0.3-1.4-0.6-2c-0.3-0.5-0.8-0.9-1.3-1.2
		c-0.5-0.3-1.3-0.4-2.2-0.4c-0.9,0-1.5,0.1-2.1,0.4c-0.5,0.3-1,0.7-1.3,1.2s-0.5,1.2-0.6,2c-0.1,0.8-0.2,1.7-0.2,2.7
		c0,1.1,0.1,2,0.2,2.8c0.1,0.8,0.3,1.4,0.6,2c0.3,0.5,0.7,0.9,1.2,1.2c0.5,0.3,1.2,0.4,2.1,0.4c0.9,0,1.6-0.1,2.2-0.4s1-0.6,1.3-1.2
		c0.3-0.5,0.5-1.2,0.6-2C-53.3,486.7-53.2,485.7-53.2,484.7z"/>
	<path class="st0" d="M-27.6,484.6c0,1.6-0.1,3.1-0.4,4.4c-0.2,1.3-0.7,2.4-1.3,3.2c-0.6,0.9-1.4,1.5-2.4,2s-2.3,0.7-3.9,0.7
		c-0.7,0-1.4-0.1-2.3-0.2s-1.8-0.4-2.7-0.7l0,0v7c0,0.2,0,0.4-0.1,0.6c-0.1,0.2-0.3,0.2-0.6,0.2h-2.8c-0.3,0-0.5-0.1-0.6-0.2
		c-0.1-0.1-0.1-0.3-0.1-0.6v-25.4c0-0.5,0.3-0.8,0.8-0.8h2.8c0.3,0,0.5,0.1,0.6,0.2s0.1,0.3,0.1,0.6v1.2l0.1,0.1
		c0.3-0.2,0.8-0.5,1.3-0.8c0.5-0.3,1-0.5,1.6-0.8c0.6-0.2,1.1-0.4,1.7-0.6c0.6-0.2,1.2-0.2,1.8-0.2c1.3,0,2.4,0.2,3.2,0.7
		c0.9,0.5,1.5,1.2,2,2c0.5,0.9,0.8,1.9,1,3.1C-27.7,481.7-27.6,483.1-27.6,484.6z M-32.1,484.5c0-1.3-0.1-2.3-0.2-3.1
		c-0.1-0.8-0.3-1.4-0.6-1.8c-0.3-0.4-0.6-0.7-1-0.9c-0.4-0.1-0.8-0.2-1.4-0.2c-0.4,0-0.9,0.1-1.4,0.2c-0.5,0.1-1,0.3-1.5,0.5
		c-0.5,0.2-1,0.4-1.4,0.6s-0.8,0.4-1.1,0.6v10c0.9,0.3,1.7,0.4,2.5,0.5c0.7,0.1,1.4,0.1,2.1,0.1s1.3-0.1,1.8-0.3
		c0.5-0.2,0.9-0.6,1.2-1.1c0.3-0.5,0.5-1.2,0.7-2C-32.1,486.8-32.1,485.8-32.1,484.5z"/>
	<path class="st0" d="M-19.9,485.9c0,1,0.1,1.9,0.3,2.5c0.2,0.7,0.5,1.2,0.9,1.6s0.9,0.7,1.5,0.8c0.6,0.2,1.3,0.2,2.1,0.2
		c0.7,0,1.6-0.1,2.6-0.2c1-0.1,1.9-0.2,2.6-0.3c0.4-0.1,0.6,0,0.8,0c0.1,0.1,0.2,0.3,0.3,0.7l0.2,1.3c0.1,0.3,0,0.5,0,0.7
		c-0.1,0.2-0.3,0.4-0.7,0.5c-0.4,0.2-0.9,0.3-1.4,0.4s-1.1,0.2-1.7,0.3s-1.2,0.1-1.8,0.2c-0.6,0.1-1.1,0.1-1.6,0.1
		c-1.9,0-3.5-0.3-4.6-0.8c-1.1-0.6-2-1.3-2.6-2.2s-1-2-1.2-3.2c-0.2-1.2-0.3-2.5-0.3-3.8c0-1,0.1-2,0.2-3.2c0.1-1.2,0.5-2.3,1.1-3.4
		c0.6-1,1.4-1.9,2.6-2.6c1.1-0.7,2.7-1.1,4.6-1.1c1.8,0,3.2,0.3,4.3,0.8c1.1,0.5,2,1.2,2.6,2.1c0.6,0.8,1,1.8,1.3,2.9
		c0.2,1.1,0.4,2.2,0.4,3.2c0,0.7-0.1,1.3-0.4,1.8s-0.8,0.7-1.6,0.7H-19.9z M-15.9,478.1c-0.7,0-1.4,0.1-1.8,0.3
		c-0.4,0.2-0.9,0.5-1.2,0.9c-0.3,0.4-0.5,0.9-0.7,1.5c-0.1,0.6-0.2,1.3-0.3,2h7.9c0-0.6-0.1-1.2-0.2-1.8s-0.3-1.1-0.6-1.5
		c-0.3-0.4-0.7-0.8-1.2-1.1C-14.4,478.3-15.1,478.1-15.9,478.1z"/>
	<path class="st0" d="M11,488.6c0,1.2-0.2,2.2-0.7,2.9c-0.5,0.8-1.1,1.4-1.8,1.9c-0.8,0.5-1.6,0.8-2.6,1c-1,0.2-2,0.3-3,0.3
		s-2.1-0.1-3.3-0.2c-1.2-0.1-2.1-0.4-2.9-0.7c-0.4-0.2-0.7-0.3-0.8-0.5c-0.1-0.2-0.1-0.5-0.1-0.8l0.3-1.3c0.1-0.3,0.2-0.5,0.3-0.6
		c0.2-0.1,0.4-0.1,0.7,0c0.4,0.1,0.9,0.1,1.4,0.2s1,0.1,1.6,0.1s1,0.1,1.5,0.1s0.9,0,1.2,0c1.3,0,2.2-0.2,2.8-0.5
		c0.6-0.4,0.8-0.9,0.8-1.7c0-0.5,0-0.8-0.1-1.1c-0.1-0.3-0.3-0.5-0.5-0.7c-0.2-0.2-0.6-0.3-1-0.5c-0.4-0.1-0.9-0.2-1.6-0.3
		c-1-0.1-1.9-0.3-2.8-0.5c-0.9-0.2-1.7-0.5-2.3-0.9c-0.7-0.4-1.2-1-1.6-1.6c-0.4-0.7-0.6-1.6-0.6-2.7c0-2,0.7-3.5,2.1-4.5
		s3.2-1.5,5.4-1.5c0.4,0,0.9,0,1.4,0s1.1,0.1,1.6,0.2c0.5,0.1,1.1,0.2,1.6,0.3s1,0.2,1.4,0.4c0.7,0.3,0.9,0.7,0.8,1.2L9.9,478
		c-0.1,0.3-0.2,0.5-0.3,0.5c-0.1,0.1-0.4,0.1-0.8,0c-0.9-0.1-1.8-0.2-2.8-0.3s-1.9-0.1-2.6-0.1c-1.3,0-2.1,0.2-2.5,0.5
		c-0.4,0.4-0.6,0.9-0.6,1.7c0,0.8,0.3,1.3,0.8,1.5c0.5,0.2,1.4,0.5,2.6,0.6c1,0.1,1.9,0.3,2.7,0.5c0.9,0.2,1.6,0.5,2.3,1
		c0.7,0.4,1.2,1,1.6,1.7C10.8,486.5,11,487.4,11,488.6z"/>
	<path class="st0" d="M18.8,485.9c0,1,0.1,1.9,0.3,2.5c0.2,0.7,0.5,1.2,0.9,1.6s0.9,0.7,1.5,0.8c0.6,0.2,1.3,0.2,2.1,0.2
		c0.7,0,1.6-0.1,2.6-0.2c1-0.1,1.9-0.2,2.6-0.3c0.4-0.1,0.6,0,0.8,0c0.1,0.1,0.2,0.3,0.3,0.7l0.2,1.3c0.1,0.3,0,0.5,0,0.7
		c-0.1,0.2-0.3,0.4-0.7,0.5c-0.4,0.2-0.9,0.3-1.4,0.4s-1.1,0.2-1.7,0.3c-0.6,0.1-1.2,0.1-1.8,0.2s-1.1,0.1-1.6,0.1
		c-1.9,0-3.5-0.3-4.6-0.8c-1.1-0.6-2-1.3-2.6-2.2s-1-2-1.2-3.2c-0.2-1.2-0.3-2.5-0.3-3.8c0-1,0.1-2,0.2-3.2c0.1-1.2,0.5-2.3,1.1-3.4
		c0.6-1,1.4-1.9,2.6-2.6c1.1-0.7,2.7-1.1,4.6-1.1c1.8,0,3.2,0.3,4.3,0.8s2,1.2,2.6,2.1c0.6,0.8,1,1.8,1.3,2.9
		c0.2,1.1,0.4,2.2,0.4,3.2c0,0.7-0.1,1.3-0.4,1.8c-0.3,0.5-0.8,0.7-1.6,0.7H18.8z M22.8,478.1c-0.7,0-1.4,0.1-1.8,0.3
		c-0.4,0.2-0.9,0.5-1.2,0.9s-0.5,0.9-0.7,1.5c-0.1,0.6-0.2,1.3-0.3,2h7.9c0-0.6-0.1-1.2-0.2-1.8c-0.1-0.6-0.3-1.1-0.6-1.5
		s-0.7-0.8-1.2-1.1C24.3,478.3,23.6,478.1,22.8,478.1z"/>
	<path class="st0" d="M46.6,481.5c0-1.7,0.1-3.4,0.4-5c0.3-1.7,0.8-3.1,1.6-4.4c0.8-1.3,1.9-2.3,3.3-3.1c1.4-0.8,3.2-1.2,5.5-1.2
		c0.5,0,1,0,1.7,0.1c0.6,0,1.3,0.1,1.9,0.2c0.7,0.1,1.3,0.2,2,0.4c0.6,0.1,1.2,0.3,1.8,0.5c0.3,0.1,0.5,0.3,0.7,0.5
		c0.1,0.2,0.2,0.4,0.1,0.8l-0.4,1.6c-0.1,0.2-0.1,0.4-0.3,0.5c-0.1,0.1-0.4,0.1-0.8,0.1c-1-0.1-2-0.3-3.2-0.4
		c-1.1-0.1-2.2-0.2-3.3-0.2c-1.4,0-2.5,0.3-3.3,0.8s-1.5,1.2-1.9,2.1c-0.4,0.9-0.7,1.9-0.9,3.1c-0.1,1.2-0.2,2.4-0.2,3.7
		c0,1.3,0.1,2.5,0.2,3.7c0.2,1.1,0.5,2.1,0.9,3c0.5,0.8,1.1,1.5,1.9,2s1.9,0.7,3.2,0.7c1.2,0,2.3-0.1,3.3-0.2s2.1-0.2,3.2-0.4
		c0.4-0.1,0.6,0,0.8,0.1c0.1,0.1,0.2,0.3,0.3,0.6l0.3,1.5c0.2,0.6-0.1,1-0.7,1.3c-0.5,0.2-1,0.4-1.7,0.5s-1.3,0.3-2,0.4
		s-1.3,0.2-2,0.2s-1.2,0.1-1.7,0.1c-2.2,0-4.1-0.4-5.5-1.1c-1.4-0.8-2.5-1.8-3.3-3c-0.8-1.3-1.3-2.7-1.6-4.3
		C46.7,484.8,46.6,483.2,46.6,481.5z"/>
	<path class="st0" d="M85.7,484.4c0,1.1-0.1,2.3-0.2,3.6c-0.1,1.2-0.5,2.4-1.1,3.4s-1.5,1.9-2.6,2.5c-1.2,0.7-2.8,1-4.9,1
		c-2,0-3.6-0.3-4.7-1c-1.1-0.7-2-1.5-2.6-2.5s-0.9-2.2-1.1-3.4c-0.1-1.2-0.2-2.4-0.2-3.6c0-0.9,0.1-2,0.3-3.1s0.6-2.2,1.1-3.2
		c0.6-1,1.4-1.8,2.6-2.5c1.1-0.7,2.7-1,4.6-1c1.9,0,3.5,0.3,4.6,0.9c1.2,0.6,2,1.4,2.7,2.3c0.6,0.9,1,2,1.2,3.2
		C85.6,482,85.7,483.2,85.7,484.4z M81.2,484.7c0-1.1-0.1-2-0.2-2.8c-0.1-0.8-0.3-1.4-0.6-2c-0.3-0.5-0.8-0.9-1.3-1.2
		c-0.5-0.3-1.3-0.4-2.2-0.4s-1.5,0.1-2.1,0.4c-0.5,0.3-1,0.7-1.3,1.2s-0.5,1.2-0.6,2c-0.1,0.8-0.2,1.7-0.2,2.7c0,1.1,0.1,2,0.2,2.8
		c0.1,0.8,0.3,1.4,0.6,2c0.3,0.5,0.7,0.9,1.2,1.2c0.5,0.3,1.2,0.4,2.1,0.4c0.9,0,1.6-0.1,2.2-0.4c0.6-0.3,1-0.6,1.3-1.2
		c0.3-0.5,0.5-1.2,0.6-2C81.2,486.7,81.2,485.7,81.2,484.7z"/>
	<path class="st0" d="M118.1,494.3c-0.1,0.1-0.3,0.2-0.6,0.2h-2.9c-0.5,0-0.8-0.3-0.8-0.8v-11.4c0-1.5-0.2-2.5-0.6-3
		s-1.1-0.8-2.1-0.8c-0.4,0-0.8,0.1-1.3,0.2c-0.5,0.1-0.9,0.3-1.4,0.5c-0.5,0.2-0.9,0.4-1.3,0.6c-0.4,0.2-0.8,0.4-1.1,0.6
		c0,0.2,0,0.5,0,0.8c0,0.3,0,0.7,0,1.2v11.3c0,0.2-0.1,0.4-0.2,0.6c-0.1,0.1-0.3,0.2-0.6,0.2h-2.9c-0.5,0-0.7-0.3-0.7-0.8v-11.6
		c0-1.2-0.2-2.1-0.6-2.7c-0.4-0.6-1.1-0.9-2.1-0.9c-0.3,0-0.7,0.1-1.2,0.2c-0.5,0.1-0.9,0.3-1.4,0.4c-0.5,0.2-0.9,0.4-1.4,0.6
		c-0.5,0.2-0.9,0.4-1.2,0.6v13.4c0,0.5-0.3,0.8-0.8,0.8H90c-0.5,0-0.7-0.3-0.7-0.8v-18c0-0.5,0.2-0.8,0.7-0.8h2.8
		c0.5,0,0.8,0.3,0.8,0.8v1.2l0,0c0.4-0.3,0.8-0.5,1.3-0.8c0.5-0.3,0.9-0.5,1.5-0.7c0.5-0.2,1-0.4,1.6-0.5c0.5-0.1,1.1-0.2,1.6-0.3
		c1.1,0,2.2,0.2,3.1,0.5c0.9,0.4,1.7,1.1,2.3,2.3c1-0.7,2.1-1.4,3.3-2s2.4-0.8,3.7-0.8s2.3,0.2,3.1,0.6c0.8,0.4,1.4,0.9,1.8,1.6
		c0.4,0.7,0.7,1.5,0.8,2.4s0.2,1.9,0.2,2.8v11.8C118.3,494,118.2,494.2,118.1,494.3z"/>
	<path class="st0" d="M151.1,494.3c-0.1,0.1-0.3,0.2-0.6,0.2h-2.9c-0.5,0-0.8-0.3-0.8-0.8v-11.4c0-1.5-0.2-2.5-0.6-3
		s-1.1-0.8-2.1-0.8c-0.4,0-0.8,0.1-1.3,0.2c-0.5,0.1-0.9,0.3-1.4,0.5c-0.5,0.2-0.9,0.4-1.3,0.6s-0.8,0.4-1.1,0.6c0,0.2,0,0.5,0,0.8
		c0,0.3,0,0.7,0,1.2v11.3c0,0.2-0.1,0.4-0.2,0.6c-0.1,0.1-0.3,0.2-0.6,0.2h-2.9c-0.5,0-0.7-0.3-0.7-0.8v-11.6c0-1.2-0.2-2.1-0.6-2.7
		s-1.1-0.9-2.1-0.9c-0.3,0-0.7,0.1-1.2,0.2c-0.5,0.1-0.9,0.3-1.4,0.4c-0.5,0.1-0.9,0.4-1.4,0.6c-0.5,0.2-0.9,0.4-1.2,0.6v13.4
		c0,0.5-0.3,0.8-0.8,0.8H123c-0.5,0-0.7-0.3-0.7-0.8v-18c0-0.5,0.2-0.8,0.7-0.8h2.8c0.5,0,0.8,0.3,0.8,0.8v1.2l0,0
		c0.4-0.3,0.8-0.5,1.3-0.8c0.5-0.3,0.9-0.5,1.5-0.7c0.5-0.2,1-0.4,1.6-0.5c0.5-0.1,1.1-0.2,1.6-0.3c1.1,0,2.2,0.2,3.1,0.5
		c0.9,0.4,1.7,1.1,2.3,2.3c1-0.7,2.1-1.4,3.3-2s2.4-0.8,3.7-0.8c1.3,0,2.3,0.2,3.1,0.6c0.8,0.4,1.4,0.9,1.8,1.6
		c0.4,0.7,0.7,1.5,0.8,2.4c0.1,0.9,0.2,1.9,0.2,2.8v11.8C151.2,494,151.2,494.2,151.1,494.3z"/>
	<path class="st0" d="M160.7,469.7c0,0.3,0,0.6-0.1,0.9c-0.1,0.3-0.2,0.5-0.3,0.7c-0.2,0.2-0.4,0.4-0.7,0.5
		c-0.3,0.1-0.7,0.2-1.2,0.2s-1-0.1-1.3-0.2c-0.3-0.1-0.5-0.3-0.7-0.5c-0.2-0.2-0.3-0.5-0.3-0.7c-0.1-0.3-0.1-0.6-0.1-0.9
		c0-0.6,0.2-1.2,0.5-1.6c0.3-0.4,0.9-0.7,1.9-0.7s1.6,0.2,1.9,0.6C160.6,468.5,160.7,469,160.7,469.7z M160.5,493.7
		c0,0.2,0,0.4-0.1,0.5s-0.3,0.2-0.6,0.2H157c-0.5,0-0.8-0.3-0.8-0.8v-18.1c0-0.5,0.3-0.8,0.8-0.8h2.8c0.3,0,0.5,0.1,0.6,0.2
		c0.1,0.1,0.1,0.3,0.1,0.5V493.7z"/>
	<path class="st0" d="M180.1,488.6c0,1.2-0.2,2.2-0.7,2.9c-0.5,0.8-1.1,1.4-1.8,1.9s-1.6,0.8-2.6,1c-1,0.2-2,0.3-3,0.3
		s-2.1-0.1-3.3-0.2c-1.2-0.1-2.1-0.4-2.9-0.7c-0.4-0.2-0.7-0.3-0.8-0.5c-0.1-0.2-0.1-0.5-0.1-0.8l0.3-1.3c0.1-0.3,0.2-0.5,0.3-0.6
		c0.2-0.1,0.4-0.1,0.7,0c0.4,0.1,0.9,0.1,1.4,0.2s1,0.1,1.6,0.1c0.5,0,1,0.1,1.5,0.1s0.9,0,1.2,0c1.3,0,2.2-0.2,2.8-0.5
		c0.6-0.4,0.8-0.9,0.8-1.7c0-0.5,0-0.8-0.1-1.1c-0.1-0.3-0.3-0.5-0.5-0.7c-0.2-0.2-0.6-0.3-1-0.5c-0.4-0.1-0.9-0.2-1.6-0.3
		c-1-0.1-1.9-0.3-2.8-0.5c-0.9-0.2-1.7-0.5-2.3-0.9c-0.7-0.4-1.2-1-1.6-1.6c-0.4-0.7-0.6-1.6-0.6-2.7c0-2,0.7-3.5,2.1-4.5
		s3.2-1.5,5.4-1.5c0.4,0,0.9,0,1.4,0s1.1,0.1,1.6,0.2c0.5,0.1,1.1,0.2,1.6,0.3s1,0.2,1.4,0.4c0.7,0.3,0.9,0.7,0.8,1.2L179,478
		c-0.1,0.3-0.2,0.5-0.3,0.5c-0.1,0.1-0.4,0.1-0.8,0c-0.9-0.1-1.8-0.2-2.8-0.3s-1.9-0.1-2.6-0.1c-1.3,0-2.1,0.2-2.5,0.5
		c-0.4,0.4-0.6,0.9-0.6,1.7c0,0.8,0.3,1.3,0.8,1.5c0.5,0.2,1.4,0.5,2.6,0.6c1,0.1,1.9,0.3,2.7,0.5c0.9,0.2,1.6,0.5,2.3,1
		c0.7,0.4,1.2,1,1.6,1.7C179.9,486.5,180.1,487.4,180.1,488.6z"/>
	<path class="st0" d="M198.4,488.6c0,1.2-0.2,2.2-0.7,2.9c-0.5,0.8-1.1,1.4-1.8,1.9s-1.6,0.8-2.6,1c-1,0.2-2,0.3-3,0.3
		s-2.1-0.1-3.3-0.2c-1.2-0.1-2.1-0.4-2.9-0.7c-0.4-0.2-0.7-0.3-0.8-0.5c-0.1-0.2-0.1-0.5-0.1-0.8l0.3-1.3c0.1-0.3,0.2-0.5,0.3-0.6
		c0.2-0.1,0.4-0.1,0.7,0c0.4,0.1,0.9,0.1,1.4,0.2s1,0.1,1.6,0.1c0.5,0,1,0.1,1.5,0.1s0.9,0,1.2,0c1.3,0,2.2-0.2,2.8-0.5
		c0.6-0.4,0.8-0.9,0.8-1.7c0-0.5,0-0.8-0.1-1.1c-0.1-0.3-0.3-0.5-0.5-0.7c-0.2-0.2-0.6-0.3-1-0.5c-0.4-0.1-0.9-0.2-1.6-0.3
		c-1-0.1-1.9-0.3-2.8-0.5c-0.9-0.2-1.7-0.5-2.3-0.9c-0.7-0.4-1.2-1-1.6-1.6c-0.4-0.7-0.6-1.6-0.6-2.7c0-2,0.7-3.5,2.1-4.5
		s3.2-1.5,5.4-1.5c0.4,0,0.9,0,1.4,0s1.1,0.1,1.6,0.2c0.5,0.1,1.1,0.2,1.6,0.3s1,0.2,1.4,0.4c0.7,0.3,0.9,0.7,0.8,1.2l-0.3,1.4
		c-0.1,0.3-0.2,0.5-0.3,0.5c-0.1,0.1-0.4,0.1-0.8,0c-0.9-0.1-1.8-0.2-2.8-0.3s-1.9-0.1-2.6-0.1c-1.3,0-2.1,0.2-2.5,0.5
		c-0.4,0.4-0.6,0.9-0.6,1.7c0,0.8,0.3,1.3,0.8,1.5c0.5,0.2,1.4,0.5,2.6,0.6c1,0.1,1.9,0.3,2.7,0.5c0.9,0.2,1.6,0.5,2.3,1
		c0.7,0.4,1.2,1,1.6,1.7C198.2,486.5,198.4,487.4,198.4,488.6z"/>
	<path class="st0" d="M207.3,469.7c0,0.3,0,0.6-0.1,0.9c-0.1,0.3-0.2,0.5-0.3,0.7c-0.2,0.2-0.4,0.4-0.7,0.5
		c-0.3,0.1-0.7,0.2-1.2,0.2s-1-0.1-1.3-0.2c-0.3-0.1-0.5-0.3-0.7-0.5c-0.2-0.2-0.3-0.5-0.3-0.7c-0.1-0.3-0.1-0.6-0.1-0.9
		c0-0.6,0.2-1.2,0.5-1.6c0.3-0.4,0.9-0.7,1.9-0.7s1.6,0.2,1.9,0.6C207.2,468.5,207.3,469,207.3,469.7z M207.1,493.7
		c0,0.2,0,0.4-0.1,0.5s-0.3,0.2-0.6,0.2h-2.8c-0.5,0-0.8-0.3-0.8-0.8v-18.1c0-0.5,0.3-0.8,0.8-0.8h2.8c0.3,0,0.5,0.1,0.6,0.2
		c0.1,0.1,0.1,0.3,0.1,0.5V493.7z"/>
	<path class="st0" d="M216.2,485.9c0,1,0.1,1.9,0.3,2.5c0.2,0.7,0.5,1.2,0.9,1.6s0.9,0.7,1.5,0.8c0.6,0.2,1.3,0.2,2.1,0.2
		c0.7,0,1.6-0.1,2.6-0.2c1-0.1,1.9-0.2,2.6-0.3c0.4-0.1,0.6,0,0.8,0c0.1,0.1,0.2,0.3,0.3,0.7l0.2,1.3c0.1,0.3,0,0.5,0,0.7
		c-0.1,0.2-0.3,0.4-0.7,0.5c-0.4,0.2-0.9,0.3-1.4,0.4s-1.1,0.2-1.7,0.3s-1.2,0.1-1.8,0.2c-0.6,0.1-1.1,0.1-1.6,0.1
		c-1.9,0-3.5-0.3-4.6-0.8s-2-1.3-2.6-2.2s-1-2-1.2-3.2c-0.2-1.2-0.3-2.5-0.3-3.8c0-1,0.1-2,0.2-3.2c0.1-1.2,0.5-2.3,1.1-3.4
		c0.6-1.1,1.4-1.9,2.6-2.6c1.1-0.7,2.7-1.1,4.6-1.1c1.8,0,3.2,0.3,4.3,0.8c1.1,0.5,2,1.2,2.6,2.1c0.6,0.8,1,1.8,1.3,2.9
		c0.2,1.1,0.4,2.2,0.4,3.2c0,0.7-0.1,1.3-0.4,1.8s-0.8,0.7-1.6,0.7H216.2z M220.2,478.1c-0.7,0-1.4,0.1-1.8,0.3
		c-0.5,0.2-0.9,0.5-1.2,0.9c-0.3,0.4-0.5,0.9-0.7,1.5c-0.1,0.6-0.2,1.3-0.3,2h7.9c0-0.6-0.1-1.2-0.2-1.8s-0.3-1.1-0.6-1.5
		c-0.3-0.4-0.7-0.8-1.2-1.1C221.7,478.3,221,478.1,220.2,478.1z"/>
</g>
<g>
	<path class="st0" d="M858.9,700.4c0-0.5,0.3-0.8,0.8-0.8h14.7c0.5,0,0.8,0.3,0.8,0.8v2.5c0,0.5-0.3,0.7-0.8,0.7h-10.9v6.9h9.7
		c0.5,0,0.8,0.2,0.8,0.7v2.5c0,0.5-0.3,0.7-0.8,0.7h-9.7v7.9h11.2c0.5,0,0.7,0.3,0.7,0.8v2.4c0,0.5-0.3,0.7-0.8,0.7h-14.9
		c-0.5,0-0.8-0.2-0.8-0.7V700.4z"/>
	<path class="st0" d="M895.6,726.2h-2.8c-0.3,0-0.5-0.1-0.6-0.2c-0.1-0.1-0.2-0.3-0.2-0.6v-1.2h-0.1c-0.4,0.3-0.9,0.5-1.4,0.8
		s-1.1,0.5-1.7,0.8c-0.6,0.2-1.2,0.4-1.8,0.6c-0.6,0.1-1.2,0.2-1.9,0.2c-1.4,0-2.4-0.2-3.2-0.6c-0.8-0.4-1.4-0.9-1.8-1.6
		s-0.7-1.5-0.8-2.4c-0.1-0.9-0.2-1.9-0.2-2.9v-11.8c0-0.5,0.3-0.8,0.8-0.8h2.9c0.5,0,0.7,0.3,0.7,0.8v11.2c0,0.6,0,1.2,0.1,1.6
		c0.1,0.5,0.2,0.9,0.4,1.2c0.2,0.3,0.5,0.6,0.9,0.8s0.9,0.3,1.5,0.3c0.4,0,0.9-0.1,1.4-0.2c0.5-0.1,1-0.3,1.5-0.5s1-0.4,1.4-0.6
		s0.8-0.4,1-0.5v-13.4c0-0.2,0.1-0.4,0.2-0.6c0.1-0.1,0.3-0.2,0.6-0.2h2.8c0.5,0,0.8,0.3,0.8,0.8v18
		C896.3,725.9,896.1,726.2,895.6,726.2z"/>
	<path class="st0" d="M905.8,725.4c0,0.5-0.3,0.8-0.8,0.8h-2.9c-0.5,0-0.8-0.3-0.8-0.8v-18c0-0.5,0.3-0.8,0.8-0.8h2.9
		c0.5,0,0.8,0.3,0.8,0.8v1.8l0.1,0.1c0.3-0.3,0.7-0.6,1.2-0.9s1-0.6,1.5-0.8c0.5-0.3,1.1-0.5,1.7-0.7s1.1-0.4,1.6-0.4
		c0.3-0.1,0.5,0,0.6,0c0.2,0.1,0.3,0.3,0.3,0.6l0.3,2.7c0,0.3,0,0.5,0,0.6c-0.1,0.1-0.3,0.2-0.7,0.3c-0.6,0.1-1.1,0.2-1.8,0.4
		c-0.6,0.1-1.2,0.3-1.8,0.5c-0.6,0.2-1.1,0.3-1.6,0.5s-0.9,0.3-1.3,0.5L905.8,725.4L905.8,725.4z"/>
	<path class="st0" d="M932.1,716c0,1.1-0.1,2.3-0.2,3.6c-0.1,1.2-0.5,2.4-1.1,3.4s-1.5,1.9-2.6,2.5c-1.2,0.7-2.8,1-4.9,1
		c-2,0-3.6-0.3-4.7-1s-2-1.5-2.6-2.5s-0.9-2.2-1.1-3.4c-0.1-1.2-0.2-2.4-0.2-3.6c0-0.9,0.1-2,0.3-3.1c0.2-1.1,0.6-2.2,1.1-3.2
		c0.6-1,1.4-1.8,2.6-2.5s2.7-1,4.6-1s3.5,0.3,4.6,0.9c1.2,0.6,2,1.4,2.7,2.3c0.6,0.9,1,2,1.2,3.2C932,713.7,932.1,714.9,932.1,716z
		 M927.7,716.3c0-1.1-0.1-2-0.2-2.8s-0.3-1.4-0.6-2c-0.3-0.5-0.8-0.9-1.3-1.2c-0.6-0.3-1.3-0.4-2.2-0.4c-0.9,0-1.5,0.1-2.1,0.4
		s-1,0.7-1.3,1.2s-0.5,1.2-0.6,2s-0.2,1.7-0.2,2.7c0,1.1,0.1,2,0.2,2.8s0.3,1.4,0.6,2c0.3,0.5,0.7,0.9,1.2,1.2
		c0.5,0.3,1.2,0.4,2.1,0.4s1.6-0.1,2.2-0.4s1-0.6,1.3-1.2c0.3-0.5,0.5-1.2,0.6-2C927.6,718.3,927.7,717.4,927.7,716.3z"/>
	<path class="st0" d="M953.4,716.2c0,1.6-0.1,3.1-0.4,4.4c-0.2,1.3-0.7,2.4-1.3,3.2c-0.6,0.9-1.4,1.5-2.4,2s-2.3,0.7-3.9,0.7
		c-0.7,0-1.4-0.1-2.3-0.2c-0.9-0.1-1.8-0.4-2.7-0.7l0,0v7c0,0.2,0,0.4-0.1,0.6s-0.3,0.2-0.6,0.2h-2.8c-0.3,0-0.5-0.1-0.6-0.2
		c-0.1-0.1-0.1-0.3-0.1-0.6v-25.4c0-0.5,0.3-0.8,0.8-0.8h2.8c0.3,0,0.5,0.1,0.6,0.2c0.1,0.1,0.1,0.3,0.1,0.6v1.2l0.1,0.1
		c0.3-0.2,0.8-0.5,1.3-0.8s1-0.5,1.6-0.8c0.6-0.2,1.1-0.4,1.7-0.6s1.2-0.2,1.8-0.2c1.3,0,2.4,0.2,3.2,0.7s1.5,1.2,2,2
		c0.5,0.9,0.8,1.9,1,3.1C953.3,713.3,953.4,714.7,953.4,716.2z M948.8,716.2c0-1.3-0.1-2.3-0.2-3.1s-0.3-1.4-0.6-1.8
		c-0.3-0.4-0.6-0.7-1-0.9c-0.4-0.1-0.8-0.2-1.4-0.2c-0.4,0-0.9,0.1-1.4,0.2c-0.5,0.1-1,0.3-1.5,0.5s-1,0.4-1.4,0.6s-0.8,0.4-1.1,0.6
		v10c0.9,0.3,1.7,0.4,2.5,0.5c0.7,0.1,1.4,0.1,2.1,0.1s1.3-0.1,1.8-0.3c0.5-0.2,0.9-0.6,1.2-1.1c0.3-0.5,0.5-1.2,0.7-2
		C948.8,718.5,948.8,717.5,948.8,716.2z"/>
	<path class="st0" d="M961,717.6c0,1,0.1,1.9,0.3,2.5c0.2,0.7,0.5,1.2,0.9,1.6c0.4,0.4,0.9,0.7,1.5,0.8c0.6,0.2,1.3,0.2,2.1,0.2
		c0.7,0,1.6-0.1,2.6-0.2c1-0.1,1.9-0.2,2.6-0.3c0.4-0.1,0.6,0,0.8,0c0.1,0.1,0.2,0.3,0.3,0.7l0.2,1.3c0.1,0.3,0,0.5,0,0.7
		c-0.1,0.2-0.3,0.4-0.7,0.5c-0.4,0.2-0.9,0.3-1.4,0.4c-0.5,0.1-1.1,0.2-1.7,0.3s-1.2,0.1-1.8,0.2c-0.6,0.1-1.1,0.1-1.6,0.1
		c-1.9,0-3.5-0.3-4.6-0.8s-2-1.3-2.6-2.2c-0.6-0.9-1-2-1.2-3.2s-0.3-2.5-0.3-3.8c0-1,0.1-2,0.2-3.2s0.5-2.3,1.1-3.4
		c0.6-1,1.4-1.9,2.6-2.6c1.1-0.7,2.7-1.1,4.6-1.1c1.8,0,3.2,0.3,4.3,0.8c1.1,0.5,2,1.2,2.6,2.1c0.6,0.8,1,1.8,1.3,2.9
		c0.2,1.1,0.4,2.2,0.4,3.2c0,0.7-0.1,1.3-0.4,1.8s-0.8,0.7-1.6,0.7H961z M965,709.8c-0.7,0-1.4,0.1-1.8,0.3
		c-0.5,0.2-0.9,0.5-1.2,0.9c-0.3,0.4-0.5,0.9-0.7,1.5c-0.1,0.6-0.2,1.3-0.3,2h7.9c0-0.6-0.1-1.2-0.2-1.8s-0.3-1.1-0.6-1.5
		c-0.3-0.4-0.7-0.8-1.2-1.1C966.5,709.9,965.9,709.8,965,709.8z"/>
	<path class="st0" d="M989.6,723.9c-1,0.8-2.2,1.4-3.4,1.9c-1.3,0.5-2.6,0.7-3.9,0.7c-1.1,0-2-0.1-2.7-0.4s-1.3-0.7-1.7-1.2
		c-0.4-0.5-0.7-1.1-0.9-1.8c-0.2-0.7-0.3-1.5-0.3-2.3c0-2.3,0.6-4,1.8-5.1c1.3-1.1,3.1-1.6,5.7-1.6h5.1v-1c0-0.6-0.1-1.1-0.2-1.5
		c-0.1-0.4-0.3-0.8-0.7-1c-0.3-0.3-0.7-0.5-1.3-0.6c-0.6-0.1-1.2-0.2-2-0.2c-0.3,0-0.7,0-1.2,0s-0.9,0.1-1.4,0.1s-1,0.1-1.5,0.1
		c-0.5,0.1-0.9,0.1-1.3,0.1c-0.4,0.1-0.7,0.1-0.8,0c-0.1,0-0.2-0.2-0.3-0.5l-0.4-1.5c-0.1-0.3,0-0.5,0.1-0.7s0.4-0.3,0.8-0.5
		s0.9-0.3,1.5-0.4c0.6-0.1,1.2-0.2,1.8-0.3c0.6-0.1,1.2-0.1,1.8-0.2c0.6,0,1.1-0.1,1.6-0.1c1.7,0,3.1,0.2,4.1,0.5s1.8,0.8,2.3,1.5
		c0.5,0.6,0.9,1.4,1,2.3c0.2,0.9,0.2,1.9,0.2,3v7.7c0,0.4,0,0.7,0.1,0.9c0,0.2,0.1,0.4,0.2,0.5c0.1,0.1,0.2,0.2,0.4,0.3
		c0.2,0.1,0.4,0.1,0.8,0.1c0.3,0,0.5,0.1,0.6,0.2c0.1,0.1,0.2,0.2,0.2,0.4v1.7c0,0.5-0.3,0.7-1,0.8c-0.3,0.1-0.6,0.1-1,0.1
		c-0.3,0-0.6,0.1-0.9,0.1c-0.9,0-1.7-0.2-2.3-0.5C990.3,725.5,989.9,724.9,989.6,723.9L989.6,723.9z M989.4,717.2h-4.9
		c-1,0-1.8,0.2-2.4,0.7s-0.9,1.4-0.9,2.7c0,0.9,0.2,1.5,0.5,1.8c0.4,0.3,1,0.5,1.9,0.5c0.4,0,0.9-0.1,1.4-0.2c0.5-0.1,1-0.3,1.5-0.4
		c0.5-0.2,1-0.4,1.5-0.6s0.9-0.4,1.3-0.7L989.4,717.2L989.4,717.2z"/>
	<path class="st0" d="M1015.6,726c-0.1,0.1-0.3,0.2-0.6,0.2h-2.9c-0.5,0-0.8-0.3-0.8-0.8v-11.2c0-1.2-0.2-2.1-0.6-2.8
		c-0.4-0.7-1.2-1.1-2.3-1.1c-0.4,0-0.9,0.1-1.4,0.2c-0.5,0.1-1,0.3-1.6,0.5c-0.5,0.2-1,0.4-1.5,0.6s-0.8,0.4-1.1,0.5v13.4
		c0,0.5-0.3,0.8-0.8,0.8h-2.8c-0.5,0-0.8-0.3-0.8-0.8v-18c0-0.5,0.3-0.8,0.8-0.8h2.8c0.5,0,0.8,0.3,0.8,0.8v1.2c0,0,0,0,0.1,0
		c0,0,0,0,0.1,0c0.4-0.3,0.8-0.5,1.3-0.8s1.1-0.5,1.7-0.8c0.6-0.2,1.2-0.4,1.8-0.6c0.6-0.1,1.3-0.2,1.9-0.2c1.4,0,2.4,0.2,3.2,0.6
		c0.8,0.4,1.4,1,1.8,1.7s0.7,1.5,0.8,2.4c0.1,0.9,0.2,1.9,0.2,2.9v11.6C1015.8,725.6,1015.7,725.8,1015.6,726z"/>
	<path class="st0" d="M1031.5,713.1c0-1.7,0.1-3.4,0.4-5c0.3-1.7,0.8-3.1,1.6-4.4c0.8-1.3,1.9-2.3,3.3-3.1s3.2-1.2,5.5-1.2
		c0.5,0,1,0,1.7,0.1c0.6,0,1.3,0.1,1.9,0.2c0.7,0.1,1.3,0.2,2,0.4c0.6,0.1,1.2,0.3,1.8,0.5c0.3,0.1,0.5,0.3,0.7,0.5
		c0.1,0.2,0.2,0.4,0.1,0.8l-0.4,1.6c-0.1,0.2-0.1,0.4-0.3,0.5c-0.1,0.1-0.4,0.1-0.8,0.1c-1-0.1-2-0.3-3.2-0.4
		c-1.1-0.1-2.2-0.2-3.3-0.2c-1.4,0-2.5,0.3-3.3,0.8s-1.5,1.2-1.9,2.1c-0.4,0.9-0.7,1.9-0.9,3.1c-0.1,1.2-0.2,2.4-0.2,3.7
		s0.1,2.5,0.2,3.7c0.2,1.1,0.5,2.1,0.9,3c0.4,0.9,1.1,1.5,1.9,2s1.9,0.7,3.2,0.7c1.2,0,2.3-0.1,3.3-0.2c1-0.1,2.1-0.2,3.2-0.4
		c0.4-0.1,0.6,0,0.8,0.1c0.1,0.1,0.2,0.3,0.3,0.6l0.3,1.5c0.2,0.6-0.1,1-0.7,1.3c-0.5,0.2-1,0.4-1.7,0.5c-0.7,0.1-1.3,0.3-2,0.4
		c-0.7,0.1-1.3,0.2-2,0.2s-1.2,0.1-1.7,0.1c-2.2,0-4.1-0.4-5.5-1.1c-1.4-0.8-2.5-1.8-3.3-3c-0.8-1.3-1.3-2.7-1.6-4.3
		S1031.5,714.8,1031.5,713.1z"/>
	<path class="st0" d="M1070.6,716c0,1.1-0.1,2.3-0.2,3.6c-0.1,1.2-0.5,2.4-1.1,3.4s-1.5,1.9-2.6,2.5c-1.2,0.7-2.8,1-4.9,1
		c-2,0-3.6-0.3-4.7-1s-2-1.5-2.6-2.5s-0.9-2.2-1.1-3.4c-0.1-1.2-0.2-2.4-0.2-3.6c0-0.9,0.1-2,0.3-3.1c0.2-1.1,0.6-2.2,1.1-3.2
		c0.6-1,1.4-1.8,2.6-2.5s2.7-1,4.6-1s3.5,0.3,4.6,0.9c1.2,0.6,2,1.4,2.7,2.3c0.6,0.9,1,2,1.2,3.2
		C1070.5,713.7,1070.6,714.9,1070.6,716z M1066.2,716.3c0-1.1-0.1-2-0.2-2.8s-0.3-1.4-0.6-2c-0.3-0.5-0.8-0.9-1.3-1.2
		c-0.5-0.3-1.3-0.4-2.2-0.4c-0.9,0-1.5,0.1-2.1,0.4s-1,0.7-1.3,1.2s-0.5,1.2-0.6,2s-0.2,1.7-0.2,2.7c0,1.1,0.1,2,0.2,2.8
		s0.3,1.4,0.6,2c0.3,0.5,0.7,0.9,1.2,1.2c0.5,0.3,1.2,0.4,2.1,0.4s1.6-0.1,2.2-0.4s1-0.6,1.3-1.2c0.3-0.5,0.5-1.2,0.6-2
		C1066.1,718.3,1066.2,717.4,1066.2,716.3z"/>
	<path class="st0" d="M1103.1,726c-0.1,0.1-0.3,0.2-0.6,0.2h-2.9c-0.5,0-0.8-0.3-0.8-0.8V714c0-1.5-0.2-2.5-0.6-3s-1.1-0.8-2.1-0.8
		c-0.4,0-0.8,0.1-1.3,0.2c-0.5,0.1-0.9,0.3-1.4,0.5s-0.9,0.4-1.3,0.6s-0.8,0.4-1.1,0.6c0,0.2,0,0.5,0,0.8s0,0.7,0,1.2v11.3
		c0,0.2-0.1,0.4-0.2,0.6c-0.1,0.1-0.3,0.2-0.6,0.2h-2.9c-0.5,0-0.7-0.3-0.7-0.8v-11.6c0-1.2-0.2-2.1-0.6-2.7
		c-0.4-0.6-1.1-0.9-2.1-0.9c-0.3,0-0.7,0.1-1.2,0.2c-0.4,0.1-0.9,0.3-1.4,0.4c-0.5,0.1-0.9,0.4-1.4,0.6s-0.9,0.4-1.2,0.6v13.4
		c0,0.5-0.3,0.8-0.8,0.8h-2.9c-0.5,0-0.7-0.3-0.7-0.8v-18c0-0.5,0.2-0.8,0.7-0.8h2.8c0.5,0,0.8,0.3,0.8,0.8v1.2l0,0
		c0.4-0.3,0.8-0.5,1.3-0.8s0.9-0.5,1.5-0.7c0.5-0.2,1-0.4,1.6-0.5c0.5-0.1,1.1-0.2,1.6-0.3c1.1,0,2.2,0.2,3.1,0.5
		c0.9,0.4,1.7,1.1,2.3,2.3c1-0.7,2.1-1.4,3.3-2c1.2-0.6,2.4-0.8,3.7-0.8c1.3,0,2.3,0.2,3.1,0.6c0.8,0.4,1.4,0.9,1.8,1.6
		s0.7,1.5,0.8,2.4c0.1,0.9,0.2,1.9,0.2,2.8v11.8C1103.2,725.6,1103.2,725.8,1103.1,726z"/>
	<path class="st0" d="M1136.1,726c-0.1,0.1-0.3,0.2-0.6,0.2h-2.9c-0.5,0-0.8-0.3-0.8-0.8V714c0-1.5-0.2-2.5-0.6-3s-1.1-0.8-2.1-0.8
		c-0.4,0-0.8,0.1-1.3,0.2c-0.5,0.1-0.9,0.3-1.4,0.5s-0.9,0.4-1.3,0.6s-0.8,0.4-1.1,0.6c0,0.2,0,0.5,0,0.8s0,0.7,0,1.2v11.3
		c0,0.2-0.1,0.4-0.2,0.6c-0.1,0.1-0.3,0.2-0.6,0.2h-2.9c-0.5,0-0.7-0.3-0.7-0.8v-11.6c0-1.2-0.2-2.1-0.6-2.7
		c-0.4-0.6-1.1-0.9-2.1-0.9c-0.3,0-0.7,0.1-1.2,0.2c-0.5,0.1-0.9,0.3-1.4,0.4c-0.5,0.1-0.9,0.4-1.4,0.6s-0.9,0.4-1.2,0.6v13.4
		c0,0.5-0.3,0.8-0.8,0.8h-2.9c-0.5,0-0.7-0.3-0.7-0.8v-18c0-0.5,0.2-0.8,0.7-0.8h2.8c0.5,0,0.8,0.3,0.8,0.8v1.2l0,0
		c0.4-0.3,0.8-0.5,1.3-0.8s0.9-0.5,1.5-0.7c0.5-0.2,1-0.4,1.6-0.5c0.5-0.1,1.1-0.2,1.6-0.3c1.1,0,2.2,0.2,3.1,0.5s1.7,1.1,2.3,2.3
		c1-0.7,2.1-1.4,3.3-2c1.2-0.6,2.4-0.8,3.7-0.8c1.3,0,2.3,0.2,3.1,0.6c0.8,0.4,1.4,0.9,1.8,1.6s0.7,1.5,0.8,2.4
		c0.1,0.9,0.2,1.9,0.2,2.8v11.8C1136.2,725.6,1136.2,725.8,1136.1,726z"/>
	<path class="st0" d="M1145.7,701.4c0,0.3,0,0.6-0.1,0.9s-0.2,0.5-0.3,0.7c-0.2,0.2-0.4,0.4-0.7,0.5c-0.3,0.1-0.7,0.2-1.2,0.2
		s-1-0.1-1.3-0.2c-0.3-0.1-0.5-0.3-0.7-0.5s-0.3-0.5-0.3-0.7c-0.1-0.3-0.1-0.6-0.1-0.9c0-0.6,0.2-1.2,0.5-1.6
		c0.3-0.4,0.9-0.7,1.9-0.7s1.6,0.2,1.9,0.6C1145.5,700.1,1145.7,700.7,1145.7,701.4z M1145.4,725.4c0,0.2,0,0.4-0.1,0.5
		c-0.1,0.1-0.3,0.2-0.6,0.2h-2.8c-0.5,0-0.8-0.3-0.8-0.8v-18c0-0.5,0.3-0.8,0.8-0.8h2.8c0.3,0,0.5,0.1,0.6,0.2
		c0.1,0.1,0.1,0.3,0.1,0.5V725.4z"/>
	<path class="st0" d="M1165,720.3c0,1.2-0.2,2.2-0.7,2.9c-0.5,0.8-1.1,1.4-1.8,1.9s-1.6,0.8-2.6,1s-2,0.3-3,0.3s-2.1-0.1-3.3-0.2
		c-1.2-0.1-2.1-0.4-2.9-0.7c-0.4-0.2-0.7-0.3-0.8-0.5c-0.1-0.2-0.1-0.5-0.1-0.8l0.3-1.3c0.1-0.3,0.2-0.5,0.3-0.6
		c0.2-0.1,0.4-0.1,0.7,0c0.4,0.1,0.9,0.1,1.4,0.2c0.5,0.1,1,0.1,1.6,0.1c0.5,0,1,0.1,1.5,0.1s0.9,0,1.2,0c1.3,0,2.2-0.2,2.8-0.5
		c0.6-0.4,0.8-0.9,0.8-1.7c0-0.5,0-0.8-0.1-1.1s-0.3-0.5-0.5-0.7s-0.6-0.3-1-0.5c-0.4-0.1-0.9-0.2-1.6-0.3c-1-0.1-1.9-0.3-2.8-0.5
		s-1.7-0.5-2.3-0.9c-0.7-0.4-1.2-1-1.6-1.6c-0.4-0.7-0.6-1.6-0.6-2.7c0-2,0.7-3.5,2.1-4.5s3.2-1.5,5.4-1.5c0.4,0,0.9,0,1.4,0
		s1.1,0.1,1.6,0.2c0.5,0.1,1.1,0.2,1.6,0.3s1,0.2,1.4,0.4c0.7,0.3,0.9,0.7,0.8,1.2l-0.3,1.4c-0.1,0.3-0.2,0.5-0.3,0.5
		c-0.1,0.1-0.4,0.1-0.8,0c-0.9-0.1-1.8-0.2-2.8-0.3c-1-0.1-1.9-0.1-2.6-0.1c-1.3,0-2.1,0.2-2.5,0.5c-0.4,0.4-0.6,0.9-0.6,1.7
		s0.3,1.3,0.8,1.5s1.4,0.5,2.6,0.6c1,0.1,1.9,0.3,2.7,0.5c0.9,0.2,1.6,0.5,2.3,1c0.7,0.4,1.2,1,1.6,1.7
		C1164.8,718.1,1165,719.1,1165,720.3z"/>
	<path class="st0" d="M1183.4,720.3c0,1.2-0.2,2.2-0.7,2.9c-0.5,0.8-1.1,1.4-1.8,1.9s-1.6,0.8-2.6,1s-2,0.3-3,0.3s-2.1-0.1-3.3-0.2
		c-1.2-0.1-2.1-0.4-2.9-0.7c-0.4-0.2-0.7-0.3-0.8-0.5c-0.1-0.2-0.1-0.5-0.1-0.8l0.3-1.3c0.1-0.3,0.2-0.5,0.3-0.6
		c0.2-0.1,0.4-0.1,0.7,0c0.4,0.1,0.9,0.1,1.4,0.2c0.5,0.1,1,0.1,1.6,0.1c0.5,0,1,0.1,1.5,0.1s0.9,0,1.2,0c1.3,0,2.2-0.2,2.8-0.5
		c0.6-0.4,0.8-0.9,0.8-1.7c0-0.5,0-0.8-0.1-1.1s-0.3-0.5-0.5-0.7s-0.6-0.3-1-0.5c-0.4-0.1-0.9-0.2-1.6-0.3c-1-0.1-1.9-0.3-2.8-0.5
		s-1.7-0.5-2.3-0.9c-0.7-0.4-1.2-1-1.6-1.6c-0.4-0.7-0.6-1.6-0.6-2.7c0-2,0.7-3.5,2.1-4.5s3.2-1.5,5.4-1.5c0.4,0,0.9,0,1.4,0
		s1.1,0.1,1.6,0.2c0.5,0.1,1.1,0.2,1.6,0.3s1,0.2,1.4,0.4c0.7,0.3,0.9,0.7,0.8,1.2l-0.3,1.4c-0.1,0.3-0.2,0.5-0.3,0.5
		c-0.1,0.1-0.4,0.1-0.8,0c-0.9-0.1-1.8-0.2-2.8-0.3c-1-0.1-1.9-0.1-2.6-0.1c-1.3,0-2.1,0.2-2.5,0.5c-0.4,0.4-0.6,0.9-0.6,1.7
		s0.3,1.3,0.8,1.5s1.4,0.5,2.6,0.6c1,0.1,1.9,0.3,2.7,0.5c0.9,0.2,1.6,0.5,2.3,1c0.7,0.4,1.2,1,1.6,1.7
		C1183.2,718.1,1183.4,719.1,1183.4,720.3z"/>
	<path class="st0" d="M1192.3,701.4c0,0.3,0,0.6-0.1,0.9s-0.2,0.5-0.3,0.7c-0.2,0.2-0.4,0.4-0.7,0.5c-0.3,0.1-0.7,0.2-1.2,0.2
		s-1-0.1-1.3-0.2c-0.3-0.1-0.5-0.3-0.7-0.5s-0.3-0.5-0.3-0.7c-0.1-0.3-0.1-0.6-0.1-0.9c0-0.6,0.2-1.2,0.5-1.6
		c0.3-0.4,0.9-0.7,1.9-0.7s1.6,0.2,1.9,0.6C1192.1,700.1,1192.3,700.7,1192.3,701.4z M1192,725.4c0,0.2,0,0.4-0.1,0.5
		c-0.1,0.1-0.3,0.2-0.6,0.2h-2.8c-0.5,0-0.8-0.3-0.8-0.8v-18c0-0.5,0.3-0.8,0.8-0.8h2.8c0.3,0,0.5,0.1,0.6,0.2
		c0.1,0.1,0.1,0.3,0.1,0.5V725.4z"/>
	<path class="st0" d="M1214,716c0,1.1-0.1,2.3-0.2,3.6c-0.1,1.2-0.5,2.4-1.1,3.4s-1.5,1.9-2.6,2.5c-1.2,0.7-2.8,1-4.9,1
		c-2,0-3.6-0.3-4.7-1s-2-1.5-2.6-2.5s-0.9-2.2-1.1-3.4c-0.1-1.2-0.2-2.4-0.2-3.6c0-0.9,0.1-2,0.3-3.1c0.2-1.1,0.6-2.2,1.1-3.2
		c0.6-1,1.4-1.8,2.6-2.5s2.7-1,4.6-1s3.5,0.3,4.6,0.9c1.2,0.6,2,1.4,2.7,2.3c0.6,0.9,1,2,1.2,3.2C1213.9,713.7,1214,714.9,1214,716z
		 M1209.5,716.3c0-1.1-0.1-2-0.2-2.8s-0.3-1.4-0.6-2c-0.3-0.6-0.8-0.9-1.3-1.2c-0.6-0.3-1.3-0.4-2.2-0.4c-0.9,0-1.5,0.1-2.1,0.4
		c-0.5,0.3-1,0.7-1.3,1.2s-0.5,1.2-0.6,2s-0.2,1.7-0.2,2.7c0,1.1,0.1,2,0.2,2.8s0.3,1.4,0.6,2c0.3,0.5,0.7,0.9,1.2,1.2
		c0.5,0.3,1.2,0.4,2.1,0.4s1.6-0.1,2.2-0.4s1-0.6,1.3-1.2c0.3-0.6,0.5-1.2,0.6-2S1209.5,717.4,1209.5,716.3z"/>
	<path class="st0" d="M1234.7,726c-0.1,0.1-0.3,0.2-0.6,0.2h-2.9c-0.5,0-0.8-0.3-0.8-0.8v-11.2c0-1.2-0.2-2.1-0.6-2.8
		c-0.4-0.7-1.2-1.1-2.3-1.1c-0.4,0-0.9,0.1-1.4,0.2c-0.5,0.1-1,0.3-1.6,0.5c-0.5,0.2-1,0.4-1.5,0.6s-0.8,0.4-1.1,0.5v13.4
		c0,0.5-0.3,0.8-0.8,0.8h-2.8c-0.5,0-0.8-0.3-0.8-0.8v-18c0-0.5,0.3-0.8,0.8-0.8h2.8c0.5,0,0.8,0.3,0.8,0.8v1.2c0,0,0,0,0.1,0
		c0,0,0,0,0.1,0c0.4-0.3,0.8-0.5,1.3-0.8s1.1-0.5,1.7-0.8c0.6-0.2,1.2-0.4,1.8-0.6c0.6-0.1,1.3-0.2,1.9-0.2c1.4,0,2.4,0.2,3.2,0.6
		c0.8,0.4,1.4,1,1.8,1.7s0.7,1.5,0.8,2.4c0.1,0.9,0.2,1.9,0.2,2.9v11.6C1234.9,725.6,1234.8,725.8,1234.7,726z"/>
</g>
<g>
	<path class="st1" d="M-35.4,378.7c0,0,62.2-8.1,64-8.4c2.7-0.4,5.1-1,7.3-1.6c5-1.4,9.7-3.5,13.8-6.3c3.9-2.7,7.6-6.5,11.2-10.8
		c2.3-2.7,4.7-6.2,7-9.6v-1.7c-2.7,4-5.3,7.5-8,10.5c-3.6,4-7.4,7.4-11.2,9.8c-4,2.6-8.4,4.5-13.3,5.7c-2.2,0.6-4.5,1-7.1,1.4
		c-1.7,0.2-3.5,0.4-5.2,0.6c-0.7,0.1-58.4,6.3-58.4,6.3v4.1H-35.4z"/>
	<path class="st1" d="M48.1,368.2c-3.9,2.3-8.4,3.9-13.4,4.9c-2.1,0.4-4.4,0.8-7.1,1.1c-1.6,0.2-3.1,0.3-4.7,0.4
		c-0.8,0.1-1.7,0.1-2.5,0.2c-19.1,1.7-38,3.6-55.8,5.3v4.2c17.9-2.2,37-4.5,56.1-6.7c0.8-0.1,1.7-0.2,2.5-0.3
		c1.6-0.2,3.1-0.3,4.7-0.6c2.7-0.4,5.1-0.8,7.3-1.3c5.2-1.2,9.8-3,13.9-5.5c4-2.4,7.6-5.8,11.4-10c2.4-2.6,5-6.3,7.5-9.7v-1.4
		c-2.9,4-5.7,7.3-8.4,10.2C55.8,362.9,51.9,366,48.1,368.2"/>
	<path class="st1" d="M59,367.2c-3.8,3.5-7.8,6.3-11.8,8.2c-3.9,1.9-8.3,3.3-13.5,4.1c-2.1,0.4-4.4,0.6-7,0.9l-62.1,5.2v4.1
		l55.2-5.9l7.1-0.8c2.7-0.3,5-0.7,7.2-1.1c5.3-1,9.9-2.5,13.9-4.6c4.1-2.1,8.3-5.6,12.1-9.4c2.6-2.5,5.1-5.7,7.7-9.1v-1.4
		C64.8,361.3,61.9,364.5,59,367.2"/>
	<path class="st1" d="M44,388.3c-3.6,2-6.3,3.2-11.5,3.8c-3.1,0.3-6.3,0.5-9.4,0.7c-1.5,0.1-3,0.2-4.5,0.2c-9.4,0.5-18.6,1.1-28,1.8
		l-25.9,1.8v4.1l26.2-2.4c8.5-0.8,18.3-1.7,27.9-2.4l7-0.5c2.7-0.2,5-0.4,7-0.7c5.3-0.7,9.8-1.8,13.9-3.3c4.3-1.6,8.4-4.2,12.5-7.2
		c3.7-2.7,8.8-8,8.8-8.1v-1.4c-3.3,3.3-5.3,5.1-8.9,7.6C54.7,385,47.2,386.5,44,388.3"/>
	<path class="st1" d="M45.3,396.1c-3.9,1.2-8.3,1.9-13.5,2.4c-2.1,0.2-4.3,0.3-6.9,0.4l-6.9,0.3c-17.3,0.8-34.4,1.7-53.4,2.7v4.1
		c18.1-1.4,35.8-2.8,53.5-4.1l6.9-0.5c2.7-0.2,4.9-0.4,7-0.6c5.3-0.6,9.8-1.5,13.8-2.8c4.4-1.4,8.8-3.5,12.9-6.1
		c3-1.9,6.1-4.3,9.2-7v-0.1c-3.5,3-6.8,3.6-10,5.7C53.8,392.9,49.6,394.8,45.3,396.1"/>
	<path class="st1" d="M44.7,402.8c-3.9,0.9-8.2,1.5-13.5,1.9c-2,0.1-4.2,0.2-6.8,0.3l-6.9,0.2c-17.3,0.7-34.9,1.4-52.9,2.2v4.1
		c17.8-1.2,35.3-2.4,53-3.5l6.9-0.4c2.7-0.2,4.9-0.3,6.9-0.5c5.3-0.5,9.7-1.2,13.7-2.3c4.5-1.2,8.9-2.9,13.1-5.1
		c3.2-1.7,6.4-3.8,9.7-6.3v-1.7c-3.6,2.6-7,4.8-10.5,6.5C53.4,400.2,49.1,401.8,44.7,402.8"/>
	<path class="st1" d="M44.1,409.4c-4,0.7-8.2,1.2-13.4,1.5c-2,0.1-4,0.2-6.8,0.2l-59.2,1.6v4.1l52.5-2.8l6.8-0.3
		c2.7-0.1,4.8-0.3,6.8-0.4c5.3-0.4,9.6-1,13.6-1.8c4.6-1,9-2.4,13.2-4.2c3.4-1.4,6.8-3.2,10.3-5.4v-1.6c-3.8,2.2-7.3,4-10.9,5.4
		C52.9,407.4,48.5,408.6,44.1,409.4"/>
	<path class="st1" d="M43.6,416.1c-7.3,1-14.8,1.1-22,1.2c-1.7,0-3.3,0-5,0.1l-52,0.9v4.1l52.1-2.3c1.7-0.1,3.3-0.1,5-0.2
		c7.3-0.3,14.8-0.6,22.2-1.8c4.7-0.7,9.2-1.8,13.3-3.3c3.5-1.2,7.1-2.7,10.7-4.5v-1.6c-3.8,1.8-7.6,3.3-11.2,4.4
		C52.6,414.5,48.2,415.5,43.6,416.1"/>
	<path class="st1" d="M43.2,422.8c-6.8,0.6-13.8,0.6-20.5,0.6c-2.1,0-4.2,0-6.3,0c-17.2,0.1-34.3,0.2-51.7,0.4v4.1
		c16.6-0.6,34.2-1.2,51.8-1.7c2.1-0.1,4.2-0.1,6.3-0.2c6.8-0.2,13.8-0.4,20.7-1.1c4.8-0.5,9.2-1.3,13.4-2.3
		c3.7-0.9,7.4-2.1,11.2-3.6v-1.5c-3.9,1.4-7.8,2.6-11.5,3.4C52.2,421.7,47.9,422.4,43.2,422.8"/>
	<path class="st1" d="M42.9,429.4c-2.8,0.1-5.9,0.2-9.4,0.2c-1.3,0-2.6,0-3.9,0l-13.4-0.3c-9.2,0-18.3,0-26.8,0h-24.7v4l24.8-0.7
		c8.5-0.2,17.7-0.4,26.8-0.6l13.4-0.2c3.7-0.1,8.5-0.2,13.4-0.5c4.8-0.3,9.2-0.8,13.4-1.5c3.8-0.6,7.6-1.4,11.5-2.4V426
		c-4,0.9-7.9,1.7-11.7,2.2C52,428.8,47.7,429.2,42.9,429.4"/>
	<path class="st1" d="M29.4,435.7L16,435.6c-17-0.2-34.1-0.6-51.4-0.9v4.1c16.6-0.1,34.1-0.2,51.4-0.4l13.4-0.2
		c4.5-0.1,8.9-0.2,13.4-0.3c9.2-0.3,17.4-1,25.1-2v-1.4c-7.7,0.8-16,1.3-25.1,1.3C38.3,435.8,33.9,435.8,29.4,435.7"/>
	<polygon class="st1" points="67.9,442.9 -35.4,440.3 -35.4,444.3 67.9,444.3 	"/>
	<path class="st1" d="M58.6,374.8c-3.9,3.2-7,5.5-11.8,7.4c-4.2,1.7-8.7,2.4-13.8,3.1c-3.3,0.5-6.8,1.2-10.1,1.4
		c-1.4,0.1-2.7,0.2-4.1,0.3l-54.3,4v4.1l54.5-5.3l7.1-0.7c2.6-0.3,4.9-0.5,7.1-0.9c5.3-0.9,9.8-2.2,13.9-4c4.2-1.9,8.5-5,12.5-8.4
		c2.7-2.3,5.3-5.2,8.2-8.4v-1.5C64.5,369.5,61.6,372.4,58.6,374.8"/>
	<path class="st1" d="M111.9,340.3c0,0,18.6,29.7,22,35.2c3.4,5.4,7.3,9.8,21,12.7c13.8,2.9,19.7,4.3,19.7,4.3v1.1
		c0,0-8.7-1.9-20-4.4c-11.2-2.5-15.8-3.4-21-10.5c-4.3-6-21.8-31.3-21.8-31.3L111.9,340.3L111.9,340.3z"/>
	<path class="st1" d="M111.9,374.2c0,0,16.9,17.8,21.8,22.9c5.2,5.4,11.8,7.4,21.1,9.1c8.8,1.6,19.9,3.4,19.9,3.4v1
		c0,0-10.4-1.7-19.9-3.3c-9.3-1.6-15.8-2.5-21.1-7.4c-4.8-4.4-21.8-20.4-21.8-20.4L111.9,374.2L111.9,374.2z"/>
	<path class="st1" d="M111.9,382.2c0,0,16.1,15,21.8,20.1c5.3,4.7,9.5,6.2,21.1,8.2c11.6,2.1,19.8,3.3,19.8,3.3v1.1
		c0,0-10.5-1.7-19.9-3.2s-15.4-2.1-21.1-6.7c-6.5-5.3-21.8-17.9-21.8-17.9v-4.9H111.9z"/>
	<path class="st1" d="M111.9,390.8c0,0,18.4,14.6,21.8,17.2c3.4,2.6,8,5.5,21.2,7.5c13.1,1.9,19.8,2.8,19.8,2.8v1.1
		c0,0-11.9-1.7-19.8-2.7s-14-1.4-21.1-6.2c-6.9-4.6-21.9-15.2-21.9-15.2V390.8z"/>
	<path class="st1" d="M111.9,399c0,0,18.4,12.3,21.9,14.3c3.5,1.9,7.6,5.1,21.1,6.8c13.5,1.7,19.8,2.5,19.8,2.5v1.1
		c0,0-11.1-1.2-19.8-2.2c-8.7-0.9-14.6-2.2-21.1-5.8c-6.5-3.6-21.8-12.6-21.8-12.6L111.9,399L111.9,399z"/>
	<path class="st1" d="M111.9,407.2c0,0,16.3,8.9,21.8,11.7c6.2,3.1,11.5,4.6,21.1,5.7c9.5,1.1,19.8,2.2,19.8,2.2v1c0,0-9.6-1-19.8-2
		c-10.2-1-13.8-1.4-21.1-4.7c-6.6-2.9-21.8-10.1-21.8-10.1L111.9,407.2L111.9,407.2z"/>
	<path class="st1" d="M111.9,415.5c0,0,12.9,5.5,21.9,9.1c8.9,3.5,15.7,3.8,21.1,4.5c2.4,0.3,19.7,2.1,19.7,2.1v1
		c0,0-10.4-0.8-19.8-1.7c-9.4-0.8-13.5-1.2-21.1-3.7c-7.7-2.6-21.9-7.5-21.9-7.5L111.9,415.5L111.9,415.5z"/>
	<path class="st1" d="M111.9,424c0,0,13,4,21.9,6.4c8.9,2.3,17,3.3,21.1,3.6c4.1,0.3,19.8,1.6,19.8,1.6v0.9c0,0-8.9-0.6-19.8-1.4
		c-8.8-0.6-15.9-1.3-21.1-2.4c-5.8-1.3-21.8-5.1-21.8-5.1L111.9,424L111.9,424z"/>
	<path class="st1" d="M111.9,432.4c0,0,10.6,1.8,21.9,3.7c8.4,1.4,19.8,2.3,21.1,2.3c1.2,0.1,19.8,1.3,19.8,1.3v1
		c0,0-11.9-0.6-19.8-1.1c-8.3-0.5-16.5-1-21.1-1.4c-10.4-1.1-21.8-2.5-21.8-2.5L111.9,432.4L111.9,432.4z"/>
	<path class="st1" d="M111.9,441c0,0,16.8,0.6,21.9,0.7c5.1,0.1,40.9,1.6,40.9,1.6v1h-62.8L111.9,441L111.9,441z"/>
	<path class="st1" d="M154.8,392.7c-15.2-3.3-18.6-8.9-21.2-12.3c-2.5-3.5-21.8-31.6-21.8-31.6v6.4c0.8,1,17.2,22.6,21.8,28.5
		c5.2,6.7,13.4,8.2,21.1,9.9c7.8,1.7,19.8,4,19.8,4v-0.9C174.6,396.7,158.7,393.6,154.8,392.7"/>
	<path class="st1" d="M154.8,397.2c-12.5-2.4-17.5-6.4-21.2-11.2c-3.6-4.8-21.7-28.7-21.7-28.7v6c0.8,0.9,17.3,20.6,21.8,25.7
		c5.2,6,12.4,7.5,21.2,9.1c8.8,1.6,19.8,3.7,19.8,3.7v-0.9C174.6,401,162,398.6,154.8,397.2"/>
	<path class="st1" d="M154.8,401.8c-13-2.5-15.6-4.6-21.1-10.6c-3.4-3.8-21.1-24.7-21.8-25.5v5.6c0,0,16.5,17.6,21.8,22.8
		c6.9,6.8,13.5,7.3,21.2,8.7s19.8,3.6,19.8,3.6v-0.9C174.6,405.4,160,402.8,154.8,401.8"/>
	<rect x="7.6" y="383.6" class="st2" width="90.5" height="60.7"/>
	<polygon class="st3" points="53.8,392.2 56.9,392.2 54.4,394.2 55.4,397.3 52.9,395.4 50.3,397.3 51.3,394.2 48.8,392.2 
		51.9,392.2 52.9,389.1 	"/>
	<polygon class="st3" points="53.9,432.7 57.1,432.7 54.5,434.6 55.5,437.6 53,435.8 50.4,437.6 51.4,434.6 48.9,432.7 52,432.7 
		53,429.7 	"/>
	<polygon class="st3" points="63.9,430 67,430 64.5,431.9 65.5,435 63,433.1 60.4,435 61.4,431.9 58.9,430 62,430 63,427.1 	"/>
	<polygon class="st3" points="63.9,394.9 67,394.9 64.5,396.8 65.5,399.8 63,398 60.4,399.8 61.4,396.8 58.9,394.9 62,394.9 
		63,391.9 	"/>
	<polygon class="st3" points="71.3,402.3 74.4,402.3 71.9,404.2 72.9,407.3 70.4,405.4 67.8,407.3 68.8,404.2 66.3,402.3 
		69.4,402.3 70.4,399.4 	"/>
	<polygon class="st3" points="71.3,422.7 74.4,422.7 71.9,424.6 72.9,427.6 70.4,425.8 67.8,427.6 68.8,424.6 66.3,422.7 
		69.4,422.7 70.4,419.7 	"/>
	<polygon class="st3" points="74.1,412.4 77.2,412.4 74.7,414.3 75.7,417.3 73.1,415.4 70.6,417.3 71.6,414.3 69.1,412.4 
		72.2,412.4 73.1,409.4 	"/>
	<polygon class="st3" points="43.6,394.9 46.8,394.9 44.2,396.8 45.2,399.9 42.7,398 40.1,399.9 41.1,396.8 38.6,394.9 41.7,394.9 
		42.7,392 	"/>
	<polygon class="st3" points="36.4,402.4 39.6,402.4 37,404.3 38,407.3 35.5,405.4 32.9,407.3 33.9,404.3 31.4,402.4 34.5,402.4 
		35.5,399.4 	"/>
	<polygon class="st3" points="33.7,412.4 36.9,412.4 34.3,414.3 35.3,417.3 32.8,415.5 30.3,417.3 31.3,414.3 28.7,412.4 
		31.8,412.4 32.8,409.4 	"/>
	<polygon class="st3" points="36.4,422.7 39.6,422.7 37,424.6 38,427.7 35.5,425.8 32.9,427.7 33.9,424.6 31.4,422.7 34.5,422.7 
		35.5,419.8 	"/>
	<polygon class="st3" points="43.7,430 46.9,430 44.3,432 45.3,435 42.8,433.1 40.3,435 41.2,432 38.7,430 41.8,430 42.8,427.1 	"/>
</g>
</svg>
