<?xml version="1.0" encoding="utf-8"?>
<!-- Generator: Adobe Illustrator 19.1.0, SVG Export Plug-In . SVG Version: 6.00 Build 0)  -->
<!DOCTYPE svg PUBLIC "-//W3C//DTD SVG 1.1//EN" "http://www.w3.org/Graphics/SVG/1.1/DTD/svg11.dtd">
<svg version="1.1" id="Layer_1" xmlns="http://www.w3.org/2000/svg" xmlns:xlink="http://www.w3.org/1999/xlink" x="0px" y="0px"
	 viewBox="-175.8 339.1 450 164" style="enable-background:new -175.8 339.1 450 164;" xml:space="preserve">
<style type="text/css">
	.st0{fill:#404040;}
	.st1{fill:#BCBEC0;}
	.st2{fill:#0D4F9E;}
	.st3{fill:#FAEA27;}
</style>
<g>
	<path class="st0" d="M-124,468.7c0-0.5,0.3-0.8,0.8-0.8h14.7c0.5,0,0.8,0.3,0.8,0.8v2.5c0,0.5-0.3,0.7-0.8,0.7h-10.9v6.9h9.7
		c0.5,0,0.8,0.2,0.8,0.7v2.5c0,0.5-0.3,0.7-0.8,0.7h-9.7v7.9h11.2c0.5,0,0.7,0.3,0.7,0.8v2.4c0,0.5-0.3,0.7-0.8,0.7h-14.9
		c-0.5,0-0.8-0.2-0.8-0.7V468.7z"/>
	<path class="st0" d="M-99.1,488.6c0.1,0.5,0.3,0.9,0.6,1.3s0.7,0.6,1.2,0.9s1.2,0.3,2.1,0.3c0.8,0,1.5-0.1,2-0.3
		c0.5-0.2,1-0.5,1.3-0.9c0.3-0.4,0.5-0.8,0.7-1.3c0.1-0.5,0.2-1,0.2-1.6v-11.3c0-0.5,0.3-0.8,0.8-0.8h2.9c0.5,0,0.8,0.3,0.8,0.8
		v11.5c0,1.1-0.2,2.1-0.5,3c-0.3,0.9-0.9,1.7-1.6,2.4c-0.7,0.7-1.6,1.2-2.7,1.6c-1.1,0.4-2.4,0.6-3.8,0.6c-1.5,0-2.8-0.2-3.8-0.5
		c-1.1-0.4-1.9-0.9-2.6-1.5c-0.7-0.7-1.2-1.5-1.5-2.4c-0.3-0.9-0.5-2-0.5-3.1v-11.5c0-0.2,0.1-0.4,0.2-0.5s0.3-0.2,0.6-0.2h2.7
		c0.5,0,0.8,0.3,0.8,0.8v11.3C-99.2,487.5-99.2,488.1-99.1,488.6z"/>
	<path class="st0" d="M-65.3,484.6c0,1.6-0.1,3.1-0.4,4.3c-0.2,1.3-0.7,2.3-1.3,3.2s-1.4,1.6-2.5,2s-2.4,0.7-4,0.7
		c-0.6,0-1.4-0.1-2.3-0.2c-0.9-0.1-1.8-0.4-2.7-0.7v7.1c0,0.2,0,0.4-0.1,0.6s-0.3,0.2-0.6,0.2H-82c-0.3,0-0.5-0.1-0.6-0.2
		s-0.1-0.3-0.1-0.6v-16.5c0-3.4,0.8-5.9,2.3-7.6c1.5-1.6,3.6-2.5,6.4-2.5c1.6,0,3,0.2,4.1,0.7c1.1,0.5,2,1.2,2.7,2
		c0.7,0.9,1.2,1.9,1.5,3.2C-65.5,481.7-65.3,483.1-65.3,484.6z M-69.8,484.5c0-1.2-0.1-2.2-0.3-3c-0.2-0.8-0.5-1.4-0.9-1.9
		s-0.8-0.8-1.3-1c-0.5-0.2-1.1-0.3-1.7-0.3c-1,0-1.8,0.2-2.4,0.6s-1,0.9-1.3,1.5c-0.3,0.6-0.5,1.3-0.5,2c-0.1,0.7-0.1,1.4-0.1,2.1
		v5.8c0.9,0.2,1.7,0.4,2.4,0.5c0.7,0.1,1.5,0.1,2.1,0.1c0.7,0,1.3-0.1,1.8-0.3c0.5-0.2,0.9-0.5,1.2-1c0.3-0.5,0.6-1.2,0.7-2
		C-70,486.8-69.8,485.8-69.8,484.5z"/>
	<path class="st0" d="M-48.3,492.1c-0.5,0.8-1.2,1.4-2.2,2c-1,0.5-2.1,0.8-3.5,0.8c-1.5,0-2.8-0.3-3.8-0.8s-1.8-1.3-2.4-2.2
		s-1-2-1.2-3.2c-0.2-1.2-0.4-2.5-0.4-3.8c0-1,0.1-2,0.2-3c0.1-1,0.4-1.9,0.8-2.8c0.4-0.9,1-1.7,1.8-2.5c0.8-0.7,1.8-1.4,3-1.8
		c0.3-0.1,0.5-0.2,0.7-0.2s0.4,0.1,0.5,0.4l0.9,1.6c0.2,0.3,0.2,0.5,0.1,0.6s-0.3,0.3-0.6,0.5c-0.7,0.5-1.2,0.9-1.6,1.4
		s-0.7,1-0.9,1.6c-0.2,0.6-0.4,1.2-0.4,1.9c-0.1,0.7-0.1,1.4-0.1,2.3s0.1,1.7,0.2,2.4c0.1,0.7,0.3,1.4,0.6,1.9
		c0.3,0.5,0.6,1,1.1,1.3c0.4,0.3,1,0.5,1.7,0.5c0.8,0,1.4-0.1,1.8-0.4c0.5-0.2,0.8-0.6,1-0.9c0.2-0.4,0.4-0.8,0.5-1.3s0.1-1,0.1-1.5
		v-5.2c0-0.5,0.3-0.8,0.8-0.8h2.6c0.3,0,0.5,0.1,0.6,0.2s0.1,0.3,0.1,0.6v5.2c0,0.5,0.1,1,0.2,1.5s0.3,0.9,0.6,1.3
		c0.3,0.4,0.6,0.7,1.1,0.9c0.4,0.2,1,0.4,1.6,0.4c1.2,0,2.1-0.5,2.7-1.4s0.9-2.5,0.9-4.8c0-0.9,0-1.7-0.1-2.4
		c-0.1-0.7-0.2-1.3-0.5-1.8c-0.2-0.5-0.6-1.1-1-1.5c-0.4-0.5-0.9-0.9-1.6-1.4c-0.3-0.2-0.5-0.4-0.5-0.5s0-0.4,0.1-0.6l0.8-1.5
		c0.2-0.5,0.7-0.6,1.3-0.4c1.2,0.5,2.2,1,3,1.8c0.8,0.7,1.4,1.6,1.8,2.5s0.7,1.9,0.9,2.9c0.1,1,0.2,2,0.2,3c0,1.3-0.1,2.6-0.4,3.8
		c-0.2,1.2-0.7,2.3-1.2,3.2c-0.6,0.9-1.4,1.6-2.4,2.2c-1,0.6-2.3,0.8-3.8,0.8c-1.4,0-2.5-0.3-3.5-0.8S-47.8,492.9-48.3,492.1
		L-48.3,492.1z"/>
	<path class="st0" d="M-13.6,493.7c0,0.5-0.3,0.8-0.8,0.8h-2.9c-0.5,0-0.8-0.3-0.8-0.8v-15.2h-8.4v15.2c0,0.2-0.1,0.4-0.2,0.5
		s-0.3,0.2-0.6,0.2H-30c-0.5,0-0.8-0.3-0.8-0.8v-18.1c0-0.5,0.3-0.8,0.8-0.8h15.6c0.3,0,0.5,0.1,0.6,0.2c0.1,0.1,0.2,0.3,0.2,0.6
		C-13.6,475.5-13.6,493.7-13.6,493.7z"/>
	<path class="st0" d="M7.4,489.7c0,0.8,0.1,1.2,0.2,1.4c0.2,0.2,0.5,0.3,1.1,0.3c0.3,0,0.5,0.1,0.6,0.2c0.1,0.1,0.1,0.2,0.1,0.4v1.7
		c0,0.5-0.3,0.7-0.9,0.8c-0.3,0.1-0.6,0.1-1,0.1c-0.3,0-0.6,0.1-0.9,0.1c-1,0-1.7-0.2-2.3-0.5c-0.6-0.3-0.9-1-1.1-1.9H3.1
		c-1,0.8-2.1,1.4-3.2,1.9s-2.2,0.7-3.4,0.7c-1.3,0-2.3-0.2-3.2-0.7s-1.5-1.1-2-2s-0.8-1.9-1-3.1c-0.2-1.2-0.3-2.6-0.3-4.1
		s0.2-3,0.5-4.2c0.3-1.3,0.8-2.4,1.4-3.3c0.7-0.9,1.5-1.6,2.5-2.1s2.2-0.8,3.5-0.8c0.6,0,1.4,0.1,2.4,0.3c0.9,0.2,1.9,0.6,2.8,1.2
		h0.1v-0.4c0-0.3,0-0.5,0.1-0.6s0.3-0.2,0.6-0.2h2.7c0.3,0,0.5,0.1,0.6,0.2s0.1,0.3,0.1,0.6L7.4,489.7L7.4,489.7z M-5.6,484.9
		c0,1.3,0.1,2.3,0.2,3.1c0.1,0.8,0.3,1.4,0.6,1.8c0.3,0.4,0.6,0.7,1,0.9c0.4,0.2,0.9,0.2,1.4,0.2c0.4,0,0.9-0.1,1.3-0.2
		c0.4-0.1,1-0.3,1.5-0.5c0.5-0.2,1-0.4,1.4-0.6s0.8-0.4,1.1-0.6v-9.6c-0.9-0.4-1.7-0.6-2.5-0.8c-0.8-0.2-1.4-0.2-1.7-0.2
		c-1.4,0-2.5,0.5-3.3,1.5C-5.2,480.9-5.6,482.6-5.6,484.9z"/>
	<path class="st0" d="M11.3,472.2c-0.5,0-0.9-0.1-1.2-0.2c-0.3-0.1-0.5-0.3-0.7-0.5c-0.2-0.2-0.3-0.5-0.3-0.7c0-0.3-0.1-0.5-0.1-0.8
		c0-0.6,0.1-1.1,0.4-1.5c0.3-0.4,0.9-0.6,1.8-0.6c0.9,0,1.5,0.2,1.8,0.6c0.3,0.4,0.4,0.9,0.4,1.5s-0.1,1.1-0.4,1.6
		C12.8,472,12.2,472.2,11.3,472.2z M17.2,493.7c0,0.2,0,0.4-0.1,0.5s-0.3,0.2-0.6,0.2h-2.8c-0.5,0-0.8-0.3-0.8-0.8v-18.1
		c0-0.5,0.3-0.8,0.8-0.8h2.8c0.3,0,0.5,0.1,0.6,0.2c0.1,0.1,0.1,0.3,0.1,0.5V493.7z M19,472.2c-1,0-1.6-0.2-1.8-0.7
		c-0.3-0.5-0.4-1-0.4-1.6s0.1-1.1,0.4-1.5c0.3-0.4,0.9-0.6,1.8-0.6c0.9,0,1.5,0.2,1.8,0.6c0.3,0.4,0.4,0.9,0.4,1.5s-0.1,1.1-0.4,1.6
		C20.6,472,20,472.2,19,472.2z"/>
	<path class="st0" d="M26.8,482.1l3-3.2l3.3-3.4c0.2-0.2,0.4-0.4,0.6-0.5c0.2-0.1,0.5-0.2,0.8-0.2h3.2c0.4,0,0.6,0.1,0.7,0.3
		c0.1,0.2,0,0.4-0.2,0.6l-6.4,6.5l7.2,11.3c0.1,0.2,0.2,0.5,0.1,0.6c-0.1,0.2-0.3,0.3-0.6,0.3h-3.2c-0.4,0-0.7-0.1-0.9-0.2
		c-0.2-0.1-0.3-0.3-0.5-0.6l-5-8.2l-2.2,2.3v5.9c0,0.2-0.1,0.4-0.2,0.5c-0.1,0.1-0.3,0.2-0.6,0.2H23c-0.5,0-0.8-0.3-0.8-0.8v-18
		c0-0.5,0.3-0.8,0.8-0.8h2.8c0.3,0,0.5,0.1,0.6,0.2s0.2,0.3,0.2,0.6v6.4L26.8,482.1z"/>
	<path class="st0" d="M58.5,493.7c0,0.2-0.1,0.4-0.2,0.6c-0.1,0.1-0.3,0.2-0.6,0.2h-2.9c-0.5,0-0.8-0.3-0.8-0.8v-11.2
		c0-1.2-0.2-2.1-0.6-2.8c-0.4-0.7-1.2-1.1-2.3-1.1c-0.4,0-0.9,0.1-1.4,0.2s-1,0.3-1.6,0.5c-0.5,0.2-1,0.4-1.5,0.6
		c-0.5,0.2-0.8,0.4-1.1,0.5v13.4c0,0.5-0.3,0.8-0.8,0.8h-2.8c-0.5,0-0.8-0.3-0.8-0.8v-18c0-0.5,0.3-0.8,0.8-0.8h2.8
		c0.5,0,0.8,0.3,0.8,0.8v1.2c0,0,0,0,0.1,0c0,0,0,0,0.1,0c0.4-0.3,0.8-0.5,1.3-0.8c0.5-0.3,1.1-0.5,1.7-0.8c0.6-0.2,1.2-0.4,1.8-0.6
		c0.6-0.1,1.3-0.2,1.9-0.2c1.4,0,2.4,0.2,3.2,0.6c0.8,0.4,1.4,1,1.8,1.7c0.4,0.7,0.7,1.5,0.8,2.4s0.2,1.9,0.2,2.9v11.5H58.5z
		 M53.6,466.1c0.4,0.2,0.5,0.5,0.2,0.9l-4,5.6c-0.1,0.1-0.2,0.2-0.3,0.3s-0.2,0-0.5,0l-1.6-0.7c-0.3-0.2-0.3-0.4-0.2-0.8l3.2-6.2
		c0.2-0.3,0.5-0.4,0.9-0.2L53.6,466.1z"/>
	<path class="st0" d="M74.6,468.7c0-0.5,0.3-0.8,0.8-0.8h14.7c0.5,0,0.8,0.3,0.8,0.8v2.5c0,0.5-0.3,0.7-0.8,0.7H79.2v6.9h9.7
		c0.5,0,0.8,0.2,0.8,0.7v2.5c0,0.5-0.3,0.7-0.8,0.7h-9.7v7.9h11.2c0.5,0,0.7,0.3,0.7,0.8v2.4c0,0.5-0.3,0.7-0.8,0.7H75.4
		c-0.5,0-0.8-0.2-0.8-0.7V468.7z"/>
	<path class="st0" d="M112.1,493.7c0,0.5-0.3,0.8-0.8,0.8h-2.9c-0.5,0-0.8-0.3-0.8-0.8v-15.2h-8.4v15.2c0,0.2-0.1,0.4-0.2,0.5
		c-0.1,0.1-0.3,0.2-0.6,0.2h-2.8c-0.5,0-0.8-0.3-0.8-0.8v-18.1c0-0.5,0.3-0.8,0.8-0.8h15.6c0.3,0,0.5,0.1,0.6,0.2
		c0.1,0.1,0.2,0.3,0.2,0.6L112.1,493.7L112.1,493.7z"/>
	<path class="st0" d="M121.2,493.7c0,0.2,0,0.4-0.1,0.5s-0.3,0.2-0.6,0.2h-2.8c-0.5,0-0.8-0.3-0.8-0.8v-18.1c0-0.5,0.3-0.8,0.8-0.8
		h2.8c0.3,0,0.5,0.1,0.6,0.2c0.1,0.1,0.1,0.3,0.1,0.5V493.7z"/>
	<path class="st0" d="M138.2,474.9c0.3,0,0.5,0.1,0.6,0.2s0.1,0.3,0.1,0.6v2.1c0,0.3,0,0.5-0.1,0.6s-0.3,0.2-0.6,0.2h-4.8v9.7
		c0,0.7,0.1,1.3,0.2,1.6c0.1,0.4,0.4,0.6,0.8,0.8c0.4,0.1,0.9,0.2,1.5,0.2s1.4-0.1,2.3-0.1c0.3,0,0.6,0,0.7,0
		c0.1,0.1,0.2,0.2,0.3,0.5l0.3,1.7c0,0.5-0.1,0.8-0.5,1c-0.3,0.2-0.7,0.3-1.2,0.4c-0.4,0.1-0.9,0.2-1.3,0.3
		c-0.5,0.1-0.9,0.1-1.3,0.1s-0.8,0-1.1,0c-1,0-1.8-0.1-2.4-0.3c-0.6-0.2-1.1-0.6-1.5-1s-0.7-0.9-0.8-1.5c-0.2-0.6-0.2-1.3-0.2-2
		v-11.4h-3.9c-0.5,0-0.8-0.3-0.8-0.8v-2.1c0-0.5,0.3-0.8,0.8-0.8H138.2z"/>
	<path class="st0" d="M159.2,484.6c0,1.6-0.1,3.1-0.4,4.3c-0.2,1.3-0.7,2.3-1.3,3.2c-0.6,0.9-1.4,1.6-2.5,2s-2.4,0.7-4,0.7
		c-0.6,0-1.4-0.1-2.3-0.2c-0.9-0.1-1.8-0.4-2.7-0.7v7.1c0,0.2,0,0.4-0.1,0.6s-0.3,0.2-0.6,0.2h-2.8c-0.3,0-0.5-0.1-0.6-0.2
		s-0.1-0.3-0.1-0.6v-16.5c0-3.4,0.8-5.9,2.3-7.6s3.6-2.5,6.4-2.5c1.6,0,3,0.2,4.1,0.7s2,1.2,2.7,2c0.7,0.9,1.2,1.9,1.5,3.2
		C159.1,481.7,159.2,483.1,159.2,484.6z M154.7,484.5c0-1.2-0.1-2.2-0.3-3c-0.2-0.8-0.5-1.4-0.9-1.9s-0.8-0.8-1.3-1
		c-0.5-0.2-1.1-0.3-1.7-0.3c-1,0-1.8,0.2-2.4,0.6c-0.6,0.4-1,0.9-1.3,1.5s-0.5,1.3-0.5,2c-0.1,0.7-0.1,1.4-0.1,2.1v5.8
		c0.9,0.2,1.7,0.4,2.4,0.5c0.7,0.1,1.5,0.1,2.1,0.1c0.7,0,1.3-0.1,1.8-0.3c0.5-0.2,0.9-0.5,1.2-1c0.3-0.5,0.6-1.2,0.7-2
		C154.6,486.9,154.7,485.8,154.7,484.5z"/>
	<path class="st0" d="M180.2,484.4c0,1.1-0.1,2.3-0.2,3.6c-0.1,1.2-0.5,2.4-1.1,3.4s-1.5,1.9-2.6,2.5c-1.2,0.7-2.8,1-4.9,1
		c-2,0-3.6-0.3-4.7-1c-1.1-0.7-2-1.5-2.6-2.5s-0.9-2.2-1.1-3.4c-0.1-1.2-0.2-2.4-0.2-3.6c0-0.9,0.1-2,0.3-3.1
		c0.2-1.1,0.6-2.2,1.1-3.2c0.6-1,1.4-1.8,2.6-2.5c1.2-0.7,2.7-1,4.6-1s3.5,0.3,4.6,0.9c1.2,0.6,2,1.4,2.7,2.3c0.6,0.9,1,2,1.2,3.2
		C180.1,482,180.2,483.2,180.2,484.4z M175.7,484.7c0-1.1-0.1-2-0.2-2.8c-0.1-0.8-0.3-1.4-0.6-2s-0.8-0.9-1.3-1.2
		c-0.6-0.3-1.3-0.4-2.2-0.4c-0.9,0-1.5,0.1-2.1,0.4c-0.5,0.3-1,0.7-1.3,1.2s-0.5,1.2-0.6,2c-0.1,0.8-0.2,1.7-0.2,2.7
		c0,1.1,0.1,2,0.2,2.8c0.1,0.8,0.3,1.4,0.6,2c0.3,0.5,0.7,0.9,1.2,1.2c0.5,0.3,1.2,0.4,2.1,0.4s1.6-0.1,2.2-0.4s1-0.6,1.3-1.2
		c0.3-0.6,0.5-1.2,0.6-2C175.5,486.6,175.7,485.7,175.7,484.7z"/>
	<path class="st0" d="M201.2,493.7c0,0.5-0.3,0.8-0.8,0.8h-2.9c-0.5,0-0.8-0.3-0.8-0.8v-15.2h-8.4v15.2c0,0.2-0.1,0.4-0.2,0.5
		s-0.3,0.2-0.6,0.2h-2.8c-0.5,0-0.8-0.3-0.8-0.8v-18.1c0-0.5,0.3-0.8,0.8-0.8h15.6c0.3,0,0.5,0.1,0.6,0.2c0.1,0.1,0.2,0.3,0.2,0.6
		L201.2,493.7L201.2,493.7z"/>
	<path class="st0" d="M222.4,493.7c0,0.2-0.1,0.4-0.2,0.6c-0.1,0.1-0.3,0.2-0.6,0.2h-2.9c-0.5,0-0.8-0.3-0.8-0.8v-11.2
		c0-1.2-0.2-2.1-0.6-2.8c-0.4-0.7-1.2-1.1-2.3-1.1c-0.4,0-0.9,0.1-1.4,0.2s-1,0.3-1.6,0.5c-0.5,0.2-1,0.4-1.5,0.6
		c-0.5,0.2-0.8,0.4-1.1,0.5v13.4c0,0.5-0.3,0.8-0.8,0.8H206c-0.5,0-0.8-0.3-0.8-0.8v-18c0-0.5,0.3-0.8,0.8-0.8h2.8
		c0.5,0,0.8,0.3,0.8,0.8v1.2c0,0,0,0,0.1,0c0,0,0,0,0.1,0c0.4-0.3,0.8-0.5,1.3-0.8c0.5-0.3,1.1-0.5,1.7-0.8c0.6-0.2,1.2-0.4,1.8-0.6
		c0.6-0.1,1.3-0.2,1.9-0.2c1.4,0,2.4,0.2,3.2,0.6c0.8,0.4,1.4,1,1.8,1.7c0.4,0.7,0.7,1.5,0.8,2.4c0.1,0.9,0.2,1.9,0.2,2.9
		L222.4,493.7L222.4,493.7z M217.5,466.1c0.4,0.2,0.5,0.5,0.2,0.9l-4,5.6c-0.1,0.1-0.2,0.2-0.3,0.3c-0.1,0.1-0.2,0-0.5,0l-1.6-0.7
		c-0.3-0.2-0.3-0.4-0.2-0.8l3.2-6.2c0.2-0.3,0.5-0.4,0.9-0.2L217.5,466.1z"/>
</g>
<g>
	<path class="st1" d="M-39.3,378.7c0,0,62.2-8.1,64-8.4c2.7-0.4,5.1-1,7.3-1.6c5-1.4,9.7-3.5,13.8-6.3c3.9-2.7,7.6-6.5,11.2-10.8
		c2.3-2.7,4.7-6.2,7-9.6v-1.7c-2.7,4-5.3,7.5-8,10.5c-3.6,4-7.4,7.4-11.2,9.8c-4,2.6-8.4,4.5-13.3,5.7c-2.2,0.6-4.5,1-7.1,1.4
		c-1.7,0.2-3.5,0.4-5.2,0.6c-0.7,0.1-58.4,6.3-58.4,6.3L-39.3,378.7L-39.3,378.7z"/>
	<path class="st1" d="M44.2,368.2c-3.9,2.3-8.4,3.9-13.4,4.9c-2.1,0.4-4.4,0.8-7.1,1.1c-1.6,0.2-3.1,0.3-4.7,0.4
		c-0.8,0.1-1.7,0.1-2.5,0.2c-19.1,1.7-38,3.6-55.8,5.3v4.2c17.9-2.2,37-4.5,56.1-6.7c0.8-0.1,1.7-0.2,2.5-0.3
		c1.6-0.2,3.1-0.3,4.7-0.6c2.7-0.4,5.1-0.8,7.3-1.3c5.2-1.2,9.8-3,13.9-5.5c4-2.4,7.6-5.8,11.4-10c2.4-2.6,5-6.3,7.5-9.7v-1.4
		c-2.9,4-5.7,7.3-8.4,10.2C51.9,362.9,48,366,44.2,368.2"/>
	<path class="st1" d="M55.1,367.2c-3.8,3.5-7.8,6.3-11.8,8.2c-3.9,1.9-8.3,3.3-13.5,4.1c-2.1,0.4-4.4,0.6-7,0.9l-62.1,5.2v4.1
		l55.2-5.9L23,383c2.7-0.3,5-0.7,7.2-1.1c5.3-1,9.9-2.5,13.9-4.6c4.1-2.1,8.3-5.6,12.1-9.4c2.6-2.5,5.1-5.7,7.7-9.1v-1.4
		C60.9,361.3,58,364.5,55.1,367.2"/>
	<path class="st1" d="M40.1,388.3c-3.6,2-6.3,3.2-11.5,3.8c-3.1,0.3-6.3,0.5-9.4,0.7c-1.5,0.1-3,0.2-4.5,0.2
		c-9.4,0.5-18.6,1.1-28,1.8l-25.9,1.8v4.1l26.2-2.4c8.5-0.8,18.3-1.7,27.9-2.4l7-0.5c2.7-0.2,5-0.4,7-0.7c5.3-0.7,9.8-1.8,13.9-3.3
		c4.3-1.6,8.4-4.2,12.5-7.2c3.7-2.7,8.8-8,8.8-8.1v-1.4c-3.3,3.3-5.3,5.1-8.9,7.6C50.7,385,43.3,386.5,40.1,388.3"/>
	<path class="st1" d="M41.4,396.1c-3.9,1.2-8.3,1.9-13.5,2.4c-2.1,0.2-4.3,0.3-6.9,0.4l-6.9,0.3c-17.3,0.8-34.4,1.7-53.4,2.7v4.1
		c18.1-1.4,35.8-2.8,53.5-4.1l6.9-0.5c2.7-0.2,4.9-0.4,7-0.6c5.3-0.6,9.8-1.5,13.8-2.8c4.4-1.4,8.8-3.5,12.9-6.1
		c3-1.9,6.1-4.3,9.2-7v-0.1c-3.5,3-6.8,3.6-10,5.7C49.9,392.9,45.7,394.8,41.4,396.1"/>
	<path class="st1" d="M40.7,402.8c-3.9,0.9-8.2,1.5-13.5,1.9c-2,0.1-4.2,0.2-6.8,0.3l-6.9,0.2c-17.3,0.7-34.9,1.4-52.9,2.2v4.1
		c17.8-1.2,35.3-2.4,53-3.5l6.9-0.4c2.7-0.2,4.9-0.3,6.9-0.5c5.3-0.5,9.7-1.2,13.7-2.3c4.5-1.2,8.9-2.9,13.1-5.1
		c3.2-1.7,6.4-3.8,9.7-6.3v-1.7c-3.6,2.6-7,4.8-10.5,6.5C49.5,400.2,45.1,401.8,40.7,402.8"/>
	<path class="st1" d="M40.1,409.4c-4,0.7-8.2,1.2-13.4,1.5c-2,0.1-4,0.2-6.8,0.2l-59.2,1.6v4.1l52.5-2.8l6.8-0.3
		c2.7-0.1,4.8-0.3,6.8-0.4c5.3-0.4,9.6-1,13.6-1.8c4.6-1,9-2.4,13.2-4.2c3.4-1.4,6.8-3.2,10.3-5.4v-1.6c-3.8,2.2-7.3,4-10.9,5.4
		C49,407.4,44.6,408.6,40.1,409.4"/>
	<path class="st1" d="M39.7,416.1c-7.3,1-14.8,1.1-22,1.2c-1.7,0-3.3,0-5,0.1l-52,0.9v4.1l52.1-2.3c1.7-0.1,3.3-0.1,5-0.2
		c7.3-0.3,14.8-0.6,22.2-1.8c4.7-0.7,9.2-1.8,13.3-3.3c3.5-1.2,7.1-2.7,10.7-4.5v-1.6c-3.8,1.8-7.6,3.3-11.2,4.4
		C48.7,414.5,44.2,415.5,39.7,416.1"/>
	<path class="st1" d="M39.3,422.8c-6.8,0.6-13.8,0.6-20.5,0.6c-2.1,0-4.2,0-6.3,0c-17.2,0.1-34.3,0.2-51.7,0.4v4.1
		c16.6-0.6,34.2-1.2,51.8-1.7c2.1-0.1,4.2-0.1,6.3-0.2c6.8-0.2,13.8-0.4,20.7-1.1c4.8-0.5,9.2-1.3,13.4-2.3
		c3.7-0.9,7.4-2.1,11.2-3.6v-1.5c-3.9,1.4-7.8,2.6-11.5,3.4C48.3,421.7,44,422.4,39.3,422.8"/>
	<path class="st1" d="M39,429.4c-2.8,0.1-5.9,0.2-9.4,0.2c-1.3,0-2.6,0-3.9,0l-13.4-0.3c-9.2,0-18.3,0-26.8,0h-24.7v4l24.8-0.7
		c8.5-0.2,17.7-0.4,26.8-0.6l13.4-0.2c3.7-0.1,8.5-0.2,13.4-0.5c4.8-0.3,9.2-0.8,13.4-1.5c3.8-0.6,7.6-1.4,11.5-2.4V426
		c-4,0.9-7.9,1.7-11.7,2.2C48.1,428.8,43.8,429.2,39,429.4"/>
	<path class="st1" d="M25.5,435.7l-13.4-0.1c-17-0.2-34.1-0.6-51.4-0.9v4.1c16.6-0.1,34.1-0.2,51.4-0.4l13.4-0.2
		c4.5-0.1,8.9-0.2,13.4-0.3c9.2-0.3,17.4-1,25.1-2v-1.4c-7.7,0.8-16,1.3-25.1,1.3C34.4,435.8,30,435.8,25.5,435.7"/>
	<polygon class="st1" points="64,442.9 -39.3,440.3 -39.3,444.3 64,444.3 	"/>
	<path class="st1" d="M54.7,374.8c-3.9,3.2-7,5.5-11.8,7.4c-4.2,1.7-8.7,2.4-13.8,3.1c-3.3,0.5-6.8,1.2-10.1,1.4
		c-1.4,0.1-2.7,0.2-4.1,0.3l-54.3,4v4.1l54.5-5.3l7.1-0.7c2.6-0.3,4.9-0.5,7.1-0.9c5.3-0.9,9.8-2.2,13.9-4c4.2-1.9,8.5-5,12.5-8.4
		c2.7-2.3,5.3-5.2,8.2-8.4v-1.5C60.6,369.5,57.7,372.4,54.7,374.8"/>
	<path class="st1" d="M108,340.3c0,0,18.6,29.7,22,35.2c3.4,5.4,7.3,9.8,21,12.7c13.8,2.9,19.7,4.3,19.7,4.3v1.1c0,0-8.7-1.9-20-4.4
		c-11.2-2.5-15.8-3.4-21-10.5c-4.2-6.1-21.7-31.4-21.7-31.4V340.3z"/>
	<path class="st1" d="M108,374.2c0,0,16.9,17.8,21.8,22.9c5.2,5.4,11.8,7.4,21.1,9.1c8.8,1.6,19.9,3.4,19.9,3.4v1
		c0,0-10.4-1.7-19.9-3.3c-9.3-1.6-15.8-2.5-21.1-7.4c-4.8-4.4-21.8-20.4-21.8-20.4L108,374.2L108,374.2z"/>
	<path class="st1" d="M108,382.2c0,0,16.1,15,21.8,20.1c5.3,4.7,9.5,6.2,21.1,8.2c11.6,2.1,19.8,3.3,19.8,3.3v1.1
		c0,0-10.5-1.7-19.9-3.2s-15.4-2.1-21.1-6.7c-6.5-5.3-21.8-17.9-21.8-17.9v-4.9H108z"/>
	<path class="st1" d="M108,390.8c0,0,18.4,14.6,21.8,17.2c3.4,2.6,8,5.5,21.2,7.5c13,1.8,19.7,2.8,19.7,2.8v1.1
		c0,0-11.9-1.7-19.8-2.7s-14-1.4-21.1-6.2c-6.9-4.6-21.8-15.2-21.8-15.2V390.8z"/>
	<path class="st1" d="M108,399c0,0,18.4,12.3,21.9,14.3c3.5,1.9,7.6,5.1,21.1,6.8c13.5,1.7,19.8,2.5,19.8,2.5v1.1
		c0,0-11.1-1.2-19.8-2.2c-8.7-0.9-14.6-2.2-21.1-5.8c-6.5-3.6-21.8-12.6-21.8-12.6L108,399L108,399z"/>
	<path class="st1" d="M108,407.2c0,0,16.3,8.9,21.8,11.7c6.2,3.1,11.5,4.6,21.1,5.7c9.5,1.1,19.8,2.2,19.8,2.2v1c0,0-9.6-1-19.8-2
		c-10.2-1-13.8-1.4-21.1-4.7C123.2,418.2,108,411,108,411L108,407.2L108,407.2z"/>
	<path class="st1" d="M108,415.5c0,0,12.9,5.5,21.9,9.1c8.9,3.5,15.7,3.8,21.1,4.5c2.4,0.3,19.7,2.1,19.7,2.1v1
		c0,0-10.4-0.8-19.8-1.7c-9.4-0.8-13.5-1.2-21.1-3.7c-7.7-2.6-21.8-7.5-21.8-7.5V415.5z"/>
	<path class="st1" d="M108,424c0,0,13,4,21.9,6.4c8.9,2.3,17,3.3,21.1,3.6c4.1,0.3,19.8,1.6,19.8,1.6v0.9c0,0-8.9-0.6-19.8-1.4
		c-8.8-0.6-15.9-1.3-21.1-2.4c-5.8-1.3-21.8-5.1-21.8-5.1L108,424L108,424z"/>
	<path class="st1" d="M108,432.4c0,0,10.6,1.8,21.9,3.7c8.4,1.4,19.8,2.3,21.1,2.3c1.2,0.1,19.8,1.3,19.8,1.3v1
		c0,0-11.9-0.6-19.8-1.1c-8.3-0.5-16.5-1-21.1-1.4c-10.4-1.1-21.8-2.5-21.8-2.5L108,432.4L108,432.4z"/>
	<path class="st1" d="M108,441c0,0,16.8,0.6,21.9,0.7c5.1,0.1,40.9,1.6,40.9,1.6v1H108V441z"/>
	<path class="st1" d="M150.9,392.7c-15.2-3.3-18.6-8.9-21.2-12.3c-2.5-3.4-21.7-31.6-21.7-31.6v6.4c0.8,1,17.2,22.6,21.8,28.5
		c5.2,6.7,13.4,8.2,21.1,9.9c7.8,1.7,19.8,4,19.8,4v-0.9C170.7,396.7,154.8,393.6,150.9,392.7"/>
	<path class="st1" d="M150.9,397.2c-12.5-2.4-17.5-6.4-21.2-11.2c-3.6-4.8-21.7-28.7-21.7-28.7v6c0.8,0.9,17.3,20.6,21.8,25.7
		c5.2,6,12.4,7.5,21.2,9.1c8.8,1.6,19.8,3.7,19.8,3.7v-0.9C170.7,401,158.1,398.6,150.9,397.2"/>
	<path class="st1" d="M150.9,401.8c-13-2.5-15.6-4.6-21.1-10.6c-3.4-3.8-21.1-24.7-21.8-25.5v5.6c0,0,16.5,17.6,21.8,22.8
		c6.9,6.8,13.5,7.3,21.2,8.7s19.8,3.6,19.8,3.6v-0.9C170.7,405.4,156.1,402.8,150.9,401.8"/>
	<rect x="3.6" y="383.6" class="st2" width="90.5" height="60.7"/>
	<polygon class="st3" points="49.9,392.2 53,392.2 50.5,394.2 51.5,397.3 48.9,395.4 46.4,397.3 47.4,394.2 44.8,392.2 48,392.2 
		48.9,389.1 	"/>
	<polygon class="st3" points="50,432.7 53.1,432.7 50.6,434.6 51.6,437.6 49.1,435.8 46.5,437.6 47.5,434.6 45,432.7 48.1,432.7 
		49.1,429.7 	"/>
	<polygon class="st3" points="60,430 63.1,430 60.6,431.9 61.6,435 59,433.1 56.5,435 57.5,431.9 54.9,430 58.1,430 59,427.1 	"/>
	<polygon class="st3" points="60,394.9 63.1,394.9 60.6,396.8 61.6,399.8 59,398 56.5,399.8 57.5,396.8 54.9,394.9 58.1,394.9 
		59,391.9 	"/>
	<polygon class="st3" points="67.4,402.3 70.5,402.3 68,404.2 69,407.3 66.4,405.4 63.9,407.3 64.9,404.2 62.4,402.3 65.5,402.3 
		66.4,399.4 	"/>
	<polygon class="st3" points="67.4,422.7 70.5,422.7 68,424.6 69,427.6 66.4,425.8 63.9,427.6 64.9,424.6 62.4,422.7 65.5,422.7 
		66.4,419.7 	"/>
	<polygon class="st3" points="70.2,412.4 73.3,412.4 70.8,414.3 71.8,417.3 69.2,415.4 66.7,417.3 67.7,414.3 65.1,412.4 
		68.3,412.4 69.2,409.4 	"/>
	<polygon class="st3" points="39.7,394.9 42.8,394.9 40.3,396.8 41.3,399.9 38.8,398 36.2,399.9 37.2,396.8 34.7,394.9 37.8,394.9 
		38.8,392 	"/>
	<polygon class="st3" points="32.5,402.4 35.6,402.4 33.1,404.3 34.1,407.3 31.6,405.4 29,407.3 30,404.3 27.5,402.4 30.6,402.4 
		31.6,399.4 	"/>
	<polygon class="st3" points="29.8,412.4 33,412.4 30.4,414.3 31.4,417.3 28.9,415.5 26.3,417.3 27.3,414.3 24.8,412.4 27.9,412.4 
		28.9,409.4 	"/>
	<polygon class="st3" points="32.5,422.7 35.6,422.7 33.1,424.6 34.1,427.7 31.6,425.8 29,427.7 30,424.6 27.5,422.7 30.6,422.7 
		31.6,419.8 	"/>
	<polygon class="st3" points="39.8,430 42.9,430 40.4,432 41.4,435 38.9,433.1 36.3,435 37.3,432 34.8,430 37.9,430 38.9,427.1 	"/>
</g>
</svg>
