<?xml version="1.0" encoding="utf-8"?>
<!-- Generator: Adobe Illustrator 19.1.0, SVG Export Plug-In . SVG Version: 6.00 Build 0)  -->
<svg version="1.1" id="Layer_1" xmlns="http://www.w3.org/2000/svg" xmlns:xlink="http://www.w3.org/1999/xlink" x="0px" y="0px"
	 viewBox="-75.9 127.7 450 164" style="enable-background:new -75.9 127.7 450 164;" xml:space="preserve">
<style type="text/css">
	.st0{fill:#404040;}
	.st1{fill:#BCBEC0;}
	.st2{fill:#0D4F9E;}
	.st3{fill:#FAEA27;}
</style>
<g>
	<path class="st0" d="M0,257.3c0-0.5,0.3-0.8,0.8-0.8h14.7c0.5,0,0.8,0.3,0.8,0.8v2.5c0,0.5-0.3,0.7-0.8,0.7H4.6v6.9h9.7
		c0.5,0,0.8,0.2,0.8,0.7v2.5c0,0.5-0.3,0.7-0.8,0.7H4.6v7.9h11.2c0.5,0,0.7,0.3,0.7,0.8v2.4c0,0.5-0.3,0.7-0.8,0.7H0.8
		c-0.5,0-0.8-0.2-0.8-0.7V257.3z"/>
	<path class="st0" d="M36.6,283.1h-2.8c-0.3,0-0.5-0.1-0.6-0.2s-0.2-0.3-0.2-0.6v-1.2h-0.1c-0.4,0.3-0.9,0.5-1.4,0.8
		c-0.5,0.3-1.1,0.5-1.7,0.8c-0.6,0.2-1.2,0.4-1.8,0.6c-0.6,0.1-1.2,0.2-1.9,0.2c-1.4,0-2.4-0.2-3.2-0.6c-0.8-0.4-1.4-0.9-1.8-1.6
		s-0.7-1.5-0.8-2.4c-0.1-0.9-0.2-1.9-0.2-2.9v-11.8c0-0.5,0.3-0.8,0.8-0.8H24c0.5,0,0.7,0.3,0.7,0.8v11.2c0,0.6,0,1.2,0.1,1.6
		c0.1,0.5,0.2,0.9,0.4,1.2c0.2,0.3,0.5,0.6,0.9,0.8c0.4,0.2,0.9,0.3,1.5,0.3c0.4,0,0.9-0.1,1.4-0.2s1-0.3,1.5-0.5
		c0.5-0.2,1-0.4,1.4-0.6c0.4-0.2,0.8-0.4,1-0.5v-13.4c0-0.2,0.1-0.4,0.2-0.6c0.1-0.1,0.3-0.2,0.6-0.2h2.8c0.5,0,0.8,0.3,0.8,0.8v18
		C37.4,282.8,37.1,283.1,36.6,283.1z"/>
	<path class="st0" d="M46.8,282.3c0,0.5-0.3,0.8-0.8,0.8h-2.9c-0.5,0-0.8-0.3-0.8-0.8v-18c0-0.5,0.3-0.8,0.8-0.8H46
		c0.5,0,0.8,0.3,0.8,0.8v1.8l0.1,0.1c0.3-0.3,0.7-0.6,1.2-0.9s1-0.6,1.5-0.8c0.5-0.3,1.1-0.5,1.7-0.7c0.6-0.2,1.1-0.4,1.6-0.4
		c0.3-0.1,0.5,0,0.6,0c0.2,0.1,0.3,0.3,0.3,0.6l0.3,2.7c0,0.3,0,0.5,0,0.6c-0.1,0.1-0.3,0.2-0.7,0.3c-0.6,0.1-1.1,0.2-1.8,0.4
		c-0.6,0.1-1.2,0.3-1.8,0.5c-0.6,0.2-1.1,0.3-1.6,0.5c-0.5,0.2-0.9,0.3-1.3,0.5L46.8,282.3L46.8,282.3z"/>
	<path class="st0" d="M73.2,273c0,1.1-0.1,2.3-0.2,3.6c-0.1,1.2-0.5,2.4-1.1,3.4s-1.5,1.9-2.6,2.5c-1.2,0.7-2.8,1-4.9,1
		c-2,0-3.6-0.3-4.7-1c-1.1-0.7-2-1.5-2.6-2.5s-0.9-2.2-1.1-3.4c-0.1-1.2-0.2-2.4-0.2-3.6c0-0.9,0.1-2,0.3-3.1s0.6-2.2,1.1-3.2
		c0.6-1,1.4-1.8,2.6-2.5c1.1-0.7,2.7-1,4.6-1s3.5,0.3,4.6,0.9c1.2,0.6,2,1.4,2.7,2.3c0.6,0.9,1,2,1.2,3.2
		C73.1,270.6,73.2,271.8,73.2,273z M68.8,273.3c0-1.1-0.1-2-0.2-2.8c-0.1-0.8-0.3-1.4-0.6-2c-0.3-0.5-0.8-0.9-1.3-1.2
		c-0.5-0.3-1.3-0.4-2.2-0.4c-0.9,0-1.5,0.1-2.1,0.4c-0.5,0.3-1,0.7-1.3,1.2s-0.5,1.2-0.6,2c-0.1,0.8-0.2,1.7-0.2,2.7
		c0,1.1,0.1,2,0.2,2.8c0.1,0.8,0.3,1.4,0.6,2c0.3,0.5,0.7,0.9,1.2,1.2c0.5,0.3,1.2,0.4,2.1,0.4c0.9,0,1.6-0.1,2.2-0.4s1-0.6,1.3-1.2
		c0.3-0.5,0.5-1.2,0.6-2C68.7,275.3,68.8,274.3,68.8,273.3z M69.6,254.7c0.4,0.2,0.5,0.5,0.2,0.9l-4.1,5.6c-0.2,0.3-0.5,0.4-0.8,0.2
		l-1.6-0.7c-0.3-0.2-0.4-0.4-0.2-0.8l3.2-6.2c0.2-0.3,0.5-0.4,0.9-0.2L69.6,254.7z"/>
	<path class="st0" d="M94.4,273.2c0,1.6-0.1,3.1-0.4,4.4c-0.2,1.3-0.7,2.4-1.3,3.2c-0.6,0.9-1.4,1.5-2.4,2s-2.3,0.7-3.9,0.7
		c-0.7,0-1.4-0.1-2.3-0.2s-1.8-0.4-2.7-0.7l0,0v7c0,0.2,0,0.4-0.1,0.6c-0.1,0.2-0.3,0.2-0.6,0.2h-2.8c-0.3,0-0.5-0.1-0.6-0.2
		c-0.1-0.1-0.1-0.3-0.1-0.6v-25.4c0-0.5,0.3-0.8,0.8-0.8h2.8c0.3,0,0.5,0.1,0.6,0.2s0.1,0.3,0.1,0.6v1.2l0.1,0.1
		c0.3-0.2,0.8-0.5,1.3-0.8c0.5-0.3,1-0.5,1.6-0.8c0.6-0.2,1.1-0.4,1.7-0.6c0.6-0.2,1.2-0.2,1.8-0.2c1.3,0,2.4,0.2,3.2,0.7
		c0.9,0.5,1.5,1.2,2,2c0.5,0.9,0.8,1.9,1,3.1C94.3,270.3,94.4,271.7,94.4,273.2z M89.9,273.1c0-1.3-0.1-2.3-0.2-3.1
		c-0.1-0.8-0.3-1.4-0.6-1.8c-0.3-0.4-0.6-0.7-1-0.9c-0.4-0.1-0.8-0.2-1.4-0.2c-0.4,0-0.9,0.1-1.4,0.2c-0.5,0.1-1,0.3-1.5,0.5
		c-0.5,0.2-1,0.4-1.4,0.6s-0.8,0.4-1.1,0.6v10c0.9,0.3,1.7,0.4,2.5,0.5c0.7,0.1,1.4,0.1,2.1,0.1s1.3-0.1,1.8-0.3
		c0.5-0.2,0.9-0.6,1.2-1.1c0.3-0.5,0.5-1.2,0.7-2C89.9,275.4,89.9,274.4,89.9,273.1z"/>
	<path class="st0" d="M112.6,277.2c0,1.2-0.2,2.2-0.7,2.9c-0.5,0.8-1.1,1.4-1.8,1.9c-0.8,0.5-1.6,0.8-2.6,1c-1,0.2-2,0.3-3,0.3
		s-2.1-0.1-3.3-0.2c-1.2-0.1-2.1-0.4-2.9-0.7c-0.4-0.2-0.7-0.3-0.8-0.5c-0.1-0.2-0.1-0.5-0.1-0.8l0.3-1.3c0.1-0.3,0.2-0.5,0.3-0.6
		c0.2-0.1,0.4-0.1,0.7,0c0.4,0.1,0.9,0.1,1.4,0.2s1,0.1,1.6,0.1s1,0.1,1.5,0.1s0.9,0,1.2,0c1.3,0,2.2-0.2,2.8-0.5
		c0.6-0.4,0.8-0.9,0.8-1.7c0-0.5,0-0.8-0.1-1.1c-0.1-0.3-0.3-0.5-0.5-0.7c-0.2-0.2-0.6-0.3-1-0.5c-0.4-0.1-0.9-0.2-1.6-0.3
		c-1-0.1-1.9-0.3-2.8-0.5c-0.9-0.2-1.7-0.5-2.3-0.9c-0.7-0.4-1.2-1-1.6-1.6c-0.4-0.7-0.6-1.6-0.6-2.7c0-2,0.7-3.5,2.1-4.5
		s3.2-1.5,5.4-1.5c0.4,0,0.9,0,1.4,0s1.1,0.1,1.6,0.2c0.5,0.1,1.1,0.2,1.6,0.3s1,0.2,1.4,0.4c0.7,0.3,0.9,0.7,0.8,1.2l-0.3,1.4
		c-0.1,0.3-0.2,0.5-0.3,0.5c-0.1,0.1-0.4,0.1-0.8,0c-0.9-0.1-1.8-0.2-2.8-0.3s-1.9-0.1-2.6-0.1c-1.3,0-2.1,0.2-2.5,0.5
		c-0.4,0.4-0.6,0.9-0.6,1.7c0,0.8,0.3,1.3,0.8,1.5c0.5,0.2,1.4,0.5,2.6,0.6c1,0.1,1.9,0.3,2.7,0.5c0.9,0.2,1.6,0.5,2.3,1
		c0.7,0.4,1.2,1,1.6,1.7C112.4,275.1,112.6,276,112.6,277.2z"/>
	<path class="st0" d="M120.9,270.7l3.1-3.2l3.3-3.4c0.2-0.2,0.4-0.4,0.6-0.5c0.2-0.1,0.5-0.2,0.8-0.2h3.2c0.4,0,0.6,0.1,0.7,0.3
		c0.1,0.2,0,0.4-0.2,0.6l-6.4,6.6l7.2,11.3c0.1,0.2,0.2,0.5,0.1,0.6c-0.1,0.2-0.3,0.3-0.6,0.3h-3.1c-0.4,0-0.7-0.1-0.9-0.2
		c-0.2-0.1-0.3-0.3-0.5-0.6l-5.1-8.2l-2.3,2.3v5.9c0,0.2-0.1,0.4-0.2,0.5s-0.3,0.2-0.6,0.2h-2.8c-0.5,0-0.8-0.3-0.8-0.8v-26.7
		c0-0.5,0.3-0.8,0.8-0.8h2.8c0.3,0,0.5,0.1,0.6,0.2c0.1,0.1,0.2,0.3,0.2,0.6v15L120.9,270.7z"/>
	<path class="st0" d="M148,280.8c-1,0.8-2.2,1.4-3.4,1.9c-1.3,0.5-2.6,0.7-3.9,0.7c-1.1,0-2-0.1-2.7-0.4c-0.7-0.3-1.3-0.7-1.7-1.2
		s-0.7-1.1-0.9-1.8c-0.2-0.7-0.3-1.5-0.3-2.3c0-2.3,0.6-4,1.8-5.1c1.3-1.1,3.1-1.6,5.7-1.6h5.1v-1c0-0.6-0.1-1.1-0.2-1.5
		c-0.1-0.4-0.3-0.8-0.7-1c-0.3-0.3-0.7-0.5-1.3-0.6c-0.5-0.1-1.2-0.2-2-0.2c-0.3,0-0.7,0-1.2,0s-0.9,0.1-1.4,0.1s-1,0.1-1.5,0.1
		c-0.5,0.1-0.9,0.1-1.3,0.1c-0.4,0.1-0.7,0.1-0.8,0c-0.1,0-0.2-0.2-0.3-0.5l-0.4-1.5c-0.1-0.3,0-0.5,0.1-0.7
		c0.1-0.2,0.4-0.3,0.8-0.5c0.4-0.2,0.9-0.3,1.5-0.4s1.2-0.2,1.8-0.3s1.2-0.1,1.8-0.2c0.6,0,1.1-0.1,1.6-0.1c1.7,0,3.1,0.2,4.1,0.5
		c1,0.3,1.8,0.8,2.3,1.5c0.5,0.6,0.9,1.4,1,2.3c0.2,0.9,0.2,1.9,0.2,3v7.7c0,0.4,0,0.7,0.1,0.9c0,0.2,0.1,0.4,0.2,0.5
		c0.1,0.1,0.2,0.2,0.4,0.3s0.4,0.1,0.8,0.1c0.3,0,0.5,0.1,0.6,0.2c0.1,0.1,0.2,0.2,0.2,0.4v1.7c0,0.5-0.3,0.7-1,0.8
		c-0.3,0.1-0.6,0.1-1,0.1s-0.6,0.1-0.9,0.1c-0.9,0-1.7-0.2-2.3-0.5C148.7,282.4,148.3,281.8,148,280.8L148,280.8z M147.8,274.2h-4.9
		c-1,0-1.8,0.2-2.4,0.7c-0.6,0.5-0.9,1.4-0.9,2.7c0,0.9,0.2,1.5,0.5,1.8c0.4,0.3,1,0.5,1.9,0.5c0.4,0,0.9-0.1,1.4-0.2
		c0.5-0.1,1-0.3,1.5-0.4c0.5-0.2,1-0.4,1.5-0.6s0.9-0.4,1.3-0.7L147.8,274.2L147.8,274.2z"/>
	<path class="st0" d="M173.1,270.7l3.1-3.2l3.3-3.4c0.2-0.2,0.4-0.4,0.6-0.5c0.2-0.1,0.5-0.2,0.8-0.2h3.2c0.4,0,0.6,0.1,0.7,0.3
		c0.1,0.2,0,0.4-0.2,0.6l-6.4,6.5l7.2,11.3c0.1,0.2,0.2,0.5,0.1,0.6c-0.1,0.2-0.3,0.3-0.6,0.3h-3.1c-0.4,0-0.7-0.1-0.9-0.2
		c-0.2-0.1-0.3-0.3-0.5-0.6l-5.1-8.2l-2.3,2.3v5.9c0,0.2-0.1,0.4-0.2,0.5c-0.1,0.1-0.3,0.2-0.6,0.2h-2.8c-0.5,0-0.8-0.3-0.8-0.8
		v-26.7c0-0.5,0.3-0.8,0.8-0.8h2.8c0.3,0,0.5,0.1,0.6,0.2c0.1,0.1,0.2,0.3,0.2,0.6v15L173.1,270.7z"/>
	<path class="st0" d="M204.4,273c0,1.1-0.1,2.3-0.2,3.6c-0.1,1.2-0.5,2.4-1.1,3.4s-1.5,1.9-2.6,2.5c-1.2,0.7-2.8,1-4.9,1
		c-2,0-3.6-0.3-4.7-1c-1.1-0.7-2-1.5-2.6-2.5s-0.9-2.2-1.1-3.4c-0.1-1.2-0.2-2.4-0.2-3.6c0-0.9,0.1-2,0.3-3.1s0.6-2.2,1.1-3.2
		c0.6-1,1.4-1.8,2.6-2.5c1.1-0.7,2.7-1,4.6-1c1.9,0,3.5,0.3,4.6,0.9c1.2,0.6,2,1.4,2.7,2.3c0.6,0.9,1,2,1.2,3.2
		C204.3,270.6,204.4,271.8,204.4,273z M200,273.3c0-1.1-0.1-2-0.2-2.8c-0.1-0.8-0.3-1.4-0.6-2c-0.3-0.5-0.8-0.9-1.3-1.2
		c-0.5-0.3-1.3-0.4-2.2-0.4s-1.5,0.1-2.1,0.4c-0.5,0.3-1,0.7-1.3,1.2s-0.5,1.2-0.6,2c-0.1,0.8-0.2,1.7-0.2,2.7c0,1.1,0.1,2,0.2,2.8
		c0.1,0.8,0.3,1.4,0.6,2c0.3,0.5,0.7,0.9,1.2,1.2c0.5,0.3,1.2,0.4,2.1,0.4c0.9,0,1.6-0.1,2.2-0.4c0.6-0.3,1-0.6,1.3-1.2
		c0.3-0.5,0.5-1.2,0.6-2C199.9,275.3,200,274.3,200,273.3z"/>
	<path class="st0" d="M236.9,282.9c-0.1,0.1-0.3,0.2-0.6,0.2h-2.9c-0.5,0-0.8-0.3-0.8-0.8v-11.4c0-1.5-0.2-2.5-0.6-3
		c-0.4-0.5-1.1-0.8-2.1-0.8c-0.4,0-0.8,0.1-1.3,0.2c-0.5,0.1-0.9,0.3-1.4,0.5c-0.5,0.2-0.9,0.4-1.3,0.6c-0.4,0.2-0.8,0.4-1.1,0.6
		c0,0.2,0,0.5,0,0.8c0,0.3,0,0.7,0,1.2v11.3c0,0.2-0.1,0.4-0.2,0.6c-0.1,0.1-0.3,0.2-0.6,0.2h-2.9c-0.5,0-0.7-0.3-0.7-0.8v-11.6
		c0-1.2-0.2-2.1-0.6-2.7c-0.4-0.6-1.1-0.9-2.1-0.9c-0.3,0-0.7,0.1-1.2,0.2c-0.5,0.1-0.9,0.3-1.4,0.4c-0.5,0.1-0.9,0.4-1.4,0.6
		c-0.5,0.2-0.9,0.4-1.2,0.6v13.4c0,0.5-0.3,0.8-0.8,0.8H209c-0.5,0-0.7-0.3-0.7-0.8v-18c0-0.5,0.2-0.8,0.7-0.8h2.8
		c0.5,0,0.8,0.3,0.8,0.8v1.2l0,0c0.4-0.3,0.8-0.5,1.3-0.8c0.5-0.3,0.9-0.5,1.5-0.7c0.5-0.2,1-0.4,1.6-0.5c0.5-0.1,1.1-0.2,1.6-0.3
		c1.1,0,2.2,0.2,3.1,0.5c0.9,0.4,1.7,1.1,2.3,2.3c1-0.7,2.1-1.4,3.3-2s2.4-0.8,3.7-0.8s2.3,0.2,3.1,0.6c0.8,0.4,1.4,0.9,1.8,1.6
		c0.4,0.7,0.7,1.5,0.8,2.4s0.2,1.9,0.2,2.8v11.8C237,282.6,237,282.8,236.9,282.9z"/>
	<path class="st0" d="M246.5,258.3c0,0.3,0,0.6-0.1,0.9c-0.1,0.3-0.2,0.5-0.3,0.7c-0.2,0.2-0.4,0.4-0.7,0.5s-0.7,0.2-1.2,0.2
		s-1-0.1-1.3-0.2c-0.3-0.1-0.5-0.3-0.7-0.5c-0.2-0.2-0.3-0.5-0.3-0.7c-0.1-0.3-0.1-0.6-0.1-0.9c0-0.6,0.2-1.2,0.5-1.6
		c0.3-0.4,0.9-0.7,1.9-0.7s1.6,0.2,1.9,0.6C246.3,257.1,246.5,257.6,246.5,258.3z M246.2,282.3c0,0.2,0,0.4-0.1,0.5
		s-0.3,0.2-0.6,0.2h-2.8c-0.5,0-0.8-0.3-0.8-0.8v-18.1c0-0.5,0.3-0.8,0.8-0.8h2.8c0.3,0,0.5,0.1,0.6,0.2c0.1,0.1,0.1,0.3,0.1,0.5
		V282.3z"/>
	<path class="st0" d="M265.8,277.2c0,1.2-0.2,2.2-0.7,2.9c-0.5,0.8-1.1,1.4-1.8,1.9s-1.6,0.8-2.6,1c-1,0.2-2,0.3-3,0.3
		s-2.1-0.1-3.3-0.2c-1.2-0.1-2.1-0.4-2.9-0.7c-0.4-0.2-0.7-0.3-0.8-0.5c-0.1-0.2-0.1-0.5-0.1-0.8l0.3-1.3c0.1-0.3,0.2-0.5,0.3-0.6
		c0.2-0.1,0.4-0.1,0.7,0c0.4,0.1,0.9,0.1,1.4,0.2s1,0.1,1.6,0.1c0.5,0,1,0.1,1.5,0.1c0.5,0,0.9,0,1.2,0c1.3,0,2.2-0.2,2.8-0.5
		c0.6-0.4,0.8-0.9,0.8-1.7c0-0.5,0-0.8-0.1-1.1c-0.1-0.3-0.3-0.5-0.5-0.7c-0.2-0.2-0.6-0.3-1-0.5c-0.4-0.1-0.9-0.2-1.6-0.3
		c-1-0.1-1.9-0.3-2.8-0.5c-0.9-0.2-1.7-0.5-2.3-0.9c-0.7-0.4-1.2-1-1.6-1.6c-0.4-0.7-0.6-1.6-0.6-2.7c0-2,0.7-3.5,2.1-4.5
		c1.4-1,3.2-1.5,5.4-1.5c0.4,0,0.9,0,1.4,0s1.1,0.1,1.6,0.2c0.5,0.1,1.1,0.2,1.6,0.3s1,0.2,1.4,0.4c0.7,0.3,0.9,0.7,0.8,1.2
		l-0.3,1.4c-0.1,0.3-0.2,0.5-0.3,0.5c-0.1,0.1-0.4,0.1-0.8,0c-0.9-0.1-1.8-0.2-2.8-0.3s-1.9-0.1-2.6-0.1c-1.3,0-2.1,0.2-2.5,0.5
		c-0.4,0.4-0.6,0.9-0.6,1.7c0,0.8,0.3,1.3,0.8,1.5c0.5,0.2,1.4,0.5,2.6,0.6c1,0.1,1.9,0.3,2.7,0.5c0.9,0.2,1.6,0.5,2.3,1
		c0.7,0.4,1.2,1,1.6,1.7C265.6,275.1,265.8,276,265.8,277.2z"/>
	<path class="st0" d="M274.7,258.3c0,0.3,0,0.6-0.1,0.9c-0.1,0.3-0.2,0.5-0.3,0.7c-0.2,0.2-0.4,0.4-0.7,0.5
		c-0.3,0.1-0.7,0.2-1.2,0.2s-1-0.1-1.3-0.2c-0.3-0.1-0.5-0.3-0.7-0.5c-0.2-0.2-0.3-0.5-0.3-0.7c-0.1-0.3-0.1-0.6-0.1-0.9
		c0-0.6,0.2-1.2,0.5-1.6c0.3-0.4,0.9-0.7,1.9-0.7s1.6,0.2,1.9,0.6C274.6,257.1,274.7,257.6,274.7,258.3z M274.5,282.3
		c0,0.2,0,0.4-0.1,0.5s-0.3,0.2-0.6,0.2H271c-0.5,0-0.8-0.3-0.8-0.8v-18.1c0-0.5,0.3-0.8,0.8-0.8h2.8c0.3,0,0.5,0.1,0.6,0.2
		c0.1,0.1,0.1,0.3,0.1,0.5V282.3z"/>
	<path class="st0" d="M291.8,280.8c-1,0.8-2.2,1.4-3.4,1.9s-2.6,0.7-3.9,0.7c-1.1,0-2-0.1-2.7-0.4c-0.7-0.3-1.3-0.7-1.7-1.2
		c-0.4-0.5-0.7-1.1-0.9-1.8c-0.2-0.7-0.3-1.5-0.3-2.3c0-2.3,0.6-4,1.8-5.1c1.3-1.1,3.1-1.6,5.7-1.6h5.1v-1c0-0.6-0.1-1.1-0.2-1.5
		s-0.3-0.8-0.7-1c-0.3-0.3-0.7-0.5-1.3-0.6c-0.5-0.1-1.2-0.2-2-0.2c-0.3,0-0.7,0-1.2,0s-0.9,0.1-1.4,0.1s-1,0.1-1.5,0.1
		c-0.5,0.1-0.9,0.1-1.3,0.1c-0.4,0.1-0.7,0.1-0.8,0c-0.1,0-0.2-0.2-0.3-0.5l-0.4-1.5c-0.1-0.3,0-0.5,0.1-0.7
		c0.1-0.2,0.4-0.3,0.8-0.5c0.4-0.2,0.9-0.3,1.5-0.4s1.2-0.2,1.8-0.3c0.6-0.1,1.2-0.1,1.8-0.2c0.6,0,1.1-0.1,1.6-0.1
		c1.7,0,3.1,0.2,4.1,0.5c1,0.3,1.8,0.8,2.3,1.5c0.5,0.6,0.9,1.4,1,2.3c0.2,0.9,0.2,1.9,0.2,3v7.7c0,0.4,0,0.7,0.1,0.9
		c0,0.2,0.1,0.4,0.2,0.5s0.2,0.2,0.4,0.3c0.2,0.1,0.4,0.1,0.8,0.1c0.3,0,0.5,0.1,0.6,0.2c0.1,0.1,0.2,0.2,0.2,0.4v1.7
		c0,0.5-0.3,0.7-1,0.8c-0.3,0.1-0.6,0.1-1,0.1s-0.6,0.1-0.9,0.1c-0.9,0-1.7-0.2-2.3-0.5C292.5,282.4,292.1,281.8,291.8,280.8
		L291.8,280.8z M291.6,274.2h-4.9c-1,0-1.8,0.2-2.4,0.7s-0.9,1.4-0.9,2.7c0,0.9,0.2,1.5,0.5,1.8c0.4,0.3,1,0.5,1.9,0.5
		c0.4,0,0.9-0.1,1.4-0.2c0.5-0.1,1-0.3,1.5-0.4c0.5-0.1,1-0.4,1.5-0.6s0.9-0.4,1.3-0.7v-3.8H291.6z"/>
</g>
<g>
	<path class="st1" d="M60,167.3c0,0,62.2-8.1,64-8.4c2.7-0.4,5.1-1,7.3-1.6c5-1.4,9.7-3.5,13.8-6.3c3.9-2.7,7.6-6.5,11.2-10.8
		c2.3-2.7,4.7-6.2,7-9.6v-1.7c-2.7,4-5.3,7.5-8,10.5c-3.6,4-7.4,7.4-11.2,9.8c-4,2.6-8.4,4.5-13.3,5.7c-2.2,0.6-4.5,1-7.1,1.4
		c-1.7,0.2-3.5,0.4-5.2,0.6c-0.7,0.1-58.4,6.3-58.4,6.3v4.1H60z"/>
	<path class="st1" d="M143.4,156.8c-3.9,2.3-8.4,3.9-13.4,4.9c-2.1,0.4-4.4,0.8-7.1,1.1c-1.6,0.2-3.1,0.3-4.7,0.4
		c-0.8,0.1-1.7,0.1-2.5,0.2c-19.1,1.7-38,3.6-55.8,5.3v4.2c17.9-2.2,37-4.5,56.1-6.7c0.8-0.1,1.7-0.2,2.5-0.3
		c1.6-0.2,3.1-0.3,4.7-0.6c2.7-0.4,5.1-0.8,7.3-1.3c5.2-1.2,9.8-3,13.9-5.5c4-2.4,7.6-5.8,11.4-10c2.4-2.6,5-6.3,7.5-9.7v-1.4
		c-2.9,4-5.7,7.3-8.4,10.2C151.1,151.5,147.3,154.6,143.4,156.8"/>
	<path class="st1" d="M154.3,155.8c-3.8,3.5-7.8,6.3-11.8,8.2c-3.9,1.9-8.3,3.3-13.5,4.1c-2.1,0.4-4.4,0.6-7,0.9l-62,5.2v4.1
		l55.2-5.9l7.1-0.8c2.7-0.3,5-0.7,7.2-1.1c5.3-1,9.9-2.5,13.9-4.6c4.1-2.1,8.3-5.6,12.1-9.4c2.6-2.5,5.1-5.7,7.7-9.1V146
		C160.2,149.9,157.3,153.1,154.3,155.8"/>
	<path class="st1" d="M139.3,176.9c-3.6,2-6.3,3.2-11.5,3.8c-3.1,0.3-6.3,0.5-9.4,0.7c-1.5,0.1-3,0.2-4.5,0.2
		c-9.4,0.5-18.6,1.1-28,1.8L60,185.1v4.1l26.2-2.4c8.5-0.8,18.3-1.7,27.9-2.4l7-0.5c2.7-0.2,5-0.4,7-0.7c5.3-0.7,9.8-1.8,13.9-3.3
		c4.3-1.6,8.4-4.2,12.5-7.2c3.7-2.7,8.8-8,8.8-8.1v-1.4c-3.3,3.3-5.3,5.1-8.9,7.6C150,173.6,142.6,175.1,139.3,176.9"/>
	<path class="st1" d="M140.6,184.7c-3.9,1.2-8.3,1.9-13.5,2.4c-2.1,0.2-4.3,0.3-6.9,0.4l-6.9,0.3c-17.3,0.8-34.4,1.7-53.4,2.7v4.1
		c18.1-1.4,35.8-2.8,53.5-4.1l6.9-0.5c2.7-0.2,4.9-0.4,7-0.6c5.3-0.6,9.8-1.5,13.8-2.8c4.4-1.4,8.8-3.5,12.9-6.1
		c3-1.9,6.1-4.3,9.2-7v-0.1c-3.5,3-6.8,3.6-10,5.7C149.2,181.5,145,183.4,140.6,184.7"/>
	<path class="st1" d="M140,191.4c-3.9,0.9-8.2,1.5-13.5,1.9c-2,0.1-4.2,0.2-6.8,0.3l-6.9,0.2c-17.3,0.7-34.9,1.4-52.9,2.2v4.1
		c17.8-1.2,35.3-2.4,53-3.5l6.9-0.4c2.7-0.2,4.9-0.3,6.9-0.5c5.3-0.5,9.7-1.2,13.7-2.3c4.5-1.2,8.9-2.9,13.1-5.1
		c3.2-1.7,6.4-3.8,9.7-6.3v-1.7c-3.6,2.6-7,4.8-10.5,6.5C148.7,188.8,144.4,190.4,140,191.4"/>
	<path class="st1" d="M139.4,198c-4,0.7-8.2,1.2-13.4,1.5c-2,0.1-4,0.2-6.8,0.2L60,201.4v4.1l52.5-2.8l6.8-0.3
		c2.7-0.1,4.8-0.3,6.8-0.4c5.3-0.4,9.6-1,13.6-1.8c4.6-1,9-2.4,13.2-4.2c3.4-1.4,6.8-3.2,10.3-5.4v-1.7c-3.8,2.2-7.3,4-10.9,5.4
		C148.2,196,143.9,197.2,139.4,198"/>
	<path class="st1" d="M138.9,204.7c-7.3,1-14.8,1.1-22,1.2c-1.7,0-3.3,0-5,0.1L60,206.9v4.1l52.1-2.3c1.7-0.1,3.3-0.1,5-0.2
		c7.3-0.3,14.8-0.6,22.2-1.8c4.7-0.7,9.2-1.8,13.3-3.3c3.5-1.2,7.1-2.7,10.7-4.5v-1.6c-3.8,1.8-7.6,3.3-11.2,4.4
		C147.9,203.1,143.5,204.1,138.9,204.7"/>
	<path class="st1" d="M138.5,211.4c-6.8,0.5-13.8,0.5-20.5,0.5c-2.1,0-4.2,0-6.3,0c-17.2,0.1-34.3,0.2-51.7,0.4v4.1
		c16.6-0.6,34.2-1.2,51.8-1.7c2.1-0.1,4.2-0.1,6.3-0.2c6.8-0.2,13.8-0.4,20.7-1.1c4.8-0.5,9.2-1.3,13.4-2.3
		c3.7-0.9,7.4-2.1,11.2-3.6V206c-3.9,1.4-7.8,2.6-11.5,3.4C147.6,210.3,143.2,211,138.5,211.4"/>
	<path class="st1" d="M138.3,218c-2.8,0.1-5.9,0.2-9.4,0.2c-1.3,0-2.6,0-3.9,0l-13.5-0.3c-9.1,0-18.2,0-26.8,0H60v4l24.8-0.7
		c8.5-0.2,17.7-0.4,26.8-0.6l13.4-0.2c3.7-0.1,8.5-0.2,13.4-0.5c4.8-0.3,9.2-0.8,13.4-1.5c3.8-0.6,7.6-1.4,11.5-2.4v-1.4
		c-4,0.9-7.9,1.7-11.7,2.2C147.3,217.4,143,217.8,138.3,218"/>
	<path class="st1" d="M124.8,224.3l-13.4-0.1c-17-0.2-34.1-0.6-51.4-0.9v4.1c16.6-0.1,34.1-0.2,51.4-0.4l13.4-0.2
		c4.5-0.1,8.9-0.2,13.4-0.3c9.2-0.3,17.4-1,25.1-2v-1.4c-7.7,0.8-16,1.3-25.1,1.3C133.7,224.4,129.2,224.4,124.8,224.3"/>
	<polygon class="st1" points="163.3,231.5 60,228.9 60,232.9 163.3,232.9 	"/>
	<path class="st1" d="M154,163.4c-3.9,3.2-7,5.5-11.8,7.4c-4.2,1.7-8.7,2.4-13.8,3.1c-3.3,0.5-6.8,1.2-10.1,1.4
		c-1.4,0.1-2.7,0.2-4.1,0.3l-54.3,4v4.1l54.5-5.3l7.1-0.7c2.6-0.3,4.9-0.5,7.1-0.9c5.3-0.9,9.8-2.2,13.9-4c4.2-1.9,8.5-5,12.5-8.4
		c2.7-2.3,5.3-5.2,8.2-8.4v-1.5C159.8,158.1,157,161,154,163.4"/>
	<path class="st1" d="M207.2,128.9c0,0,18.6,29.7,22,35.2c3.4,5.4,7.3,9.8,21,12.7c13.8,2.9,19.7,4.3,19.7,4.3v1.1
		c0,0-8.7-1.9-20-4.4c-11.2-2.5-15.8-3.4-21-10.5c-4.3-6-21.8-31.3-21.8-31.3v-7.1H207.2z"/>
	<path class="st1" d="M207.2,162.8c0,0,16.9,17.8,21.8,22.9c5.2,5.4,11.8,7.4,21.1,9.1c8.8,1.6,19.9,3.4,19.9,3.4v1
		c0,0-10.4-1.7-19.9-3.3c-9.3-1.6-15.8-2.5-21.1-7.4c-4.8-4.4-21.8-20.4-21.8-20.4V162.8z"/>
	<path class="st1" d="M207.2,170.8c0,0,16.1,15,21.8,20.1c5.3,4.7,9.5,6.2,21.1,8.2c11.6,2.1,19.8,3.3,19.8,3.3v1.1
		c0,0-10.5-1.7-19.9-3.2s-15.4-2.1-21.1-6.7c-6.5-5.3-21.8-17.9-21.8-17.9v-4.9H207.2z"/>
	<path class="st1" d="M207.2,179.4c0,0,18.4,14.6,21.8,17.2c3.4,2.6,8,5.5,21.2,7.5c13.1,1.8,19.8,2.8,19.8,2.8v1.1
		c0,0-11.9-1.7-19.8-2.7c-7.9-1-14-1.4-21.1-6.2c-6.9-4.6-21.9-15.2-21.9-15.2V179.4z"/>
	<path class="st1" d="M207.2,187.6c0,0,18.4,12.3,21.9,14.3c3.5,1.9,7.6,5.1,21.1,6.8c13.5,1.7,19.8,2.5,19.8,2.5v1.1
		c0,0-11.1-1.2-19.8-2.2c-8.7-0.9-14.6-2.2-21.1-5.8s-21.8-12.6-21.8-12.6L207.2,187.6L207.2,187.6z"/>
	<path class="st1" d="M207.2,195.8c0,0,16.3,8.9,21.8,11.7c6.2,3.1,11.5,4.6,21.1,5.7c9.5,1.1,19.8,2.2,19.8,2.2v1c0,0-9.6-1-19.8-2
		s-13.8-1.4-21.1-4.7c-6.6-2.9-21.8-10.1-21.8-10.1L207.2,195.8L207.2,195.8z"/>
	<path class="st1" d="M207.2,204.1c0,0,12.9,5.5,21.9,9.1c8.9,3.5,15.7,3.8,21.1,4.5c2.4,0.3,19.7,2.1,19.7,2.1v1
		c0,0-10.4-0.8-19.8-1.7c-9.4-0.8-13.5-1.2-21.1-3.7c-7.7-2.6-21.9-7.5-21.9-7.5v-3.8H207.2z"/>
	<path class="st1" d="M207.2,212.6c0,0,13,4,21.9,6.4c8.9,2.3,17,3.3,21.1,3.6c4.1,0.3,19.8,1.6,19.8,1.6v0.9c0,0-8.9-0.6-19.8-1.4
		c-8.8-0.6-15.9-1.3-21.1-2.4c-5.8-1.3-21.8-5.1-21.8-5.1L207.2,212.6L207.2,212.6z"/>
	<path class="st1" d="M207.2,221c0,0,10.6,1.8,21.9,3.7c8.4,1.4,19.8,2.3,21.1,2.3c1.2,0.1,19.8,1.3,19.8,1.3v1
		c0,0-11.9-0.6-19.8-1.1c-8.3-0.5-16.5-1-21.1-1.4c-10.4-1.1-21.8-2.5-21.8-2.5L207.2,221L207.2,221z"/>
	<path class="st1" d="M207.2,229.6c0,0,16.8,0.6,21.9,0.7c5.1,0.1,40.9,1.6,40.9,1.6v1h-62.8V229.6z"/>
	<path class="st1" d="M250.1,181.3c-15.2-3.3-18.6-8.9-21.2-12.3c-2.5-3.5-21.8-31.6-21.8-31.6v6.4c0.8,1,17.2,22.6,21.8,28.5
		c5.2,6.7,13.4,8.2,21.1,9.9c7.8,1.7,19.8,4,19.8,4v-0.9C270,185.3,254.1,182.2,250.1,181.3"/>
	<path class="st1" d="M250.1,185.8c-12.5-2.4-17.5-6.4-21.2-11.2c-3.7-4.8-21.8-28.7-21.8-28.7v6c0.8,0.9,17.3,20.6,21.8,25.7
		c5.2,6,12.4,7.5,21.2,9.1c8.8,1.6,19.8,3.7,19.8,3.7v-0.9C270,189.6,257.3,187.2,250.1,185.8"/>
	<path class="st1" d="M250.1,190.4c-13-2.5-15.6-4.6-21.1-10.6c-3.4-3.8-21.1-24.7-21.8-25.5v5.6c0,0,16.5,17.6,21.8,22.8
		c6.9,6.8,13.5,7.3,21.2,8.7c7.7,1.4,19.8,3.6,19.8,3.6v-0.9C270,194,255.3,191.4,250.1,190.4"/>
	<rect x="102.9" y="172.2" class="st2" width="90.5" height="60.7"/>
	<polygon class="st3" points="149.1,180.8 152.3,180.8 149.7,182.8 150.7,185.9 148.2,184 145.7,185.9 146.7,182.8 144.1,180.8 
		147.2,180.8 148.2,177.7 	"/>
	<polygon class="st3" points="149.2,221.3 152.4,221.3 149.9,223.2 150.8,226.2 148.3,224.4 145.8,226.2 146.8,223.2 144.2,221.3 
		147.4,221.3 148.3,218.3 	"/>
	<polygon class="st3" points="159.2,218.6 162.4,218.6 159.8,220.5 160.8,223.6 158.3,221.7 155.8,223.6 156.8,220.5 154.2,218.6 
		157.3,218.6 158.3,215.7 	"/>
	<polygon class="st3" points="159.2,183.5 162.4,183.5 159.8,185.4 160.8,188.4 158.3,186.6 155.8,188.4 156.8,185.4 154.2,183.5 
		157.3,183.5 158.3,180.5 	"/>
	<polygon class="st3" points="166.6,190.9 169.8,190.9 167.2,192.8 168.2,195.9 165.7,194 163.2,195.9 164.2,192.8 161.6,190.9 
		164.8,190.9 165.7,188 	"/>
	<polygon class="st3" points="166.6,211.3 169.8,211.3 167.2,213.2 168.2,216.2 165.7,214.4 163.2,216.2 164.2,213.2 161.6,211.3 
		164.8,211.3 165.7,208.3 	"/>
	<polygon class="st3" points="169.4,201 172.6,201 170,202.9 171,205.9 168.5,204 166,205.9 167,202.9 164.4,201 167.5,201 
		168.5,198 	"/>
	<polygon class="st3" points="138.9,183.5 142.1,183.5 139.6,185.4 140.5,188.5 138,186.6 135.5,188.5 136.5,185.4 133.9,183.5 
		137.1,183.5 138,180.6 	"/>
	<polygon class="st3" points="131.7,191 134.9,191 132.4,192.9 133.3,195.9 130.8,194 128.3,195.9 129.3,192.9 126.7,191 129.9,191 
		130.8,188 	"/>
	<polygon class="st3" points="129.1,201 132.2,201 129.7,202.9 130.7,205.9 128.1,204.1 125.6,205.9 126.6,202.9 124,201 127.2,201 
		128.1,198 	"/>
	<polygon class="st3" points="131.7,211.3 134.9,211.3 132.4,213.2 133.3,216.3 130.8,214.4 128.3,216.3 129.3,213.2 126.7,211.3 
		129.9,211.3 130.8,208.4 	"/>
	<polygon class="st3" points="139.1,218.6 142.2,218.6 139.7,220.6 140.6,223.6 138.1,221.7 135.6,223.6 136.6,220.6 134,218.6 
		137.2,218.6 138.1,215.7 	"/>
</g>
</svg>
