<?xml version="1.0" encoding="utf-8"?>
<!-- Generator: Adobe Illustrator 19.1.0, SVG Export Plug-In . SVG Version: 6.00 Build 0)  -->
<!DOCTYPE svg PUBLIC "-//W3C//DTD SVG 1.1//EN" "http://www.w3.org/Graphics/SVG/1.1/DTD/svg11.dtd">
<svg version="1.1" id="Layer_1" xmlns="http://www.w3.org/2000/svg" xmlns:xlink="http://www.w3.org/1999/xlink" x="0px" y="0px"
	 viewBox="-223.6 338.9 450 164" style="enable-background:new -223.6 338.9 450 164;" xml:space="preserve">
<style type="text/css">
	.st0{fill:#404040;}
	.st1{fill:#BCBEC0;}
	.st2{fill:#0D4F9E;}
	.st3{fill:#FAEA27;}
</style>
<g>
	<path class="st0" d="M-148,468.3c0-0.5,0.3-0.8,0.8-0.8h14.7c0.5,0,0.8,0.3,0.8,0.8v2.5c0,0.5-0.3,0.7-0.8,0.7h-10.9v6.9h9.7
		c0.5,0,0.8,0.2,0.8,0.7v2.5c0,0.5-0.3,0.7-0.8,0.7h-9.7v7.9h11.2c0.5,0,0.7,0.3,0.7,0.8v2.4c0,0.5-0.3,0.7-0.8,0.7h-14.9
		c-0.5,0-0.8-0.2-0.8-0.7V468.3z"/>
	<path class="st0" d="M-111.4,494.1h-2.8c-0.3,0-0.5-0.1-0.6-0.2c-0.1-0.1-0.2-0.3-0.2-0.6v-1.2h-0.1c-0.4,0.3-0.9,0.5-1.4,0.8
		c-0.5,0.3-1.1,0.5-1.7,0.8c-0.6,0.2-1.2,0.4-1.8,0.6c-0.6,0.1-1.2,0.2-1.9,0.2c-1.4,0-2.4-0.2-3.2-0.6c-0.8-0.4-1.4-0.9-1.8-1.6
		c-0.4-0.7-0.7-1.5-0.8-2.4s-0.2-1.9-0.2-2.9v-11.8c0-0.5,0.3-0.8,0.8-0.8h3.1c0.5,0,0.7,0.3,0.7,0.8v11.2c0,0.6,0,1.2,0.1,1.6
		c0.1,0.5,0.2,0.9,0.4,1.2c0.2,0.3,0.5,0.6,0.9,0.8c0.4,0.2,0.9,0.3,1.5,0.3c0.4,0,0.9-0.1,1.4-0.2c0.5-0.1,1-0.3,1.5-0.5
		c0.5-0.2,1-0.4,1.4-0.6s0.8-0.4,1-0.5v-13.4c0-0.2,0.1-0.4,0.2-0.6c0.1-0.1,0.3-0.2,0.6-0.2h2.8c0.5,0,0.8,0.3,0.8,0.8v18
		C-110.6,493.8-110.9,494.1-111.4,494.1z"/>
	<path class="st0" d="M-101.2,493.3c0,0.5-0.3,0.8-0.8,0.8h-2.9c-0.5,0-0.8-0.3-0.8-0.8v-18c0-0.5,0.3-0.8,0.8-0.8h2.9
		c0.5,0,0.8,0.3,0.8,0.8v1.8l0.1,0.1c0.3-0.3,0.7-0.6,1.2-0.9s1-0.6,1.5-0.8c0.5-0.3,1.1-0.5,1.7-0.7c0.6-0.2,1.1-0.4,1.6-0.4
		c0.3-0.1,0.5,0,0.6,0c0.2,0.1,0.3,0.3,0.3,0.6l0.3,2.7c0,0.3,0,0.5,0,0.6c-0.1,0.1-0.3,0.2-0.7,0.3c-0.6,0.1-1.1,0.2-1.8,0.4
		c-0.6,0.1-1.2,0.3-1.8,0.5c-0.6,0.2-1.1,0.3-1.6,0.5c-0.5,0.2-0.9,0.3-1.3,0.5L-101.2,493.3L-101.2,493.3z"/>
	<path class="st0" d="M-74.8,484c0,1.1-0.1,2.3-0.2,3.6c-0.1,1.2-0.5,2.4-1.1,3.4s-1.5,1.9-2.6,2.5c-1.2,0.7-2.8,1-4.9,1
		c-2,0-3.6-0.3-4.7-1c-1.1-0.7-2-1.5-2.6-2.5c-0.6-1-0.9-2.2-1.1-3.4c-0.1-1.2-0.2-2.4-0.2-3.6c0-0.9,0.1-2,0.3-3.1
		c0.2-1.1,0.6-2.2,1.1-3.2c0.6-1,1.4-1.8,2.6-2.5c1.1-0.7,2.7-1,4.6-1s3.5,0.3,4.6,0.9c1.2,0.6,2,1.4,2.7,2.3c0.6,0.9,1,2,1.2,3.2
		C-74.9,481.6-74.8,482.8-74.8,484z M-79.2,484.3c0-1.1-0.1-2-0.2-2.8c-0.1-0.8-0.3-1.4-0.6-2c-0.3-0.5-0.8-0.9-1.3-1.2
		c-0.5-0.3-1.3-0.4-2.2-0.4c-0.9,0-1.5,0.1-2.1,0.4c-0.5,0.3-1,0.7-1.3,1.2c-0.3,0.5-0.5,1.2-0.6,2c-0.1,0.8-0.2,1.7-0.2,2.7
		c0,1.1,0.1,2,0.2,2.8c0.1,0.8,0.3,1.4,0.6,2c0.3,0.5,0.7,0.9,1.2,1.2c0.5,0.3,1.2,0.4,2.1,0.4c0.9,0,1.6-0.1,2.2-0.4
		c0.6-0.3,1-0.6,1.3-1.2c0.3-0.5,0.5-1.2,0.6-2C-79.3,486.3-79.2,485.3-79.2,484.3z M-78.4,465.7c0.4,0.2,0.5,0.5,0.2,0.9l-4.1,5.6
		c-0.2,0.3-0.5,0.4-0.8,0.2l-1.6-0.7c-0.3-0.2-0.4-0.4-0.2-0.8l3.2-6.2c0.2-0.3,0.5-0.4,0.9-0.2L-78.4,465.7z"/>
	<path class="st0" d="M-53.6,484.2c0,1.6-0.1,3.1-0.4,4.4c-0.2,1.3-0.7,2.4-1.3,3.2c-0.6,0.9-1.4,1.5-2.4,2s-2.3,0.7-3.9,0.7
		c-0.7,0-1.4-0.1-2.3-0.2c-0.9-0.1-1.8-0.4-2.7-0.7l0,0v7c0,0.2,0,0.4-0.1,0.6s-0.3,0.2-0.6,0.2h-2.8c-0.3,0-0.5-0.1-0.6-0.2
		s-0.1-0.3-0.1-0.6v-25.4c0-0.5,0.3-0.8,0.8-0.8h2.8c0.3,0,0.5,0.1,0.6,0.2c0.1,0.1,0.1,0.3,0.1,0.6v1.2l0.1,0.1
		c0.3-0.2,0.8-0.5,1.3-0.8c0.5-0.3,1-0.5,1.6-0.8c0.6-0.2,1.1-0.4,1.7-0.6s1.2-0.2,1.8-0.2c1.3,0,2.4,0.2,3.2,0.7
		c0.9,0.5,1.5,1.2,2,2c0.5,0.9,0.8,1.9,1,3.1C-53.7,481.3-53.6,482.7-53.6,484.2z M-58.1,484.1c0-1.3-0.1-2.3-0.2-3.1
		c-0.1-0.8-0.3-1.4-0.6-1.8c-0.3-0.4-0.6-0.7-1-0.9c-0.4-0.1-0.8-0.2-1.4-0.2c-0.4,0-0.9,0.1-1.4,0.2s-1,0.3-1.5,0.5
		c-0.5,0.2-1,0.4-1.4,0.6c-0.4,0.2-0.8,0.4-1.1,0.6v10c0.9,0.3,1.7,0.4,2.5,0.5c0.7,0.1,1.4,0.1,2.1,0.1s1.3-0.1,1.8-0.3
		c0.5-0.2,0.9-0.6,1.2-1.1c0.3-0.5,0.5-1.2,0.7-2C-58.1,486.4-58.1,485.4-58.1,484.1z"/>
	<path class="st0" d="M-37.6,491.8c-1,0.8-2.2,1.4-3.4,1.9c-1.3,0.5-2.6,0.7-3.9,0.7c-1.1,0-2-0.1-2.7-0.4s-1.3-0.7-1.7-1.2
		c-0.4-0.5-0.7-1.1-0.9-1.8c-0.2-0.7-0.3-1.5-0.3-2.3c0-2.3,0.6-4,1.8-5.1c1.3-1.1,3.1-1.6,5.7-1.6h5.1v-1c0-0.6-0.1-1.1-0.2-1.5
		s-0.3-0.8-0.7-1c-0.3-0.3-0.7-0.5-1.3-0.6c-0.5-0.1-1.2-0.2-2-0.2c-0.3,0-0.7,0-1.2,0s-0.9,0.1-1.4,0.1s-1,0.1-1.5,0.1
		c-0.5,0.1-0.9,0.1-1.3,0.1c-0.4,0.1-0.7,0.1-0.8,0c-0.1,0-0.2-0.2-0.3-0.5L-49,476c-0.1-0.3,0-0.5,0.1-0.7c0.1-0.2,0.4-0.3,0.8-0.5
		c0.4-0.2,0.9-0.3,1.5-0.4c0.6-0.1,1.2-0.2,1.8-0.3c0.6-0.1,1.2-0.1,1.8-0.2c0.6,0,1.1-0.1,1.6-0.1c1.7,0,3.1,0.2,4.1,0.5
		c1,0.3,1.8,0.8,2.3,1.5c0.5,0.6,0.9,1.4,1,2.3c0.2,0.9,0.2,1.9,0.2,3v7.7c0,0.4,0,0.7,0.1,0.9c0,0.2,0.1,0.4,0.2,0.5
		s0.2,0.2,0.4,0.3c0.2,0.1,0.4,0.1,0.8,0.1c0.3,0,0.5,0.1,0.6,0.2s0.2,0.2,0.2,0.4v1.7c0,0.5-0.3,0.7-1,0.8c-0.3,0.1-0.6,0.1-1,0.1
		s-0.6,0.1-0.9,0.1c-0.9,0-1.7-0.2-2.3-0.5C-37,493.4-37.3,492.8-37.6,491.8L-37.6,491.8z M-37.9,485.2h-4.9c-1,0-1.8,0.2-2.4,0.7
		s-0.9,1.4-0.9,2.7c0,0.9,0.2,1.5,0.5,1.8c0.4,0.3,1,0.5,1.9,0.5c0.4,0,0.9-0.1,1.4-0.2s1-0.3,1.5-0.4c0.5-0.2,1-0.4,1.5-0.6
		c0.5-0.2,0.9-0.4,1.3-0.7L-37.9,485.2L-37.9,485.2z"/>
	<path class="st0" d="M-23.2,469.3c0,0.3,0,0.6-0.1,0.9s-0.2,0.5-0.3,0.7c-0.2,0.2-0.4,0.4-0.7,0.5c-0.3,0.1-0.7,0.2-1.2,0.2
		s-1-0.1-1.3-0.2s-0.5-0.3-0.7-0.5c-0.2-0.2-0.3-0.5-0.3-0.7c-0.1-0.3-0.1-0.6-0.1-0.9c0-0.6,0.2-1.2,0.5-1.6s0.9-0.7,1.9-0.7
		s1.6,0.2,1.9,0.6C-23.4,468.1-23.2,468.6-23.2,469.3z M-23.5,493.3c0,0.2,0,0.4-0.1,0.5s-0.3,0.2-0.6,0.2H-27
		c-0.5,0-0.8-0.3-0.8-0.8v-18.1c0-0.5,0.3-0.8,0.8-0.8h2.8c0.3,0,0.5,0.1,0.6,0.2s0.1,0.3,0.1,0.5V493.3z"/>
	<path class="st0" d="M12.1,486.5c0,1.2-0.2,2.2-0.6,3.2c-0.4,0.9-1,1.7-1.7,2.4c-0.7,0.7-1.5,1.2-2.5,1.5c-0.9,0.3-1.9,0.5-3,0.5
		H-5.9c-0.3,0-0.6-0.1-0.7-0.2c-0.1-0.1-0.2-0.3-0.2-0.6v-25c0-0.5,0.3-0.8,0.8-0.8h9.2c2.7,0,4.7,0.6,6,1.9c1.3,1.3,2,3,2,5.1
		c0,0.4,0,0.8-0.1,1.3s-0.3,1-0.5,1.5s-0.6,1-1,1.5S8.7,479.7,8,480v0.1c0.8,0.3,1.5,0.7,2,1.2s0.9,1.1,1.2,1.7
		c0.3,0.6,0.5,1.2,0.6,1.8C12.1,485.5,12.1,486,12.1,486.5z M6.6,475c0-1-0.3-1.8-0.9-2.5c-0.6-0.7-1.6-1-3.1-1h-4.8v6.9H3
		c1,0,1.9-0.3,2.5-1C6.3,476.8,6.6,476,6.6,475z M7.4,486.3c0-1.1-0.3-2-1-2.8c-0.7-0.8-1.7-1.2-3.1-1.2h-5.4v7.9h5.4
		c0.8,0,1.5-0.1,2-0.3c0.5-0.2,1-0.5,1.3-0.9s0.5-0.8,0.7-1.2C7.3,487.3,7.4,486.8,7.4,486.3z"/>
	<path class="st0" d="M21.3,469.3c0,0.3,0,0.6-0.1,0.9s-0.2,0.5-0.3,0.7c-0.2,0.2-0.4,0.4-0.7,0.5s-0.7,0.2-1.2,0.2s-1-0.1-1.3-0.2
		s-0.5-0.3-0.7-0.5c-0.2-0.2-0.3-0.5-0.3-0.7c-0.1-0.3-0.1-0.6-0.1-0.9c0-0.6,0.2-1.2,0.5-1.6S18,467,19,467s1.6,0.2,1.9,0.6
		C21.1,468.1,21.3,468.6,21.3,469.3z M21,493.3c0,0.2,0,0.4-0.1,0.5s-0.3,0.2-0.6,0.2h-2.8c-0.5,0-0.8-0.3-0.8-0.8v-18.1
		c0-0.5,0.3-0.8,0.8-0.8h2.8c0.3,0,0.5,0.1,0.6,0.2s0.1,0.3,0.1,0.5V493.3z"/>
	<path class="st0" d="M39.7,490.4c0.5,0,0.8,0.2,0.8,0.7v2.2c0,0.5-0.3,0.8-0.8,0.8h-14c-0.5,0-0.7-0.2-0.7-0.7v-1.8
		c0-0.2,0-0.4,0.1-0.6c0-0.2,0.2-0.4,0.4-0.7l9.6-12.2h-8.7c-0.5,0-0.8-0.3-0.8-0.8v-2.2c0-0.5,0.3-0.7,0.8-0.7h13.1
		c0.3,0,0.5,0,0.6,0.1s0.2,0.3,0.2,0.6v2c0,0.5-0.2,0.9-0.5,1.3l-9.4,11.9h9.3V490.4z"/>
	<path class="st0" d="M61,484c0,1.1-0.1,2.3-0.2,3.6c-0.1,1.2-0.5,2.4-1.1,3.4s-1.5,1.9-2.6,2.5c-1.2,0.7-2.8,1-4.9,1
		c-2,0-3.6-0.3-4.7-1c-1.1-0.7-2-1.5-2.6-2.5s-0.9-2.2-1.1-3.4c-0.1-1.2-0.2-2.4-0.2-3.6c0-0.9,0.1-2,0.3-3.1s0.6-2.2,1.1-3.2
		c0.6-1,1.4-1.8,2.6-2.5c1.1-0.7,2.7-1,4.6-1c1.9,0,3.5,0.3,4.6,0.9c1.2,0.6,2,1.4,2.7,2.3c0.6,0.9,1,2,1.2,3.2
		C60.9,481.6,61,482.8,61,484z M56.5,484.3c0-1.1-0.1-2-0.2-2.8c-0.1-0.8-0.3-1.4-0.6-2c-0.3-0.5-0.8-0.9-1.3-1.2
		c-0.5-0.3-1.3-0.4-2.2-0.4s-1.5,0.1-2.1,0.4c-0.5,0.3-1,0.7-1.3,1.2s-0.5,1.2-0.6,2c-0.1,0.8-0.2,1.7-0.2,2.7c0,1.1,0.1,2,0.2,2.8
		c0.1,0.8,0.3,1.4,0.6,2c0.3,0.5,0.7,0.9,1.2,1.2c0.5,0.3,1.2,0.4,2.1,0.4c0.9,0,1.6-0.1,2.2-0.4c0.6-0.3,1-0.6,1.3-1.2
		c0.3-0.5,0.5-1.2,0.6-2C56.5,486.3,56.5,485.3,56.5,484.3z"/>
	<path class="st0" d="M77.1,492.6c0.1,0.5-0.1,0.8-0.5,1c-0.3,0.2-0.8,0.3-1.2,0.4c-0.5,0.1-0.9,0.2-1.4,0.3s-1,0.1-1.4,0.1
		s-0.8,0-1.1,0c-1.2,0-2.1-0.2-2.7-0.5c-0.7-0.3-1.1-0.8-1.5-1.4c-0.3-0.6-0.5-1.3-0.6-2c-0.1-0.8-0.1-1.6-0.1-2.4v-10h-2
		c-0.3,0-0.5-0.1-0.6-0.2s-0.2-0.3-0.2-0.6v-2c0-0.3,0.1-0.5,0.2-0.6c0.1-0.1,0.3-0.2,0.6-0.2h2v-4.1c0-0.3,0.1-0.5,0.2-0.6
		c0.1-0.1,0.3-0.2,0.5-0.3l2.7-0.7c0.5-0.1,0.8,0,0.8,0.5v5.2h4.3c0.3,0,0.5,0.1,0.6,0.2s0.1,0.3,0.1,0.6v2c0,0.3,0,0.5-0.1,0.6
		s-0.3,0.2-0.6,0.2h-4.3v10c0,0.5,0,0.9,0.1,1.2c0.1,0.3,0.2,0.5,0.4,0.7c0.2,0.1,0.5,0.2,0.8,0.3c0.3,0,0.8,0,1.3,0
		c0.3,0,0.7,0,1.3,0c0.5,0,1-0.1,1.4-0.1c0.2,0,0.4,0,0.5,0.1s0.2,0.2,0.2,0.5L77.1,492.6z"/>
	<path class="st0" d="M91.6,492.6c0.1,0.5-0.1,0.8-0.5,1c-0.3,0.2-0.8,0.3-1.2,0.4c-0.5,0.1-0.9,0.2-1.4,0.3s-1,0.1-1.4,0.1
		s-0.8,0-1.1,0c-1.2,0-2.1-0.2-2.7-0.5c-0.7-0.3-1.1-0.8-1.5-1.4c-0.3-0.6-0.5-1.3-0.6-2c-0.1-0.8-0.1-1.6-0.1-2.4v-10h-2
		c-0.3,0-0.5-0.1-0.6-0.2s-0.2-0.3-0.2-0.6v-2c0-0.3,0.1-0.5,0.2-0.6c0.1-0.1,0.3-0.2,0.6-0.2h2v-4.1c0-0.3,0.1-0.5,0.2-0.6
		c0.1-0.1,0.3-0.2,0.5-0.3l2.7-0.7c0.5-0.1,0.8,0,0.8,0.5v5.2h4.3c0.3,0,0.5,0.1,0.6,0.2s0.1,0.3,0.1,0.6v2c0,0.3,0,0.5-0.1,0.6
		s-0.3,0.2-0.6,0.2h-4.3v10c0,0.5,0,0.9,0.1,1.2c0.1,0.3,0.2,0.5,0.4,0.7c0.2,0.1,0.5,0.2,0.8,0.3c0.3,0,0.8,0,1.3,0
		c0.3,0,0.7,0,1.3,0c0.5,0,1-0.1,1.4-0.1c0.2,0,0.4,0,0.5,0.1s0.2,0.2,0.2,0.5L91.6,492.6z"/>
	<path class="st0" d="M108.4,488.2c0,1.2-0.2,2.2-0.7,2.9c-0.5,0.8-1.1,1.4-1.8,1.9s-1.6,0.8-2.6,1c-1,0.2-2,0.3-3,0.3
		s-2.1-0.1-3.3-0.2s-2.1-0.4-2.9-0.7c-0.4-0.2-0.7-0.3-0.8-0.5c-0.1-0.2-0.1-0.5-0.1-0.8l0.3-1.3c0.1-0.3,0.2-0.5,0.3-0.6
		c0.2-0.1,0.4-0.1,0.7,0c0.4,0.1,0.9,0.1,1.4,0.2c0.5,0.1,1,0.1,1.6,0.1c0.5,0,1,0.1,1.5,0.1s0.9,0,1.2,0c1.3,0,2.2-0.2,2.8-0.5
		c0.6-0.4,0.8-0.9,0.8-1.7c0-0.5,0-0.8-0.1-1.1c-0.1-0.3-0.3-0.5-0.5-0.7c-0.2-0.2-0.6-0.3-1-0.5c-0.4-0.1-0.9-0.2-1.6-0.3
		c-1-0.1-1.9-0.3-2.8-0.5c-0.9-0.2-1.7-0.5-2.3-0.9c-0.7-0.4-1.2-1-1.6-1.6c-0.4-0.7-0.6-1.6-0.6-2.7c0-2,0.7-3.5,2.1-4.5
		c1.4-1,3.2-1.5,5.4-1.5c0.4,0,0.9,0,1.4,0s1.1,0.1,1.6,0.2s1.1,0.2,1.6,0.3s1,0.2,1.4,0.4c0.7,0.3,0.9,0.7,0.8,1.2l-0.3,1.4
		c-0.1,0.3-0.2,0.5-0.3,0.5c-0.1,0.1-0.4,0.1-0.8,0c-0.9-0.1-1.8-0.2-2.8-0.3s-1.9-0.1-2.6-0.1c-1.3,0-2.1,0.2-2.5,0.5
		c-0.4,0.4-0.6,0.9-0.6,1.7c0,0.8,0.3,1.3,0.8,1.5c0.5,0.2,1.4,0.5,2.6,0.6c1,0.1,1.9,0.3,2.7,0.5c0.9,0.2,1.6,0.5,2.3,1
		c0.7,0.4,1.2,1,1.6,1.7C108.2,486.1,108.4,487,108.4,488.2z"/>
	<path class="st0" d="M124.5,491.8c-1,0.8-2.2,1.4-3.4,1.9s-2.6,0.7-3.9,0.7c-1.1,0-2-0.1-2.7-0.4s-1.3-0.7-1.7-1.2
		c-0.4-0.5-0.7-1.1-0.9-1.8c-0.2-0.7-0.3-1.5-0.3-2.3c0-2.3,0.6-4,1.8-5.1c1.3-1.1,3.1-1.6,5.7-1.6h5.1v-1c0-0.6-0.1-1.1-0.2-1.5
		s-0.3-0.8-0.7-1c-0.3-0.3-0.7-0.5-1.3-0.6c-0.5-0.1-1.2-0.2-2-0.2c-0.3,0-0.7,0-1.2,0s-0.9,0.1-1.4,0.1s-1,0.1-1.5,0.1
		c-0.5,0.1-0.9,0.1-1.3,0.1c-0.4,0.1-0.7,0.1-0.8,0c-0.1,0-0.2-0.2-0.3-0.5l-0.4-1.5c-0.1-0.3,0-0.5,0.1-0.7
		c0.1-0.2,0.4-0.3,0.8-0.5c0.4-0.2,0.9-0.3,1.5-0.4c0.6-0.1,1.2-0.2,1.8-0.3c0.6-0.1,1.2-0.1,1.8-0.2c0.6,0,1.1-0.1,1.6-0.1
		c1.7,0,3.1,0.2,4.1,0.5c1,0.3,1.8,0.8,2.3,1.5c0.5,0.6,0.9,1.4,1,2.3c0.2,0.9,0.2,1.9,0.2,3v7.7c0,0.4,0,0.7,0.1,0.9
		c0,0.2,0.1,0.4,0.2,0.5s0.2,0.2,0.4,0.3c0.2,0.1,0.4,0.1,0.8,0.1c0.3,0,0.5,0.1,0.6,0.2c0.1,0.1,0.2,0.2,0.2,0.4v1.7
		c0,0.5-0.3,0.7-1,0.8c-0.3,0.1-0.6,0.1-1,0.1s-0.6,0.1-0.9,0.1c-0.9,0-1.7-0.2-2.3-0.5C125.2,493.4,124.8,492.8,124.5,491.8
		L124.5,491.8z M124.3,485.2h-4.9c-1,0-1.8,0.2-2.4,0.7s-0.9,1.4-0.9,2.7c0,0.9,0.2,1.5,0.5,1.8c0.4,0.3,1,0.5,1.9,0.5
		c0.4,0,0.9-0.1,1.4-0.2s1-0.3,1.5-0.4c0.5-0.1,1-0.4,1.5-0.6c0.5-0.2,0.9-0.4,1.3-0.7v-3.8H124.3z M126.1,465.7
		c0.4,0.2,0.5,0.5,0.2,0.9l-4.1,5.6c-0.2,0.3-0.5,0.4-0.8,0.2l-1.6-0.7c-0.3-0.2-0.4-0.4-0.2-0.8l3.2-6.2c0.2-0.3,0.5-0.4,0.9-0.2
		L126.1,465.7z"/>
	<path class="st0" d="M142.2,474.1c1.3,0,2.6,0.1,4,0.3c1.4,0.2,2.6,0.4,3.6,0.8c0.5,0.2,0.8,0.4,0.9,0.7c0.1,0.3,0.2,0.7,0.2,1.1
		v16.9c0,1.1-0.1,2.2-0.2,3.2c-0.2,1-0.5,1.8-1.1,2.6c-0.6,0.7-1.4,1.3-2.5,1.7s-2.6,0.6-4.5,0.6c-1,0-2.2-0.1-3.4-0.2
		c-1.2-0.1-2.2-0.4-3.1-0.7c-0.4-0.2-0.7-0.3-0.8-0.5c-0.1-0.2-0.1-0.4,0-0.6l0.3-1.5c0.1-0.3,0.2-0.5,0.3-0.6
		c0.2-0.1,0.4-0.1,0.8,0c0.9,0.1,1.9,0.2,2.9,0.3s1.9,0.1,2.7,0.1c0.9,0,1.6-0.1,2.1-0.2c0.5-0.1,1-0.3,1.3-0.6
		c0.3-0.3,0.5-0.6,0.7-1.1c0.1-0.5,0.2-1,0.2-1.6v-1.3c-1,0.4-1.9,0.6-2.7,0.8c-0.8,0.2-1.5,0.2-2.2,0.2c-1.6,0-3-0.2-4-0.7
		s-1.9-1.2-2.5-2c-0.6-0.9-1-1.9-1.2-3.1s-0.3-2.6-0.3-4.1c0-1.6,0.1-3,0.4-4.3c0.3-1.3,0.7-2.3,1.4-3.2c0.7-0.9,1.6-1.6,2.7-2.1
		C139.1,474.3,140.5,474.1,142.2,474.1z M138,484c0,1.2,0.1,2.3,0.2,3.1c0.1,0.8,0.4,1.5,0.7,2c0.3,0.5,0.7,0.8,1.2,1.1
		c0.5,0.2,1.1,0.3,1.8,0.3c0.6,0,1.3-0.1,2.1-0.2c0.8-0.1,1.6-0.3,2.5-0.5v-11.4c-0.6-0.1-1.3-0.2-2-0.3s-1.4-0.1-2-0.1
		s-1.2,0.1-1.7,0.2s-1,0.4-1.4,0.8s-0.7,1-0.9,1.8C138.1,481.7,138,482.7,138,484z"/>
</g>
<g>
	<path class="st1" d="M-87.1,378.3c0,0,62.2-8.1,64-8.4c2.7-0.4,5.1-1,7.3-1.6c5-1.4,9.7-3.5,13.8-6.3c3.9-2.7,7.6-6.5,11.2-10.8
		c2.3-2.7,4.7-6.2,7-9.6v-1.7c-2.7,4-5.3,7.5-8,10.5c-3.6,4-7.4,7.4-11.2,9.8c-4,2.6-8.4,4.5-13.3,5.7c-2.2,0.6-4.5,1-7.1,1.4
		c-1.7,0.2-3.5,0.4-5.2,0.6c-0.7,0.1-58.4,6.3-58.4,6.3L-87.1,378.3L-87.1,378.3z"/>
	<path class="st1" d="M-3.6,367.8c-3.9,2.3-8.4,3.9-13.4,4.9c-2.1,0.4-4.4,0.8-7.1,1.1c-1.6,0.2-3.1,0.3-4.7,0.4
		c-0.8,0.1-1.7,0.1-2.5,0.2c-19.1,1.7-38,3.6-55.8,5.3v4.2c17.9-2.2,37-4.5,56.1-6.7c0.8-0.1,1.7-0.2,2.5-0.3
		c1.6-0.2,3.1-0.3,4.7-0.6c2.7-0.4,5.1-0.8,7.3-1.3c5.2-1.2,9.8-3,13.9-5.5c4-2.4,7.6-5.8,11.4-10c2.4-2.6,5-6.3,7.5-9.7v-1.4
		c-2.9,4-5.7,7.3-8.4,10.2C4.1,362.5,0.2,365.6-3.6,367.8"/>
	<path class="st1" d="M7.3,366.8c-3.8,3.5-7.8,6.3-11.8,8.2c-3.9,1.9-8.3,3.3-13.5,4.1c-2.1,0.4-4.4,0.6-7,0.9l-62.1,5.2v4.1
		l55.2-5.9l7.1-0.8c2.7-0.3,5-0.7,7.2-1.1c5.3-1,9.9-2.5,13.9-4.6c4.1-2.1,8.3-5.6,12.1-9.4c2.6-2.5,5.1-5.7,7.7-9.1V357
		C13.1,360.9,10.2,364.1,7.3,366.8"/>
	<path class="st1" d="M-7.7,387.9c-3.6,2-6.3,3.2-11.5,3.8c-3.1,0.3-6.3,0.5-9.4,0.7c-1.5,0.1-3,0.2-4.5,0.2
		c-9.4,0.5-18.6,1.1-28,1.8l-25.9,1.8v4.1l26.2-2.4c8.5-0.8,18.3-1.7,27.9-2.4l7-0.5c2.7-0.2,5-0.4,7-0.7c5.3-0.7,9.8-1.8,13.9-3.3
		c4.3-1.6,8.4-4.2,12.5-7.2c3.7-2.7,8.8-8,8.8-8.1v-1.4c-3.3,3.3-5.3,5.1-8.9,7.6C2.9,384.6-4.5,386.1-7.7,387.9"/>
	<path class="st1" d="M-6.4,395.7c-3.9,1.2-8.3,1.9-13.5,2.4c-2.1,0.2-4.3,0.3-6.9,0.4l-6.9,0.3c-17.3,0.8-34.4,1.7-53.4,2.7v4.1
		c18.1-1.4,35.8-2.8,53.5-4.1l6.9-0.5c2.7-0.2,4.9-0.4,7-0.6c5.3-0.6,9.8-1.5,13.8-2.8c4.4-1.4,8.8-3.5,12.9-6.1
		c3-1.9,6.1-4.3,9.2-7v-0.1c-3.5,3-6.8,3.6-10,5.7C2.1,392.5-2.1,394.4-6.4,395.7"/>
	<path class="st1" d="M-7.1,402.4c-3.9,0.9-8.2,1.5-13.5,1.9c-2,0.1-4.2,0.2-6.8,0.3l-6.9,0.2c-17.3,0.7-34.9,1.4-52.9,2.2v4.1
		c17.8-1.2,35.3-2.4,53-3.5l6.9-0.4c2.7-0.2,4.9-0.3,6.9-0.5c5.3-0.5,9.7-1.2,13.7-2.3c4.5-1.2,8.9-2.9,13.1-5.1
		c3.2-1.7,6.4-3.8,9.7-6.3v-1.7c-3.6,2.6-7,4.8-10.5,6.5C1.7,399.8-2.7,401.4-7.1,402.4"/>
	<path class="st1" d="M-7.7,409c-4,0.7-8.2,1.2-13.4,1.5c-2,0.1-4,0.2-6.8,0.2l-59.2,1.6v4.1l52.5-2.8l6.8-0.3
		c2.7-0.1,4.8-0.3,6.8-0.4c5.3-0.4,9.6-1,13.6-1.8c4.6-1,9-2.4,13.2-4.2c3.4-1.4,6.8-3.2,10.3-5.4v-1.6c-3.8,2.2-7.3,4-10.9,5.4
		C1.2,407-3.2,408.2-7.7,409"/>
	<path class="st1" d="M-8.1,415.7c-7.3,1-14.8,1.1-22,1.2c-1.7,0-3.3,0-5,0.1l-52,0.9v4.1l52.1-2.3c1.7-0.1,3.3-0.1,5-0.2
		c7.3-0.3,14.8-0.6,22.2-1.8c4.7-0.7,9.2-1.8,13.3-3.3c3.5-1.2,7.1-2.7,10.7-4.5v-1.6c-3.8,1.8-7.6,3.3-11.2,4.4
		C0.9,414.1-3.6,415.1-8.1,415.7"/>
	<path class="st1" d="M-8.5,422.4C-15.3,423-22.3,423-29,423c-2.1,0-4.2,0-6.3,0c-17.2,0.1-34.3,0.2-51.7,0.4v4.1
		c16.6-0.6,34.2-1.2,51.8-1.7c2.1-0.1,4.2-0.1,6.3-0.2c6.8-0.2,13.8-0.4,20.7-1.1c4.8-0.5,9.2-1.3,13.4-2.3
		c3.7-0.9,7.4-2.1,11.2-3.6v-1.5c-3.9,1.4-7.8,2.6-11.5,3.4C0.5,421.3-3.8,422-8.5,422.4"/>
	<path class="st1" d="M-8.8,429c-2.8,0.1-5.9,0.2-9.4,0.2c-1.3,0-2.6,0-3.9,0l-13.4-0.3c-9.2,0-18.3,0-26.8,0H-87v4l24.8-0.7
		c8.5-0.2,17.7-0.4,26.8-0.6l13.4-0.2c3.7-0.1,8.5-0.2,13.4-0.5c4.8-0.3,9.2-0.8,13.4-1.5c3.8-0.6,7.6-1.4,11.5-2.4v-1.4
		c-4,0.9-7.9,1.7-11.7,2.2C0.3,428.4-4,428.8-8.8,429"/>
	<path class="st1" d="M-22.3,435.3l-13.4-0.1c-17-0.2-34.1-0.6-51.4-0.9v4.1c16.6-0.1,34.1-0.2,51.4-0.4l13.4-0.2
		c4.5-0.1,8.9-0.2,13.4-0.3c9.2-0.3,17.4-1,25.1-2v-1.4c-7.7,0.8-16,1.3-25.1,1.3C-13.4,435.4-17.8,435.4-22.3,435.3"/>
	<polygon class="st1" points="16.2,442.5 -87.1,439.9 -87.1,443.9 16.2,443.9 	"/>
	<path class="st1" d="M6.9,374.4c-3.9,3.2-7,5.5-11.8,7.4c-4.2,1.7-8.7,2.4-13.8,3.1c-3.3,0.5-6.8,1.2-10.1,1.4
		c-1.4,0.1-2.7,0.2-4.1,0.3l-54.3,4v4.1l54.5-5.3l7.1-0.7c2.6-0.3,4.9-0.5,7.1-0.9c5.3-0.9,9.8-2.2,13.9-4c4.2-1.9,8.5-5,12.5-8.4
		c2.7-2.3,5.3-5.2,8.2-8.4v-1.5C12.8,369.1,9.9,372,6.9,374.4"/>
	<path class="st1" d="M60.2,339.9c0,0,18.6,29.7,22,35.2c3.4,5.4,7.3,9.8,21,12.7c13.8,2.9,19.7,4.3,19.7,4.3v1.1
		c0,0-8.7-1.9-20-4.4c-11.2-2.5-15.8-3.4-21-10.5c-4.3-6-21.8-31.3-21.8-31.3v-7.1H60.2z"/>
	<path class="st1" d="M60.2,373.8c0,0,16.9,17.8,21.8,22.9c5.2,5.4,11.8,7.4,21.1,9.1c8.8,1.6,19.9,3.4,19.9,3.4v1
		c0,0-10.4-1.7-19.9-3.3c-9.3-1.6-15.8-2.5-21.1-7.4c-4.8-4.4-21.8-20.4-21.8-20.4V373.8z"/>
	<path class="st1" d="M60.2,381.8c0,0,16.1,15,21.8,20.1c5.3,4.7,9.5,6.2,21.1,8.2c11.6,2.1,19.8,3.3,19.8,3.3v1.1
		c0,0-10.5-1.7-19.9-3.2s-15.4-2.1-21.1-6.7c-6.5-5.3-21.8-17.9-21.8-17.9v-4.9H60.2z"/>
	<path class="st1" d="M60.2,390.4c0,0,18.4,14.6,21.8,17.2c3.4,2.6,8,5.5,21.2,7.5c13.1,1.9,19.8,2.8,19.8,2.8v1.1
		c0,0-11.9-1.7-19.8-2.7c-7.9-1-14-1.4-21.1-6.2c-6.9-4.6-21.9-15.2-21.9-15.2V390.4z"/>
	<path class="st1" d="M60.2,398.6c0,0,18.4,12.3,21.9,14.3c3.5,1.9,7.6,5.1,21.1,6.8c13.5,1.7,19.8,2.5,19.8,2.5v1.1
		c0,0-11.1-1.2-19.8-2.2c-8.7-0.9-14.6-2.2-21.1-5.8s-21.8-12.6-21.8-12.6L60.2,398.6L60.2,398.6z"/>
	<path class="st1" d="M60.2,406.8c0,0,16.3,8.9,21.8,11.7c6.2,3.1,11.5,4.6,21.1,5.7c9.5,1.1,19.8,2.2,19.8,2.2v1c0,0-9.6-1-19.8-2
		S89.3,424,82,420.7c-6.6-2.9-21.8-10.1-21.8-10.1L60.2,406.8L60.2,406.8z"/>
	<path class="st1" d="M60.2,415.1c0,0,12.9,5.5,21.9,9.1c8.9,3.5,15.7,3.8,21.1,4.5c2.4,0.3,19.7,2.1,19.7,2.1v1
		c0,0-10.4-0.8-19.8-1.7c-9.4-0.8-13.5-1.2-21.1-3.7c-7.7-2.6-21.9-7.5-21.9-7.5v-3.8H60.2z"/>
	<path class="st1" d="M60.2,423.6c0,0,13,4,21.9,6.4c8.9,2.3,17,3.3,21.1,3.6c4.1,0.3,19.8,1.6,19.8,1.6v0.9c0,0-8.9-0.6-19.8-1.4
		c-8.8-0.6-15.9-1.3-21.1-2.4c-5.8-1.3-21.8-5.1-21.8-5.1L60.2,423.6L60.2,423.6z"/>
	<path class="st1" d="M60.2,432c0,0,10.6,1.8,21.9,3.7c8.4,1.4,19.8,2.3,21.1,2.3c1.2,0.1,19.8,1.3,19.8,1.3v1
		c0,0-11.9-0.6-19.8-1.1c-8.3-0.5-16.5-1-21.1-1.4c-10.4-1.1-21.8-2.5-21.8-2.5L60.2,432L60.2,432z"/>
	<path class="st1" d="M60.2,440.6c0,0,16.8,0.6,21.9,0.7c5.1,0.1,40.9,1.6,40.9,1.6v1H60.2V440.6z"/>
	<path class="st1" d="M103.1,392.3c-15.2-3.3-18.6-8.9-21.2-12.3c-2.5-3.5-21.8-31.6-21.8-31.6v6.4c0.8,1,17.2,22.6,21.8,28.5
		c5.2,6.7,13.4,8.2,21.1,9.9c7.8,1.7,19.8,4,19.8,4v-0.9C122.9,396.3,107,393.2,103.1,392.3"/>
	<path class="st1" d="M103.1,396.8c-12.5-2.4-17.5-6.4-21.2-11.2c-3.7-4.8-21.8-28.7-21.8-28.7v6c0.8,0.9,17.3,20.6,21.8,25.7
		c5.2,6,12.4,7.5,21.2,9.1c8.8,1.6,19.8,3.7,19.8,3.7v-0.9C122.9,400.6,110.3,398.2,103.1,396.8"/>
	<path class="st1" d="M103.1,401.4c-13-2.5-15.6-4.6-21.1-10.6c-3.4-3.8-21.1-24.7-21.8-25.5v5.6c0,0,16.5,17.6,21.8,22.8
		c6.9,6.8,13.5,7.3,21.2,8.7c7.7,1.4,19.8,3.6,19.8,3.6v-0.9C122.9,405,108.3,402.4,103.1,401.4"/>
	<rect x="-44.2" y="383.2" class="st2" width="90.5" height="60.7"/>
	<polygon class="st3" points="2.1,391.8 5.2,391.8 2.7,393.8 3.7,396.9 1.1,395 -1.4,396.9 -0.4,393.8 -3,391.8 0.2,391.8 
		1.1,388.7 	"/>
	<polygon class="st3" points="2.2,432.3 5.3,432.3 2.8,434.2 3.8,437.2 1.3,435.4 -1.3,437.2 -0.3,434.2 -2.8,432.3 0.3,432.3 
		1.3,429.3 	"/>
	<polygon class="st3" points="12.2,429.6 15.3,429.6 12.8,431.5 13.8,434.6 11.2,432.7 8.7,434.6 9.7,431.5 7.1,429.6 10.3,429.6 
		11.2,426.7 	"/>
	<polygon class="st3" points="12.2,394.5 15.3,394.5 12.8,396.4 13.8,399.4 11.2,397.6 8.7,399.4 9.7,396.4 7.1,394.5 10.3,394.5 
		11.2,391.5 	"/>
	<polygon class="st3" points="19.6,401.9 22.7,401.9 20.2,403.8 21.2,406.9 18.6,405 16.1,406.9 17.1,403.8 14.6,401.9 17.7,401.9 
		18.6,399 	"/>
	<polygon class="st3" points="19.6,422.3 22.7,422.3 20.2,424.2 21.2,427.2 18.6,425.4 16.1,427.2 17.1,424.2 14.6,422.3 
		17.7,422.3 18.6,419.3 	"/>
	<polygon class="st3" points="22.4,412 25.5,412 23,413.9 24,416.9 21.4,415 18.9,416.9 19.9,413.9 17.3,412 20.5,412 21.4,409 	"/>
	<polygon class="st3" points="-8.1,394.5 -5,394.5 -7.5,396.4 -6.5,399.5 -9,397.6 -11.6,399.5 -10.6,396.4 -13.1,394.5 -10,394.5 
		-9,391.6 	"/>
	<polygon class="st3" points="-15.3,402 -12.2,402 -14.7,403.9 -13.7,406.9 -16.2,405 -18.8,406.9 -17.8,403.9 -20.3,402 -17.2,402 
		-16.2,399 	"/>
	<polygon class="st3" points="-18,412 -14.8,412 -17.4,413.9 -16.4,416.9 -18.9,415.1 -21.5,416.9 -20.5,413.9 -23,412 -19.9,412 
		-18.9,409 	"/>
	<polygon class="st3" points="-15.3,422.3 -12.2,422.3 -14.7,424.2 -13.7,427.3 -16.2,425.4 -18.8,427.3 -17.8,424.2 -20.3,422.3 
		-17.2,422.3 -16.2,419.4 	"/>
	<polygon class="st3" points="-8,429.6 -4.9,429.6 -7.4,431.6 -6.4,434.6 -8.9,432.7 -11.5,434.6 -10.5,431.6 -13,429.6 -9.9,429.6 
		-8.9,426.7 	"/>
</g>
</svg>
