<?xml version="1.0" encoding="utf-8"?>
<!-- Generator: Adobe Illustrator 19.1.0, SVG Export Plug-In . SVG Version: 6.00 Build 0)  -->
<!DOCTYPE svg PUBLIC "-//W3C//DTD SVG 1.1//EN" "http://www.w3.org/Graphics/SVG/1.1/DTD/svg11.dtd">
<svg version="1.1" id="Layer_1" xmlns="http://www.w3.org/2000/svg" xmlns:xlink="http://www.w3.org/1999/xlink" x="0px" y="0px"
	 viewBox="-72 338.9 450 165" style="enable-background:new -72 338.9 450 165;" xml:space="preserve">
<style type="text/css">
	.st0{fill:#404040;}
	.st1{fill:#BCBEC0;}
	.st2{fill:#0D4F9E;}
	.st3{fill:#FAEA27;}
</style>
<g>
	<g>
		<path class="st0" d="M-22,486.2c0,1,0.1,1.9,0.3,2.5c0.2,0.7,0.5,1.2,0.9,1.6s0.9,0.7,1.5,0.8c0.6,0.2,1.3,0.2,2.1,0.2
			c0.7,0,1.6-0.1,2.6-0.2s1.9-0.2,2.6-0.3c0.4-0.1,0.6,0,0.8,0c0.1,0.1,0.2,0.3,0.3,0.7l0.2,1.3c0.1,0.3,0,0.5,0,0.7
			c-0.1,0.2-0.3,0.4-0.7,0.5c-0.4,0.2-0.9,0.3-1.4,0.4s-1.1,0.2-1.7,0.3s-1.2,0.1-1.8,0.2c-0.6,0.1-1.1,0.1-1.6,0.1
			c-1.9,0-3.5-0.3-4.6-0.8c-1.1-0.6-2-1.3-2.6-2.2s-1-2-1.2-3.2c-0.1-1.2-0.2-2.4-0.2-3.7c0-1,0.1-2,0.2-3.2s0.5-2.3,1.1-3.4
			c0.6-1,1.4-1.9,2.6-2.6c1.1-0.7,2.7-1.1,4.6-1.1c1.8,0,3.2,0.3,4.3,0.8c1.1,0.5,2,1.2,2.6,2.1c0.6,0.8,1,1.8,1.3,2.9
			c0.2,1.1,0.4,2.2,0.4,3.2c0,0.7-0.1,1.3-0.4,1.8s-0.8,0.7-1.6,0.7L-22,486.2L-22,486.2L-22,486.2z M-18,478.4
			c-0.7,0-1.4,0.1-1.8,0.3c-0.4,0.2-0.9,0.5-1.2,0.9s-0.5,0.9-0.7,1.5c-0.1,0.6-0.2,1.3-0.3,2h7.9c0-0.6-0.1-1.2-0.2-1.8
			c-0.1-0.6-0.3-1.1-0.6-1.5c-0.3-0.4-0.7-0.8-1.2-1.1C-16.5,478.6-17.2,478.4-18,478.4z"/>
		<path class="st0" d="M-4.9,494.8c-0.4,0-0.7-0.1-0.8-0.2c-0.1-0.1-0.2-0.4-0.2-0.6v-18c0-0.3,0.1-0.5,0.2-0.6s0.4-0.2,0.7-0.2h8.5
			c2.3,0,4,0.5,5.1,1.4c1.1,1,1.6,2.3,1.6,3.9c0,0.5-0.1,1.2-0.4,2s-0.9,1.4-1.9,2c0.6,0.2,1.1,0.6,1.4,0.9c0.4,0.4,0.7,0.8,0.9,1.2
			s0.4,0.8,0.4,1.3c0.1,0.4,0.1,0.8,0.1,1.2c0,0.9-0.2,1.7-0.5,2.4c-0.4,0.7-0.8,1.3-1.5,1.8c-0.6,0.5-1.3,0.9-2.2,1.2
			c-0.8,0.3-1.7,0.4-2.6,0.4L-4.9,494.8L-4.9,494.8z M5.7,480.8c0-0.3,0-0.5-0.1-0.8c-0.1-0.2-0.2-0.5-0.5-0.7
			c-0.2-0.2-0.5-0.4-0.9-0.5s-0.8-0.2-1.3-0.2h-4.5v4.3h4.8c0.8,0,1.4-0.2,1.8-0.7C5.5,482,5.7,481.5,5.7,480.8z M6.3,488.7
			c0-0.7-0.2-1.2-0.6-1.8c-0.4-0.5-1.1-0.8-2.1-0.8h-5.1v5h4.7c0.6,0,1.2-0.1,1.6-0.2c0.4-0.2,0.7-0.4,1-0.6
			c0.2-0.2,0.4-0.5,0.5-0.8C6.3,489.2,6.3,489,6.3,488.7z"/>
		<path class="st0" d="M31.8,484.9c0,1.6-0.1,3.1-0.4,4.4c-0.2,1.3-0.7,2.4-1.3,3.2c-0.6,0.9-1.4,1.5-2.4,2s-2.3,0.7-3.9,0.7
			c-0.7,0-1.4-0.1-2.3-0.2s-1.8-0.4-2.7-0.7l0,0v7c0,0.2,0,0.4-0.1,0.6s-0.3,0.2-0.6,0.2h-2.8c-0.3,0-0.5-0.1-0.6-0.2
			s-0.1-0.3-0.1-0.6v-25.4c0-0.5,0.3-0.8,0.8-0.8h2.8c0.3,0,0.5,0.1,0.6,0.2s0.1,0.3,0.1,0.6v1.2l0.1,0.1c0.3-0.2,0.8-0.5,1.3-0.8
			s1-0.5,1.6-0.8c0.6-0.2,1.1-0.4,1.7-0.6s1.2-0.2,1.8-0.2c1.3,0,2.4,0.2,3.2,0.7c0.9,0.5,1.5,1.2,2,2c0.5,0.9,0.8,1.9,1,3.1
			C31.7,482,31.8,483.4,31.8,484.9z M27.3,484.8c0-1.3-0.1-2.3-0.2-3.1c-0.1-0.8-0.3-1.4-0.6-1.8c-0.3-0.4-0.6-0.7-1-0.9
			c-0.4-0.1-0.8-0.2-1.4-0.2c-0.4,0-0.9,0.1-1.4,0.2s-1,0.3-1.5,0.5s-1,0.4-1.4,0.6s-0.8,0.4-1.1,0.6v10c0.9,0.3,1.7,0.4,2.5,0.5
			c0.7,0.1,1.4,0.1,2.1,0.1s1.3-0.1,1.8-0.3c0.5-0.2,0.9-0.6,1.2-1.1s0.5-1.2,0.7-2C27.2,487.1,27.3,486.1,27.3,484.8z"/>
		<path class="st0" d="M52.3,484.7c0,1.1-0.1,2.3-0.2,3.6c-0.1,1.2-0.5,2.4-1.1,3.4s-1.5,1.9-2.6,2.5c-1.2,0.7-2.8,1-4.9,1
			c-2,0-3.6-0.3-4.7-1c-1.1-0.7-2-1.5-2.6-2.5s-0.9-2.2-1.1-3.4c-0.1-1.2-0.2-2.4-0.2-3.6c0-0.9,0.1-2,0.3-3.1s0.6-2.2,1.1-3.2
			c0.6-1,1.4-1.8,2.6-2.5c1.1-0.7,2.7-1,4.6-1s3.5,0.3,4.6,0.9c1.2,0.6,2,1.4,2.7,2.3c0.6,0.9,1,2,1.2,3.2
			C52.2,482.3,52.3,483.5,52.3,484.7z M47.9,485c0-1.1-0.1-2-0.2-2.8c-0.1-0.8-0.3-1.4-0.6-2c-0.3-0.5-0.8-0.9-1.3-1.2
			c-0.5-0.3-1.4-0.4-2.3-0.4s-1.5,0.1-2.1,0.4c-0.5,0.3-1,0.7-1.3,1.2s-0.5,1.2-0.6,2s-0.2,1.7-0.2,2.7c0,1.1,0.1,2,0.2,2.8
			c0.1,0.8,0.3,1.4,0.6,2c0.3,0.5,0.7,0.9,1.2,1.2c0.5,0.3,1.2,0.4,2.1,0.4s1.6-0.1,2.2-0.4s1-0.6,1.3-1.2c0.3-0.5,0.5-1.2,0.6-2
			C47.8,487,47.9,486,47.9,485z"/>
		<path class="st0" d="M73.3,494c0,0.5-0.3,0.8-0.8,0.8h-2.9c-0.5,0-0.8-0.3-0.8-0.8v-15.2h-8.3V494c0,0.2-0.1,0.4-0.2,0.5
			s-0.3,0.2-0.6,0.2h-2.8c-0.5,0-0.8-0.3-0.8-0.8v-18.1c0-0.5,0.3-0.8,0.8-0.8h15.6c0.3,0,0.5,0.1,0.6,0.2c0.1,0.1,0.2,0.3,0.2,0.6
			C73.3,475.8,73.3,494,73.3,494z"/>
		<path class="st0" d="M81.7,486.2c0,1,0.1,1.9,0.3,2.5c0.2,0.7,0.5,1.2,0.9,1.6c0.4,0.4,0.9,0.7,1.5,0.8c0.6,0.2,1.3,0.2,2.1,0.2
			c0.7,0,1.6-0.1,2.6-0.2s1.9-0.2,2.6-0.3c0.4-0.1,0.6,0,0.8,0c0.1,0.1,0.2,0.3,0.3,0.7l0.2,1.3c0.1,0.3,0,0.5,0,0.7
			c-0.1,0.2-0.3,0.4-0.7,0.5c-0.4,0.2-0.9,0.3-1.4,0.4s-1.1,0.2-1.7,0.3c-0.6,0.1-1.2,0.1-1.8,0.2s-1.1,0.1-1.6,0.1
			c-1.9,0-3.5-0.3-4.6-0.8c-1.1-0.6-2-1.3-2.6-2.2s-1-2-1.2-3.2s-0.3-2.5-0.3-3.8c0-1,0.1-2,0.2-3.2s0.5-2.3,1.1-3.4
			c0.6-1,1.4-1.9,2.6-2.6c1.1-0.7,2.7-1.1,4.6-1.1c1.8,0,3.2,0.3,4.3,0.8s2,1.2,2.6,2.1c0.6,0.8,1,1.8,1.3,2.9
			c0.2,1.1,0.4,2.2,0.4,3.2c0,0.7-0.1,1.3-0.4,1.8c-0.3,0.5-0.8,0.7-1.6,0.7H81.7z M85.7,478.4c-0.7,0-1.4,0.1-1.8,0.3
			c-0.4,0.2-0.9,0.5-1.2,0.9c-0.3,0.4-0.5,0.9-0.7,1.5c-0.1,0.6-0.2,1.3-0.3,2h7.9c0-0.6-0.1-1.2-0.2-1.8s-0.3-1.1-0.6-1.5
			c-0.3-0.4-0.7-0.8-1.2-1.1C87.2,478.6,86.5,478.4,85.7,478.4z"/>
		<path class="st0" d="M97.8,476.1c0-0.3,0.1-0.5,0.2-0.7c0.1-0.1,0.3-0.2,0.7-0.2h2.6c0.4,0,0.6,0.1,0.7,0.2
			c0.1,0.2,0.2,0.4,0.2,0.6v11.7h0.1l5.2-7.1l3.6-4.7c0.2-0.2,0.3-0.4,0.5-0.5s0.5-0.2,0.9-0.2h2.1c0.3,0,0.5,0.1,0.7,0.3
			c0.1,0.2,0.2,0.4,0.2,0.6V494c0,0.6-0.3,0.8-0.9,0.8h-2.5c-0.6,0-0.9-0.3-0.9-0.8v-12.2l0,0c-0.9,1.3-1.9,2.5-2.8,3.8
			s-1.9,2.5-2.8,3.8c-0.6,0.8-1.2,1.6-1.8,2.4s-1.2,1.6-1.8,2.4c-0.2,0.2-0.3,0.4-0.5,0.5c-0.2,0.1-0.5,0.2-0.9,0.2h-1.7
			c-0.3,0-0.5-0.1-0.7-0.2c-0.1-0.1-0.2-0.3-0.2-0.6v-18L97.8,476.1L97.8,476.1z M106.6,473.4c-1.3,0-2.6-0.3-3.8-1
			c-1.2-0.7-2.2-1.7-2.8-3.1c-0.1-0.2-0.2-0.4-0.3-0.7c-0.1-0.2,0-0.5,0.2-0.6l1.1-0.9c0.2-0.2,0.4-0.2,0.6-0.1
			c0.1,0.1,0.3,0.2,0.5,0.4c0.8,1,1.5,1.7,2.2,2.1c0.7,0.5,1.5,0.7,2.5,0.7c0.5,0,0.9-0.1,1.2-0.2c0.4-0.1,0.7-0.3,1-0.5
			s0.7-0.5,1-0.9c0.3-0.3,0.7-0.8,1.2-1.2c0.3-0.4,0.7-0.4,1-0.2l1.1,0.7c0.3,0.2,0.4,0.4,0.3,0.6c-0.1,0.3-0.2,0.5-0.3,0.8
			c-0.7,1.4-1.7,2.5-2.8,3.2C109.2,473,107.9,473.4,106.6,473.4z"/>
		<path class="st0" d="M134.4,493c0.1,0.3,0.1,0.5,0,0.7s-0.3,0.4-0.7,0.5c-0.8,0.3-1.7,0.6-2.9,0.7c-1.1,0.1-2.2,0.2-3.2,0.2
			c-1.9,0-3.4-0.3-4.5-0.8s-2-1.3-2.6-2.2s-1-2-1.2-3.3c-0.2-1.2-0.3-2.5-0.3-3.9c0-1.2,0.1-2.4,0.3-3.7c0.2-1.2,0.6-2.3,1.2-3.2
			c0.6-0.9,1.5-1.7,2.6-2.3s2.6-0.9,4.5-0.9c0.5,0,1,0,1.5,0s1.1,0.1,1.6,0.2s1.1,0.2,1.6,0.3s1,0.3,1.4,0.5
			c0.5,0.2,0.7,0.6,0.6,1.1l-0.3,1.6c-0.1,0.3-0.2,0.5-0.4,0.5c-0.2,0.1-0.5,0.1-0.8,0c-0.8-0.1-1.7-0.2-2.5-0.2
			c-0.9-0.1-1.6-0.1-2.3-0.1c-1.6,0-2.8,0.5-3.4,1.4c-0.6,0.9-1,2.5-1,4.7c0,1.2,0.1,2.3,0.2,3.1c0.1,0.8,0.4,1.5,0.7,2
			c0.3,0.5,0.8,0.9,1.3,1.1s1.2,0.3,2,0.3c0.6,0,1.4,0,2.4-0.1s1.9-0.2,2.7-0.3c0.3-0.1,0.6-0.1,0.7,0c0.2,0.1,0.3,0.3,0.3,0.6
			L134.4,493z"/>
		<path class="st0" d="M141.7,494.1c0,0.2,0,0.4-0.1,0.5c-0.1,0.1-0.3,0.2-0.6,0.2h-3c-0.5,0-0.7-0.2-0.7-0.7v-18.2
			c0-0.5,0.2-0.7,0.7-0.7h3c0.3,0,0.5,0.1,0.6,0.2c0.1,0.1,0.1,0.3,0.1,0.5v7.1h2c0.4,0,0.7,0,1.1-0.1c0.3-0.1,0.6-0.2,0.9-0.4
			c0.3-0.2,0.5-0.5,0.8-0.9c0.3-0.4,0.5-0.9,0.7-1.5l1.6-4.3c0.1-0.2,0.2-0.4,0.4-0.5s0.4-0.1,0.7-0.1h2.4c0.4,0,0.6,0.1,0.7,0.2
			c0.1,0.2,0.1,0.4,0,0.6l-1.4,4.2c-0.4,1.3-0.9,2.2-1.4,3c-0.5,0.7-1.1,1.2-1.8,1.4l0,0c0.9,0.3,1.6,0.8,2.1,1.4s0.9,1.4,1.2,2.5
			l1.8,5.3c0.1,0.2,0.1,0.4,0,0.6c-0.1,0.2-0.3,0.3-0.7,0.3h-2.7c-0.3,0-0.5,0-0.7-0.1c-0.2-0.1-0.3-0.2-0.4-0.5l-1.6-4.6
			c-0.4-1.2-1-2-1.7-2.4c-0.7-0.4-1.4-0.6-2.2-0.6h-2.1v7.6H141.7z"/>
		<path class="st0" d="M169.3,492.5c-1,0.8-2.2,1.4-3.4,1.9c-1.3,0.5-2.6,0.7-3.9,0.7c-1.1,0-2-0.1-2.7-0.4
			c-0.7-0.3-1.3-0.7-1.7-1.2s-0.7-1.1-0.9-1.8c-0.2-0.7-0.3-1.5-0.3-2.3c0-2.3,0.6-4,1.8-5.1c1.3-1.1,3.1-1.6,5.7-1.6h5.1v-1
			c0-0.6-0.1-1.1-0.2-1.5c-0.1-0.4-0.3-0.8-0.7-1c-0.3-0.3-0.7-0.5-1.3-0.6c-0.5-0.1-1.2-0.2-2-0.2c-0.3,0-0.7,0-1.2,0
			s-0.9,0.1-1.4,0.1s-1,0.1-1.5,0.1c-0.5,0.1-0.9,0.1-1.3,0.1c-0.4,0.1-0.7,0.1-0.8,0c-0.1,0-0.2-0.2-0.3-0.5l-0.4-1.5
			c-0.1-0.3,0-0.5,0.1-0.7s0.4-0.3,0.8-0.5s0.9-0.3,1.5-0.4s1.2-0.2,1.8-0.3s1.2-0.1,1.8-0.2c0.6,0,1.1-0.1,1.6-0.1
			c1.7,0,3.1,0.2,4.1,0.5s1.8,0.8,2.3,1.5c0.5,0.6,0.9,1.4,1,2.3c0.2,0.9,0.2,1.9,0.2,3v7.7c0,0.4,0,0.7,0.1,0.9
			c0,0.2,0.1,0.4,0.2,0.5c0.1,0.1,0.2,0.2,0.4,0.3s0.4,0.1,0.8,0.1c0.3,0,0.5,0.1,0.6,0.2c0.1,0.1,0.2,0.2,0.2,0.4v1.7
			c0,0.5-0.3,0.7-1,0.8c-0.3,0.1-0.6,0.1-1,0.1c-0.4,0-0.6,0.1-0.9,0.1c-0.9,0-1.7-0.2-2.3-0.5C169.9,494.1,169.6,493.5,169.3,492.5
			L169.3,492.5z M169,485.9h-4.9c-1,0-1.8,0.2-2.4,0.7c-0.6,0.5-0.9,1.4-0.9,2.7c0,0.9,0.2,1.5,0.5,1.8c0.4,0.3,1,0.5,1.9,0.5
			c0.4,0,0.9-0.1,1.4-0.2s1-0.3,1.5-0.4c0.5-0.2,1-0.4,1.5-0.6s0.9-0.4,1.3-0.7L169,485.9L169,485.9z"/>
		<path class="st0" d="M194,494.1c0,0.2,0,0.4-0.1,0.5s-0.3,0.2-0.6,0.2h-3c-0.5,0-0.7-0.2-0.7-0.7v-18.2c0-0.5,0.2-0.7,0.7-0.7h3
			c0.3,0,0.5,0.1,0.6,0.2s0.1,0.3,0.1,0.5v7.1h2c0.4,0,0.7,0,1.1-0.1c0.3-0.1,0.6-0.2,0.9-0.4c0.3-0.2,0.5-0.5,0.8-0.9
			c0.3-0.4,0.5-0.9,0.7-1.5l1.6-4.3c0.1-0.2,0.2-0.4,0.4-0.5c0.2-0.1,0.4-0.1,0.7-0.1h2.4c0.4,0,0.6,0.1,0.7,0.2
			c0.1,0.2,0.1,0.4,0,0.6l-1.4,4.2c-0.4,1.3-0.9,2.2-1.4,3c-0.5,0.7-1.1,1.2-1.8,1.4l0,0c0.9,0.3,1.6,0.8,2.1,1.4s0.9,1.4,1.2,2.5
			l1.8,5.3c0.1,0.2,0.1,0.4,0,0.6c-0.1,0.2-0.3,0.3-0.7,0.3h-2.7c-0.3,0-0.5,0-0.7-0.1c-0.2-0.1-0.3-0.2-0.4-0.5l-1.6-4.6
			c-0.4-1.2-1-2-1.7-2.4c-0.7-0.4-1.4-0.6-2.2-0.6h-2.1v7.6H194z"/>
		<path class="st0" d="M226.1,484.7c0,1.1-0.1,2.3-0.2,3.6c-0.1,1.2-0.5,2.4-1.1,3.4s-1.5,1.9-2.6,2.5c-1.2,0.7-2.8,1-4.9,1
			c-2,0-3.6-0.3-4.7-1s-2-1.5-2.6-2.5c-0.6-1-0.9-2.2-1.1-3.4c-0.1-1.2-0.2-2.4-0.2-3.6c0-0.9,0.1-2,0.3-3.1s0.6-2.2,1.1-3.2
			c0.6-1,1.4-1.8,2.6-2.5s2.7-1,4.6-1c1.9,0,3.5,0.3,4.6,0.9c1.2,0.6,2,1.4,2.7,2.3c0.6,0.9,1,2,1.2,3.2
			C226,482.3,226.1,483.5,226.1,484.7z M221.7,485c0-1.1-0.1-2-0.2-2.8c-0.1-0.8-0.3-1.4-0.6-2c-0.3-0.6-0.8-0.9-1.3-1.2
			c-0.6-0.3-1.3-0.4-2.2-0.4s-1.5,0.1-2.1,0.4c-0.5,0.3-1,0.7-1.3,1.2s-0.5,1.2-0.6,2c-0.1,0.8-0.2,1.7-0.2,2.7c0,1.1,0.1,2,0.2,2.8
			c0.1,0.8,0.3,1.4,0.6,2c0.3,0.5,0.7,0.9,1.2,1.2c0.5,0.3,1.2,0.4,2.1,0.4c0.9,0,1.6-0.1,2.2-0.4c0.6-0.3,1-0.6,1.3-1.2
			c0.3-0.6,0.5-1.2,0.6-2C221.5,486.9,221.7,486,221.7,485z"/>
		<path class="st0" d="M246.3,483.5l-1.8,3.4c-0.4,0.7-0.7,1.4-1.1,2.1c-0.3,0.7-0.7,1.4-1.2,2.2c-0.2,0.5-0.6,0.7-1.2,0.7h-1.4
			c-0.4,0-0.6-0.1-0.8-0.2c-0.2-0.1-0.3-0.3-0.4-0.5c-0.4-0.7-0.7-1.3-1.1-1.9c-0.3-0.6-0.7-1.2-1-1.8c-0.3-0.6-0.7-1.3-1-2
			c-0.3-0.7-0.7-1.4-1-2h-0.1V494c0,0.5-0.3,0.8-0.9,0.8h-2.5c-0.6,0-0.8-0.3-0.8-0.8v-18c0-0.5,0.3-0.8,0.8-0.8h2.3
			c0.4,0,0.7,0.1,0.9,0.2c0.2,0.1,0.3,0.3,0.5,0.5c0.4,0.8,0.8,1.5,1.3,2.3c0.4,0.8,0.8,1.5,1.2,2.3c0.6,1.1,1.2,2.2,1.7,3.3
			s1.1,2.2,1.7,3.3l3.1-5.9l2.8-5.3c0.1-0.2,0.3-0.4,0.5-0.5c0.2-0.1,0.5-0.2,0.9-0.2h2.1c0.5,0,0.8,0.3,0.8,0.8v18
			c0,0.5-0.3,0.8-0.8,0.8h-2.5c-0.6,0-0.9-0.3-0.9-0.8v-10.5H246.3L246.3,483.5z"/>
		<path class="st0" d="M254.8,476.1c0-0.3,0.1-0.5,0.2-0.7c0.1-0.1,0.3-0.2,0.7-0.2h2.6c0.4,0,0.6,0.1,0.7,0.2
			c0.1,0.2,0.2,0.4,0.2,0.6v11.7h0.1l5.2-7.1l3.6-4.7c0.2-0.2,0.3-0.4,0.5-0.5c0.2-0.1,0.5-0.2,0.9-0.2h2.1c0.3,0,0.5,0.1,0.7,0.3
			c0.1,0.2,0.2,0.4,0.2,0.6V494c0,0.6-0.3,0.8-0.9,0.8h-2.5c-0.6,0-0.9-0.3-0.9-0.8v-12.2l0,0c-0.9,1.3-1.9,2.5-2.8,3.8
			c-0.9,1.3-1.9,2.5-2.8,3.8c-0.6,0.8-1.2,1.6-1.8,2.4s-1.2,1.6-1.8,2.4c-0.2,0.2-0.3,0.4-0.5,0.5c-0.2,0.1-0.5,0.2-0.9,0.2h-1.7
			c-0.3,0-0.5-0.1-0.7-0.2c-0.1-0.1-0.2-0.3-0.2-0.6v-18L254.8,476.1L254.8,476.1z"/>
		<path class="st0" d="M291.5,493c0.1,0.3,0.1,0.5,0,0.7s-0.3,0.4-0.7,0.5c-0.8,0.3-1.7,0.6-2.9,0.7c-1.1,0.1-2.2,0.2-3.2,0.2
			c-1.9,0-3.4-0.3-4.5-0.8c-1.1-0.6-2-1.3-2.6-2.2s-1-2-1.2-3.3c-0.2-1.2-0.3-2.5-0.3-3.9c0-1.2,0.1-2.4,0.3-3.7
			c0.2-1.2,0.6-2.3,1.2-3.2c0.6-0.9,1.5-1.7,2.6-2.3s2.6-0.9,4.5-0.9c0.5,0,1,0,1.5,0s1.1,0.1,1.6,0.2s1.1,0.2,1.6,0.3
			s1,0.3,1.4,0.5c0.5,0.2,0.7,0.6,0.6,1.1l-0.3,1.6c-0.1,0.3-0.2,0.5-0.4,0.5c-0.2,0.1-0.5,0.1-0.8,0c-0.8-0.1-1.7-0.2-2.5-0.2
			c-0.9-0.1-1.6-0.1-2.3-0.1c-1.6,0-2.8,0.5-3.4,1.4c-0.6,0.9-1,2.5-1,4.7c0,1.2,0.1,2.3,0.2,3.1c0.1,0.8,0.4,1.5,0.7,2
			c0.3,0.5,0.8,0.9,1.3,1.1s1.2,0.3,2,0.3c0.6,0,1.4,0,2.4-0.1s1.9-0.2,2.7-0.3c0.3-0.1,0.6-0.1,0.7,0c0.2,0.1,0.3,0.3,0.3,0.6
			L291.5,493z"/>
		<path class="st0" d="M294.4,476.1c0-0.3,0.1-0.5,0.2-0.7c0.1-0.1,0.3-0.2,0.7-0.2h2.6c0.4,0,0.6,0.1,0.7,0.2
			c0.1,0.2,0.2,0.4,0.2,0.6v11.7h0.1l5.2-7.1l3.6-4.7c0.2-0.2,0.3-0.4,0.5-0.5c0.2-0.1,0.5-0.2,0.9-0.2h2.1c0.3,0,0.5,0.1,0.7,0.3
			c0.1,0.2,0.2,0.4,0.2,0.6V494c0,0.6-0.3,0.8-0.9,0.8h-2.7c-0.6,0-0.9-0.3-0.9-0.8v-12.2l0,0c-0.9,1.3-1.9,2.5-2.8,3.8
			c-0.9,1.3-1.9,2.5-2.8,3.8c-0.6,0.8-1.2,1.6-1.8,2.4s-1.2,1.6-1.8,2.4c-0.2,0.2-0.3,0.4-0.5,0.5c-0.2,0.1-0.5,0.2-0.9,0.2h-1.7
			c-0.3,0-0.5-0.1-0.7-0.2c-0.1-0.1-0.2-0.3-0.2-0.6V476.1L294.4,476.1z"/>
		<path class="st0" d="M331.5,475.2c0.4,0,0.6,0.1,0.8,0.2c0.1,0.1,0.2,0.3,0.2,0.6v18c0,0.5-0.3,0.8-1,0.8H329
			c-0.3,0-0.6-0.1-0.7-0.2s-0.2-0.3-0.2-0.6v-6.8h-4c-0.7,0.1-1.3,0.3-1.7,0.7c-0.5,0.4-0.9,1.1-1.3,2.3l-1.3,3.9
			c-0.1,0.3-0.2,0.5-0.4,0.7c-0.2,0.1-0.4,0.2-0.8,0.2H316c-0.4,0-0.6-0.1-0.7-0.2s-0.1-0.4,0-0.7l1.4-4.3c0.3-0.8,0.6-1.5,0.9-2.1
			s0.8-1.1,1.4-1.4c-0.6-0.2-1.1-0.5-1.4-0.9c-0.4-0.4-0.7-0.8-0.9-1.2c-0.2-0.4-0.4-0.9-0.4-1.4s-0.1-0.9-0.1-1.4
			c0-1,0.2-1.9,0.6-2.7c0.4-0.8,0.9-1.4,1.5-1.9s1.4-0.9,2.3-1.2c0.9-0.3,1.8-0.4,2.7-0.4H331.5L331.5,475.2z M320.4,481.3
			c0,0.8,0.2,1.4,0.7,1.8s1.3,0.6,2.4,0.6h4.6v-5h-4.4c-1,0-1.7,0.2-2.4,0.6C320.7,479.9,320.4,480.5,320.4,481.3z"/>
	</g>
	<g>
		<path class="st1" d="M65.1,379c0,0,62.2-8.1,64-8.4c2.7-0.4,5.1-1,7.3-1.6c5-1.4,9.7-3.5,13.8-6.3c3.9-2.7,7.6-6.5,11.2-10.8
			c2.3-2.7,4.7-6.2,7-9.6v-1.7c-2.7,4-5.3,7.5-8,10.5c-3.6,4-7.4,7.4-11.2,9.8c-4,2.6-8.4,4.5-13.3,5.7c-2.2,0.6-4.5,1-7.1,1.4
			c-1.7,0.2-3.5,0.4-5.2,0.6c-0.7,0.1-58.4,6.3-58.4,6.3L65.1,379L65.1,379z"/>
		<path class="st1" d="M148.5,368.5c-3.9,2.3-8.4,3.9-13.4,4.9c-2.1,0.4-4.4,0.8-7.1,1.1c-1.6,0.2-3.1,0.3-4.7,0.4
			c-0.8,0.1-1.7,0.1-2.5,0.2c-19.1,1.7-38,3.6-55.8,5.3v4.2c17.9-2.2,37-4.5,56.1-6.7c0.8-0.1,1.7-0.2,2.5-0.3
			c1.6-0.2,3.1-0.3,4.7-0.6c2.7-0.4,5.1-0.8,7.3-1.3c5.2-1.2,9.8-3,13.9-5.5c4-2.4,7.6-5.8,11.4-10c2.4-2.6,5-6.3,7.5-9.7v-1.4
			c-2.9,4-5.7,7.3-8.4,10.2C156.2,363.2,152.4,366.3,148.5,368.5"/>
		<path class="st1" d="M159.4,367.5c-3.8,3.5-7.8,6.3-11.8,8.2c-3.9,1.9-8.3,3.3-13.5,4.1c-2.1,0.4-4.4,0.6-7,0.9L65,385.9v4.1
			l55.2-5.9l7.1-0.8c2.7-0.3,5-0.7,7.2-1.1c5.3-1,9.9-2.5,13.9-4.6c4.1-2.1,8.3-5.6,12.1-9.4c2.6-2.5,5.1-5.7,7.7-9.1v-1.4
			C165.3,361.6,162.4,364.8,159.4,367.5"/>
		<path class="st1" d="M144.4,388.6c-3.6,2-6.3,3.2-11.5,3.8c-3.1,0.3-6.3,0.5-9.4,0.7c-1.5,0.1-3,0.2-4.5,0.2
			c-9.4,0.5-18.6,1.1-28,1.8l-25.9,1.8v4.1l26.2-2.4c8.5-0.8,18.3-1.7,27.9-2.4l7-0.5c2.7-0.2,5-0.4,7-0.7c5.3-0.7,9.8-1.8,13.9-3.3
			c4.3-1.6,8.4-4.2,12.5-7.2c3.7-2.7,8.8-8,8.8-8.1V375c-3.3,3.3-5.3,5.1-8.9,7.6C155.1,385.3,147.7,386.8,144.4,388.6"/>
		<path class="st1" d="M145.7,396.4c-3.9,1.2-8.3,1.9-13.5,2.4c-2.1,0.2-4.3,0.3-6.9,0.4l-6.9,0.3c-17.3,0.8-34.4,1.7-53.4,2.7v4.1
			c18.1-1.4,35.8-2.8,53.5-4.1l6.9-0.5c2.7-0.2,4.9-0.4,7-0.6c5.3-0.6,9.8-1.5,13.8-2.8c4.4-1.4,8.8-3.5,12.9-6.1
			c3-1.9,6.1-4.3,9.2-7v-0.1c-3.5,3-6.8,3.6-10,5.7C154.3,393.2,150.1,395.1,145.7,396.4"/>
		<path class="st1" d="M145.1,403.1c-3.9,0.9-8.2,1.5-13.5,1.9c-2,0.1-4.2,0.2-6.8,0.3l-6.9,0.2c-17.3,0.7-34.9,1.4-52.9,2.2v4.1
			c17.8-1.2,35.3-2.4,53-3.5l6.9-0.4c2.7-0.2,4.9-0.3,6.9-0.5c5.3-0.5,9.7-1.2,13.7-2.3c4.5-1.2,8.9-2.9,13.1-5.1
			c3.2-1.7,6.4-3.8,9.7-6.3V392c-3.6,2.6-7,4.8-10.5,6.5C153.8,400.5,149.5,402.1,145.1,403.1"/>
		<path class="st1" d="M144.5,409.7c-4,0.7-8.2,1.2-13.4,1.5c-2,0.1-4,0.2-6.8,0.2L65.1,413v4.1l52.5-2.8l6.8-0.3
			c2.7-0.1,4.8-0.3,6.8-0.4c5.3-0.4,9.6-1,13.6-1.8c4.6-1,9-2.4,13.2-4.2c3.4-1.4,6.8-3.2,10.3-5.4v-1.6c-3.8,2.2-7.3,4-10.9,5.4
			C153.3,407.7,149,408.9,144.5,409.7"/>
		<path class="st1" d="M144,416.4c-7.3,1-14.8,1.1-22,1.2c-1.7,0-3.3,0-5,0.1l-52,0.9v4.1l52.1-2.3c1.7-0.1,3.3-0.1,5-0.2
			c7.3-0.3,14.8-0.6,22.2-1.8c4.7-0.7,9.2-1.8,13.3-3.3c3.5-1.2,7.1-2.7,10.7-4.5V409c-3.8,1.8-7.6,3.3-11.2,4.4
			C153,414.8,148.6,415.8,144,416.4"/>
		<path class="st1" d="M143.6,423.1c-6.8,0.6-13.8,0.6-20.5,0.6c-2.1,0-4.2,0-6.3,0c-17.2,0.1-34.3,0.2-51.7,0.4v4.1
			c16.6-0.6,34.2-1.2,51.8-1.7c2.1-0.1,4.2-0.1,6.3-0.2c6.8-0.2,13.8-0.4,20.7-1.1c4.8-0.5,9.2-1.3,13.4-2.3
			c3.7-0.9,7.4-2.1,11.2-3.6v-1.5c-3.9,1.4-7.8,2.6-11.5,3.4C152.7,422,148.3,422.7,143.6,423.1"/>
		<path class="st1" d="M143.4,429.7c-2.8,0.1-5.9,0.2-9.4,0.2c-1.3,0-2.6,0-3.9,0l-13.5-0.3c-9.1,0-18.2,0-26.8,0H65.1v4l24.8-0.7
			c8.5-0.2,17.7-0.4,26.8-0.6l13.4-0.2c3.7-0.1,8.5-0.2,13.4-0.5c4.8-0.3,9.2-0.8,13.4-1.5c3.8-0.6,7.6-1.4,11.5-2.4v-1.4
			c-4,0.9-7.9,1.7-11.7,2.2C152.4,429.1,148.1,429.5,143.4,429.7"/>
		<path class="st1" d="M129.9,436l-13.4-0.1c-17-0.2-34.1-0.6-51.4-0.9v4.1c16.6-0.1,34.1-0.2,51.4-0.4l13.4-0.2
			c4.5-0.1,8.9-0.2,13.4-0.3c9.2-0.3,17.4-1,25.1-2v-1.4c-7.7,0.8-16,1.3-25.1,1.3C138.8,436.1,134.3,436.1,129.9,436"/>
		<polygon class="st1" points="168.4,443.2 65.1,440.6 65.1,444.6 168.4,444.6 		"/>
		<path class="st1" d="M159.1,375.1c-3.9,3.2-7,5.5-11.8,7.4c-4.2,1.7-8.7,2.4-13.8,3.1c-3.3,0.5-6.8,1.2-10.1,1.4
			c-1.4,0.1-2.7,0.2-4.1,0.3l-54.3,4v4.1l54.5-5.3l7.1-0.7c2.6-0.3,4.9-0.5,7.1-0.9c5.3-0.9,9.8-2.2,13.9-4c4.2-1.9,8.5-5,12.5-8.4
			c2.7-2.3,5.3-5.2,8.2-8.4v-1.5C164.9,369.8,162.1,372.7,159.1,375.1"/>
		<path class="st1" d="M212.3,340.6c0,0,18.6,29.7,22,35.2c3.4,5.4,7.3,9.8,21,12.7c13.8,2.9,19.7,4.3,19.7,4.3v1.1
			c0,0-8.7-1.9-20-4.4c-11.2-2.5-15.8-3.4-21-10.5c-4.3-6-21.8-31.3-21.8-31.3v-7.1L212.3,340.6L212.3,340.6z"/>
		<path class="st1" d="M212.3,374.5c0,0,16.9,17.8,21.8,22.9c5.2,5.4,11.8,7.4,21.1,9.1c8.8,1.6,19.9,3.4,19.9,3.4v1
			c0,0-10.4-1.7-19.9-3.3c-9.3-1.6-15.8-2.5-21.1-7.4c-4.8-4.4-21.8-20.4-21.8-20.4V374.5z"/>
		<path class="st1" d="M212.3,382.5c0,0,16.1,15,21.8,20.1c5.3,4.7,9.5,6.2,21.1,8.2c11.6,2.1,19.8,3.3,19.8,3.3v1.1
			c0,0-10.5-1.7-19.9-3.2s-15.4-2.1-21.1-6.7c-6.5-5.3-21.8-17.9-21.8-17.9L212.3,382.5L212.3,382.5z"/>
		<path class="st1" d="M212.3,391.1c0,0,18.4,14.6,21.8,17.2c3.4,2.6,8,5.5,21.2,7.5c13.1,1.9,19.8,2.8,19.8,2.8v1.1
			c0,0-11.9-1.7-19.8-2.7c-7.9-1-14-1.4-21.1-6.2c-6.9-4.6-21.9-15.2-21.9-15.2V391.1L212.3,391.1z"/>
		<path class="st1" d="M212.3,399.3c0,0,18.4,12.3,21.9,14.3c3.5,1.9,7.6,5.1,21.1,6.8c13.5,1.7,19.8,2.5,19.8,2.5v1.1
			c0,0-11.1-1.2-19.8-2.2c-8.7-0.9-14.6-2.2-21.1-5.8c-6.5-3.6-21.8-12.6-21.8-12.6v-4.1H212.3z"/>
		<path class="st1" d="M212.3,407.5c0,0,16.3,8.9,21.8,11.7c6.2,3.1,11.5,4.6,21.1,5.7c9.5,1.1,19.8,2.2,19.8,2.2v1
			c0,0-9.6-1-19.8-2c-10.2-1-13.8-1.4-21.1-4.7c-6.6-2.9-21.8-10.1-21.8-10.1V407.5z"/>
		<path class="st1" d="M212.3,415.8c0,0,12.9,5.5,21.9,9.1c8.9,3.5,15.7,3.8,21.1,4.5c2.4,0.3,19.7,2.1,19.7,2.1v1
			c0,0-10.4-0.8-19.8-1.7c-9.4-0.8-13.5-1.2-21.1-3.7c-7.7-2.6-21.9-7.5-21.9-7.5L212.3,415.8L212.3,415.8z"/>
		<path class="st1" d="M212.3,424.3c0,0,13,4,21.9,6.4c8.9,2.3,17,3.3,21.1,3.6c4.1,0.3,19.8,1.6,19.8,1.6v0.9c0,0-8.9-0.6-19.8-1.4
			c-8.8-0.6-15.9-1.3-21.1-2.4c-5.8-1.3-21.8-5.1-21.8-5.1v-3.6H212.3z"/>
		<path class="st1" d="M212.3,432.7c0,0,10.6,1.8,21.9,3.7c8.4,1.4,19.8,2.3,21.1,2.3c1.2,0.1,19.8,1.3,19.8,1.3v1
			c0,0-11.9-0.6-19.8-1.1c-8.3-0.5-16.5-1-21.1-1.4c-10.4-1.1-21.8-2.5-21.8-2.5v-3.3H212.3z"/>
		<path class="st1" d="M212.3,441.3c0,0,16.8,0.6,21.9,0.7c5.1,0.1,40.9,1.6,40.9,1.6v1h-62.8V441.3z"/>
		<path class="st1" d="M255.2,393c-15.2-3.3-18.6-8.9-21.2-12.3c-2.5-3.5-21.8-31.6-21.8-31.6v6.4c0.8,1,17.2,22.6,21.8,28.5
			c5.2,6.7,13.4,8.2,21.1,9.9c7.8,1.7,19.8,4,19.8,4V397C275.1,397,259.2,393.9,255.2,393"/>
		<path class="st1" d="M255.2,397.5c-12.5-2.4-17.5-6.4-21.2-11.2c-3.7-4.8-21.8-28.7-21.8-28.7v6c0.8,0.9,17.3,20.6,21.8,25.7
			c5.2,6,12.4,7.5,21.2,9.1c8.8,1.6,19.8,3.7,19.8,3.7v-0.9C275.1,401.3,262.4,398.9,255.2,397.5"/>
		<path class="st1" d="M255.2,402.1c-13-2.5-15.6-4.6-21.1-10.6c-3.4-3.8-21.1-24.7-21.8-25.5v5.6c0,0,16.5,17.6,21.8,22.8
			c6.9,6.8,13.5,7.3,21.2,8.7c7.7,1.4,19.8,3.6,19.8,3.6v-0.9C275.1,405.7,260.4,403.1,255.2,402.1"/>
		<rect x="108" y="383.9" class="st2" width="90.5" height="60.7"/>
		<polygon class="st3" points="154.2,392.5 157.4,392.5 154.8,394.5 155.8,397.6 153.3,395.7 150.8,397.6 151.8,394.5 149.2,392.5 
			152.3,392.5 153.3,389.4 		"/>
		<polygon class="st3" points="154.3,433 157.5,433 155,434.9 155.9,437.9 153.4,436.1 150.9,437.9 151.9,434.9 149.3,433 
			152.5,433 153.4,430 		"/>
		<polygon class="st3" points="164.3,430.3 167.5,430.3 164.9,432.2 165.9,435.3 163.4,433.4 160.9,435.3 161.9,432.2 159.3,430.3 
			162.4,430.3 163.4,427.4 		"/>
		<polygon class="st3" points="164.3,395.2 167.5,395.2 164.9,397.1 165.9,400.1 163.4,398.3 160.9,400.1 161.9,397.1 159.3,395.2 
			162.4,395.2 163.4,392.2 		"/>
		<polygon class="st3" points="171.7,402.6 174.9,402.6 172.3,404.5 173.3,407.6 170.8,405.7 168.3,407.6 169.3,404.5 166.7,402.6 
			169.9,402.6 170.8,399.7 		"/>
		<polygon class="st3" points="171.7,423 174.9,423 172.3,424.9 173.3,427.9 170.8,426.1 168.3,427.9 169.3,424.9 166.7,423 
			169.9,423 170.8,420 		"/>
		<polygon class="st3" points="174.5,412.7 177.7,412.7 175.1,414.6 176.1,417.6 173.6,415.7 171.1,417.6 172.1,414.6 169.5,412.7 
			172.6,412.7 173.6,409.7 		"/>
		<polygon class="st3" points="144,395.2 147.2,395.2 144.7,397.1 145.6,400.2 143.1,398.3 140.6,400.2 141.6,397.1 139,395.2 
			142.2,395.2 143.1,392.3 		"/>
		<polygon class="st3" points="136.8,402.7 140,402.7 137.5,404.6 138.4,407.6 135.9,405.7 133.4,407.6 134.4,404.6 131.8,402.7 
			135,402.7 135.9,399.7 		"/>
		<polygon class="st3" points="134.2,412.7 137.3,412.7 134.8,414.6 135.8,417.6 133.2,415.8 130.7,417.6 131.7,414.6 129.1,412.7 
			132.3,412.7 133.2,409.7 		"/>
		<polygon class="st3" points="136.8,423 140,423 137.5,424.9 138.4,428 135.9,426.1 133.4,428 134.4,424.9 131.8,423 135,423 
			135.9,420.1 		"/>
		<polygon class="st3" points="144.2,430.3 147.3,430.3 144.8,432.3 145.7,435.3 143.2,433.4 140.7,435.3 141.7,432.3 139.1,430.3 
			142.3,430.3 143.2,427.4 		"/>
	</g>
</g>
</svg>
