<?xml version="1.0" encoding="utf-8"?>
<!-- Generator: Adobe Illustrator 19.1.0, SVG Export Plug-In . SVG Version: 6.00 Build 0)  -->
<!DOCTYPE svg PUBLIC "-//W3C//DTD SVG 1.1//EN" "http://www.w3.org/Graphics/SVG/1.1/DTD/svg11.dtd">
<svg version="1.1" id="Layer_1" xmlns="http://www.w3.org/2000/svg" xmlns:xlink="http://www.w3.org/1999/xlink" x="0px" y="0px"
	 viewBox="-152.4 339.1 450 164" style="enable-background:new -152.4 339.1 450 164;" xml:space="preserve">
<style type="text/css">
	.st0{fill:#404040;}
	.st1{fill:#BCBEC0;}
	.st2{fill:#0D4F9E;}
	.st3{fill:#FAEA27;}
</style>
<g>
	<path class="st0" d="M-107.3,493.7c-0.1,0.3-0.2,0.5-0.4,0.7c-0.2,0.1-0.4,0.2-0.7,0.2h-3.1c-0.5,0-0.6-0.3-0.4-0.8l8.1-24.9
		c0.1-0.3,0.2-0.5,0.4-0.6c0.1-0.1,0.4-0.2,0.8-0.2h3.5c0.4,0,0.6,0.1,0.8,0.2c0.1,0.1,0.2,0.4,0.3,0.6l8.2,25
		c0.1,0.5,0,0.7-0.4,0.7h-3.5c-0.3,0-0.5-0.1-0.7-0.2c-0.1-0.1-0.2-0.3-0.3-0.6l-1.7-5.8h-9L-107.3,493.7z M-99.3,478.5l-1.6-5.8
		h-0.2l-1.6,5.7l-1.7,5.8h6.8L-99.3,478.5z"/>
	<path class="st0" d="M-70.3,494.3c-0.1,0.1-0.3,0.2-0.6,0.2h-2.9c-0.5,0-0.8-0.3-0.8-0.8v-11.2c0-1.2-0.2-2.1-0.6-2.8
		c-0.4-0.7-1.2-1.1-2.3-1.1c-0.4,0-0.9,0.1-1.4,0.2s-1,0.3-1.6,0.5c-0.5,0.2-1,0.4-1.5,0.6c-0.5,0.2-0.8,0.4-1.1,0.5v13.4
		c0,0.5-0.3,0.8-0.8,0.8h-2.8c-0.5,0-0.8-0.3-0.8-0.8v-18c0-0.5,0.3-0.8,0.8-0.8h2.8c0.5,0,0.8,0.3,0.8,0.8v1.2c0,0,0,0,0.1,0
		c0,0,0,0,0.1,0c0.4-0.3,0.8-0.5,1.3-0.8c0.5-0.3,1.1-0.5,1.7-0.8c0.6-0.2,1.2-0.4,1.8-0.6c0.6-0.1,1.3-0.2,1.9-0.2
		c1.4,0,2.4,0.2,3.2,0.6c0.8,0.4,1.4,1,1.8,1.7c0.4,0.7,0.7,1.5,0.8,2.4c0.1,0.9,0.2,1.9,0.2,2.9v11.6
		C-70.2,494-70.2,494.2-70.3,494.3z"/>
	<path class="st0" d="M-54.4,481.5c0-1.7,0.1-3.4,0.4-5c0.3-1.7,0.8-3.1,1.6-4.4c0.8-1.3,1.9-2.3,3.3-3.1c1.4-0.8,3.2-1.2,5.5-1.2
		c0.5,0,1,0,1.7,0.1c0.6,0,1.3,0.1,1.9,0.2c0.7,0.1,1.3,0.2,2,0.4c0.6,0.1,1.2,0.3,1.8,0.5c0.3,0.1,0.5,0.3,0.7,0.5
		c0.1,0.2,0.2,0.4,0.1,0.8l-0.4,1.6c-0.1,0.2-0.1,0.4-0.3,0.5c-0.1,0.1-0.4,0.1-0.8,0.1c-1-0.1-2-0.3-3.2-0.4
		c-1.1-0.1-2.2-0.2-3.3-0.2c-1.4,0-2.5,0.3-3.3,0.8s-1.5,1.2-1.9,2.1c-0.4,0.9-0.7,1.9-0.9,3.1c-0.1,1.2-0.2,2.4-0.2,3.7
		c0,1.3,0.1,2.5,0.2,3.7c0.2,1.1,0.5,2.1,0.9,3c0.5,0.8,1.1,1.5,1.9,2s1.9,0.7,3.2,0.7c1.2,0,2.3-0.1,3.3-0.2s2.1-0.2,3.2-0.4
		c0.4-0.1,0.6,0,0.8,0.1c0.1,0.1,0.2,0.3,0.3,0.6l0.3,1.5c0.2,0.6-0.1,1-0.7,1.3c-0.5,0.2-1,0.4-1.7,0.5s-1.3,0.3-2,0.4
		s-1.3,0.2-2,0.2s-1.2,0.1-1.7,0.1c-2.2,0-4.1-0.4-5.5-1.1c-1.4-0.8-2.5-1.8-3.3-3c-0.8-1.3-1.3-2.7-1.6-4.3
		C-54.3,484.8-54.4,483.2-54.4,481.5z"/>
	<path class="st0" d="M-15.3,484.4c0,1.1-0.1,2.3-0.2,3.6c-0.1,1.2-0.5,2.4-1.1,3.4s-1.5,1.9-2.6,2.5c-1.2,0.7-2.8,1-4.9,1
		c-2,0-3.6-0.3-4.7-1c-1.1-0.7-2-1.5-2.6-2.5s-0.9-2.2-1.1-3.4c-0.1-1.2-0.2-2.4-0.2-3.6c0-0.9,0.1-2,0.3-3.1
		c0.2-1.1,0.6-2.2,1.1-3.2c0.6-1,1.4-1.8,2.6-2.5c1.1-0.7,2.7-1,4.6-1s3.5,0.3,4.6,0.9c1.2,0.6,2,1.4,2.7,2.3c0.6,0.9,1,2,1.2,3.2
		C-15.4,482-15.3,483.2-15.3,484.4z M-19.8,484.7c0-1.1-0.1-2-0.2-2.8c-0.1-0.8-0.3-1.4-0.6-2c-0.3-0.5-0.8-0.9-1.3-1.2
		c-0.5-0.3-1.3-0.4-2.2-0.4c-0.9,0-1.5,0.1-2.1,0.4c-0.5,0.3-1,0.7-1.3,1.2s-0.5,1.2-0.6,2c-0.1,0.8-0.2,1.7-0.2,2.7
		c0,1.1,0.1,2,0.2,2.8c0.1,0.8,0.3,1.4,0.6,2c0.3,0.5,0.7,0.9,1.2,1.2c0.5,0.3,1.2,0.4,2.1,0.4s1.6-0.1,2.2-0.4s1-0.6,1.3-1.2
		c0.3-0.5,0.5-1.2,0.6-2C-19.8,486.7-19.8,485.7-19.8,484.7z"/>
	<path class="st0" d="M-6.2,469.7c0,0.3,0,0.6-0.1,0.9c-0.1,0.3-0.2,0.5-0.3,0.7c-0.2,0.2-0.4,0.4-0.7,0.5c-0.3,0.1-0.7,0.2-1.2,0.2
		s-1-0.1-1.3-0.2c-0.3-0.1-0.5-0.3-0.7-0.5c-0.2-0.2-0.3-0.5-0.3-0.7c-0.1-0.3-0.1-0.6-0.1-0.9c0-0.6,0.2-1.2,0.5-1.6
		c0.3-0.4,0.9-0.7,1.9-0.7s1.6,0.2,1.9,0.6C-6.3,468.5-6.2,469-6.2,469.7z M-6.4,493.7c0,0.2,0,0.4-0.1,0.5s-0.3,0.2-0.6,0.2H-10
		c-0.5,0-0.8-0.3-0.8-0.8v-18.1c0-0.5,0.3-0.8,0.8-0.8h2.8c0.3,0,0.5,0.1,0.6,0.2c0.1,0.1,0.1,0.3,0.1,0.5L-6.4,493.7L-6.4,493.7z"
		/>
	<path class="st0" d="M27,494.3c-0.1,0.1-0.3,0.2-0.6,0.2h-2.9c-0.5,0-0.8-0.3-0.8-0.8v-11.4c0-1.5-0.2-2.5-0.6-3
		c-0.4-0.5-1.1-0.8-2.1-0.8c-0.4,0-0.8,0.1-1.3,0.2c-0.5,0.1-0.9,0.3-1.4,0.5c-0.5,0.2-0.9,0.4-1.3,0.6c-0.4,0.2-0.8,0.4-1.1,0.6
		c0,0.2,0,0.5,0,0.8c0,0.3,0,0.7,0,1.2v11.3c0,0.2-0.1,0.4-0.2,0.6c-0.1,0.1-0.3,0.2-0.6,0.2h-2.9c-0.5,0-0.7-0.3-0.7-0.8v-11.6
		c0-1.2-0.2-2.1-0.6-2.7s-1.1-0.9-2.1-0.9c-0.3,0-0.7,0.1-1.2,0.2c-0.5,0.1-0.9,0.3-1.4,0.4c-0.5,0.2-0.9,0.4-1.4,0.6
		c-0.5,0.2-0.9,0.4-1.2,0.6v13.4c0,0.5-0.3,0.8-0.8,0.8h-2.9c-0.5,0-0.7-0.3-0.7-0.8v-18c0-0.5,0.2-0.8,0.7-0.8h2.8
		c0.5,0,0.8,0.3,0.8,0.8v1.2l0,0c0.4-0.3,0.8-0.5,1.3-0.8c0.5-0.3,0.9-0.5,1.5-0.7c0.5-0.2,1-0.4,1.6-0.5c0.5-0.1,1.1-0.2,1.6-0.3
		c1.1,0,2.2,0.2,3.1,0.5c0.9,0.4,1.7,1.1,2.3,2.3c1-0.7,2.1-1.4,3.3-2s2.4-0.8,3.7-0.8s2.3,0.2,3.1,0.6c0.8,0.4,1.4,0.9,1.8,1.6
		c0.4,0.7,0.7,1.5,0.8,2.4s0.2,1.9,0.2,2.8v11.8C27.2,494,27.1,494.2,27,494.3z"/>
	<path class="st0" d="M36.6,469.7c0,0.3,0,0.6-0.1,0.9c-0.1,0.3-0.2,0.5-0.3,0.7c-0.2,0.2-0.4,0.4-0.7,0.5s-0.7,0.2-1.2,0.2
		s-1-0.1-1.3-0.2c-0.3-0.1-0.5-0.3-0.7-0.5c-0.2-0.2-0.3-0.5-0.3-0.7c-0.1-0.3-0.1-0.6-0.1-0.9c0-0.6,0.2-1.2,0.5-1.6
		c0.3-0.4,0.9-0.7,1.9-0.7s1.6,0.2,1.9,0.6C36.5,468.5,36.6,469,36.6,469.7z M36.4,493.7c0,0.2,0,0.4-0.1,0.5s-0.3,0.2-0.6,0.2h-2.8
		c-0.5,0-0.8-0.3-0.8-0.8v-18.1c0-0.5,0.3-0.8,0.8-0.8h2.8c0.3,0,0.5,0.1,0.6,0.2c0.1,0.1,0.1,0.3,0.1,0.5V493.7z"/>
	<path class="st0" d="M56,488.6c0,1.2-0.2,2.2-0.7,2.9c-0.5,0.8-1.1,1.4-1.8,1.9c-0.8,0.5-1.6,0.8-2.6,1c-1,0.2-2,0.3-3,0.3
		s-2.1-0.1-3.3-0.2c-1.2-0.1-2.1-0.4-2.9-0.7c-0.4-0.2-0.7-0.3-0.8-0.5c-0.1-0.2-0.1-0.5-0.1-0.8l0.3-1.3c0.1-0.3,0.2-0.5,0.3-0.6
		c0.2-0.1,0.4-0.1,0.7,0c0.4,0.1,0.9,0.1,1.4,0.2s1,0.1,1.6,0.1s1,0.1,1.5,0.1s0.9,0,1.2,0c1.3,0,2.2-0.2,2.8-0.5
		c0.6-0.4,0.8-0.9,0.8-1.7c0-0.5,0-0.8-0.1-1.1c-0.1-0.3-0.3-0.5-0.5-0.7c-0.2-0.2-0.6-0.3-1-0.5c-0.4-0.1-0.9-0.2-1.6-0.3
		c-1-0.1-1.9-0.3-2.8-0.5c-0.9-0.2-1.7-0.5-2.3-0.9c-0.7-0.4-1.2-1-1.6-1.6c-0.4-0.7-0.6-1.6-0.6-2.7c0-2,0.7-3.5,2.1-4.5
		c1.4-1,3.2-1.5,5.4-1.5c0.4,0,0.9,0,1.4,0s1.1,0.1,1.6,0.2c0.5,0.1,1.1,0.2,1.6,0.3s1,0.2,1.4,0.4c0.7,0.3,0.9,0.7,0.8,1.2
		l-0.3,1.4c-0.1,0.3-0.2,0.5-0.3,0.5c-0.1,0.1-0.4,0.1-0.8,0c-0.9-0.1-1.8-0.2-2.8-0.3s-1.9-0.1-2.6-0.1c-1.3,0-2.1,0.2-2.5,0.5
		c-0.4,0.4-0.6,0.9-0.6,1.7c0,0.8,0.3,1.3,0.8,1.5c0.5,0.2,1.4,0.5,2.6,0.6c1,0.1,1.9,0.3,2.7,0.5c0.9,0.2,1.6,0.5,2.3,1
		c0.7,0.4,1.2,1,1.6,1.7C55.8,486.5,56,487.4,56,488.6z"/>
	<path class="st0" d="M64.9,469.7c0,0.3,0,0.6-0.1,0.9c-0.1,0.3-0.2,0.5-0.3,0.7c-0.2,0.2-0.4,0.4-0.7,0.5s-0.7,0.2-1.2,0.2
		s-1-0.1-1.3-0.2c-0.3-0.1-0.5-0.3-0.7-0.5c-0.2-0.2-0.3-0.5-0.3-0.7c-0.1-0.3-0.1-0.6-0.1-0.9c0-0.6,0.2-1.2,0.5-1.6
		c0.3-0.4,0.9-0.7,1.9-0.7s1.6,0.2,1.9,0.6C64.7,468.5,64.9,469,64.9,469.7z M64.6,493.7c0,0.2,0,0.4-0.1,0.5s-0.3,0.2-0.6,0.2h-2.8
		c-0.5,0-0.8-0.3-0.8-0.8v-18.1c0-0.5,0.3-0.8,0.8-0.8h2.8c0.3,0,0.5,0.1,0.6,0.2c0.1,0.1,0.1,0.3,0.1,0.5V493.7z"/>
	<path class="st0" d="M86.6,493.7c0,0.5-0.3,0.8-0.8,0.8H83c-0.3,0-0.5-0.1-0.6-0.2s-0.2-0.3-0.2-0.6v-1.2h-0.1
		c-0.4,0.3-0.9,0.5-1.4,0.8c-0.5,0.3-1.1,0.5-1.7,0.8c-0.6,0.2-1.2,0.4-1.8,0.6c-0.6,0.1-1.2,0.2-1.9,0.2c-1.4,0-2.4-0.2-3.2-0.6
		c-0.8-0.4-1.4-0.9-1.8-1.6s-0.7-1.5-0.8-2.4s-0.2-1.9-0.2-2.9v-11.8c0-0.5,0.3-0.8,0.8-0.8H73c0.5,0,0.7,0.3,0.7,0.8v11.2
		c0,0.6,0,1.2,0.1,1.6c0.1,0.5,0.2,0.9,0.4,1.2c0.2,0.3,0.5,0.6,0.9,0.8c0.4,0.2,0.9,0.3,1.5,0.3c0.4,0,0.9-0.1,1.4-0.2
		s1-0.3,1.5-0.5c0.5-0.2,1-0.4,1.4-0.6c0.4-0.2,0.8-0.4,1-0.5v-13.4c0-0.2,0.1-0.4,0.2-0.6c0.1-0.1,0.3-0.2,0.6-0.2h2.8
		c0.5,0,0.8,0.3,0.8,0.8v18.2H86.6z M83,466.1c0.4,0.2,0.5,0.5,0.2,0.9l-4.1,5.6c-0.2,0.3-0.5,0.4-0.8,0.2l-1.6-0.7
		c-0.3-0.2-0.4-0.4-0.2-0.8l3.2-6.2c0.2-0.3,0.5-0.4,0.9-0.2L83,466.1z"/>
	<path class="st0" d="M107.6,494.3c-0.1,0.1-0.3,0.2-0.6,0.2h-2.9c-0.5,0-0.8-0.3-0.8-0.8v-11.2c0-1.2-0.2-2.1-0.6-2.8
		c-0.4-0.7-1.2-1.1-2.3-1.1c-0.4,0-0.9,0.1-1.4,0.2s-1,0.3-1.6,0.5c-0.5,0.2-1,0.4-1.5,0.6c-0.5,0.2-0.8,0.4-1.1,0.5v13.4
		c0,0.5-0.3,0.8-0.8,0.8h-2.8c-0.5,0-0.8-0.3-0.8-0.8v-18c0-0.5,0.3-0.8,0.8-0.8H94c0.5,0,0.8,0.3,0.8,0.8v1.2c0,0,0,0,0.1,0
		c0,0,0,0,0.1,0c0.4-0.3,0.8-0.5,1.3-0.8c0.5-0.3,1.1-0.5,1.7-0.8c0.6-0.2,1.2-0.4,1.8-0.6c0.6-0.1,1.3-0.2,1.9-0.2
		c1.4,0,2.4,0.2,3.2,0.6c0.8,0.4,1.4,1,1.8,1.7c0.4,0.7,0.7,1.5,0.8,2.4s0.2,1.9,0.2,2.9v11.6C107.8,494,107.7,494.2,107.6,494.3z"
		/>
	<path class="st0" d="M123.9,468.7c0-0.5,0.3-0.8,0.8-0.8h14.7c0.5,0,0.8,0.3,0.8,0.8v2.5c0,0.5-0.3,0.7-0.8,0.7h-10.9v6.9h9.7
		c0.5,0,0.8,0.2,0.8,0.7v2.5c0,0.5-0.3,0.7-0.8,0.7h-9.7v7.9h11.2c0.5,0,0.7,0.3,0.7,0.8v2.4c0,0.5-0.3,0.7-0.8,0.7h-14.9
		c-0.5,0-0.8-0.2-0.8-0.7V468.7z"/>
	<path class="st0" d="M161.3,484.4c0,1.1-0.1,2.3-0.2,3.6c-0.1,1.2-0.5,2.4-1.1,3.4s-1.5,1.9-2.6,2.5c-1.2,0.7-2.8,1-4.9,1
		c-2,0-3.6-0.3-4.7-1c-1.1-0.7-2-1.5-2.6-2.5s-0.9-2.2-1.1-3.4c-0.1-1.2-0.2-2.4-0.2-3.6c0-0.9,0.1-2,0.3-3.1
		c0.2-1.1,0.6-2.2,1.1-3.2c0.6-1,1.4-1.8,2.6-2.5c1.2-0.7,2.7-1,4.6-1s3.5,0.3,4.6,0.9c1.2,0.6,2,1.4,2.7,2.3c0.6,0.9,1,2,1.2,3.2
		C161.2,482,161.3,483.2,161.3,484.4z M156.8,484.7c0-1.1-0.1-2-0.2-2.8c-0.1-0.8-0.3-1.4-0.6-2s-0.8-0.9-1.3-1.2
		c-0.6-0.3-1.3-0.4-2.2-0.4c-0.9,0-1.5,0.1-2.1,0.4c-0.5,0.3-1,0.7-1.3,1.2s-0.5,1.2-0.6,2c-0.1,0.8-0.2,1.7-0.2,2.7
		c0,1.1,0.1,2,0.2,2.8c0.1,0.8,0.3,1.4,0.6,2c0.3,0.5,0.7,0.9,1.2,1.2c0.5,0.3,1.2,0.4,2.1,0.4s1.6-0.1,2.2-0.4s1-0.6,1.3-1.2
		c0.3-0.6,0.5-1.2,0.6-2C156.6,486.6,156.8,485.7,156.8,484.7z"/>
	<path class="st0" d="M170.4,493.7c0,0.5-0.3,0.8-0.8,0.8h-2.9c-0.5,0-0.8-0.3-0.8-0.8v-18c0-0.5,0.3-0.8,0.8-0.8h2.9
		c0.5,0,0.8,0.3,0.8,0.8v1.8l0.1,0.1c0.3-0.3,0.7-0.6,1.2-0.9c0.5-0.3,1-0.6,1.5-0.8c0.5-0.3,1.1-0.5,1.7-0.7
		c0.6-0.2,1.1-0.4,1.6-0.4c0.3-0.1,0.5,0,0.6,0c0.2,0.1,0.3,0.3,0.3,0.6l0.3,2.7c0,0.3,0,0.5,0,0.6c-0.1,0.1-0.3,0.2-0.7,0.3
		c-0.6,0.1-1.1,0.2-1.8,0.4c-0.6,0.1-1.2,0.3-1.8,0.5c-0.6,0.2-1.1,0.3-1.6,0.5c-0.5,0.2-0.9,0.3-1.3,0.5v12.8H170.4z"/>
	<path class="st0" d="M197.1,484.6c0,1.6-0.1,3.1-0.4,4.4c-0.2,1.3-0.7,2.4-1.3,3.2c-0.6,0.9-1.4,1.5-2.4,2s-2.3,0.7-3.9,0.7
		c-0.7,0-1.4-0.1-2.3-0.2s-1.8-0.4-2.7-0.7l0,0v7c0,0.2,0,0.4-0.1,0.6c-0.1,0.2-0.3,0.2-0.6,0.2h-2.8c-0.3,0-0.5-0.1-0.6-0.2
		c-0.1-0.1-0.1-0.3-0.1-0.6v-25.4c0-0.5,0.3-0.8,0.8-0.8h2.8c0.3,0,0.5,0.1,0.6,0.2s0.1,0.3,0.1,0.6v1.2l0.1,0.1
		c0.3-0.2,0.8-0.5,1.3-0.8c0.5-0.3,1-0.5,1.6-0.8c0.6-0.2,1.1-0.4,1.7-0.6c0.6-0.2,1.2-0.2,1.8-0.2c1.3,0,2.4,0.2,3.2,0.7
		s1.5,1.2,2,2c0.5,0.9,0.8,1.9,1,3.1C197,481.7,197.1,483.1,197.1,484.6z M192.6,484.5c0-1.3-0.1-2.3-0.2-3.1
		c-0.1-0.8-0.3-1.4-0.6-1.8c-0.3-0.4-0.6-0.7-1-0.9c-0.4-0.1-0.8-0.2-1.4-0.2c-0.4,0-0.9,0.1-1.4,0.2c-0.5,0.1-1,0.3-1.5,0.5
		c-0.5,0.2-1,0.4-1.4,0.6s-0.8,0.4-1.1,0.6v10c0.9,0.3,1.7,0.4,2.5,0.5c0.7,0.1,1.4,0.1,2.1,0.1s1.3-0.1,1.8-0.3
		c0.5-0.2,0.9-0.6,1.2-1.1c0.3-0.5,0.5-1.2,0.7-2C192.5,486.8,192.6,485.8,192.6,484.5z"/>
	<path class="st0" d="M213,492.2c-1,0.8-2.2,1.4-3.4,1.9s-2.6,0.7-3.9,0.7c-1.1,0-2-0.1-2.7-0.4c-0.7-0.3-1.3-0.7-1.7-1.2
		c-0.4-0.5-0.7-1.1-0.9-1.8c-0.2-0.7-0.3-1.5-0.3-2.3c0-2.3,0.6-4,1.8-5.1c1.3-1.1,3.1-1.6,5.7-1.6h5.1v-1c0-0.6-0.1-1.1-0.2-1.5
		s-0.3-0.8-0.7-1c-0.3-0.3-0.7-0.5-1.3-0.6c-0.5-0.1-1.2-0.2-2-0.2c-0.3,0-0.7,0-1.2,0s-0.9,0.1-1.4,0.1s-1,0.1-1.5,0.1
		c-0.5,0.1-0.9,0.1-1.3,0.1c-0.4,0.1-0.7,0.1-0.8,0c-0.1,0-0.2-0.2-0.3-0.5l-0.4-1.5c-0.1-0.3,0-0.5,0.1-0.7
		c0.1-0.2,0.4-0.3,0.8-0.5c0.4-0.2,0.9-0.3,1.5-0.4s1.2-0.2,1.8-0.3c0.6-0.1,1.2-0.1,1.8-0.2c0.6,0,1.1-0.1,1.6-0.1
		c1.7,0,3.1,0.2,4.1,0.5c1,0.3,1.8,0.8,2.3,1.5c0.5,0.6,0.9,1.4,1,2.3c0.2,0.9,0.2,1.9,0.2,3v7.7c0,0.4,0,0.7,0.1,0.9
		c0,0.2,0.1,0.4,0.2,0.5s0.2,0.2,0.4,0.3c0.2,0.1,0.4,0.1,0.8,0.1c0.3,0,0.5,0.1,0.6,0.2c0.1,0.1,0.2,0.2,0.2,0.4v1.7
		c0,0.5-0.3,0.7-1,0.8c-0.3,0.1-0.6,0.1-1,0.1s-0.6,0.1-0.9,0.1c-0.9,0-1.7-0.2-2.3-0.5C213.7,493.8,213.3,493.2,213,492.2
		L213,492.2z M212.8,485.6h-4.9c-1,0-1.8,0.2-2.4,0.7s-0.9,1.4-0.9,2.7c0,0.9,0.2,1.5,0.5,1.8c0.4,0.3,1,0.5,1.9,0.5
		c0.4,0,0.9-0.1,1.4-0.2c0.5-0.1,1-0.3,1.5-0.4c0.5-0.1,1-0.4,1.5-0.6s0.9-0.4,1.3-0.7v-3.8H212.8z"/>
	<path class="st0" d="M237.1,492.7c0.1,0.3,0.1,0.5,0,0.7c-0.1,0.2-0.3,0.4-0.7,0.5c-0.8,0.3-1.7,0.6-2.9,0.7
		c-1.1,0.1-2.2,0.2-3.2,0.2c-1.9,0-3.4-0.3-4.5-0.8c-1.1-0.6-2-1.3-2.6-2.2s-1-2-1.2-3.3c-0.2-1.2-0.3-2.5-0.3-3.9
		c0-1.2,0.1-2.4,0.3-3.7c0.2-1.2,0.6-2.3,1.2-3.2s1.5-1.7,2.6-2.3s2.6-0.9,4.5-0.9c0.5,0,1,0,1.5,0s1.1,0.1,1.6,0.2
		c0.5,0.1,1.1,0.2,1.6,0.3s1,0.3,1.4,0.5c0.5,0.2,0.7,0.6,0.6,1.1l-0.3,1.6c-0.1,0.3-0.2,0.5-0.4,0.5c-0.2,0.1-0.5,0.1-0.8,0
		c-0.8-0.1-1.7-0.2-2.5-0.2c-0.9-0.1-1.6-0.1-2.3-0.1c-1.6,0-2.8,0.5-3.4,1.4s-1,2.5-1,4.7c0,1.2,0.1,2.3,0.2,3.1
		c0.1,0.8,0.4,1.5,0.7,2c0.3,0.5,0.8,0.9,1.3,1.1c0.5,0.2,1.2,0.3,2,0.3c0.6,0,1.4,0,2.4-0.1s1.9-0.2,2.7-0.3c0.3-0.1,0.6-0.1,0.7,0
		c0.2,0.1,0.3,0.3,0.3,0.6L237.1,492.7z"/>
	<path class="st0" d="M256.4,494.5h-2.9c-0.5,0-0.8-0.3-0.8-0.8c0-1.9,0-3.9,0-5.8s0-3.8,0-5.8c0-1.1-0.2-2-0.5-2.7
		c-0.4-0.7-1.1-1-2.3-1c-0.4,0-0.9,0.1-1.4,0.2c-0.5,0.1-1,0.3-1.6,0.5c-0.5,0.2-1,0.4-1.5,0.6s-0.8,0.4-1.1,0.5v13.5
		c0,0.2-0.1,0.4-0.2,0.6c-0.1,0.1-0.3,0.2-0.6,0.2h-2.8c-0.5,0-0.7-0.3-0.7-0.8V467c0-0.5,0.2-0.8,0.7-0.8h2.8
		c0.5,0,0.8,0.3,0.8,0.8v9.7c0.3-0.2,0.8-0.4,1.3-0.7c0.5-0.3,1.1-0.5,1.6-0.7c0.6-0.2,1.2-0.4,1.8-0.6c0.6-0.1,1.3-0.2,1.9-0.2
		c1.4,0,2.5,0.2,3.3,0.6c0.8,0.4,1.4,1,1.8,1.7c0.4,0.7,0.7,1.5,0.8,2.4c0.1,0.9,0.2,1.9,0.2,2.9v11.6
		C257.2,494.2,256.9,494.5,256.4,494.5z"/>
</g>
<g>
	<path class="st1" d="M-14.6,378.7c0,0,62.2-8.1,64-8.4c2.7-0.4,5.1-1,7.3-1.6c5-1.4,9.7-3.5,13.8-6.3c3.9-2.7,7.6-6.5,11.2-10.8
		c2.3-2.7,4.7-6.2,7-9.6v-1.7c-2.7,4-5.3,7.5-8,10.5c-3.6,4-7.4,7.4-11.2,9.8c-4,2.6-8.4,4.5-13.3,5.7c-2.2,0.6-4.5,1-7.1,1.4
		c-1.7,0.2-3.5,0.4-5.2,0.6c-0.7,0.1-58.4,6.3-58.4,6.3L-14.6,378.7L-14.6,378.7z"/>
	<path class="st1" d="M68.8,368.2c-3.9,2.3-8.4,3.9-13.4,4.9c-2.1,0.4-4.4,0.8-7.1,1.1c-1.6,0.2-3.1,0.3-4.7,0.4
		c-0.8,0.1-1.7,0.1-2.5,0.2c-19.1,1.7-38,3.6-55.8,5.3v4.2c17.9-2.2,37-4.5,56.1-6.7c0.8-0.1,1.7-0.2,2.5-0.3
		c1.6-0.2,3.1-0.3,4.7-0.6c2.7-0.4,5.1-0.8,7.3-1.3c5.2-1.2,9.8-3,13.9-5.5c4-2.4,7.6-5.8,11.4-10c2.4-2.6,5-6.3,7.5-9.7v-1.4
		c-2.9,4-5.7,7.3-8.4,10.2C76.5,362.9,72.7,366,68.8,368.2"/>
	<path class="st1" d="M79.7,367.2c-3.8,3.5-7.8,6.3-11.8,8.2c-3.9,1.9-8.3,3.3-13.5,4.1c-2.1,0.4-4.4,0.6-7,0.9l-62.1,5.2v4.1
		l55.2-5.9l7.1-0.8c2.7-0.3,5-0.7,7.2-1.1c5.3-1,9.9-2.5,13.9-4.6c4.1-2.1,8.3-5.6,12.1-9.4c2.6-2.5,5.1-5.7,7.7-9.1v-1.4
		C85.6,361.3,82.7,364.5,79.7,367.2"/>
	<path class="st1" d="M64.7,388.3c-3.6,2-6.3,3.2-11.5,3.8c-3.1,0.3-6.3,0.5-9.4,0.7c-1.5,0.1-3,0.2-4.5,0.2
		c-9.4,0.5-18.6,1.1-28,1.8l-25.9,1.8v4.1l26.2-2.4c8.5-0.8,18.3-1.7,27.9-2.4l7-0.5c2.7-0.2,5-0.4,7-0.7c5.3-0.7,9.8-1.8,13.9-3.3
		c4.3-1.6,8.4-4.2,12.5-7.2c3.7-2.7,8.8-8,8.8-8.1v-1.4c-3.3,3.3-5.3,5.1-8.9,7.6C75.4,385,68,386.5,64.7,388.3"/>
	<path class="st1" d="M66,396.1c-3.9,1.2-8.3,1.9-13.5,2.4c-2.1,0.2-4.3,0.3-6.9,0.4l-6.9,0.3c-17.3,0.8-34.4,1.7-53.4,2.7v4.1
		c18.1-1.4,35.8-2.8,53.5-4.1l6.9-0.5c2.7-0.2,4.9-0.4,7-0.6c5.3-0.6,9.8-1.5,13.8-2.8c4.4-1.4,8.8-3.5,12.9-6.1
		c3-1.9,6.1-4.3,9.2-7v-0.1c-3.5,3-6.8,3.6-10,5.7C74.6,392.9,70.4,394.8,66,396.1"/>
	<path class="st1" d="M65.4,402.8c-3.9,0.9-8.2,1.5-13.5,1.9c-2,0.1-4.2,0.2-6.8,0.3l-6.9,0.2c-17.3,0.7-34.9,1.4-52.9,2.2v4.1
		c17.8-1.2,35.3-2.4,53-3.5l6.9-0.4c2.7-0.2,4.9-0.3,6.9-0.5c5.3-0.5,9.7-1.2,13.7-2.3c4.5-1.2,8.9-2.9,13.1-5.1
		c3.2-1.7,6.4-3.8,9.7-6.3v-1.7c-3.6,2.6-7,4.8-10.5,6.5C74.1,400.2,69.8,401.8,65.4,402.8"/>
	<path class="st1" d="M64.8,409.4c-4,0.7-8.2,1.2-13.4,1.5c-2,0.1-4,0.2-6.8,0.2l-59.2,1.6v4.1l52.5-2.8l6.8-0.3
		c2.7-0.1,4.8-0.3,6.8-0.4c5.3-0.4,9.6-1,13.6-1.8c4.6-1,9-2.4,13.2-4.2c3.4-1.4,6.8-3.2,10.3-5.4v-1.6c-3.8,2.2-7.3,4-10.9,5.4
		C73.6,407.4,69.3,408.6,64.8,409.4"/>
	<path class="st1" d="M64.3,416.1c-7.3,1-14.8,1.1-22,1.2c-1.7,0-3.3,0-5,0.1l-52,0.9v4.1l52.1-2.3c1.7-0.1,3.3-0.1,5-0.2
		c7.3-0.3,14.8-0.6,22.2-1.8c4.7-0.7,9.2-1.8,13.3-3.3c3.5-1.2,7.1-2.7,10.7-4.5v-1.6c-3.8,1.8-7.6,3.3-11.2,4.4
		C73.3,414.5,68.9,415.5,64.3,416.1"/>
	<path class="st1" d="M63.9,422.8c-6.8,0.6-13.8,0.6-20.5,0.6c-2.1,0-4.2,0-6.3,0c-17.2,0.1-34.3,0.2-51.7,0.4v4.1
		c16.6-0.6,34.2-1.2,51.8-1.7c2.1-0.1,4.2-0.1,6.3-0.2c6.8-0.2,13.8-0.4,20.7-1.1c4.8-0.5,9.2-1.3,13.4-2.3
		c3.7-0.9,7.4-2.1,11.2-3.6v-1.5c-3.9,1.4-7.8,2.6-11.5,3.4C73,421.7,68.6,422.4,63.9,422.8"/>
	<path class="st1" d="M63.7,429.4c-2.8,0.1-5.9,0.2-9.4,0.2c-1.3,0-2.6,0-3.9,0l-13.5-0.3c-9.1-0.1-18.3-0.1-26.8-0.1h-24.7v4.1
		l24.8-0.7c8.5-0.2,17.7-0.4,26.8-0.6l13.4-0.2c3.7-0.1,8.5-0.2,13.4-0.5c4.8-0.3,9.2-0.8,13.4-1.5c3.8-0.6,7.6-1.4,11.5-2.4V426
		c-4,0.9-7.9,1.7-11.7,2.2C72.7,428.8,68.4,429.2,63.7,429.4"/>
	<path class="st1" d="M50.2,435.7l-13.4-0.1c-17-0.2-34.1-0.6-51.4-0.9v4.1c16.6-0.1,34.1-0.2,51.4-0.4l13.4-0.2
		c4.5-0.1,8.9-0.2,13.4-0.3c9.2-0.3,17.4-1,25.1-2v-1.4c-7.7,0.8-16,1.3-25.1,1.3C59.1,435.8,54.6,435.8,50.2,435.7"/>
	<polygon class="st1" points="88.7,442.9 -14.6,440.3 -14.6,444.3 88.7,444.3 	"/>
	<path class="st1" d="M79.4,374.8c-3.9,3.2-7,5.5-11.8,7.4c-4.2,1.7-8.7,2.4-13.8,3.1c-3.3,0.5-6.8,1.2-10.1,1.4
		c-1.4,0.1-2.7,0.2-4.1,0.3l-54.3,4v4.1l54.5-5.3l7.1-0.7c2.6-0.3,4.9-0.5,7.1-0.9c5.3-0.9,9.8-2.2,13.9-4c4.2-1.9,8.5-5,12.5-8.4
		c2.7-2.3,5.3-5.2,8.2-8.4v-1.5C85.2,369.5,82.4,372.4,79.4,374.8"/>
	<path class="st1" d="M132.6,340.3c0,0,18.6,29.7,22,35.2c3.4,5.4,7.3,9.8,21,12.7c13.8,2.9,19.7,4.3,19.7,4.3v1.1
		c0,0-8.7-1.9-20-4.4c-11.2-2.5-15.8-3.4-21-10.5c-4.3-6-21.8-31.3-21.8-31.3L132.6,340.3L132.6,340.3z"/>
	<path class="st1" d="M132.6,374.2c0,0,16.9,17.8,21.8,22.9c5.2,5.4,11.8,7.4,21.1,9.1c8.8,1.6,19.9,3.4,19.9,3.4v1
		c0,0-10.4-1.7-19.9-3.3c-9.3-1.6-15.8-2.5-21.1-7.4c-4.8-4.4-21.8-20.4-21.8-20.4L132.6,374.2L132.6,374.2z"/>
	<path class="st1" d="M132.6,382.2c0,0,16.1,15,21.8,20.1c5.3,4.7,9.5,6.2,21.1,8.2c11.6,2.1,19.8,3.3,19.8,3.3v1.1
		c0,0-10.5-1.7-19.9-3.2s-15.4-2.1-21.1-6.7c-6.5-5.3-21.8-17.9-21.8-17.9v-4.9H132.6z"/>
	<path class="st1" d="M132.6,390.8c0,0,18.4,14.6,21.8,17.2c3.4,2.6,8,5.5,21.2,7.5c13.1,1.9,19.8,2.8,19.8,2.8v1.1
		c0,0-11.9-1.7-19.8-2.7s-14-1.4-21.1-6.2c-6.9-4.6-21.9-15.2-21.9-15.2V390.8z"/>
	<path class="st1" d="M132.6,399c0,0,18.4,12.3,21.9,14.3c3.5,1.9,7.6,5.1,21.1,6.8c13.5,1.7,19.8,2.5,19.8,2.5v1.1
		c0,0-11.1-1.2-19.8-2.2c-8.7-0.9-14.6-2.2-21.1-5.8c-6.5-3.6-21.8-12.6-21.8-12.6L132.6,399L132.6,399z"/>
	<path class="st1" d="M132.6,407.2c0,0,16.3,8.9,21.8,11.7c6.2,3.1,11.5,4.6,21.1,5.7c9.5,1.1,19.8,2.2,19.8,2.2v1c0,0-9.6-1-19.8-2
		c-10.2-1-13.8-1.4-21.1-4.7c-6.6-2.9-21.8-10.1-21.8-10.1L132.6,407.2L132.6,407.2z"/>
	<path class="st1" d="M132.6,415.5c0,0,12.9,5.5,21.9,9.1c8.9,3.5,15.7,3.8,21.1,4.5c2.4,0.3,19.7,2.1,19.7,2.1v1
		c0,0-10.4-0.8-19.8-1.7c-9.4-0.8-13.5-1.2-21.1-3.7c-7.7-2.6-21.9-7.5-21.9-7.5L132.6,415.5L132.6,415.5z"/>
	<path class="st1" d="M132.6,424c0,0,13,4,21.9,6.4c8.9,2.3,17,3.3,21.1,3.6c4.1,0.3,19.8,1.6,19.8,1.6v0.9c0,0-8.9-0.6-19.8-1.4
		c-8.8-0.6-15.9-1.3-21.1-2.4c-5.8-1.3-21.8-5.1-21.8-5.1L132.6,424L132.6,424z"/>
	<path class="st1" d="M132.6,432.4c0,0,10.6,1.8,21.9,3.7c8.4,1.4,19.8,2.3,21.1,2.3c1.2,0.1,19.8,1.3,19.8,1.3v1
		c0,0-11.9-0.6-19.8-1.1c-8.3-0.5-16.5-1-21.1-1.4c-10.4-1.1-21.8-2.5-21.8-2.5L132.6,432.4L132.6,432.4z"/>
	<path class="st1" d="M132.6,441c0,0,16.8,0.6,21.9,0.7s40.9,1.6,40.9,1.6v1h-62.8L132.6,441L132.6,441z"/>
	<path class="st1" d="M175.5,392.7c-15.2-3.3-18.6-8.9-21.2-12.3c-2.5-3.5-21.8-31.6-21.8-31.6v6.4c0.8,1,17.2,22.6,21.8,28.5
		c5.2,6.7,13.4,8.2,21.1,9.9c7.8,1.7,19.8,4,19.8,4v-0.9C195.4,396.7,179.5,393.6,175.5,392.7"/>
	<path class="st1" d="M175.5,397.2c-12.5-2.4-17.5-6.4-21.2-11.2c-3.7-4.8-21.8-28.7-21.8-28.7v6c0.8,0.9,17.3,20.6,21.8,25.7
		c5.2,6,12.4,7.5,21.2,9.1c8.8,1.6,19.8,3.7,19.8,3.7v-0.9C195.4,401,182.7,398.6,175.5,397.2"/>
	<path class="st1" d="M175.5,401.8c-13-2.5-15.6-4.6-21.1-10.6c-3.4-3.8-21.1-24.7-21.8-25.5v5.6c0,0,16.5,17.6,21.8,22.8
		c6.9,6.8,13.5,7.3,21.2,8.7s19.8,3.6,19.8,3.6v-0.9C195.4,405.4,180.7,402.8,175.5,401.8"/>
	<rect x="28.3" y="383.6" class="st2" width="90.5" height="60.7"/>
	<polygon class="st3" points="74.5,392.2 77.7,392.2 75.1,394.2 76.1,397.3 73.6,395.4 71.1,397.3 72.1,394.2 69.5,392.2 
		72.6,392.2 73.6,389.1 	"/>
	<polygon class="st3" points="74.6,432.7 77.8,432.7 75.3,434.6 76.2,437.6 73.7,435.8 71.2,437.6 72.2,434.6 69.6,432.7 
		72.8,432.7 73.7,429.7 	"/>
	<polygon class="st3" points="84.6,430 87.8,430 85.2,431.9 86.2,435 83.7,433.1 81.2,435 82.2,431.9 79.6,430 82.7,430 83.7,427.1 
			"/>
	<polygon class="st3" points="84.6,394.9 87.8,394.9 85.2,396.8 86.2,399.8 83.7,398 81.2,399.8 82.2,396.8 79.6,394.9 82.7,394.9 
		83.7,391.9 	"/>
	<polygon class="st3" points="92,402.3 95.2,402.3 92.6,404.2 93.6,407.3 91.1,405.4 88.6,407.3 89.6,404.2 87,402.3 90.2,402.3 
		91.1,399.4 	"/>
	<polygon class="st3" points="92,422.7 95.2,422.7 92.6,424.6 93.6,427.6 91.1,425.8 88.6,427.6 89.6,424.6 87,422.7 90.2,422.7 
		91.1,419.7 	"/>
	<polygon class="st3" points="94.8,412.4 98,412.4 95.4,414.3 96.4,417.3 93.9,415.4 91.4,417.3 92.4,414.3 89.8,412.4 92.9,412.4 
		93.9,409.4 	"/>
	<polygon class="st3" points="64.3,394.9 67.5,394.9 65,396.8 65.9,399.9 63.4,398 60.9,399.9 61.9,396.8 59.3,394.9 62.5,394.9 
		63.4,392 	"/>
	<polygon class="st3" points="57.1,402.4 60.3,402.4 57.8,404.3 58.7,407.3 56.2,405.4 53.7,407.3 54.7,404.3 52.1,402.4 
		55.3,402.4 56.2,399.4 	"/>
	<polygon class="st3" points="54.5,412.4 57.6,412.4 55.1,414.3 56.1,417.3 53.5,415.5 51,417.3 52,414.3 49.4,412.4 52.6,412.4 
		53.5,409.4 	"/>
	<polygon class="st3" points="57.1,422.7 60.3,422.7 57.8,424.6 58.7,427.7 56.2,425.8 53.7,427.7 54.7,424.6 52.1,422.7 
		55.3,422.7 56.2,419.8 	"/>
	<polygon class="st3" points="64.5,430 67.6,430 65.1,432 66,435 63.5,433.1 61,435 62,432 59.4,430 62.6,430 63.5,427.1 	"/>
</g>
</svg>
