<?xml version="1.0" encoding="utf-8"?>
<!-- Generator: Adobe Illustrator 19.1.0, SVG Export Plug-In . SVG Version: 6.00 Build 0)  -->
<!DOCTYPE svg PUBLIC "-//W3C//DTD SVG 1.1//EN" "http://www.w3.org/Graphics/SVG/1.1/DTD/svg11.dtd">
<svg version="1.1" id="Layer_1" xmlns="http://www.w3.org/2000/svg" xmlns:xlink="http://www.w3.org/1999/xlink" x="0px" y="0px"
	 viewBox="-256.3 338.6 450 164" style="enable-background:new -256.3 338.6 450 164;" xml:space="preserve">
<style type="text/css">
	.st0{fill:#404040;}
	.st1{fill:#BCBEC0;}
	.st2{fill:#0D4F9E;}
	.st3{fill:#FAEA27;}
</style>
<g>
	<path class="st0" d="M-164,471.8c0-0.5,0.3-0.8,0.8-0.8h14.7c0.5,0,0.8,0.3,0.8,0.8v2.5c0,0.5-0.3,0.7-0.8,0.7h-10.9v6.9h9.7
		c0.5,0,0.8,0.2,0.8,0.7v2.5c0,0.5-0.3,0.7-0.8,0.7h-9.7v7.9h11.2c0.5,0,0.7,0.3,0.7,0.8v2.4c0,0.5-0.3,0.7-0.8,0.7h-14.9
		c-0.5,0-0.8-0.2-0.8-0.7V471.8z"/>
	<path class="st0" d="M-133.2,493.9c1.8,0,3.1-0.5,4-1.5c0.9-1,1.4-2.5,1.4-4.6v-16c0-0.5,0.3-0.8,0.8-0.8h3c0.3,0,0.5,0.1,0.6,0.2
		c0.1,0.1,0.1,0.3,0.1,0.6v16c0,0.8,0,1.6-0.1,2.4s-0.3,1.6-0.6,2.3c-0.4,1-0.9,1.8-1.5,2.4c-0.6,0.7-1.3,1.2-2.1,1.6
		s-1.7,0.7-2.6,0.9c-0.9,0.2-1.9,0.3-2.9,0.3c-4.2,0-7.1-1.5-8.6-4.4c-0.4-0.8-0.7-1.7-0.9-2.6c-0.2-0.9-0.3-1.9-0.3-3v-16
		c0-0.5,0.3-0.8,0.8-0.8h3c0.5,0,0.8,0.3,0.8,0.8v16c0,2,0.4,3.5,1.3,4.5C-136.2,493.4-134.9,493.9-133.2,493.9z"/>
	<path class="st0" d="M-107,483.1c0.5,0,0.7,0.2,0.7,0.6v2c0,0.4-0.2,0.6-0.7,0.6h-11.6c-0.5,0-0.7-0.2-0.7-0.6v-2
		c0-0.4,0.2-0.6,0.7-0.6H-107z"/>
	<path class="st0" d="M-97.8,483.8l3-3.9l6.7-8.3c0.2-0.2,0.4-0.4,0.6-0.5s0.4-0.1,0.8-0.1h3.6c0.3,0,0.5,0.1,0.5,0.2
		c0.1,0.2,0,0.3-0.2,0.6l-8.6,10.6l9,14.4c0.2,0.3,0.2,0.5,0.1,0.6s-0.3,0.2-0.5,0.2h-3.7c-0.3,0-0.6-0.1-0.8-0.2
		c-0.2-0.1-0.3-0.3-0.5-0.6l-6.6-10.9l-3.5,4.4v6.5c0,0.2,0,0.4-0.1,0.5s-0.3,0.2-0.6,0.2h-3c-0.5,0-0.8-0.3-0.8-0.8v-25
		c0-0.5,0.3-0.8,0.8-0.8h3c0.3,0,0.5,0.1,0.6,0.2c0.1,0.1,0.1,0.3,0.1,0.6L-97.8,483.8L-97.8,483.8z"/>
	<path class="st0" d="M-62.8,487.5c0,1.1-0.1,2.3-0.2,3.6c-0.1,1.2-0.5,2.4-1.1,3.4s-1.5,1.9-2.6,2.5c-1.2,0.7-2.8,1-4.9,1
		c-2,0-3.6-0.3-4.7-1c-1.1-0.7-2-1.5-2.6-2.5s-0.9-2.2-1.1-3.4c-0.1-1.2-0.2-2.4-0.2-3.6c0-0.9,0.1-2,0.3-3.1
		c0.2-1.1,0.6-2.2,1.1-3.2c0.6-1,1.4-1.8,2.6-2.5c1.1-0.7,2.7-1,4.6-1s3.5,0.3,4.6,0.9c1.2,0.6,2,1.4,2.7,2.3c0.6,0.9,1,2,1.2,3.2
		C-62.9,485.1-62.8,486.3-62.8,487.5z M-67.2,487.8c0-1.1-0.1-2-0.2-2.8c-0.1-0.8-0.3-1.4-0.6-2c-0.3-0.5-0.8-0.9-1.3-1.2
		c-0.5-0.3-1.3-0.4-2.2-0.4c-0.9,0-1.5,0.1-2.1,0.4c-0.5,0.3-1,0.7-1.3,1.2s-0.5,1.2-0.6,2c-0.1,0.8-0.2,1.7-0.2,2.7
		c0,1.1,0.1,2,0.2,2.8c0.1,0.8,0.3,1.4,0.6,2c0.3,0.5,0.7,0.9,1.2,1.2c0.5,0.3,1.2,0.4,2.1,0.4s1.6-0.1,2.2-0.4
		c0.6-0.3,1-0.6,1.3-1.2c0.3-0.5,0.5-1.2,0.6-2C-67.3,489.8-67.2,488.8-67.2,487.8z"/>
	<path class="st0" d="M-30.3,497.4c-0.1,0.1-0.3,0.2-0.6,0.2h-2.9c-0.5,0-0.8-0.3-0.8-0.8v-11.4c0-1.5-0.2-2.5-0.6-3
		c-0.4-0.5-1.1-0.8-2.1-0.8c-0.4,0-0.8,0.1-1.3,0.2s-0.9,0.3-1.4,0.5c-0.5,0.2-0.9,0.4-1.3,0.6c-0.4,0.2-0.8,0.4-1.1,0.6
		c0,0.2,0,0.5,0,0.8c0,0.3,0,0.7,0,1.2v11.3c0,0.2-0.1,0.4-0.2,0.6c-0.1,0.1-0.3,0.2-0.6,0.2H-46c-0.5,0-0.7-0.3-0.7-0.8v-11.6
		c0-1.2-0.2-2.1-0.6-2.7c-0.4-0.6-1.1-0.9-2.1-0.9c-0.3,0-0.7,0.1-1.2,0.2c-0.5,0.1-0.9,0.3-1.4,0.4c-0.5,0.2-0.9,0.4-1.4,0.6
		s-0.9,0.4-1.2,0.6v13.4c0,0.5-0.3,0.8-0.8,0.8h-2.9c-0.5,0-0.7-0.3-0.7-0.8v-18c0-0.5,0.2-0.8,0.7-0.8h2.8c0.5,0,0.8,0.3,0.8,0.8
		v1.2l0,0c0.4-0.3,0.8-0.5,1.3-0.8c0.5-0.3,0.9-0.5,1.5-0.7c0.5-0.2,1-0.4,1.6-0.5c0.5-0.1,1.1-0.2,1.6-0.3c1.1,0,2.2,0.2,3.1,0.5
		c0.9,0.4,1.7,1.1,2.3,2.3c1-0.7,2.1-1.4,3.3-2c1.2-0.6,2.4-0.8,3.7-0.8c1.3,0,2.3,0.2,3.1,0.6s1.4,0.9,1.8,1.6
		c0.4,0.7,0.7,1.5,0.8,2.4s0.2,1.9,0.2,2.8v11.8C-30.2,497.1-30.2,497.3-30.3,497.4z"/>
	<path class="st0" d="M2.7,497.4c-0.1,0.1-0.3,0.2-0.6,0.2h-2.9c-0.5,0-0.8-0.3-0.8-0.8v-11.4c0-1.5-0.2-2.5-0.6-3
		c-0.4-0.5-1.1-0.8-2.1-0.8c-0.4,0-0.8,0.1-1.3,0.2s-0.9,0.3-1.4,0.5c-0.5,0.2-0.9,0.4-1.3,0.6c-0.4,0.2-0.8,0.4-1.1,0.6
		c0,0.2,0,0.5,0,0.8c0,0.3,0,0.7,0,1.2v11.3c0,0.2-0.1,0.4-0.2,0.6c-0.1,0.1-0.3,0.2-0.6,0.2H-13c-0.5,0-0.7-0.3-0.7-0.8v-11.6
		c0-1.2-0.2-2.1-0.6-2.7c-0.4-0.6-1.1-0.9-2.1-0.9c-0.3,0-0.7,0.1-1.2,0.2c-0.5,0.1-0.9,0.3-1.4,0.4c-0.5,0.2-0.9,0.4-1.4,0.6
		s-0.9,0.4-1.2,0.6v13.4c0,0.5-0.3,0.8-0.8,0.8h-2.9c-0.5,0-0.7-0.3-0.7-0.8v-18c0-0.5,0.2-0.8,0.7-0.8h2.8c0.5,0,0.8,0.3,0.8,0.8
		v1.2l0,0c0.4-0.3,0.8-0.5,1.3-0.8c0.5-0.3,0.9-0.5,1.5-0.7c0.5-0.2,1-0.4,1.6-0.5c0.5-0.1,1.1-0.2,1.6-0.3c1.1,0,2.2,0.2,3.1,0.5
		c0.9,0.4,1.7,1.1,2.3,2.3c1-0.7,2.1-1.4,3.3-2s2.4-0.8,3.7-0.8s2.3,0.2,3.1,0.6s1.4,0.9,1.8,1.6c0.4,0.7,0.7,1.5,0.8,2.4
		s0.2,1.9,0.2,2.8v11.8C2.8,497.1,2.8,497.3,2.7,497.4z"/>
	<path class="st0" d="M12.3,472.8c0,0.3,0,0.6-0.1,0.9s-0.2,0.5-0.3,0.7c-0.2,0.2-0.4,0.4-0.7,0.5s-0.7,0.2-1.2,0.2s-1-0.1-1.3-0.2
		s-0.5-0.3-0.7-0.5c-0.2-0.2-0.3-0.5-0.3-0.7c-0.1-0.3-0.1-0.6-0.1-0.9c0-0.6,0.2-1.2,0.5-1.6s0.9-0.7,1.9-0.7s1.6,0.2,1.9,0.6
		C12.1,471.6,12.3,472.1,12.3,472.8z M12,496.8c0,0.2,0,0.4-0.1,0.5s-0.3,0.2-0.6,0.2H8.5c-0.5,0-0.8-0.3-0.8-0.8v-18.1
		c0-0.5,0.3-0.8,0.8-0.8h2.8c0.3,0,0.5,0.1,0.6,0.2s0.1,0.3,0.1,0.5V496.8z"/>
	<path class="st0" d="M31.6,491.7c0,1.2-0.2,2.2-0.7,2.9c-0.5,0.8-1.1,1.4-1.8,1.9s-1.6,0.8-2.6,1c-1,0.2-2,0.3-3,0.3
		s-2.1-0.1-3.3-0.2s-2.1-0.4-2.9-0.7c-0.4-0.2-0.7-0.3-0.8-0.5c-0.1-0.2-0.1-0.5-0.1-0.8l0.3-1.3c0.1-0.3,0.2-0.5,0.3-0.6
		c0.2-0.1,0.4-0.1,0.7,0c0.4,0.1,0.9,0.1,1.4,0.2c0.5,0.1,1,0.1,1.6,0.1s1,0.1,1.5,0.1s0.9,0,1.2,0c1.3,0,2.2-0.2,2.8-0.5
		c0.6-0.4,0.8-0.9,0.8-1.7c0-0.5,0-0.8-0.1-1.1c-0.1-0.3-0.3-0.5-0.5-0.7c-0.2-0.2-0.6-0.3-1-0.5c-0.4-0.1-0.9-0.2-1.6-0.3
		c-1-0.1-1.9-0.3-2.8-0.5c-0.9-0.2-1.7-0.5-2.3-0.9c-0.7-0.4-1.2-1-1.6-1.6c-0.4-0.7-0.6-1.6-0.6-2.7c0-2,0.7-3.5,2.1-4.5
		c1.4-1,3.2-1.5,5.4-1.5c0.4,0,0.9,0,1.4,0s1.1,0.1,1.6,0.2s1.1,0.2,1.6,0.3s1,0.2,1.4,0.4c0.7,0.3,0.9,0.7,0.8,1.2l-0.3,1.4
		c-0.1,0.3-0.2,0.5-0.3,0.5c-0.1,0.1-0.4,0.1-0.8,0c-0.9-0.1-1.8-0.2-2.8-0.3s-1.9-0.1-2.6-0.1c-1.3,0-2.1,0.2-2.5,0.5
		c-0.4,0.4-0.6,0.9-0.6,1.7c0,0.8,0.3,1.3,0.8,1.5c0.5,0.2,1.4,0.5,2.6,0.6c1,0.1,1.9,0.3,2.7,0.5c0.9,0.2,1.6,0.5,2.3,1
		c0.7,0.4,1.2,1,1.6,1.7C31.4,489.6,31.6,490.5,31.6,491.7z"/>
	<path class="st0" d="M50,491.7c0,1.2-0.2,2.2-0.7,2.9c-0.5,0.8-1.1,1.4-1.8,1.9s-1.6,0.8-2.6,1c-1,0.2-2,0.3-3,0.3
		s-2.1-0.1-3.3-0.2s-2.1-0.4-2.9-0.7c-0.4-0.2-0.7-0.3-0.8-0.5c-0.1-0.2-0.1-0.5-0.1-0.8l0.3-1.3c0.1-0.3,0.2-0.5,0.3-0.6
		c0.2-0.1,0.4-0.1,0.7,0c0.4,0.1,0.9,0.1,1.4,0.2c0.5,0.1,1,0.1,1.6,0.1c0.5,0,1,0.1,1.5,0.1s0.9,0,1.2,0c1.3,0,2.2-0.2,2.8-0.5
		c0.6-0.4,0.8-0.9,0.8-1.7c0-0.5,0-0.8-0.1-1.1c-0.1-0.3-0.3-0.5-0.5-0.7c-0.2-0.2-0.6-0.3-1-0.5c-0.4-0.1-0.9-0.2-1.6-0.3
		c-1-0.1-1.9-0.3-2.8-0.5c-0.9-0.2-1.7-0.5-2.3-0.9c-0.7-0.4-1.2-1-1.6-1.6c-0.4-0.7-0.6-1.6-0.6-2.7c0-2,0.7-3.5,2.1-4.5
		c1.4-1,3.2-1.5,5.4-1.5c0.4,0,0.9,0,1.4,0s1.1,0.1,1.6,0.2s1.1,0.2,1.6,0.3s1,0.2,1.4,0.4c0.7,0.3,0.9,0.7,0.8,1.2l-0.3,1.4
		c-0.1,0.3-0.2,0.5-0.3,0.5c-0.1,0.1-0.4,0.1-0.8,0c-0.9-0.1-1.8-0.2-2.8-0.3s-1.9-0.1-2.6-0.1c-1.3,0-2.1,0.2-2.5,0.5
		c-0.4,0.4-0.6,0.9-0.6,1.7c0,0.8,0.3,1.3,0.8,1.5c0.5,0.2,1.4,0.5,2.6,0.6c1,0.1,1.9,0.3,2.7,0.5c0.9,0.2,1.6,0.5,2.3,1
		c0.7,0.4,1.2,1,1.6,1.7C49.8,489.6,50,490.5,50,491.7z"/>
	<path class="st0" d="M58.9,472.8c0,0.3,0,0.6-0.1,0.9s-0.2,0.5-0.3,0.7c-0.2,0.2-0.4,0.4-0.7,0.5s-0.7,0.2-1.2,0.2s-1-0.1-1.3-0.2
		s-0.5-0.3-0.7-0.5c-0.2-0.2-0.3-0.5-0.3-0.7c-0.1-0.3-0.1-0.6-0.1-0.9c0-0.6,0.2-1.2,0.5-1.6s0.9-0.7,1.9-0.7s1.6,0.2,1.9,0.6
		C58.7,471.6,58.9,472.1,58.9,472.8z M58.6,496.8c0,0.2,0,0.4-0.1,0.5s-0.3,0.2-0.6,0.2h-2.8c-0.5,0-0.8-0.3-0.8-0.8v-18.1
		c0-0.5,0.3-0.8,0.8-0.8h2.8c0.3,0,0.5,0.1,0.6,0.2s0.1,0.3,0.1,0.5V496.8z"/>
	<path class="st0" d="M80.6,487.5c0,1.1-0.1,2.3-0.2,3.6c-0.1,1.2-0.5,2.4-1.1,3.4s-1.5,1.9-2.6,2.5c-1.2,0.7-2.8,1-4.9,1
		c-2,0-3.6-0.3-4.7-1c-1.1-0.7-2-1.5-2.6-2.5s-0.9-2.2-1.1-3.4c-0.1-1.2-0.2-2.4-0.2-3.6c0-0.9,0.1-2,0.3-3.1s0.6-2.2,1.1-3.2
		c0.6-1,1.4-1.8,2.6-2.5c1.2-0.7,2.7-1,4.6-1c1.9,0,3.5,0.3,4.6,0.9c1.2,0.6,2,1.4,2.7,2.3c0.6,0.9,1,2,1.2,3.2
		C80.5,485.1,80.6,486.3,80.6,487.5z M76.1,487.8c0-1.1-0.1-2-0.2-2.8c-0.1-0.8-0.3-1.4-0.6-2s-0.8-0.9-1.3-1.2
		c-0.6-0.3-1.3-0.4-2.2-0.4s-1.5,0.1-2.1,0.4c-0.5,0.3-1,0.7-1.3,1.2s-0.5,1.2-0.6,2c-0.1,0.8-0.2,1.7-0.2,2.7c0,1.1,0.1,2,0.2,2.8
		c0.1,0.8,0.3,1.4,0.6,2c0.3,0.5,0.7,0.9,1.2,1.2c0.5,0.3,1.2,0.4,2.1,0.4c0.9,0,1.6-0.1,2.2-0.4c0.6-0.3,1-0.6,1.3-1.2
		c0.3-0.6,0.5-1.2,0.6-2C75.9,489.7,76.1,488.8,76.1,487.8z"/>
	<path class="st0" d="M101.3,497.4c-0.1,0.1-0.3,0.2-0.6,0.2h-2.9c-0.5,0-0.8-0.3-0.8-0.8v-11.2c0-1.2-0.2-2.1-0.6-2.8
		c-0.4-0.7-1.2-1.1-2.3-1.1c-0.4,0-0.9,0.1-1.4,0.2c-0.5,0.1-1,0.3-1.6,0.5c-0.5,0.2-1,0.4-1.5,0.6s-0.8,0.4-1.1,0.5v13.4
		c0,0.5-0.3,0.8-0.8,0.8h-2.8c-0.5,0-0.8-0.3-0.8-0.8v-18c0-0.5,0.3-0.8,0.8-0.8h2.8c0.5,0,0.8,0.3,0.8,0.8v1.2c0,0,0,0,0.1,0
		c0,0,0,0,0.1,0c0.4-0.3,0.8-0.5,1.3-0.8c0.5-0.3,1.1-0.5,1.7-0.8c0.6-0.2,1.2-0.4,1.8-0.6c0.6-0.1,1.3-0.2,1.9-0.2
		c1.4,0,2.4,0.2,3.2,0.6c0.8,0.4,1.4,1,1.8,1.7c0.4,0.7,0.7,1.5,0.8,2.4c0.1,0.9,0.2,1.9,0.2,2.9v11.6
		C101.5,497.1,101.4,497.3,101.3,497.4z"/>
</g>
<g>
	<path class="st1" d="M-119.7,381.8c0,0,62.2-8.1,64-8.4c2.7-0.4,5.1-1,7.3-1.6c5-1.4,9.7-3.5,13.8-6.3c3.9-2.7,7.6-6.5,11.2-10.8
		c2.3-2.7,4.7-6.2,7-9.6v-1.7c-2.7,4-5.3,7.5-8,10.5c-3.6,4-7.4,7.4-11.2,9.8c-4,2.6-8.4,4.5-13.3,5.7c-2.2,0.6-4.5,1-7.1,1.4
		c-1.7,0.2-3.5,0.4-5.2,0.6c-0.7,0.1-58.4,6.3-58.4,6.3v4.1H-119.7z"/>
	<path class="st1" d="M-36.3,371.3c-3.9,2.3-8.4,3.9-13.4,4.9c-2.1,0.4-4.4,0.8-7.1,1.1c-1.6,0.2-3.1,0.3-4.7,0.4
		c-0.8,0.1-1.7,0.1-2.5,0.2c-19.1,1.7-38,3.6-55.8,5.3v4.2c17.9-2.2,37-4.5,56.1-6.7c0.8-0.1,1.7-0.2,2.5-0.3
		c1.6-0.2,3.1-0.3,4.7-0.6c2.7-0.4,5.1-0.8,7.3-1.3c5.2-1.2,9.8-3,13.9-5.5c4-2.4,7.6-5.8,11.4-10c2.4-2.6,5-6.3,7.5-9.7v-1.4
		c-2.9,4-5.7,7.3-8.4,10.2C-28.6,366-32.4,369.1-36.3,371.3"/>
	<path class="st1" d="M-25.4,370.3c-3.8,3.5-7.8,6.3-11.8,8.2c-3.9,1.9-8.3,3.3-13.5,4.1c-2.1,0.4-4.4,0.6-7,0.9l-62.1,5.2v4.1
		l55.2-5.9l7.1-0.8c2.7-0.3,5-0.7,7.2-1.1c5.3-1,9.9-2.5,13.9-4.6c4.1-2.1,8.3-5.6,12.1-9.4c2.6-2.5,5.1-5.7,7.7-9.1v-1.4
		C-19.5,364.4-22.4,367.6-25.4,370.3"/>
	<path class="st1" d="M-40.4,391.4c-3.6,2-6.3,3.2-11.5,3.8c-3.1,0.3-6.3,0.5-9.4,0.7c-1.5,0.1-3,0.2-4.5,0.2
		c-9.4,0.5-18.6,1.1-28,1.8l-25.9,1.8v4.1l26.2-2.4c8.5-0.8,18.3-1.7,27.9-2.4l7-0.5c2.7-0.2,5-0.4,7-0.7c5.3-0.7,9.8-1.8,13.9-3.3
		c4.3-1.6,8.4-4.2,12.5-7.2c3.7-2.7,8.8-8,8.8-8.1v-1.4c-3.3,3.3-5.3,5.1-8.9,7.6C-29.7,388.1-37.1,389.6-40.4,391.4"/>
	<path class="st1" d="M-39.1,399.2c-3.9,1.2-8.3,1.9-13.5,2.4c-2.1,0.2-4.3,0.3-6.9,0.4l-6.9,0.3c-17.3,0.8-34.4,1.7-53.4,2.7v4.1
		c18.1-1.4,35.8-2.8,53.5-4.1l6.9-0.5c2.7-0.2,4.9-0.4,7-0.6c5.3-0.6,9.8-1.5,13.8-2.8c4.4-1.4,8.8-3.5,12.9-6.1
		c3-1.9,6.1-4.3,9.2-7v-0.1c-3.5,3-6.8,3.6-10,5.7C-30.5,396-34.7,397.9-39.1,399.2"/>
	<path class="st1" d="M-39.7,405.9c-3.9,0.9-8.2,1.5-13.5,1.9c-2,0.1-4.2,0.2-6.8,0.3l-6.9,0.3c-17.3,0.7-34.9,1.4-52.9,2.2v4.1
		c17.8-1.2,35.3-2.4,53-3.5l6.9-0.4c2.7-0.2,4.9-0.3,6.9-0.5c5.3-0.5,9.7-1.2,13.7-2.3c4.5-1.2,8.9-2.9,13.1-5.1
		c3.2-1.7,6.4-3.8,9.7-6.3v-1.7c-3.6,2.6-7,4.8-10.5,6.5C-31,403.3-35.3,404.9-39.7,405.9"/>
	<path class="st1" d="M-40.3,412.5c-4,0.7-8.2,1.2-13.4,1.5c-2,0.1-4,0.2-6.8,0.2l-59.2,1.6v4.1l52.5-2.8l6.8-0.3
		c2.7-0.1,4.8-0.3,6.8-0.4c5.3-0.4,9.6-1,13.6-1.8c4.6-1,9-2.4,13.2-4.2c3.4-1.4,6.8-3.2,10.3-5.4v-1.6c-3.8,2.2-7.3,4-10.9,5.4
		C-31.5,410.5-35.8,411.7-40.3,412.5"/>
	<path class="st1" d="M-40.8,419.2c-7.3,1-14.8,1.1-22,1.2c-1.7,0-3.3,0-5,0.1l-52,0.9v4.1l52.1-2.3c1.7-0.1,3.3-0.1,5-0.2
		c7.3-0.3,14.8-0.6,22.2-1.8c4.7-0.7,9.2-1.8,13.3-3.3c3.5-1.2,7.1-2.7,10.7-4.5v-1.6c-3.8,1.8-7.6,3.3-11.2,4.4
		C-31.8,417.6-36.2,418.6-40.8,419.2"/>
	<path class="st1" d="M-41.2,425.9c-6.8,0.5-13.8,0.5-20.5,0.5c-2.1,0-4.2,0-6.3,0c-17.2,0.1-34.3,0.2-51.7,0.4v4.1
		c16.6-0.6,34.2-1.2,51.8-1.7c2.1-0.1,4.2-0.1,6.3-0.2c6.8-0.2,13.8-0.4,20.7-1.1c4.8-0.5,9.2-1.3,13.4-2.3
		c3.7-0.9,7.4-2.1,11.2-3.6v-1.5c-3.9,1.4-7.8,2.6-11.5,3.4C-32.1,424.8-36.5,425.5-41.2,425.9"/>
	<path class="st1" d="M-41.4,432.5c-2.8,0.1-5.9,0.2-9.4,0.2c-1.3,0-2.6,0-3.9,0l-13.5-0.3c-9.1,0-18.2,0-26.8,0h-24.7v4l24.8-0.7
		c8.5-0.2,17.7-0.4,26.8-0.6l13.4-0.2c3.7-0.1,8.5-0.2,13.4-0.5c4.8-0.3,9.2-0.8,13.4-1.5c3.8-0.6,7.6-1.4,11.5-2.4v-1.4
		c-4,0.9-7.9,1.7-11.7,2.2C-32.4,431.9-36.7,432.3-41.4,432.5"/>
	<path class="st1" d="M-54.9,438.8l-13.4-0.1c-17-0.2-34.1-0.6-51.4-0.9v4.1c16.6-0.1,34.1-0.2,51.4-0.4l13.4-0.2
		c4.5-0.1,8.9-0.2,13.4-0.3c9.2-0.3,17.4-1,25.1-2v-1.4c-7.7,0.8-16,1.3-25.1,1.3C-46,438.9-50.5,438.9-54.9,438.8"/>
	<polygon class="st1" points="-16.4,446 -119.7,443.4 -119.7,447.4 -16.4,447.4 	"/>
	<path class="st1" d="M-25.7,377.9c-3.9,3.2-7,5.5-11.8,7.4c-4.2,1.7-8.7,2.4-13.8,3.1c-3.3,0.5-6.8,1.2-10.1,1.4
		c-1.4,0.1-2.7,0.2-4.1,0.3l-54.3,4v4.1l54.5-5.3l7.1-0.7c2.6-0.3,4.9-0.5,7.1-0.9c5.3-0.9,9.8-2.2,13.9-4c4.2-1.9,8.5-5,12.5-8.4
		c2.7-2.3,5.3-5.2,8.2-8.4V369C-19.9,372.6-22.7,375.5-25.7,377.9"/>
	<path class="st1" d="M27.5,343.4c0,0,18.6,29.7,22,35.2c3.4,5.4,7.3,9.8,21,12.7c13.8,2.9,19.7,4.3,19.7,4.3v1.1
		c0,0-8.7-1.9-20-4.4c-11.2-2.5-15.8-3.4-21-10.5c-4.3-6-21.8-31.3-21.8-31.3v-7.1H27.5z"/>
	<path class="st1" d="M27.5,377.3c0,0,16.9,17.8,21.8,22.9c5.2,5.4,11.8,7.4,21.1,9.1c8.8,1.6,19.9,3.4,19.9,3.4v1
		c0,0-10.4-1.7-19.9-3.3c-9.3-1.6-15.8-2.5-21.1-7.4c-4.8-4.4-21.8-20.4-21.8-20.4V377.3z"/>
	<path class="st1" d="M27.5,385.3c0,0,16.1,15,21.8,20.1c5.3,4.7,9.5,6.2,21.1,8.2c11.6,2.1,19.8,3.3,19.8,3.3v1.1
		c0,0-10.5-1.7-19.9-3.2s-15.4-2.1-21.1-6.7c-6.5-5.3-21.8-17.9-21.8-17.9L27.5,385.3L27.5,385.3z"/>
	<path class="st1" d="M27.5,393.9c0,0,18.4,14.6,21.8,17.2c3.4,2.6,8,5.5,21.2,7.5c13.1,1.9,19.8,2.8,19.8,2.8v1.1
		c0,0-11.9-1.7-19.8-2.7c-7.9-1-14-1.4-21.1-6.2c-6.9-4.6-21.9-15.2-21.9-15.2V393.9z"/>
	<path class="st1" d="M27.5,402.1c0,0,18.4,12.3,21.9,14.3c3.5,1.9,7.6,5.1,21.1,6.8s19.8,2.5,19.8,2.5v1.1c0,0-11.1-1.2-19.8-2.2
		c-8.7-0.9-14.6-2.2-21.1-5.8s-21.8-12.6-21.8-12.6L27.5,402.1L27.5,402.1z"/>
	<path class="st1" d="M27.5,410.3c0,0,16.3,8.9,21.8,11.7c6.2,3.1,11.5,4.6,21.1,5.7c9.5,1.1,19.8,2.2,19.8,2.2v1c0,0-9.6-1-19.8-2
		s-13.8-1.4-21.1-4.7c-6.6-2.9-21.8-10.1-21.8-10.1V410.3z"/>
	<path class="st1" d="M27.5,418.6c0,0,12.9,5.5,21.9,9.1c8.9,3.5,15.7,3.8,21.1,4.5c2.4,0.3,19.7,2.1,19.7,2.1v1
		c0,0-10.4-0.8-19.8-1.7c-9.4-0.8-13.5-1.2-21.1-3.7c-7.7-2.6-21.9-7.5-21.9-7.5v-3.8H27.5z"/>
	<path class="st1" d="M27.5,427.1c0,0,13,4,21.9,6.4c8.9,2.3,17,3.3,21.1,3.6c4.1,0.3,19.8,1.6,19.8,1.6v0.9c0,0-8.9-0.6-19.8-1.4
		c-8.8-0.6-15.9-1.3-21.1-2.4c-5.8-1.3-21.8-5.1-21.8-5.1L27.5,427.1L27.5,427.1z"/>
	<path class="st1" d="M27.5,435.5c0,0,10.6,1.8,21.9,3.7c8.4,1.4,19.8,2.3,21.1,2.3c1.2,0.1,19.8,1.3,19.8,1.3v1
		c0,0-11.9-0.6-19.8-1.1c-8.3-0.5-16.5-1-21.1-1.4c-10.4-1.1-21.8-2.5-21.8-2.5L27.5,435.5L27.5,435.5z"/>
	<path class="st1" d="M27.5,444.1c0,0,16.8,0.6,21.9,0.7c5.1,0.1,40.9,1.6,40.9,1.6v1H27.5L27.5,444.1L27.5,444.1z"/>
	<path class="st1" d="M70.4,395.8c-15.2-3.3-18.6-8.9-21.2-12.3c-2.5-3.5-21.8-31.6-21.8-31.6v6.4c0.8,1,17.2,22.6,21.8,28.5
		c5.2,6.7,13.4,8.2,21.1,9.9c7.8,1.7,19.8,4,19.8,4v-0.9C90.3,399.8,74.4,396.7,70.4,395.8"/>
	<path class="st1" d="M70.4,400.3c-12.5-2.4-17.5-6.4-21.2-11.2c-3.7-4.8-21.8-28.7-21.8-28.7v6c0.8,0.9,17.3,20.6,21.8,25.7
		c5.2,6,12.4,7.5,21.2,9.1s19.8,3.7,19.8,3.7V404C90.3,404.1,77.6,401.7,70.4,400.3"/>
	<path class="st1" d="M70.4,404.9c-13-2.5-15.6-4.6-21.1-10.6c-3.4-3.8-21.1-24.7-21.8-25.5v5.6c0,0,16.5,17.6,21.8,22.8
		c6.9,6.8,13.5,7.3,21.2,8.7c7.7,1.4,19.8,3.6,19.8,3.6v-0.9C90.3,408.5,75.6,405.9,70.4,404.9"/>
	<rect x="-76.8" y="386.7" class="st2" width="90.5" height="60.7"/>
	<polygon class="st3" points="-30.6,395.3 -27.4,395.3 -30,397.3 -29,400.4 -31.5,398.5 -34,400.4 -33,397.3 -35.6,395.3 
		-32.5,395.3 -31.5,392.2 	"/>
	<polygon class="st3" points="-30.5,435.8 -27.3,435.8 -29.8,437.7 -28.9,440.7 -31.4,438.9 -33.9,440.7 -32.9,437.7 -35.5,435.8 
		-32.3,435.8 -31.4,432.8 	"/>
	<polygon class="st3" points="-20.5,433.1 -17.3,433.1 -19.9,435 -18.9,438.1 -21.4,436.2 -23.9,438.1 -22.9,435 -25.5,433.1 
		-22.4,433.1 -21.4,430.2 	"/>
	<polygon class="st3" points="-20.5,398 -17.3,398 -19.9,399.9 -18.9,402.9 -21.4,401.1 -23.9,402.9 -22.9,399.9 -25.5,398 
		-22.4,398 -21.4,395 	"/>
	<polygon class="st3" points="-13.1,405.4 -9.9,405.4 -12.5,407.3 -11.5,410.4 -14,408.5 -16.5,410.4 -15.5,407.3 -18.1,405.4 
		-14.9,405.4 -14,402.5 	"/>
	<polygon class="st3" points="-13.1,425.8 -9.9,425.8 -12.5,427.7 -11.5,430.7 -14,428.9 -16.5,430.7 -15.5,427.7 -18.1,425.8 
		-14.9,425.8 -14,422.8 	"/>
	<polygon class="st3" points="-10.3,415.5 -7.1,415.5 -9.7,417.4 -8.7,420.4 -11.2,418.5 -13.7,420.4 -12.7,417.4 -15.3,415.5 
		-12.2,415.5 -11.2,412.5 	"/>
	<polygon class="st3" points="-40.8,398 -37.6,398 -40.1,399.9 -39.2,403 -41.7,401.1 -44.2,403 -43.2,399.9 -45.8,398 -42.6,398 
		-41.7,395.1 	"/>
	<polygon class="st3" points="-48,405.5 -44.8,405.5 -47.3,407.4 -46.4,410.4 -48.9,408.5 -51.4,410.4 -50.4,407.4 -53,405.5 
		-49.8,405.5 -48.9,402.5 	"/>
	<polygon class="st3" points="-50.6,415.5 -47.5,415.5 -50,417.4 -49,420.4 -51.6,418.6 -54.1,420.4 -53.1,417.4 -55.7,415.5 
		-52.5,415.5 -51.6,412.5 	"/>
	<polygon class="st3" points="-48,425.8 -44.8,425.8 -47.3,427.7 -46.4,430.8 -48.9,428.9 -51.4,430.8 -50.4,427.7 -53,425.8 
		-49.8,425.8 -48.9,422.9 	"/>
	<polygon class="st3" points="-40.6,433.1 -37.5,433.1 -40,435.1 -39.1,438.1 -41.6,436.2 -44.1,438.1 -43.1,435.1 -45.7,433.1 
		-42.5,433.1 -41.6,430.2 	"/>
</g>
</svg>
