<?xml version="1.0" encoding="utf-8"?>
<!-- Generator: Adobe Illustrator 19.1.0, SVG Export Plug-In . SVG Version: 6.00 Build 0)  -->
<svg version="1.1" id="Layer_1" xmlns="http://www.w3.org/2000/svg" xmlns:xlink="http://www.w3.org/1999/xlink" x="0px" y="0px"
	 viewBox="206.3 133 450 164" style="enable-background:new 206.3 133 450 164;" xml:space="preserve">
<style type="text/css">
	.st0{fill:#404040;}
	.st1{fill:#BCBEC0;}
	.st2{fill:#0D4F9E;}
	.st3{fill:#FAEA27;}
</style>
<g>
	<path class="st0" d="M245,274.9c0-1.7,0.1-3.4,0.4-5c0.3-1.7,0.8-3.1,1.6-4.4c0.8-1.3,1.9-2.3,3.3-3.1c1.4-0.8,3.2-1.2,5.5-1.2
		c0.5,0,1,0,1.7,0.1c0.6,0,1.3,0.1,1.9,0.2c0.7,0.1,1.3,0.2,2,0.4c0.6,0.1,1.2,0.3,1.8,0.5c0.3,0.1,0.5,0.3,0.7,0.5
		c0.1,0.2,0.2,0.4,0.1,0.8l-0.4,1.6c-0.1,0.2-0.1,0.4-0.3,0.5c-0.1,0.1-0.4,0.1-0.8,0.1c-1-0.1-2-0.3-3.2-0.4
		c-1.1-0.1-2.2-0.2-3.3-0.2c-1.4,0-2.5,0.3-3.3,0.8c-0.8,0.5-1.5,1.2-1.9,2.1s-0.7,1.9-0.9,3.1c-0.1,1.2-0.2,2.4-0.2,3.7
		c0,1.3,0.1,2.5,0.2,3.7c0.2,1.1,0.5,2.1,0.9,2.9c0.5,0.8,1.1,1.5,1.9,2s1.9,0.7,3.2,0.7c1.2,0,2.3-0.1,3.3-0.2
		c1-0.1,2.1-0.2,3.2-0.4c0.4-0.1,0.6,0,0.8,0.1c0.1,0.1,0.2,0.3,0.3,0.6l0.3,1.5c0.2,0.6-0.1,1-0.7,1.3c-0.5,0.2-1,0.4-1.7,0.5
		c-0.7,0.1-1.3,0.3-2,0.4c-0.7,0.1-1.3,0.2-2,0.2c-0.7,0-1.2,0.1-1.7,0.1c-2.2,0-4.1-0.4-5.5-1.1c-1.4-0.8-2.5-1.8-3.3-2.9
		c-0.8-1.3-1.3-2.7-1.6-4.3C245.2,278.2,245,276.6,245,274.9z"/>
	<path class="st0" d="M283.8,277.8c0,1.1-0.1,2.3-0.2,3.6c-0.1,1.2-0.5,2.4-1.1,3.4s-1.5,1.9-2.6,2.5c-1.2,0.7-2.8,1-4.9,1
		c-2,0-3.6-0.3-4.6-1s-2-1.5-2.6-2.5c-0.6-1-0.9-2.2-1.1-3.4c-0.1-1.2-0.2-2.4-0.2-3.6c0-0.9,0.1-2,0.3-3.1c0.2-1.1,0.6-2.2,1.1-3.2
		c0.6-1,1.4-1.8,2.6-2.5c1.1-0.7,2.7-1,4.6-1c1.9,0,3.4,0.3,4.6,0.9c1.2,0.6,2,1.4,2.7,2.3c0.6,0.9,1,2,1.2,3.2
		C283.7,275.4,283.8,276.6,283.8,277.8z M279.4,278.1c0-1.1-0.1-2-0.2-2.8c-0.1-0.8-0.3-1.4-0.6-2c-0.3-0.5-0.8-0.9-1.3-1.2
		c-0.5-0.3-1.3-0.4-2.2-0.4c-0.9,0-1.5,0.1-2.1,0.4c-0.5,0.3-1,0.7-1.3,1.2c-0.3,0.5-0.5,1.2-0.6,2c-0.1,0.8-0.2,1.7-0.2,2.7
		c0,1.1,0.1,2,0.2,2.8c0.1,0.8,0.3,1.4,0.6,2c0.3,0.5,0.7,0.9,1.2,1.2c0.5,0.3,1.2,0.4,2.1,0.4s1.6-0.1,2.2-0.4
		c0.6-0.3,1-0.6,1.3-1.2c0.3-0.5,0.5-1.2,0.6-2C279.4,280.1,279.4,279.1,279.4,278.1z"/>
	<path class="st0" d="M316.1,287.6c-0.1,0.1-0.3,0.2-0.6,0.2h-2.9c-0.5,0-0.8-0.3-0.8-0.8v-11.3c0-1.5-0.2-2.5-0.6-2.9
		c-0.4-0.5-1.1-0.8-2.1-0.8c-0.4,0-0.8,0.1-1.3,0.2s-0.9,0.3-1.4,0.5c-0.5,0.2-0.9,0.4-1.3,0.6c-0.4,0.2-0.8,0.4-1.1,0.6
		c0,0.2,0,0.5,0,0.8c0,0.3,0,0.7,0,1.2V287c0,0.2-0.1,0.4-0.2,0.6c-0.1,0.1-0.3,0.2-0.6,0.2h-2.9c-0.5,0-0.7-0.3-0.7-0.8v-11.5
		c0-1.2-0.2-2.1-0.6-2.7c-0.4-0.6-1.1-0.9-2.1-0.9c-0.3,0-0.7,0.1-1.2,0.2c-0.5,0.1-0.9,0.3-1.4,0.4c-0.5,0.2-0.9,0.4-1.4,0.6
		c-0.5,0.2-0.9,0.4-1.2,0.6v13.3c0,0.5-0.3,0.8-0.8,0.8h-2.9c-0.5,0-0.7-0.3-0.7-0.8v-17.9c0-0.5,0.2-0.8,0.7-0.8h2.8
		c0.5,0,0.8,0.3,0.8,0.8v1.2l0,0c0.4-0.3,0.8-0.5,1.3-0.8c0.5-0.3,0.9-0.5,1.5-0.7c0.5-0.2,1-0.4,1.6-0.5c0.5-0.1,1.1-0.2,1.6-0.3
		c1.1,0,2.2,0.2,3.1,0.5c0.9,0.4,1.7,1.1,2.3,2.3c1-0.7,2.1-1.4,3.3-2c1.2-0.6,2.4-0.8,3.7-0.8s2.3,0.2,3.1,0.6
		c0.8,0.4,1.4,0.9,1.8,1.6s0.7,1.5,0.8,2.4c0.1,0.9,0.2,1.9,0.2,2.8v12.1C316.2,287.3,316.2,287.5,316.1,287.6z"/>
	<path class="st0" d="M348.7,287.6c-0.1,0.1-0.3,0.2-0.6,0.2h-2.9c-0.5,0-0.8-0.3-0.8-0.8v-11.3c0-1.5-0.2-2.5-0.6-2.9
		c-0.4-0.5-1.1-0.8-2.1-0.8c-0.4,0-0.8,0.1-1.3,0.2c-0.5,0.1-0.9,0.3-1.4,0.5c-0.5,0.2-0.9,0.4-1.3,0.6c-0.4,0.2-0.8,0.4-1.1,0.6
		c0,0.2,0,0.5,0,0.8c0,0.3,0,0.7,0,1.2V287c0,0.2-0.1,0.4-0.2,0.6c-0.1,0.1-0.3,0.2-0.6,0.2h-2.9c-0.5,0-0.7-0.3-0.7-0.8v-11.5
		c0-1.2-0.2-2.1-0.6-2.7c-0.4-0.6-1.1-0.9-2.1-0.9c-0.3,0-0.7,0.1-1.2,0.2c-0.5,0.1-0.9,0.3-1.4,0.4c-0.5,0.2-0.9,0.4-1.4,0.6
		c-0.5,0.2-0.9,0.4-1.2,0.6v13.3c0,0.5-0.3,0.8-0.8,0.8h-2.9c-0.5,0-0.7-0.3-0.7-0.8v-17.9c0-0.5,0.2-0.8,0.7-0.8h2.8
		c0.5,0,0.8,0.3,0.8,0.8v1.2l0,0c0.4-0.3,0.8-0.5,1.3-0.8c0.5-0.3,0.9-0.5,1.5-0.7c0.5-0.2,1-0.4,1.6-0.5c0.5-0.1,1.1-0.2,1.6-0.3
		c1.1,0,2.2,0.2,3.1,0.5c0.9,0.4,1.7,1.1,2.3,2.3c1-0.7,2.1-1.4,3.3-2c1.2-0.6,2.4-0.8,3.7-0.8s2.3,0.2,3.1,0.6
		c0.8,0.4,1.4,0.9,1.8,1.6s0.7,1.5,0.8,2.4c0.1,0.9,0.2,1.9,0.2,2.8v12.1C348.9,287.3,348.8,287.5,348.7,287.6z"/>
	<path class="st0" d="M358.3,263.2c0,0.3,0,0.6-0.1,0.9c-0.1,0.3-0.2,0.5-0.3,0.7c-0.2,0.2-0.4,0.4-0.7,0.5
		c-0.3,0.1-0.7,0.2-1.2,0.2s-1-0.1-1.3-0.2c-0.3-0.1-0.5-0.3-0.7-0.5s-0.3-0.5-0.3-0.7c-0.1-0.3-0.1-0.6-0.1-0.9
		c0-0.6,0.2-1.2,0.5-1.6c0.3-0.4,0.9-0.7,1.9-0.7c1,0,1.6,0.2,1.9,0.6C358.2,262,358.3,262.5,358.3,263.2z M358,287
		c0,0.2,0,0.4-0.1,0.5c-0.1,0.1-0.3,0.2-0.6,0.2h-2.8c-0.5,0-0.8-0.3-0.8-0.8v-18c0-0.5,0.3-0.8,0.8-0.8h2.8c0.3,0,0.5,0.1,0.6,0.2
		c0.1,0.1,0.1,0.3,0.1,0.5V287z"/>
	<path class="st0" d="M377.5,282c0,1.2-0.2,2.2-0.7,2.9c-0.5,0.8-1.1,1.4-1.8,1.9c-0.8,0.5-1.6,0.8-2.6,1c-1,0.2-2,0.3-2.9,0.3
		s-2.1-0.1-3.3-0.2c-1.2-0.1-2.1-0.4-2.9-0.7c-0.4-0.2-0.7-0.3-0.8-0.5c-0.1-0.2-0.1-0.5-0.1-0.8l0.3-1.3c0.1-0.3,0.2-0.5,0.3-0.6
		c0.2-0.1,0.4-0.1,0.7,0c0.4,0.1,0.9,0.1,1.4,0.2c0.5,0.1,1,0.1,1.6,0.1c0.6,0,1,0.1,1.5,0.1s0.9,0,1.2,0c1.3,0,2.2-0.2,2.8-0.5
		c0.6-0.4,0.8-0.9,0.8-1.7c0-0.5,0-0.8-0.1-1.1c-0.1-0.3-0.3-0.5-0.5-0.7c-0.2-0.2-0.6-0.3-1-0.5c-0.4-0.1-0.9-0.2-1.6-0.3
		c-1-0.1-1.9-0.3-2.8-0.5c-0.9-0.2-1.7-0.5-2.3-0.9c-0.7-0.4-1.2-1-1.6-1.6c-0.4-0.7-0.6-1.6-0.6-2.7c0-2,0.7-3.4,2.1-4.4
		c1.4-1,3.2-1.5,5.3-1.5c0.4,0,0.9,0,1.4,0s1.1,0.1,1.6,0.2s1.1,0.2,1.6,0.3s1,0.2,1.4,0.4c0.7,0.3,0.9,0.7,0.8,1.2l-0.3,1.4
		c-0.1,0.3-0.2,0.5-0.3,0.5c-0.1,0.1-0.4,0.1-0.8,0c-0.9-0.1-1.8-0.2-2.8-0.3c-1-0.1-1.9-0.1-2.6-0.1c-1.3,0-2.1,0.2-2.5,0.5
		c-0.4,0.4-0.6,0.9-0.6,1.7c0,0.8,0.3,1.3,0.8,1.5c0.5,0.2,1.4,0.5,2.6,0.6c1,0.1,1.9,0.3,2.7,0.5c0.9,0.2,1.6,0.5,2.3,1
		c0.7,0.4,1.2,1,1.6,1.7C377.3,279.9,377.5,280.8,377.5,282z"/>
	<path class="st0" d="M395.8,282c0,1.2-0.2,2.2-0.7,2.9c-0.5,0.8-1.1,1.4-1.8,1.9c-0.8,0.5-1.6,0.8-2.6,1c-1,0.2-2,0.3-2.9,0.3
		c-0.9,0-2.1-0.1-3.3-0.2c-1.2-0.1-2.1-0.4-2.9-0.7c-0.4-0.2-0.7-0.3-0.8-0.5c-0.1-0.2-0.1-0.5-0.1-0.8l0.3-1.3
		c0.1-0.3,0.2-0.5,0.3-0.6c0.2-0.1,0.4-0.1,0.7,0c0.4,0.1,0.9,0.1,1.4,0.2s1,0.1,1.6,0.1c0.6,0,1,0.1,1.5,0.1s0.9,0,1.2,0
		c1.3,0,2.2-0.2,2.8-0.5c0.6-0.4,0.8-0.9,0.8-1.7c0-0.5,0-0.8-0.1-1.1s-0.3-0.5-0.5-0.7c-0.2-0.2-0.6-0.3-1-0.5
		c-0.4-0.1-0.9-0.2-1.6-0.3c-1-0.1-1.9-0.3-2.8-0.5c-0.9-0.2-1.7-0.5-2.3-0.9c-0.7-0.4-1.2-1-1.6-1.6c-0.4-0.7-0.6-1.6-0.6-2.7
		c0-2,0.7-3.4,2.1-4.4c1.4-1,3.2-1.5,5.3-1.5c0.4,0,0.9,0,1.4,0c0.5,0,1.1,0.1,1.6,0.2c0.5,0.1,1.1,0.2,1.6,0.3
		c0.5,0.1,1,0.2,1.4,0.4c0.7,0.3,0.9,0.7,0.8,1.2l-0.3,1.4c-0.1,0.3-0.2,0.5-0.3,0.5c-0.1,0.1-0.4,0.1-0.8,0
		c-0.9-0.1-1.8-0.2-2.8-0.3s-1.9-0.1-2.6-0.1c-1.3,0-2.1,0.2-2.5,0.5c-0.4,0.4-0.6,0.9-0.6,1.7c0,0.8,0.3,1.3,0.8,1.5
		c0.5,0.2,1.4,0.5,2.6,0.6c1,0.1,1.9,0.3,2.7,0.5c0.9,0.2,1.6,0.5,2.3,1c0.7,0.4,1.2,1,1.6,1.7C395.6,279.9,395.8,280.8,395.8,282z"
		/>
	<path class="st0" d="M404.6,263.2c0,0.3,0,0.6-0.1,0.9c-0.1,0.3-0.2,0.5-0.3,0.7c-0.2,0.2-0.4,0.4-0.7,0.5
		c-0.3,0.1-0.7,0.2-1.2,0.2s-1-0.1-1.3-0.2c-0.3-0.1-0.5-0.3-0.7-0.5s-0.3-0.5-0.3-0.7c-0.1-0.3-0.1-0.6-0.1-0.9
		c0-0.6,0.2-1.2,0.5-1.6c0.3-0.4,0.9-0.7,1.9-0.7c1,0,1.6,0.2,1.9,0.6C404.4,262,404.6,262.5,404.6,263.2z M404.3,287
		c0,0.2,0,0.4-0.1,0.5c-0.1,0.1-0.3,0.2-0.6,0.2h-2.8c-0.5,0-0.8-0.3-0.8-0.8v-18c0-0.5,0.3-0.8,0.8-0.8h2.8c0.3,0,0.5,0.1,0.6,0.2
		c0.1,0.1,0.1,0.3,0.1,0.5V287L404.3,287z"/>
	<path class="st0" d="M426,277.8c0,1.1-0.1,2.3-0.2,3.6c-0.1,1.2-0.5,2.4-1.1,3.4s-1.5,1.9-2.6,2.5c-1.2,0.7-2.8,1-4.9,1
		c-2,0-3.6-0.3-4.6-1c-1.1-0.7-2-1.5-2.6-2.5c-0.6-1-0.9-2.2-1.1-3.4c-0.1-1.2-0.2-2.4-0.2-3.6c0-0.9,0.1-2,0.3-3.1s0.6-2.2,1.1-3.2
		c0.6-1,1.4-1.8,2.6-2.5c1.1-0.7,2.7-1,4.6-1c1.9,0,3.4,0.3,4.6,0.9c1.2,0.6,2,1.4,2.7,2.3c0.6,0.9,1,2,1.2,3.2
		C425.9,275.4,426,276.6,426,277.8z M421.6,278.1c0-1.1-0.1-2-0.2-2.8c-0.1-0.8-0.3-1.4-0.6-2c-0.3-0.5-0.8-0.9-1.3-1.2
		c-0.5-0.3-1.3-0.4-2.2-0.4s-1.5,0.1-2.1,0.4c-0.5,0.3-1,0.7-1.3,1.2c-0.3,0.5-0.5,1.2-0.6,2c-0.1,0.8-0.2,1.7-0.2,2.7
		c0,1.1,0.1,2,0.2,2.8c0.1,0.8,0.3,1.4,0.6,2c0.3,0.5,0.7,0.9,1.2,1.2c0.5,0.3,1.2,0.4,2.1,0.4s1.6-0.1,2.2-0.4
		c0.6-0.3,1-0.6,1.3-1.2c0.3-0.5,0.5-1.2,0.6-2C421.5,280.1,421.6,279.1,421.6,278.1z"/>
	<path class="st0" d="M446.6,287.6c-0.1,0.1-0.3,0.2-0.6,0.2h-2.9c-0.5,0-0.8-0.3-0.8-0.8v-11.1c0-1.2-0.2-2.1-0.6-2.8
		c-0.4-0.7-1.2-1.1-2.3-1.1c-0.4,0-0.9,0.1-1.4,0.2c-0.5,0.1-1,0.3-1.6,0.5c-0.5,0.2-1,0.4-1.5,0.6c-0.5,0.2-0.8,0.4-1.1,0.5v13.3
		c0,0.5-0.3,0.8-0.8,0.8h-2.6c-0.5,0-0.8-0.3-0.8-0.8v-17.9c0-0.5,0.3-0.8,0.8-0.8h2.8c0.5,0,0.8,0.3,0.8,0.8v1.2c0,0,0,0,0.1,0
		c0,0,0,0,0.1,0c0.4-0.3,0.8-0.5,1.3-0.8c0.5-0.3,1.1-0.5,1.7-0.8c0.6-0.2,1.2-0.4,1.8-0.6c0.6-0.1,1.3-0.2,1.9-0.2
		c1.4,0,2.4,0.2,3.2,0.6c0.8,0.4,1.4,1,1.8,1.7s0.7,1.5,0.8,2.4c0.1,0.9,0.2,1.9,0.2,2.9v11.5C446.8,287.3,446.8,287.5,446.6,287.6z
		"/>
	<path class="st0" d="M455,279.3c0,1,0.1,1.9,0.3,2.5c0.2,0.7,0.5,1.2,0.9,1.6c0.4,0.4,0.9,0.7,1.5,0.8c0.6,0.2,1.3,0.2,2.1,0.2
		c0.7,0,1.6-0.1,2.6-0.2c1-0.1,1.9-0.2,2.6-0.3c0.4-0.1,0.6,0,0.8,0c0.1,0.1,0.2,0.3,0.3,0.7l0.2,1.3c0.1,0.3,0,0.5,0,0.7
		c-0.1,0.2-0.3,0.4-0.7,0.5c-0.4,0.2-0.9,0.3-1.4,0.4c-0.5,0.1-1.1,0.2-1.7,0.3c-0.6,0.1-1.2,0.1-1.8,0.2c-0.6,0.1-1.1,0.1-1.6,0.1
		c-1.9,0-3.4-0.3-4.6-0.8c-1.1-0.6-2-1.3-2.6-2.2c-0.6-0.9-1-2-1.2-3.2c-0.2-1.2-0.3-2.5-0.3-3.8c0-1,0.1-2,0.2-3.2
		c0.1-1.2,0.5-2.3,1.1-3.4c0.6-1,1.4-1.9,2.6-2.6c1.1-0.7,2.7-1.1,4.6-1.1c1.8,0,3.2,0.3,4.3,0.8s2,1.2,2.6,2.1
		c0.6,0.8,1,1.8,1.3,2.9c0.2,1.1,0.4,2.2,0.4,3.2c0,0.7-0.1,1.3-0.4,1.8c-0.3,0.5-0.8,0.7-1.6,0.7L455,279.3L455,279.3z
		 M458.9,271.5c-0.7,0-1.4,0.1-1.8,0.3c-0.4,0.2-0.9,0.5-1.2,0.9c-0.3,0.4-0.5,0.9-0.7,1.5c-0.1,0.6-0.2,1.3-0.3,2h7.8
		c0-0.6-0.1-1.2-0.2-1.8c-0.1-0.6-0.3-1.1-0.6-1.5c-0.3-0.4-0.7-0.8-1.2-1.1C460.4,271.7,459.9,271.5,458.9,271.5z"/>
	<path class="st0" d="M486.3,279.3c0,1,0.1,1.9,0.3,2.5c0.2,0.7,0.5,1.2,0.9,1.6c0.4,0.4,0.9,0.7,1.5,0.8c0.6,0.2,1.3,0.2,2.1,0.2
		c0.7,0,1.6-0.1,2.6-0.2c1-0.1,1.9-0.2,2.6-0.3c0.4-0.1,0.6,0,0.8,0c0.1,0.1,0.2,0.3,0.3,0.7l0.2,1.3c0.1,0.3,0,0.5,0,0.7
		c-0.1,0.2-0.3,0.4-0.7,0.5c-0.4,0.2-0.9,0.3-1.4,0.4c-0.5,0.1-1.1,0.2-1.7,0.3c-0.6,0.1-1.2,0.1-1.8,0.2c-0.6,0.1-1.1,0.1-1.6,0.1
		c-1.9,0-3.4-0.3-4.6-0.8c-1.1-0.6-2-1.3-2.6-2.2c-0.6-0.9-1-2-1.2-3.2c-0.2-1.2-0.3-2.5-0.3-3.8c0-1,0.1-2,0.2-3.2
		c0.1-1.2,0.5-2.3,1.1-3.4c0.6-1,1.4-1.9,2.6-2.6c1.1-0.7,2.7-1.1,4.6-1.1c1.8,0,3.2,0.3,4.3,0.8s2,1.2,2.6,2.1
		c0.6,0.8,1,1.8,1.3,2.9c0.2,1.1,0.4,2.2,0.4,3.2c0,0.7-0.1,1.3-0.4,1.8c-0.3,0.5-0.8,0.7-1.6,0.7L486.3,279.3L486.3,279.3z
		 M490.3,271.5c-0.7,0-1.4,0.1-1.8,0.3c-0.5,0.2-0.9,0.5-1.2,0.9c-0.3,0.4-0.5,0.9-0.7,1.5c-0.1,0.6-0.2,1.3-0.3,2h7.8
		c0-0.6-0.1-1.2-0.2-1.8c-0.1-0.6-0.3-1.1-0.6-1.5c-0.3-0.4-0.7-0.8-1.2-1.1C491.8,271.7,491.1,271.5,490.3,271.5z"/>
	<path class="st0" d="M518.5,287.8h-2.8c-0.3,0-0.5-0.1-0.6-0.2c-0.1-0.1-0.2-0.3-0.2-0.6v-1.3h-0.1c-0.4,0.3-0.9,0.5-1.4,0.8
		c-0.5,0.3-1.1,0.5-1.7,0.8c-0.6,0.2-1.2,0.4-1.8,0.6c-0.6,0.1-1.2,0.2-1.9,0.2c-1.4,0-2.4-0.2-3.2-0.6c-0.8-0.4-1.4-0.9-1.8-1.6
		c-0.4-0.7-0.7-1.5-0.8-2.4c-0.1-0.9-0.2-1.9-0.2-2.9v-11.7c0-0.5,0.3-0.8,0.8-0.8h2.9c0.5,0,0.7,0.3,0.7,0.8v11.1
		c0,0.6,0,1.2,0.1,1.6c0.1,0.5,0.2,0.9,0.4,1.2c0.2,0.3,0.5,0.6,0.9,0.8c0.4,0.2,0.9,0.3,1.5,0.3c0.4,0,0.9-0.1,1.4-0.2
		c0.5-0.1,1-0.3,1.5-0.5c0.5-0.2,1-0.4,1.4-0.6c0.4-0.2,0.8-0.4,1-0.5V269c0-0.2,0.1-0.4,0.2-0.6c0.1-0.1,0.3-0.2,0.6-0.2h2.8
		c0.5,0,0.8,0.3,0.8,0.8V287C519.3,287.5,519,287.8,518.5,287.8z"/>
	<path class="st0" d="M528.6,287c0,0.5-0.3,0.8-0.8,0.8h-2.9c-0.5,0-0.8-0.3-0.8-0.8v-17.9c0-0.5,0.3-0.8,0.8-0.8h2.9
		c0.5,0,0.8,0.3,0.8,0.8v1.8l0.1,0.1c0.3-0.3,0.7-0.6,1.2-0.9c0.5-0.3,1-0.6,1.5-0.8c0.5-0.3,1.1-0.5,1.7-0.7
		c0.6-0.2,1.1-0.4,1.6-0.4c0.3-0.1,0.5,0,0.6,0c0.2,0.1,0.3,0.3,0.3,0.6l0.3,2.7c0,0.3,0,0.5,0,0.6c-0.1,0.1-0.3,0.2-0.7,0.3
		c-0.6,0.1-1.1,0.2-1.8,0.4c-0.6,0.1-1.2,0.3-1.8,0.5s-1.1,0.3-1.6,0.5s-0.9,0.3-1.3,0.5V287L528.6,287L528.6,287z"/>
	<path class="st0" d="M554.8,277.8c0,1.1-0.1,2.3-0.2,3.6c-0.1,1.2-0.5,2.4-1.1,3.4s-1.5,1.9-2.6,2.5c-1.2,0.7-2.8,1-4.9,1
		c-2,0-3.6-0.3-4.6-1c-1.1-0.7-2-1.5-2.6-2.5c-0.6-1-0.9-2.2-1.1-3.4c-0.1-1.2-0.2-2.4-0.2-3.6c0-0.9,0.1-2,0.3-3.1s0.6-2.2,1.1-3.2
		c0.6-1,1.4-1.8,2.6-2.5c1.2-0.7,2.7-1,4.6-1c1.9,0,3.4,0.3,4.6,0.9c1.2,0.6,2,1.4,2.7,2.3c0.6,0.9,1,2,1.2,3.2
		C554.7,275.4,554.8,276.6,554.8,277.8z M550.3,278.1c0-1.1-0.1-2-0.2-2.8c-0.1-0.8-0.3-1.4-0.6-2c-0.3-0.6-0.8-0.9-1.3-1.2
		c-0.6-0.3-1.3-0.4-2.2-0.4c-0.9,0-1.5,0.1-2.1,0.4c-0.5,0.3-1,0.7-1.3,1.2c-0.3,0.5-0.5,1.2-0.6,2c-0.1,0.8-0.2,1.7-0.2,2.7
		c0,1.1,0.1,2,0.2,2.8c0.1,0.8,0.3,1.4,0.6,2c0.3,0.5,0.7,0.9,1.2,1.2c0.5,0.3,1.2,0.4,2.1,0.4c0.9,0,1.6-0.1,2.2-0.4
		c0.6-0.3,1-0.6,1.3-1.2c0.3-0.6,0.5-1.2,0.6-2C550.1,279.9,550.3,279.1,550.3,278.1z"/>
	<path class="st0" d="M575.8,278c0,1.6-0.1,3.1-0.4,4.4c-0.2,1.3-0.7,2.4-1.3,3.2c-0.6,0.9-1.4,1.5-2.4,2s-2.3,0.7-3.9,0.7
		c-0.7,0-1.4-0.1-2.3-0.2c-0.9-0.1-1.8-0.4-2.7-0.7l0,0v7c0,0.2,0,0.4-0.1,0.6c-0.1,0.2-0.3,0.2-0.6,0.2h-2.8
		c-0.3,0-0.5-0.1-0.6-0.2c-0.1-0.1-0.1-0.3-0.1-0.6v-25.2c0-0.5,0.3-0.8,0.8-0.8h2.8c0.3,0,0.5,0.1,0.6,0.2c0.1,0.1,0.1,0.3,0.1,0.6
		v1.2l0.1,0.1c0.3-0.2,0.8-0.5,1.3-0.8c0.5-0.3,1-0.5,1.6-0.8c0.6-0.2,1.1-0.4,1.7-0.6c0.6-0.2,1.2-0.2,1.8-0.2
		c1.3,0,2.4,0.2,3.2,0.7c0.8,0.5,1.5,1.2,2,2c0.5,0.9,0.8,1.9,1,3.1C575.7,275.1,575.8,276.5,575.8,278z M571.3,277.9
		c0-1.3-0.1-2.3-0.2-3.1c-0.1-0.8-0.3-1.4-0.6-1.8c-0.3-0.4-0.6-0.7-1-0.9c-0.4-0.1-0.8-0.2-1.4-0.2c-0.4,0-0.9,0.1-1.4,0.2
		c-0.5,0.1-1,0.3-1.5,0.5c-0.5,0.2-1,0.4-1.4,0.6c-0.4,0.2-0.8,0.4-1.1,0.6v9.9c0.9,0.3,1.7,0.4,2.5,0.5c0.7,0.1,1.4,0.1,2.1,0.1
		s1.3-0.1,1.8-0.3c0.5-0.2,0.9-0.6,1.2-1.1s0.5-1.2,0.7-2C571.3,280.2,571.3,279.2,571.3,277.9z"/>
	<path class="st0" d="M583.4,279.3c0,1,0.1,1.9,0.3,2.5c0.2,0.7,0.5,1.2,0.9,1.6c0.4,0.4,0.9,0.7,1.5,0.8c0.6,0.2,1.3,0.2,2.1,0.2
		c0.7,0,1.6-0.1,2.6-0.2s1.9-0.2,2.6-0.3c0.4-0.1,0.6,0,0.8,0c0.1,0.1,0.2,0.3,0.3,0.7l0.2,1.3c0.1,0.3,0,0.5,0,0.7
		c-0.1,0.2-0.3,0.4-0.7,0.5c-0.4,0.2-0.9,0.3-1.4,0.4c-0.5,0.1-1.1,0.2-1.7,0.3c-0.6,0.1-1.2,0.1-1.8,0.2c-0.6,0.1-1.1,0.1-1.6,0.1
		c-1.9,0-3.4-0.3-4.6-0.8c-1.1-0.5-2-1.3-2.6-2.2c-0.6-0.9-1-2-1.2-3.2c-0.2-1.2-0.3-2.5-0.3-3.8c0-1,0.1-2,0.2-3.2
		c0.1-1.2,0.5-2.3,1.1-3.4c0.6-1.1,1.4-1.9,2.6-2.6c1.1-0.7,2.7-1.1,4.6-1.1c1.8,0,3.2,0.3,4.3,0.8s2,1.2,2.6,2.1
		c0.6,0.8,1,1.8,1.3,2.9c0.2,1.1,0.4,2.2,0.4,3.2c0,0.7-0.1,1.3-0.4,1.8c-0.3,0.5-0.8,0.7-1.6,0.7L583.4,279.3L583.4,279.3z
		 M587.5,271.5c-0.7,0-1.4,0.1-1.8,0.3c-0.5,0.2-0.9,0.5-1.2,0.9c-0.3,0.4-0.5,0.9-0.7,1.5c-0.1,0.6-0.2,1.3-0.3,2h7.8
		c0-0.6-0.1-1.2-0.2-1.8c-0.1-0.6-0.3-1.1-0.6-1.5c-0.3-0.4-0.7-0.8-1.2-1.1C588.9,271.7,588.2,271.5,587.5,271.5z"/>
	<path class="st0" d="M611.7,285.5c-1,0.8-2.2,1.4-3.4,1.9s-2.6,0.7-3.9,0.7c-1.1,0-2-0.1-2.7-0.4c-0.7-0.3-1.3-0.7-1.7-1.2
		c-0.4-0.5-0.7-1.1-0.9-1.8s-0.3-1.5-0.3-2.3c0-2.3,0.6-3.9,1.8-5.1c1.3-1.1,3.1-1.6,5.6-1.6h5.1v-1c0-0.6-0.1-1.1-0.2-1.5
		c-0.1-0.4-0.3-0.8-0.7-1c-0.3-0.3-0.7-0.5-1.3-0.6c-0.5-0.1-1.2-0.2-2-0.2c-0.3,0-0.7,0-1.2,0s-0.9,0.1-1.4,0.1s-1,0.1-1.5,0.1
		c-0.5,0.1-0.9,0.1-1.3,0.1c-0.4,0.1-0.7,0.1-0.8,0c-0.1,0-0.2-0.2-0.3-0.5l-0.4-1.5c-0.1-0.3,0-0.5,0.1-0.7
		c0.1-0.2,0.4-0.3,0.8-0.5c0.4-0.2,0.9-0.3,1.5-0.4c0.6-0.1,1.2-0.2,1.8-0.3c0.6-0.1,1.2-0.1,1.8-0.2c0.6,0,1.1-0.1,1.6-0.1
		c1.7,0,3.1,0.2,4.1,0.5c1,0.3,1.8,0.8,2.3,1.5c0.5,0.6,0.9,1.4,1,2.3c0.2,0.9,0.2,1.9,0.2,2.9v7.6c0,0.4,0,0.7,0.1,0.9
		c0,0.2,0.1,0.4,0.2,0.5c0.1,0.1,0.2,0.2,0.4,0.3c0.2,0.1,0.4,0.1,0.8,0.1c0.3,0,0.5,0.1,0.6,0.2c0.1,0.1,0.2,0.2,0.2,0.4v1.7
		c0,0.5-0.3,0.7-1,0.8c-0.3,0.1-0.6,0.1-1,0.1c-0.4,0-0.6,0.1-0.9,0.1c-0.9,0-1.7-0.2-2.3-0.5C612.5,287.1,612,286.5,611.7,285.5
		L611.7,285.5z M611.5,279h-4.9c-1,0-1.8,0.2-2.4,0.7c-0.6,0.5-0.9,1.4-0.9,2.7c0,0.9,0.2,1.5,0.5,1.8c0.4,0.3,1,0.5,1.9,0.5
		c0.4,0,0.9-0.1,1.4-0.2c0.5-0.1,1-0.3,1.5-0.4c0.5-0.1,1-0.4,1.5-0.6c0.5-0.2,0.9-0.4,1.3-0.7L611.5,279L611.5,279L611.5,279z"/>
</g>
<g>
	<path class="st1" d="M343.4,172.9c0,0,61.7-8,63.5-8.3c2.7-0.4,5.1-1,7.3-1.6c5-1.4,9.7-3.4,13.7-6.3c3.9-2.7,7.5-6.5,11.1-10.7
		c2.3-2.7,4.6-6.1,7-9.5v-1.7c-2.7,3.9-5.3,7.5-8,10.4c-3.6,3.9-7.3,7.3-11.1,9.7c-3.9,2.6-8.3,4.4-13.2,5.6c-2.2,0.6-4.4,1-7,1.4
		c-1.7,0.2-3.4,0.4-5.1,0.6c-0.7,0.1-58,6.3-58,6.3L343.4,172.9L343.4,172.9L343.4,172.9z"/>
	<path class="st1" d="M426.1,162.5c-3.9,2.3-8.3,3.9-13.3,4.9c-2.1,0.4-4.4,0.8-7,1.1c-1.6,0.2-3.1,0.3-4.6,0.4
		c-0.8,0.1-1.7,0.1-2.5,0.2c-18.9,1.7-37.7,3.6-55.3,5.3v4.1c17.7-2.2,36.7-4.4,55.6-6.6c0.8-0.1,1.7-0.2,2.5-0.3
		c1.6-0.2,3.1-0.3,4.6-0.6c2.7-0.4,5.1-0.8,7.3-1.3c5.1-1.2,9.7-2.9,13.8-5.5c3.9-2.4,7.5-5.8,11.3-9.9c2.4-2.6,5-6.3,7.5-9.7v-1.4
		c-2.9,3.9-5.6,7.3-8.3,10.1C433.7,157.2,430,160.3,426.1,162.5"/>
	<path class="st1" d="M436.9,161.5c-3.8,3.4-7.7,6.3-11.7,8.1c-3.9,1.9-8.2,3.3-13.4,4.1c-2.1,0.4-4.4,0.6-7,0.9l-61.6,5.1v4.1
		L398,178l7-0.8c2.7-0.3,5-0.7,7.1-1.1c5.3-1,9.8-2.5,13.8-4.6c4.1-2.1,8.2-5.6,12-9.3c2.6-2.5,5.1-5.6,7.6-9v-1.4
		C442.8,155.7,439.9,158.8,436.9,161.5"/>
	<path class="st1" d="M422,182.4c-3.6,2-6.3,3.2-11.4,3.8c-3.1,0.3-6.3,0.5-9.3,0.7c-1.5,0.1-2.9,0.2-4.4,0.2
		c-9.3,0.5-18.4,1.1-27.8,1.8l-25.7,1.8v4.1l26-2.4c8.5-0.8,18.2-1.7,27.7-2.4l7-0.5c2.7-0.2,5-0.4,7-0.7c5.3-0.7,9.7-1.8,13.8-3.3
		c4.3-1.6,8.3-4.1,12.4-7.1c3.7-2.7,8.7-8,8.7-8v-1.4c-3.3,3.3-5.3,5.1-8.8,7.5C432.7,179.2,425.3,180.7,422,182.4"/>
	<path class="st1" d="M423.3,190.2c-3.9,1.2-8.2,1.9-13.4,2.4c-2.1,0.2-4.3,0.3-6.8,0.4l-6.8,0.3c-17.2,0.8-34.2,1.7-53,2.7v4.1
		c18-1.4,35.5-2.8,53.1-4.1l6.8-0.5c2.7-0.2,4.9-0.4,7-0.6c5.3-0.6,9.7-1.5,13.7-2.8c4.4-1.4,8.7-3.4,12.8-6.1
		c2.9-1.9,6.1-4.3,9.1-7V179c-3.4,2.9-6.8,3.6-9.9,5.6C431.8,187,427.7,188.9,423.3,190.2"/>
	<path class="st1" d="M422.7,196.8c-3.9,0.9-8.1,1.5-13.4,1.9c-2,0.1-4.1,0.2-6.8,0.3l-6.8,0.2c-17.2,0.7-34.7,1.4-52.5,2.2v4.1
		c17.7-1.2,35-2.4,52.6-3.4l6.8-0.4c2.7-0.2,4.9-0.3,6.8-0.5c5.3-0.5,9.7-1.2,13.6-2.3c4.4-1.2,8.8-2.9,13-5.1
		c3.2-1.7,6.3-3.8,9.7-6.3v-1.7c-3.6,2.6-7,4.8-10.4,6.5C431.3,194.3,427.1,195.8,422.7,196.8"/>
	<path class="st1" d="M422.1,203.4c-3.9,0.7-8.1,1.2-13.3,1.5c-2,0.1-3.9,0.2-6.8,0.2l-58.7,1.6v4.1l52.1-2.8l6.8-0.3
		c2.7-0.1,4.8-0.3,6.8-0.4c5.3-0.4,9.5-1,13.5-1.8c4.6-1,8.9-2.4,13.1-4.1c3.4-1.4,6.8-3.2,10.2-5.3v-1.7c-3.8,2.2-7.3,3.9-10.8,5.3
		C430.8,201.4,426.6,202.6,422.1,203.4"/>
	<path class="st1" d="M421.6,210c-7.3,1-14.7,1.1-21.8,1.2c-1.7,0-3.3,0-5,0.1l-51.6,0.9v4.1L395,214c1.7-0.1,3.3-0.1,5-0.2
		c7.3-0.3,14.7-0.6,22-1.8c4.6-0.7,9.1-1.8,13.2-3.3c3.4-1.2,7-2.7,10.6-4.4v-1.6c-3.8,1.8-7.5,3.3-11.1,4.4
		C430.6,208.4,426.2,209.4,421.6,210"/>
	<path class="st1" d="M421.3,216.7c-6.8,0.6-13.7,0.6-20.4,0.6c-2.1,0-4.1,0-6.3,0c-17,0.1-34,0.2-51.3,0.4v4.1
		c16.5-0.6,33.9-1.2,51.4-1.7c2.1-0.1,4.1-0.1,6.3-0.2c6.8-0.2,13.7-0.4,20.6-1.1c4.8-0.5,9.1-1.3,13.3-2.3
		c3.7-0.9,7.3-2.1,11.1-3.6v-1.5c-3.9,1.4-7.7,2.6-11.4,3.4C430.3,215.6,425.9,216.3,421.3,216.7"/>
	<path class="st1" d="M421.1,223.2c-2.8,0.1-5.8,0.2-9.3,0.2c-1.3,0-2.6,0-3.9,0l-13.4-0.3c-9-0.1-18.2-0.1-26.6-0.1h-24.5v4.1
		l24.6-0.7c8.5-0.2,17.5-0.4,26.6-0.6l13.3-0.2c3.7-0.1,8.5-0.2,13.3-0.5c4.8-0.3,9.1-0.8,13.3-1.5c3.8-0.6,7.5-1.4,11.4-2.4v-1.4
		c-3.9,0.9-7.8,1.7-11.6,2.2C430,222.6,425.7,223,421.1,223.2"/>
	<path class="st1" d="M407.7,229.5l-13.3-0.1c-16.9-0.2-33.8-0.6-51-0.9v4.1c16.5-0.1,33.8-0.2,51-0.4l13.3-0.2
		c4.4-0.1,8.8-0.2,13.3-0.3c9.1-0.3,17.2-1,24.9-2v-1.4c-7.6,0.8-15.9,1.3-24.9,1.3C416.5,229.6,412,229.6,407.7,229.5"/>
	<polygon class="st1" points="445.8,236.6 343.4,234 343.4,238 445.8,238 	"/>
	<path class="st1" d="M436.6,169c-3.9,3.2-7,5.5-11.7,7.3c-4.1,1.7-8.6,2.4-13.7,3.1c-3.3,0.5-6.8,1.2-10,1.4
		c-1.4,0.1-2.7,0.2-4.1,0.3l-53.9,3.9v4.1l54.1-5.3l7-0.7c2.6-0.3,4.9-0.5,7-0.9c5.3-0.9,9.7-2.2,13.8-3.9c4.1-1.9,8.5-5,12.4-8.3
		c2.7-2.3,5.3-5.1,8.1-8.3v-1.5C442.4,163.8,439.6,166.6,436.6,169"/>
	<path class="st1" d="M489.4,134.8c0,0,18.4,29.5,21.8,34.9c3.4,5.3,7.3,9.7,20.8,12.6c13.7,2.9,19.6,4.3,19.6,4.3v1.1
		c0,0-8.6-1.9-19.9-4.4c-11.1-2.5-15.7-3.4-20.8-10.4c-4.3-6-21.6-31.1-21.6-31.1v-7H489.4z"/>
	<path class="st1" d="M489.4,168.5c0,0,16.8,17.7,21.6,22.7c5.1,5.3,11.7,7.3,20.9,9c8.7,1.6,19.7,3.4,19.7,3.4v1
		c0,0-10.3-1.7-19.7-3.3c-9.2-1.6-15.7-2.5-20.9-7.3c-4.8-4.4-21.6-20.2-21.6-20.2V168.5z"/>
	<path class="st1" d="M489.4,176.4c0,0,16,14.9,21.6,19.9c5.3,4.6,9.4,6.1,20.9,8.1c11.5,2.1,19.6,3.3,19.6,3.3v1.1
		c0,0-10.4-1.7-19.7-3.2c-9.3-1.5-15.3-2.1-20.9-6.6c-6.5-5.3-21.6-17.7-21.6-17.7v-4.9L489.4,176.4L489.4,176.4z"/>
	<path class="st1" d="M489.4,184.9c0,0,18.2,14.5,21.6,17s8,5.5,21.1,7.5c13,1.9,19.6,2.8,19.6,2.8v1.1c0,0-11.8-1.7-19.6-2.7
		c-7.8-1-13.9-1.4-20.9-6.1c-6.8-4.6-21.7-15.1-21.7-15.1V184.9L489.4,184.9z"/>
	<path class="st1" d="M489.4,193.1c0,0,18.2,12.2,21.7,14.2c3.4,1.9,7.5,5.1,20.9,6.8c13.4,1.7,19.6,2.5,19.6,2.5v1.1
		c0,0-11-1.2-19.6-2.2c-8.6-0.9-14.5-2.2-20.9-5.8c-6.5-3.6-21.6-12.5-21.6-12.5v-4.1H489.4z"/>
	<path class="st1" d="M489.4,201.2c0,0,16.2,8.8,21.6,11.6c6.1,3.1,11.4,4.6,20.9,5.6c9.4,1.1,19.6,2.2,19.6,2.2v1c0,0-9.5-1-19.6-2
		c-10.1-1-13.7-1.4-20.9-4.6c-6.5-2.9-21.6-10-21.6-10V201.2z"/>
	<path class="st1" d="M489.4,209.4c0,0,12.8,5.5,21.7,9c8.8,3.4,15.6,3.8,20.9,4.4c2.4,0.3,19.6,2.1,19.6,2.1v1
		c0,0-10.3-0.8-19.6-1.7c-9.3-0.8-13.4-1.2-20.9-3.7c-7.6-2.6-21.7-7.5-21.7-7.5L489.4,209.4L489.4,209.4L489.4,209.4z"/>
	<path class="st1" d="M489.4,217.8c0,0,12.9,3.9,21.7,6.3c8.8,2.3,16.9,3.3,20.9,3.6c4.1,0.3,19.6,1.6,19.6,1.6v0.9
		c0,0-8.8-0.6-19.6-1.4c-8.7-0.6-15.8-1.3-20.9-2.4c-5.8-1.3-21.6-5.1-21.6-5.1v-3.6L489.4,217.8L489.4,217.8z"/>
	<path class="st1" d="M489.4,226.2c0,0,10.5,1.8,21.7,3.7c8.3,1.4,19.6,2.3,20.9,2.3c1.2,0.1,19.6,1.3,19.6,1.3v1
		c0,0-11.8-0.6-19.6-1.1c-8.2-0.5-16.4-1-20.9-1.4c-10.3-1.1-21.6-2.5-21.6-2.5v-3.3L489.4,226.2L489.4,226.2z"/>
	<path class="st1" d="M489.4,234.8c0,0,16.7,0.6,21.7,0.7c5.1,0.1,40.6,1.6,40.6,1.6v1h-62.3L489.4,234.8L489.4,234.8z"/>
	<path class="st1" d="M532,186.8c-15.1-3.3-18.4-8.8-21.1-12.2c-2.5-3.4-21.6-31.3-21.6-31.3v6.3c0.8,1,17,22.4,21.6,28.3
		c5.1,6.6,13.3,8.1,20.9,9.8c7.7,1.7,19.6,3.9,19.6,3.9v-0.9C551.7,190.8,535.9,187.7,532,186.8"/>
	<path class="st1" d="M532,191.3c-12.4-2.4-17.4-6.3-21.1-11.1c-3.7-4.8-21.6-28.5-21.6-28.5v6c0.8,0.9,17.2,20.4,21.6,25.5
		c5.1,6,12.3,7.5,21.1,9c8.7,1.6,19.6,3.7,19.6,3.7V195C551.7,195,539.1,192.6,532,191.3"/>
	<path class="st1" d="M532,195.8c-12.9-2.5-15.5-4.6-20.9-10.5c-3.4-3.8-20.9-24.5-21.6-25.3v5.6c0,0,16.4,17.5,21.6,22.6
		c6.8,6.8,13.4,7.3,21.1,8.6c7.6,1.4,19.6,3.6,19.6,3.6v-0.9C551.7,199.4,537.1,196.8,532,195.8"/>
	<rect x="385.9" y="177.8" class="st2" width="89.8" height="60.2"/>
	<polygon class="st3" points="431.8,186.3 434.9,186.3 432.3,188.3 433.4,191.4 430.8,189.5 428.4,191.4 429.4,188.3 426.8,186.3 
		429.8,186.3 430.8,183.2 	"/>
	<polygon class="st3" points="431.8,226.5 435,226.5 432.5,228.4 433.4,231.4 431,229.6 428.5,231.4 429.5,228.4 426.9,226.5 
		430.1,226.5 431,223.5 	"/>
	<polygon class="st3" points="441.7,223.8 444.9,223.8 442.4,225.7 443.4,228.8 440.9,226.9 438.4,228.8 439.4,225.7 436.8,223.8 
		439.9,223.8 440.9,220.9 	"/>
	<polygon class="st3" points="441.7,189 444.9,189 442.4,190.9 443.4,193.8 440.9,192.1 438.4,193.8 439.4,190.9 436.8,189 
		439.9,189 440.9,186 	"/>
	<polygon class="st3" points="449.1,196.3 452.3,196.3 449.7,198.2 450.7,201.3 448.2,199.4 445.8,201.3 446.8,198.2 444.1,196.3 
		447.3,196.3 448.2,193.5 	"/>
	<polygon class="st3" points="449.1,216.6 452.3,216.6 449.7,218.5 450.7,221.4 448.2,219.7 445.8,221.4 446.8,218.5 444.1,216.6 
		447.3,216.6 448.2,213.6 	"/>
	<polygon class="st3" points="451.9,206.4 455.1,206.4 452.5,208.3 453.5,211.2 451,209.3 448.5,211.2 449.5,208.3 447,206.4 
		450,206.4 451,203.4 	"/>
	<polygon class="st3" points="421.6,189 424.8,189 422.3,190.9 423.2,194 420.8,192.1 418.2,194 419.3,190.9 416.7,189 419.9,189 
		420.8,186.1 	"/>
	<polygon class="st3" points="414.5,196.4 417.7,196.4 415.2,198.3 416.1,201.3 413.6,199.4 411.1,201.3 412.1,198.3 409.5,196.4 
		412.7,196.4 413.6,193.5 	"/>
	<polygon class="st3" points="411.9,206.4 415,206.4 412.5,208.3 413.5,211.2 410.9,209.4 408.5,211.2 409.4,208.3 406.8,206.4 
		410,206.4 410.9,203.4 	"/>
	<polygon class="st3" points="414.5,216.6 417.7,216.6 415.2,218.5 416.1,221.5 413.6,219.7 411.1,221.5 412.1,218.5 409.5,216.6 
		412.7,216.6 413.6,213.7 	"/>
	<polygon class="st3" points="421.8,223.8 424.9,223.8 422.4,225.8 423.3,228.8 420.8,226.9 418.4,228.8 419.4,225.8 416.8,223.8 
		419.9,223.8 420.8,220.9 	"/>
</g>
</svg>
