<svg xmlns="http://www.w3.org/2000/svg" viewBox="0 0 140 68"><path fill="#BCBEC0" d="M3 25.5s37.4-4.9 38.5-5.1c1.6-.3 3.1-.6 4.4-1 3-.8 5.8-2.1 8.3-3.8 2.4-1.6 4.6-3.9 6.7-6.5 1.4-1.6 2.8-3.7 4.2-5.8v-1c-1.6 2.4-3.2 4.5-4.8 6.3-2.2 2.4-4.4 4.4-6.8 5.9-2.4 1.6-5.1 2.7-8 3.4-1.3.3-2.7.6-4.3.8-1 .1-2.1.3-3.1.4C37.7 19.3 3 23 3 23v2.5z"/><path fill="#BCBEC0" d="M53.2 19.2c-2.3 1.4-5.1 2.4-8 3-1.3.3-2.7.5-4.3.6-.9.1-1.9.1-2.8.2-.5 0-1 .1-1.5.1-11.5 1-22.9 2.1-33.6 3.2v2.4c10.8-1.3 22.3-2.7 33.7-4 .5-.1 1-.1 1.5-.2.9-.1 1.9-.2 2.8-.3 1.6-.2 3.1-.5 4.4-.8 3.1-.7 5.9-1.8 8.4-3.3 2.4-1.5 4.5-3.5 6.8-6 1.4-1.6 3-3.8 4.5-5.8v-.8c-1.8 2.4-3.4 4.4-5.1 6.1-2.2 2.4-4.5 4.2-6.8 5.6"/><path fill="#BCBEC0" d="M59.8 18.6c-2.3 2.1-4.7 3.8-7.1 4.9-2.4 1.2-5 2-8.1 2.5-1.3.2-2.7.4-4.2.5L3 29.6V32l33.2-3.6 4.3-.5c1.6-.2 3-.4 4.3-.6 3.2-.6 5.9-1.5 8.4-2.8 2.5-1.3 5-3.4 7.3-5.6 1.6-1.5 3.1-3.4 4.7-5.5v-.8c-1.9 2.4-3.7 4.3-5.4 6"/><path fill="#BCBEC0" d="M50.7 31.2c-2.2 1.2-3.8 1.9-6.9 2.3-1.9.2-3.8.3-5.7.4-.9 0-1.8.1-2.7.1-5.6.3-11.2.7-16.8 1.1L3 36.2v2.4l15.8-1.5c5.1-.5 11-1 16.8-1.5l4.2-.3c1.6-.1 3-.3 4.2-.4 3.2-.4 5.9-1.1 8.3-2 2.6-1 5.1-2.5 7.5-4.3 2.2-1.6 5.3-4.8 5.3-4.8v-.9c-2 2-3.2 3.1-5.4 4.5-2.5 1.8-7 2.7-9 3.8"/><path fill="#BCBEC0" d="M51.5 35.9c-2.4.7-5 1.2-8.1 1.4-1.3.1-2.6.2-4.1.3l-4.2.2c-10.4.5-20.7 1-32.1 1.6v2.4c10.9-.8 21.5-1.7 32.2-2.4l4.2-.3c1.6-.1 2.9-.2 4.2-.4 3.2-.4 5.9-.9 8.3-1.7 2.7-.9 5.3-2.1 7.7-3.7 1.8-1.2 3.6-2.6 5.5-4.2-2.1 1.8-4.1 2.2-6 3.4-2.4 1.5-5 2.6-7.6 3.4"/><path fill="#BCBEC0" d="M51.1 39.9c-2.4.6-4.9.9-8.1 1.1-1.2.1-2.5.1-4.1.2l-4.1.1c-10.4.4-21 .9-31.8 1.3V45c10.7-.7 21.3-1.5 31.9-2.1l4.1-.2c1.6-.1 2.9-.2 4.2-.3 3.2-.3 5.8-.7 8.3-1.4 2.7-.7 5.4-1.7 7.9-3.1 1.9-1 3.9-2.3 5.9-3.8v-1C63.1 34.7 61.1 36 59 37c-2.6 1.4-5.2 2.3-7.9 2.9"/><path fill="#BCBEC0" d="M50.8 43.9c-2.4.4-4.9.7-8.1.9-1.2.1-2.4.1-4.1.1L3 45.9v2.4l31.6-1.7 4.1-.2c1.6-.1 2.9-.2 4.1-.2 3.2-.2 5.8-.6 8.2-1.1 2.8-.6 5.4-1.4 8-2.5 2-.9 4.1-1.9 6.2-3.2v-1c-2.3 1.3-4.4 2.4-6.5 3.2-2.6 1-5.2 1.8-7.9 2.3"/><path fill="#BCBEC0" d="M50.5 47.9c-4.4.6-8.9.7-13.2.7-1 0-2 0-3 .1L3 49.2v2.4l31.3-1.4c1 0 2-.1 3-.1 4.4-.2 8.9-.4 13.4-1.1 2.8-.4 5.5-1.1 8-2 2.1-.7 4.2-1.6 6.4-2.7v-.9c-2.3 1.1-4.6 2-6.7 2.6-2.5.9-5.1 1.5-7.9 1.9M50.3 51.9c-4.1.3-8.3.3-12.3.3h-3.8c-10.4 0-20.7.1-31.1.2v2.4c10-.3 20.6-.7 31.2-1 1.3 0 2.5-.1 3.8-.1 4.1-.1 8.3-.2 12.4-.7 2.9-.3 5.5-.8 8-1.4 2.2-.5 4.5-1.3 6.7-2.1v-.9c-2.3.8-4.7 1.5-6.9 2-2.6.7-5.2 1.1-8 1.3M50.1 55.8c-1.7.1-3.6.1-5.7.1H42l-8-.1c-5.5 0-11-.1-16.1-.1L3 55.8v2.4l14.9-.4c5.1-.1 10.6-.3 16.1-.4l8.1-.1c2.2 0 5.1-.1 8.1-.3 2.9-.2 5.5-.5 8.1-.9 2.3-.4 4.6-.9 6.9-1.5v-.9c-2.4.6-4.8 1-7.1 1.3-2.5.5-5.1.7-8 .8M42 59.7l-8-.1c-10.3-.2-20.5-.4-31-.6v2.4c10-.1 20.5-.1 31-.3l8-.1c2.7 0 5.4-.1 8-.2 5.5-.2 10.5-.6 15.1-1.2v-.8c-4.6.5-9.6.8-15.1.8-2.7.1-5.3.1-8 .1M65.1 64L3 62.4v2.4h62.1zM59.6 23.1c-2.4 1.9-4.2 3.3-7.1 4.4-2.5 1-5.2 1.4-8.3 1.8-2 .3-4.1.7-6 .8-.8.1-1.6.1-2.4.2L3 32.8v2.4L35.8 32l4.3-.4c1.6-.2 3-.3 4.3-.5 3.2-.5 5.9-1.3 8.4-2.4 2.5-1.1 5.1-3 7.5-5 1.6-1.4 3.2-3.1 4.9-5v-.9c-2.1 2.2-3.8 3.9-5.6 5.3M91.6 2.4s11.2 17.8 13.2 21.1c2 3.3 4.4 5.8 12.7 7.6 8.3 1.8 11.9 2.6 11.9 2.6v.6s-5.3-1.1-12-2.6c-6.8-1.5-9.5-2-12.6-6.3-2.6-3.6-13.1-18.7-13.1-18.7V2.4zM91.6 22.8s10.2 10.7 13.1 13.7c3.1 3.2 7.1 4.5 12.7 5.4 5.3.9 12 2 12 2v.6s-6.3-1-12-2c-5.6-1-9.5-1.5-12.7-4.4-2.9-2.6-13.1-12.2-13.1-12.2v-3.1z"/><path fill="#BCBEC0" d="M91.6 27.6s9.7 9 13.1 12.1c3.2 2.8 5.7 3.7 12.7 4.9 7 1.2 11.9 2 11.9 2v.6s-6.3-1-12-1.9c-5.7-.9-9.3-1.3-12.7-4-3.9-3.2-13.1-10.8-13.1-10.8v-2.9z"/><path fill="#BCBEC0" d="M91.6 32.7s11.1 8.8 13.1 10.3c2.1 1.5 4.8 3.3 12.7 4.5 7.9 1.1 11.9 1.7 11.9 1.7v.7s-7.1-1-11.9-1.6c-4.8-.6-8.4-.9-12.7-3.7-4.2-2.8-13.2-9.1-13.2-9.1v-2.8z"/><path fill="#BCBEC0" d="M91.6 37.6s11.1 7.4 13.2 8.6c2.1 1.2 4.6 3.1 12.7 4.1 8.1 1 11.9 1.5 11.9 1.5v.6s-6.7-.7-11.9-1.3c-5.2-.6-8.8-1.3-12.7-3.5-3.9-2.1-13.1-7.5-13.1-7.5v-2.5z"/><path fill="#BCBEC0" d="M91.6 42.6s9.8 5.3 13.1 7c3.7 1.9 6.9 2.7 12.7 3.4 5.7.7 11.9 1.3 11.9 1.3v.6s-5.8-.6-11.9-1.2c-6.1-.6-8.3-.8-12.7-2.8-3.9-1.8-13.1-6-13.1-6v-2.3z"/><path fill="#BCBEC0" d="M91.6 47.6s7.7 3.3 13.2 5.5c5.4 2.1 9.4 2.3 12.7 2.7 1.4.2 11.9 1.2 11.9 1.2v.6s-6.2-.5-11.9-1-8.1-.7-12.7-2.2c-4.6-1.5-13.2-4.5-13.2-4.5v-2.3zM91.6 52.6s7.8 2.4 13.2 3.8c5.3 1.4 10.2 2 12.7 2.1 2.5.2 11.9.9 11.9.9v.6s-5.4-.4-11.9-.8c-5.3-.4-9.6-.8-12.7-1.5-3.5-.8-13.1-3.1-13.1-3.1v-2zM91.6 57.7s6.4 1.1 13.2 2.2c5.1.8 11.9 1.4 12.7 1.4.7 0 11.9.8 11.9.8v.6s-7.2-.4-11.9-.6c-5-.3-9.9-.6-12.7-.9-6.3-.7-13.1-1.5-13.1-1.5v-2zM91.6 62.8s10.1.4 13.2.4c3.1.1 24.6.9 24.6.9v.6H91.6v-1.9zM117.4 33.9c-9.1-2-11.2-5.3-12.7-7.4-1.5-2.1-13.1-19-13.1-19v3.8c.5.6 10.3 13.5 13.1 17.1 3.1 4 8 4.9 12.7 5.9 4.7 1 11.9 2.4 11.9 2.4v-.5c.1.1-9.5-1.8-11.9-2.3"/><path fill="#BCBEC0" d="M117.4 36.5c-7.5-1.5-10.5-3.8-12.7-6.7-2.2-2.9-13.1-17.2-13.1-17.2v3.6c.5.5 10.4 12.4 13.1 15.4 3.1 3.6 7.5 4.5 12.7 5.5 5.3 1 11.9 2.2 11.9 2.2v-.5c.1 0-7.6-1.4-11.9-2.3"/><path fill="#BCBEC0" d="M117.4 39.3c-7.8-1.5-9.4-2.8-12.7-6.4-2.1-2.3-12.7-14.8-13.1-15.3V21s9.9 10.6 13.1 13.7c4.2 4.1 8.1 4.4 12.7 5.2 4.6.8 11.9 2.2 11.9 2.2v-.6c.1 0-8.8-1.6-11.9-2.2"/><path fill="#0D4F9E" d="M28.8 28.4h54.4v36.4H28.8z"/><path fill="#FAEA27" d="M56.6 33.6h1.9L57 34.7l.6 1.9-1.5-1.1-1.5 1.1.6-1.9-1.6-1.1h1.9l.6-1.9zM56.7 57.8h1.9L57.1 59l.6 1.8-1.5-1.1-1.6 1.1.6-1.8-1.5-1.2h1.9l.6-1.7zM62.7 56.2h1.9l-1.5 1.2.6 1.8-1.5-1.1-1.6 1.1.6-1.8-1.5-1.2h1.9l.6-1.7zM62.7 35.2h1.9l-1.5 1.1.6 1.8-1.5-1.1-1.6 1.1.6-1.8-1.5-1.1h1.9l.6-1.8zM67.2 39.6h1.9l-1.6 1.2.6 1.8-1.5-1.1-1.5 1.1.6-1.8-1.5-1.2H66l.6-1.7zM67.2 51.8h1.9L67.5 53l.6 1.8-1.5-1.1-1.5 1.1.6-1.8-1.5-1.2H66l.6-1.7zM68.9 45.6h1.9l-1.6 1.2.6 1.8-1.5-1.1-1.5 1.1.6-1.8-1.6-1.2h1.9l.6-1.7zM50.5 35.2h1.9l-1.5 1.1.6 1.9L50 37l-1.6 1.2.6-1.9-1.5-1.1h1.9l.6-1.8zM46.2 39.7h1.9l-1.5 1.1.5 1.8-1.5-1.1-1.5 1.1.6-1.8-1.5-1.1h1.9l.5-1.8zM44.6 45.7h1.9l-1.6 1.1.6 1.8-1.5-1.1-1.5 1.1.6-1.8-1.5-1.1h1.8l.6-1.8zM46.2 51.9h1.9L46.6 53l.5 1.8-1.5-1.1-1.5 1.1.6-1.8-1.5-1.1h1.9l.5-1.8zM50.6 56.3h1.9L51 57.4l.5 1.8-1.5-1.1-1.5 1.1.6-1.8-1.5-1.1h1.9l.5-1.8z"/></svg>