<?xml version="1.0" encoding="UTF-8" standalone="no"?>
<svg width="232px" height="71px" viewBox="0 0 232 71" version="1.1" xmlns="http://www.w3.org/2000/svg" xmlns:xlink="http://www.w3.org/1999/xlink">
    <!-- Generator: Sketch 3.8.3 (29802) - http://www.bohemiancoding.com/sketch -->
    <title>logo--et</title>
    <desc>Created with Sketch.</desc>
    <defs></defs>
    <g id="Page-1" stroke="none" stroke-width="1" fill="none" fill-rule="evenodd">
        <g id="logo--et">
            <g id="Group">
                <g id="Page-1">
                    <g id="Version-2-menu">
                        <g id="Site-header">
                            <g id="logo-copy">
                                <g id="Group-20">
                                    <g id="Group-18-Copy">
                                        <path d="M0,24.5 C0,24.5 39.8,19.3 41,19.1 C42.7,18.8 44.3,18.5 45.7,18.1 C48.9,17.2 51.9,15.9 54.5,14.1 C57,12.4 59.4,9.9 61.7,7.2 C63.2,5.5 64.7,3.2 66.2,1 L66.2,0 C64.5,2.6 62.8,4.8 61.1,6.7 C58.8,9.3 56.4,11.4 53.9,13 C51.4,14.6 48.5,15.9 45.4,16.7 C44,17.1 42.5,17.3 40.8,17.6 C39.7,17.8 38.6,17.9 37.5,18 C37,18 0,21.9 0,21.9 L0,24.5 L0,24.5 Z" id="Fill-40" fill="#BBBDBF"></path>
                                        <path d="M53.4,17.8 C50.9,19.2 48,20.3 44.8,20.9 C43.4,21.2 42,21.4 40.3,21.6 C39.3,21.7 38.3,21.8 37.3,21.9 C36.8,21.9 36.2,22 35.7,22 C23.5,23.2 11.4,24.3 0,25.4 L0,28 C11.4,26.6 23.7,25.1 35.9,23.7 C36.4,23.6 37,23.6 37.5,23.5 C38.5,23.4 39.5,23.3 40.5,23.1 C42.2,22.9 43.8,22.6 45.1,22.3 C48.4,21.6 51.4,20.4 54,18.8 C56.6,17.2 58.8,15.1 61.3,12.4 C62.8,10.7 64.5,8.4 66.1,6.2 L66.1,5.2 C64.2,7.7 62.5,9.9 60.7,11.7 C58.3,14.4 55.9,16.4 53.4,17.8" id="Fill-41" fill="#BBBDBF"></path>
                                        <path d="M60.4,17.2 C58,19.4 55.4,21.2 52.9,22.5 C50.4,23.7 47.6,24.6 44.3,25.1 C42.9,25.3 41.5,25.5 39.8,25.7 L0,28.9 L0,31.5 L35.3,27.7 L39.9,27.2 C41.6,27 43.1,26.8 44.5,26.5 C47.9,25.9 50.8,24.9 53.4,23.6 C56.1,22.2 58.7,20 61.2,17.6 C62.9,16 64.4,13.9 66.1,11.8 L66.1,10.9 C64.1,13.4 62.3,15.4 60.4,17.2" id="Fill-42" fill="#BBBDBF"></path>
                                        <path d="M50.8,30.6 C48.5,31.9 46.8,32.7 43.5,33 C41.5,33.2 39.5,33.3 37.5,33.4 C36.5,33.4 35.6,33.5 34.6,33.6 C28.6,33.9 22.7,34.3 16.7,34.7 L0,35.9 L0,38.5 L16.8,36.9 C22.2,36.4 28.5,35.8 34.7,35.3 L39.2,35 C40.9,34.9 42.4,34.7 43.7,34.5 C47.1,34.1 50,33.4 52.6,32.4 C55.4,31.4 58,29.7 60.6,27.8 C63,26.1 66.2,22.7 66.2,22.6 L66.2,21.7 C64.1,23.8 62.8,25 60.5,26.5 C57.6,28.5 52.9,29.5 50.8,30.6" id="Fill-43" fill="#BBBDBF"></path>
                                        <path d="M51.6,35.6 C49.1,36.3 46.3,36.8 43,37.1 C41.7,37.2 40.2,37.3 38.6,37.4 L34.2,37.6 C23.2,38.1 12.2,38.7 0.1,39.3 L0.1,41.9 C11.7,41 23,40.1 34.4,39.3 L38.8,39 C40.5,38.9 41.9,38.8 43.3,38.6 C46.7,38.2 49.6,37.6 52.1,36.8 C54.9,35.9 57.7,34.6 60.3,32.9 C62.2,31.7 64.2,30.2 66.2,28.4 L66.2,28.4 C64,30.3 61.9,30.7 59.8,32 C57.1,33.6 54.4,34.8 51.6,35.6" id="Fill-44" fill="#BBBDBF"></path>
                                        <path d="M51.2,39.9 C48.7,40.5 45.9,40.9 42.6,41.1 C41.3,41.2 39.9,41.3 38.2,41.3 L33.8,41.5 C22.7,41.9 11.5,42.4 0,42.9 L0,45.5 C11.4,44.7 22.6,44 33.9,43.2 L38.3,42.9 C40,42.8 41.4,42.7 42.7,42.6 C46.1,42.3 48.9,41.8 51.5,41.1 C54.4,40.3 57.2,39.2 59.9,37.8 C62,36.7 64,35.4 66.1,33.8 L66.1,32.7 C63.8,34.4 61.6,35.7 59.4,36.8 C56.8,38.2 54,39.2 51.2,39.9" id="Fill-45" fill="#BBBDBF"></path>
                                        <path d="M50.8,44.1 C48.3,44.6 45.5,44.9 42.2,45 C40.9,45.1 39.6,45.1 37.9,45.2 L0,46.2 L0,48.8 L33.6,47 L38,46.8 C39.7,46.7 41.1,46.6 42.4,46.5 C45.8,46.2 48.5,45.9 51.1,45.3 C54,44.7 56.9,43.8 59.6,42.6 C61.8,41.7 63.9,40.6 66.2,39.2 L66.2,38.2 C63.8,39.6 61.5,40.7 59.2,41.6 C56.5,42.8 53.7,43.6 50.8,44.1" id="Fill-46" fill="#BBBDBF"></path>
                                        <path d="M50.5,48.3 C45.8,48.9 41.1,49 36.4,49.1 C35.3,49.1 34.3,49.1 33.2,49.2 L0,49.8 L0,52.4 L33.3,51 C34.4,51 35.4,50.9 36.5,50.9 C41.2,50.7 46,50.5 50.7,49.8 C53.7,49.3 56.6,48.6 59.2,47.7 C61.4,47 63.7,46 66,44.8 L66,43.8 C63.6,44.9 61.1,45.9 58.8,46.6 C56.3,47.3 53.5,48 50.5,48.3" id="Fill-47" fill="#BBBDBF"></path>
                                        <path d="M50.3,52.6 C45.9,53 41.5,53 37.1,53 L33.1,53 C22.1,53 11.1,53.1 0,53.2 L0,55.8 C10.6,55.4 21.9,55.1 33.2,54.7 C34.5,54.7 35.9,54.6 37.2,54.6 C41.5,54.5 46,54.4 50.4,53.9 C53.5,53.6 56.3,53.1 59,52.4 C61.3,51.8 63.7,51 66.2,50.1 L66.2,49.2 C63.7,50.1 61.2,50.8 58.8,51.4 C56.1,52 53.3,52.4 50.3,52.6" id="Fill-48" fill="#BBBDBF"></path>
                                        <path d="M50.1,56.8 C48.3,56.9 46.3,56.9 44.1,56.9 L41.6,56.9 L33,56.8 C27.1,56.8 21.3,56.7 15.8,56.7 L0,56.8 L0,59.4 L15.9,59 C21.4,58.9 27.2,58.7 33,58.6 L41.6,58.5 C44,58.5 47.1,58.4 50.2,58.2 C53.3,58 56.1,57.7 58.8,57.3 C61.2,56.9 63.7,56.4 66.2,55.8 L66.2,54.9 C63.7,55.5 61.1,56 58.7,56.3 C55.9,56.5 53.2,56.7 50.1,56.8" id="Fill-49" fill="#BBBDBF"></path>
                                        <path d="M41.5,60.9 L32.9,60.8 C22,60.6 11.1,60.4 0,60.2 L0,62.8 C10.6,62.7 21.8,62.6 32.9,62.5 L41.5,62.4 C44.4,62.4 47.2,62.3 50.1,62.2 C56,62 61.2,61.6 66.2,60.9 L66.2,60 C61.3,60.5 56,60.8 50.1,60.9 L41.5,60.9" id="Fill-50" fill="#BBBDBF"></path>
                                        <polygon id="Fill-51" fill="#BBBDBF" points="66.1 65.5 0 63.8 0 66.4 66.1 66.4"></polygon>
                                        <path d="M60.2,22 C57.7,24 55.7,25.5 52.7,26.7 C50,27.8 47.1,28.2 43.9,28.7 C41.8,29 39.6,29.4 37.5,29.6 C36.6,29.7 35.8,29.7 34.9,29.8 L0,32.3 L0,34.9 L34.9,31.5 L39.4,31.1 C41.1,30.9 42.6,30.8 44,30.5 C47.4,30 50.3,29.1 52.9,27.9 C55.6,26.7 58.4,24.7 60.9,22.6 C62.6,21.1 64.3,19.3 66.1,17.3 L66.1,16.4 C63.9,18.6 62.1,20.5 60.2,22" id="Fill-52" fill="#BBBDBF"></path>
                                        <path d="M94.2,0 C94.2,0 106.1,18.9 108.3,22.4 C110.5,25.9 113,28.6 121.8,30.5 C130.6,32.4 134.4,33.2 134.4,33.2 L134.4,33.9 C134.4,33.9 128.8,32.7 121.6,31.1 C114.4,29.5 111.5,29 108.2,24.4 C105.5,20.6 94.2,4.5 94.2,4.5 L94.2,0 L94.2,0 Z" id="Fill-53" fill="#BBBDBF"></path>
                                        <path d="M94.2,21.6 C94.2,21.6 105,32.9 108.2,36.2 C111.5,39.7 115.8,40.9 121.7,42 C127.3,43 134.4,44.2 134.4,44.2 L134.4,44.8 C134.4,44.8 127.7,43.7 121.7,42.7 C115.8,41.7 111.6,41.1 108.2,38 C105.2,35.2 94.3,25 94.3,25 L94.2,21.6 L94.2,21.6 L94.2,21.6 Z" id="Fill-54" fill="#BBBDBF"></path>
                                        <path d="M94.2,26.8 C94.2,26.8 104.5,36.4 108.2,39.6 C111.6,42.6 114.3,43.5 121.7,44.9 C129.1,46.2 134.4,47 134.4,47 L134.4,47.7 C134.4,47.7 127.7,46.6 121.7,45.6 C115.7,44.6 111.8,44.3 108.2,41.3 C104,37.9 94.2,29.9 94.2,29.9 L94.2,26.8 L94.2,26.8 Z" id="Fill-55" fill="#BBBDBF"></path>
                                        <path d="M94.2,32.2 C94.2,32.2 106,41.5 108.2,43.2 C110.4,44.8 113.3,46.7 121.7,48 C130.1,49.2 134.4,49.8 134.4,49.8 L134.4,50.5 C134.4,50.5 126.8,49.4 121.7,48.8 C116.6,48.2 112.7,47.9 108.2,44.9 C103.8,42 94.2,35.2 94.2,35.2 L94.2,32.2 L94.2,32.2 Z" id="Fill-56" fill="#BBBDBF"></path>
                                        <path d="M94.2,37.4 C94.2,37.4 106,45.3 108.2,46.5 C110.4,47.7 113.1,49.8 121.7,50.9 C130.3,52 134.4,52.5 134.4,52.5 L134.4,53.2 C134.4,53.2 127.3,52.4 121.7,51.8 C116.1,51.2 112.3,50.4 108.2,48.1 C104.1,45.8 94.2,40.1 94.2,40.1 L94.2,37.4 L94.2,37.4 Z" id="Fill-57" fill="#BBBDBF"></path>
                                        <path d="M94.2,42.7 C94.2,42.7 104.6,48.4 108.2,50.1 C112.1,52.1 115.5,53 121.7,53.8 C127.8,54.5 134.4,55.2 134.4,55.2 L134.4,55.8 C134.4,55.8 128.3,55.1 121.7,54.5 C115.2,53.9 112.9,53.6 108.2,51.5 C104,49.6 94.2,45.1 94.2,45.1 L94.2,42.7 L94.2,42.7 Z" id="Fill-58" fill="#BBBDBF"></path>
                                        <path d="M94.2,48 C94.2,48 102.4,51.5 108.2,53.8 C113.9,56.1 118.2,56.3 121.7,56.6 C123.2,56.8 134.3,57.9 134.3,57.9 L134.3,58.5 C134.3,58.5 127.7,58 121.6,57.4 C115.6,56.9 113,56.6 108.1,55 C103.2,53.4 94.1,50.2 94.1,50.2 L94.2,48 L94.2,48 L94.2,48 Z" id="Fill-59" fill="#BBBDBF"></path>
                                        <path d="M94.2,53.4 C94.2,53.4 102.5,56 108.2,57.5 C113.9,59 119.1,59.6 121.7,59.8 C124.3,60 134.4,60.8 134.4,60.8 L134.4,61.4 C134.4,61.4 128.7,61 121.7,60.5 C116,60.1 111.5,59.7 108.2,58.9 C104.5,58.1 94.2,55.6 94.2,55.6 L94.2,53.4 L94.2,53.4 Z" id="Fill-60" fill="#BBBDBF"></path>
                                        <path d="M94.2,58.7 C94.2,58.7 101,59.9 108.2,61.1 C113.6,62 120.9,62.6 121.7,62.6 C122.5,62.6 134.4,63.5 134.4,63.5 L134.4,64.1 C134.4,64.1 126.8,63.7 121.7,63.4 C116.4,63.1 111.2,62.8 108.2,62.5 C101.5,61.8 94.2,60.9 94.2,60.9 L94.2,58.7 L94.2,58.7 Z" id="Fill-61" fill="#BBBDBF"></path>
                                        <path d="M94.2,64.3 C94.2,64.3 104.9,64.7 108.2,64.8 C111.5,64.9 134.4,65.8 134.4,65.8 L134.4,66.4 L94.2,66.4 L94.2,64.3 L94.2,64.3 Z" id="Fill-62" fill="#BBBDBF"></path>
                                        <path d="M121.7,33.4 C112,31.3 109.8,27.8 108.2,25.6 C106.6,23.4 94.3,5.4 94.3,5.4 L94.3,9.5 C94.8,10.1 105.3,23.9 108.3,27.7 C111.6,32 116.8,33 121.8,34 C126.8,35.1 134.5,36.6 134.5,36.6 L134.5,36 C134.4,36 124.2,34 121.7,33.4" id="Fill-63" fill="#BBBDBF"></path>
                                        <path d="M121.7,36.3 C113.7,34.7 110.5,32.2 108.2,29.2 C105.9,26.1 94.3,10.9 94.3,10.9 L94.3,14.7 C94.8,15.3 105.4,27.8 108.2,31.1 C111.5,34.9 116.1,35.9 121.7,36.9 C127.3,37.9 134.4,39.3 134.4,39.3 L134.4,38.7 C134.4,38.7 126.3,37.2 121.7,36.3" id="Fill-64" fill="#BBBDBF"></path>
                                        <path d="M121.7,39.2 C113.4,37.6 111.7,36.3 108.2,32.4 C106,30 94.7,16.7 94.2,16.1 L94.2,19.6 C94.2,19.6 104.7,30.8 108.1,34.2 C112.5,38.6 116.7,38.9 121.6,39.8 C126.5,40.7 134.3,42.1 134.3,42.1 L134.3,41.5 C134.4,41.5 125,39.9 121.7,39.2" id="Fill-65" fill="#BBBDBF"></path>
                                        <polygon id="Fill-66" fill="#034DA1" points="85.4 27.6 27.5 27.6 27.5 66.3 85.4 66.3"></polygon>
                                        <polygon id="Fill-67" fill="#FFF100" points="57.1 33.1 59.1 33.1 57.5 34.4 58.1 36.4 56.5 35.2 54.9 36.4 55.5 34.4 53.9 33.1 55.9 33.1 56.5 31.1"></polygon>
                                        <polygon id="Fill-68" fill="#FFF100" points="57.1 58.9 59.1 58.9 57.5 60.1 58.1 62 56.5 60.8 54.9 62 55.5 60.1 53.9 58.9 55.9 58.9 56.5 57"></polygon>
                                        <polygon id="Fill-69" fill="#FFF100" points="63.5 57.2 65.5 57.2 63.9 58.4 64.5 60.3 62.9 59.1 61.3 60.3 61.9 58.4 60.3 57.2 62.3 57.2 62.9 55.3"></polygon>
                                        <polygon id="Fill-70" fill="#FFF100" points="63.5 34.8 65.5 34.8 63.9 36 64.5 37.9 62.9 36.7 61.3 38 62 36 60.4 34.8 62.4 34.8 63 32.9"></polygon>
                                        <polygon id="Fill-71" fill="#FFF100" points="68.3 39.6 70.3 39.6 68.7 40.8 69.3 42.7 67.7 41.5 66.1 42.7 66.7 40.8 65.1 39.6 67.1 39.6 67.7 37.7"></polygon>
                                        <polygon id="Fill-72" fill="#FFF100" points="68.3 52.6 70.3 52.6 68.7 53.8 69.3 55.7 67.7 54.5 66.1 55.7 66.7 53.8 65.1 52.6 67.1 52.6 67.7 50.7"></polygon>
                                        <polygon id="Fill-73" fill="#FFF100" points="70.1 46 72.1 46 70.5 47.2 71.1 49.1 69.5 47.9 67.9 49.1 68.5 47.2 66.8 46 68.8 46 69.4 44.1"></polygon>
                                        <polygon id="Fill-74" fill="#FFF100" points="50.5 34.8 52.5 34.8 50.9 36 51.5 37.9 50 36.8 48.3 38 48.9 36.1 47.3 34.9 49.3 34.9 50 33"></polygon>
                                        <polygon id="Fill-75" fill="#FFF100" points="45.9 39.6 47.9 39.6 46.3 40.8 46.9 42.7 45.3 41.5 43.7 42.7 44.3 40.8 42.7 39.6 44.7 39.6 45.3 37.7"></polygon>
                                        <polygon id="Fill-76" fill="#FFF100" points="44.2 46 46.2 46 44.6 47.2 45.2 49.1 43.6 47.9 42 49.1 42.6 47.2 41 46 43 46 43.6 44.1"></polygon>
                                        <polygon id="Fill-77" fill="#FFF100" points="45.9 52.6 47.9 52.6 46.3 53.8 46.9 55.7 45.3 54.5 43.7 55.7 44.3 53.8 42.7 52.6 44.7 52.6 45.3 50.7"></polygon>
                                        <polygon id="Fill-78" fill="#FFF100" points="50.6 57.3 52.6 57.3 51 58.5 51.6 60.4 50 59.2 48.4 60.4 49 58.5 47.4 57.3 49.4 57.3 50 55.4"></polygon>
                                    </g>
                                </g>
                            </g>
                        </g>
                    </g>
                </g>
                <g transform="translate(143.000000, 32.000000)" id="Shape" fill="#626366">
                    <path d="M0.4,1.1 C0.4,0.8 0.5,0.7 0.8,0.7 L8.2,0.7 C8.5,0.7 8.6,0.8 8.6,1.1 L8.6,2.3 C8.6,2.5 8.5,2.7 8.2,2.7 L2.7,2.7 L2.7,6.2 L7.6,6.2 C7.9,6.2 8,6.3 8,6.6 L8,7.8 C8,8 7.9,8.2 7.6,8.2 L2.7,8.2 L2.7,12.2 L8.3,12.2 C8.5,12.2 8.7,12.3 8.7,12.6 L8.7,13.8 C8.7,14 8.6,14.2 8.3,14.2 L0.8,14.2 C0.5,14.2 0.4,14.1 0.4,13.8 L0.4,1.1 L0.4,1.1 Z"></path>
                    <path d="M18.8,14.1 L17.4,14.1 C17.3,14.1 17.2,14.1 17.1,14 C17,13.9 17,13.8 17,13.7 L17,13 L17,13 C16.8,13.1 16.6,13.3 16.3,13.4 C16,13.5 15.8,13.7 15.5,13.8 C15.2,13.9 14.9,14 14.6,14.1 C14.3,14.2 14,14.2 13.7,14.2 C13,14.2 12.5,14.1 12.1,13.9 C11.7,13.7 11.4,13.5 11.2,13.1 C11,12.8 10.9,12.4 10.8,11.9 C10.7,11.4 10.7,11 10.7,10.4 L10.7,4.5 C10.7,4.2 10.8,4.1 11.1,4.1 L12.6,4.1 C12.8,4.1 13,4.2 13,4.5 L13,10.1 C13,10.4 13,10.7 13.1,10.9 C13.1,11.1 13.2,11.3 13.3,11.5 C13.4,11.7 13.6,11.8 13.7,11.9 C13.8,12 14.1,12 14.4,12 C14.6,12 14.8,12 15.1,11.9 C15.4,11.8 15.6,11.7 15.9,11.6 C16.2,11.5 16.4,11.4 16.6,11.3 C16.8,11.2 17,11.1 17.1,11 L17.1,4.3 C17.1,4.2 17.1,4.1 17.2,4 C17.3,3.9 17.4,3.9 17.5,3.9 L18.9,3.9 C19.2,3.9 19.3,4 19.3,4.3 L19.3,13.4 C19.2,13.9 19.1,14.1 18.8,14.1 L18.8,14.1 Z"></path>
                    <path d="M23.9,13.7 C23.9,14 23.8,14.1 23.5,14.1 L22,14.1 C21.7,14.1 21.6,14 21.6,13.7 L21.6,4.6 C21.6,4.3 21.7,4.2 22,4.2 L23.4,4.2 C23.7,4.2 23.8,4.3 23.8,4.6 L23.8,5.5 L23.8,5.5 C23.9,5.4 24.1,5.2 24.4,5.1 C24.6,4.9 24.9,4.8 25.2,4.7 C25.5,4.6 25.8,4.5 26,4.3 C26.3,4.2 26.5,4.1 26.8,4.1 L27.1,4.1 C27.2,4.1 27.2,4.2 27.3,4.4 L27.4,5.7 L27.4,6 C27.4,6.1 27.3,6.1 27,6.2 C26.7,6.3 26.4,6.3 26.1,6.4 C25.8,6.5 25.5,6.6 25.2,6.6 C24.9,6.7 24.6,6.8 24.4,6.9 C24.1,7 23.9,7.1 23.8,7.1 L23.8,13.7 L23.9,13.7 Z"></path>
                    <path d="M37.2,9 C37.2,9.6 37.2,10.2 37.1,10.8 C37,11.4 36.8,12 36.5,12.5 C36.2,13 35.8,13.4 35.2,13.8 C34.6,14.1 33.8,14.3 32.8,14.3 C31.8,14.3 31,14.1 30.4,13.8 C29.8,13.5 29.4,13.1 29.1,12.5 C28.8,12 28.6,11.4 28.6,10.8 C28.5,10.2 28.5,9.6 28.5,9 C28.5,8.5 28.5,8 28.6,7.4 C28.7,6.8 28.9,6.3 29.2,5.8 C29.5,5.3 29.9,4.9 30.5,4.5 C31.1,4.2 31.8,4 32.8,4 C33.8,4 34.6,4.1 35.1,4.4 C35.7,4.7 36.1,5.1 36.4,5.6 C36.7,6.1 36.9,6.6 37,7.2 C37.1,7.8 37.2,8.4 37.2,9 L37.2,9 Z M34.9,9.1 C34.9,8.6 34.9,8.1 34.8,7.7 C34.7,7.3 34.6,7 34.5,6.7 C34.3,6.4 34.1,6.2 33.8,6.1 C33.5,6 33.2,5.9 32.7,5.9 C32.3,5.9 31.9,6 31.7,6.1 C31.5,6.2 31.2,6.4 31.1,6.7 C30.9,7 30.8,7.3 30.8,7.7 C30.7,8.1 30.7,8.6 30.7,9.1 C30.7,9.6 30.7,10.1 30.8,10.5 C30.9,10.9 31,11.2 31.1,11.5 C31.2,11.8 31.5,12 31.7,12.1 C31.9,12.2 32.3,12.3 32.7,12.3 C33.2,12.3 33.5,12.2 33.8,12.1 C34.1,12 34.3,11.8 34.5,11.5 C34.7,11.2 34.8,10.9 34.8,10.5 C34.9,10.1 34.9,9.7 34.9,9.1 L34.9,9.1 Z"></path>
                    <path d="M47.6,9 C47.6,9.6 47.6,10.2 47.5,10.8 C47.4,11.4 47.2,12 46.9,12.5 C46.6,13 46.2,13.4 45.6,13.8 C45,14.1 44.2,14.3 43.2,14.3 C42.2,14.3 41.4,14.1 40.8,13.8 C40.2,13.5 39.8,13.1 39.5,12.5 C39.2,12 39,11.4 39,10.8 C38.9,10.2 38.9,9.6 38.9,9 C38.9,8.5 38.9,8 39,7.4 C39.1,6.8 39.3,6.3 39.6,5.8 C39.9,5.3 40.3,4.9 40.9,4.5 C41.5,4.2 42.2,4 43.2,4 C44.2,4 45,4.1 45.5,4.4 C46.1,4.7 46.5,5.1 46.8,5.6 C47.1,6.1 47.3,6.6 47.4,7.2 C47.6,7.8 47.6,8.4 47.6,9 L47.6,9 Z M45.4,9.1 C45.4,8.6 45.4,8.1 45.3,7.7 C45.2,7.3 45.1,7 45,6.7 C44.8,6.4 44.6,6.2 44.3,6.1 C44,6 43.7,5.9 43.2,5.9 C42.8,5.9 42.4,6 42.2,6.1 C42,6.2 41.7,6.4 41.6,6.7 C41.4,7 41.3,7.3 41.3,7.7 C41.2,8.1 41.2,8.6 41.2,9.1 C41.2,9.6 41.2,10.1 41.3,10.5 C41.4,10.9 41.5,11.2 41.6,11.5 C41.7,11.8 42,12 42.2,12.1 C42.4,12.2 42.8,12.3 43.2,12.3 C43.7,12.3 44,12.2 44.3,12.1 C44.6,12 44.8,11.8 45,11.5 C45.2,11.2 45.3,10.9 45.3,10.5 C45.3,10.1 45.4,9.7 45.4,9.1 L45.4,9.1 Z"></path>
                    <path d="M58.3,9.1 C58.3,9.9 58.2,10.6 58.1,11.3 C58,11.9 57.8,12.5 57.5,12.9 C57.2,13.3 56.8,13.7 56.3,13.9 C55.8,14.1 55.1,14.2 54.3,14.2 C54,14.2 53.6,14.2 53.1,14.1 C52.7,14 52.2,13.9 51.7,13.8 L51.7,13.8 L51.7,17.3 C51.7,17.4 51.7,17.5 51.6,17.6 C51.5,17.7 51.4,17.7 51.3,17.7 L50,17.7 C49.8,17.7 49.7,17.7 49.7,17.6 C49.7,17.5 49.6,17.4 49.6,17.3 L49.6,4.6 C49.6,4.3 49.7,4.2 50,4.2 L51.4,4.2 C51.5,4.2 51.6,4.2 51.7,4.3 C51.8,4.4 51.8,4.5 51.8,4.6 L51.8,5.2 L51.9,5.2 C52.1,5.1 52.3,5 52.5,4.8 C52.7,4.7 53,4.5 53.3,4.4 C53.6,4.3 53.9,4.2 54.2,4.1 C54.5,4 54.8,4 55.1,4 C55.8,4 56.3,4.1 56.7,4.4 C57.1,4.6 57.5,5 57.7,5.4 C57.9,5.8 58.1,6.4 58.2,7 C58.3,7.6 58.3,8.3 58.3,9.1 L58.3,9.1 Z M56,9.1 C56,8.5 56,7.9 55.9,7.6 C55.8,7.3 55.7,6.9 55.6,6.7 C55.5,6.5 55.3,6.3 55.1,6.3 C54.9,6.2 54.7,6.2 54.4,6.2 C54.2,6.2 54,6.2 53.7,6.3 C53.4,6.4 53.2,6.4 52.9,6.5 C52.7,6.6 52.4,6.7 52.2,6.8 C52,6.9 51.8,7 51.6,7.1 L51.6,12.1 C52.1,12.2 52.5,12.3 52.8,12.4 C53.1,12.5 53.5,12.5 53.9,12.5 C54.3,12.5 54.6,12.4 54.8,12.3 C55,12.2 55.2,12 55.4,11.8 C55.6,11.5 55.7,11.2 55.7,10.8 C56,10.2 56,9.7 56,9.1 L56,9.1 Z"></path>
                    <path d="M66.3,12.9 C65.8,13.3 65.2,13.6 64.6,13.8 C64,14 63.3,14.2 62.6,14.2 C62.1,14.2 61.6,14.1 61.3,14 C60.9,13.9 60.7,13.7 60.5,13.4 C60.3,13.2 60.1,12.9 60.1,12.5 C60,12.2 60,11.8 60,11.3 C60,10.1 60.3,9.3 60.9,8.7 C61.5,8.2 62.5,7.9 63.7,7.9 L66.3,7.9 L66.3,7.4 C66.3,7.1 66.3,6.9 66.2,6.6 C66.1,6.4 66,6.2 65.9,6.1 C65.7,6 65.5,5.9 65.3,5.8 C65,5.7 64.7,5.7 64.3,5.7 L63.7,5.7 L63,5.7 C62.8,5.7 62.5,5.7 62.3,5.8 C62.1,5.8 61.8,5.8 61.6,5.9 L61.2,5.9 C61.1,5.9 61.1,5.8 61,5.6 L60.8,4.9 L60.8,4.6 C60.8,4.5 61,4.4 61.2,4.3 C61.4,4.2 61.7,4.2 62,4.1 C62.3,4 62.6,4 62.9,4 C63.2,4 63.5,3.9 63.8,3.9 L64.6,3.9 C65.5,3.9 66.2,4 66.7,4.2 C67.2,4.4 67.6,4.6 67.9,4.9 C68.2,5.2 68.3,5.6 68.4,6.1 C68.5,6.6 68.5,7.1 68.5,7.6 L68.5,11.5 L68.5,12 C68.5,12.1 68.6,12.2 68.6,12.3 C68.6,12.4 68.7,12.4 68.8,12.4 C68.9,12.4 69,12.4 69.2,12.5 C69.3,12.5 69.4,12.5 69.5,12.6 C69.6,12.7 69.6,12.7 69.6,12.8 L69.6,13.6 C69.6,13.8 69.4,14 69.1,14 C68.9,14 68.8,14 68.6,14.1 L68.1,14.1 C67.6,14.1 67.3,14 67,13.8 C66.6,13.7 66.4,13.4 66.3,12.9 L66.3,12.9 L66.3,12.9 Z M66.2,9.6 L63.8,9.6 C63.3,9.6 62.9,9.7 62.6,10 C62.3,10.2 62.2,10.7 62.2,11.3 C62.2,11.7 62.3,12 62.5,12.2 C62.7,12.4 63,12.5 63.5,12.5 C63.7,12.5 63.9,12.5 64.2,12.4 C64.5,12.3 64.7,12.3 65,12.2 C65.3,12.1 65.5,12 65.7,11.9 C65.9,11.8 66.2,11.7 66.3,11.6 L66.3,9.6 L66.2,9.6 Z"></path>
                </g>
                <g transform="translate(143.000000, 52.000000)" id="Shape" fill="#626366">
                    <path d="M20.1,9.3 C20.1,9.9 20.1,10.5 20,11.1 C19.9,11.7 19.7,12.3 19.4,12.8 C19.1,13.3 18.7,13.7 18.1,14.1 C17.5,14.4 16.7,14.6 15.7,14.6 C14.7,14.6 13.9,14.4 13.3,14.1 C12.7,13.8 12.3,13.4 12,12.8 C11.7,12.3 11.5,11.7 11.5,11.1 C11.4,10.5 11.4,9.9 11.4,9.3 C11.4,8.8 11.4,8.3 11.5,7.7 C11.6,7.1 11.8,6.6 12.1,6.1 C12.4,5.6 12.8,5.2 13.4,4.8 C14,4.5 14.7,4.3 15.7,4.3 C16.7,4.3 17.5,4.4 18,4.7 C18.6,5 19,5.4 19.3,5.9 C19.6,6.4 19.8,6.9 19.9,7.5 C20,8.1 20.1,8.7 20.1,9.3 L20.1,9.3 Z M17.9,9.4 C17.9,8.9 17.9,8.4 17.8,8 C17.7,7.6 17.6,7.3 17.5,7 C17.3,6.7 17.1,6.5 16.8,6.4 C16.5,6.3 16.2,6.2 15.7,6.2 C15.3,6.2 14.9,6.3 14.7,6.4 C14.5,6.5 14.2,6.7 14.1,7 C13.9,7.3 13.8,7.6 13.8,8 C13.7,8.4 13.7,8.9 13.7,9.4 C13.7,9.9 13.7,10.4 13.8,10.8 C13.9,11.2 14,11.5 14.1,11.8 C14.2,12.1 14.5,12.3 14.7,12.4 C14.9,12.5 15.3,12.6 15.7,12.6 C16.2,12.6 16.5,12.5 16.8,12.4 C17.1,12.3 17.3,12.1 17.5,11.8 C17.7,11.5 17.8,11.2 17.8,10.8 C17.8,10.4 17.9,10 17.9,9.4 L17.9,9.4 Z"></path>
                    <path d="M36.4,14.3 C36.4,14.4 36.3,14.4 36.1,14.4 L34.7,14.4 C34.4,14.4 34.3,14.3 34.3,14 L34.3,8.3 C34.3,7.6 34.2,7 34,6.8 C33.8,6.5 33.4,6.4 32.9,6.4 C32.7,6.4 32.5,6.4 32.3,6.5 C32.1,6.6 31.8,6.6 31.6,6.7 C31.4,6.8 31.1,6.9 30.9,7 C30.7,7.1 30.5,7.2 30.3,7.3 L30.3,7.7 L30.3,8.3 L30.3,14 C30.3,14.1 30.3,14.2 30.2,14.3 C30.1,14.4 30,14.4 29.9,14.4 L28.4,14.4 C28.2,14.4 28.1,14.3 28.1,14 L28.1,8.2 C28.1,7.6 28,7.1 27.8,6.8 C27.6,6.5 27.3,6.4 26.8,6.4 C26.6,6.4 26.4,6.4 26.2,6.5 C26,6.6 25.8,6.6 25.5,6.7 C25.3,6.8 25,6.9 24.8,7 C24.6,7.1 24.4,7.2 24.2,7.3 L24.2,14 C24.2,14.3 24.1,14.4 23.8,14.4 L22.4,14.4 C22.2,14.4 22,14.3 22,14 L22,4.9 C22,4.6 22.1,4.5 22.4,4.5 L23.8,4.5 C24.1,4.5 24.2,4.6 24.2,4.9 L24.2,5.5 L24.2,5.5 C24.4,5.4 24.6,5.2 24.8,5.1 C25,5 25.3,4.8 25.5,4.7 C25.7,4.6 26,4.5 26.3,4.4 C26.6,4.3 26.8,4.3 27.1,4.3 C27.7,4.3 28.2,4.4 28.7,4.6 C29.2,4.8 29.6,5.2 29.9,5.7 C30.4,5.3 31,5 31.6,4.7 C32.2,4.4 32.8,4.3 33.5,4.3 C34.2,4.3 34.7,4.4 35.1,4.6 C35.5,4.8 35.8,5.1 36,5.4 C36.2,5.7 36.3,6.1 36.4,6.6 C36.5,7.1 36.5,7.5 36.5,8 L36.5,14 C36.4,14.1 36.4,14.2 36.4,14.3 L36.4,14.3 Z"></path>
                    <path d="M41.2,1.9 L41.2,2.4 C41.2,2.5 41.1,2.7 41,2.8 C40.9,2.9 40.8,3 40.6,3.1 C40.4,3.2 40.2,3.2 40,3.2 C39.7,3.2 39.5,3.2 39.4,3.1 C39.2,3 39.1,2.9 39,2.8 C38.9,2.7 38.9,2.6 38.8,2.4 L38.8,2 C38.8,1.7 38.9,1.4 39,1.2 C39.2,1 39.5,0.9 40,0.9 C40.5,0.9 40.8,1 41,1.2 C41.1,1.3 41.2,1.6 41.2,1.9 L41.2,1.9 Z M41.1,14 C41.1,14.1 41.1,14.2 41,14.3 C41,14.4 40.9,14.4 40.7,14.4 L39.3,14.4 C39,14.4 38.9,14.3 38.9,14 L38.9,4.9 C38.9,4.6 39,4.5 39.3,4.5 L40.7,4.5 C40.8,4.5 40.9,4.5 41,4.6 C41,4.7 41.1,4.8 41.1,4.9 L41.1,14 L41.1,14 Z"></path>
                    <path d="M50.9,11.4 C50.9,12 50.8,12.5 50.6,12.9 C50.4,13.3 50.1,13.6 49.7,13.9 C49.3,14.1 48.9,14.3 48.4,14.4 C47.9,14.5 47.4,14.6 46.9,14.6 C46.4,14.6 45.8,14.6 45.3,14.5 C44.7,14.4 44.2,14.3 43.8,14.2 C43.6,14.1 43.5,14 43.4,13.9 C43.3,13.8 43.3,13.7 43.4,13.5 L43.5,12.8 C43.5,12.6 43.6,12.5 43.7,12.5 L44.1,12.5 C44.3,12.5 44.6,12.6 44.8,12.6 C45.1,12.6 45.3,12.6 45.6,12.7 C45.9,12.7 46.1,12.7 46.3,12.8 C46.5,12.9 46.7,12.8 46.9,12.8 C47.5,12.8 48,12.7 48.3,12.5 C48.6,12.3 48.7,12 48.7,11.6 C48.7,11.4 48.7,11.2 48.6,11 C48.5,10.8 48.5,10.7 48.4,10.6 C48.3,10.5 48.1,10.4 47.9,10.4 C47.7,10.3 47.4,10.3 47.1,10.2 C46.6,10.1 46.1,10 45.7,9.9 C45.3,9.8 44.9,9.6 44.5,9.4 C44.2,9.2 43.9,8.9 43.7,8.6 C43.5,8.3 43.4,7.8 43.4,7.3 C43.4,6.3 43.7,5.6 44.4,5 C45.1,4.5 46,4.2 47.1,4.2 L47.8,4.2 C48.1,4.2 48.3,4.2 48.6,4.3 C48.9,4.4 49.1,4.4 49.4,4.4 C49.7,4.4 49.9,4.5 50.1,4.6 C50.4,4.7 50.6,4.9 50.5,5.2 L50.3,5.9 C50.3,6 50.2,6.1 50.1,6.2 L49.7,6.2 C49.3,6.1 48.8,6.1 48.3,6 C47.8,6 47.3,5.9 47,5.9 C46.4,5.9 45.9,6 45.7,6.2 C45.5,6.4 45.4,6.7 45.4,7.1 C45.4,7.5 45.5,7.7 45.8,7.9 C46.1,8.1 46.5,8.1 47.1,8.2 C47.6,8.3 48,8.4 48.5,8.5 C48.9,8.6 49.3,8.8 49.7,9 C50.1,9.2 50.3,9.5 50.5,9.9 C50.8,10.3 50.9,10.8 50.9,11.4 L50.9,11.4 Z"></path>
                    <path d="M55.6,14.6 C55.6,15.3 55.5,15.8 55.4,16.3 C55.3,16.8 55,17.2 54.6,17.6 C54.2,17.9 53.8,18.2 53.2,18.4 C52.6,18.6 51.9,18.6 51.1,18.6 C51,18.6 50.9,18.6 50.8,18.5 C50.7,18.4 50.6,18.3 50.6,18.2 L50.5,17.3 L50.5,17 C50.5,16.9 50.6,16.9 50.8,16.9 C51.3,16.8 51.7,16.7 52,16.6 C52.3,16.5 52.6,16.4 52.8,16.2 C53,16 53.1,15.9 53.2,15.6 C53.3,15.4 53.3,15.1 53.3,14.7 L53.3,5 C53.3,4.7 53.4,4.6 53.7,4.6 L55.1,4.6 C55.4,4.6 55.5,4.7 55.5,5 L55.5,14.6 L55.6,14.6 Z M55.6,1.9 L55.6,2.4 C55.6,2.5 55.5,2.7 55.4,2.8 C55.3,2.9 55.2,3 55,3.1 C54.8,3.2 54.6,3.2 54.4,3.2 C54.1,3.2 53.9,3.2 53.8,3.1 C53.6,3 53.5,2.9 53.4,2.8 C53.3,2.7 53.3,2.6 53.2,2.4 C53.1,2.2 53.2,2.1 53.2,2 C53.2,1.7 53.3,1.4 53.4,1.2 C53.5,1 53.9,0.9 54.4,0.9 C54.9,0.9 55.2,1 55.4,1.2 C55.6,1.3 55.6,1.6 55.6,1.9 L55.6,1.9 Z"></path>
                    <path d="M66.6,9.3 C66.6,9.9 66.6,10.5 66.5,11.1 C66.4,11.7 66.2,12.3 65.9,12.8 C65.6,13.3 65.2,13.7 64.6,14.1 C64,14.4 63.2,14.6 62.2,14.6 C61.2,14.6 60.4,14.4 59.8,14.1 C59.2,13.8 58.8,13.4 58.5,12.8 C58.2,12.3 58,11.7 58,11.1 C57.9,10.5 57.9,9.9 57.9,9.3 C57.9,8.8 57.9,8.3 58,7.7 C58.1,7.1 58.3,6.6 58.6,6.1 C58.9,5.6 59.3,5.2 59.9,4.8 C60.5,4.5 61.2,4.3 62.2,4.3 C63.2,4.3 64,4.4 64.5,4.7 C65.1,5 65.5,5.4 65.8,5.9 C66.1,6.4 66.3,6.9 66.4,7.5 C66.5,8.1 66.6,8.7 66.6,9.3 L66.6,9.3 Z M64.3,9.4 C64.3,8.9 64.3,8.4 64.2,8 C64.1,7.6 64,7.3 63.9,7 C63.7,6.7 63.5,6.5 63.2,6.4 C62.9,6.3 62.6,6.2 62.1,6.2 C61.7,6.2 61.3,6.3 61.1,6.4 C60.9,6.5 60.6,6.7 60.5,7 C60.3,7.3 60.2,7.6 60.2,8 C60.1,8.4 60.1,8.9 60.1,9.4 C60.1,9.9 60.1,10.4 60.2,10.8 C60.3,11.2 60.4,11.5 60.5,11.8 C60.6,12.1 60.9,12.3 61.1,12.4 C61.3,12.5 61.7,12.6 62.1,12.6 C62.6,12.6 62.9,12.5 63.2,12.4 C63.5,12.3 63.7,12.1 63.9,11.8 C64.1,11.5 64.2,11.2 64.2,10.8 C64.2,10.4 64.3,10 64.3,9.4 L64.3,9.4 Z"></path>
                    <path d="M77,14.3 C76.9,14.4 76.8,14.4 76.7,14.4 L75.2,14.4 C74.9,14.4 74.8,14.3 74.8,14 L74.8,8.4 C74.8,7.8 74.7,7.3 74.5,7 C74.3,6.6 73.9,6.5 73.3,6.5 C73.1,6.5 72.9,6.5 72.6,6.6 C72.3,6.7 72.1,6.8 71.8,6.9 C71.5,7 71.3,7.1 71.1,7.2 C70.9,7.3 70.7,7.4 70.6,7.5 L70.6,14 C70.6,14.3 70.5,14.4 70.2,14.4 L68.8,14.4 C68.5,14.4 68.4,14.3 68.4,14 L68.4,4.9 C68.4,4.6 68.5,4.5 68.8,4.5 L70.2,4.5 C70.5,4.5 70.6,4.6 70.6,4.9 L70.6,5.5 L70.6,5.5 L70.6,5.5 C70.8,5.4 71,5.2 71.3,5.1 C71.6,5 71.8,4.8 72.1,4.7 C72.4,4.6 72.7,4.5 73,4.4 C73.3,4.3 73.6,4.3 73.9,4.3 C74.6,4.3 75.1,4.4 75.5,4.6 C75.9,4.8 76.2,5.1 76.4,5.4 C76.6,5.7 76.7,6.2 76.8,6.6 C76.9,7.1 76.9,7.5 76.9,8.1 L76.9,14 C77.1,14.1 77,14.2 77,14.3 L77,14.3 Z"></path>
                    <path d="M2.6,7.4 L4.1,5.4 L7.5,1.2 C7.6,1.1 7.7,1 7.8,1 C7.9,1 8,0.9 8.2,0.9 L10,0.9 C10.1,0.9 10.2,0.9 10.3,1 C10.3,1.1 10.3,1.2 10.2,1.3 L5.8,6.6 L10.3,13.8 C10.4,13.9 10.4,14 10.3,14.1 C10.2,14.2 10.2,14.2 10.1,14.2 L8.3,14.2 C8.1,14.2 8,14.2 7.9,14.1 C7.8,14 7.7,13.9 7.6,13.8 L4.3,8.3 L2.5,10.5 L2.5,14 C2.5,14.1 2.5,14.2 2.4,14.3 C2.4,14.4 2.3,14.4 2.1,14.4 L0.6,14.4 C0.3,14.4 0.2,14.3 0.2,14 L0.2,1.4 C0.2,1.1 0.3,1 0.6,1 L2.1,1 C2.2,1 2.3,1 2.4,1.1 C2.4,1.2 2.5,1.3 2.5,1.4 L2.6,7.4 L2.6,7.4 L2.6,7.4 Z"></path>
                </g>
            </g>
            <rect id="Rectangle-path" fill="#034DA1" x="228" y="28" width="3.3" height="38.7"></rect>
        </g>
    </g>
</svg>