<?xml version="1.0" encoding="utf-8"?>
<!-- Generator: Adobe Illustrator 18.0.0, SVG Export Plug-In . SVG Version: 6.00 Build 0)  -->
<!DOCTYPE svg PUBLIC "-//W3C//DTD SVG 1.1//EN" "http://www.w3.org/Graphics/SVG/1.1/DTD/svg11.dtd">
<svg version="1.1" id="Capa_1" xmlns="http://www.w3.org/2000/svg" xmlns:xlink="http://www.w3.org/1999/xlink" x="0px" y="0px"
	 viewBox="20 0 40 40" enable-background="new 20 0 40 40" xml:space="preserve">
<g>
	<path fill="#C8A051" d="M20,0v40h40V0H20z M49.9,23.6c0,3.4-2.8,6.4-6.4,6.4h-7.3c-3.5,0-6.4-2.8-6.4-6.4v-7.4
		c0-3.5,2.8-6.4,6.4-6.4h4.5c1.6,0.2,4,1.6,4.8,3.4c0.2,0.5,0.4,0.6,0.6,2.1c0.1,0.8,0.1,1.4,0.5,1.8c0.5,0.5,2.4,0.1,2.7,0.5
		l0.2,0.2l0.1,0.4l0.1,0.2L49.9,23.6z"/>
	<path fill="#C8A051" d="M43.5,22.4h-7.1c-0.7,0-1.2,0.6-1.2,1.2c0,0.7,0.6,1.2,1.2,1.2h7.1c0.7,0,1.2-0.6,1.2-1.2
		C44.7,22.9,44.2,22.4,43.5,22.4z"/>
	<path fill="#C8A051" d="M36.5,17.5H40c0.7,0,1.2-0.6,1.2-1.2c0-0.7-0.6-1.2-1.2-1.2h-3.5c-0.7,0-1.2,0.6-1.2,1.2
		C35.2,17.1,35.8,17.5,36.5,17.5z"/>
	<path fill="#FFFFFF" d="M49.8,18l-0.4-0.2c-0.4-0.2-2.2,0-2.7-0.5c-0.4-0.4-0.4-0.9-0.5-1.8c-0.2-1.5-0.4-1.6-0.6-2.1
		c-0.8-1.9-3.3-3.3-4.8-3.4h-4.5c-3.5,0-6.4,2.8-6.4,6.4v7.4c0,3.4,2.8,6.4,6.4,6.4h7.3c3.5,0,6.4-2.8,6.4-6.4v-5.1l-0.1-0.2
		L49.8,18z M36.5,15.2H40c0.7,0,1.2,0.6,1.2,1.2c0,0.7-0.6,1.2-1.2,1.2h-3.5c-0.7,0-1.2-0.6-1.2-1.2C35.2,15.8,35.8,15.2,36.5,15.2z
		 M43.5,24.8h-7.1c-0.7,0-1.2-0.6-1.2-1.2c0-0.7,0.6-1.2,1.2-1.2h7.1c0.7,0,1.2,0.6,1.2,1.2S44.2,24.8,43.5,24.8z"/>
</g>
</svg>
