<?xml version="1.0" encoding="utf-8"?>
<!-- Generator: Adobe Illustrator 18.0.0, SVG Export Plug-In . SVG Version: 6.00 Build 0)  -->
<!DOCTYPE svg PUBLIC "-//W3C//DTD SVG 1.1//EN" "http://www.w3.org/Graphics/SVG/1.1/DTD/svg11.dtd">
<svg version="1.1" id="Capa_1" xmlns="http://www.w3.org/2000/svg" xmlns:xlink="http://www.w3.org/1999/xlink" x="0px" y="0px"
	 viewBox="20 0 40 40" enable-background="new 20 0 40 40" xml:space="preserve">
<g>
	<path fill="#BD4644" d="M20,0v40h40V0H20z M40,30c-0.9,0-1.9-0.1-2.8-0.4c0.4-0.6,0.8-1.4,1.1-2.1c0.1-0.5,0.7-2.7,0.7-2.7
		c0.4,0.7,1.4,1.3,2.5,1.3c3.2,0,5.4-2.9,5.4-6.8c0-2.9-2.5-5.8-6.4-5.8c-4.7,0-7.2,3.4-7.2,6.2c0,1.8,0.7,3.3,2,3.8
		c0.2,0.1,0.5,0,0.5-0.2c0-0.1,0.1-0.6,0.2-0.8c0.1-0.2,0-0.4-0.1-0.6c-0.4-0.5-0.7-1.1-0.7-2c0-2.5,1.9-4.8,4.9-4.8
		c2.7,0,4.1,1.6,4.1,3.9c0,2.9-1.3,5.3-3.2,5.3c-1.1,0-1.9-0.8-1.5-1.9c0.4-1.3,0.9-2.6,0.9-3.5c0-0.8-0.5-1.5-1.3-1.5
		c-1.1,0-1.9,1.1-1.9,2.6c0,0.9,0.4,1.5,0.4,1.5s-1.1,4.6-1.3,5.4c-0.2,0.7-0.2,1.6-0.1,2.4c-3.5-1.5-6-5.1-6-9.2
		c0-5.5,4.5-10,10-10s10,4.5,10,10C50,25.5,45.5,30,40,30z"/>
	<path fill="#FFFFFF" d="M40,10c-5.5,0-10,4.5-10,10c0,4.1,2.5,7.6,6,9.2c0-0.7,0-1.5,0.1-2.4c0.2-0.8,1.3-5.4,1.3-5.4
		s-0.4-0.6-0.4-1.5c0-1.5,0.8-2.6,1.9-2.6c0.9,0,1.3,0.7,1.3,1.5c0,0.9-0.6,2.2-0.9,3.5c-0.2,1.1,0.6,1.9,1.5,1.9
		c1.9,0,3.2-2.5,3.2-5.3c0-2.2-1.5-3.9-4.1-3.9c-3.1,0-4.9,2.2-4.9,4.8c0,0.8,0.2,1.5,0.7,2c0.2,0.2,0.2,0.4,0.1,0.6
		c0,0.2-0.1,0.6-0.2,0.8c-0.1,0.2-0.2,0.4-0.5,0.2c-1.4-0.6-2-2.1-2-3.8c0-2.8,2.4-6.2,7.2-6.2c3.8,0,6.4,2.8,6.4,5.8
		c0,3.9-2.2,6.8-5.4,6.8c-1.1,0-2.1-0.6-2.5-1.3c0,0-0.6,2.4-0.7,2.7c-0.2,0.8-0.6,1.5-1.1,2.1c0.9,0.2,1.9,0.4,2.8,0.4
		c5.5,0,10-4.5,10-10C50,14.5,45.5,10,40,10z"/>
</g>
</svg>
