<?xml version="1.0" encoding="utf-8"?>
<!-- Generator: Adobe Illustrator 19.2.0, SVG Export Plug-In . SVG Version: 6.00 Build 0)  -->
<svg version="1.1" id="Layer_1" xmlns:sketch="http://www.bohemiancoding.com/sketch/ns"
	 xmlns="http://www.w3.org/2000/svg" xmlns:xlink="http://www.w3.org/1999/xlink" x="0px" y="0px" viewBox="0 0 40 40"
	 style="enable-background:new 0 0 40 40;" xml:space="preserve">
<style type="text/css">
	.st0{fill:#BD4644;}
	.st1{fill:#FFFFFF;}
</style>
<title>pinterest_hover</title>
<desc>Created with Sketch.</desc>
<g id="Page-1" sketch:type="MSPage">
	<g id="pinterest_hover" sketch:type="MSLayerGroup">
		<path id="bg" sketch:type="MSShapeGroup" class="st0" d="M0,0v40h40V0H0L0,0z"/>
		<path id="icon" sketch:type="MSShapeGroup" class="st1" d="M19.8,30.2c-0.9,0-2-0.1-2.9-0.4c0.4-0.6,0.8-1.4,1.1-2.2
			c0.1-0.5,0.7-2.8,0.7-2.8c0.4,0.7,1.4,1.3,2.6,1.3c3.3,0,5.6-3,5.6-7c0-3-2.6-6-6.6-6c-4.8,0-7.4,3.5-7.4,6.4
			c0,1.9,0.7,3.4,2.1,3.9c0.2,0.1,0.5,0,0.5-0.2c0-0.1,0.1-0.6,0.2-0.8c0.1-0.2,0-0.4-0.1-0.6c-0.4-0.5-0.7-1.1-0.7-2.1
			c0-2.6,2-4.9,5-4.9c2.8,0,4.2,1.6,4.2,4c0,3-1.3,5.5-3.3,5.5c-1.1,0-2-0.8-1.5-2c0.4-1.3,0.9-2.7,0.9-3.6c0-0.8-0.5-1.5-1.3-1.5
			c-1.1,0-2,1.1-2,2.7c0,0.9,0.4,1.5,0.4,1.5S16.2,26.2,16,27c-0.2,0.7-0.2,1.6-0.1,2.5c-3.6-1.5-6.2-5.2-6.2-9.5
			c0-5.7,4.6-10.3,10.3-10.3s10.3,4.6,10.3,10.3C30.1,25.6,25.5,30.2,19.8,30.2L19.8,30.2z"/>
	</g>
</g>
</svg>
