<?xml version="1.0" encoding="utf-8"?>
<!-- Generator: Adobe Illustrator 18.0.0, SVG Export Plug-In . SVG Version: 6.00 Build 0)  -->
<!DOCTYPE svg PUBLIC "-//W3C//DTD SVG 1.1//EN" "http://www.w3.org/Graphics/SVG/1.1/DTD/svg11.dtd">
<svg version="1.1" id="Capa_1" xmlns="http://www.w3.org/2000/svg" xmlns:xlink="http://www.w3.org/1999/xlink" x="0px" y="0px"
	 viewBox="40 0 40 40" enable-background="new 40 0 40 40" xml:space="preserve">
<g>
	<path fill="#1E96D3" d="M64.2,19.8c-0.5-0.2-0.9-0.6-1.6-0.7c-0.6-0.2-1.3-0.4-2.1-0.6c-0.6-0.1-1.1-0.2-1.3-0.4
		C59,18,58.7,18,58.4,17.7c-0.2-0.1-0.5-0.2-0.6-0.5c-0.1-0.1-0.1-0.2-0.1-0.5c0-0.4,0.2-0.7,0.6-0.9c0.5-0.2,0.9-0.4,1.6-0.4
		s1.3,0.1,1.6,0.4c0.4,0.2,0.6,0.6,0.8,1.1c0.2,0.4,0.4,0.6,0.6,0.7c0.2,0.1,0.5,0.2,0.8,0.2c0.4,0,0.7-0.1,0.9-0.4
		c0.2-0.2,0.4-0.6,0.4-0.9s-0.1-0.7-0.4-1.1c-0.2-0.4-0.5-0.7-0.9-1.1c-0.5-0.4-0.9-0.6-1.5-0.8s-1.4-0.2-2.2-0.2
		c-1.1,0-2,0.1-2.8,0.5s-1.4,0.7-1.9,1.3s-0.7,1.2-0.7,1.9s0.2,1.4,0.6,1.9c0.4,0.5,0.9,0.9,1.6,1.2c0.7,0.2,1.5,0.6,2.5,0.7
		c0.7,0.1,1.3,0.4,1.8,0.5s0.7,0.4,1.1,0.6c0.2,0.2,0.4,0.6,0.4,0.9c0,0.5-0.2,0.8-0.7,1.2c-0.5,0.4-1.2,0.5-1.9,0.5
		c-0.6,0-1.1-0.1-1.4-0.2c-0.4-0.1-0.6-0.4-0.8-0.6s-0.4-0.6-0.6-0.9c-0.1-0.4-0.4-0.6-0.6-0.8c-0.2-0.2-0.5-0.2-0.8-0.2
		c-0.4,0-0.7,0.1-0.9,0.4s-0.4,0.6-0.4,0.9c0,0.6,0.2,1.2,0.6,1.8c0.4,0.6,0.9,1.1,1.5,1.4c0.9,0.5,2,0.7,3.4,0.7
		c1.2,0,2.1-0.2,2.9-0.5c0.8-0.4,1.5-0.8,1.9-1.5c0.5-0.6,0.7-1.3,0.7-2.1c0-0.7-0.1-1.2-0.4-1.6C65.1,20.4,64.7,20,64.2,19.8z"/>
	<path fill="#1E96D3" d="M40,0v40h40V0H40z M64.5,30.1c-0.9,0-1.9-0.2-2.6-0.7c-0.6,0.1-1.2,0.1-1.8,0.1c-5.3,0-9.5-4.2-9.5-9.5
		c0-0.6,0-1.2,0.2-1.8c-0.5-0.8-0.7-1.8-0.7-2.8c0-3.1,2.5-5.5,5.5-5.5c1.1,0,2.1,0.4,2.9,0.8c0.5-0.1,0.9-0.1,1.5-0.1
		c5.3,0,9.5,4.2,9.5,9.5c0,0.7-0.1,1.4-0.2,2c0.4,0.7,0.6,1.5,0.6,2.5C70,27.6,67.5,30.1,64.5,30.1z"/>
	<path fill="#FFFFFF" d="M69.6,20.1c0-5.3-4.2-9.5-9.5-9.5c-0.6,0-1.1,0-1.6,0.1c-0.8-0.6-1.9-0.8-2.9-0.8c-3.1,0-5.5,2.5-5.5,5.5
		c0,1.1,0.2,2,0.7,2.8c-0.1,0.6-0.1,1.2-0.1,1.9c0,5.3,4.2,9.5,9.5,9.5c0.6,0,1.2,0,1.8-0.1c0.8,0.5,1.6,0.7,2.6,0.7
		c3.1,0,5.5-2.5,5.5-5.5c0-0.9-0.2-1.8-0.6-2.5C69.5,21.5,69.6,20.8,69.6,20.1z M65.1,24.7c-0.5,0.6-1.1,1.2-1.9,1.5
		c-0.8,0.4-1.9,0.5-2.9,0.5c-1.4,0-2.5-0.2-3.4-0.7c-0.6-0.4-1.2-0.8-1.5-1.4c-0.4-0.6-0.6-1.2-0.6-1.8c0-0.4,0.1-0.7,0.4-0.9
		c0.2-0.2,0.6-0.4,0.9-0.4s0.6,0.1,0.8,0.2c0.2,0.2,0.4,0.5,0.6,0.8c0.1,0.4,0.4,0.7,0.6,0.9c0.2,0.2,0.5,0.5,0.8,0.6
		c0.4,0.1,0.8,0.2,1.4,0.2c0.8,0,1.4-0.1,1.9-0.5s0.7-0.7,0.7-1.2c0-0.4-0.1-0.7-0.4-0.9c-0.2-0.2-0.6-0.5-1.1-0.6s-1.1-0.2-1.8-0.5
		c-0.9-0.2-1.9-0.5-2.5-0.7c-0.7-0.2-1.3-0.7-1.6-1.2c-0.4-0.5-0.6-1.2-0.6-1.9s0.2-1.4,0.7-1.9c0.5-0.6,1.1-0.9,1.9-1.3
		c0.8-0.2,1.8-0.5,2.8-0.5c0.8,0,1.6,0.1,2.2,0.2c0.6,0.2,1.2,0.5,1.5,0.8c0.5,0.4,0.7,0.7,0.9,1.1c0.2,0.4,0.4,0.7,0.4,1.1
		s-0.1,0.7-0.4,0.9s-0.6,0.4-0.9,0.4c-0.3,0-0.6-0.1-0.8-0.2s-0.4-0.4-0.6-0.7c-0.2-0.5-0.5-0.8-0.8-1.1c-0.4-0.2-0.8-0.4-1.6-0.4
		c-0.7,0-1.3,0.1-1.6,0.4c-0.8,0.4-0.9,0.7-0.9,1.1c0,0.2,0.1,0.4,0.2,0.6c0.1,0.1,0.4,0.4,0.6,0.5c0.2,0.1,0.5,0.2,0.8,0.4
		c0.2,0.1,0.7,0.2,1.3,0.4c0.8,0.1,1.5,0.4,2.1,0.6s1.2,0.5,1.6,0.7c0.5,0.4,0.8,0.7,1.1,1.2c0.2,0.5,0.4,1.1,0.4,1.6
		C65.6,23.3,65.4,24,65.1,24.7z"/>
</g>
</svg>
