<?xml version="1.0" encoding="utf-8"?>
<!-- Generator: Adobe Illustrator 19.2.0, SVG Export Plug-In . SVG Version: 6.00 Build 0)  -->
<svg version="1.1" id="Layer_1" xmlns:sketch="http://www.bohemiancoding.com/sketch/ns"
	 xmlns="http://www.w3.org/2000/svg" xmlns:xlink="http://www.w3.org/1999/xlink" x="0px" y="0px" viewBox="0 0 40 40"
	 style="enable-background:new 0 0 40 40;" xml:space="preserve">
<style type="text/css">
	.st0{fill:#E9654B;}
	.st1{fill:#FFFFFF;}
</style>
<title>youtube</title>
<desc>Created with Sketch.</desc>
<g id="Page-1" sketch:type="MSPage">
	<g id="youtube" sketch:type="MSLayerGroup">
		<rect id="bg" sketch:type="MSShapeGroup" class="st0" width="40" height="40">
		</rect>
		<path id="icon" sketch:type="MSShapeGroup" class="st1" d="M28.2,18.5L28.2,18.5l0.2,0c1.6,0,3,1.3,3,2.9v0l0,0
			c0.1,1.4,0.2,2.9,0.2,4.4c0,1.5,0,3-0.2,4.4l0,0v0c0,1.6-1.6,2.9-3.2,2.9h0.2c-2.6,0.1-5.6,0.2-8.5,0.2c-2.8,0-5.8,0-8.5-0.2h0.2
			c-1.6,0-3.2-1.3-3.2-2.9v0l0,0c-0.1-1.4-0.2-2.9-0.2-4.4c0-1.5,0-3,0.2-4.4l0,0v0c0-1.6,1.6-2.9,3.2-2.9l-0.2,0
			c2.6-0.1,5.6-0.2,8.5-0.2C22.8,18.3,25.6,18.4,28.2,18.5L28.2,18.5z M27.1,25.3c0-0.3,0-0.6,0.1-0.7c0.1-0.1,0.3-0.2,0.5-0.2
			c0.2,0,0.4,0.1,0.5,0.2c0.1,0.1,0.1,0.4,0.1,0.7V26h-1.3V25.3L27.1,25.3z M29.9,27.2v-2c0-0.7-0.2-1.3-0.5-1.7
			C29,23.2,28.5,23,27.8,23c-0.6,0-1.2,0.2-1.6,0.6c-0.4,0.4-0.6,1-0.6,1.6v3.5c0,0.7,0.2,1.3,0.6,1.8c0.4,0.4,0.9,0.6,1.5,0.6
			c0.7,0,1.3-0.2,1.6-0.6c0.4-0.4,0.5-1,0.5-1.8v-0.6h-1.5v0.5c0,0.5,0,0.7-0.1,0.9c-0.1,0.1-0.3,0.2-0.5,0.2
			c-0.2,0-0.4-0.1-0.5-0.2c-0.1-0.2-0.1-0.4-0.1-0.8v-1.5H29.9L29.9,27.2z M23.1,29.1c0,0.2,0,0.4-0.1,0.5c-0.1,0.1-0.2,0.2-0.4,0.2
			l-0.3-0.1l-0.3-0.3v-4.8l0.3-0.2l0.3-0.1c0.2,0,0.3,0.1,0.4,0.2c0.1,0.1,0.2,0.3,0.2,0.6L23.1,29.1L23.1,29.1z M23.2,23.1
			c-0.2,0-0.4,0.1-0.7,0.2c-0.2,0.1-0.4,0.3-0.6,0.5v-3.4h-1.4v10.5h1.4v-0.6c0.2,0.2,0.4,0.4,0.6,0.5C22.7,31,23,31,23.3,31
			c0.4,0,0.8-0.1,1-0.4c0.2-0.3,0.3-0.7,0.3-1.3V25c0-0.6-0.1-1.1-0.4-1.4C24,23.3,23.6,23.1,23.2,23.1L23.2,23.1z M17.6,29.1
			l-0.4,0.4c-0.2,0.1-0.3,0.2-0.4,0.2c-0.1,0-0.2,0-0.3-0.1c-0.1-0.1-0.1-0.2-0.1-0.4v-5.9h-1.4v6.4c0,0.5,0.1,0.8,0.3,1
			c0.2,0.2,0.4,0.3,0.7,0.3c0.3,0,0.5-0.1,0.8-0.2c0.3-0.2,0.6-0.4,0.8-0.7v0.9H19v-7.7h-1.4V29.1L17.6,29.1z M15,20.5h-5V22h1.7
			v8.9h1.6V22H15V20.5L15,20.5z M12.3,6.6H14l1,4.2h0.1l1-4.2h1.6l-1.9,6.1v4.3h-1.6V13L12.3,6.6L12.3,6.6z M19.2,15.3
			c0,0.2,0.1,0.4,0.2,0.5c0.1,0.1,0.2,0.2,0.4,0.2c0.2,0,0.3-0.1,0.5-0.2c0.1-0.1,0.2-0.3,0.2-0.5v-4.2c0-0.2-0.1-0.3-0.2-0.4
			c-0.1-0.1-0.3-0.2-0.5-0.2c-0.2,0-0.3,0.1-0.4,0.2c-0.1,0.1-0.2,0.2-0.2,0.4L19.2,15.3L19.2,15.3z M17.7,11.2
			c0-0.6,0.2-1.1,0.6-1.4c0.4-0.4,0.9-0.5,1.6-0.5c0.6,0,1.1,0.2,1.5,0.6c0.4,0.4,0.6,0.9,0.6,1.4v4c0,0.7-0.2,1.2-0.6,1.6
			c-0.4,0.4-0.9,0.6-1.5,0.6c-0.6,0-1.1-0.2-1.5-0.6c-0.4-0.4-0.6-0.9-0.6-1.6V11.2L17.7,11.2z M27.2,9.4v7.7h-1.4v-0.9
			c-0.3,0.3-0.5,0.6-0.8,0.7c-0.3,0.2-0.6,0.2-0.8,0.2c-0.3,0-0.6-0.1-0.8-0.3c-0.2-0.2-0.3-0.6-0.3-1V9.4h1.4v5.9
			c0,0.2,0,0.3,0.1,0.4c0.1,0.1,0.2,0.1,0.3,0.1c0.1,0,0.2-0.1,0.4-0.2l0.4-0.4V9.4H27.2L27.2,9.4z"/>
	</g>
</g>
</svg>
