<?xml version="1.0" encoding="utf-8"?>
<!-- Generator: Adobe Illustrator 18.0.0, SVG Export Plug-In . SVG Version: 6.00 Build 0)  -->
<!DOCTYPE svg PUBLIC "-//W3C//DTD SVG 1.1//EN" "http://www.w3.org/Graphics/SVG/1.1/DTD/svg11.dtd">
<svg version="1.1" id="Capa_1" xmlns="http://www.w3.org/2000/svg" xmlns:xlink="http://www.w3.org/1999/xlink" x="0px" y="0px"
	 viewBox="20 0 40 40" enable-background="new 20 0 40 40" xml:space="preserve">
<rect x="20" fill="#BA513C" width="40" height="40"/>
<path fill="#FFFFFF" d="M46.1,10v5.6C46,15.8,45.8,16,45.6,16c-0.2,0.1-0.4,0.1-0.5,0.1c-0.1,0-0.2,0-0.4-0.1
	c-0.1-0.1-0.1-0.2-0.1-0.4V10h-1.5v6.2c0,0.5,0.1,0.8,0.2,1.1c0.2,0.2,0.5,0.4,0.8,0.4c0.4,0,0.6-0.1,0.9-0.2
	c0.4-0.1,0.6-0.4,0.8-0.7v0.8h1.5V10H46.1z M41.4,10.4c-0.4-0.4-0.9-0.6-1.5-0.6c-0.7,0-1.3,0.2-1.6,0.5c-0.5,0.5-0.6,0.9-0.6,1.4
	v3.9c0,0.6,0.2,1.2,0.6,1.5c0.4,0.4,0.9,0.6,1.6,0.6c0.7,0,1.3-0.2,1.6-0.6c0.4-0.4,0.6-0.8,0.6-1.5v-3.8
	C42,11.2,41.8,10.7,41.4,10.4z M40.5,15.8c0,0.2-0.1,0.4-0.2,0.5c-0.1,0.1-0.2,0.2-0.5,0.2s-0.4,0-0.5-0.2c-0.1-0.1-0.1-0.2-0.1-0.5
	v-4.1c0-0.1,0.1-0.4,0.2-0.4c0.1-0.1,0.2-0.1,0.5-0.1s0.4,0,0.5,0.1c0.1,0.1,0.2,0.2,0.2,0.4v4.1H40.5z M35.8,7.4l-1.1,4h-0.1
	l-1.1-4h-1.8l2,6.1v4h1.8v-4.2l2-5.9H35.8L35.8,7.4z M47.6,25.2c0.1,0.1,0.1,0.4,0.1,0.6v0.7h-1.2v-0.7c0-0.2,0-0.5,0.1-0.6
	c0.1-0.1,0.2-0.2,0.5-0.2C47.4,24.9,47.5,25.1,47.6,25.2z M42.9,25.1c-0.1-0.1-0.2-0.2-0.5-0.2c-0.1,0-0.2,0-0.2,0.1
	c-0.1,0-0.2,0.1-0.2,0.2v4.2c0.1,0.1,0.2,0.2,0.4,0.2c0.1,0,0.2,0.1,0.4,0.1c0.2,0,0.4,0,0.4-0.1c0.1-0.1,0.1-0.2,0.1-0.5v-3.5
	C43.1,25.4,43.1,25.2,42.9,25.1z M42.9,25.1c-0.1-0.1-0.2-0.2-0.5-0.2c-0.1,0-0.2,0-0.2,0.1c-0.1,0-0.2,0.1-0.2,0.2v4.2
	c0.1,0.1,0.2,0.2,0.4,0.2c0.1,0,0.2,0.1,0.4,0.1c0.2,0,0.4,0,0.4-0.1c0.1-0.1,0.1-0.2,0.1-0.5v-3.5C43.1,25.4,43.1,25.2,42.9,25.1z
	 M50.6,19.9H29.4c-2.4,0-4.2,1.9-4.2,4.2v4.4c0,2.4,1.9,4.2,4.2,4.2h21.2c2.4,0,4.2-1.9,4.2-4.2v-4.4C54.8,21.8,52.9,19.9,50.6,19.9
	z M35.2,22.8h-1.5v7.9h-1.5v-7.9h-1.6v-1.3h4.7L35.2,22.8L35.2,22.8z M39.5,30.7h-1.4V30c-0.2,0.2-0.5,0.5-0.8,0.6
	c-0.2,0.1-0.5,0.2-0.8,0.2c-0.4,0-0.6-0.1-0.7-0.4c-0.1-0.2-0.2-0.5-0.2-0.9v-5.6h1.3v5.2c0,0.1,0,0.2,0.1,0.4
	c0,0.1,0.1,0.1,0.2,0.1c0.1,0,0.2,0,0.4-0.1s0.4-0.2,0.5-0.4v-5.2h1.4v6.8H39.5z M44.5,29.3c0,0.5-0.1,0.8-0.4,1.1s-0.5,0.4-0.9,0.4
	c-0.2,0-0.5,0-0.7-0.1s-0.4-0.2-0.6-0.5v0.5h-1.4v-9.2h1.4v2.9c0.2-0.2,0.4-0.4,0.6-0.5c0.2-0.1,0.5-0.1,0.6-0.1
	c0.5,0,0.7,0.1,0.9,0.5c0.2,0.2,0.4,0.7,0.4,1.3v3.8H44.5z M49.2,27.4h-2.6v1.3c0,0.4,0,0.6,0.1,0.7c0.1,0.1,0.2,0.2,0.5,0.2
	s0.4-0.1,0.5-0.2c0.1-0.1,0.1-0.4,0.1-0.7v-0.4h1.4v0.4c0,0.7-0.2,1.2-0.5,1.5c-0.4,0.4-0.8,0.5-1.5,0.5c-0.6,0-1.1-0.2-1.4-0.6
	c-0.4-0.4-0.5-0.8-0.5-1.5v-3.1c0-0.6,0.2-1.1,0.6-1.4c0.4-0.4,0.8-0.6,1.5-0.6c0.6,0,1.1,0.2,1.4,0.5c0.4,0.4,0.5,0.8,0.5,1.4v2
	H49.2z M42.5,24.9c-0.1,0-0.2,0-0.2,0.1c-0.1,0-0.2,0.1-0.2,0.2v4.1c0.1,0.1,0.2,0.2,0.4,0.2c0.1,0,0.2,0.1,0.4,0.1
	c0.2,0,0.4,0,0.4-0.1c0.1-0.1,0.1-0.2,0.1-0.5v-3.5c0-0.2,0-0.4-0.1-0.5C42.8,24.9,42.7,24.9,42.5,24.9z M42.9,25.1
	c-0.1-0.1-0.2-0.2-0.5-0.2c-0.1,0-0.2,0-0.2,0.1c-0.1,0-0.2,0.1-0.2,0.2v4.2c0.1,0.1,0.2,0.2,0.4,0.2c0.1,0,0.2,0.1,0.4,0.1
	c0.2,0,0.4,0,0.4-0.1c0.1-0.1,0.1-0.2,0.1-0.5v-3.5C43.1,25.4,43.1,25.2,42.9,25.1z M42.9,25.1c-0.1-0.1-0.2-0.2-0.5-0.2
	c-0.1,0-0.2,0-0.2,0.1c-0.1,0-0.2,0.1-0.2,0.2v4.2c0.1,0.1,0.2,0.2,0.4,0.2c0.1,0,0.2,0.1,0.4,0.1c0.2,0,0.4,0,0.4-0.1
	c0.1-0.1,0.1-0.2,0.1-0.5v-3.5C43.1,25.4,43.1,25.2,42.9,25.1z"/>
</svg>
