<svg xmlns="http://www.w3.org/2000/svg" viewBox="0 0 40 40"><defs><style>.a{fill:#dd5a2b;}.b{fill:#9e4521;}.c{fill:#fff;}</style></defs><title>bitly_hover</title><rect class="a" width="40" height="40"/><rect class="b" width="40" height="40"/><path class="c" d="M7,20.64L6.91,22.89a1.81,1.81,0,0,0,1.42.57c0.94,0,1.84-.71,1.84-2.48,0-1.21-.54-1.91-1.35-1.91A1.7,1.7,0,0,0,7,20.64H7ZM4.92,15.4v0a0.16,0.16,0,0,0-.14-0.18,0.29,0.29,0,0,0-.27.16,0.54,0.54,0,0,1-.94-0.52A1.83,1.83,0,0,1,5.31,13.6,1.65,1.65,0,0,1,7,15.53v0C7,16.16,7,17.29,7,18.17a3.52,3.52,0,0,1,2.34-.88c1.7,0,2.83,1.56,2.83,3.69a3.7,3.7,0,0,1-.55,2c1.29-.57,2.18-1.8,2.18-4.24a0.71,0.71,0,1,1,1.42,0c0,4.33-3,6.31-6.87,6.31C5.84,25.09,5,23.53,5,22.82c0-.43.07-1,0.07-1.42,0-4.11-.14-5.25-0.14-6h0Z"/><path class="c" d="M13.8,23.1c0-.5.07-1,0.07-1.7,0-1.21-.14-3-0.14-3a1.06,1.06,0,1,1,2.13,0c0,1.84-.14,2.91-0.14,4.61a0.5,0.5,0,0,0,.5.5c0.92,0,1.91-1.21,1.91-4.68a0.71,0.71,0,1,1,1.42,0c0,4.25-1.49,6.31-3.83,6.31a1.93,1.93,0,0,1-1.91-2h0Zm1-9.08a1.21,1.21,0,1,1-1.2,1.21A1.2,1.2,0,0,1,14.84,14h0Z"/><path class="c" d="M20.6,25.09A2.25,2.25,0,0,1,18,22.89c0-.5.07-1,0.07-1.49,0-1,0-1.89,0-2.69H17.91a0.64,0.64,0,0,1,0-1.28H18c0-.58,0-1.12,0-1.63a1.06,1.06,0,1,1,2.13,0c0,0.44,0,1,0,1.59,0.45,0,1,0,1.66,0a0.71,0.71,0,0,1,0,1.42c-0.69,0-1.23,0-1.7,0,0,1.16-.07,2.42-0.07,3.56a1,1,0,0,0,1,1.13c1.56,0,2.62-1.35,2.62-4.68a0.71,0.71,0,1,1,1.42,0c0,3.9-1.63,6.31-4.39,6.31"/><path class="c" d="M27.83,18.78a0.71,0.71,0,1,1,1.42,0c0,4.25-1.49,6.31-3.83,6.31a1.93,1.93,0,0,1-1.91-2c0-.43.07-1.28,0.07-1.7,0-4.11-.14-5.53-0.14-6.74a1.06,1.06,0,1,1,2.13,0c0,1.21-.14,2.48-0.14,8.3a0.5,0.5,0,0,0,.5.5c0.92,0,1.91-1.21,1.91-4.68"/><path class="c" d="M32.92,25.4c-1.6.31-2.61,0.44-2.61,1.18a0.81,0.81,0,0,0,1,.71,1.44,1.44,0,0,0,1.63-1.63c0-.08,0-0.17,0-0.26h0Zm-0.16-2.08a3.27,3.27,0,0,1-2.45.85c-1.7,0-2.48-1.21-2.48-2.77,0-1.21-.14-2.13-0.14-2.91a1.06,1.06,0,1,1,2.13,0c0,0.78-.14,1.91-0.14,2.77a1.09,1.09,0,0,0,1.13,1.28A1.6,1.6,0,0,0,32.65,21c0-.85-0.14-1.77-0.14-2.55a1.06,1.06,0,1,1,2.13,0c0,0.78-.14,1.7-0.14,2.91v0.26a13.67,13.67,0,0,0,.17,1.89,2.78,2.78,0,0,0,.84-0.88,0.58,0.58,0,0,1,1,.57,2.94,2.94,0,0,1-1.67,1.65,1.81,1.81,0,0,1,0,.28c0,1.63-.54,3.56-3.54,3.56-2.27,0-2.91-1-2.91-2.14,0-1.8,2.28-1.93,4.44-2.48l-0.07-.78h0Z"/></svg>