<?xml version="1.0" encoding="UTF-8" standalone="no"?>
<svg width="59px" height="59px" viewBox="0 0 59 59" version="1.1" xmlns="http://www.w3.org/2000/svg" xmlns:xlink="http://www.w3.org/1999/xlink" xmlns:sketch="http://www.bohemiancoding.com/sketch/ns">
    <!-- Generator: Sketch 3.4.4 (17249) - http://www.bohemiancoding.com/sketch -->
    <title>Blog</title>
    <desc>Created with Sketch.</desc>
    <defs>
        <path id="path-1" d="M0,0.0686845632 L58.371361,0.0686845632 L58.371361,58.4799995 L0,58.4799995 L0,0.0686845632 Z"></path>
    </defs>
    <g id="Icon" stroke="none" stroke-width="1" fill="none" fill-rule="evenodd" sketch:type="MSPage">
        <g id="Social-media-icons" sketch:type="MSArtboardGroup" transform="translate(-37.000000, -2963.000000)">
            <g id="Blog" sketch:type="MSLayerGroup" transform="translate(37.000000, 2963.000000)">
                <path d="M0,0.0687238115 L0,0.86124555 L0,57.2263493 L0,58.4800388 L58.371361,58.4800388 L58.371361,0.0687238115 L0,0.0687238115 Z" id="Fill-1" fill="#D46800" sketch:type="MSShapeGroup"></path>
                <g id="Group-8">
                    <path d="M45.7812576,15.1498522 C45.7812576,12.5005905 43.6338818,10.361557 40.9962376,10.361557 L17.3751039,10.361557 C14.7276543,10.361557 12.5900839,12.5104026 12.5900839,15.1498522 L12.5900839,38.8067782 C12.5900839,41.4364158 14.7080435,43.5656372 17.3358824,43.5852614 C17.8163455,45.8616641 19.345983,50.1986036 24.1604192,51.3269929 C24.1604192,51.3269929 21.5423857,47.676899 23.0916339,43.5852614 L40.9962376,43.5852614 C43.6436872,43.5852614 45.7812576,41.4364158 45.7812576,38.7969661 L45.7812576,38.7969661 L45.7812576,15.1498522 Z" id="Fill-2" fill="#FFFFFF" sketch:type="MSShapeGroup"></path>
                    <mask id="mask-2" sketch:name="Clip 5" fill="white">
                        <use xlink:href="#path-1"></use>
                    </mask>
                    <g id="Clip-5"></g>
                    <path d="M39.331786,27.9717884 L19.0346724,27.9717884 L19.0346724,26.0093723 L39.331786,26.0093723 L39.331786,27.9717884 Z" id="Fill-4" fill="#D46800" sketch:type="MSShapeGroup" mask="url(#mask-2)"></path>
                    <path d="M39.331786,32.926889 L19.0346724,32.926889 L19.0346724,30.9644729 L39.331786,30.9644729 L39.331786,32.926889 Z" id="Fill-6" fill="#D46800" sketch:type="MSShapeGroup" mask="url(#mask-2)"></path>
                    <path d="M39.331786,23.0166877 L19.0346724,23.0166877 L19.0346724,21.0542716 L39.331786,21.0542716 L39.331786,23.0166877 Z" id="Fill-7" fill="#D46800" sketch:type="MSShapeGroup" mask="url(#mask-2)"></path>
                </g>
            </g>
        </g>
    </g>
</svg>