<svg xmlns="http://www.w3.org/2000/svg" viewBox="276.7 0 595.3 595.3"><path fill="#C8A051" d="M276.7 0H872v595.3H276.7z"/><path fill="#FFF" d="M721 266.4l-6-3c-6-3-32.7 0-40.2-7.4-6-6-6-13.4-7.4-26.8-3-22.3-6-23.8-8.9-31.3-11.9-28.3-49.1-49.1-71.4-50.6h-67c-52.1 0-95.2 41.7-95.2 95.2v110.1c0 50.6 41.7 95.2 95.2 95.2h108.6c52.1 0 95.2-41.7 95.2-95.2v-75.9l-1.5-3-1.4-7.3zm-198-41.7h52.1c10.4 0 17.9 8.9 17.9 17.9 0 10.4-8.9 17.9-17.9 17.9H523c-10.4 0-17.9-8.9-17.9-17.9-1.4-9 7.5-17.9 17.9-17.9zm104.2 142.9H521.5c-10.4 0-17.9-8.9-17.9-17.9 0-10.4 8.9-17.9 17.9-17.9h105.7c10.4 0 17.9 8.9 17.9 17.9 0 9-7.5 17.9-17.9 17.9z"/></svg>