<svg xmlns="http://www.w3.org/2000/svg" viewBox="45.4 6.9 595.3 595.3"><path fill="#FBC866" d="M45.4 6.9h595.3v595.3H45.4z"/><path fill="#FFF" d="M489.7 277.7v-3l-6-3c-6-3-32.7 0-40.2-7.4-6-6-6-13.4-7.4-26.8-3-22.3-6-23.8-8.9-31.3-11.9-28.3-49.1-49.1-71.4-50.6h-67c-52.1 0-93.8 41.7-93.8 93.8v110.1c0 50.6 41.7 93.8 93.8 93.8h108.6c52.1 0 93.8-41.7 93.8-93.8v-75.9l-1.5-5.9zm-198-44.6h52.1c10.4 0 17.9 8.9 17.9 17.9 0 10.4-8.9 17.9-17.9 17.9h-52.1c-10.4 0-17.9-8.9-17.9-17.9-1.4-9 7.5-17.9 17.9-17.9zM395.9 376H290.2c-10.4 0-17.9-8.9-17.9-17.9 0-10.4 8.9-17.9 17.9-17.9h105.7c10.4 0 17.9 8.9 17.9 17.9 0 8.9-7.5 17.9-17.9 17.9z"/></svg>