<svg xmlns="http://www.w3.org/2000/svg" viewBox="123.3 0 595.3 595.3"><path fill="none" d="M545.1 106H304.2c-26.9 0-48.8 21.8-48.8 48.8v240.9c0 26.8 21.7 48.6 48.4 48.7 4.8 23.2 20.4 67.4 69.6 78.9 0 0-26.7-37.2-10.9-78.9h182.6c26.9 0 48.8-21.8 48.8-48.8V154.7c0-26.9-21.9-48.7-48.8-48.7z"/><path fill="#D46800" d="M123.3 1v595.3h595.3V1H123.3zm470.6 394.7c0 26.9-21.8 48.8-48.8 48.8H362.5c-15.8 41.7 10.9 78.9 10.9 78.9-49.1-11.5-64.7-55.7-69.6-78.9-26.8-.2-48.4-21.9-48.4-48.7V154.7c0-26.9 21.8-48.8 48.8-48.8h240.9c26.9 0 48.8 21.8 48.8 48.8v241z"/><g fill="none" stroke="#D46800" stroke-width="10" stroke-miterlimit="10"><path d="M321.1 275.6h207M321.1 326.1h207M321.1 225.1h207"/></g></svg>