<svg xmlns="http://www.w3.org/2000/svg" viewBox="0 0 40 40"><defs><style>.a{fill:#fbc866;}.b{fill:#bc954c;}.c{fill:#fff;}</style></defs><title>blogger_hover</title><rect class="a" width="40" height="40"/><rect class="b" width="40" height="40"/><path class="c" d="M30.14,18.15V17.95l-0.41-.21c-0.41-.21-2.26,0-2.78-0.51a2.79,2.79,0,0,1-.51-1.85,5.56,5.56,0,0,0-.62-2.16,6.67,6.67,0,0,0-4.94-3.49H16.25A6.45,6.45,0,0,0,9.76,16.2v7.6a6.52,6.52,0,0,0,6.49,6.47h7.51a6.45,6.45,0,0,0,6.49-6.47V18.56l-0.1-.41h0ZM16.45,15.07H20a1.24,1.24,0,1,1,0,2.47h-3.6a1.25,1.25,0,0,1-1.24-1.24,1.19,1.19,0,0,1,1.24-1.24h0Zm7.2,9.86H16.34a1.24,1.24,0,1,1,0-2.47h7.31a1.24,1.24,0,1,1,0,2.47h0Z"/></svg>