<svg xmlns="http://www.w3.org/2000/svg" viewBox="0 0 841.9 595.3" enable-background="new 0 0 841.9 595.3"><path fill="#A14F00" d="M246.6 1h595.3v595.3H246.6z"/><linearGradient id="a" gradientUnits="userSpaceOnUse" x1="424.65" y1="71.98" x2="424.65" y2="489.28" gradientTransform="matrix(1 0 0 -1 123.31 595.26)"><stop offset="0" stop-color="#FFF"/><stop offset=".414" stop-color="#FCFCFC"/><stop offset=".757" stop-color="#F1F1F1"/><stop offset="1" stop-color="#E5E5E5"/></linearGradient><path fill="url(#a)" d="M668.4 106H427.5c-26.9 0-48.8 21.8-48.8 48.8v240.9c0 26.8 21.7 48.6 48.4 48.7 4.8 23.2 20.4 67.4 69.6 78.9 0 0-26.7-37.2-10.9-78.9h182.6c26.9 0 48.8-21.8 48.8-48.8V154.7c0-26.9-21.9-48.7-48.8-48.7z"/><defs><filter id="b" filterUnits="userSpaceOnUse" x="378.7" y="106" width="338.5" height="417.3"><feColorMatrix values="1 0 0 0 0 0 1 0 0 0 0 0 1 0 0 0 0 0 1 0"/></filter></defs><g opacity=".8" mask="url(#c)"><path fill="#F9F9F9" d="M668.4 106H427.5c-26.9 0-48.8 21.8-48.8 48.8v240.9c0 26.8 21.7 48.6 48.4 48.7 4.8 23.2 20.4 67.4 69.6 78.9 0 0-26.7-37.2-10.9-78.9h182.6c26.9 0 48.8-21.8 48.8-48.8V154.7c0-26.9-21.9-48.7-48.8-48.7z"/></g><path fill="none" stroke="#A14F00" stroke-width="10" stroke-miterlimit="10" d="M444.4 275.6h207M444.4 326.1h207M444.4 225.1h207"/></svg>