<svg xmlns="http://www.w3.org/2000/svg" viewBox="0 0 40 40"><defs><style>.a{fill:#0094e4;}.b{fill-opacity:0.25;}.c{fill:#fff;}</style></defs><title>dzone_hover</title><rect class="a" width="40" height="40"/><rect class="b" width="40" height="40"/><path class="c" d="M33,12a2.37,2.37,0,0,0-2.3,1.8L20,10.3a1.4,1.4,0,0,0-2.8,0,1,1,0,0,0,.4.9L6.3,24.1C6.2,24.1,6,24,5.9,24a1.3,1.3,0,1,0,0,2.6A1.23,1.23,0,0,0,7,25.9l10.3,2.5v0.5a2.26,2.26,0,0,0,2.3,2.3,2.33,2.33,0,0,0,2.3-2.3,1.7,1.7,0,0,0-.1-0.7L29.7,25a1.27,1.27,0,0,0,.9.4,1.22,1.22,0,0,0,1.2-1.2,1.23,1.23,0,0,0-.5-1l1.3-6.3a1.27,1.27,0,0,0,.6.1,2.43,2.43,0,0,0,2.4-2.4A2.79,2.79,0,0,0,33,12h0Zm-13.6-.6,4.8,5.9-4.9,2L19,11.6a1.47,1.47,0,0,0,.4-0.2h0Zm-0.8.3,0.3,7.8-2.2.9a1.76,1.76,0,0,0-.4-0.5l1.9-8.3a2.27,2.27,0,0,0,.4.1h0ZM16.8,21V20.7l2.1-.9,0.3,6.7a4.33,4.33,0,0,0-.5.1L16.4,22a1.28,1.28,0,0,0,.4-1h0Zm4.1,6a3,3,0,0,0-1.3-.5l-0.3-6.8,5.2-2.1,2.3,2.9L20.9,27h0Zm3.9-9.5,5.9-2.4a1.61,1.61,0,0,0,.4.7l-4,4.4-2.3-2.7h0Zm5.8-2.8-6.1,2.5-4.9-6,0.3-.6,10.7,3.5v0.6h0ZM17.8,11.4h0L16,19.7a0.9,0.9,0,0,0-.5-0.1A1.37,1.37,0,0,0,14.1,21a0.6,0.6,0,0,0,.1.4l-7.4,3-0.1-.1L17.8,11.4h0ZM7.1,25.6V25.3a1.42,1.42,0,0,0-.2-0.6l7.3-3a1.25,1.25,0,0,0,1.1.6,1.85,1.85,0,0,0,.7-0.2l2.2,4.7a2.94,2.94,0,0,0-1,1.2L7.1,25.6h0Zm14.4,2.3c-0.1-.2-0.3-0.4-0.4-0.6L27,20.8l2.3,2.8a1.27,1.27,0,0,0-.1.6,1.42,1.42,0,0,0,.2.6l-7.9,3.1h0Zm9.3-5a0.6,0.6,0,0,0-.4-0.1,1,1,0,0,0-.9.4l-2.2-2.7,4-4.4a5.55,5.55,0,0,0,.8.6l-1.3,6.2h0Z"/></svg>