<svg xmlns="http://www.w3.org/2000/svg" viewBox="0 0 841.9 595.3"><path fill="#17BBE1" d="M167.6 44.3h506.7V551H167.6z"/><g fill="#FEFEFE"><path d="M572 230.6c.1 4.1-2.5 6.8-5.1 9.4-46.1 46.5-92.3 92.9-138.3 139.5-6.6 6.6-12.6 6.4-19-.1-25.2-25.6-50.5-51.1-75.8-76.7-6.3-6.3-5.7-12.3.5-18.3 6.5-6.3 13-12.6 19.2-19.3 6.4-6.9 12.5-6.7 18.9-.1 13.6 13.9 27.6 27.5 41 41.7 4.7 5 7.3 4.3 11.8-.2 33.6-34.3 67.5-68.3 101.4-102.3 10.7-10.8 13.7-10.7 24.7.3l16.4 16.4c2.6 2.6 4.6 5.6 4.3 9.7z"/><path d="M557.7 274.6c-42.7 43-85.4 86.1-128.1 129.2-6.6 6.6-12.6 6.4-19-.1-2.5-2.5-4.9-5-7.4-7.5-1.1-.9-2.2-1.8-3.2-2.8-26.3-26.5-52.7-52.9-78.7-79.6-12.1-12.5-11.7-27.7.5-40.4 6.8-7 13.7-13.9 20.7-20.7 14-13.8 29.2-13.4 43.1.9 9.4 9.6 19.2 18.8 28.3 28.7 4.6 5 7.3 4.7 11.8 0 22-22.6 44.3-45.1 66.9-67.2 4.7-4.6 4.9-7.3.1-12-15.3-14.7-30-29.9-45.1-44.8-16.5-16.4-37-16.8-53.6-.3-37.6 37.5-75 75.3-112.2 113.2-15.8 16.1-16 37.1-.2 53.1 37.5 38.1 75.1 76.1 113 113.8 16.2 16.2 37.5 15.4 53.7-1 16.6-16.7 33.2-33.4 49.7-50.1 20.4-20.5 40.9-40.9 61.1-61.6C572.5 311.5 575 295 567 280c-3-5.7-5.5-7.5-9.3-5.4z"/></g></svg>