<svg width="40" height="40" viewBox="0 0 40 40" xmlns="http://www.w3.org/2000/svg" xmlns:xlink="http://www.w3.org/1999/xlink"><title>foursquare_hover</title><defs><path id="a" d="M0 0h40v40H0z"/></defs><g fill="none" fill-rule="evenodd"><g><use fill="#17BBE1" xlink:href="#a"/><use fill-opacity=".25" fill="#000" xlink:href="#a"/></g><path d="M30.238 15.435c.007.278-.17.462-.346.638-3.124 3.158-6.255 6.31-9.373 9.474-.448.448-.855.434-1.29-.007-1.706-1.74-3.42-3.47-5.136-5.21-.427-.427-.386-.834.034-1.242.44-.427.88-.855 1.3-1.31.435-.47.85-.455 1.282-.007.922.945 1.87 1.87 2.78 2.833.318.34.494.292.8-.014 2.276-2.33 4.573-4.64 6.87-6.948.726-.733.93-.726 1.675.02l1.112 1.114c.176.177.31.38.29.66zm-.97 2.988c-2.893 2.92-5.787 5.847-8.68 8.774-.448.448-.855.434-1.29-.007-.168-.17-.33-.34-.5-.51-.075-.06-.15-.122-.217-.19-1.782-1.8-3.57-3.592-5.333-5.405-.82-.85-.793-1.88.034-2.743.462-.476.93-.944 1.404-1.406.95-.937 1.98-.91 2.92.06.638.653 1.302 1.278 1.92 1.95.31.34.494.32.8 0 1.49-1.535 3-3.063 4.533-4.564.318-.312.332-.495.006-.814-1.036-1-2.033-2.03-3.056-3.043-1.118-1.113-2.508-1.14-3.633-.02-2.548 2.546-5.083 5.113-7.604 7.687-1.07 1.093-1.084 2.52-.014 3.606 2.542 2.587 5.09 5.168 7.66 7.728 1.097 1.1 2.54 1.046 3.638-.068 1.125-1.134 2.25-2.268 3.37-3.402 1.38-1.392 2.77-2.778 4.14-4.183.908-.944 1.077-2.065.535-3.083-.204-.387-.374-.51-.63-.367z" fill="#FEFEFE"/></g></svg>