<svg xmlns="http://www.w3.org/2000/svg" viewBox="20 0 40 40"><path fill="#4B4B4C" d="M39.8 14.7c-.2-2.1-1.8-3.8-3.4-3.9-1.6 0-2.7 1.5-2.4 3.6.2 2.1 1.8 3.9 3.4 3.9 1.5.2 2.6-1.5 2.4-3.6zM38.7 22.7c-.5-.1-.9-.2-1.5-.2-2.4 0-4.5 1.4-4.5 3.2s1.8 3.3 4.1 3.3c3.3 0 4.5-1.4 4.5-3.2 0-.2 0-.5-.1-.6-.4-1.1-1.2-1.6-2.5-2.5z"/><path fill="#4B4B4C" d="M20 0v40h40V0H20zm16.7 30c-3.4 0-6.4-1.4-6.4-3.6s2.7-4.5 6.1-4.5h1.1c-.5-.5-.8-1.1-.8-1.8 0-.4.1-.8.4-1.2h-.6c-2.8 0-4.7-2-4.7-4.5s2.6-4.6 5.4-4.6h6.2L42 10.9h-2c1.3.5 2 2 2 3.5 0 1.3-.7 2.5-1.8 3.3-.9.8-1.2 1.1-1.2 1.8 0 .6 1.1 1.5 1.6 1.9 1.6 1.2 2.1 2.2 2.1 4 .1 2.4-2.1 4.6-6 4.6zm12.9-9.4h-2.5v2.5h-2v-2.5h-2.5v-2h2.5v-2.5h2v2.5h2.5v2z"/><path fill="#FFF" d="M40.6 21.5c-.6-.4-1.6-1.4-1.6-1.9 0-.7.2-.9 1.2-1.8 1.1-.8 1.8-1.9 1.8-3.3 0-1.5-.7-3.1-2-3.5h2l1.4-1.1h-6.2c-2.8 0-5.4 2.1-5.4 4.6s1.9 4.5 4.7 4.5h.6c-.2.4-.4.7-.4 1.2 0 .7.4 1.3.8 1.8h-1.1c-3.4 0-6.1 2.2-6.1 4.5s2.9 3.6 6.4 3.6c3.9 0 6.1-2.2 6.1-4.5 0-1.8-.6-2.9-2.2-4.1zm-3.3-3c-1.6 0-3.1-1.8-3.4-3.9-.2-2.1.8-3.6 2.4-3.6 1.6 0 3.1 1.8 3.4 3.9.3 1.9-.8 3.6-2.4 3.6zm-.6 10.6c-2.4 0-4.1-1.5-4.1-3.3 0-1.8 2.1-3.3 4.5-3.2.6 0 1.1.1 1.5.2 1.3.9 2.2 1.4 2.5 2.5 0 .2.1.5.1.6 0 1.7-1.2 3.2-4.5 3.2z"/><path fill="#FFF" d="M47.3 16.2h-2v2.4h-2.4v2h2.4v2.3h2v-2.3h2.3v-2h-2.3"/></svg>