<?xml version="1.0" encoding="utf-8"?>
<!-- Generator: Adobe Illustrator 18.0.0, SVG Export Plug-In . SVG Version: 6.00 Build 0)  -->
<!DOCTYPE svg PUBLIC "-//W3C//DTD SVG 1.1//EN" "http://www.w3.org/Graphics/SVG/1.1/DTD/svg11.dtd">
<svg version="1.1" id="Capa_1" xmlns="http://www.w3.org/2000/svg" xmlns:xlink="http://www.w3.org/1999/xlink" x="0px" y="0px"
	 viewBox="20 0 40 40" enable-background="new 20 0 40 40" xml:space="preserve">
<g>
	<path fill="#010202" d="M39.8,14.7c-0.2-2.1-1.8-3.8-3.4-3.9c-1.6,0-2.7,1.5-2.4,3.6c0.2,2.1,1.8,3.9,3.4,3.9
		C38.9,18.5,40,16.8,39.8,14.7z"/>
	<path fill="#010202" d="M38.7,22.7c-0.5-0.1-0.9-0.2-1.5-0.2c-2.4,0-4.5,1.4-4.5,3.2s1.8,3.3,4.1,3.3c3.3,0,4.5-1.4,4.5-3.2
		c0-0.2,0-0.5-0.1-0.6C40.8,24.1,40,23.6,38.7,22.7z"/>
	<path fill="#010202" d="M20,0v40h40V0H20z M36.7,30c-3.4,0-6.4-1.4-6.4-3.6s2.7-4.5,6.1-4.5c0.4,0,0.7,0,1.1,0
		c-0.5-0.5-0.8-1.1-0.8-1.8c0-0.4,0.1-0.8,0.4-1.2c-0.2,0-0.4,0-0.6,0c-2.8,0-4.7-2-4.7-4.5s2.6-4.6,5.4-4.6h6.2L42,10.9h-2
		c1.3,0.5,2,2,2,3.5c0,1.3-0.7,2.5-1.8,3.3c-0.9,0.8-1.2,1.1-1.2,1.8c0,0.6,1.1,1.5,1.6,1.9c1.6,1.2,2.1,2.2,2.1,4
		C42.8,27.8,40.6,30,36.7,30z M49.6,20.6h-2.5v2.5h-2v-2.5h-2.5v-2h2.5v-2.5h2v2.5h2.5V20.6z"/>
	<path fill="#FFFFFF" d="M40.6,21.5c-0.6-0.4-1.6-1.4-1.6-1.9c0-0.7,0.2-0.9,1.2-1.8c1.1-0.8,1.8-1.9,1.8-3.3c0-1.5-0.7-3.1-2-3.5h2
		l1.4-1.1h-6.2c-2.8,0-5.4,2.1-5.4,4.6s1.9,4.5,4.7,4.5c0.2,0,0.4,0,0.6,0c-0.2,0.4-0.4,0.7-0.4,1.2c0,0.7,0.4,1.3,0.8,1.8
		c-0.4,0-0.7,0-1.1,0c-3.4,0-6.1,2.2-6.1,4.5s2.9,3.6,6.4,3.6c3.9,0,6.1-2.2,6.1-4.5C42.8,23.8,42.2,22.7,40.6,21.5z M37.3,18.5
		c-1.6,0-3.1-1.8-3.4-3.9c-0.2-2.1,0.8-3.6,2.4-3.6c1.6,0,3.1,1.8,3.4,3.9C40,16.8,38.9,18.5,37.3,18.5z M36.7,29.1
		c-2.4,0-4.1-1.5-4.1-3.3c0-1.8,2.1-3.3,4.5-3.2c0.6,0,1.1,0.1,1.5,0.2c1.3,0.9,2.2,1.4,2.5,2.5c0,0.2,0.1,0.5,0.1,0.6
		C41.2,27.6,40,29.1,36.7,29.1z"/>
	<polygon fill="#FFFFFF" points="47.3,16.2 45.3,16.2 45.3,18.6 42.9,18.6 42.9,20.6 45.3,20.6 45.3,22.9 47.3,22.9 47.3,20.6 
		49.6,20.6 49.6,18.6 47.3,18.6 	"/>
</g>
</svg>
