<svg xmlns="http://www.w3.org/2000/svg" viewBox="0 0 841.9 595.3"><path fill="#326495" d="M165.3 42.1h510.1v510.1H165.3z"/><path fill="#FFF" d="M420.5 137.8H297.9c-10 0-18.6 3.5-25.7 10.5-7.3 7.1-11 15.9-11.1 26.1V419c0 2 0 4.1.3 6.1 2.2 13.1 9.2 22.5 21.1 28.3 4.9 2.3 10 3.3 15.4 3.3H544c1.8-.2 3.6-.2 5.3-.5 17.5-3 30.5-18.3 30.5-36.1V174.5c0-11.4-4.6-20.8-13.2-28.1-6.8-5.8-14.8-8.5-23.7-8.5-40.8-.1-81.6-.1-122.4-.1z"/><path fill="#FFF" d="M420.5 137.8h122.4c8.9 0 16.9 2.8 23.7 8.5 8.7 7.3 13.2 16.7 13.2 28.1V420c0 17.7-12.9 33-30.5 36.1-1.8.3-3.5.3-5.3.5H297.9c-5.4 0-10.6-1-15.4-3.3-11.9-5.8-19-15.2-21.1-28.3-.3-2-.3-4.1-.3-6.1V194.5v-20.2c.1-10.2 3.8-19 11.1-26.1 7.1-7 15.8-10.5 25.7-10.5h80.6c14 .1 28 .1 42 .1zm-122.6 135v133.9c0 .7 0 1.3.1 2 .4 5 3.7 9.1 8.5 10.6 1.6.5 3.2.6 4.8.6H530c1.2 0 2.3 0 3.5-.3 5.8-1.2 9.7-6.1 9.8-12v-24.2-109-1.6h-27.6c7.1 30 1.8 57.6-16.1 82.7-18.7 24.4-43.4 37.9-74.2 39.7-18.4 1.1-35.8-3.1-52-12-16.3-9-29.2-21.6-38.3-37.9-12.7-22.9-15.8-47.1-9.5-72.6-9.3.1-18.4.1-27.7.1zM420.5 236c-34.4.1-61.4 28-61.3 61.3.1 33.9 27.4 61.3 61.3 61.3s61.3-27.4 61.3-61.3-27.4-61.3-61.3-61.3zm91.9 0h18.2c.8 0 1.6 0 2.4-.2 6.1-1.1 10.2-6 10.2-12.2V187c0-.7 0-1.3-.1-2-1.1-6.2-6-10.3-12.3-10.3h-36.4c-7.1 0-12.5 5.3-12.5 12.4v36.5c0 .6 0 1.2.1 1.7 1 6.8 6.9 10.8 12.3 10.7 6-.1 12 0 18.1 0z"/><path fill="#326495" d="M297.9 272.8h27.7c-6.3 25.5-3.3 49.7 9.5 72.6 9.1 16.3 21.9 28.9 38.3 37.9 16.2 8.9 33.5 13 52 12 30.8-1.8 55.5-15.3 74.2-39.7 17.9-25.1 23.1-52.7 16.1-82.7h27.6V407.7c0 5.9-4 10.8-9.8 12-1.1.2-2.3.3-3.5.3H311.3c-1.6 0-3.2-.1-4.8-.6-4.7-1.5-8.1-5.7-8.5-10.6-.1-.7-.1-1.3-.1-2V274.5v-1.7z"/><path fill="#326495" d="M420.5 236c33.9 0 61.3 27.5 61.3 61.3 0 33.9-27.4 61.3-61.3 61.3s-61.2-27.4-61.3-61.3c-.1-33.3 26.9-61.3 61.3-61.3z"/><path fill="#FFF" d="M512.4 236c-6.1 0-12.1-.1-18.2 0-5.4.1-11.3-3.8-12.3-10.7-.1-.6-.1-1.2-.1-1.7v-36.5c0-7.1 5.4-12.4 12.5-12.4h36.4c6.3 0 11.2 4.2 12.3 10.3.1.6.1 1.3.1 2v36.6c0 6.2-4.1 11.1-10.2 12.2-.8.1-1.6.2-2.4.2h-18.1z"/><path fill="#326495" d="M530.8 236h-36.6c-6.8 0-12.3-5.5-12.3-12.3V187c0-6.8 5.5-12.3 12.3-12.3h36.6c6.8 0 12.3 5.5 12.3 12.3v36.7c0 6.7-5.5 12.3-12.3 12.3z"/></svg>