<?xml version="1.0" encoding="utf-8"?>
<!-- Generator: Adobe Illustrator 19.2.0, SVG Export Plug-In . SVG Version: 6.00 Build 0)  -->
<svg version="1.1" id="Layer_1" xmlns:sketch="http://www.bohemiancoding.com/sketch/ns"
	 xmlns="http://www.w3.org/2000/svg" xmlns:xlink="http://www.w3.org/1999/xlink" x="0px" y="0px" viewBox="0 0 40 40"
	 style="enable-background:new 0 0 40 40;" xml:space="preserve">
<style type="text/css">
	.st0{fill:#1385C8;}
	.st1{fill:#FFFFFF;}
</style>
<title>linkedin</title>
<desc>Created with Sketch.</desc>
<g id="Page-1" sketch:type="MSPage">
	<g id="linkedin" sketch:type="MSLayerGroup">
		<path id="bg" sketch:type="MSShapeGroup" class="st0" d="M0,0v40h40V0H0L0,0z"/>
		<path id="icon" sketch:type="MSShapeGroup" class="st1" d="M13.7,30.2H9.3V16.2h4.4V30.2L13.7,30.2z M11.4,14.5L11.4,14.5
			c-1.6,0-2.7-1-2.7-2.4s1-2.4,2.7-2.4c1.6,0,2.7,1,2.7,2.4S13.1,14.5,11.4,14.5L11.4,14.5z M31.3,30.2h-5.1v-7.3
			c0-1.8-0.8-3.2-2.5-3.2c-1.4,0-2,0.9-2.4,1.7v1.2v7.5h-5V16.2h5v2.3c0.2-0.9,1.8-2.4,4.4-2.4c3.2,0,5.5,2,5.5,6.3V30.2L31.3,30.2z
			"/>
	</g>
</g>
</svg>
