<?xml version="1.0" encoding="utf-8"?>
<!-- Generator: Adobe Illustrator 18.0.0, SVG Export Plug-In . SVG Version: 6.00 Build 0)  -->
<!DOCTYPE svg PUBLIC "-//W3C//DTD SVG 1.1//EN" "http://www.w3.org/Graphics/SVG/1.1/DTD/svg11.dtd">
<svg version="1.1" id="Capa_1" xmlns="http://www.w3.org/2000/svg" xmlns:xlink="http://www.w3.org/1999/xlink" x="0px" y="0px"
	 viewBox="20 0 40 40" enable-background="new 20 0 40 40" xml:space="preserve">
<g>
	<path fill="#1A6BA0" d="M20,0v40h40V0H20z M34.4,29.2h-3.9V16.7h3.9V29.2z M32.4,15.2L32.4,15.2c-1.4,0-2.4-0.9-2.4-2.1
		s0.9-2.1,2.4-2.1c1.4,0,2.4,0.9,2.4,2.1S33.9,15.2,32.4,15.2z M50,29.2h-4.5v-6.5c0-1.6-0.7-2.8-2.2-2.8c-1.2,0-1.8,0.8-2.1,1.5
		c0,0.2,0,0.7,0,1.1v6.7h-4.4c0,0,0-11.4,0-12.5h4.4v2c0.2-0.8,1.6-2.1,3.9-2.1c2.8,0,4.9,1.8,4.9,5.6V29.2z"/>
	<rect x="30.5" y="16.7" fill="#FFFFFF" width="3.9" height="12.5"/>
	<path fill="#FFFFFF" d="M45.1,16.6c-2.2,0-3.6,1.2-3.9,2.1v-2h-4.4c0,1.1,0,12.5,0,12.5h4.4v-6.7c0-0.4,0-0.7,0.1-1.1
		c0.4-0.7,0.9-1.5,2.1-1.5c1.5,0,2.2,1.2,2.2,2.8v6.5h4.5v-6.9C50,18.4,47.9,16.6,45.1,16.6z"/>
	<path fill="#FFFFFF" d="M32.4,10.8c-1.4,0-2.4,0.9-2.4,2.1s0.9,2.1,2.4,2.1l0,0c1.4,0,2.4-0.9,2.4-2.1S33.9,10.8,32.4,10.8z"/>
</g>
</svg>
