<svg xmlns="http://www.w3.org/2000/svg" viewBox="20 0 40 40"><path fill="#1A6BA0" d="M20 0v40h40V0H20zm14.4 29.2h-3.9V16.7h3.9v12.5zm-2-14c-1.4 0-2.4-.9-2.4-2.1s.9-2.1 2.4-2.1c1.4 0 2.4.9 2.4 2.1s-.9 2.1-2.4 2.1zm17.6 14h-4.5v-6.5c0-1.6-.7-2.8-2.2-2.8-1.2 0-1.8.8-2.1 1.5V29.2h-4.4V16.7h4.4v2c.2-.8 1.6-2.1 3.9-2.1 2.8 0 4.9 1.8 4.9 5.6v7z"/><path fill="#FFF" d="M30.5 16.7h3.9v12.5h-3.9zM45.1 16.6c-2.2 0-3.6 1.2-3.9 2.1v-2h-4.4v12.5h4.4v-6.7c0-.4 0-.7.1-1.1.4-.7.9-1.5 2.1-1.5 1.5 0 2.2 1.2 2.2 2.8v6.5h4.5v-6.9c-.1-3.9-2.2-5.7-5-5.7zM32.4 10.8c-1.4 0-2.4.9-2.4 2.1s.9 2.1 2.4 2.1c1.4 0 2.4-.9 2.4-2.1s-.9-2.1-2.4-2.1z"/></svg>