<svg xmlns="http://www.w3.org/2000/svg" viewBox="0 0 40 40"><defs><style>.a{fill:#383838;}.b{fill:#fff;}</style></defs><title>myspace_hover</title><rect class="a" width="40" height="40"/><path class="b" d="M29.73,20.33a4.6,4.6,0,1,0-4.62-4.6A4.61,4.61,0,0,0,29.73,20.33Zm0.4,1.07H29.32a5.23,5.23,0,0,0-4.66,5.2v1.78a0.46,0.46,0,0,0,.46.47h9.23a0.47,0.47,0,0,0,.46-0.47V26.61A5.24,5.24,0,0,0,30.14,21.4ZM19,21.18A4.14,4.14,0,1,0,14.88,17,4.14,4.14,0,0,0,19,21.18Zm0.36,1H18.66a4.72,4.72,0,0,0-4.2,4.69v1.61a0.42,0.42,0,0,0,.41.41h8.3a0.42,0.42,0,0,0,.41-0.41V26.84A4.72,4.72,0,0,0,19.4,22.15ZM9.31,22a3.72,3.72,0,1,0-3.74-3.72A3.73,3.73,0,0,0,9.31,22Zm0.33,0.87H9A4.25,4.25,0,0,0,5.2,27v1.45a0.37,0.37,0,0,0,.38.37H13a0.37,0.37,0,0,0,.38-0.37V27A4.24,4.24,0,0,0,9.64,22.82Z"/></svg>