<?xml version="1.0" encoding="utf-8"?>
<!-- Generator: Adobe Illustrator 19.2.0, SVG Export Plug-In . SVG Version: 6.00 Build 0)  -->
<svg version="1.1" id="Layer_1" xmlns="http://www.w3.org/2000/svg" xmlns:xlink="http://www.w3.org/1999/xlink" x="0px" y="0px"
	 viewBox="0 0 40 40" style="enable-background:new 0 0 40 40;" xml:space="preserve">
<style type="text/css">
	.st0{fill:#034600;}
	.st1{fill:#FFFFFF;}
</style>
<title>newsvine_hover</title>
<rect class="st0" width="40" height="40"/>
<path class="st1" d="M19.3,26.4v-4.2l-2.4-1.7c-0.2,0.1-0.5,0.2-0.7,0.2c-0.8,0-1.5-0.6-1.5-1.4c0,0,0,0,0,0c0-0.8,0.7-1.5,1.5-1.5
	c0.8,0,1.5,0.7,1.5,1.5c0,0,0,0,0,0c0,0.1,0,0.2,0,0.3l1.7,1.2v-4.2l-2.4-1.7c-0.2,0.1-0.5,0.2-0.7,0.2c-0.8,0-1.5-0.7-1.5-1.5
	c0-0.8,0.7-1.5,1.5-1.5c0.8,0,1.5,0.7,1.5,1.5c0,0,0,0,0,0c0,0.1,0,0.2,0,0.3l1.7,1.2v-3.7h1.4V18l1.7-1.2c0-0.1,0-0.2,0-0.3
	c0-0.8,0.7-1.4,1.5-1.4c0.8,0,1.4,0.7,1.4,1.5c0,0.8-0.7,1.4-1.5,1.4c0,0,0,0,0,0c-0.3,0-0.5-0.1-0.7-0.2l-2.4,1.7v4.2l1.7-1.2
	c0-0.1,0-0.2,0-0.3c0-0.8,0.7-1.5,1.5-1.5c0.8,0,1.5,0.7,1.5,1.5c0,0,0,0,0,0c0,0.8-0.6,1.5-1.4,1.5c0,0,0,0,0,0
	c-0.3,0-0.5-0.1-0.7-0.2l-2.4,1.7v4.2l1.7-1.2c0-0.1,0-0.2,0-0.3c0-0.8,0.7-1.5,1.5-1.4s1.5,0.7,1.4,1.5c0,0.8-0.7,1.4-1.4,1.4
	c-0.3,0-0.5-0.1-0.7-0.2l-2.4,1.7v1.5h4.1c2,0,3.7-1.6,3.6-3.7c0,0,0,0,0,0V11.4c0-2-1.6-3.7-3.6-3.7h-9.6c-2,0-3.6,1.6-3.6,3.7
	v17.2c0,2,1.6,3.7,3.6,3.7h4.1v-4.4l-2.4-1.8c-0.2,0.1-0.5,0.2-0.7,0.2c-0.8,0-1.5-0.7-1.4-1.5c0-0.8,0.7-1.5,1.5-1.4
	c0.8,0,1.4,0.7,1.4,1.4c0,0.1,0,0.2,0,0.3L19.3,26.4L19.3,26.4L19.3,26.4z"/>
</svg>
