<svg xmlns="http://www.w3.org/2000/svg" viewBox="0 0 40 40"><defs><style>.a{fill:#980026;}.b{fill:#fff;}</style></defs><title>pinterest_hover</title><polygon class="a" points="0 0 0 40 40 40 40 0 0 0"/><path class="b" d="M17.2,30.07a14.31,14.31,0,0,0,1.13-2.16c0.1-.51.72-2.78,0.72-2.78a3.05,3.05,0,0,0,2.57,1.34c3.29,0,5.56-3,5.56-7a6.26,6.26,0,0,0-6.59-6c-4.84,0-7.41,3.5-7.41,6.38,0,1.85.72,3.4,2.06,3.91a0.35,0.35,0,0,0,.51-0.21A3.18,3.18,0,0,1,16,22.76a0.68,0.68,0,0,0-.1-0.62,3.1,3.1,0,0,1-.72-2.06,4.9,4.9,0,0,1,5-4.94c2.78,0,4.22,1.65,4.22,4,0,3-1.34,5.45-3.29,5.45a1.44,1.44,0,0,1-1.54-2,15.47,15.47,0,0,0,.93-3.6,1.41,1.41,0,0,0-1.34-1.54c-1.13,0-2,1.13-2,2.68a3,3,0,0,0,.41,1.54s-1.13,4.73-1.34,5.56a6.57,6.57,0,0,0-.1,2.47,10.31,10.31,0,1,1,14.41-9.47,10.62,10.62,0,0,1-10.5,10.19A9.3,9.3,0,0,1,17.2,30.07Z"/></svg>