<svg width="40" height="40" viewBox="0 0 40 40" xmlns="http://www.w3.org/2000/svg"><title>pocket_hover</title><g fill="none" fill-rule="evenodd"><path fill="#FF0042" d="M0 0v40h40V0"/><path fill="#B61234" d="M0 0v40h40V0"/><path d="M8.574 11.423c.567-1.276 1.587-1.592 2.914-1.582 5.894.046 11.788.02 17.682.02.68 0 1.393-.01 1.864.545.312.366.647.87.65 1.317.03 2.865.126 5.744-.098 8.595-.37 4.696-3.936 8.667-8.52 9.813-6.555 1.636-12.983-2.454-14.27-9.083-.093-.473-.15-.953-.222-1.43v-8.195zm11.623 8.893c-.305-.28-.58-.52-.843-.772-1.152-1.102-2.294-2.214-3.454-3.307-.75-.708-1.675-.696-2.34 0-.628.653-.627 1.634.06 2.3 1.79 1.738 3.594 3.46 5.41 5.172.733.69 1.51.736 2.23.065 1.876-1.747 3.74-3.51 5.55-5.327.916-.92.393-2.417-.875-2.697-.656-.145-1.153.166-1.607.605-1.36 1.313-2.728 2.618-4.13 3.96z" fill="#FFF"/></g></svg>