<svg xmlns="http://www.w3.org/2000/svg" viewBox="0 0 40 40"><defs><style>.a{fill:#ff0042;}.b{fill:#fff;}</style></defs><title>pocket</title><polygon class="a" points="0 0 0 40 40 40 40 0 0 0"/><polygon class="a" points="0 0 0 40 40 40 40 0 0 0"/><path class="b" d="M8.57,11.42a2.73,2.73,0,0,1,2.91-1.58c5.89,0,11.79,0,17.68,0A2.24,2.24,0,0,1,31,10.4a2.37,2.37,0,0,1,.65,1.32c0,2.87.13,5.74-.1,8.6a11.25,11.25,0,0,1-8.52,9.81A11.57,11.57,0,0,1,8.8,21c-0.09-.47-0.15-1-0.22-1.43q0-4.1,0-8.19h0ZM20.2,20.32c-0.31-.28-0.58-0.52-0.84-0.77-1.15-1.1-2.29-2.21-3.45-3.31a1.56,1.56,0,0,0-2.34,0,1.59,1.59,0,0,0,.06,2.3q2.69,2.61,5.41,5.17a1.47,1.47,0,0,0,2.23.07C23.14,22,25,20.26,26.81,18.45a1.6,1.6,0,0,0-.87-2.7,1.71,1.71,0,0,0-1.61.6l-4.13,4h0Z"/></svg>