<svg width="40" height="40" viewBox="0 0 40 40" xmlns="http://www.w3.org/2000/svg" xmlns:xlink="http://www.w3.org/1999/xlink"><title>reddit_hover</title><defs><path id="a" d="M0 0h40v40H0z"/></defs><g fill="none" fill-rule="evenodd"><g><use fill="#F43F06" xlink:href="#a"/><use fill="#AE3308" xlink:href="#a"/></g><path d="M31.588 18.076c-.91-1.243-2.6-1.508-3.903-.6-.167.115-.273.108-.432.01-1.13-.69-2.35-1.153-3.63-1.464-.978-.242-1.985-.348-3.016-.424.508-1.47 1.015-2.902 1.53-4.335.077-.204.198-.13.334-.098 1.108.265 2.206.538 3.313.78.265.06.38.167.424.447.167 1.114 1.084 1.91 2.19 1.925 1.114.015 2.092-.765 2.29-1.826.204-1.113-.395-2.19-1.44-2.583-1.04-.387-2.2.007-2.752.977-.16.273-.303.288-.56.22-1.312-.326-2.63-.62-3.934-.962-.325-.084-.415.015-.514.303-.553 1.622-1.137 3.228-1.698 4.85-.083.242-.19.31-.447.326-2.355.107-4.59.637-6.63 1.865-.174.1-.28.068-.432-.038-.674-.477-1.424-.63-2.228-.44-1.106.258-1.826.963-2.09 2.062-.274 1.136.09 2.09.976 2.84.107.1.228.152.197.357-.204 1.47.243 2.766 1.114 3.933.857 1.13 1.963 1.963 3.23 2.57 3.553 1.69 7.236 1.878 10.987.795 1.986-.576 3.76-1.546 5.093-3.176.955-1.168 1.455-2.5 1.28-4.032-.022-.174.016-.288.167-.41 1.243-.977 1.486-2.637.584-3.872zm-3.145-7.434c.773.007 1.394.63 1.387 1.402 0 .765-.637 1.402-1.402 1.402-.78 0-1.417-.652-1.402-1.432.007-.773.636-1.38 1.417-1.372zM9.14 18.554c.615-.81 1.72-.993 2.57-.417-1 .81-1.834 1.758-2.304 2.978-.765-.637-.87-1.766-.265-2.56zm19.985 6.964c-1.076 1.516-2.6 2.395-4.305 3.01-1.56.575-3.182.817-4.834.81-2.304-.008-4.517-.448-6.556-1.57-1.053-.575-1.978-1.31-2.652-2.318-1.09-1.614-1.09-3.494.015-5.108.917-1.334 2.198-2.22 3.683-2.804 4.054-1.576 8.063-1.493 11.98.462 1.062.53 1.972 1.28 2.66 2.26 1.176 1.666 1.19 3.598.01 5.258zm1.425-4.365c-.478-1.235-1.29-2.183-2.28-2.986.673-.614 1.908-.432 2.522.318.66.81.568 1.986-.242 2.668zm-7.192 4.524c-.296.258-.637.47-1.008.584-2.008.63-3.963.743-5.752-.643-.205-.152-.41-.137-.583.037-.19.197-.175.417 0 .614.242.265.545.455.856.622.963.5 2.002.674 3.26.682.22.007.62-.03 1.023-.09 1.007-.153 1.962-.464 2.766-1.13.234-.19.332-.432.105-.682-.212-.228-.44-.19-.667.007zm.326-5.774c-.948 0-1.713.765-1.72 1.705-.008.962.772 1.727 1.735 1.72.946-.008 1.696-.766 1.69-1.72 0-.948-.76-1.705-1.706-1.705zm-5.44 1.712c0-.94-.774-1.705-1.714-1.712-.947-.008-1.72.75-1.728 1.69-.015.947.743 1.72 1.69 1.735.962.007 1.75-.758 1.75-1.713z" fill="#FFF"/></g></svg>