<svg xmlns="http://www.w3.org/2000/svg" viewBox="40 0 40 40"><path fill="#F39200" d="M40 0v40h40V0H40zm14.6 29.2c-.5.5-1.2.8-1.9.8s-1.4-.4-1.9-.8c-.4-.5-.8-1.2-.8-1.9s.4-1.4.8-1.9c.5-.5 1.2-.8 1.9-.8s1.4.4 1.9.8c.5.5.8 1.2.8 1.9-.1.8-.3 1.4-.8 1.9zm4.8.8c0-2.5-.9-4.8-2.7-6.6-1.8-1.8-4.1-2.7-6.6-2.7v-3.8c3.6 0 6.9 1.5 9.3 3.9s3.9 5.6 3.9 9.3l-3.9-.1zm6.8 0c0-8.9-7.3-16.2-16.1-16.2V10c5.5 0 10.5 2.2 14.1 5.9 3.6 3.7 5.9 8.6 5.9 14.1h-3.9z"/><path fill="none" d="M54.6 25.5"/><path fill="#FFF" d="M50 16.8v3.8c2.5 0 4.8.9 6.6 2.7 1.8 1.8 2.7 4.1 2.7 6.6h3.9c0-3.6-1.5-6.9-3.9-9.3-2.4-2.2-5.7-3.8-9.3-3.8zM50.8 29.2z"/><path fill="#FFF" d="M50 10v3.8c8.9 0 16.1 7.3 16.1 16.2H70c0-5.5-2.2-10.5-5.9-14.1C60.5 12.2 55.5 10 50 10zM52.7 24.7c-.7 0-1.4.4-1.9.8-.4.5-.8 1.2-.8 1.9s.4 1.4.8 1.9c.5.5 1.2.8 1.9.8s1.4-.4 1.9-.8c.5-.5.8-1.2.8-1.9s-.4-1.4-.8-1.9c-.6-.6-1.2-.8-1.9-.8z"/></svg>