<?xml version="1.0" encoding="utf-8"?>
<!-- Generator: Adobe Illustrator 18.0.0, SVG Export Plug-In . SVG Version: 6.00 Build 0)  -->
<!DOCTYPE svg PUBLIC "-//W3C//DTD SVG 1.1//EN" "http://www.w3.org/Graphics/SVG/1.1/DTD/svg11.dtd">
<svg version="1.1" id="Capa_1" xmlns="http://www.w3.org/2000/svg" xmlns:xlink="http://www.w3.org/1999/xlink" x="0px" y="0px"
	 viewBox="40 0 40 40" enable-background="new 40 0 40 40" xml:space="preserve">
<g>
	<path fill="#C27613" d="M40,0v40h40V0H40z M54.6,29.2L54.6,29.2c-0.5,0.5-1.2,0.8-1.9,0.8s-1.4-0.4-1.9-0.8l0,0l0,0l0,0
		C50.4,28.7,50,28,50,27.3s0.4-1.4,0.8-1.9l0,0c0.5-0.5,1.2-0.8,1.9-0.8s1.4,0.4,1.9,0.8l0,0l0,0c0.5,0.5,0.8,1.2,0.8,1.9
		C55.3,28.1,55.1,28.7,54.6,29.2z M59.4,30L59.4,30c0-2.5-0.9-4.8-2.7-6.6c-1.8-1.8-4.1-2.7-6.6-2.7v-3.8c3.6,0,6.9,1.5,9.3,3.9
		s3.9,5.6,3.9,9.3L59.4,30L59.4,30z M66.2,30c0-8.9-7.3-16.2-16.1-16.2V10c5.5,0,10.5,2.2,14.1,5.9c3.6,3.7,5.9,8.6,5.9,14.1H66.2z"
		/>
	<line fill="none" x1="54.6" y1="25.5" x2="54.6" y2="25.5"/>
	<path fill="#FFFFFF" d="M50,16.8v3.8c2.5,0,4.8,0.9,6.6,2.7c1.8,1.8,2.7,4.1,2.7,6.6l0,0h3.9c0-3.6-1.5-6.9-3.9-9.3
		C56.9,18.4,53.6,16.8,50,16.8z"/>
	<path fill="#FFFFFF" d="M50.8,29.2L50.8,29.2L50.8,29.2z"/>
	<path fill="#FFFFFF" d="M50,10v3.8c8.9,0,16.1,7.3,16.1,16.2H70c0-5.5-2.2-10.5-5.9-14.1C60.5,12.2,55.5,10,50,10z"/>
	<path fill="#FFFFFF" d="M52.7,24.7c-0.7,0-1.4,0.4-1.9,0.8l0,0C50.4,26,50,26.7,50,27.4c0,0.7,0.4,1.4,0.8,1.9
		c0.5,0.5,1.2,0.8,1.9,0.8s1.4-0.4,1.9-0.8l0,0c0.5-0.5,0.8-1.2,0.8-1.9c0-0.7-0.4-1.4-0.8-1.9C54,24.9,53.4,24.7,52.7,24.7z"/>
</g>
</svg>
