<svg xmlns="http://www.w3.org/2000/svg" viewBox="20 0 40 40"><path fill="#1E96D3" d="M44.2 19.8c-.5-.2-.9-.6-1.6-.7-.6-.2-1.3-.4-2.1-.6-.6-.1-1.1-.2-1.3-.4-.2-.1-.5-.1-.8-.4-.2-.1-.5-.2-.6-.5-.1-.1-.1-.2-.1-.5 0-.4.2-.7.6-.9.5-.2.9-.4 1.6-.4s1.3.1 1.6.4c.4.2.6.6.8 1.1.2.4.4.6.6.7.2.1.5.2.8.2.4 0 .7-.1.9-.4.2-.2.4-.6.4-.9s-.1-.7-.4-1.1c-.2-.4-.5-.7-.9-1.1-.5-.4-.9-.6-1.5-.8-.6-.2-1.4-.2-2.2-.2-1.1 0-2 .1-2.8.5-.8.4-1.4.7-1.9 1.3-.5.6-.7 1.2-.7 1.9s.2 1.4.6 1.9c.4.5.9.9 1.6 1.2.7.2 1.5.6 2.5.7.7.1 1.3.4 1.8.5s.7.4 1.1.6c.2.2.4.6.4.9 0 .5-.2.8-.7 1.2-.5.4-1.2.5-1.9.5-.6 0-1.1-.1-1.4-.2-.4-.1-.6-.4-.8-.6-.2-.2-.4-.6-.6-.9-.1-.4-.4-.6-.6-.8-.2-.2-.5-.2-.8-.2-.4 0-.7.1-.9.4s-.4.6-.4.9c0 .6.2 1.2.6 1.8.4.6.9 1.1 1.5 1.4.9.5 2 .7 3.4.7 1.2 0 2.1-.2 2.9-.5.8-.4 1.5-.8 1.9-1.5.5-.6.7-1.3.7-2.1 0-.7-.1-1.2-.4-1.6 0-.9-.4-1.3-.9-1.5z"/><path fill="#1D78AA" d="M20 0v40h40V0H20zm24.5 30.1c-.9 0-1.9-.2-2.6-.7-.6.1-1.2.1-1.8.1-5.3 0-9.5-4.2-9.5-9.5 0-.6 0-1.2.2-1.8-.5-.8-.7-1.8-.7-2.8 0-3.1 2.5-5.5 5.5-5.5 1.1 0 2.1.4 2.9.8.5-.1.9-.1 1.5-.1 5.3 0 9.5 4.2 9.5 9.5 0 .7-.1 1.4-.2 2 .4.7.6 1.5.6 2.5.1 3-2.4 5.5-5.4 5.5z"/><path fill="#FFF" d="M49.6 20.1c0-5.3-4.2-9.5-9.5-9.5-.6 0-1.1 0-1.6.1-.8-.6-1.9-.8-2.9-.8-3.1 0-5.5 2.5-5.5 5.5 0 1.1.2 2 .7 2.8-.1.6-.1 1.2-.1 1.9 0 5.3 4.2 9.5 9.5 9.5.6 0 1.2 0 1.8-.1.8.5 1.6.7 2.6.7 3.1 0 5.5-2.5 5.5-5.5 0-.9-.2-1.8-.6-2.5 0-.7.1-1.4.1-2.1zm-4.5 4.6c-.5.6-1.1 1.2-1.9 1.5-.8.4-1.9.5-2.9.5-1.4 0-2.5-.2-3.4-.7-.6-.4-1.2-.8-1.5-1.4-.4-.6-.6-1.2-.6-1.8 0-.4.1-.7.4-.9.2-.2.6-.4.9-.4s.6.1.8.2c.2.2.4.5.6.8.1.4.4.7.6.9.2.2.5.5.8.6.4.1.8.2 1.4.2.8 0 1.4-.1 1.9-.5s.7-.7.7-1.2c0-.4-.1-.7-.4-.9-.2-.2-.6-.5-1.1-.6s-1.1-.2-1.8-.5c-.9-.2-1.9-.5-2.5-.7-.7-.2-1.3-.7-1.6-1.2-.4-.5-.6-1.2-.6-1.9s.2-1.4.7-1.9c.5-.6 1.1-.9 1.9-1.3.8-.2 1.8-.5 2.8-.5.8 0 1.6.1 2.2.2.6.2 1.2.5 1.5.8.5.4.7.7.9 1.1.2.4.4.7.4 1.1 0 .4-.1.7-.4.9s-.6.4-.9.4-.6-.1-.8-.2-.4-.4-.6-.7c-.2-.5-.5-.8-.8-1.1-.4-.2-.8-.4-1.6-.4-.7 0-1.3.1-1.6.4-.8.4-.9.7-.9 1.1 0 .2.1.4.2.6.1.1.4.4.6.5.2.1.5.2.8.4.2.1.7.2 1.3.4.8.1 1.5.4 2.1.6.6.2 1.2.5 1.6.7.5.4.8.7 1.1 1.2.2.5.4 1.1.4 1.6-.2.7-.4 1.4-.7 2.1z"/></svg>