<?xml version="1.0" encoding="utf-8"?>
<!-- Generator: Adobe Illustrator 19.2.0, SVG Export Plug-In . SVG Version: 6.00 Build 0)  -->
<svg version="1.1" id="Layer_1" xmlns:sketch="http://www.bohemiancoding.com/sketch/ns"
	 xmlns="http://www.w3.org/2000/svg" xmlns:xlink="http://www.w3.org/1999/xlink" x="0px" y="0px" viewBox="0 0 40 40"
	 style="enable-background:new 0 0 40 40;" xml:space="preserve">
<style type="text/css">
	.st0{fill:#008D8E;}
	.st1{fill:#0CA7A9;}
	.st2{fill:#FDFEFE;}
</style>
<rect y="0" class="st0" width="40" height="40"/>
<title>arto_hover</title>
<desc>Created with Sketch.</desc>
<g>
	<path class="st1" d="M390.1,626.1c0-20.3,0-40.6,0-60.9c0-0.4,0.1-0.6,0.6-0.6c20.3,0,40.6,0,60.9,0c0,20.2,0,40.5,0,60.7
		c0,0.6-0.1,0.7-0.7,0.7C430.6,626.1,410.4,626.1,390.1,626.1z M400.6,594.7c-0.3-0.2-0.5-0.4-0.8-0.5c-0.5-0.2-0.9-0.3-1.3,0.2
		c-0.4,0.4-0.3,0.9-0.1,1.3c0.2,0.5,0.6,0.8,1,1.2c2.3,2.3,5.1,4,8.1,5.3c0.5,0.2,0.7,0.4,0.5,1c-0.8,2.8-1,5.7-0.3,8.6
		c0.9,3.5,3.9,7,8.3,6.7c1.8-0.1,3.1-1,3.9-2.6c0.3-0.6,0.4-1.3,0.4-2c0-2.8,0-5.6,0-8.3c0-0.2-0.1-0.4,0.2-0.5c0.5-0.1,1,0.3,1,0.8
		c0,2.7,0,5.4,0,8.1c0,2.2,1.3,3.9,3.5,4.4c1.9,0.4,3.8,0.1,5.5-1.1c2.5-1.7,3.6-4.2,4-7.2c0.3-2.4-0.1-4.6-0.6-6.9
		c-0.1-0.5-0.1-0.7,0.5-1c3-1.3,5.9-3,8.2-5.4c0.4-0.4,0.8-0.8,0.9-1.3c0.1-0.4,0.1-0.9-0.2-1.2c-0.4-0.3-0.8-0.2-1.2,0
		c-0.2,0.1-0.4,0.4-0.7,0.4c0-0.3,0-0.5,0-0.7c0-5.7,0-11.4,0-17.2c0-2.2-1.8-4.2-4-4.2c-10.9,0-21.7,0-32.6,0
		c-0.7,0-1.3,0.2-1.9,0.6c-1.4,0.9-2.1,2.3-2.1,4c0,5.6,0,11.2,0,16.8C400.6,594.1,400.6,594.4,400.6,594.7z"/>
	<path class="st2" d="M390.1,626.1c20.2,0,40.5,0,60.7,0c0.6,0,0.7-0.1,0.7-0.7c0-20.2,0-40.5,0-60.7c0.2,0.1,0.1,0.3,0.1,0.5
		c0,2.5,0,5,0,7.5c0,17.7,0,35.4,0,53c0,0.4-0.1,0.6-0.6,0.6c-20.2,0-40.3,0-60.5,0C390.5,626.2,390.3,626.4,390.1,626.1z"/>
	<path class="st2" d="M400.6,594.7c0-0.3,0-0.6,0-0.8c0-5.6,0-11.2,0-16.8c0-1.7,0.7-3.1,2.1-4c0.6-0.4,1.2-0.6,1.9-0.6
		c10.9,0,21.7,0,32.6,0c2.1,0,4,2,4,4.2c0,5.7,0,11.4,0,17.2c0,0.2,0,0.4,0,0.7c0.3-0.1,0.5-0.3,0.7-0.4c0.4-0.2,0.8-0.3,1.2,0
		c0.4,0.3,0.4,0.8,0.2,1.2c-0.2,0.5-0.6,0.9-0.9,1.3c-2.3,2.4-5.2,4.1-8.2,5.4c-0.5,0.2-0.6,0.4-0.5,1c0.6,2.3,1,4.6,0.6,6.9
		c-0.4,2.9-1.5,5.4-4,7.2c-1.6,1.1-3.5,1.5-5.5,1.1c-2.2-0.5-3.5-2.2-3.5-4.4c0-2.7,0-5.4,0-8.1c0-0.5-0.6-0.9-1-0.8
		c-0.3,0.1-0.2,0.3-0.2,0.5c0,2.8,0,5.6,0,8.3c0,0.7-0.1,1.4-0.4,2c-0.8,1.7-2.1,2.5-3.9,2.6c-4.4,0.3-7.5-3.2-8.3-6.7
		c-0.7-2.9-0.5-5.8,0.3-8.6c0.2-0.6,0-0.8-0.5-1c-3-1.3-5.7-2.9-8.1-5.3c-0.4-0.4-0.7-0.7-1-1.2c-0.2-0.4-0.3-0.9,0.1-1.3
		c0.4-0.4,0.8-0.4,1.3-0.2C400.1,594.3,400.3,594.5,400.6,594.7z M421,575c-4.9,0-9.8,0-14.8,0c-1.8,0-2.8,0.9-3,2.5
		c-0.1,0.7-0.1,1.3-0.1,2c0,5.4,0,10.8,0,16.3c0,0.4,0.1,0.6,0.4,0.7c3,1.5,6.2,2.2,9.5,2.4c1.6,0.1,3.2-0.1,4.7-0.1
		c0.8,0,1.4,0.2,2,0.8c0.4,0.4,0.9,0.8,1.4,1.2c0.2,0.2,0.3,0.1,0.4-0.1c0.6-1.5,1.1-1.8,2.7-1.8c1.8,0,3.7,0.2,5.5,0
		c3.1-0.2,6-1.1,8.8-2.4c0.3-0.1,0.4-0.3,0.4-0.6c0-5.8,0-11.6,0-17.5c0-2.1-1.2-3.2-3.3-3.2C430.7,575,425.8,575,421,575z"/>
	<path class="st1" d="M421,575c4.9,0,9.7,0,14.6,0c2.1,0,3.3,1.1,3.3,3.2c0,5.8,0,11.6,0,17.5c0,0.3-0.1,0.5-0.4,0.6
		c-2.8,1.4-5.7,2.2-8.8,2.4c-1.8,0.1-3.7,0-5.5,0c-1.6,0-2.1,0.4-2.7,1.8c-0.1,0.2-0.2,0.3-0.4,0.1c-0.5-0.4-0.9-0.8-1.4-1.2
		c-0.6-0.5-1.2-0.8-2-0.8c-1.6,0-3.1,0.2-4.7,0.1c-3.3-0.2-6.5-0.9-9.5-2.4c-0.3-0.2-0.4-0.4-0.4-0.7c0-5.4,0-10.8,0-16.3
		c0-0.7,0-1.3,0.1-2c0.2-1.6,1.2-2.5,3-2.5C411.1,575,416,575,421,575z M414.7,596.7c0.5,0,0.9,0,1.4-0.1c4-0.8,5.6-5.5,2.9-8.4
		c-2-2.2-5.6-2.5-7.9-0.6c-2.1,1.8-2.6,4.6-1,6.8C411.2,595.9,412.8,596.7,414.7,596.7z M427.8,596.7c0.2,0,0.7-0.1,1.1-0.1
		c4-0.8,5.6-5.4,3-8.5c-2.1-2.3-6-2.4-8.3-0.2c-1.8,1.8-2,4.5-0.5,6.5C424.2,596,425.7,596.7,427.8,596.7z"/>
	<path class="st2" d="M414.7,596.7c-1.9-0.1-3.5-0.8-4.6-2.4c-1.5-2.2-1.1-5,1-6.8c2.3-1.9,5.9-1.6,7.9,0.6c2.7,3,1.1,7.6-2.9,8.4
		C415.6,596.7,415.1,596.7,414.7,596.7z"/>
	<path class="st2" d="M427.8,596.7c-2.1-0.1-3.6-0.8-4.7-2.3c-1.5-2-1.3-4.7,0.5-6.5c2.3-2.3,6.2-2.2,8.3,0.2c2.7,3,1.1,7.6-3,8.5
		C428.4,596.7,428,596.8,427.8,596.7z"/>
</g>
<g>
	<path class="st2" d="M7.6,19.5c0-0.2,0-0.3,0-0.5c0-3.4,0-6.9,0-10.3c0-1,0.4-1.9,1.3-2.4C9.3,6.1,9.6,5.9,10,5.9
		c6.6,0,13.3,0,19.9,0c1.3,0,2.4,1.2,2.4,2.6c0,3.5,0,7,0,10.5c0,0.1,0,0.3,0,0.4c0.2,0,0.3-0.2,0.5-0.2c0.3-0.1,0.5-0.2,0.8,0
		c0.2,0.2,0.2,0.5,0.1,0.7c-0.1,0.3-0.3,0.6-0.6,0.8c-1.4,1.5-3.2,2.5-5,3.3c-0.3,0.1-0.4,0.3-0.3,0.6c0.4,1.4,0.6,2.8,0.4,4.2
		c-0.2,1.8-0.9,3.3-2.5,4.4c-1,0.7-2.2,0.9-3.3,0.7c-1.3-0.3-2.1-1.3-2.1-2.7c0-1.7,0-3.3,0-5c0-0.3-0.4-0.6-0.6-0.5
		c-0.2,0.1-0.1,0.2-0.1,0.3c0,1.7,0,3.4,0,5.1c0,0.4-0.1,0.8-0.2,1.2c-0.5,1-1.3,1.5-2.4,1.6c-2.7,0.2-4.6-1.9-5.1-4.1
		c-0.4-1.8-0.3-3.5,0.2-5.3c0.1-0.3,0-0.5-0.3-0.6c-1.8-0.8-3.5-1.8-4.9-3.2c-0.2-0.2-0.4-0.5-0.6-0.7c-0.1-0.3-0.2-0.5,0-0.8
		c0.2-0.3,0.5-0.2,0.8-0.1C7.3,19.3,7.4,19.4,7.6,19.5z M20.1,7.4c-3,0-6,0-9,0C10,7.4,9.3,8,9.2,9c0,0.4-0.1,0.8-0.1,1.2
		c0,3.3,0,6.6,0,9.9c0,0.2,0.1,0.3,0.3,0.4c1.8,0.9,3.8,1.4,5.8,1.5c1,0,1.9-0.1,2.9-0.1c0.5,0,0.9,0.1,1.2,0.5
		c0.3,0.3,0.6,0.5,0.8,0.7c0.1,0.1,0.2,0.1,0.2-0.1c0.3-0.9,0.7-1.1,1.6-1.1c1.1,0,2.2,0.1,3.4,0c1.9-0.2,3.7-0.6,5.4-1.5
		c0.2-0.1,0.2-0.2,0.2-0.4c0-3.6,0-7.1,0-10.7c0-1.3-0.7-2-2-2C26,7.4,23.1,7.4,20.1,7.4z"/>
	<path class="st2" d="M16.2,20.7c-1.2,0-2.2-0.5-2.8-1.5c-0.9-1.3-0.7-3.1,0.6-4.1c1.4-1.2,3.6-1,4.8,0.4c1.6,1.8,0.6,4.7-1.8,5.2
		C16.8,20.7,16.5,20.7,16.2,20.7z"/>
	<path class="st2" d="M24.2,20.7c-1.3,0-2.2-0.5-2.9-1.4c-0.9-1.2-0.8-2.9,0.3-4c1.4-1.4,3.8-1.3,5.1,0.1c1.6,1.9,0.6,4.7-1.8,5.2
		C24.7,20.7,24.4,20.8,24.2,20.7z"/>
</g>
</svg>
