<svg xmlns="http://www.w3.org/2000/svg" viewBox="0 0 40 40"><defs><style>.a{fill:#386cc7;}.b{fill:#375096;}.c{fill:#fff;}</style></defs><title>sonico_hover</title><rect class="a" width="40" height="40"/><rect class="b" width="40" height="40"/><path class="c" d="M17.3,19.92l1.79-.66c0.1,0,.15,0,0.2.09q0.76,2.1,1.53,4.2a1,1,0,0,1,0,.11c0,0.08,0,.1-0.09.12l-2,.72c-0.15.06-.16-0.05-0.2-0.14l-0.67-1.83c-0.27-.73-0.54-1.46-0.79-2.19C17,20,17,20,17.3,19.92h0Zm-3.16,1.15,1.94-.7,0.06,0c0.09,0,.1,0,0.12.1l1.37,3.77,0.17,0.45c0,0.11,0,.18-0.1.23-0.63.22-1.25,0.45-1.87,0.69-0.17.06-.21,0-0.26-0.14l-1-2.81c-0.16-.45-0.32-0.9-0.5-1.34,0-.12,0-0.18.08-0.22h0Zm6.22,10.76A7.22,7.22,0,0,1,16.9,32a6.81,6.81,0,0,1-4.62-3.38A17.56,17.56,0,0,1,11.18,26l-0.36-1A0.17,0.17,0,0,1,11,24.77q1.29-.45,2.58-0.94c0.17-.07.23,0,0.29,0.14a18.43,18.43,0,0,0,1.28,3,3.6,3.6,0,0,0,3,1.85,3.64,3.64,0,0,0,3.43-1.65,3.86,3.86,0,0,0,.49-3.33,25.47,25.47,0,0,0-.86-2.55c-0.05-.14-0.05-0.23.12-0.29L24,20c0.12,0,.16,0,0.2.09a37.05,37.05,0,0,1,1.26,3.78,5.08,5.08,0,0,1,.1,1,7.12,7.12,0,0,1-5.17,6.89h0Zm8.8-23.27Q28.59,9.89,28,11.23a0.19,0.19,0,0,1-.29.13,3.85,3.85,0,0,0-5,4.64,22.9,22.9,0,0,0,.91,2.76c0.07,0.18,0,.22-0.13.27l-2.63,1c-0.11,0-.17.05-0.22-0.08-0.39-1.08-.82-2.16-1.13-3.26a6.32,6.32,0,0,1,.31-4.43c2.53-5.63,8.17-4.3,9.16-3.94,0.16,0.06.19,0.11,0.12,0.27h0Z"/></svg>