<svg width="40" height="40" viewBox="0 0 40 40" xmlns="http://www.w3.org/2000/svg" xmlns:xlink="http://www.w3.org/1999/xlink"><title>spotify_hover</title><defs><path id="a" d="M0 0h40v40H0z"/><path d="M17.198 8.298c-.137-.054-.352-.122-.558-.222C12.977 6.268 9.154 6.06 5.215 6.873c-.13.023-.252.06-.382.084-.612.115-1.14-.007-1.3-.682-.16-.674.252-1.034.85-1.21 1.253-.368 2.553-.544 3.853-.575 3.12-.084 6.18.268 9.016 1.693.29.146.58.307.818.52.32.293.36.69.168 1.082-.183.383-.512.574-1.04.513z" id="b"/><path d="M8.978 7.97c2.508.045 4.9.543 7.127 1.753.504.276 1.024.598.68 1.28-.35.69-.902.46-1.422.184-3.067-1.625-6.294-1.93-9.65-1.173-.092.023-.192.04-.284.062-.52.107-1.025.084-1.17-.537-.146-.598.236-.89.772-1.035C6.316 8.153 7.64 8 8.978 7.97z" id="c"/><path d="M9.322 11.47c1.843.023 3.8.43 5.597 1.448.405.23.88.49.573 1.05-.29.536-.765.345-1.193.115-2.585-1.44-5.338-1.502-8.16-.98-.19.038-.382.084-.573.107-.428.068-.818-.03-.91-.506-.1-.498.268-.705.68-.782 1.255-.253 2.51-.42 3.985-.452z" id="d"/></defs><g fill="none" fill-rule="evenodd"><g><use fill="#7DC112" xlink:href="#a"/><use fill-opacity=".25" fill="#000" xlink:href="#a"/></g><path d="M19.81 10.008c5.002-.008 8.97 2.796 10.41 6.942 1.42 4.1.098 8.765-3.182 11.447-.543.444-.765.39-1.186-.146-3.02-3.845-8.794-4.596-12.71-1.63-.603.46-.833.32-1.177-.208-2.263-3.455-2.623-7.087-.734-10.765 1.89-3.685 5.056-5.494 8.58-5.64z" fill="#FEFEFE"/><path d="M15.452 29.485c1.89-1.977 5.46-1.755 6.982.383.2.276.55.613-.122.728-2.41.43-4.688.092-6.86-1.11z" fill="#FDFEFD"/><g transform="translate(10 10)"><use fill="#7DC112" xlink:href="#b"/><use fill-opacity=".25" fill="#000" xlink:href="#b"/></g><g transform="translate(10 10)"><use fill="#7DC112" xlink:href="#c"/><use fill-opacity=".25" fill="#000" xlink:href="#c"/></g><g transform="translate(10 10)"><use fill="#7DC112" xlink:href="#d"/><use fill-opacity=".25" fill="#000" xlink:href="#d"/></g></g></svg>