<svg id="Layer_1" xmlns="http://www.w3.org/2000/svg" viewBox="0 0 40 40"><style>.st0{fill:#7DC112;} .st1{fill:#FEFEFE;} .st2{fill:#FDFEFD;} .st3{fill:#7DC111;} .st4{fill:#7DC212;}</style><title>spotify</title><g id="Page-1"><g id="spotify"><path id="bg" class="st0" d="M0 0h40v40H0z"/><g id="icon"><path id="Shape" class="st1" d="M19.4 9.544c5 0 9 2.8 10.4 6.9 1.4 4.1.1 8.8-3.2 11.4-.5.4-.8.4-1.2-.1-3-3.8-8.8-4.6-12.7-1.6-.6.5-.8.3-1.2-.2-2.3-3.5-2.6-7.1-.7-10.8 1.9-3.6 5.1-5.4 8.6-5.6z"/><path id="Shape_1_" class="st2" d="M15.1 29.044c1.9-2 5.5-1.8 7 .4.2.3.6.6-.1.7-2.5.5-4.8.1-6.9-1.1z"/><path id="Shape_2_" class="st3" d="M26.8 17.844c-.1-.1-.4-.1-.6-.2-3.7-1.8-7.5-2-11.4-1.2-.1 0-.3.1-.4.1-.6.1-1.1 0-1.3-.7-.2-.7.3-1 .8-1.2 1.3-.4 2.6-.5 3.9-.6 3.1-.1 6.2.3 9 1.7.3.1.6.3.8.5.3.3.4.7.2 1.1-.1.4-.5.6-1 .5z"/><path id="Shape_3_" class="st0" d="M18.6 17.544c2.5 0 4.9.5 7.1 1.8.5.3 1 .6.7 1.3-.4.7-.9.5-1.4.2-3.1-1.6-6.3-1.9-9.7-1.2-.1 0-.2 0-.3.1-.5.1-1 .1-1.2-.5-.1-.6.2-.9.8-1 1.3-.5 2.6-.7 4-.7z"/><path id="Shape_4_" class="st4" d="M18.9 21.044c1.8 0 3.8.4 5.6 1.4.4.2.9.5.6 1-.3.5-.8.3-1.2.1-2.6-1.4-5.3-1.5-8.2-1-.2 0-.4.1-.6.1-.4.1-.8 0-.9-.5-.1-.5.3-.7.7-.8 1.3-.1 2.5-.3 4-.3z"/></g></g></g></svg>