<svg xmlns="http://www.w3.org/2000/svg" viewBox="0 0 40 40"><defs><style>.a{fill:#7dc112;}.b{fill-opacity:0.25;}.c{fill:#fefefe;}.d{fill:#fdfefd;}</style></defs><title>spotify_hover</title><rect class="a" width="40" height="40"/><rect class="b" width="40" height="40"/><path class="c" d="M19.81,10c5,0,9,2.8,10.41,6.94A10.5,10.5,0,0,1,27,28.4c-0.54.44-.76,0.39-1.19-0.15a9.25,9.25,0,0,0-12.71-1.63c-0.6.46-.83,0.32-1.18-0.21a10.11,10.11,0,0,1-.73-10.77A9.82,9.82,0,0,1,19.81,10h0Z"/><path class="d" d="M15.45,29.48a4.72,4.72,0,0,1,7,.38c0.2,0.28.55,0.61-.12,0.73a10.07,10.07,0,0,1-6.86-1.11h0Z"/><path class="a" d="M27.2,18.3c-0.14-.05-0.35-0.12-0.56-0.22a17.19,17.19,0,0,0-11.42-1.2L14.83,17a1,1,0,0,1-1.3-.68,1,1,0,0,1,.85-1.21,14.94,14.94,0,0,1,3.85-.57,18.55,18.55,0,0,1,9,1.69,3.62,3.62,0,0,1,.82.52,0.86,0.86,0,0,1,.17,1.08,0.91,0.91,0,0,1-1,.51h0Z"/><path class="b" d="M27.2,18.3c-0.14-.05-0.35-0.12-0.56-0.22a17.19,17.19,0,0,0-11.42-1.2L14.83,17a1,1,0,0,1-1.3-.68,1,1,0,0,1,.85-1.21,14.94,14.94,0,0,1,3.85-.57,18.55,18.55,0,0,1,9,1.69,3.62,3.62,0,0,1,.82.52,0.86,0.86,0,0,1,.17,1.08,0.91,0.91,0,0,1-1,.51h0Z"/><path class="a" d="M19,18a15.21,15.21,0,0,1,7.13,1.75c0.5,0.28,1,.6.68,1.28s-0.9.46-1.42,0.18A13.57,13.57,0,0,0,15.71,20l-0.28.06A0.83,0.83,0,1,1,15,18.5,16.27,16.27,0,0,1,19,18h0Z"/><path class="b" d="M19,18a15.21,15.21,0,0,1,7.13,1.75c0.5,0.28,1,.6.68,1.28s-0.9.46-1.42,0.18A13.57,13.57,0,0,0,15.71,20l-0.28.06A0.83,0.83,0,1,1,15,18.5,16.27,16.27,0,0,1,19,18h0Z"/><path class="a" d="M19.32,21.47a11.59,11.59,0,0,1,5.6,1.45c0.41,0.23.88,0.49,0.57,1s-0.76.34-1.19,0.11a11.76,11.76,0,0,0-8.16-1c-0.19,0-.38.08-0.57,0.11a0.69,0.69,0,0,1-.91-0.51,0.66,0.66,0,0,1,.68-0.78,21.82,21.82,0,0,1,4-.45h0Z"/><path class="b" d="M19.32,21.47a11.59,11.59,0,0,1,5.6,1.45c0.41,0.23.88,0.49,0.57,1s-0.76.34-1.19,0.11a11.76,11.76,0,0,0-8.16-1c-0.19,0-.38.08-0.57,0.11a0.69,0.69,0,0,1-.91-0.51,0.66,0.66,0,0,1,.68-0.78,21.82,21.82,0,0,1,4-.45h0Z"/></svg>