<svg xmlns="http://www.w3.org/2000/svg" viewBox="0 0 841.9 595.3"><path fill="#668E10" d="M167.6 44.3h506.7V551H167.6z"/><path fill="#FEFEFE" d="M413.3 162.1c65.4-.1 117.3 36.5 136.1 90.6 18.6 53.5 1.3 114.4-41.6 149.4-7.1 5.8-10 5.1-15.5-1.9-39.5-50.2-115-60-166.2-21.3-7.9 6-10.9 4.2-15.4-2.7-29.6-45.1-34.3-92.5-9.6-140.5 24.7-48.1 66.1-71.7 112.2-73.6z"/><path fill="#FDFEFD" d="M356.3 416.3c24.7-25.8 71.4-22.9 91.3 5 2.6 3.6 7.2 8-1.6 9.5-31.5 5.6-61.3 1.2-89.7-14.5z"/><path fill="#668E10" d="M509.9 270.3c-1.8-.7-4.6-1.6-7.3-2.9-47.9-23.6-97.9-26.3-149.4-15.7-1.7.3-3.3.8-5 1.1-8 1.5-14.9-.1-17-8.9-2.1-8.8 3.3-13.5 11.1-15.8 16.4-4.8 33.4-7.1 50.4-7.5 40.8-1.1 80.8 3.5 117.9 22.1 3.8 1.9 7.6 4 10.7 6.8 4.2 3.8 4.7 9 2.2 14.1-2.4 5-6.7 7.5-13.6 6.7zM402.4 266c32.8.6 64.1 7.1 93.2 22.9 6.6 3.6 13.4 7.8 8.9 16.7-4.6 9-11.8 6-18.6 2.4-40.1-21.2-82.3-25.2-126.2-15.3-1.2.3-2.5.5-3.7.8-6.8 1.4-13.4 1.1-15.3-7-1.9-7.8 3.1-11.6 10.1-13.5 16.8-4.6 34.1-6.6 51.6-7zM406.9 311.7c24.1.3 49.7 5.6 73.2 18.9 5.3 3 11.5 6.4 7.5 13.7-3.8 7-10 4.5-15.6 1.5-33.8-18.8-69.8-19.6-106.7-12.8-2.5.5-5 1.1-7.5 1.4-5.6.9-10.7-.4-11.9-6.6-1.3-6.5 3.5-9.2 8.9-10.2 16.4-3.3 32.8-5.5 52.1-5.9z"/></svg>