<svg width="40" height="40" viewBox="0 0 40 40" xmlns="http://www.w3.org/2000/svg" xmlns:xlink="http://www.w3.org/1999/xlink"><title>storify_hover</title><defs><path id="a" d="M0 0v40h40V0z"/></defs><g fill="none" fill-rule="evenodd"><g><use fill="#009DCA" xlink:href="#a"/><use fill="#007597" xlink:href="#a"/></g><g fill="#FFF"><path d="M23.71 12.766c1.658.027 3.023.72 4.152 1.877 1.365 1.404 2.29 3.06 2.52 5.038.414 3.453-1.056 6.965-4.37 8.92-1.536.908-3.21 1.38-4.97 1.585-.216.022-.54-.347-.49-.545.032-.12.164-.1.252-.127 1.167-.402 2.174-1.046 2.967-2.01 1.477-1.794 1.8-5.037-.125-7.244-.634-.722-1.338-1.345-2.01-2.027-.253-.253-.495-.523-.71-.82-1.387-1.922-.468-4.157 1.872-4.564.303-.057.605-.106.914-.084zM16.295 27.19c-1.613-.022-2.968-.683-4.08-1.8-1.365-1.377-2.28-2.99-2.57-4.94-.55-3.632 1.178-7.244 4.37-9.11 1.53-.892 3.194-1.365 4.944-1.574.22-.028.54.324.495.54-.028.13-.165.104-.248.13-1.178.398-2.174 1.047-2.967 2.01-1.476 1.784-1.806 5.033.12 7.246.623.72 1.34 1.343 2.01 2.026.254.253.496.523.71.82 1.388 1.92.48 4.157-1.855 4.57-.314.06-.616.11-.93.082z"/></g></g></svg>