<svg xmlns="http://www.w3.org/2000/svg" viewBox="0 0 40 40"><defs><style>.a{fill:#009dca;}.b{fill:#fff;}</style></defs><title>storify</title><path class="a" d="M40,0H0V40H40V0h0Z"/><path class="b" d="M23.75,12.8a5.69,5.69,0,0,1,4.2,1.9,8.27,8.27,0,0,1,2.5,5A8.91,8.91,0,0,1,26,28.6a12.26,12.26,0,0,1-5,1.6,0.64,0.64,0,0,1-.5-0.5c0-.1.2-0.1,0.3-0.1a6.14,6.14,0,0,0,3-2,5.72,5.72,0,0,0-.1-7.2c-0.6-.7-1.3-1.3-2-2a5,5,0,0,1-.7-0.8,2.79,2.79,0,0,1,1.9-4.6,0.78,0.78,0,0,1,.8-0.2h0Z"/><path class="b" d="M16.25,27.2a5.76,5.76,0,0,1-4.1-1.8,8.73,8.73,0,0,1-2.6-4.9,9,9,0,0,1,4.4-9.1,12.31,12.31,0,0,1,4.9-1.6,0.64,0.64,0,0,1,.5.5c0,0.1-.2.1-0.2,0.1a6.14,6.14,0,0,0-3,2,5.72,5.72,0,0,0,.1,7.2c0.6,0.7,1.3,1.3,2,2a5,5,0,0,1,.7.8A2.79,2.79,0,0,1,17,27a0.86,0.86,0,0,1-.8.2h0Z"/></svg>