<svg xmlns="http://www.w3.org/2000/svg" viewBox="0 0 40 40"><defs><style>.a{fill:#009dca;}.b{fill:#007597;}.c{fill:#fff;}</style></defs><title>storify_hover</title><polygon class="a" points="0 0 0 40 40 40 40 0 0 0"/><polygon class="b" points="0 0 0 40 40 40 40 0 0 0"/><path class="c" d="M23.71,12.77a5.79,5.79,0,0,1,4.15,1.88,8.56,8.56,0,0,1,2.52,5A9,9,0,0,1,26,28.6a12.4,12.4,0,0,1-5,1.59,0.59,0.59,0,0,1-.49-0.55,0.27,0.27,0,0,1,.25-0.13,6.47,6.47,0,0,0,3-2,5.78,5.78,0,0,0-.13-7.25c-0.63-.72-1.34-1.34-2-2a6.78,6.78,0,0,1-.71-0.82,2.77,2.77,0,0,1,1.87-4.56,3.65,3.65,0,0,1,.91-0.08h0Z"/><path class="c" d="M16.29,27.19a5.73,5.73,0,0,1-4.08-1.8,8.72,8.72,0,0,1-2.57-4.94A9,9,0,0,1,14,11.34,12.64,12.64,0,0,1,19,9.77a0.57,0.57,0,0,1,.5.54,0.24,0.24,0,0,1-.25.13,6.37,6.37,0,0,0-3,2,5.78,5.78,0,0,0,.12,7.25c0.62,0.72,1.34,1.34,2,2a6.78,6.78,0,0,1,.71.82,2.77,2.77,0,0,1-1.86,4.57,3.33,3.33,0,0,1-.93.08h0Z"/></svg>