<?xml version="1.0" encoding="UTF-8" standalone="no"?>
<svg width="500px" height="500px" viewBox="0 0 500 500" version="1.1" xmlns="http://www.w3.org/2000/svg" xmlns:xlink="http://www.w3.org/1999/xlink" xmlns:sketch="http://www.bohemiancoding.com/sketch/ns">
    <!-- Generator: Sketch 3.3.3 (12072) - http://www.bohemiancoding.com/sketch -->
    <title>storify</title>
    <desc>Created with Sketch.</desc>
    <defs></defs>
    <g id="Page-1" stroke="none" stroke-width="1" fill="none" fill-rule="evenodd" sketch:type="MSPage">
        <g id="storify" sketch:type="MSLayerGroup">
            <path d="M500,0 L0,0 L0,500 L500,500 L500,0 L500,0 L500,0 Z" id="bg" fill="#009DCA" sketch:type="MSShapeGroup"></path>
            <g id="icon" transform="translate(119.247312, 122.000000)" fill="#FFFFFF" sketch:type="MSShapeGroup">
                <path d="M177.135484,37.5741935 C197.849462,37.9182796 214.916129,46.5892473 229.023656,61.0408602 C246.090323,78.5892473 257.651613,99.3032258 260.541935,124.008602 C265.703226,167.156989 247.329032,211.062366 205.901075,235.492473 C186.701075,246.847312 165.780645,252.765591 143.75914,255.311828 C141.075269,255.587097 137.015054,250.976344 137.634409,248.498925 C138.047312,246.984946 139.698925,247.260215 140.8,246.916129 C155.389247,241.892473 167.982796,233.84086 177.892473,221.797849 C196.335484,199.363441 200.395699,158.830108 176.309677,131.234409 C168.395699,122.219355 159.587097,114.443011 151.191398,105.909677 C148.025806,102.744086 144.997849,99.372043 142.313978,95.655914 C124.972043,71.6387097 136.464516,43.6989247 165.711828,38.6064516 C169.496774,37.9182796 173.28172,37.2989247 177.135484,37.5741935 L177.135484,37.5741935 Z" id="Shape"></path>
                <path d="M84.4387097,217.875269 C64.2752688,217.6 47.3462366,209.341935 33.4451613,195.372043 C16.3784946,178.167742 4.95483871,158.004301 1.30752688,133.643011 C-5.57419355,88.2236559 16.0344086,43.0795699 55.9483871,19.7505376 C75.0795699,8.60215054 95.8623656,2.68387097 117.746237,0.0688172043 C120.498925,-0.275268817 124.490323,4.12903226 123.939785,6.81290323 C123.595699,8.46451613 121.875269,8.12043011 120.843011,8.46451613 C106.116129,13.4193548 93.6602151,21.5397849 83.7505376,33.5827957 C65.3075269,55.8795699 61.1784946,96.4817204 85.2645161,124.146237 C93.0408602,133.16129 101.987097,140.937634 110.382796,149.470968 C113.548387,152.636559 116.576344,156.008602 119.260215,159.724731 C136.602151,183.741935 125.247312,211.68172 96.0688172,216.843011 C92.1462366,217.6 88.3612903,218.219355 84.4387097,217.875269 L84.4387097,217.875269 Z" id="Shape"></path>
            </g>
        </g>
    </g>
</svg>