<svg xmlns="http://www.w3.org/2000/svg" viewBox="0 0 841.9 595.3"><g fill="#009DCA"><path d="M130.7 7.4h580.4v580.4H130.7z"/><path d="M718.6 0H123.3v595.3h595.3V0z"/></g><g fill="#FFF"><path d="M488.4 166.6c30.1.5 54.9 13.1 75.4 34.1 24.8 25.5 41.6 55.6 45.8 91.5 7.5 62.7-19.2 126.5-79.4 162-27.9 16.5-58.3 25.1-90.3 28.8-3.9.4-9.8-6.3-8.9-9.9.6-2.2 3-1.8 4.6-2.3 21.2-7.3 39.5-19 53.9-36.5 26.8-32.6 32.7-91.5-2.3-131.6-11.5-13.1-24.3-24.4-36.5-36.8-4.6-4.6-9-9.5-12.9-14.9-25.2-34.9-8.5-75.5 34-82.9 5.5-1 11-1.9 16.6-1.5zM353.7 428.6c-29.3-.4-53.9-12.4-74.1-32.7-24.8-25-41.4-54.3-46.7-89.7-10-66 21.4-131.6 79.4-165.5 27.8-16.2 58-24.8 89.8-28.6 4-.5 9.8 5.9 9 9.8-.5 2.4-3 1.9-4.5 2.4-21.4 7.2-39.5 19-53.9 36.5-26.8 32.4-32.8 91.4 2.2 131.6 11.3 13.1 24.3 24.4 36.5 36.8 4.6 4.6 9 9.5 12.9 14.9 25.2 34.9 8.7 75.5-33.7 83-5.7 1.1-11.2 2-16.9 1.5z"/></g></svg>