<svg xmlns="http://www.w3.org/2000/svg" viewBox="0 0 40 40"><defs><style>.a{fill:#003b6a;}.b{fill-opacity:0.25;}.c{fill:#8ec9e8;stroke:#8cd1f3;stroke-width:0.09px;}</style></defs><title>tuenti_hover</title><rect class="a" width="40" height="40"/><rect class="b" width="40" height="40"/><path class="c" d="M13.07,11.67a6.51,6.51,0,0,1,3.85-1.27h6.15a6.56,6.56,0,0,1,6.48,6.17c0,3.45.07,6.9,0,10.34,0,0.9,0,1.79,0,2.69H18a8.55,8.55,0,0,1-3.09-.35,6.56,6.56,0,0,1-4.46-5.91V16.66a6.52,6.52,0,0,1,2.67-5h0Zm7.74,3.07a9.17,9.17,0,0,1,1.65,5,9.27,9.27,0,0,1-1.67,5.4c0.43,0.28.87,0.56,1.29,0.84a10.22,10.22,0,0,0,0-12.13l-1.27.88h0Zm-3.2,1.08a1.34,1.34,0,0,0,0,2.38,1.29,1.29,0,1,0,0-2.38h0ZM17.45,20.9c-0.33,1.38-.69,2.75-1,4.12h1.75c0.43-1.39.89-2.77,1.34-4.16-0.69,0-1.37,0-2.06,0h0Z"/></svg>