<svg xmlns="http://www.w3.org/2000/svg" viewBox="0 0 40 40"><defs><style>.a{fill:#36455c;}.b{fill:#2a3344;}.c{fill:#fff;}</style></defs><title>tumblr_hover</title><polygon class="a" points="0 0 0 40 40 40 40 0 0 0"/><polygon class="b" points="0 0 0 40 40 40 40 0 0 0"/><path class="c" d="M13.36,18.09V15a6.49,6.49,0,0,0,2.19-1.19A5.4,5.4,0,0,0,17,12a8.18,8.18,0,0,0,.76-2.75h3.1v5.49H26v3.4H20.86v5.55a9.29,9.29,0,0,0,.2,2.43,1.66,1.66,0,0,0,.74.85,3.19,3.19,0,0,0,1.65.43,5.87,5.87,0,0,0,3.27-1.06v3.4a11.57,11.57,0,0,1-2.52.93,10.79,10.79,0,0,1-2.43.26,8.8,8.8,0,0,1-2.65-.37,5.48,5.48,0,0,1-1.93-1.08A4.11,4.11,0,0,1,16.07,28a6.36,6.36,0,0,1-.3-2.28V18.09H13.36Z"/></svg>