<?xml version="1.0" encoding="utf-8"?>
<!-- Generator: Adobe Illustrator 18.0.0, SVG Export Plug-In . SVG Version: 6.00 Build 0)  -->
<!DOCTYPE svg PUBLIC "-//W3C//DTD SVG 1.1//EN" "http://www.w3.org/Graphics/SVG/1.1/DTD/svg11.dtd">
<svg version="1.1" id="Capa_1" xmlns="http://www.w3.org/2000/svg" xmlns:xlink="http://www.w3.org/1999/xlink" x="0px" y="0px"
	 viewBox="20 0 40 40" enable-background="new 20 0 40 40" xml:space="preserve">
<g>
	<path fill="#6090B5" d="M20,0v40h40V0H20z M48,15.9c0,0.2,0,0.4,0,0.6c0,5.4-4.1,11.6-11.6,11.6c-2.4,0-4.6-0.7-6.3-1.9
		c0.2,0,0.6,0,0.9,0c1.9,0,3.6-0.7,5.1-1.8c-1.9,0-3.4-1.2-3.9-2.8c0.4,0.1,0.6,0.1,0.8,0.1c0.4,0,0.7,0,1.1-0.1
		c-1.9-0.4-3.3-2-3.3-4c0.6,0.2,1.2,0.5,1.9,0.5c-1.2-0.7-1.9-2-1.9-3.4c0-0.8,0.2-1.5,0.6-2.1c2,2.6,5.1,4.2,8.5,4.4
		c-0.1-0.4-0.1-0.6-0.1-0.9c0-2.2,1.9-4.1,4.1-4.1c1.3,0,2.4,0.5,3.1,1.3c0.9-0.1,1.8-0.5,2.6-0.9c-0.2,0.9-0.9,1.8-1.8,2.2
		c0.8-0.1,1.6-0.4,2.4-0.7C49.5,14.6,48.8,15.3,48,15.9z"/>
</g>
</svg>
