<svg xmlns="http://www.w3.org/2000/svg" viewBox="0 0 40 40"><defs><style>.a{fill:#1da1f2;}.b{fill:#fff;}</style></defs><title>twitter</title><polygon class="a" points="0 40 40 40 40 0 0 0 0 40"/><path class="b" d="M28.24,16.59A11.73,11.73,0,0,1,16.42,28.42,11.12,11.12,0,0,1,10,26.48h0.92a8.71,8.71,0,0,0,5.2-1.84,4.1,4.1,0,0,1-4-2.85,2.87,2.87,0,0,0,.82.1,4.18,4.18,0,0,0,1.12-.1,4.15,4.15,0,0,1-3.36-4.08,6,6,0,0,0,1.94.51,4,4,0,0,1-1.94-3.47,3.77,3.77,0,0,1,.61-2.14A11.74,11.74,0,0,0,20,17.1a3.15,3.15,0,0,1-.1-0.92A4.27,4.27,0,0,1,24.06,12a4.13,4.13,0,0,1,3.16,1.33,8.19,8.19,0,0,0,2.65-.92A3.36,3.36,0,0,1,28,14.65a11.08,11.08,0,0,0,2.45-.71,21.29,21.29,0,0,1-2.24,2v0.61Z"/></svg>