<svg xmlns="http://www.w3.org/2000/svg" viewBox="0 0 40 40"><defs><style>.a{fill:#f07355;}.b{fill-opacity:0.25;}.c{fill:#fff;}</style></defs><title>viadeo_hover</title><rect class="a" x="0.08" width="39.92" height="39.95"/><rect class="b" x="0.08" width="39.92" height="39.95"/><path class="c" d="M8.86,23a9.37,9.37,0,0,0,2.57,6.54A8.57,8.57,0,0,0,18,32.38a8.54,8.54,0,0,0,6.59-2.8A9.25,9.25,0,0,0,27.2,23a10,10,0,0,0-.69-3.71,6.43,6.43,0,0,1-2.16.87,7.26,7.26,0,0,1,.56,2.9A7.43,7.43,0,0,1,24,26.7a6.56,6.56,0,0,1-2.52,2.57,6.94,6.94,0,0,1-6.89,0,6.6,6.6,0,0,1-2.49-2.57,7.47,7.47,0,0,1,1.09-8.75A6.51,6.51,0,0,1,18,15.84a6.58,6.58,0,0,1,2.49.48,6.59,6.59,0,0,1,.69-2.19A9.12,9.12,0,0,0,18,13.6a8.71,8.71,0,0,0-6.76,3A9.38,9.38,0,0,0,8.86,23h0ZM16,29.47l1.42,0.1a13.09,13.09,0,0,0,3.17-2.77,10.72,10.72,0,0,0,1.84-3.16,16.4,16.4,0,0,0,.79-3.21,14.06,14.06,0,0,0,.15-2,9.74,9.74,0,0,0-.05-1Q23.18,16,23,14.88a13.53,13.53,0,0,0-.39-1.74l-0.23-.64q-0.56-1.73-1.11-3a14.62,14.62,0,0,0-.8-1.7l-0.28-.43a5.2,5.2,0,0,1,1.6,1.22,3.37,3.37,0,0,1,.71,1.35,5.06,5.06,0,0,1,.1,1v0.18a2.92,2.92,0,0,1-.15.89l-0.13.33q0.1,1.48.13,2.85t-0.13,2.6A20,20,0,0,1,21.54,22a20.41,20.41,0,0,1-1.26,3.09,9.38,9.38,0,0,1-1.46,2.18,15.68,15.68,0,0,1-1.39,1.31,6.07,6.07,0,0,1-1,.73Zm7-16.21a3.06,3.06,0,0,1,.58-1.63L24,11a2.91,2.91,0,0,1,1-.67,8.57,8.57,0,0,1,1.22-.47l0.53-.15a3.76,3.76,0,0,0,1.69-.89,5,5,0,0,0,1.11-1.3l0.33-.59a6.81,6.81,0,0,1,1.25,3.28,9,9,0,0,1,.08,1.45,6.5,6.5,0,0,1-.15,1.5l-0.28,1.14a5.39,5.39,0,0,1-.85,1.53,4.6,4.6,0,0,1-.93.94l-0.38.28a3.34,3.34,0,0,1-1.7.51l-2.77-1.35a20.45,20.45,0,0,0,2.57-1.65,10.45,10.45,0,0,0,1.61-1.46A10.38,10.38,0,0,0,29.17,12a2.55,2.55,0,0,0,.37-0.79l0.05-.25a6.89,6.89,0,0,1-1.23,1.86,7.34,7.34,0,0,1-1.58,1.32,16.36,16.36,0,0,1-1.54.83,8.22,8.22,0,0,1-1.2.47l-0.46.13a4.17,4.17,0,0,1-.64-2,1.3,1.3,0,0,1,0-.25h0Z"/></svg>