<svg xmlns="http://www.w3.org/2000/svg" viewBox="123.4 0 595.2 595.2"><path fill="#008F6B" d="M123.4 0h595.2v595.2H123.4z"/><path fill="#FFF" d="M292.5 286c-10-34.1-16.1-68.9-21.4-103.9-.4-3 0-4.7 3.6-4.6 17.1.1 34.3.1 51.5.1.8 0 1.5.8 2.3 1.2-5.8 1.7-11.6.7-17.5.8-11.9.2-23.6.1-35.5.1 15.5 0 30.9.1 46.4 0 2.2 0 4.6.9 6.5-.9 3.7 12.7 4.2 26 6.5 39C346.8 286 368.4 350.1 412 405c.8.9 1.5 1.7 2.1 2.7 3.4 5.9 6.1 5.1 10.5.3 19.9-22 36.7-46.1 50.5-72.3 2.2-4.1 2-6-2.2-8.5-30.3-18.2-46.9-45.7-54.2-79.6-5-23.7-5.2-47.4 3.2-70.3 13.8-38 49.1-57.5 89.1-50.2 37 6.7 57.8 31.8 60 72.4 1.2 20.8-2 40.9-8.4 60.7-2.2 6.7-6 9.3-12.8 9.5-13.4.3-25.4-2.5-35.5-11.6-3.4-3-5-6.2-3.6-11.3 4.7-16.7 7.2-33.5 2.8-50.7-2.8-11.2-9.7-17.7-18.7-18.3-9.4-.5-17.2 5.2-21.4 16-17.2 42.8 12.6 96.6 57.7 104.4 11.8 2.1 23.2 1.7 34.7-.7 4.6-1 5.6.5 5.4 4.8-.2 10-.2 20.1 0 30.2.1 3.9-1.1 5.3-5.2 6.2-9.5 1.9-19.1 3.2-28.5 3.4-5.8.1-8.4 2.4-10.8 7.2-20.2 39.7-46.9 74.6-79.9 104.5-23 20.8-37.4 20.7-61 .2-29.3-25.4-49.1-57.6-65.3-92.1-9.7-20.5-17.9-41.5-23.8-63.4-1.9-4-2-8.5-4.2-12.5z"/></svg>