<svg width="40" height="40" viewBox="0 0 40 40" xmlns="http://www.w3.org/2000/svg" xmlns:xlink="http://www.w3.org/1999/xlink"><title>vine_hover</title><defs><path id="a" d="M0 0h40v40H0z"/></defs><g fill="none" fill-rule="evenodd"><g><use fill="#00B285" xlink:href="#a"/><use fill-opacity=".25" fill="#000" xlink:href="#a"/></g><path d="M11.228 19.217c-.682-2.326-1.098-4.7-1.46-7.087-.027-.205 0-.32.246-.314 1.166.007 2.34.007 3.513.007.054 0 .102.055.156.082-.395.116-.79.048-1.193.055-.812.013-1.61.006-2.42.006 1.056 0 2.106.007 3.163 0 .15 0 .314.062.444-.06.252.865.286 1.772.443 2.66.812 4.65 2.285 9.022 5.26 12.767.053.06.1.116.142.184.232.402.416.348.716.02 1.357-1.5 2.503-3.144 3.444-4.93.15-.28.137-.41-.15-.58-2.066-1.242-3.2-3.117-3.696-5.43-.342-1.616-.355-3.232.218-4.794.94-2.592 3.35-3.922 6.077-3.424 2.524.456 3.943 2.168 4.093 4.937.082 1.418-.136 2.79-.573 4.14-.15.457-.41.634-.873.648-.914.02-1.732-.17-2.42-.79-.233-.206-.342-.424-.247-.772.32-1.14.49-2.285.19-3.458-.19-.764-.66-1.207-1.274-1.248-.64-.034-1.173.354-1.46 1.09-1.173 2.92.86 6.59 3.936 7.122.804.142 1.582.115 2.366-.05.314-.067.382.035.37.328-.015.682-.015 1.37 0 2.06.006.266-.076.362-.356.423-.648.13-1.303.22-1.944.233-.395.007-.573.163-.736.49-1.378 2.71-3.2 5.09-5.45 7.128-1.57 1.42-2.55 1.413-4.16.015-2-1.733-3.35-3.93-4.454-6.282-.662-1.398-1.22-2.83-1.623-4.324-.13-.274-.137-.58-.287-.853z" fill="#FFF"/></g></svg>