<?xml version="1.0" encoding="utf-8"?>
<!-- Generator: Adobe Illustrator 18.0.0, SVG Export Plug-In . SVG Version: 6.00 Build 0)  -->
<!DOCTYPE svg PUBLIC "-//W3C//DTD SVG 1.1//EN" "http://www.w3.org/Graphics/SVG/1.1/DTD/svg11.dtd">
<svg version="1.1" id="Layer_1" xmlns="http://www.w3.org/2000/svg" xmlns:xlink="http://www.w3.org/1999/xlink" x="0px" y="0px"
	 viewBox="0 0 841.9 595.3" enable-background="new 0 0 841.9 595.3" xml:space="preserve">
<rect x="123.4" y="0" fill="#00B285" width="595.2" height="595.2"/>
<path fill="#FFFFFF" d="M292.5,286c-10-34.1-16.1-68.9-21.4-103.9c-0.4-3,0-4.7,3.6-4.6c17.1,0.1,34.3,0.1,51.5,0.1
	c0.8,0,1.5,0.8,2.3,1.2c-5.8,1.7-11.6,0.7-17.5,0.8c-11.9,0.2-23.6,0.1-35.5,0.1c15.5,0,30.9,0.1,46.4,0c2.2,0,4.6,0.9,6.5-0.9
	c3.7,12.7,4.2,26,6.5,39c11.9,68.2,33.5,132.3,77.1,187.2c0.8,0.9,1.5,1.7,2.1,2.7c3.4,5.9,6.1,5.1,10.5,0.3
	c19.9-22,36.7-46.1,50.5-72.3c2.2-4.1,2-6-2.2-8.5c-30.3-18.2-46.9-45.7-54.2-79.6c-5-23.7-5.2-47.4,3.2-70.3
	c13.8-38,49.1-57.5,89.1-50.2c37,6.7,57.8,31.8,60,72.4c1.2,20.8-2,40.9-8.4,60.7c-2.2,6.7-6,9.3-12.8,9.5
	c-13.4,0.3-25.4-2.5-35.5-11.6c-3.4-3-5-6.2-3.6-11.3c4.7-16.7,7.2-33.5,2.8-50.7c-2.8-11.2-9.7-17.7-18.7-18.3
	c-9.4-0.5-17.2,5.2-21.4,16c-17.2,42.8,12.6,96.6,57.7,104.4c11.8,2.1,23.2,1.7,34.7-0.7c4.6-1,5.6,0.5,5.4,4.8
	c-0.2,10-0.2,20.1,0,30.2c0.1,3.9-1.1,5.3-5.2,6.2c-9.5,1.9-19.1,3.2-28.5,3.4c-5.8,0.1-8.4,2.4-10.8,7.2
	c-20.2,39.7-46.9,74.6-79.9,104.5c-23,20.8-37.4,20.7-61,0.2c-29.3-25.4-49.1-57.6-65.3-92.1c-9.7-20.5-17.9-41.5-23.8-63.4
	C294.8,294.5,294.7,290,292.5,286z"/>
</svg>
