<svg xmlns="http://www.w3.org/2000/svg" viewBox="0 0 40 40"><defs><style>.a{fill:#1e8cbe;}.b{fill-opacity:0.25;}.c{fill:#fff;}</style></defs><title>wordpress_hover</title><rect class="a" x="0.08" width="39.92" height="39.95"/><rect class="b" x="0.08" width="39.92" height="39.95"/><path class="c" d="M30.24,20a10.27,10.27,0,0,0-.46-3L25.24,28.76a10.17,10.17,0,0,0,5-8.76h0Z"/><path class="c" d="M16.85,29.64a10.19,10.19,0,0,0,6.58,0l-3.1-8.05-3.48,8.1h0Z"/><path class="c" d="M10.32,17.12A10.17,10.17,0,0,0,15.1,28.87L10.35,17.18l0-.06h0Z"/><path class="c" d="M15.5,16.46l-0.44,0a0.83,0.83,0,0,0-.85,1L17.6,25.9l2.27-5.43L18.6,17.24a2.18,2.18,0,0,0-1.75-.85V15.94H24v0.5l-0.74,0a0.69,0.69,0,0,0-.73.88l3.08,8.24,0.88-2.28a8.83,8.83,0,0,0,.6-6.19c-1.57-3.23.41-3.7,0.41-3.7l0.36,0A10.16,10.16,0,0,0,10.73,16l4.76,0,0,0.52h0Z"/><path class="c" d="M31.49,20A11.43,11.43,0,1,1,20.07,8.53,11.44,11.44,0,0,1,31.49,20h0ZM20.07,8A12,12,0,1,0,32,20,12,12,0,0,0,20.07,8h0Z"/></svg>