<svg id="Layer_1" xmlns="http://www.w3.org/2000/svg" viewBox="0 0 40 40"><style>.st0{fill:#327CAB;} .st1{fill:#4A4A4A;fill-opacity:0.3;} .st2{fill:#F58237;} .st3{fill:#FFFFFF;}</style><title>wykop_hover</title><g id="Page-1"><g id="wykop_hover"><g id="bg"><path id="path-1" class="st0" d="M0 0h40v40H0z"/><path id="path-1_1_" class="st1" d="M0 0h40v40H0z"/></g><g id="icon"><path id="Rectangle-108" class="st2" d="M24.3 21.5l-1.4.7-3.6-7.3-3 1.5 3.6 7.3-1.4.7L15 17l-3 1.5 3.9 8.1.4.7 10.1-4.9 1.7-.8-4.3-8.8-3 1.5 3.5 7.2z"/><path class="st3" d="M30.6 11.4c-2-1.9-3.6-2.3-10.9-2.3s-9.2.8-10.5 2.3c-1.3 1.5-1.7 3.1-1.7 7.9s-.1 7 1.7 9.4C11 31 15.5 31 20 31c4.5.1 8 .1 10.3-2 2.2-2.1 2-6.1 2-8.4s.3-7.4-1.7-9.2zm-1 9.1c0 2 0 5.7-1.5 6.7s-4.3 1-8.1.9c-3.8 0-6.8.1-8.2-.9-1.4-1-1.6-4.5-1.6-7.8s.3-4.9 1.2-6c.9-1.1 2.8-1.5 8.6-1.5s7.5.3 8.6 1.5c1 1.1 1 5.1 1 7.1z"/></g></g></g></svg>