<svg xmlns="http://www.w3.org/2000/svg" viewBox="20 0 40 40"><path fill="#E9654B" d="M20 0h40v40H20z"/><path fill="#FFF" d="M46.1 10v5.6c-.1.2-.3.4-.5.4-.2.1-.4.1-.5.1-.1 0-.2 0-.4-.1-.1-.1-.1-.2-.1-.4V10h-1.5v6.2c0 .5.1.8.2 1.1.2.2.5.4.8.4.4 0 .6-.1.9-.2.4-.1.6-.4.8-.7v.8h1.5V10h-1.2zm-4.7.4c-.4-.4-.9-.6-1.5-.6-.7 0-1.3.2-1.6.5-.5.5-.6.9-.6 1.4v3.9c0 .6.2 1.2.6 1.5.4.4.9.6 1.6.6.7 0 1.3-.2 1.6-.6.4-.4.6-.8.6-1.5v-3.8c-.1-.6-.3-1.1-.7-1.4zm-.9 5.4c0 .2-.1.4-.2.5-.1.1-.2.2-.5.2s-.4 0-.5-.2c-.1-.1-.1-.2-.1-.5v-4.1c0-.1.1-.4.2-.4.1-.1.2-.1.5-.1s.4 0 .5.1c.1.1.2.2.2.4v4.1h-.1zm-4.7-8.4l-1.1 4h-.1l-1.1-4h-1.8l2 6.1v4h1.8v-4.2l2-5.9h-1.7zm11.8 17.8c.1.1.1.4.1.6v.7h-1.2v-.7c0-.2 0-.5.1-.6.1-.1.2-.2.5-.2.3-.1.4.1.5.2zm-4.7-.1c-.1-.1-.2-.2-.5-.2-.1 0-.2 0-.2.1-.1 0-.2.1-.2.2v4.2c.1.1.2.2.4.2.1 0 .2.1.4.1s.4 0 .4-.1c.1-.1.1-.2.1-.5v-3.5c-.2-.2-.2-.4-.4-.5zm0 0c-.1-.1-.2-.2-.5-.2-.1 0-.2 0-.2.1-.1 0-.2.1-.2.2v4.2c.1.1.2.2.4.2.1 0 .2.1.4.1s.4 0 .4-.1c.1-.1.1-.2.1-.5v-3.5c-.2-.2-.2-.4-.4-.5zm7.7-5.2H29.4c-2.4 0-4.2 1.9-4.2 4.2v4.4c0 2.4 1.9 4.2 4.2 4.2h21.2c2.4 0 4.2-1.9 4.2-4.2v-4.4c0-2.3-1.9-4.2-4.2-4.2zm-15.4 2.9h-1.5v7.9h-1.5v-7.9h-1.6v-1.3h4.7l-.1 1.3zm4.3 7.9h-1.4V30c-.2.2-.5.5-.8.6-.2.1-.5.2-.8.2-.4 0-.6-.1-.7-.4-.1-.2-.2-.5-.2-.9v-5.6h1.3v5.2c0 .1 0 .2.1.4 0 .1.1.1.2.1s.2 0 .4-.1.4-.2.5-.4v-5.2h1.4v6.8zm5-1.4c0 .5-.1.8-.4 1.1s-.5.4-.9.4c-.2 0-.5 0-.7-.1s-.4-.2-.6-.5v.5h-1.4v-9.2h1.4v2.9c.2-.2.4-.4.6-.5.2-.1.5-.1.6-.1.5 0 .7.1.9.5.2.2.4.7.4 1.3v3.8h.1zm4.7-1.9h-2.6v1.3c0 .4 0 .6.1.7.1.1.2.2.5.2s.4-.1.5-.2c.1-.1.1-.4.1-.7v-.4h1.4v.4c0 .7-.2 1.2-.5 1.5-.4.4-.8.5-1.5.5-.6 0-1.1-.2-1.4-.6-.4-.4-.5-.8-.5-1.5v-3.1c0-.6.2-1.1.6-1.4.4-.4.8-.6 1.5-.6.6 0 1.1.2 1.4.5.4.4.5.8.5 1.4v2h-.1zm-6.7-2.5c-.1 0-.2 0-.2.1-.1 0-.2.1-.2.2v4.1c.1.1.2.2.4.2.1 0 .2.1.4.1s.4 0 .4-.1c.1-.1.1-.2.1-.5v-3.5c0-.2 0-.4-.1-.5-.5-.1-.6-.1-.8-.1zm.4.2c-.1-.1-.2-.2-.5-.2-.1 0-.2 0-.2.1-.1 0-.2.1-.2.2v4.2c.1.1.2.2.4.2.1 0 .2.1.4.1s.4 0 .4-.1c.1-.1.1-.2.1-.5v-3.5c-.2-.2-.2-.4-.4-.5zm0 0c-.1-.1-.2-.2-.5-.2-.1 0-.2 0-.2.1-.1 0-.2.1-.2.2v4.2c.1.1.2.2.4.2.1 0 .2.1.4.1s.4 0 .4-.1c.1-.1.1-.2.1-.5v-3.5c-.2-.2-.2-.4-.4-.5z"/></svg>