<?xml version="1.0" standalone="no"?>
<!DOCTYPE svg PUBLIC "-//W3C//DTD SVG 1.1//EN" "http://www.w3.org/Graphics/SVG/1.1/DTD/svg11.dtd">
<svg xmlns="http://www.w3.org/2000/svg">
<metadata>Copyright (C) 2017 by original authors @ fontello.com</metadata>
<defs>
<font id="europa-icons" horiz-adv-x="1000" >
<font-face font-family="europa-icons" font-weight="400" font-stretch="normal" units-per-em="1000" ascent="850" descent="-150" />
<missing-glyph horiz-adv-x="1000" />
<glyph glyph-name="faq" unicode="&#x21;" d="M579 108h-170c0 25 0 40 0 45 0 55 9 100 27 136s55 76 109 120c55 44 88 74 98 87 17 22 25 46 25 72 0 37-15 68-44 94-29 26-68 39-117 39-48 0-88-14-120-41s-54-68-66-124l-172 22c5 79 39 147 102 202 63 56 145 84 248 84 107 0 193-28 256-85 64-56 96-121 96-196 0-41-12-80-35-117-24-37-74-87-150-151-40-33-64-59-74-79-9-20-14-56-13-108z m-170-252v188h188v-188h-188z" horiz-adv-x="1000" />

<glyph glyph-name="book" unicode="&#x22;" d="M815 21v829h-714c-57 0-101-46-101-100v-800c0-57 46-100 101-100h589v829h-568c-32 0-57 27-57 57-2 33 25 60 57 60h650v-775h43z" horiz-adv-x="815" />

<glyph glyph-name="data" unicode="&#x24;" d="M439 850c-243 0-439-96-439-219v-565c0-120 196-219 439-219s438 97 438 217v567c0 123-199 219-438 219z m345-784c0-38-117-125-345-125-225 0-345 87-345 125v147c79-50 204-85 345-85 137 0 263 32 345 85v-147z m0 281c0-38-117-126-345-126-225 0-345 88-345 126v146c79-49 204-84 345-84 137 0 263 32 345 84v-146z m-345 158c-225 0-345 88-345 126s117 125 345 125c225 0 345-87 345-125s-120-126-345-126z" horiz-adv-x="877" />

<glyph glyph-name="file" unicode="&#x26;" d="M569 850h-390l-179-174v-757a78 78 0 0 1 76-69h495a81 81 0 0 1 72 71v858a77 77 0 0 1-74 71z m2-288v-641h-500v679h108a73 73 0 0 1 71 69v110h321v-217z" horiz-adv-x="714" />

<glyph glyph-name="copy" unicode="&#x29;" d="M615 717v133h-452l-163-158v-709h146v-133h615v867h-146z m-539-659v579h142v136h320v-56h-229l-163-157v-502h-70z m608 387v-519h-463v579h143v136h320v-196z" horiz-adv-x="760.7" />

<glyph glyph-name="spreadsheet" unicode="&#x2d;" d="M0 725v-750c0-69 56-125 125-125h792c69 0 125 56 125 125v750c0 69-56 125-125 125h-792c-69 0-125-56-125-125z m83-125h209v-167h-209v167z m250 0h625v-167h-625v167z m625-208v-125h-625v125h625z m0-167v-125h-625v125h625z m0-167v-41c0-70-14-84-83-84h-542v125h625z m-666-125h-125c-70 0-84 14-84 84v41h209v-125z m-209 167v125h209v-125h-209z m0 167v125h209v-125h-209z" horiz-adv-x="1042" />

<glyph glyph-name="video" unicode="&#xe800;" d="M1133 752c-8 53-61 98-110 98h-902c-60 0-113-49-121-98v-792c0-53 57-110 121-110h902c53 0 113 57 113 114v772l-3 16z m-743-614v424l356-212-356-212z" horiz-adv-x="1136" />

<glyph glyph-name="audio" unicode="&#xe801;" d="M603 568c-21 21-48 21-70 0-21-21-21-48 0-69 85-85 85-222 0-303-21-22-21-49 0-70 9-9 25-12 37-12 9 0 24 3 33 12 121 121 121 321 0 442z m106 91c-21-21-21-48 0-70 137-133 137-354 0-490-21-22-21-49 0-70 9-9 24-12 37-12s27 6 33 12c85 85 133 197 133 315s-48 230-133 315c-21 21-49 21-70 0z m-245 191l-300-303h-164v-397h164l300-300" horiz-adv-x="909" />

<glyph glyph-name="brochure" unicode="&#xe802;" d="M684 729l-317 108-367-145v-842l367 135 317-111 326 128v848l-326-121z m-371-667l-219-77v650l219 87v-660z m323-71l-215 71v663l215-77v-657z m283 71l-182-71v654l182 70v-653z" horiz-adv-x="1010" />

<glyph glyph-name="euro" unicode="&#xe803;" d="M501 709c-260 0-470-157-470-349 0-86 65-184 134-245l-67-210 204 138c60-21 127-33 198-33 260 0 470 156 470 349 0 193-210 350-469 350v0z m100-285l-9-44h-155c0-5 0-10 0-17s0-14 0-21h147l-10-45h-131c5-20 12-36 22-48 19-22 44-34 75-34 37 0 66 12 88 34v-88c-25-12-54-19-87-19-56 0-102 19-138 58-25 26-41 58-49 97h-42l9 45h28c0 5 0 9 0 15 0 9 0 16 1 23h-38l9 45h34c8 38 24 70 48 95 37 39 84 59 143 59 33 0 61-6 84-18l-17-80c-16 17-40 25-71 25s-57-11-76-34c-11-12-19-28-24-47h159v-1z" horiz-adv-x="1000" />

<glyph glyph-name="warning" unicode="&#xe804;" d="M501 823l-501-946h1000l-499 946z m0-848c-32 0-58 27-58 59s26 59 58 59c33 0 59-26 59-59s-26-59-59-59v0z m0 177c-32 0-58 27-58 59v177c0 33 26 59 58 59s59-26 59-59v-177c0-32-26-59-59-59v0z" horiz-adv-x="1000" />

<glyph glyph-name="spinner" unicode="&#xe805;" d="M1000 475h-375l140 140c-71 71-165 110-265 110s-194-39-265-110c-71-71-110-165-110-265s39-194 110-265c71-71 165-110 265-110s194 39 265 110c6 6 12 12 17 18l94-82c-91-105-226-171-376-171-276 0-500 224-500 500s224 500 500 500c138 0 263-56 354-146l146 146v-375z" horiz-adv-x="1000" />

<glyph glyph-name="download" unicode="&#xe806;" d="M876 410v-436h-747v436h-125v-560h996v560m-249 0h-187v436h-124v-436h-187l249-249" horiz-adv-x="1000" />

<glyph glyph-name="edit" unicode="&#xe807;" d="M571 245v-324h-500v679h108a73 73 0 0 1 71 69v110h321v-217l5 5a11 11 0 0 0 17 0l50-50v262a77 77 0 0 1-74 71h-390l-179-174v-757a78 78 0 0 1 76-69h495a81 81 0 0 1 72 71v396z m-14 324l19 19a11 11 0 0 0 17 0l119-117a11 11 0 0 0 0-16l-307-307a5 5 0 0 0-5-3l-176-57a11 11 0 0 0-14 14l57 177c0 2 2 2 2 4l212 212m-190-343l61 22a12 12 0 0 1 5 19l-43 43a12 12 0 0 1-19-5l-19-64a11 11 0 0 1 15-15z" horiz-adv-x="714" />

<glyph glyph-name="facebook" unicode="&#xe809;" d="M254 521h107v100c0 47 0 111 35 153 30 47 77 76 160 76 131 0 190-18 190-18l-30-153c0 0-41 12-83 12s-77-17-77-53v-117h166l-11-153h-155v-518h-195v518h-107v153z" horiz-adv-x="1000" />

<glyph glyph-name="digital" unicode="&#xe80b;" d="M466 811h68c250-36 393-179 429-429v-68c-36-250-179-393-429-429h-68c-250 36-393 179-429 429v68c36 250 179 393 429 429v0z m-124-231h129c-1 55 2 114-2 166-55-43-96-99-127-166v0z m207 152c-6 4-13 13-20 10v-162c42 1 89-3 128 1-26 56-64 113-108 151v0z m-380-152h112c18 60 57 109 87 152-85-33-153-82-199-152v0z m550 0h112c-46 69-117 124-201 150 38-42 68-91 89-150v0z m-583-58c-23-39-35-88-40-145h143c3 53 10 101 22 145-42 0-83 0-125 0v0z m161-145h174v145h-148c-16-41-21-93-26-145v0z m234 145c-5-45-1-97-2-145 57 1 119-2 174 2-5 51-12 100-24 143-49 0-99 0-148 0v0z m229-145h143c-3 57-18 104-38 145h-126c12-44 19-92 21-145v0z m-664-58c4-57 18-104 38-145h127c-12 44-19 92-22 145h-143z m203 0c-1-49 11-102 22-145h150v145h-172z m232 0c-5-45-1-97-2-145h150c13 44 20 93 24 145h-172z m231 0c-7-49-10-102-23-145h126c20 41 35 88 38 145h-141z m-392-353c-38 42-69 91-89 150h-112c46-69 117-124 201-150v0z m81-2c5-4 12-13 20-10v162c-42-1-89 3-129-1 27-56 65-113 109-151v0z m78-12c55 35 98 99 128 164h-128v-164z m103 12c85 33 152 82 199 152h-112c-19-59-57-109-87-152v0z" horiz-adv-x="1000" />

<glyph glyph-name="googleplus" unicode="&#xe80c;" d="M335-103c-118 0-207 76-207 165s106 165 224 159c30 0 54-6 77-12 65-47 112-71 124-124 0-11 6-23 6-29 0-88-59-159-224-159v0z m29 530c-77 5-153 94-171 194-12 106 41 182 118 182 83 0 154-88 171-194 18-100-35-182-118-182v0z m166-153c-24 17-83 70-83 94 0 35 12 47 59 88 53 41 89 100 89 165 0 76-36 153-101 176h101l70 53h-313c-135 0-271-106-271-229s94-224 236-224h29c-5-18-11-35-11-59 0-35 17-64 41-88h-53c-171 6-307-106-307-218s147-182 319-182c195 0 307 112 307 224 0 88-30 141-112 200v0z m454 147h-124v117h-100v-123h-124v-94h124v-118h100v118h124v100z" horiz-adv-x="1000" />

<glyph glyph-name="image" unicode="&#xe80d;" d="M939 55h-742v147l224 372 306-372 212 148v-295z m-223 481c0 64 49 110 110 110s110-50 110-110-50-110-110-110-110 53-110 110z m417 216c-8 53-61 98-110 98h-902c-60 0-113-49-121-98v-792c0-53 57-110 121-110h902c53 0 113 57 113 114v772l-3 16z m-110-788h-909v772h909v-772z" horiz-adv-x="1136" />

<glyph glyph-name="presentation" unicode="&#xe80e;" d="M394 836h100v-49h-100z m480-75h-860v-101h23v-488h354v-46l-178-213c-12-11-9-29 3-40s28-9 40 3l192 227 184-224c9-12 26-15 40-3 12 8 15 26 3 40l-178 221v35h354v488h25l-2 101z m-75-537h-710v439h707l3-439z" horiz-adv-x="891" />

<glyph glyph-name="infographic" unicode="&#xe80f;" d="M496 451v84a189 189 0 1 1 173-264l-86 18a105 105 0 1 0-87 162z m394-228a412 412 0 1 0-394 535v84a496 496 0 0 1-351-847 496 496 0 0 1 827 211z m-731 123a337 337 0 0 1 656-107l-82 18a253 253 0 1 0-237 342v84a337 337 0 0 1-337-337z" horiz-adv-x="972" />

<glyph glyph-name="linkedin" unicode="&#xe810;" d="M218-111h-194v621h194v-621z m-100 697v0c-71 0-118 47-118 106 0 64 47 111 118 111s117-47 117-105c0-65-47-112-117-112v0z m882-697h-223v322c0 82-36 141-112 141-59 0-88-41-106-76 0-12 0-35 0-53v-334h-218v621h218v-99c12 41 82 105 194 105 141 0 247-88 247-281v-346z" horiz-adv-x="1000" />

<glyph glyph-name="organigram" unicode="&#xe811;" d="M0 90h326v-240h-326z m419 0h325v-240h-325z m418 0h326v-240h-326z m-628 183h326v-121h93v121h326v-121h93v214h-419v54h-93v-54h-419v-214h93z m128 577h489v-357h-489z" horiz-adv-x="1163" />

<glyph glyph-name="package" unicode="&#xe812;" d="M1040 475h43v166l-126 209h-831l-126-209v-166h1040z m-997-40v-498c0-47 36-83 83-83h834c47 0 83 36 83 83v498h-1000z m333-83h332v-126h-332v126z" horiz-adv-x="1083" />

<glyph glyph-name="rss" unicode="&#xe813;" d="M229 78c24-23 42-58 42-94s-18-70-42-93v0c-23-24-58-41-94-41s-70 17-94 41c-23 23-41 58-41 93s18 71 41 94v0c24 24 59 41 94 41s65-12 94-41v0z m-229 433v-187c124 0 241-47 329-135 89-93 142-210 142-333v0h194c0 181-77 345-194 462-124 123-289 193-471 193v0z m0 339v-187c447 0 806-363 806-807h194c0 275-112 520-294 702s-429 292-706 292v0z" horiz-adv-x="1000" />

<glyph glyph-name="success" unicode="&#xe814;" d="M500 850c-277 0-500-223-500-500s223-500 500-500c277 0 500 223 500 500s-223 500-500 500v0z m226-397l-277-266c-6-6-15-6-20 0l-40 40c-6 6-15 14-20 20l-95 97c-2 3-2 6-2 12 0 2 2 5 2 8l43 37c3 3 6 3 12 3 3 0 8 0 11-3l89-94c5-6 14-6 20 0l214 206c6 6 14 6 20 0l40-40c9-6 9-14 3-20v0z" horiz-adv-x="1000" />

<glyph glyph-name="info" unicode="&#xe815;" d="M500 850c-277 0-500-223-500-500s223-500 500-500c277 0 500 223 500 500s-226 500-500 500v0z m-66-291c0 25 23 48 49 48h31c26 0 49-23 49-48v-32c0-26-23-48-49-48h-31c-26 0-49 22-49 48v32z m195-466h-257v63h62v194h-62v63h194v-257h66v-63h-3z" horiz-adv-x="1000" />

<glyph glyph-name="check" unicode="&#xe816;" d="M1342 690l-115 114c-16 16-40 16-56 0l-612-587c-16-16-40-16-56 0l-253 269c-9 9-25 9-33 9-16 0-25 0-34-9l-121-106c0-8-9-16-9-24 0-16 0-25 9-33l269-277c16-16 40-40 56-56l115-115c16-15 40-15 56 0l791 758c17 16 17 41-7 57z" horiz-adv-x="1414.1" />

<glyph glyph-name="twitter" unicode="&#xe817;" d="M1000 669c-35-18-77-30-118-36 41 24 77 66 88 113-41-24-82-41-130-47-35 41-88 65-148 65-112 0-207-95-207-208 0-18 0-30 6-48-171 12-325 89-426 220-18-35-29-71-29-107 0-71 35-137 94-173-35 0-65 12-94 24v0c0-101 71-185 165-202-18-6-35-12-53-12-12 0-24 0-41 6 23-84 100-143 195-143-71-54-160-90-255-90h-47c89-59 201-95 320-95 378 0 585 316 585 590v30c36 29 71 71 95 113z" horiz-adv-x="1000" />

<glyph glyph-name="energy" unicode="&#xe818;" d="M496 835h7c16-9 24-24 29-41 31-90 23-229 29-346-30 22-95 16-123 2 4 110-1 256 29 342 5 16 18 38 29 43v0z m-10-404c75 11 138-70 93-141-38-60-164-60-172 40-2 24 13 59 13 60 13 20 35 36 66 41v0z m-17-87c-5-52 68-43 61 2-2 15-13 28-38 23-17-4-22-14-23-25v0z m-93 17c1 0 2-1 2-2-7-35 4-66 19-89 9-14 24-22 29-35-72-38-152-83-240-118-27-10-111-49-120-1-6 31 40 63 58 79 75 63 174 120 252 166v0z m245 0c82-45 175-102 252-166 18-15 64-45 60-78-7-49-91-12-122 0-84 34-166 80-238 118 5 14 23 23 33 39 13 21 20 49 15 81v6z m-60-495h-123v352c33-17 93-12 123-2v-350z" horiz-adv-x="1000" />

<glyph glyph-name="budget" unicode="&#xe81a;" d="M523 767c-50-13-90-35-114-73-93-18-217-14-303 14-21 7-67 24-67 44 0 25 64 44 91 51 121 32 312 25 393-36v0z m-57-101c42 50 124 57 210 67 80 10 176-6 237-31 18-7 51-21 51-38 0-25-80-49-105-54-88-20-202-19-288 2-43 10-87 20-105 54v0z m-427 4c87-47 239-58 366-39v-87c-130-17-293-11-366 55 0 24 0 48 0 71v0z m427-88c126-62 373-65 498 0-5-18 6-46 0-67-8-28-72-44-107-53-129-29-328-17-391 53v67z m-427-59c89-47 240-60 366-40v-86c-130-17-294-12-366 55 0 24 0 48 0 71v0z m427-88c123-63 374-66 496 0-1-17 8-45 2-67-8-28-70-45-105-53-129-28-328-17-393 51 0 23 0 46 0 69v0z m0-147c121-64 376-66 496 0 5-20 0-48 2-71-27-30-71-41-120-51-43-9-103-24-155-12-14 3-29 19-47 27-48 23-113 33-176 40 0 22 0 45 0 67v0z m-107-128c83 5 174-2 243-29 24-10 53-23 53-38-1-26-82-50-105-55-92-21-199-20-288 0-31 7-105 29-105 55-1 25 60 41 84 48 44 13 75 16 118 19v0z m-202-149c125-65 373-64 498 0v-70c-103-87-396-88-498 0 0 23 0 47 0 70v0z" horiz-adv-x="1000" />

<glyph glyph-name="location" unicode="&#xe81b;" d="M331 350c-95 0-172 77-172 172s77 171 172 171c95 0 171-77 171-171s-76-172-171-172z m0 500c-183 0-331-148-331-331 0-73 47-193 143-366 69-122 136-224 139-229l49-74 49 74c3 5 70 107 138 229 97 173 144 293 144 366 0 183-149 331-331 331z" horiz-adv-x="667" />

<glyph glyph-name="livestreaming" unicode="&#xe81c;" d="M1111 850h-1000c-61 0-111-50-111-111v-167h111v167h1000v-778h-389v-111h389c61 0 111 50 111 111v778c0 61-50 111-111 111v0z m-1111-833v-167h167c0 94-73 167-167 167v0z m0 222v-111c156 0 278-122 278-278h111c0 217-172 389-389 389v0z m0 222v-111c278 0 500-222 500-500h111c0 339-272 611-611 611v0z" horiz-adv-x="1222.7" />

<glyph glyph-name="icon-calendar" unicode="&#xe81d;" d="M240 643c-37 0-68 31-68 68v71c0 38 31 68 68 68s68-30 68-68v-71c0-37-30-68-68-68v0z m414 0c-37 0-68 31-68 68v71c0 38 31 68 68 68s68-30 68-68v-71c0-37-30-68-68-68v0z m105-655h-104v103h104v-103z m0 172h-104v104h104v-104z m0 173h-104v103h104v-103z m-173-345h-103v103h103v-103z m0 172h-103v104h103v-104z m0 173h-103v103h103v-103z m-172-345h-104v103h104v-103z m0 172h-104v104h104v-104z m0 173h-104v103h104v-103z m-173-345h-103v103h103v-103z m0 172h-103v104h103v-104z m0 173h-103v103h103v-103z m587 172h-759v-586h759v586z m0-655h-759c-38 0-69 31-69 69v759c0 38 31 69 69 69h69v-35c0-57 46-103 103-103s104 46 104 103v35h207v-35c0-57 46-103 103-103s104 46 104 103v35h69c38 0 69-31 69-69v-759c0-38-31-69-69-69v0z" horiz-adv-x="896.5" />

<glyph glyph-name="generic-lang" unicode="&#xe81e;" d="M649 333h79c13 28 21 58 23 90h-89c-1-33-6-63-13-90z m14 126h89c-2 32-10 62-23 90h-80c7-27 12-57 14-90z m-144-162v-103c16 12 53 44 79 103h-79z m117 0c-16-40-37-72-56-94 52 18 96 50 127 94h-71z m2 288h70c-30 44-74 77-125 95 18-23 39-54 55-95z m-26-36h-93v-90h108c-2 34-7 64-15 90z m14-126h-107v-90h93c8 26 13 56 14 90z m-28 163c-8 22-20 40-30 55-15 20-30 34-41 43-2 3-5 4-8 6v-104l79 0z m-194 0h80v103c-17-12-54-45-80-103z m-109 0h71c15 40 37 72 56 94-52-17-96-51-127-94z m44-162h-89c2-32 10-63 23-90h79c-7 27-11 56-13 90z m14 126h-79c-13-28-21-58-24-90h90c2 33 6 63 13 90z m-353 81v-379c0-121 98-219 219-219h147l383-183v183h34c120 0 219 98 219 219v379c0 121-99 219-219 219h-564c-121 0-219-98-219-219z m214-189c0 159 129 288 288 287 159 0 287-129 286-288 0-159-129-288-288-287-159 0-287 129-286 288z m151-144h-71c31-44 75-77 126-95-19 23-40 54-55 95z m26 36h92v90h-107c1-34 6-64 15-90z m-15 126h107v90h-93c-8-26-12-56-14-90z m27-163c9-21 21-39 31-54 15-19 30-34 41-43 2-3 5-5 7-6v103h-79z" horiz-adv-x="1002" />

<glyph glyph-name="down" unicode="&#xe81f;" d="M500 131c-17 0-33 7-45 19l-311 310c-25 25-25 65 0 90s66 25 91 0l265-264 265 264c25 25 66 25 91 0 25-25 25-65 0-90l-311-310c-12-12-28-19-45-19v0z" horiz-adv-x="1000" />

<glyph glyph-name="multiple-files" unicode="&#xe820;" d="M549 666c30 0 58-31 58-59v-700c0-29-30-57-58-57h-405c-33 0-61 30-61 57v615l146 142h320v2z m0-59h-262v-89c0-30-30-57-56-57h-89v-554h407v700z m0 59c30 0 58-31 58-59v-700c0-29-30-57-58-57h-405c-33 0-61 30-61 57v615l146 142h320v2z m-488-565v536h91c30 0 61 27 61 59v93h273v-103h61v103c0 31-31 61-63 61h-332l-152-148v-603c0-26 28-57 61-59v61z" horiz-adv-x="607" />

<glyph glyph-name="arrow-up" unicode="&#xe821;" d="M1216-150l-621 1000-595-1000z" horiz-adv-x="1215.8" />

<glyph glyph-name="arrow-down" unicode="&#xe822;" d="M0 850l622-1000 594 1000z" horiz-adv-x="1215.8" />

<glyph glyph-name="search" unicode="&#xe823;" d="M977-8l-218 217c-1 1-2 2-3 3 43 65 68 143 68 226 0 228-185 412-412 412s-412-183-412-411c0-228 185-412 412-412 83 0 161 25 226 68 1-1 2-2 3-3l217-218c33-32 86-32 119 0 33 32 33 85 0 118v0z m-565 178c-149 0-269 120-269 269s120 269 269 269c148 0 269-120 269-269s-121-269-269-269v0z" horiz-adv-x="1001" />

<glyph glyph-name="language" unicode="&#xe824;" d="M783 850h-564c-121 0-219-98-219-219v-379c0-121 98-219 219-219h34v-183l383 183h147c120 0 219 98 219 219v379c0 121-99 219-219 219z" horiz-adv-x="1002" />

<glyph glyph-name="external" unicode="&#xe825;" d="M0 850v-1000h1000v372h-125v-249h-748v752h248v123l-375 2z m524 0l178-182-264-263 117-117 267 265 178-178v475h-476z" horiz-adv-x="1167" />

<glyph glyph-name="left" unicode="&#xe826;" d="M281 350c0 17 7 33 19 45l310 311c25 25 65 25 90 0s25-66 0-91l-264-265 264-265c25-25 25-65 0-91-25-25-65-25-90 0l-310 311c-12 12-19 28-19 45v0z" horiz-adv-x="1000" />

<glyph glyph-name="up" unicode="&#xe827;" d="M500 569c17 0 33-7 45-19l311-310c25-25 25-65 0-90s-66-25-91 0l-265 264-265-264c-25-25-65-25-91 0-25 25-25 65 0 91l311 309c12 12 28 19 45 19v0z" horiz-adv-x="1000" />

<glyph glyph-name="right" unicode="&#xe828;" d="M719 350c0-17-7-33-19-45l-310-311c-25-25-65-25-90 0s-25 66 0 91l264 265-264 265c-25 25-25 66 0 91 25 25 65 25 91 0l309-311c12-12 19-28 19-45v0z" horiz-adv-x="1000" />

<glyph glyph-name="global" unicode="&#xe829;" d="M91 464v34c12 156 73 261 165 337 13-13 29-25 39-42-87-75-154-193-144-348 15-210 201-389 436-373 98 6 165 44 229 91-12 16-27 31-44 43-89-82-261-94-376-34-105 54-195 172-184 333 11 169 134 291 284 319 179 33 330-77 384-209 48-118 22-277-49-352 27-30 57-56 81-89-89-94-206-175-391-161-126 9-227 67-298 140-74 77-124 177-130 309 0 1 0 2-2 2v0z m365 259c47-11 29-59 6-83-34-35-145-57-64-100 6-33 28-26 60-29 38-3 89-16 102-51 13-34-11-72-26-102-15-29-22-63-38-82-9-10-25-18-36-15-36 9-13 91-25 138-6 27-28 41-26 70 1 12 11 21 7 31-24 16-57 18-77 38-12 11-14 27-29 36-41-110 5-226 63-283 46-46 119-81 202-75 154 10 272 143 243 320-10-3-23-1-32-4 2-22 4-39 1-63-40-25-23-109-79-119-29 35 0 121-30 148-26 22-86-3-84 42 2 40 78 48 89 79-5 6-25-2-28 6 4 39 34 53 74 57-49 57-188 86-273 41v0z m330-856h-455c13 59 99 45 169 47 1 16-3 37 2 50h117v-50c69-2 156 13 167-47v0z" horiz-adv-x="1000" />

<glyph glyph-name="growth" unicode="&#xe82a;" d="M110 137h163v-217h-163v217z m213 106h164v-322h-164v322z m217 54h163v-376h-163v376z m213 163h164v-541h-164v541z m152 316l-222-5 81-81-211-224-174 151-301-293 59-60 245 239 177-153 265 280 76-76 5 222z" horiz-adv-x="1000" />

<glyph glyph-name="regulation" unicode="&#xe82b;" d="M493 812h12c134-70 276-156 414-233 19-10 50-22 56-35 8-17 2-59-6-65-12-12-78-6-113-6h-716c-44 0-112-10-119 17v48c3 11 11 15 17 20 33 22 74 42 112 63 109 62 233 132 343 191v0z m-8-252c84-17 87 121 0 102-58-14-40-95 0-102v0z m-158-120c8-31-3-58-29-62-1-80 3-166-2-243-45-3-104-3-150 0-4 77-1 162-2 241-23 7-38 31-29 64 66 3 146 3 212 0v0z m278 0c8-31-3-58-29-62-1-80 3-166-2-243-46-3-105-3-150 0-5 77-1 162-2 241-23 7-39 31-29 64 66 3 146 3 212 0v0z m278 0c8-31-4-58-29-62-2-80 2-166-2-243-46-3-105-3-151 0-4 77 0 162-2 241-23 7-38 31-29 64 67 3 146 3 213 0v0z m-783-339c19 6 72 2 104 2h609c29 0 84 3 95-6 13-12 10-72 0-81-12-11-68-6-99-6h-622c-28 0-84-6-97 6-16 14-12 77 10 85v0z m-79-195v54c5 12 10 16 21 19 30 7 75 0 116 0h700c35 0 99 5 111-6 13-11 10-72 0-81-12-10-76-6-110-6h-701c-56 0-124-11-137 20v0z" horiz-adv-x="1000" />

<glyph glyph-name="close" unicode="&#xe82c;" d="M940 350c0-120-45-230-130-310-85-85-195-130-310-130-120 0-230 45-310 130-85 85-130 195-130 310s45 230 130 310c80 85 190 130 310 130s230-45 310-130c85-80 130-190 130-310v0z m20 195c-25 60-60 115-105 160s-100 80-160 105c-60 25-125 40-195 40s-135-15-195-40c-60-25-115-60-160-105-45-50-80-100-105-160s-40-125-40-195 15-135 40-195c25-60 60-115 105-160s100-80 160-105c60-25 125-40 195-40s135 15 195 40c60 25 115 60 160 105s80 100 105 160c25 60 40 125 40 195s-15 135-40 195v0z m-255-340l-145 145 145 145-60 60-145-145-145 145-60-60 145-145-145-145 60-60 145 145 145-145 60 60z" horiz-adv-x="1000" />

<glyph glyph-name="close-dark" unicode="&#xe82d;" d="M647 142l-147 147-147-147-61 62 146 147-146 145 62 62 146-146 146 147 62-62-147-146 148-148-62-61z m-147 708c-276 0-500-224-500-500s224-500 500-500c276 0 500 224 500 500s-224 500-500 500v0z" horiz-adv-x="1000" />

<glyph glyph-name="feedback" unicode="&#xe82e;" d="M1167 417c0-114-59-217-155-294 4-75 20-177 79-229-112 0-226 70-293 120-67-20-139-31-215-31-322 0-583 195-583 434 0 239 261 433 583 433 322 0 584-194 584-433z" horiz-adv-x="1167" />

<glyph glyph-name="error" unicode="&#xe82f;" d="M694 822h-391l-275-278v-391l278-275h391l275 278v388z m-133-480l97-98a13 13 0 0 0 0-19l-36-36a13 13 0 0 0-19 0l-97 97a13 13 0 0 1-20 0l-97-97a13 13 0 0 0-20 0l-36 36a13 13 0 0 0 0 19l98 98a13 13 0 0 1 0 19l-98 97a13 13 0 0 0 0 20l36 36a13 13 0 0 0 20 0l97-97a13 13 0 0 1 20 0l97 97a13 13 0 0 0 19 0l36-36a13 13 0 0 0 0-20l-97-97a13 13 0 0 1 0-19z" horiz-adv-x="1000" />
</font>
</defs>
</svg>
