<?xml version="1.0" encoding="utf-8"?>
<!-- Generator: Adobe Illustrator 19.2.0, SVG Export Plug-In . SVG Version: 6.00 Build 0)  -->
<svg version="1.1" id="Layer_1" xmlns:sketch="http://www.bohemiancoding.com/sketch/ns"
	 xmlns="http://www.w3.org/2000/svg" xmlns:xlink="http://www.w3.org/1999/xlink" x="0px" y="0px" viewBox="0 0 22 22"
	 style="enable-background:new 0 0 22 22;" xml:space="preserve">
<style type="text/css">
	.st0{fill:#FFFFFF;}
	.st1{fill:#B3B4B5;}
</style>
<title>Page 1</title>
<desc>Created with Sketch.</desc>
<g>
	<path class="st0" d="M5.6,18.8c-1.3,0-2.4-1.1-2.4-2.4V5.6c0-1.3,1.1-2.4,2.4-2.4h10.8c1.3,0,2.4,1.1,2.4,2.4v10.8
		c0,1.3-1.1,2.4-2.4,2.4H5.6z"/>
	<path class="st1" d="M16.4,4.4c0.7,0,1.2,0.5,1.2,1.2v10.8c0,0.7-0.5,1.2-1.2,1.2H5.6c-0.7,0-1.2-0.5-1.2-1.2V5.6
		c0-0.7,0.5-1.2,1.2-1.2H16.4 M16.4,2H5.6C3.6,2,2,3.6,2,5.6v10.8c0,2,1.6,3.6,3.6,3.6h10.8c2,0,3.6-1.6,3.6-3.6V5.6
		C20,3.6,18.4,2,16.4,2L16.4,2z"/>
</g>
</svg>
