<?xml version="1.0" encoding="utf-8"?>
<!-- Generator: Adobe Illustrator 19.2.0, SVG Export Plug-In . SVG Version: 6.00 Build 0)  -->
<svg version="1.1" id="Layer_1" xmlns="http://www.w3.org/2000/svg" xmlns:xlink="http://www.w3.org/1999/xlink" x="0px" y="0px"
	 viewBox="0 0 18 18" style="enable-background:new 0 0 18 18;" xml:space="preserve">
<style type="text/css">
	.st0{fill:#FFFFFF;}
	.st1{fill:#B3B4B5;}
</style>
<title>Rectangle 37</title>
<desc>Created with Sketch.</desc>
<g>
	<path class="st0" d="M2.8,17.1c-1,0-1.9-0.9-1.9-1.9V2.8c0-1,0.9-1.9,1.9-1.9h12.4c1,0,1.9,0.9,1.9,1.9v12.3c0,1-0.9,1.9-1.9,1.9
		H2.8V17.1z"/>
	<path class="st1" d="M15.3,1.9c0.6,0,0.9,0.4,0.9,0.9v12.3c0,0.6-0.4,0.9-0.9,0.9H2.8c-0.6,0-0.9-0.4-0.9-0.9V2.8
		c0-0.6,0.4-0.9,0.9-0.9H15.3 M15.3,0H2.8C1.2,0,0,1.2,0,2.8v12.3C0,16.8,1.2,18,2.8,18h12.4c1.6,0,2.8-1.2,2.8-2.8V2.8
		C18.1,1.2,16.9,0,15.3,0L15.3,0z"/>
</g>
</svg>
