<?xml version="1.0" encoding="UTF-8" standalone="no"?>
<!-- Generated by IcoMoon.io -->

<svg
   xmlns:dc="http://purl.org/dc/elements/1.1/"
   xmlns:cc="http://creativecommons.org/ns#"
   xmlns:rdf="http://www.w3.org/1999/02/22-rdf-syntax-ns#"
   xmlns:svg="http://www.w3.org/2000/svg"
   xmlns="http://www.w3.org/2000/svg"
   xmlns:sodipodi="http://sodipodi.sourceforge.net/DTD/sodipodi-0.dtd"
   xmlns:inkscape="http://www.inkscape.org/namespaces/inkscape"
   version="1.1"
   width="448"
   height="384"
   viewBox="0 0 448 384"
   id="svg2"
   inkscape:version="0.48.4 r9939"
   sodipodi:docname="link-external.svg">
  <metadata
     id="metadata11">
    <rdf:RDF>
      <cc:Work
         rdf:about="">
        <dc:format>image/svg+xml</dc:format>
        <dc:type
           rdf:resource="http://purl.org/dc/dcmitype/StillImage" />
        <dc:title></dc:title>
      </cc:Work>
    </rdf:RDF>
  </metadata>
  <defs
     id="defs9" />
  <sodipodi:namedview
     pagecolor="#ffffff"
     bordercolor="#666666"
     borderopacity="1"
     objecttolerance="10"
     gridtolerance="10"
     guidetolerance="10"
     inkscape:pageopacity="0"
     inkscape:pageshadow="2"
     inkscape:window-width="1920"
     inkscape:window-height="1003"
     id="namedview7"
     showgrid="false"
     fit-margin-top="0"
     fit-margin-left="0"
     fit-margin-right="0"
     fit-margin-bottom="0"
     inkscape:zoom="0.52678571"
     inkscape:cx="224"
     inkscape:cy="160"
     inkscape:window-x="-9"
     inkscape:window-y="-9"
     inkscape:window-maximized="1"
     inkscape:current-layer="svg2" />
  <g
     id="icomoon-ignore" />
  <path
     d="m 352,232 v 80 q 0,29.75 -21.125,50.875 Q 309.75,384 280,384 H 72 Q 42.25,384 21.125,362.875 0,341.75 0,312 V 104 Q 0,74.25 21.125,53.125 42.25,32 72,32 h 176 q 3.5,0 5.75,2.25 Q 256,36.5 256,40 v 16 q 0,3.5 -2.25,5.75 Q 251.5,64 248,64 H 72 Q 55.5,64 43.75,75.75 32,87.5 32,104 v 208 q 0,16.5 11.75,28.25 Q 55.5,352 72,352 h 208 q 16.5,0 28.25,-11.75 Q 320,328.5 320,312 v -80 q 0,-3.5 2.25,-5.75 Q 324.5,224 328,224 h 16 q 3.5,0 5.75,2.25 Q 352,228.5 352,232 z M 448,16 v 128 q 0,6.5 -4.75,11.25 Q 438.5,160 432,160 q -6.5,0 -11.25,-4.75 l -44,-44 -163,163 q -2.5,2.5 -5.75,2.5 -3.25,0 -5.75,-2.5 l -28.5,-28.5 q -2.5,-2.5 -2.5,-5.75 0,-3.25 2.5,-5.75 l 163,-163 -44,-44 Q 288,22.5 288,16 288,9.5 292.75,4.75 297.5,0 304,0 h 128 q 6.5,0 11.25,4.75 Q 448,9.5 448,16 z"
     id="path5"
     inkscape:connector-curvature="0" />
</svg>
