<?xml version="1.0" encoding="utf-8"?>
<!-- Generator: Adobe Illustrator 19.0.0, SVG Export Plug-In . SVG Version: 6.00 Build 0)  -->
<!DOCTYPE svg PUBLIC "-//W3C//DTD SVG 1.1//EN" "http://www.w3.org/Graphics/SVG/1.1/DTD/svg11.dtd">
<svg version="1.1" id="Layer_1" xmlns="http://www.w3.org/2000/svg" xmlns:xlink="http://www.w3.org/1999/xlink" x="0px" y="0px"
	 viewBox="-51 489.4 376 192.1" style="enable-background:new -51 489.4 376 192.1;" xml:space="preserve">
<style type="text/css">
	.st0{fill:#BCBEC0;}
	.st1{fill:#034EA2;}
	.st2{fill:#FFF200;}
	.st3{fill:#404040;}
</style>
<g>
	<path class="st0" d="M47.1,527.6c0,0,61.8-8.1,63.6-8.4c2.7-0.4,5.1-1,7.3-1.6c5-1.4,9.6-3.5,13.7-6.3c3.9-2.6,7.5-6.5,11.1-10.7
		c2.3-2.7,4.7-6.2,6.9-9.6v-1.6c-2.7,4-5.3,7.4-8,10.4c-3.6,4-7.3,7.3-11.1,9.8c-3.9,2.6-8.4,4.5-13.2,5.7c-2.2,0.5-4.5,1-7.1,1.4
		c-1.7,0.2-3.5,0.4-5.2,0.6c-0.7,0.1-58.1,6.2-58.1,6.2v4.1H47.1z"/>
	<path class="st0" d="M130,517.2c-3.9,2.2-8.3,3.9-13.3,4.9c-2.1,0.4-4.4,0.8-7,1.1c-1.5,0.2-3.1,0.3-4.7,0.4
		c-0.8,0.1-1.7,0.1-2.5,0.2c-19,1.7-37.8,3.5-55.4,5.3v4c17.8-2.2,36.8-4.4,55.7-6.6c0.8-0.1,1.7-0.2,2.5-0.3
		c1.6-0.2,3.1-0.3,4.7-0.6c2.7-0.4,5.1-0.8,7.2-1.3c5.1-1.2,9.8-3,13.8-5.4c4-2.4,7.5-5.8,11.3-9.9c2.4-2.6,5-6.2,7.4-9.6v-1.5
		c-2.9,4-5.6,7.3-8.4,10.1C137.6,511.9,133.8,515,130,517.2"/>
	<path class="st0" d="M140.8,516.2c-3.8,3.5-7.7,6.2-11.7,8.2c-3.9,1.9-8.3,3.2-13.4,4.1c-2.1,0.4-4.4,0.6-7,0.9L47,534.5v4
		l54.8-5.9l7.2-0.8c2.7-0.3,5-0.7,7.1-1.1c5.3-1,9.8-2.5,13.8-4.6c4.1-2.1,8.2-5.6,12.1-9.3c2.6-2.5,5-5.7,7.7-9v-1.3
		C146.6,510.3,143.7,513.5,140.8,516.2"/>
	<path class="st0" d="M125.9,537.1c-3.6,2-6.3,3.2-11.4,3.7c-3.1,0.3-6.3,0.5-9.4,0.7c-1.5,0.1-3,0.1-4.5,0.2
		c-9.3,0.5-18.5,1.1-27.8,1.7L47,545.1v4l26-2.4c8.4-0.8,18.2-1.6,27.7-2.4l6.9-0.5c2.7-0.2,4.9-0.4,7-0.7c5.3-0.7,9.8-1.8,13.8-3.3
		c4.3-1.6,8.4-4.1,12.4-7.1c3.7-2.7,8.7-7.9,8.7-8v-1.4c-3.3,3.3-5.2,5.1-8.8,7.5C136.5,533.8,129.1,535.3,125.9,537.1"/>
	<path class="st0" d="M127.2,544.8c-3.9,1.1-8.3,1.9-13.4,2.4c-2.1,0.2-4.3,0.3-6.8,0.4l-6.9,0.3c-17.1,0.8-34.2,1.7-53,2.7v4
		c18-1.4,35.6-2.8,53.2-4l6.9-0.5c2.7-0.2,4.9-0.4,6.9-0.6c5.2-0.6,9.7-1.5,13.7-2.8c4.4-1.4,8.7-3.5,12.8-6.1c3-1.9,6-4.2,9.1-7
		v-0.1c-3.4,3-6.7,3.6-10,5.6C135.7,541.6,131.5,543.5,127.2,544.8"/>
	<path class="st0" d="M126.6,551.5c-3.9,0.9-8.2,1.5-13.4,1.9c-2,0.1-4.2,0.2-6.8,0.3l-6.8,0.2c-17.2,0.7-34.7,1.4-52.5,2.2v4
		c17.7-1.2,35.1-2.4,52.7-3.5l6.8-0.4c2.7-0.2,4.9-0.3,6.9-0.5c5.3-0.5,9.6-1.2,13.6-2.3c4.5-1.2,8.9-2.9,13-5.1
		c3.2-1.7,6.4-3.8,9.7-6.2v-1.7c-3.6,2.6-7,4.7-10.4,6.4C135.2,548.9,131,550.4,126.6,551.5"/>
	<path class="st0" d="M126,558c-3.9,0.7-8.2,1.2-13.3,1.5c-1.9,0.1-4,0.2-6.7,0.2l-58.9,1.6v4l52.2-2.7l6.8-0.3
		c2.6-0.1,4.8-0.3,6.8-0.4c5.2-0.4,9.5-1,13.6-1.8c4.6-1,9-2.3,13.1-4.1c3.4-1.4,6.7-3.2,10.2-5.3v-1.6c-3.7,2.2-7.3,3.9-10.8,5.4
		C134.8,556,130.4,557.2,126,558"/>
	<path class="st0" d="M125.5,564.6c-7.2,1-14.7,1.1-21.8,1.2c-1.6,0-3.3,0-4.9,0.1l-51.7,0.9v4l51.8-2.2c1.6-0.1,3.3-0.1,4.9-0.2
		c7.2-0.3,14.7-0.6,22-1.8c4.6-0.7,9.1-1.8,13.3-3.2c3.4-1.2,7-2.7,10.6-4.4v-1.5c-3.8,1.8-7.5,3.3-11.1,4.4
		C134.4,563,130.1,564,125.5,564.6"/>
	<path class="st0" d="M125.1,571.2c-6.8,0.6-13.7,0.6-20.4,0.6c-2.1,0-4.2,0-6.3,0c-17.1,0.1-34.1,0.2-51.4,0.4v4
		c16.5-0.6,34-1.2,51.5-1.7c2.1-0.1,4.2-0.1,6.2-0.2c6.7-0.2,13.7-0.3,20.5-1.1c4.8-0.5,9.1-1.3,13.3-2.3c3.6-0.9,7.4-2.1,11.1-3.5
		v-1.5c-3.9,1.4-7.7,2.5-11.5,3.4C134.1,570.2,129.8,570.8,125.1,571.2"/>
	<path class="st0" d="M124.9,577.7c-2.8,0.1-5.9,0.2-9.3,0.2c-1.3,0-2.6,0-3.9,0l-13.3-0.2c-9.1-0.1-18.1-0.1-26.6-0.1H47.2v4
		l24.6-0.7c8.5-0.2,17.5-0.4,26.6-0.6l13.3-0.2c3.7-0.1,8.5-0.2,13.3-0.5c4.8-0.3,9.1-0.8,13.3-1.5c3.8-0.6,7.6-1.4,11.4-2.4v-1.4
		c-3.9,0.9-7.9,1.6-11.7,2.2C133.9,577.2,129.6,577.6,124.9,577.7"/>
	<path class="st0" d="M111.4,584.1L98.1,584c-16.9-0.2-33.9-0.6-51.1-0.9v4c16.5-0.1,33.9-0.2,51.1-0.4l13.3-0.2
		c4.5-0.1,8.9-0.2,13.3-0.3c9.1-0.3,17.3-0.9,24.9-2v-1.4c-7.7,0.8-15.9,1.3-25,1.3C120.3,584.1,115.9,584.1,111.4,584.1"/>
	<polygon class="st0" points="149.7,591.1 47.1,588.5 47.1,592.5 149.7,592.5 	"/>
	<path class="st0" d="M140.4,523.7c-3.9,3.2-6.9,5.4-11.7,7.3c-4.2,1.7-8.6,2.3-13.7,3c-3.3,0.5-6.7,1.1-10,1.4
		c-1.3,0.1-2.7,0.2-4,0.3l-54,4v4l54.2-5.3l7-0.7c2.6-0.2,4.9-0.5,7.1-0.9c5.3-0.8,9.8-2.1,13.8-4c4.2-1.9,8.5-4.9,12.4-8.3
		c2.7-2.3,5.3-5.1,8.1-8.3v-1.4C146.3,518.5,143.5,521.3,140.4,523.7"/>
	<path class="st0" d="M193.4,489.5c0,0,18.5,29.4,21.8,34.8c3.4,5.4,7.2,9.7,20.9,12.6c13.7,2.9,19.6,4.3,19.6,4.3v1
		c0,0-8.7-1.9-19.9-4.3c-11.2-2.5-15.7-3.3-20.8-10.4c-4.2-5.9-21.7-31-21.7-31v-7H193.4z"/>
	<path class="st0" d="M193.4,523.1c0,0,16.8,17.6,21.7,22.7c5.2,5.4,11.8,7.4,20.9,9c8.7,1.6,19.8,3.4,19.8,3.4v1
		c0,0-10.4-1.7-19.8-3.3c-9.2-1.6-15.7-2.5-21-7.3c-4.7-4.4-21.6-20.2-21.6-20.2V523.1z"/>
	<path class="st0" d="M193.4,531.1c0,0,16,14.8,21.7,19.9c5.2,4.7,9.5,6.1,21,8.2c11.5,2,19.7,3.3,19.7,3.3v1c0,0-10.4-1.7-19.8-3.2
		s-15.3-2.1-20.9-6.6c-6.5-5.2-21.7-17.8-21.7-17.8L193.4,531.1L193.4,531.1z"/>
	<path class="st0" d="M193.4,539.5c0,0,18.3,14.5,21.7,17c3.4,2.5,7.9,5.5,21,7.4c13,1.9,19.7,2.8,19.7,2.8v1.1
		c0,0-11.8-1.7-19.7-2.7c-7.9-1-13.9-1.4-21-6.1c-6.9-4.6-21.7-15-21.7-15V539.5z"/>
	<path class="st0" d="M193.4,547.7c0,0,18.3,12.2,21.8,14.1s7.5,5.1,20.9,6.8s19.7,2.5,19.7,2.5v1c0,0-11.1-1.2-19.7-2.1
		s-14.5-2.2-21-5.7c-6.4-3.5-21.7-12.4-21.7-12.4L193.4,547.7L193.4,547.7z"/>
	<path class="st0" d="M193.4,555.8c0,0,16.2,8.8,21.7,11.6c6.1,3.1,11.4,4.5,21,5.7c9.4,1.1,19.7,2.2,19.7,2.2v1c0,0-9.5-1-19.7-2
		c-10.1-1-13.7-1.4-21-4.6c-6.5-2.9-21.7-10-21.7-10V555.8z"/>
	<path class="st0" d="M193.4,564.1c0,0,12.8,5.5,21.8,9c8.8,3.5,15.6,3.8,21,4.4c2.4,0.3,19.6,2,19.6,2v1c0,0-10.3-0.8-19.7-1.7
		c-9.4-0.8-13.4-1.2-21-3.7c-7.7-2.5-21.7-7.5-21.7-7.5L193.4,564.1L193.4,564.1z"/>
	<path class="st0" d="M193.4,572.5c0,0,12.9,4,21.7,6.3c8.8,2.3,16.9,3.3,21,3.5c4.1,0.3,19.7,1.5,19.7,1.5v0.9
		c0,0-8.9-0.6-19.7-1.4c-8.8-0.6-15.8-1.3-21-2.4c-5.7-1.3-21.7-5.1-21.7-5.1V572.5z"/>
	<path class="st0" d="M193.4,580.7c0,0,10.6,1.8,21.7,3.7c8.4,1.4,19.7,2.3,20.9,2.3c1.2,0.1,19.7,1.3,19.7,1.3v1
		c0,0-11.8-0.6-19.7-1c-8.2-0.5-16.3-1-21-1.4c-10.4-1.1-21.7-2.5-21.7-2.5v-3.4H193.4z"/>
	<path class="st0" d="M193.4,589.3c0,0,16.7,0.6,21.7,0.7c5.1,0.1,40.6,1.5,40.6,1.5v1h-62.4L193.4,589.3L193.4,589.3z"/>
	<path class="st0" d="M236,541.5c-15.1-3.3-18.5-8.8-21-12.2S193.4,498,193.4,498v6.3c0.8,1,17.1,22.4,21.7,28.3
		c5.2,6.6,13.3,8.2,21,9.8c7.7,1.7,19.7,4,19.7,4v-0.9C255.7,545.4,239.9,542.3,236,541.5"/>
	<path class="st0" d="M236,545.9c-12.4-2.4-17.4-6.3-21-11.1c-3.6-4.7-21.6-28.4-21.6-28.4v6c0.8,0.9,17.2,20.4,21.6,25.5
		c5.1,5.9,12.3,7.4,21,9c8.7,1.6,19.7,3.7,19.7,3.7v-0.9C255.7,549.6,243.2,547.3,236,545.9"/>
	<path class="st0" d="M236,550.4c-12.9-2.5-15.5-4.6-21-10.5c-3.4-3.8-20.9-24.4-21.7-25.3v5.5c0,0,16.4,17.5,21.6,22.6
		c6.9,6.8,13.4,7.3,21,8.7c7.7,1.4,19.7,3.6,19.7,3.6v-0.9C255.7,554,241.2,551.4,236,550.4"/>
	<rect x="89.7" y="532.4" class="st1" width="89.9" height="60.2"/>
	<polygon class="st2" points="135.6,540.9 138.8,540.9 136.3,542.9 137.2,546 134.7,544.1 132.2,546 133.2,542.9 130.7,540.9 
		133.8,540.9 134.7,537.9 	"/>
	<polygon class="st2" points="135.8,581.1 138.9,581.1 136.4,582.9 137.3,585.9 134.8,584.1 132.3,585.9 133.3,582.9 130.8,581.1 
		133.9,581.1 134.8,578.1 	"/>
	<polygon class="st2" points="145.7,578.4 148.8,578.4 146.3,580.3 147.3,583.3 144.8,581.4 142.2,583.3 143.2,580.3 140.7,578.4 
		143.8,578.4 144.8,575.5 	"/>
	<polygon class="st2" points="145.7,543.6 148.8,543.6 146.3,545.5 147.3,548.5 144.8,546.7 142.2,548.5 143.2,545.5 140.7,543.6 
		143.8,543.6 144.8,540.7 	"/>
	<polygon class="st2" points="153,551 156.2,551 153.7,552.9 154.6,555.9 152.1,554 149.6,555.9 150.6,552.9 148.1,551 151.2,551 
		152.1,548.1 	"/>
	<polygon class="st2" points="153,571.1 156.2,571.1 153.7,573 154.6,576 152.1,574.2 149.6,576 150.6,573 148.1,571.1 151.2,571.1 
		152.1,568.2 	"/>
	<polygon class="st2" points="155.8,560.9 158.9,560.9 156.4,562.8 157.4,565.8 154.9,563.9 152.4,565.8 153.4,562.8 150.8,560.9 
		153.9,560.9 154.9,558 	"/>
	<polygon class="st2" points="125.5,543.6 128.7,543.6 126.1,545.5 127.1,548.5 124.6,546.7 122.1,548.5 123.1,545.5 120.5,543.6 
		123.7,543.6 124.6,540.7 	"/>
	<polygon class="st2" points="118.4,551 121.5,551 119,552.9 120,555.9 117.4,554 114.9,555.9 115.9,552.9 113.4,551 116.5,551 
		117.4,548.1 	"/>
	<polygon class="st2" points="115.7,560.9 118.8,560.9 116.3,562.8 117.3,565.8 114.8,564 112.3,565.8 113.3,562.8 110.7,560.9 
		113.8,560.9 114.8,558 	"/>
	<polygon class="st2" points="118.4,571.2 121.5,571.2 119,573 120,576 117.4,574.2 114.9,576 115.9,573 113.4,571.2 116.5,571.2 
		117.4,568.2 	"/>
	<polygon class="st2" points="125.6,578.4 128.8,578.4 126.2,580.3 127.2,583.3 124.7,581.5 122.2,583.3 123.2,580.3 120.6,578.4 
		123.8,578.4 124.7,575.5 	"/>
</g>
<g>
	<path class="st3" d="M-51,616.4c0-0.5,0.3-0.8,0.8-0.8h14.7c0.5,0,0.8,0.3,0.8,0.8v2.5c0,0.5-0.3,0.7-0.8,0.7h-10.9v6.9h9.7
		c0.5,0,0.8,0.2,0.8,0.7v2.5c0,0.5-0.3,0.7-0.8,0.7h-9.7v7.9h11.2c0.5,0,0.7,0.3,0.7,0.8v2.4c0,0.5-0.3,0.7-0.8,0.7h-14.9
		c-0.5,0-0.8-0.2-0.8-0.7V616.4z"/>
	<path class="st3" d="M-14.3,642.2h-2.8c-0.3,0-0.5-0.1-0.6-0.2c-0.1-0.1-0.2-0.3-0.2-0.6v-1.2H-18c-0.4,0.3-0.9,0.5-1.4,0.8
		s-1.1,0.5-1.7,0.8c-0.6,0.2-1.2,0.4-1.8,0.6s-1.2,0.2-1.9,0.2c-1.4,0-2.4-0.2-3.2-0.6c-0.8-0.4-1.4-0.9-1.8-1.6
		c-0.4-0.7-0.7-1.5-0.8-2.4c-0.1-0.9-0.2-1.9-0.2-2.9v-11.8c0-0.5,0.3-0.8,0.8-0.8h2.9c0.5,0,0.7,0.3,0.7,0.8v11.2
		c0,0.6,0,1.2,0.1,1.6c0.1,0.5,0.2,0.9,0.4,1.2c0.2,0.3,0.5,0.6,0.9,0.8c0.4,0.2,0.9,0.3,1.5,0.3c0.4,0,0.9-0.1,1.4-0.2
		s1-0.3,1.5-0.5s1-0.4,1.4-0.6c0.4-0.2,0.8-0.4,1-0.5v-13.4c0-0.2,0.1-0.4,0.2-0.6c0.1-0.1,0.3-0.2,0.6-0.2h2.8
		c0.5,0,0.8,0.3,0.8,0.8v18C-13.6,641.9-13.8,642.2-14.3,642.2z"/>
	<path class="st3" d="M-4.1,641.4c0,0.5-0.3,0.8-0.8,0.8h-2.9c-0.5,0-0.8-0.3-0.8-0.8v-18c0-0.5,0.3-0.8,0.8-0.8h2.9
		c0.5,0,0.8,0.3,0.8,0.8v1.8l0.1,0.1c0.3-0.3,0.7-0.6,1.2-0.9s1-0.6,1.5-0.8c0.5-0.3,1.1-0.5,1.7-0.7c0.6-0.2,1.1-0.4,1.6-0.4
		c0.3-0.1,0.5,0,0.6,0c0.2,0.1,0.3,0.3,0.3,0.6l0.3,2.7c0,0.3,0,0.5,0,0.6c-0.1,0.1-0.3,0.2-0.7,0.3c-0.6,0.1-1.1,0.2-1.8,0.4
		c-0.6,0.1-1.2,0.3-1.8,0.5s-1.1,0.3-1.6,0.5s-0.9,0.3-1.3,0.5v12.8H-4.1z"/>
	<path class="st3" d="M22.2,632.1c0,1.1-0.1,2.3-0.2,3.6c-0.1,1.2-0.5,2.4-1.1,3.4s-1.5,1.9-2.6,2.5c-1.2,0.7-2.8,1-4.9,1
		c-2,0-3.6-0.3-4.7-1c-1.1-0.7-2-1.5-2.6-2.5s-0.9-2.2-1.1-3.4c-0.1-1.2-0.2-2.4-0.2-3.6c0-0.9,0.1-2,0.3-3.1
		c0.2-1.1,0.6-2.2,1.1-3.2c0.6-1,1.4-1.8,2.6-2.5c1.1-0.7,2.7-1,4.6-1c1.9,0,3.5,0.3,4.6,0.9c1.2,0.6,2,1.4,2.7,2.3
		c0.6,0.9,1,2,1.2,3.2C22.1,629.7,22.2,630.9,22.2,632.1z M17.8,632.3c0-1.1-0.1-2-0.2-2.8c-0.1-0.8-0.3-1.4-0.6-2
		c-0.3-0.5-0.8-0.9-1.3-1.2s-1.3-0.4-2.2-0.4s-1.5,0.1-2.1,0.4c-0.5,0.3-1,0.7-1.3,1.2s-0.5,1.2-0.6,2s-0.2,1.7-0.2,2.7
		c0,1.1,0.1,2,0.2,2.8c0.1,0.8,0.3,1.4,0.6,2c0.3,0.5,0.7,0.9,1.2,1.2c0.5,0.3,1.2,0.4,2.1,0.4c0.9,0,1.6-0.1,2.2-0.4
		c0.6-0.3,1-0.6,1.3-1.2c0.3-0.5,0.5-1.2,0.6-2C17.8,634.3,17.8,633.4,17.8,632.3z"/>
	<path class="st3" d="M43.5,632.3c0,1.6-0.1,3.1-0.4,4.4c-0.2,1.3-0.7,2.4-1.3,3.2c-0.6,0.9-1.4,1.5-2.4,2s-2.3,0.7-3.9,0.7
		c-0.7,0-1.4-0.1-2.3-0.2c-0.9-0.1-1.8-0.4-2.7-0.7l0,0v7c0,0.2,0,0.4-0.1,0.6s-0.3,0.2-0.6,0.2H27c-0.3,0-0.5-0.1-0.6-0.2
		s-0.1-0.3-0.1-0.6v-25.4c0-0.5,0.3-0.8,0.8-0.8h2.8c0.3,0,0.5,0.1,0.6,0.2c0.1,0.1,0.1,0.3,0.1,0.6v1.2l0.1,0.1
		c0.3-0.2,0.8-0.5,1.3-0.8s1-0.5,1.6-0.8s1.1-0.4,1.7-0.6c0.6-0.2,1.2-0.2,1.8-0.2c1.3,0,2.4,0.2,3.2,0.7c0.9,0.5,1.5,1.2,2,2
		c0.5,0.9,0.8,1.9,1,3.1C43.4,629.4,43.5,630.7,43.5,632.3z M39,632.2c0-1.3-0.1-2.3-0.2-3.1c-0.1-0.8-0.3-1.4-0.6-1.8
		s-0.6-0.7-1-0.9c-0.4-0.1-0.8-0.2-1.4-0.2c-0.4,0-0.9,0.1-1.4,0.2c-0.5,0.1-1,0.3-1.5,0.5c-0.5,0.2-1,0.4-1.4,0.6s-0.8,0.4-1.1,0.6
		v10c0.9,0.3,1.7,0.4,2.5,0.5c0.7,0.1,1.4,0.1,2.1,0.1c0.7,0,1.3-0.1,1.8-0.3c0.5-0.2,0.9-0.6,1.2-1.1s0.5-1.2,0.7-2
		C38.9,634.5,39,633.5,39,632.2z"/>
	<path class="st3" d="M51.2,633.6c0,1,0.1,1.9,0.3,2.5c0.2,0.7,0.5,1.2,0.9,1.6s0.9,0.7,1.5,0.8c0.6,0.2,1.3,0.2,2.1,0.2
		c0.7,0,1.6-0.1,2.6-0.2s1.9-0.2,2.6-0.3c0.4-0.1,0.6,0,0.8,0c0.1,0.1,0.2,0.3,0.3,0.7l0.2,1.3c0.1,0.3,0,0.5,0,0.7
		c-0.1,0.2-0.3,0.4-0.7,0.5c-0.4,0.2-0.9,0.3-1.4,0.4c-0.5,0.1-1.1,0.2-1.7,0.3c-0.6,0.1-1.2,0.1-1.8,0.2c-0.6,0.1-1.1,0.1-1.6,0.1
		c-1.9,0-3.5-0.3-4.6-0.8c-1.1-0.6-2-1.3-2.6-2.2c-0.6-0.9-1-2-1.2-3.2s-0.3-2.5-0.3-3.8c0-1,0.1-2,0.2-3.2s0.5-2.3,1.1-3.4
		c0.6-1,1.4-1.9,2.6-2.6c1.1-0.7,2.7-1.1,4.6-1.1c1.8,0,3.2,0.3,4.3,0.8s2,1.2,2.6,2.1c0.6,0.8,1,1.8,1.3,2.9
		c0.2,1.1,0.4,2.2,0.4,3.2c0,0.7-0.1,1.3-0.4,1.8c-0.3,0.5-0.8,0.7-1.6,0.7H51.2z M55.2,625.8c-0.7,0-1.4,0.1-1.8,0.3
		c-0.5,0.2-0.9,0.5-1.2,0.9c-0.3,0.4-0.5,0.9-0.7,1.5c-0.1,0.6-0.2,1.3-0.3,2h7.9c0-0.6-0.1-1.2-0.2-1.8c-0.1-0.6-0.3-1.1-0.6-1.5
		c-0.3-0.4-0.7-0.8-1.2-1.1C56.7,626,56,625.8,55.2,625.8z"/>
	<path class="st3" d="M79.7,639.9c-1,0.8-2.2,1.4-3.4,1.9c-1.3,0.5-2.6,0.7-3.9,0.7c-1.1,0-2-0.1-2.7-0.4s-1.3-0.7-1.7-1.2
		s-0.7-1.1-0.9-1.8c-0.2-0.7-0.3-1.5-0.3-2.3c0-2.3,0.6-4,1.8-5.1c1.3-1.1,3.1-1.6,5.7-1.6h5.1v-1c0-0.6-0.1-1.1-0.2-1.5
		c-0.1-0.4-0.3-0.8-0.7-1c-0.3-0.3-0.7-0.5-1.3-0.6c-0.5-0.1-1.2-0.2-2-0.2c-0.3,0-0.7,0-1.2,0s-0.9,0.1-1.4,0.1s-1,0.1-1.5,0.1
		c-0.5,0.1-0.9,0.1-1.3,0.1c-0.4,0.1-0.7,0.1-0.8,0c-0.1,0-0.2-0.2-0.3-0.5l-0.4-1.5c-0.1-0.3,0-0.5,0.1-0.7
		c0.1-0.2,0.4-0.3,0.8-0.5c0.4-0.2,0.9-0.3,1.5-0.4s1.2-0.2,1.8-0.3c0.6-0.1,1.2-0.1,1.8-0.2c0.6,0,1.1-0.1,1.6-0.1
		c1.7,0,3.1,0.2,4.1,0.5c1,0.3,1.8,0.8,2.3,1.5c0.5,0.6,0.9,1.4,1,2.3c0.2,0.9,0.2,1.9,0.2,3v7.7c0,0.4,0,0.7,0.1,0.9
		c0,0.2,0.1,0.4,0.2,0.5c0.1,0.1,0.2,0.2,0.4,0.3c0.2,0.1,0.4,0.1,0.8,0.1c0.3,0,0.5,0.1,0.6,0.2c0.1,0.1,0.2,0.2,0.2,0.4v1.7
		c0,0.5-0.3,0.7-1,0.8c-0.3,0.1-0.6,0.1-1,0.1s-0.6,0.1-0.9,0.1c-0.9,0-1.7-0.2-2.3-0.5C80.4,641.5,80,640.9,79.7,639.9L79.7,639.9z
		 M79.5,633.3h-4.9c-1,0-1.8,0.2-2.4,0.7c-0.6,0.5-0.9,1.4-0.9,2.7c0,0.9,0.2,1.5,0.5,1.8c0.4,0.3,1,0.5,1.9,0.5
		c0.4,0,0.9-0.1,1.4-0.2s1-0.3,1.5-0.4c0.5-0.2,1-0.4,1.5-0.6s0.9-0.4,1.3-0.7L79.5,633.3L79.5,633.3z"/>
	<path class="st3" d="M105.8,642c-0.1,0.1-0.3,0.2-0.6,0.2h-2.9c-0.5,0-0.8-0.3-0.8-0.8v-11.2c0-1.2-0.2-2.1-0.6-2.8
		c-0.4-0.7-1.2-1.1-2.3-1.1c-0.4,0-0.9,0.1-1.4,0.2c-0.5,0.1-1,0.3-1.6,0.5c-0.5,0.2-1,0.4-1.5,0.6s-0.8,0.4-1.1,0.5v13.4
		c0,0.5-0.3,0.8-0.8,0.8h-2.8c-0.5,0-0.8-0.3-0.8-0.8v-18c0-0.5,0.3-0.8,0.8-0.8h2.8c0.5,0,0.8,0.3,0.8,0.8v1.2c0,0,0,0,0.1,0
		c0,0,0,0,0.1,0c0.4-0.3,0.8-0.5,1.3-0.8s1.1-0.5,1.7-0.8s1.2-0.4,1.8-0.6c0.6-0.1,1.3-0.2,1.9-0.2c1.4,0,2.4,0.2,3.2,0.6
		s1.4,1,1.8,1.7c0.4,0.7,0.7,1.5,0.8,2.4c0.1,0.9,0.2,1.9,0.2,2.9v11.6C105.9,641.7,105.9,641.9,105.8,642z"/>
	<path class="st3" d="M121.6,629.1c0-1.7,0.1-3.4,0.4-5c0.3-1.6,0.8-3.1,1.6-4.4c0.8-1.3,1.9-2.3,3.3-3.1c1.4-0.8,3.2-1.2,5.5-1.2
		c0.5,0,1,0,1.7,0.1c0.6,0,1.3,0.1,1.9,0.2c0.7,0.1,1.3,0.2,2,0.4c0.6,0.1,1.2,0.3,1.8,0.5c0.3,0.1,0.5,0.3,0.7,0.5
		c0.2,0.2,0.2,0.4,0.1,0.8l-0.4,1.6c-0.1,0.2-0.1,0.4-0.3,0.5c-0.2,0.1-0.4,0.1-0.8,0.1c-1-0.1-2-0.3-3.2-0.4
		c-1.1-0.1-2.2-0.2-3.3-0.2c-1.4,0-2.5,0.3-3.3,0.8s-1.5,1.2-1.9,2.1s-0.7,1.9-0.9,3.1c-0.1,1.2-0.2,2.4-0.2,3.7
		c0,1.3,0.1,2.5,0.2,3.7c0.2,1.1,0.5,2.1,0.9,3c0.5,0.8,1.1,1.5,1.9,2s1.9,0.7,3.2,0.7c1.2,0,2.3-0.1,3.3-0.2s2.1-0.2,3.2-0.4
		c0.4-0.1,0.6,0,0.8,0.1c0.2,0.1,0.2,0.3,0.3,0.6l0.3,1.5c0.2,0.6-0.1,1-0.7,1.3c-0.5,0.2-1,0.4-1.7,0.5c-0.7,0.1-1.3,0.3-2,0.4
		c-0.7,0.1-1.3,0.2-2,0.2s-1.2,0.1-1.7,0.1c-2.2,0-4.1-0.4-5.5-1.1c-1.4-0.8-2.5-1.8-3.3-3c-0.8-1.3-1.3-2.7-1.6-4.3
		C121.8,632.5,121.6,630.9,121.6,629.1z"/>
	<path class="st3" d="M160.8,632.1c0,1.1-0.1,2.3-0.2,3.6c-0.1,1.2-0.5,2.4-1.1,3.4s-1.5,1.9-2.6,2.5c-1.1,0.6-2.8,1-4.9,1
		c-2,0-3.6-0.3-4.7-1c-1.1-0.7-2-1.5-2.6-2.5s-0.9-2.2-1.1-3.4c-0.1-1.2-0.2-2.4-0.2-3.6c0-0.9,0.1-2,0.3-3.1
		c0.2-1.1,0.6-2.2,1.1-3.2c0.6-1,1.4-1.8,2.6-2.5c1.1-0.7,2.7-1,4.6-1s3.5,0.3,4.6,0.9c1.2,0.6,2,1.4,2.7,2.3c0.6,0.9,1,2,1.2,3.2
		C160.7,629.7,160.8,630.9,160.8,632.1z M156.3,632.3c0-1.1-0.1-2-0.2-2.8s-0.3-1.4-0.6-2c-0.3-0.5-0.8-0.9-1.3-1.2
		c-0.6-0.3-1.3-0.4-2.2-0.4c-0.9,0-1.5,0.1-2.1,0.4c-0.5,0.3-1,0.7-1.3,1.2s-0.5,1.2-0.6,2s-0.2,1.7-0.2,2.7c0,1.1,0.1,2,0.2,2.8
		s0.3,1.4,0.6,2c0.3,0.5,0.7,0.9,1.2,1.2c0.5,0.3,1.2,0.4,2.1,0.4s1.6-0.1,2.2-0.4c0.6-0.3,1-0.6,1.3-1.2c0.3-0.5,0.5-1.2,0.6-2
		S156.3,633.4,156.3,632.3z"/>
	<path class="st3" d="M193.2,642c-0.1,0.1-0.3,0.2-0.6,0.2h-2.9c-0.5,0-0.8-0.3-0.8-0.8V630c0-1.5-0.2-2.5-0.6-3s-1.1-0.8-2.1-0.8
		c-0.4,0-0.8,0.1-1.3,0.2c-0.5,0.1-0.9,0.3-1.4,0.5c-0.5,0.2-0.9,0.4-1.3,0.6s-0.8,0.4-1.1,0.6c0,0.2,0,0.5,0,0.8c0,0.3,0,0.7,0,1.2
		v11.3c0,0.2-0.1,0.4-0.2,0.6c-0.1,0.1-0.3,0.2-0.6,0.2h-2.9c-0.5,0-0.7-0.3-0.7-0.8v-11.6c0-1.2-0.2-2.1-0.6-2.7
		c-0.4-0.6-1.1-0.9-2.1-0.9c-0.3,0-0.7,0.1-1.2,0.2c-0.5,0.1-0.9,0.3-1.4,0.4s-0.9,0.4-1.4,0.6c-0.5,0.2-0.9,0.4-1.2,0.6v13.4
		c0,0.5-0.3,0.8-0.8,0.8h-2.9c-0.5,0-0.7-0.3-0.7-0.8v-18c0-0.5,0.2-0.8,0.7-0.8h2.8c0.5,0,0.8,0.3,0.8,0.8v1.2l0,0
		c0.4-0.3,0.8-0.5,1.3-0.8s0.9-0.5,1.5-0.7c0.5-0.2,1-0.4,1.6-0.5c0.6-0.1,1.1-0.2,1.6-0.3c1.1,0,2.2,0.2,3.1,0.5
		c0.9,0.4,1.7,1.1,2.3,2.3c1-0.7,2.1-1.4,3.3-2c1.2-0.6,2.4-0.8,3.7-0.8c1.3,0,2.3,0.2,3.1,0.6c0.8,0.4,1.4,0.9,1.8,1.6
		s0.7,1.5,0.8,2.4c0.1,0.9,0.2,1.9,0.2,2.8v11.8C193.4,641.7,193.3,641.9,193.2,642z"/>
	<path class="st3" d="M226.2,642c-0.1,0.1-0.3,0.2-0.6,0.2h-2.9c-0.5,0-0.8-0.3-0.8-0.8V630c0-1.5-0.2-2.5-0.6-3s-1.1-0.8-2.1-0.8
		c-0.4,0-0.8,0.1-1.3,0.2c-0.5,0.1-0.9,0.3-1.4,0.5c-0.5,0.2-0.9,0.4-1.3,0.6s-0.8,0.4-1.1,0.6c0,0.2,0,0.5,0,0.8c0,0.3,0,0.7,0,1.2
		v11.3c0,0.2-0.1,0.4-0.2,0.6c-0.1,0.1-0.3,0.2-0.6,0.2h-2.9c-0.5,0-0.7-0.3-0.7-0.8v-11.6c0-1.2-0.2-2.1-0.6-2.7
		c-0.4-0.6-1.1-0.9-2.1-0.9c-0.3,0-0.7,0.1-1.2,0.2c-0.5,0.1-0.9,0.3-1.4,0.4s-0.9,0.4-1.4,0.6c-0.5,0.2-0.9,0.4-1.2,0.6v13.4
		c0,0.5-0.3,0.8-0.8,0.8h-2.9c-0.5,0-0.7-0.3-0.7-0.8v-18c0-0.5,0.2-0.8,0.7-0.8h2.8c0.5,0,0.8,0.3,0.8,0.8v1.2l0,0
		c0.4-0.3,0.8-0.5,1.3-0.8s0.9-0.5,1.5-0.7c0.5-0.2,1-0.4,1.6-0.5c0.6-0.1,1.1-0.2,1.6-0.3c1.1,0,2.2,0.2,3.1,0.5
		c0.9,0.4,1.7,1.1,2.3,2.3c1-0.7,2.1-1.4,3.3-2c1.2-0.6,2.4-0.8,3.7-0.8c1.3,0,2.3,0.2,3.1,0.6c0.8,0.4,1.4,0.9,1.8,1.6
		s0.7,1.5,0.8,2.4c0.1,0.9,0.2,1.9,0.2,2.8v11.8C226.3,641.7,226.3,641.9,226.2,642z"/>
	<path class="st3" d="M235.8,617.4c0,0.3,0,0.6-0.1,0.9s-0.2,0.5-0.3,0.7c-0.2,0.2-0.4,0.4-0.7,0.5c-0.3,0.1-0.7,0.2-1.2,0.2
		s-1-0.1-1.3-0.2c-0.3-0.1-0.5-0.3-0.7-0.5s-0.3-0.5-0.3-0.7s-0.1-0.6-0.1-0.9c0-0.6,0.2-1.2,0.5-1.6c0.3-0.4,0.9-0.7,1.9-0.7
		s1.6,0.2,1.9,0.6C235.7,616.1,235.8,616.7,235.8,617.4z M235.6,641.4c0,0.2,0,0.4-0.1,0.5c-0.1,0.1-0.3,0.2-0.6,0.2H232
		c-0.5,0-0.8-0.3-0.8-0.8v-18.1c0-0.5,0.3-0.8,0.8-0.8h2.8c0.3,0,0.5,0.1,0.6,0.2c0.1,0.1,0.1,0.3,0.1,0.5v18.3H235.6z"/>
	<path class="st3" d="M255.2,636.3c0,1.2-0.2,2.2-0.7,2.9c-0.5,0.8-1.1,1.4-1.8,1.9c-0.8,0.5-1.6,0.8-2.6,1s-2,0.3-3,0.3
		s-2.1-0.1-3.3-0.2c-1.2-0.1-2.1-0.4-2.9-0.7c-0.4-0.2-0.7-0.3-0.8-0.5c-0.1-0.2-0.1-0.5-0.1-0.8l0.3-1.3c0.1-0.3,0.2-0.5,0.3-0.6
		c0.2-0.1,0.4-0.1,0.7,0c0.4,0.1,0.9,0.1,1.4,0.2c0.5,0.1,1,0.1,1.6,0.1c0.5,0,1,0.1,1.5,0.1s0.9,0,1.2,0c1.3,0,2.2-0.2,2.8-0.5
		c0.6-0.4,0.8-0.9,0.8-1.7c0-0.5,0-0.8-0.1-1.1c-0.1-0.3-0.3-0.5-0.5-0.7c-0.2-0.2-0.6-0.3-1-0.5c-0.4-0.1-0.9-0.2-1.6-0.3
		c-1-0.1-1.9-0.3-2.8-0.5c-0.9-0.2-1.7-0.5-2.3-0.9c-0.7-0.4-1.2-1-1.6-1.6c-0.4-0.7-0.6-1.6-0.6-2.7c0-2,0.7-3.5,2.1-4.5
		s3.2-1.5,5.4-1.5c0.4,0,0.9,0,1.4,0s1.1,0.1,1.6,0.2c0.5,0.1,1.1,0.2,1.6,0.3c0.5,0.1,1,0.2,1.4,0.4c0.7,0.3,0.9,0.7,0.8,1.2
		l-0.3,1.4c-0.1,0.3-0.2,0.5-0.3,0.5c-0.1,0.1-0.4,0.1-0.8,0c-0.9-0.1-1.8-0.2-2.8-0.3c-1-0.1-1.9-0.1-2.6-0.1
		c-1.3,0-2.1,0.2-2.5,0.5c-0.4,0.4-0.6,0.9-0.6,1.7c0,0.8,0.3,1.3,0.8,1.5c0.5,0.2,1.4,0.5,2.6,0.6c1,0.1,1.9,0.3,2.7,0.5
		c0.9,0.2,1.6,0.5,2.3,1c0.7,0.4,1.2,1,1.6,1.7C255,634.1,255.2,635.1,255.2,636.3z"/>
	<path class="st3" d="M273.5,636.3c0,1.2-0.2,2.2-0.7,2.9c-0.5,0.8-1.1,1.4-1.8,1.9c-0.8,0.5-1.6,0.8-2.6,1s-2,0.3-3,0.3
		s-2.1-0.1-3.3-0.2c-1.2-0.1-2.1-0.4-2.9-0.7c-0.4-0.2-0.7-0.3-0.8-0.5c-0.1-0.2-0.1-0.5-0.1-0.8l0.3-1.3c0.1-0.3,0.2-0.5,0.3-0.6
		c0.2-0.1,0.4-0.1,0.7,0c0.4,0.1,0.9,0.1,1.4,0.2c0.5,0.1,1,0.1,1.6,0.1c0.5,0,1,0.1,1.5,0.1s0.9,0,1.2,0c1.3,0,2.2-0.2,2.8-0.5
		c0.6-0.4,0.8-0.9,0.8-1.7c0-0.5,0-0.8-0.1-1.1c-0.1-0.3-0.3-0.5-0.5-0.7c-0.2-0.2-0.6-0.3-1-0.5c-0.4-0.1-0.9-0.2-1.6-0.3
		c-1-0.1-1.9-0.3-2.8-0.5c-0.9-0.2-1.7-0.5-2.3-0.9c-0.7-0.4-1.2-1-1.6-1.6c-0.4-0.7-0.6-1.6-0.6-2.7c0-2,0.7-3.5,2.1-4.5
		s3.2-1.5,5.4-1.5c0.4,0,0.9,0,1.4,0s1.1,0.1,1.6,0.2c0.5,0.1,1.1,0.2,1.6,0.3c0.5,0.1,1,0.2,1.4,0.4c0.7,0.3,0.9,0.7,0.8,1.2
		l-0.3,1.4c-0.1,0.3-0.2,0.5-0.3,0.5c-0.1,0.1-0.4,0.1-0.8,0c-0.9-0.1-1.8-0.2-2.8-0.3c-1-0.1-1.9-0.1-2.6-0.1
		c-1.3,0-2.1,0.2-2.5,0.5c-0.4,0.4-0.6,0.9-0.6,1.7c0,0.8,0.3,1.3,0.8,1.5c0.5,0.2,1.4,0.5,2.6,0.6c1,0.1,1.9,0.3,2.7,0.5
		c0.9,0.2,1.6,0.5,2.3,1c0.7,0.4,1.2,1,1.6,1.7C273.3,634.1,273.5,635.1,273.5,636.3z"/>
	<path class="st3" d="M282.4,617.4c0,0.3,0,0.6-0.1,0.9s-0.2,0.5-0.3,0.7c-0.2,0.2-0.4,0.4-0.7,0.5c-0.3,0.1-0.7,0.2-1.2,0.2
		s-1-0.1-1.3-0.2c-0.3-0.1-0.5-0.3-0.7-0.5s-0.3-0.5-0.3-0.7s-0.1-0.6-0.1-0.9c0-0.6,0.2-1.2,0.5-1.6c0.3-0.4,0.9-0.7,1.9-0.7
		s1.6,0.2,1.9,0.6C282.3,616.1,282.4,616.7,282.4,617.4z M282.2,641.4c0,0.2,0,0.4-0.1,0.5c-0.1,0.1-0.3,0.2-0.6,0.2h-2.8
		c-0.5,0-0.8-0.3-0.8-0.8v-18.1c0-0.5,0.3-0.8,0.8-0.8h2.8c0.3,0,0.5,0.1,0.6,0.2c0.1,0.1,0.1,0.3,0.1,0.5V641.4z"/>
	<path class="st3" d="M304.1,632.1c0,1.1-0.1,2.3-0.2,3.6c-0.1,1.2-0.5,2.4-1.1,3.4s-1.5,1.9-2.6,2.5c-1.1,0.6-2.8,1-4.9,1
		c-2,0-3.6-0.3-4.7-1c-1.1-0.7-2-1.5-2.6-2.5s-0.9-2.2-1.1-3.4c-0.1-1.2-0.2-2.4-0.2-3.6c0-0.9,0.1-2,0.3-3.1
		c0.2-1.1,0.6-2.2,1.1-3.2c0.6-1,1.4-1.8,2.6-2.5c1.1-0.7,2.7-1,4.6-1s3.5,0.3,4.6,0.9c1.2,0.6,2,1.4,2.7,2.3c0.6,0.9,1,2,1.2,3.2
		C304,629.7,304.1,630.9,304.1,632.1z M299.6,632.3c0-1.1-0.1-2-0.2-2.8s-0.3-1.4-0.6-2c-0.3-0.5-0.8-0.9-1.3-1.2
		c-0.6-0.3-1.3-0.4-2.2-0.4c-0.9,0-1.5,0.1-2.1,0.4c-0.5,0.3-1,0.7-1.3,1.2s-0.5,1.2-0.6,2s-0.2,1.7-0.2,2.7c0,1.1,0.1,2,0.2,2.8
		s0.3,1.4,0.6,2c0.3,0.5,0.7,0.9,1.2,1.2c0.5,0.3,1.2,0.4,2.1,0.4s1.6-0.1,2.2-0.4c0.6-0.3,1-0.6,1.3-1.2c0.3-0.5,0.5-1.2,0.6-2
		S299.6,633.4,299.6,632.3z"/>
	<path class="st3" d="M324.8,642c-0.1,0.1-0.3,0.2-0.6,0.2h-2.9c-0.5,0-0.8-0.3-0.8-0.8v-11.2c0-1.2-0.2-2.1-0.6-2.8
		c-0.4-0.7-1.2-1.1-2.3-1.1c-0.4,0-0.9,0.1-1.4,0.2c-0.5,0.1-1,0.3-1.6,0.5c-0.5,0.2-1,0.4-1.5,0.6s-0.8,0.4-1.1,0.5v13.4
		c0,0.5-0.3,0.8-0.8,0.8h-2.8c-0.5,0-0.8-0.3-0.8-0.8v-18c0-0.5,0.3-0.8,0.8-0.8h2.8c0.5,0,0.8,0.3,0.8,0.8v1.2c0,0,0,0,0.1,0
		s0,0,0.1,0c0.4-0.3,0.8-0.5,1.3-0.8s1.1-0.5,1.7-0.8s1.2-0.4,1.8-0.6s1.3-0.2,1.9-0.2c1.4,0,2.4,0.2,3.2,0.6c0.8,0.4,1.4,1,1.8,1.7
		s0.7,1.5,0.8,2.4c0.1,0.9,0.2,1.9,0.2,2.9v11.6C325,641.7,325,641.9,324.8,642z"/>
	<path class="st3" d="M-1.3,681.2h-1.2c-0.3,0-0.5-0.2-0.5-0.5v-17.6c0-0.2,0-0.3,0.1-0.4c0.1-0.1,0.2-0.1,0.4-0.1h1.2
		c0.1,0,0.3,0,0.4,0.1c0.1,0.1,0.1,0.2,0.1,0.4v17.6C-0.8,681-1,681.2-1.3,681.2z"/>
	<path class="st3" d="M13.8,681.2h-1.2c-0.3,0-0.5-0.2-0.5-0.5v-8.3c0-0.6,0-1.2-0.1-1.6s-0.2-0.8-0.4-1s-0.4-0.4-0.7-0.5
		c-0.3-0.1-0.6-0.1-1.1-0.1c-0.3,0-0.7,0.1-1.2,0.2c-0.4,0.1-0.9,0.3-1.3,0.4c-0.4,0.2-0.9,0.3-1.3,0.5c-0.4,0.2-0.7,0.3-0.9,0.4
		v9.9c0,0.3-0.2,0.5-0.5,0.5H3.5c-0.3,0-0.4-0.2-0.4-0.5v-12.7c0-0.3,0.1-0.5,0.4-0.5h1.1c0.2,0,0.3,0,0.4,0.1
		c0.1,0.1,0.1,0.2,0.1,0.4v1h0.1c0.2-0.1,0.5-0.3,0.9-0.5s0.8-0.4,1.2-0.6c0.4-0.2,0.9-0.3,1.4-0.5c0.5-0.2,1-0.2,1.5-0.2
		c0.9,0,1.6,0.1,2.2,0.4c0.5,0.3,0.9,0.6,1.2,1.1s0.5,1,0.5,1.6c0,0.6,0.1,1.3,0.1,2.1v8.3C14.3,681,14.1,681.2,13.8,681.2z"/>
	<path class="st3" d="M23.1,661.4c0.1,0,0.3,0,0.6,0c0.2,0,0.5,0.1,0.8,0.1s0.6,0.1,0.9,0.2c0.3,0.1,0.6,0.2,0.9,0.3
		c0.1,0.1,0.2,0.1,0.3,0.3c0,0.1,0,0.2,0,0.3l-0.1,0.6c0,0.1-0.1,0.2-0.3,0.3c-0.1,0-0.3,0.1-0.5,0c-0.6-0.1-1.1-0.2-1.5-0.2
		s-0.7,0-0.9,0c-1,0-1.6,0.2-2.1,0.6c-0.4,0.4-0.6,1.1-0.6,2.1v1.5h3.5c0.3,0,0.5,0.2,0.5,0.5v0.8c0,0.3-0.2,0.5-0.5,0.5h-3.5v11.4
		c0,0.3-0.1,0.5-0.4,0.5h-1.1c-0.3,0-0.5-0.2-0.5-0.5v-11.4h-1.4c-0.3,0-0.5-0.2-0.5-0.5V668c0-0.3,0.2-0.5,0.5-0.5h1.4v-1.6
		c0-0.7,0.1-1.3,0.2-1.9c0.2-0.6,0.4-1,0.8-1.4c0.4-0.4,0.8-0.7,1.4-0.9C21.6,661.5,22.3,661.4,23.1,661.4z"/>
	<path class="st3" d="M37.6,674.1c0,0.8,0,1.7-0.1,2.5c-0.1,0.9-0.3,1.6-0.7,2.4c-0.4,0.7-1,1.3-1.7,1.7c-0.7,0.4-1.9,0.7-3.2,0.7
		s-2.4-0.2-3.1-0.7c-0.8-0.4-1.3-1-1.7-1.7s-0.6-1.5-0.7-2.4c-0.1-0.9-0.1-1.7-0.1-2.5c0-0.7,0.1-1.4,0.2-2.2
		c0.1-0.8,0.4-1.5,0.7-2.2c0.4-0.7,0.9-1.3,1.7-1.7c0.7-0.5,1.8-0.7,3-0.7c1.3,0,2.3,0.2,3.1,0.6c0.8,0.4,1.4,0.9,1.8,1.6
		c0.4,0.6,0.7,1.4,0.8,2.2C37.5,672.5,37.6,673.3,37.6,674.1z M35.4,674.3c0-0.9,0-1.6-0.1-2.3c-0.1-0.6-0.3-1.2-0.5-1.6
		c-0.2-0.4-0.6-0.7-1.1-1c-0.5-0.2-1.1-0.3-1.9-0.3c-0.7,0-1.3,0.1-1.8,0.3c-0.4,0.2-0.8,0.5-1.1,1c-0.3,0.4-0.4,1-0.5,1.6
		c-0.1,0.6-0.1,1.4-0.1,2.2c0,0.8,0,1.6,0.1,2.2c0.1,0.6,0.3,1.2,0.5,1.6c0.3,0.4,0.6,0.8,1.1,1c0.4,0.2,1,0.3,1.8,0.3
		s1.4-0.1,1.9-0.3s0.8-0.5,1.1-0.9c0.3-0.4,0.5-1,0.5-1.6C35.4,675.9,35.4,675.2,35.4,674.3z"/>
	<path class="st3" d="M47.8,669.5c-0.4,0.1-0.8,0.2-1.2,0.3c-0.4,0.1-0.9,0.2-1.3,0.4c-0.4,0.1-0.8,0.2-1.2,0.4
		c-0.4,0.1-0.6,0.2-0.8,0.3v9.9c0,0.3-0.2,0.5-0.5,0.5h-1.2c-0.3,0-0.5-0.2-0.5-0.5v-12.7c0-0.3,0.2-0.5,0.5-0.5h1.2
		c0.3,0,0.5,0.2,0.5,0.5v1.1l0.1,0.1c0.2-0.1,0.4-0.3,0.8-0.5c0.3-0.2,0.7-0.4,1.1-0.5c0.4-0.2,0.8-0.3,1.2-0.5s0.8-0.2,1.1-0.3
		c0.2,0,0.3,0,0.3,0c0.1,0,0.1,0.2,0.1,0.3l0.1,1.2C48.2,669.3,48.1,669.4,47.8,669.5z"/>
	<path class="st3" d="M68.7,681.2h-1.2c-0.3,0-0.5-0.2-0.5-0.5v-8.4c0-0.6,0-1.1-0.1-1.5c-0.1-0.4-0.2-0.7-0.3-1
		c-0.2-0.2-0.4-0.4-0.7-0.5c-0.3-0.1-0.6-0.2-1.1-0.2c-0.3,0-0.7,0.1-1.1,0.2c-0.4,0.1-0.8,0.3-1.2,0.4c-0.4,0.2-0.8,0.3-1.2,0.5
		c-0.4,0.2-0.7,0.3-0.9,0.5c0,0.1,0,0.3,0,0.6s0,0.6,0,1v8.4c0,0.3-0.2,0.5-0.5,0.5h-1.2c-0.3,0-0.4-0.2-0.4-0.5v-8.6
		c0-0.9-0.1-1.6-0.4-2.1c-0.3-0.5-0.8-0.8-1.7-0.8c-0.3,0-0.7,0.1-1,0.2c-0.4,0.1-0.8,0.2-1.2,0.4c-0.4,0.2-0.8,0.3-1.2,0.5
		c-0.4,0.2-0.7,0.4-1.1,0.5v9.9c0,0.3-0.2,0.5-0.5,0.5H50c-0.3,0-0.4-0.2-0.4-0.5V668c0-0.3,0.1-0.5,0.4-0.5h1.1
		c0.3,0,0.5,0.2,0.5,0.5v0.9l0,0l0,0c0.3-0.2,0.6-0.3,0.9-0.6c0.3-0.2,0.7-0.4,1.1-0.6s0.8-0.3,1.2-0.4c0.4-0.1,0.9-0.2,1.3-0.2
		c1,0,1.8,0.2,2.4,0.5c0.6,0.3,1,0.8,1.2,1.5c0.7-0.5,1.5-1,2.4-1.4c0.9-0.4,1.8-0.6,2.7-0.6s1.6,0.1,2.1,0.4c0.5,0.2,0.9,0.6,1.2,1
		c0.3,0.4,0.5,1,0.6,1.6c0.1,0.6,0.1,1.3,0.1,2v8.4C69.2,681,69,681.2,68.7,681.2z"/>
	<path class="st3" d="M81,679.7c-0.7,0.4-1.5,0.8-2.3,1.2c-0.8,0.4-1.8,0.6-3,0.6c-1.4,0-2.3-0.3-2.9-1c-0.6-0.7-0.9-1.6-0.9-2.9
		c0-1.6,0.4-2.8,1.2-3.5c0.8-0.8,2.1-1.2,4-1.2H81v-1c0-1-0.2-1.7-0.7-2.1c-0.5-0.4-1.3-0.6-2.6-0.6c-0.3,0-0.6,0-0.9,0
		c-0.3,0-0.7,0-1,0.1c-0.4,0-0.7,0.1-1.1,0.1c-0.4,0-0.7,0.1-1,0.1c-0.3,0.1-0.5,0-0.6-0.3l-0.2-0.7c0-0.1,0-0.2,0-0.3
		c0.1-0.1,0.2-0.2,0.4-0.3c0.3-0.1,0.6-0.2,1-0.3c0.4-0.1,0.8-0.1,1.2-0.2c0.4,0,0.9-0.1,1.3-0.1s0.8,0,1.1,0c1.1,0,2,0.1,2.7,0.4
		c0.7,0.2,1.2,0.6,1.5,1c0.3,0.4,0.6,1,0.7,1.6c0.1,0.6,0.1,1.3,0.1,2v6.2c0,0.3,0,0.5,0,0.6c0,0.1,0.1,0.3,0.1,0.3
		c0.1,0.1,0.2,0.1,0.3,0.2c0.1,0,0.3,0.1,0.5,0.1c0.3,0,0.5,0.1,0.5,0.4v0.7c0,0.1,0,0.2-0.1,0.3c-0.1,0.1-0.2,0.1-0.4,0.2
		c-0.3,0.1-0.7,0.1-1,0.1c-0.7,0-1.1-0.1-1.5-0.4C81.4,680.7,81.2,680.3,81,679.7L81,679.7z M81.1,674.6H77c-0.9,0-1.5,0.2-2,0.6
		c-0.5,0.4-0.8,1.1-0.8,2.3c0,0.8,0.2,1.3,0.5,1.6c0.3,0.3,0.9,0.4,1.7,0.4c0.4,0,0.7,0,1.2-0.1c0.5-0.1,0.8-0.2,1.3-0.4
		c0.4-0.2,0.8-0.3,1.2-0.5s0.8-0.4,1.1-0.6L81.1,674.6L81.1,674.6z"/>
	<path class="st3" d="M94.3,680.3c0,0.2-0.1,0.4-0.3,0.5c-0.2,0.1-0.4,0.2-0.7,0.2c-0.3,0.1-0.6,0.1-0.9,0.2c-0.3,0-0.6,0.1-0.9,0.1
		c-0.3,0-0.5,0-0.7,0c-0.6,0-1.1-0.1-1.5-0.2c-0.4-0.1-0.7-0.3-0.9-0.6s-0.4-0.6-0.5-0.9c-0.1-0.4-0.1-0.8-0.1-1.2v-9.1h-1.5
		c-0.3,0-0.5-0.2-0.5-0.5V668c0-0.3,0.2-0.5,0.5-0.5h1.6v-3c0-0.2,0-0.3,0.1-0.4c0.1-0.1,0.2-0.1,0.4-0.2l1.1-0.3
		c0.3-0.1,0.5,0,0.5,0.4v3.4h3.1c0.2,0,0.3,0,0.4,0.1c0.1,0.1,0.1,0.2,0.1,0.3v0.8c0,0.2,0,0.3-0.1,0.4s-0.2,0.1-0.4,0.1H90v8.5
		c0,0.3,0,0.6,0.1,0.8c0,0.2,0.1,0.4,0.3,0.5c0.1,0.1,0.4,0.2,0.6,0.3c0.3,0,0.6,0.1,1,0.1c0.1,0,0.4,0,0.8,0c0.4,0,0.6-0.1,0.9-0.1
		c0.2,0,0.4,0,0.4,0c0.1,0,0.1,0.1,0.2,0.3L94.3,680.3z"/>
	<path class="st3" d="M98.5,663.9c0,0.4-0.1,0.7-0.2,0.9c-0.1,0.2-0.5,0.4-1,0.4s-0.9-0.1-1-0.4s-0.2-0.5-0.2-0.9
		c0-0.4,0.1-0.6,0.2-0.9c0.2-0.2,0.5-0.3,1-0.3s0.8,0.1,1,0.3S98.5,663.5,98.5,663.9z M98.4,680.7c0,0.3-0.1,0.5-0.4,0.5h-1.1
		c-0.3,0-0.5-0.2-0.5-0.5V668c0-0.2,0-0.3,0.1-0.4c0.1-0.1,0.2-0.1,0.4-0.1H98c0.3,0,0.4,0.2,0.4,0.5V680.7z"/>
	<path class="st3" d="M113.2,674.1c0,0.8,0,1.7-0.1,2.5c-0.1,0.9-0.3,1.6-0.7,2.4c-0.4,0.7-1,1.3-1.7,1.7c-0.7,0.4-1.9,0.7-3.2,0.7
		s-2.4-0.2-3.1-0.7c-0.8-0.4-1.3-1-1.7-1.7s-0.6-1.5-0.7-2.4c-0.1-0.9-0.1-1.7-0.1-2.5c0-0.7,0.1-1.4,0.2-2.2
		c0.1-0.8,0.4-1.5,0.7-2.2c0.4-0.7,0.9-1.3,1.7-1.7c0.7-0.5,1.8-0.7,3-0.7c1.3,0,2.3,0.2,3.1,0.6c0.8,0.4,1.4,0.9,1.8,1.6
		c0.4,0.6,0.7,1.4,0.8,2.2C113.1,672.5,113.2,673.3,113.2,674.1z M111,674.3c0-0.9,0-1.6-0.1-2.3c-0.1-0.6-0.3-1.2-0.5-1.6
		c-0.2-0.4-0.6-0.7-1.1-1c-0.5-0.2-1.1-0.3-1.9-0.3c-0.7,0-1.3,0.1-1.8,0.3c-0.4,0.2-0.8,0.5-1.1,1c-0.3,0.4-0.4,1-0.5,1.6
		c-0.1,0.6-0.1,1.4-0.1,2.2c0,0.8,0,1.6,0.1,2.2c0.1,0.6,0.3,1.2,0.5,1.6c0.3,0.4,0.6,0.8,1.1,1c0.4,0.2,1,0.3,1.8,0.3
		s1.4-0.1,1.9-0.3s0.8-0.5,1.1-0.9c0.3-0.4,0.5-1,0.5-1.6C111,675.9,111,675.2,111,674.3z"/>
	<path class="st3" d="M126.7,681.2h-1.2c-0.3,0-0.5-0.2-0.5-0.5v-8.3c0-0.6,0-1.2-0.1-1.6s-0.2-0.8-0.4-1c-0.2-0.2-0.4-0.4-0.7-0.5
		c-0.3-0.1-0.6-0.1-1.1-0.1c-0.3,0-0.7,0.1-1.2,0.2c-0.4,0.1-0.9,0.3-1.3,0.4c-0.4,0.2-0.9,0.3-1.3,0.5c-0.4,0.2-0.7,0.3-0.9,0.4
		v9.9c0,0.3-0.2,0.5-0.5,0.5h-1.1c-0.3,0-0.4-0.2-0.4-0.5v-12.7c0-0.3,0.1-0.5,0.4-0.5h1.1c0.2,0,0.3,0,0.4,0.1
		c0.1,0.1,0.1,0.2,0.1,0.4v1h0.1c0.2-0.1,0.5-0.3,0.9-0.5s0.8-0.4,1.2-0.6c0.4-0.2,0.9-0.3,1.4-0.5c0.5-0.2,1-0.2,1.5-0.2
		c0.9,0,1.6,0.1,2.2,0.4c0.5,0.3,0.9,0.6,1.2,1.1c0.3,0.5,0.5,1,0.5,1.6c0,0.6,0.1,1.3,0.1,2.1v8.3C127.2,681,127,681.2,126.7,681.2
		z"/>
	<path class="st3" d="M146.5,679.7c-0.7,0.4-1.5,0.8-2.3,1.2c-0.8,0.4-1.8,0.6-3,0.6c-1.4,0-2.3-0.3-2.9-1s-0.9-1.6-0.9-2.9
		c0-1.6,0.4-2.8,1.2-3.5c0.8-0.7,2.1-1.2,4-1.2h3.9v-1c0-1-0.2-1.7-0.7-2.1c-0.5-0.4-1.3-0.6-2.6-0.6c-0.3,0-0.6,0-0.9,0
		s-0.7,0-1,0.1c-0.4,0-0.7,0.1-1.1,0.1s-0.7,0.1-1,0.1c-0.3,0.1-0.5,0-0.6-0.3l-0.2-0.7c0-0.1,0-0.2,0-0.3c0.1-0.1,0.2-0.2,0.4-0.3
		c0.3-0.1,0.6-0.2,1-0.3c0.4-0.1,0.8-0.1,1.2-0.2c0.4,0,0.9-0.1,1.3-0.1s0.8,0,1.1,0c1.1,0,2,0.1,2.7,0.4s1.2,0.6,1.5,1
		c0.4,0.4,0.6,1,0.7,1.6c0.1,0.6,0.1,1.3,0.1,2v6.2c0,0.3,0,0.5,0,0.6c0,0.1,0.1,0.3,0.1,0.3s0.2,0.1,0.3,0.2c0.1,0,0.3,0.1,0.5,0.1
		c0.3,0,0.5,0.1,0.5,0.4v0.7c0,0.1,0,0.2-0.1,0.3c-0.1,0.1-0.2,0.1-0.4,0.2c-0.3,0.1-0.7,0.1-1,0.1c-0.7,0-1.1-0.1-1.5-0.4
		C146.8,680.7,146.6,680.3,146.5,679.7L146.5,679.7z M146.5,674.6h-4.1c-0.9,0-1.5,0.2-2,0.6c-0.5,0.4-0.8,1.1-0.8,2.3
		c0,0.8,0.2,1.3,0.5,1.6c0.3,0.3,0.9,0.4,1.7,0.4c0.4,0,0.7,0,1.2-0.1c0.5-0.1,0.8-0.2,1.3-0.4c0.4-0.2,0.8-0.3,1.2-0.5
		s0.8-0.4,1.1-0.6v-3.3H146.5z"/>
	<path class="st3" d="M162.8,681.2h-1.2c-0.3,0-0.5-0.2-0.5-0.5v-8.3c0-0.6,0-1.2-0.1-1.6s-0.2-0.8-0.4-1c-0.2-0.2-0.4-0.4-0.7-0.5
		c-0.3-0.1-0.6-0.1-1.1-0.1c-0.3,0-0.7,0.1-1.2,0.2s-0.9,0.3-1.3,0.4c-0.4,0.2-0.9,0.3-1.3,0.5c-0.4,0.2-0.7,0.3-0.9,0.4v9.9
		c0,0.3-0.2,0.5-0.5,0.5h-1.1c-0.3,0-0.4-0.2-0.4-0.5v-12.7c0-0.3,0.1-0.5,0.4-0.5h1.1c0.2,0,0.3,0,0.4,0.1c0.1,0.1,0.1,0.2,0.1,0.4
		v1h0.1c0.2-0.1,0.5-0.3,0.9-0.5s0.8-0.4,1.2-0.6c0.4-0.2,0.9-0.3,1.4-0.5c0.5-0.1,1-0.2,1.5-0.2c0.9,0,1.6,0.1,2.2,0.4
		c0.5,0.3,0.9,0.6,1.2,1.1c0.3,0.5,0.5,1,0.5,1.6c0,0.6,0.1,1.3,0.1,2.1v8.3C163.3,681,163.1,681.2,162.8,681.2z"/>
	<path class="st3" d="M177.5,680.7c0,0.3-0.1,0.5-0.4,0.5h-1.2c-0.1,0-0.3,0-0.3-0.1c-0.1-0.1-0.1-0.2-0.1-0.4v-1h-0.1
		c-0.2,0.1-0.5,0.3-0.8,0.5c-0.3,0.2-0.7,0.4-1.1,0.6s-0.9,0.3-1.4,0.5c-0.5,0.1-1,0.2-1.4,0.2c-0.9,0-1.6-0.2-2.2-0.5
		s-1.1-0.8-1.4-1.3c-0.4-0.6-0.6-1.3-0.7-2.2c-0.1-0.9-0.2-1.8-0.2-2.9c0-1.2,0.1-2.2,0.3-3.1c0.2-0.9,0.5-1.6,0.9-2.3
		c0.4-0.7,1-1.1,1.7-1.4s1.6-0.5,2.7-0.5c0.5,0,1.1,0.1,1.7,0.2s1.3,0.3,2.1,0.6h0.1v-6c0-0.2,0-0.3,0.1-0.4
		c0.1-0.1,0.2-0.1,0.4-0.1h1.2c0.2,0,0.3,0,0.4,0.1c0.1,0.1,0.1,0.2,0.1,0.4v18.6H177.5z M175.3,669.8c-0.8-0.2-1.5-0.4-2.1-0.5
		c-0.7-0.1-1.3-0.1-1.9-0.1s-1.1,0.1-1.5,0.3s-0.7,0.5-1,0.9c-0.2,0.4-0.4,1-0.5,1.7s-0.2,1.5-0.2,2.5c0,1.1,0.1,1.9,0.2,2.6
		c0.1,0.6,0.3,1.1,0.5,1.5c0.2,0.4,0.5,0.6,0.8,0.7c0.3,0.1,0.7,0.2,1.1,0.2c0.3,0,0.7-0.1,1.2-0.2c0.5-0.1,0.9-0.3,1.3-0.4
		s0.8-0.3,1.2-0.5c0.4-0.2,0.7-0.3,0.9-0.5V669.8z"/>
	<path class="st3" d="M197.6,677.3c0,0.8-0.1,1.4-0.4,2c-0.3,0.5-0.7,0.9-1.2,1.3c-0.5,0.3-1.1,0.6-1.7,0.7
		c-0.6,0.1-1.3,0.2-1.9,0.2c-0.4,0-0.7,0-1.1,0s-0.8-0.1-1.2-0.1c-0.4-0.1-0.7-0.1-1.1-0.2c-0.3-0.1-0.6-0.2-0.9-0.3
		c-0.2-0.1-0.3-0.3-0.3-0.6l0.1-0.6c0-0.2,0.1-0.3,0.2-0.3s0.2,0,0.4,0c0.3,0,0.6,0.1,1,0.1s0.7,0.1,1.1,0.1s0.7,0.1,1,0.1
		s0.6,0,0.9,0c1,0,1.8-0.2,2.3-0.5c0.5-0.3,0.7-0.8,0.7-1.6c0-0.4,0-0.8-0.1-1c-0.1-0.3-0.2-0.5-0.4-0.7c-0.2-0.2-0.5-0.3-0.8-0.4
		s-0.8-0.2-1.4-0.3c-0.6-0.1-1.2-0.2-1.8-0.4c-0.6-0.2-1.1-0.4-1.6-0.6s-0.8-0.6-1.1-1.1c-0.3-0.4-0.4-1-0.4-1.8
		c0-1.3,0.4-2.3,1.3-3s2.1-1,3.6-1c0.3,0,0.6,0,1,0s0.7,0.1,1.1,0.1s0.8,0.1,1.1,0.2s0.7,0.2,1,0.3c0.3,0.1,0.4,0.3,0.3,0.6
		l-0.1,0.7c0,0.1-0.1,0.2-0.2,0.3c-0.1,0-0.3,0-0.5,0c-0.6-0.1-1.2-0.1-1.8-0.2s-1.3-0.1-1.8-0.1c-1,0-1.8,0.2-2.1,0.5
		c-0.4,0.3-0.6,0.8-0.6,1.6c0,0.4,0,0.6,0.1,0.8c0.1,0.2,0.2,0.4,0.5,0.5c0.2,0.1,0.5,0.2,0.9,0.3c0.4,0.1,0.8,0.2,1.4,0.3
		c0.6,0.1,1.2,0.2,1.8,0.4c0.6,0.1,1.1,0.4,1.5,0.7s0.8,0.7,1.1,1.2S197.6,676.5,197.6,677.3z"/>
	<path class="st3" d="M211.4,673.5c0,0.4-0.1,0.8-0.2,1.1c-0.2,0.3-0.5,0.5-1,0.5h-7.9c0,0.8,0.1,1.5,0.2,2.1c0.1,0.6,0.3,1,0.6,1.4
		c0.3,0.3,0.7,0.6,1.1,0.7c0.5,0.1,1,0.2,1.7,0.2c0.3,0,0.6,0,1,0s0.7-0.1,1.1-0.1s0.7-0.1,1-0.1s0.6-0.1,0.9-0.1c0.2,0,0.3,0,0.4,0
		s0.2,0.1,0.2,0.3l0.1,0.6c0.1,0.3,0,0.5-0.3,0.6c-0.3,0.1-0.6,0.2-1,0.3c-0.4,0.1-0.8,0.2-1.2,0.2c-0.4,0.1-0.8,0.1-1.2,0.2
		c-0.4,0-0.8,0.1-1.1,0.1c-1.3,0-2.3-0.2-3.1-0.6c-0.8-0.4-1.3-0.9-1.7-1.6c-0.4-0.7-0.6-1.4-0.8-2.3c-0.2-0.9-0.2-1.7-0.2-2.6
		c0-0.7,0.1-1.4,0.2-2.3c0.1-0.8,0.4-1.6,0.8-2.3c0.4-0.7,1-1.3,1.7-1.8s1.8-0.7,3.1-0.7c1.2,0,2.2,0.2,2.9,0.5
		c0.7,0.4,1.3,0.8,1.7,1.4c0.4,0.6,0.7,1.2,0.8,2C211.3,671.9,211.4,672.7,211.4,673.5z M209.2,673.3c0-0.5,0-1-0.1-1.5
		s-0.2-0.9-0.5-1.3c-0.2-0.4-0.6-0.7-1-1c-0.4-0.2-1-0.4-1.8-0.4c-0.6,0-1.1,0.1-1.6,0.3c-0.4,0.2-0.8,0.5-1,0.8s-0.5,0.8-0.6,1.3
		s-0.2,1.1-0.3,1.7L209.2,673.3L209.2,673.3z"/>
	<path class="st3" d="M221.4,669.5c-0.4,0.1-0.8,0.2-1.2,0.3c-0.4,0.1-0.9,0.2-1.3,0.4c-0.4,0.2-0.8,0.2-1.2,0.4s-0.6,0.2-0.8,0.3
		v9.9c0,0.3-0.2,0.5-0.5,0.5h-1.2c-0.3,0-0.5-0.2-0.5-0.5v-12.7c0-0.3,0.2-0.5,0.5-0.5h1.2c0.3,0,0.5,0.2,0.5,0.5v1.1l0.1,0.1
		c0.2-0.1,0.4-0.3,0.8-0.5c0.3-0.2,0.7-0.4,1.1-0.5c0.4-0.2,0.8-0.3,1.2-0.5c0.4-0.1,0.8-0.2,1.1-0.3c0.2,0,0.3,0,0.3,0
		c0.1,0,0.1,0.2,0.1,0.3l0.1,1.2C221.8,669.3,221.7,669.4,221.4,669.5z"/>
	<path class="st3" d="M229.3,680.8c-0.1,0.2-0.3,0.4-0.5,0.4h-1.3c-0.1,0-0.3,0-0.3-0.1c-0.1-0.1-0.1-0.1-0.1-0.3l-4.9-12.9
		c0-0.1,0-0.2,0-0.3c0-0.1,0.1-0.1,0.2-0.1h1.5c0.1,0,0.2,0,0.3,0.1c0.1,0.1,0.1,0.2,0.2,0.3l2.8,7.8l0.4,1.3c0.1,0.4,0.2,0.7,0.3,1
		c0.1,0.3,0.2,0.5,0.2,0.6h0.1c0-0.1,0.1-0.3,0.2-0.6s0.2-0.7,0.4-1c0.1-0.4,0.3-0.9,0.5-1.4l2.7-7.8c0.1-0.1,0.1-0.2,0.2-0.3
		c0,0,0.1-0.1,0.3-0.1h1.5c0.3,0,0.3,0.1,0.2,0.4L229.3,680.8z"/>
	<path class="st3" d="M239,663.9c0,0.4-0.1,0.7-0.2,0.9s-0.5,0.4-1,0.4s-0.9-0.1-1-0.4s-0.2-0.5-0.2-0.9c0-0.4,0.1-0.6,0.2-0.9
		c0.2-0.2,0.5-0.3,1-0.3s0.8,0.1,1,0.3C238.9,663.2,239,663.5,239,663.9z M238.8,680.7c0,0.3-0.1,0.5-0.4,0.5h-1.1
		c-0.3,0-0.5-0.2-0.5-0.5V668c0-0.2,0-0.3,0.1-0.4c0.1-0.1,0.2-0.1,0.4-0.1h1.1c0.3,0,0.4,0.2,0.4,0.5V680.7z"/>
	<path class="st3" d="M252,680.8c-0.5,0.2-1.2,0.4-2,0.5c-0.8,0.1-1.5,0.1-2.3,0.1c-1.2,0-2.2-0.2-3-0.6s-1.3-0.9-1.7-1.5
		c-0.4-0.6-0.7-1.4-0.8-2.3c-0.1-0.9-0.2-1.8-0.2-2.8c0-0.9,0.1-1.8,0.2-2.6s0.4-1.6,0.8-2.2c0.4-0.6,1-1.2,1.7-1.6s1.7-0.6,3-0.6
		c0.3,0,0.6,0,1,0s0.8,0.1,1.1,0.1c0.4,0,0.8,0.1,1.1,0.2c0.3,0.1,0.7,0.2,1,0.3c0.1,0.1,0.2,0.1,0.3,0.3c0,0.1,0,0.2,0,0.3
		l-0.1,0.6c0,0.1-0.1,0.2-0.3,0.3c-0.2,0.1-0.3,0-0.5,0c-0.6-0.1-1.2-0.1-1.9-0.2c-0.7-0.1-1.3-0.1-1.8-0.1c-0.6,0-1.2,0.1-1.6,0.3
		s-0.8,0.5-1,0.9c-0.3,0.4-0.4,0.9-0.5,1.6c-0.1,0.6-0.2,1.4-0.2,2.4s0.1,1.9,0.2,2.5c0.1,0.7,0.3,1.2,0.6,1.6s0.6,0.7,1,0.9
		c0.4,0.2,1,0.3,1.6,0.3c0.2,0,0.5,0,0.8,0s0.7,0,1-0.1c0.3,0,0.7-0.1,1-0.1c0.4,0,0.7-0.1,1-0.1c0.2,0,0.3,0,0.4,0s0.2,0.1,0.2,0.3
		l0.1,0.6C252.4,680.4,252.3,680.6,252,680.8z"/>
	<path class="st3" d="M265.4,673.5c0,0.4-0.1,0.8-0.2,1.1c-0.2,0.3-0.5,0.5-1,0.5h-7.9c0,0.8,0.1,1.5,0.2,2.1c0.1,0.6,0.3,1,0.6,1.4
		c0.3,0.3,0.7,0.6,1.1,0.7c0.5,0.1,1,0.2,1.7,0.2c0.3,0,0.6,0,1,0s0.7-0.1,1.1-0.1s0.7-0.1,1-0.1s0.6-0.1,0.9-0.1c0.2,0,0.3,0,0.4,0
		s0.2,0.1,0.2,0.3l0.1,0.6c0.1,0.3,0,0.5-0.3,0.6c-0.3,0.1-0.6,0.2-1,0.3c-0.4,0.1-0.8,0.2-1.2,0.2c-0.4,0.1-0.8,0.1-1.2,0.2
		c-0.4,0-0.8,0.1-1.1,0.1c-1.3,0-2.3-0.2-3.1-0.6c-0.8-0.4-1.3-0.9-1.7-1.6c-0.4-0.7-0.6-1.4-0.8-2.3c-0.2-0.9-0.2-1.7-0.2-2.6
		c0-0.7,0.1-1.4,0.2-2.3c0.1-0.8,0.4-1.6,0.8-2.3c0.4-0.7,1-1.3,1.7-1.8s1.8-0.7,3.1-0.7c1.2,0,2.2,0.2,2.9,0.5
		c0.7,0.4,1.3,0.8,1.7,1.4c0.4,0.6,0.7,1.2,0.8,2C265.3,671.9,265.4,672.7,265.4,673.5z M263.1,673.3c0-0.5,0-1-0.1-1.5
		s-0.2-0.9-0.5-1.3c-0.2-0.4-0.6-0.7-1-1c-0.4-0.2-1-0.4-1.8-0.4c-0.6,0-1.1,0.1-1.6,0.3c-0.4,0.2-0.8,0.5-1,0.8s-0.5,0.8-0.6,1.3
		s-0.2,1.1-0.3,1.7L263.1,673.3L263.1,673.3z"/>
	<path class="st3" d="M277.5,677.3c0,0.8-0.1,1.4-0.4,2c-0.3,0.5-0.7,0.9-1.2,1.3c-0.5,0.3-1.1,0.6-1.7,0.7
		c-0.6,0.1-1.3,0.2-1.9,0.2c-0.4,0-0.7,0-1.1,0s-0.8-0.1-1.2-0.1c-0.4-0.1-0.7-0.1-1.1-0.2c-0.3-0.1-0.6-0.2-0.9-0.3
		c-0.2-0.1-0.3-0.3-0.3-0.6l0.1-0.6c0-0.2,0.1-0.3,0.2-0.3s0.2,0,0.4,0c0.3,0,0.6,0.1,1,0.1s0.7,0.1,1.1,0.1s0.7,0.1,1,0.1
		s0.6,0,0.9,0c1,0,1.8-0.2,2.3-0.5c0.5-0.3,0.7-0.8,0.7-1.6c0-0.4,0-0.8-0.1-1c-0.1-0.3-0.2-0.5-0.4-0.7c-0.2-0.2-0.5-0.3-0.8-0.4
		s-0.8-0.2-1.4-0.3c-0.6-0.1-1.2-0.2-1.8-0.4c-0.6-0.2-1.1-0.4-1.6-0.6s-0.8-0.6-1.1-1.1c-0.3-0.4-0.4-1-0.4-1.8
		c0-1.3,0.4-2.3,1.3-3s2.1-1,3.6-1c0.3,0,0.6,0,1,0s0.7,0.1,1.1,0.1s0.8,0.1,1.1,0.2s0.7,0.2,1,0.3c0.3,0.1,0.4,0.3,0.3,0.6
		l-0.1,0.7c0,0.1-0.1,0.2-0.2,0.3c-0.1,0-0.3,0-0.5,0c-0.6-0.1-1.2-0.1-1.8-0.2s-1.3-0.1-1.8-0.1c-1,0-1.8,0.2-2.1,0.5
		c-0.4,0.3-0.6,0.8-0.6,1.6c0,0.4,0,0.6,0.1,0.8c0.1,0.2,0.2,0.4,0.5,0.5c0.2,0.1,0.5,0.2,0.9,0.3c0.4,0.1,0.8,0.2,1.4,0.3
		c0.6,0.1,1.2,0.2,1.8,0.4c0.6,0.1,1.1,0.4,1.5,0.7s0.8,0.7,1.1,1.2S277.5,676.5,277.5,677.3z"/>
</g>
</svg>
