<svg xmlns="http://www.w3.org/2000/svg" viewBox="0 0 595.3 558.7"><g transform="translate(0 -141.6)" fill="#fff"><circle cx="226.3" cy="614.5" r="34.9"/><path d="M226.3 370.1c-19.2 0-34.9 15.7-34.9 34.9v104.7c0 19.2 15.7 34.9 34.9 34.9s34.9-15.7 34.9-34.9V405c0-19.2-15.7-34.9-34.9-34.9z"/></g><path d="M298.5 0L0 558.7h595.3L298.5 0zm0 501c-19.2 0-34.9-15.7-34.9-34.9s15.7-34.9 34.9-34.9 34.9 15.7 34.9 34.9-15.7 34.9-34.9 34.9zm0-104.7c-19.2 0-34.9-15.7-34.9-34.9V256.7c0-19.2 15.7-34.9 34.9-34.9s34.9 15.7 34.9 34.9v104.7c0 19.2-15.7 34.9-34.9 34.9z" fill="#ffc412"/></svg>