<?xml version="1.0" encoding="UTF-8" standalone="no"?>
<svg width="36px" height="36px" viewBox="0 0 36 36" version="1.1" xmlns="http://www.w3.org/2000/svg" xmlns:xlink="http://www.w3.org/1999/xlink">
    <!-- Generator: Sketch 39.1 (31720) - http://www.bohemiancoding.com/sketch -->
    <title>Artboard Copy</title>
    <desc>Created with Sketch.</desc>
    <defs></defs>
    <g id="Page-1" stroke="none" stroke-width="1" fill="none" fill-rule="evenodd">
        <g id="Artboard-Copy" fill="#006FB4">
            <g id="Info" transform="translate(1.000000, 1.000000)">
                <g id="Layer_1">
                    <path d="M17,0 C7.6,0 0,7.6 0,17 C0,26.4 7.6,34 17,34 C26.4,34 34,26.4 34,17 C34,7.6 26.3,0 17,0 L17,0 Z M14.8,9.9 C14.8,9 15.6,8.2 16.5,8.2 L17.6,8.2 C18.5,8.2 19.3,9 19.3,9.9 L19.3,11 C19.3,11.9 18.5,12.7 17.6,12.7 L16.5,12.7 C15.6,12.7 14.8,11.9 14.8,11 L14.8,9.9 L14.8,9.9 Z M21.4,25.7 L12.7,25.7 L12.7,23.6 L14.8,23.6 L14.8,17 L12.7,17 L12.7,14.9 L19.3,14.9 L19.3,23.6 L21.5,23.6 L21.4,25.7 L21.4,25.7 L21.4,25.7 Z" id="Shape"></path>
                </g>
            </g>
        </g>
    </g>
</svg>