<?xml version="1.0" encoding="UTF-8" standalone="no"?>
<!-- Created with Inkscape (http://www.inkscape.org/) -->

<svg
   xmlns:dc="http://purl.org/dc/elements/1.1/"
   xmlns:cc="http://creativecommons.org/ns#"
   xmlns:rdf="http://www.w3.org/1999/02/22-rdf-syntax-ns#"
   xmlns:svg="http://www.w3.org/2000/svg"
   xmlns="http://www.w3.org/2000/svg"
   version="1.1"
   width="100%"
   height="100%"
   viewBox="0 0 595.3 595.3"
   id="Layer_1"
   xml:space="preserve"><metadata
   id="metadata9"><rdf:RDF><cc:Work
       rdf:about=""><dc:format>image/svg+xml</dc:format><dc:type
         rdf:resource="http://purl.org/dc/dcmitype/StillImage" /><dc:title></dc:title></cc:Work></rdf:RDF></metadata><defs
   id="defs7" />
<path
   d="M 420.1,0 H 173.5 L 0,175.2 V 421.8 L 175.2,595.3 H 421.8 L 595.3,420.1 V 175.2 L 420.1,0 z m -83.3,302.7 61.2,61.2 c 3.4,3.4 3.4,8.5 0,11.9 l -22.1,22.1 c -3.4,3.4 -8.5,3.4 -11.9,0 l -61.2,-61.2 c -3.4,-3.4 -8.5,-3.4 -11.9,0 l -61.2,61.2 c -3.4,3.4 -8.5,3.4 -11.9,0 l -22.1,-22.1 c -3.4,-3.4 -3.4,-8.5 0,-11.9 l 61.2,-61.2 c 3.4,-3.4 3.4,-8.5 0,-11.9 l -61.2,-61.2 c -3.4,-3.4 -3.4,-8.5 0,-11.9 l 22.1,-22.1 c 3.4,-3.4 8.5,-3.4 11.9,0 l 61.2,61.2 c 3.4,3.4 8.5,3.4 11.9,0 L 364,195.6 c 3.4,-3.4 8.5,-3.4 11.9,0 l 22.1,22.1 c 3.4,3.4 3.4,8.5 0,11.9 l -61.2,61.2 c -3.4,5.1 -3.4,8.5 0,11.9 z"
   id="path3"
   style="fill:#da2131" />
</svg>