<?xml version="1.0" encoding="utf-8"?>
<!-- Generator: Adobe Illustrator 19.2.0, SVG Export Plug-In . SVG Version: 6.00 Build 0)  -->
<svg version="1.1" id="Layer_1" xmlns="http://www.w3.org/2000/svg" xmlns:xlink="http://www.w3.org/1999/xlink" x="0px" y="0px"
	 width="36px" height="36px" viewBox="0 0 36 36" style="enable-background:new 0 0 36 36;" xml:space="preserve">
<style type="text/css">
	.st0{fill:#FFC412;}
</style>
<path class="st0" d="M18.1,1.1L0,34.9h36L18.1,1.1z M18.1,31.4c-1.2,0-2.1-0.9-2.1-2.1c0-1.2,0.9-2.1,2.1-2.1s2.1,0.9,2.1,2.1
	C20.2,30.5,19.2,31.4,18.1,31.4z M18.1,25.1c-1.2,0-2.1-0.9-2.1-2.1v-6.3c0-1.2,0.9-2.1,2.1-2.1s2.1,0.9,2.1,2.1V23
	C20.2,24.1,19.2,25.1,18.1,25.1z"/>
</svg>
