<svg xmlns="http://www.w3.org/2000/svg" viewBox="0 0 595.20002 595.20002"><path d="M297.6 0C132.7 0 0 132.7 0 297.6c0 164.9 132.7 297.6 297.6 297.6 164.9 0 297.6-132.7 297.6-297.6C595.2 132.7 462.6 0 297.6 0zM432 236.4L267 394.6c-3.4 3.4-8.5 3.4-11.9 0l-23.8-23.8-11.9-11.9-56.1-57.8c-1.7-1.7-1.7-3.4-1.7-6.8 0-1.7 1.7-3.4 1.7-5.1l25.5-22.1c1.7-1.7 3.4-1.7 6.8-1.7 1.7 0 5.1 0 6.8 1.7l52.7 56.1c3.4 3.4 8.5 3.4 11.9 0l127.6-122.5c3.4-3.4 8.5-3.4 11.9 0l23.8 23.8c5.1 3.4 5.1 8.5 1.7 11.9z" fill="#467a39"/></svg>