<?xml version="1.0" encoding="UTF-8" standalone="no"?>
<!-- Created with Inkscape (http://www.inkscape.org/) -->

<svg
   xmlns:dc="http://purl.org/dc/elements/1.1/"
   xmlns:cc="http://creativecommons.org/ns#"
   xmlns:rdf="http://www.w3.org/1999/02/22-rdf-syntax-ns#"
   xmlns:svg="http://www.w3.org/2000/svg"
   xmlns="http://www.w3.org/2000/svg"
   xmlns:sodipodi="http://sodipodi.sourceforge.net/DTD/sodipodi-0.dtd"
   xmlns:inkscape="http://www.inkscape.org/namespaces/inkscape"
   width="20"
   height="20"
   id="svg3007"
   version="1.1"
   inkscape:version="0.48.4 r9939"
   sodipodi:docname="New document 2">
  <defs
     id="defs3009" />
  <sodipodi:namedview
     id="base"
     pagecolor="#ffffff"
     bordercolor="#666666"
     borderopacity="1.0"
     inkscape:pageopacity="0.0"
     inkscape:pageshadow="2"
     inkscape:zoom="7.9195959"
     inkscape:cx="81.184214"
     inkscape:cy="10.374694"
     inkscape:document-units="px"
     inkscape:current-layer="layer1"
     showgrid="false"
     fit-margin-top="0"
     fit-margin-left="0"
     fit-margin-right="0"
     fit-margin-bottom="0"
     inkscape:window-width="1920"
     inkscape:window-height="1003"
     inkscape:window-x="-9"
     inkscape:window-y="-9"
     inkscape:window-maximized="1" />
  <metadata
     id="metadata3012">
    <rdf:RDF>
      <cc:Work
         rdf:about="">
        <dc:format>image/svg+xml</dc:format>
        <dc:type
           rdf:resource="http://purl.org/dc/dcmitype/StillImage" />
        <dc:title></dc:title>
      </cc:Work>
    </rdf:RDF>
  </metadata>
  <g
     inkscape:label="Layer 1"
     inkscape:groupmode="layer"
     id="layer1"
     transform="translate(-527.14286,-559.50504)">
    <g
       id="g5"
       transform="translate(527.14286,559.50504)">
      <g
         id="g7">
        <path
           style="fill:#006fb4;fill-rule:evenodd"
           inkscape:connector-curvature="0"
           clip-rule="evenodd"
           d="M 15,0 H 5 C 2.2,0 0,2.2 0,5 v 10 c 0,2.8 2.2,5 5,5 h 10 c 2.8,0 5,-2.2 5,-5 V 5 C 20,2.2 17.8,0 15,0 z m 1.5,8 -7.2,7.2 c -0.1,0.1 -0.4,0.1 -0.5,0 L 7.7,14.1 C 7.6,14 7.3,13.7 7.2,13.6 L 4.7,11 C 4.6,10.9 4.6,10.8 4.6,10.7 c 0,-0.1 0,-0.2 0.1,-0.3 l 1.1,-1 C 5.9,9.4 6,9.3 6,9.3 c 0.1,0 0.2,0 0.3,0.1 l 2.4,2.5 c 0.1,0.2 0.4,0.2 0.5,0 l 5.6,-5.6 c 0.1,-0.1 0.4,-0.1 0.5,0 l 1.1,1.1 c 0.2,0.2 0.2,0.4 0.1,0.6 z"
           id="path9" />
      </g>
    </g>
  </g>
</svg>
