<?xml version="1.0" encoding="utf-8"?>
<!-- Generator: Adobe Illustrator 19.2.0, SVG Export Plug-In . SVG Version: 6.00 Build 0)  -->
<svg version="1.1" id="Layer_1" xmlns="http://www.w3.org/2000/svg" xmlns:xlink="http://www.w3.org/1999/xlink" x="0px" y="0px"
	 viewBox="0 0 20 20" style="enable-background:new 0 0 20 20;" xml:space="preserve">
<g>
	<polygon points="14.1,12.9 11.2,10 14.1,7.1 12.9,5.9 10,8.8 7.1,5.9 5.9,7.1 8.8,10 5.9,12.9 7.1,14.1 10,11.2 12.9,14.1 	"/>
	<path d="M19.2,6.1c-0.5-1.2-1.2-2.3-2.1-3.2c-0.9-0.9-2-1.6-3.2-2.1C12.7,0.3,11.4,0,10,0S7.3,0.3,6.1,0.8C4.9,1.3,3.8,2,2.9,2.9
		C2,3.9,1.3,4.9,0.8,6.1C0.3,7.3,0,8.6,0,10s0.3,2.7,0.8,3.9c0.5,1.2,1.2,2.3,2.1,3.2c0.9,0.9,2,1.6,3.2,2.1C7.3,19.7,8.6,20,10,20
		s2.7-0.3,3.9-0.8c1.2-0.5,2.3-1.2,3.2-2.1c0.9-0.9,1.6-2,2.1-3.2c0.5-1.2,0.8-2.5,0.8-3.9S19.7,7.3,19.2,6.1z M18.8,10
		c0,2.4-0.9,4.6-2.6,6.2c-1.7,1.7-3.9,2.6-6.2,2.6c-2.4,0-4.6-0.9-6.2-2.6c-1.7-1.7-2.6-3.9-2.6-6.2s0.9-4.6,2.6-6.2
		C5.4,2.1,7.6,1.2,10,1.2s4.6,0.9,6.2,2.6C17.9,5.4,18.8,7.6,18.8,10z"/>
</g>
</svg>
