<svg xmlns="http://www.w3.org/2000/svg" viewBox="0 0 80 39.482656"><path d="M0 14.593s23.684-3.11 24.354-3.205c1.005-.192 1.914-.383 2.775-.622a18.15 18.15 0 0 0 5.262-2.393c1.484-1.005 2.87-2.488 4.26-4.115.86-1.004 1.817-2.344 2.678-3.636V0a30.86 30.86 0 0 1-3.062 3.97c-1.388 1.58-2.823 2.824-4.258 3.78-1.532.958-3.206 1.724-5.072 2.154-.814.192-1.723.383-2.727.527-.67.096-1.34.144-1.96.24C22.01 10.718 0 13.062 0 13.062v1.53z" fill="#fff"/><path d="M31.77 10.574c-1.483.86-3.205 1.483-5.07 1.866-.815.144-1.676.287-2.68.43-.575.05-1.197.097-1.77.192-.336.048-.623.048-.958.096-7.273.67-14.498 1.34-21.244 2.01v1.53c6.794-.813 14.067-1.722 21.34-2.535.334-.048.622-.096.956-.096.575-.048 1.197-.144 1.77-.19a33.118 33.118 0 0 0 2.776-.48 17.767 17.767 0 0 0 5.263-2.057c1.53-.91 2.87-2.2 4.306-3.78.908-1.005 1.913-2.393 2.87-3.684V3.3a35.43 35.43 0 0 1-3.206 3.877c-1.387 1.388-2.87 2.584-4.354 3.397" fill="#fff"/><path d="M35.933 10.19c-1.435 1.34-2.966 2.394-4.498 3.11-1.483.72-3.157 1.245-5.12 1.58-.813.144-1.674.24-2.68.335L0 17.177v1.53l21.005-2.2 2.727-.287a20.41 20.41 0 0 0 2.727-.43c2.01-.383 3.73-.957 5.31-1.77 1.58-.814 3.158-2.154 4.64-3.542 1.006-.956 1.915-2.153 2.968-3.445v-.526c-1.196 1.436-2.345 2.68-3.445 3.684" fill="#fff"/><path d="M30.24 18.23c-1.388.765-2.393 1.244-4.355 1.435-1.196.144-2.392.19-3.588.24-.575.047-1.15.047-1.723.095-3.588.19-7.08.43-10.67.67l-9.856.67v1.53L10 21.963c3.206-.287 6.986-.622 10.622-.91l2.68-.19c1.052-.096 1.865-.144 2.68-.288 2.008-.24 3.73-.67 5.262-1.244 1.627-.622 3.206-1.58 4.737-2.727 1.388-1.005 3.35-3.014 3.35-3.062v-.526c-1.292 1.244-2.01 1.962-3.397 2.87-1.675 1.054-4.498 1.676-5.694 2.346" fill="#fff"/><path d="M30.718 21.196c-1.484.43-3.158.718-5.12.91-.813.047-1.675.143-2.63.143l-2.633.094c-6.555.288-13.11.67-20.287 1.053v1.53c6.89-.525 13.636-1.05 20.383-1.53l2.632-.19a33.446 33.446 0 0 0 2.632-.24c2.01-.24 3.732-.575 5.263-1.053 1.675-.526 3.35-1.34 4.88-2.345 1.15-.718 2.297-1.627 3.493-2.68-1.34 1.148-2.584 1.388-3.828 2.153a23.7 23.7 0 0 1-4.784 2.153" fill="#fff"/><path d="M30.478 23.732c-1.483.335-3.11.574-5.12.718-.765.048-1.578.095-2.583.143l-2.63.096c-6.604.238-13.303.525-20.097.86v1.53c6.794-.477 13.445-.908 20.19-1.338l2.633-.144c1.006-.048 1.867-.096 2.632-.19 2.01-.193 3.685-.48 5.216-.863 1.722-.43 3.397-1.1 4.976-1.96a26.74 26.74 0 0 0 3.684-2.394v-.668c-1.388 1.004-2.68 1.818-3.97 2.44-1.628.765-3.255 1.387-4.93 1.77" fill="#fff"/><path d="M30.24 26.22c-1.484.287-3.11.48-5.12.574-.766.048-1.53.048-2.584.096L0 27.512v1.53l20-1.052 2.584-.143c1.005-.048 1.818-.096 2.583-.144 2.01-.143 3.637-.382 5.168-.717 1.722-.383 3.445-.91 5.024-1.58 1.29-.526 2.583-1.195 3.922-2.01v-.62c-1.435.86-2.775 1.53-4.162 2.057a22.203 22.203 0 0 1-4.88 1.387" fill="#fff"/><path d="M30.096 28.756c-2.775.383-5.598.43-8.374.478-.622 0-1.244 0-1.913.048L0 29.665v1.53l19.856-.908c.622-.048 1.244-.048 1.866-.096 2.776-.094 5.646-.238 8.47-.668a32.746 32.746 0 0 0 5.07-1.244c1.34-.43 2.68-1.005 4.068-1.723v-.574c-1.435.67-2.87 1.245-4.258 1.676-1.58.526-3.254.86-4.976 1.1M29.904 31.292c-2.583.24-5.263.24-7.8.24h-2.39L0 31.674v1.53c6.316-.238 13.014-.43 19.713-.62.813-.05 1.58-.05 2.392-.05 2.584-.047 5.263-.143 7.847-.43 1.818-.19 3.493-.478 5.072-.91 1.387-.334 2.823-.812 4.258-1.34v-.573a41.246 41.246 0 0 1-4.402 1.292c-1.53.335-3.158.574-4.976.718M29.81 33.78c-1.102.048-2.25.048-3.59.048h-1.483l-5.12-.048c-3.493-.048-6.938-.048-10.19-.048H0v1.53l9.474-.19c3.253-.096 6.698-.144 10.19-.24l5.12-.047a69.35 69.35 0 0 0 5.12-.192c1.818-.143 3.493-.287 5.072-.574 1.435-.24 2.92-.527 4.354-.91v-.526c-1.53.335-3.014.574-4.45.813-1.626.192-3.253.335-5.07.383M24.69 36.22l-5.073-.048c-6.507-.095-12.966-.19-19.57-.335v1.53l19.57-.142 5.072-.096c1.72-.05 3.396-.05 5.07-.097a93.536 93.536 0 0 0 9.57-.765v-.526c-2.92.335-6.076.478-9.57.526-1.674-.048-3.396-.048-5.07-.048M39.33 39.474v-.527L0 37.943v1.53zM35.79 13.11c-1.484 1.196-2.632 2.057-4.498 2.823-1.58.622-3.302.91-5.263 1.148-1.245.193-2.585.432-3.83.528-.525.048-1.052.048-1.53.095L0 19.233v1.533l20.766-2.01 2.68-.24a38.685 38.685 0 0 0 2.726-.334c2.01-.335 3.732-.814 5.31-1.53 1.628-.72 3.255-1.867 4.738-3.16 1.053-.86 2.01-1.96 3.11-3.157V9.76c-1.292 1.34-2.392 2.44-3.54 3.35M56.077 0s7.08 11.292 8.373 13.35c1.292 2.057 2.775 3.683 7.99 4.832 5.216 1.1 7.512 1.627 7.512 1.627v.38s-3.35-.716-7.608-1.673c-4.258-.957-6.028-1.292-7.99-3.972C62.727 12.297 56.03 2.68 56.03 2.68V0zM56.077 12.87s6.46 6.747 8.325 8.71c1.962 2.056 4.498 2.822 7.99 3.444 3.35.574 7.56 1.292 7.56 1.292v.383s-3.97-.67-7.56-1.245c-3.54-.622-6.028-.957-8.038-2.823-1.818-1.675-8.277-7.752-8.277-7.752v-2.01z" fill="#fff"/><path d="M56.077 15.933s6.124 5.694 8.325 7.608c2.01 1.77 3.636 2.345 8.038 3.11 4.402.766 7.56 1.245 7.56 1.245v.383s-3.97-.67-7.56-1.245c-3.588-.574-5.885-.813-7.99-2.535a2258.84 2258.84 0 0 1-8.326-6.795v-1.77z" fill="#fff"/><path d="M56.077 19.187s6.985 5.55 8.325 6.507c1.292.957 3.014 2.105 8.038 2.823 4.976.717 7.512 1.1 7.512 1.1v.43s-4.497-.67-7.512-1.052c-3.014-.383-5.31-.526-8.038-2.344-2.632-1.77-8.325-5.74-8.325-5.74v-1.723z" fill="#fff"/><path d="M56.077 22.297s7.033 4.69 8.325 5.406c1.34.718 2.87 1.962 7.99 2.584 5.12.67 7.512.957 7.512.957v.383s-4.258-.48-7.56-.814c-3.3-.382-5.55-.86-8.038-2.2-2.488-1.34-8.325-4.785-8.325-4.785v-1.53z" fill="#fff"/><path d="M56.077 25.407s6.22 3.397 8.325 4.45c2.344 1.196 4.354 1.722 8.038 2.153 3.59.43 7.56.86 7.56.86v.384s-3.636-.383-7.56-.766c-3.875-.383-5.263-.526-8.038-1.77-2.488-1.1-8.325-3.828-8.325-3.828v-1.483z" fill="#fff"/><path d="M56.077 28.565s4.88 2.105 8.325 3.445c3.397 1.34 5.98 1.435 8.038 1.674.91.096 7.512.766 7.512.766v.383s-3.923-.335-7.512-.622c-3.588-.334-5.12-.43-8.038-1.435-2.92-.957-8.325-2.87-8.325-2.87v-1.34zM56.077 31.77s4.928 1.53 8.325 2.44c3.397.91 6.46 1.245 8.038 1.34 1.58.096 7.512.574 7.512.574v.383s-3.397-.24-7.56-.526c-3.35-.238-6.076-.478-8.038-.908-2.2-.48-8.325-1.914-8.325-1.914V31.77zM56.077 34.928s4.067.718 8.325 1.388c3.206.526 7.56.86 7.99.91.48 0 7.56.525 7.56.525v.384s-4.545-.24-7.56-.383c-3.158-.19-6.268-.382-8.038-.525-3.97-.43-8.325-.957-8.325-.957v-1.34zM56.077 38.23s6.363.24 8.325.287c1.962.048 15.55.574 15.55.574v.384H56.077V38.23zM72.392 19.904c-5.79-1.244-7.08-3.35-8.038-4.69-.957-1.29-8.277-12.008-8.277-12.008v2.392c.287.383 6.555 8.565 8.325 10.813 1.962 2.537 5.072 3.112 8.038 3.78 2.967.623 7.56 1.532 7.56 1.532v-.334c-.048.047-6.124-1.15-7.608-1.484" fill="#fff"/><path d="M72.392 21.58c-4.736-.91-6.65-2.44-8.038-4.26a9685.222 9685.222 0 0 1-8.277-10.91V8.71c.287.335 6.602 7.8 8.277 9.76 1.962 2.25 4.737 2.872 8.038 3.446 3.35.622 7.56 1.435 7.56 1.435v-.336s-4.832-.91-7.56-1.435" fill="#fff"/><path d="M72.392 23.35c-4.928-.958-5.933-1.723-8.038-4.02-1.292-1.435-8.038-9.378-8.325-9.713v2.105s6.267 6.7 8.276 8.66c2.632 2.585 5.12 2.776 8.038 3.302 2.92.527 7.56 1.388 7.56 1.388v-.383c.048.047-5.55-.958-7.512-1.34" fill="#fff"/><path fill="#022b5b" d="M16.364 16.124h34.45v23.063h-34.45z"/><path fill="none" stroke="#fff" stroke-width=".60335067" d="M16.364 16.124h34.45v23.063h-34.45z"/><path fill="#fff" d="M32.057 19.378h1.197l.335-1.148.38 1.148h1.197l-1.004.766.382 1.196-.956-.718-.958.718.382-1.196zM32.105 34.785H33.3l.336-1.15.383 1.15h1.195l-1.004.717.383 1.15-.957-.72-.957.72.382-1.15zM35.885 33.732h1.196l.384-1.1.335 1.1h1.195l-.957.718.383 1.148-.956-.67-1.005.67.382-1.148zM35.885 20.43h1.196l.384-1.148.335 1.15h1.195l-.957.716.383 1.15-.956-.72-1.005.72.382-1.15zM38.708 23.254h1.196l.383-1.15.335 1.15h1.196l-.957.717.384 1.15-.957-.718-1.005.718.383-1.15zM38.708 30.957h1.196l.383-1.1.335 1.1h1.196l-.957.718.384 1.148-.957-.67-1.005.67.383-1.148zM39.76 27.033h1.197l.383-1.1.335 1.1h1.196l-.956.718.383 1.15-.957-.67-.957.67.335-1.15zM28.182 20.43h1.196l.335-1.1.383 1.1h1.196l-.957.718.335 1.15-.957-.72-.957.72.383-1.15zM25.407 23.254h1.196l.383-1.1.335 1.1h1.197l-.957.717.383 1.15-.957-.718-.957.718.38-1.15zM24.402 27.033h1.196l.383-1.1.336 1.1h1.196l-.957.766.383 1.147-.957-.717-.956.717.335-1.148zM25.407 30.957h1.196l.383-1.1.335 1.1h1.197l-.957.765.383 1.15-.957-.72-.957.72.38-1.15zM28.23 33.78h1.196l.335-1.148.336 1.148h1.244l-1.005.718.383 1.148-.957-.718-.956.718.383-1.148z"/></svg>