<?xml version="1.0" encoding="UTF-8" standalone="no"?>
<!-- Generator: Adobe Illustrator 18.0.0, SVG Export Plug-In . SVG Version: 6.00 Build 0)  -->

<svg
   xmlns:dc="http://purl.org/dc/elements/1.1/"
   xmlns:cc="http://creativecommons.org/ns#"
   xmlns:rdf="http://www.w3.org/1999/02/22-rdf-syntax-ns#"
   xmlns:svg="http://www.w3.org/2000/svg"
   xmlns="http://www.w3.org/2000/svg"
   xmlns:sodipodi="http://sodipodi.sourceforge.net/DTD/sodipodi-0.dtd"
   xmlns:inkscape="http://www.inkscape.org/namespaces/inkscape"
   version="1.1"
   id="Layer_1"
   x="0px"
   y="0px"
   viewBox="0 0 80 39.482656"
   enable-background="new 0 0 186 111"
   xml:space="preserve"
   inkscape:version="0.48.4 r9939"
   width="100%"
   height="100%"
   sodipodi:docname="footer__logo.svg"><metadata
   id="metadata89"><rdf:RDF><cc:Work
       rdf:about=""><dc:format>image/svg+xml</dc:format><dc:type
         rdf:resource="http://purl.org/dc/dcmitype/StillImage" /><dc:title></dc:title></cc:Work></rdf:RDF></metadata><defs
   id="defs87" /><sodipodi:namedview
   pagecolor="#ffffff"
   bordercolor="#666666"
   borderopacity="1"
   objecttolerance="10"
   gridtolerance="10"
   guidetolerance="10"
   inkscape:pageopacity="0"
   inkscape:pageshadow="2"
   inkscape:window-width="1920"
   inkscape:window-height="1003"
   id="namedview85"
   showgrid="false"
   fit-margin-top="0"
   fit-margin-left="0"
   fit-margin-right="0"
   fit-margin-bottom="0"
   inkscape:zoom="1.8225806"
   inkscape:cx="82.9"
   inkscape:cy="-46.062732"
   inkscape:window-x="-9"
   inkscape:window-y="-9"
   inkscape:window-maximized="1"
   inkscape:current-layer="Layer_1" />
<g
   id="g3"
   transform="matrix(0.47846891,0,0,0.47846891,-4.832536,-7.0334939)">
	<path
   d="m 10.1,45.2 c 0,0 49.5,-6.5 50.9,-6.7 2.1,-0.4 4,-0.8 5.8,-1.3 4,-1.1 7.7,-2.8 11,-5 3.1,-2.1 6,-5.2 8.9,-8.6 1.8,-2.1 3.8,-4.9 5.6,-7.6 v -1.3 c -2.1,3.2 -4.2,5.9 -6.4,8.3 -2.9,3.3 -5.9,5.9 -8.9,7.9 -3.2,2 -6.7,3.6 -10.6,4.5 -1.7,0.4 -3.6,0.8 -5.7,1.1 -1.4,0.2 -2.8,0.3 -4.1,0.5 -0.5,0.1 -46.5,5 -46.5,5 v 3.2 z"
   id="path5"
   inkscape:connector-curvature="0"
   style="fill:#ffffff" />
	<path
   d="m 76.5,36.8 c -3.1,1.8 -6.7,3.1 -10.6,3.9 -1.7,0.3 -3.5,0.6 -5.6,0.9 -1.2,0.1 -2.5,0.2 -3.7,0.4 -0.7,0.1 -1.3,0.1 -2,0.2 -15.2,1.4 -30.3,2.8 -44.4,4.2 v 3.2 c 14.2,-1.7 29.4,-3.6 44.6,-5.3 0.7,-0.1 1.3,-0.2 2,-0.2 1.2,-0.1 2.5,-0.3 3.7,-0.4 2.2,-0.3 4,-0.6 5.8,-1 4.1,-0.9 7.8,-2.4 11,-4.3 3.2,-1.9 6,-4.6 9,-7.9 1.9,-2.1 4,-5 6,-7.7 v -1.2 c -2.3,3.2 -4.5,5.8 -6.7,8.1 -2.9,2.9 -6,5.4 -9.1,7.1"
   id="path7"
   inkscape:connector-curvature="0"
   style="fill:#ffffff" />
	<path
   d="m 85.2,36 c -3,2.8 -6.2,5 -9.4,6.5 -3.1,1.5 -6.6,2.6 -10.7,3.3 -1.7,0.3 -3.5,0.5 -5.6,0.7 l -49.4,4.1 v 3.2 L 54,49.2 59.7,48.6 c 2.1,-0.2 4,-0.5 5.7,-0.9 4.2,-0.8 7.8,-2 11.1,-3.7 3.3,-1.7 6.6,-4.5 9.7,-7.4 2.1,-2 4,-4.5 6.2,-7.2 v -1.1 c -2.5,3 -4.9,5.6 -7.2,7.7"
   id="path9"
   inkscape:connector-curvature="0"
   style="fill:#ffffff" />
	<path
   d="m 73.3,52.8 c -2.9,1.6 -5,2.6 -9.1,3 -2.5,0.3 -5,0.4 -7.5,0.5 -1.2,0.1 -2.4,0.1 -3.6,0.2 -7.5,0.4 -14.8,0.9 -22.3,1.4 l -20.6,1.4 v 3.2 L 31,60.6 C 37.7,60 45.6,59.3 53.2,58.7 l 5.6,-0.4 c 2.2,-0.2 3.9,-0.3 5.6,-0.6 4.2,-0.5 7.8,-1.4 11,-2.6 3.4,-1.3 6.7,-3.3 9.9,-5.7 2.9,-2.1 7,-6.3 7,-6.4 v -1.1 c -2.7,2.6 -4.2,4.1 -7.1,6 -3.5,2.2 -9.4,3.5 -11.9,4.9"
   id="path11"
   inkscape:connector-curvature="0"
   style="fill:#ffffff" />
	<path
   d="m 74.3,59 c -3.1,0.9 -6.6,1.5 -10.7,1.9 -1.7,0.1 -3.5,0.3 -5.5,0.3 l -5.5,0.2 C 38.9,62 25.2,62.8 10.2,63.6 v 3.2 c 14.4,-1.1 28.5,-2.2 42.6,-3.2 l 5.5,-0.4 c 2.1,-0.1 3.9,-0.3 5.5,-0.5 4.2,-0.5 7.8,-1.2 11,-2.2 3.5,-1.1 7,-2.8 10.2,-4.9 2.4,-1.5 4.8,-3.4 7.3,-5.6 v 0 c -2.8,2.4 -5.4,2.9 -8,4.5 -3.2,1.9 -6.6,3.4 -10,4.5"
   id="path13"
   inkscape:connector-curvature="0"
   style="fill:#ffffff" />
	<path
   d="m 73.8,64.3 c -3.1,0.7 -6.5,1.2 -10.7,1.5 -1.6,0.1 -3.3,0.2 -5.4,0.3 l -5.5,0.2 c -13.8,0.5 -27.8,1.1 -42,1.8 v 3.2 c 14.2,-1 28.1,-1.9 42.2,-2.8 l 5.5,-0.3 c 2.1,-0.1 3.9,-0.2 5.5,-0.4 4.2,-0.4 7.7,-1 10.9,-1.8 3.6,-0.9 7.1,-2.3 10.4,-4.1 2.6,-1.4 5.1,-3 7.7,-5 v -1.4 c -2.9,2.1 -5.6,3.8 -8.3,5.1 -3.4,1.6 -6.8,2.9 -10.3,3.7"
   id="path15"
   inkscape:connector-curvature="0"
   style="fill:#ffffff" />
	<path
   d="m 73.3,69.5 c -3.1,0.6 -6.5,1 -10.7,1.2 -1.6,0.1 -3.2,0.1 -5.4,0.2 l -47.1,1.3 v 3.2 l 41.8,-2.2 5.4,-0.3 c 2.1,-0.1 3.8,-0.2 5.4,-0.3 4.2,-0.3 7.6,-0.8 10.8,-1.5 3.6,-0.8 7.2,-1.9 10.5,-3.3 2.7,-1.1 5.4,-2.5 8.2,-4.2 v -1.3 c -3,1.8 -5.8,3.2 -8.7,4.3 -3.1,1.3 -6.6,2.3 -10.2,2.9"
   id="path17"
   inkscape:connector-curvature="0"
   style="fill:#ffffff" />
	<path
   d="m 73,74.8 c -5.8,0.8 -11.7,0.9 -17.5,1 -1.3,0 -2.6,0 -4,0.1 l -41.4,0.8 v 3.2 L 51.6,78 c 1.3,-0.1 2.6,-0.1 3.9,-0.2 5.8,-0.2 11.8,-0.5 17.7,-1.4 3.7,-0.6 7.3,-1.5 10.6,-2.6 2.8,-0.9 5.6,-2.1 8.5,-3.6 V 69 c -3,1.4 -6,2.6 -8.9,3.5 -3.3,1.1 -6.8,1.8 -10.4,2.3"
   id="path19"
   inkscape:connector-curvature="0"
   style="fill:#ffffff" />
	<path
   d="m 72.6,80.1 c -5.4,0.5 -11,0.5 -16.3,0.5 -1.7,0 -3.3,0 -5,0 -13.7,0.1 -27.3,0.2 -41.2,0.3 v 3.2 c 13.2,-0.5 27.2,-0.9 41.2,-1.3 1.7,-0.1 3.3,-0.1 5,-0.1 5.4,-0.1 11,-0.3 16.4,-0.9 3.8,-0.4 7.3,-1 10.6,-1.9 2.9,-0.7 5.9,-1.7 8.9,-2.8 v -1.2 c -3.1,1.1 -6.2,2 -9.2,2.7 -3.2,0.7 -6.6,1.2 -10.4,1.5"
   id="path21"
   inkscape:connector-curvature="0"
   style="fill:#ffffff" />
	<path
   d="m 72.4,85.3 c -2.3,0.1 -4.7,0.1 -7.5,0.1 -1,0 -2.1,0 -3.1,0 L 51.1,85.3 C 43.8,85.2 36.6,85.2 29.8,85.2 l -19.7,0 v 3.2 L 29.9,88 c 6.8,-0.2 14,-0.3 21.3,-0.5 l 10.7,-0.1 c 2.9,0 6.8,-0.1 10.7,-0.4 3.8,-0.3 7.3,-0.6 10.6,-1.2 3,-0.5 6.1,-1.1 9.1,-1.9 V 82.8 C 89.1,83.5 86,84 83,84.5 c -3.4,0.4 -6.8,0.7 -10.6,0.8"
   id="path23"
   inkscape:connector-curvature="0"
   style="fill:#ffffff" />
	<path
   d="M 61.7,90.4 51.1,90.3 C 37.5,90.1 24,89.9 10.2,89.6 v 3.2 c 13.2,-0.1 27.2,-0.2 40.9,-0.3 l 10.6,-0.2 c 3.6,-0.1 7.1,-0.1 10.6,-0.2 7.3,-0.2 13.8,-0.8 20,-1.6 v -1.1 c -6.1,0.7 -12.7,1 -20,1.1 -3.5,-0.1 -7.1,-0.1 -10.6,-0.1"
   id="path25"
   inkscape:connector-curvature="0"
   style="fill:#ffffff" />
	<polygon
   points="92.3,97.2 92.3,96.1 10.1,94 10.1,97.2 "
   id="polygon27"
   style="fill:#ffffff" />
	<path
   d="m 84.9,42.1 c -3.1,2.5 -5.5,4.3 -9.4,5.9 -3.3,1.3 -6.9,1.9 -11,2.4 -2.6,0.4 -5.4,0.9 -8,1.1 -1.1,0.1 -2.2,0.1 -3.2,0.2 l -43.2,3.2 v 3.2 l 43.4,-4.2 5.6,-0.5 C 61.2,53.2 63,53 64.8,52.7 69,52 72.6,51 75.9,49.5 79.3,48 82.7,45.6 85.8,42.9 88,41.1 90,38.8 92.3,36.3 v -1.2 c -2.7,2.8 -5,5.1 -7.4,7"
   id="path29"
   inkscape:connector-curvature="0"
   style="fill:#ffffff" />
	<path
   d="m 127.3,14.7 c 0,0 14.8,23.6 17.5,27.9 2.7,4.3 5.8,7.7 16.7,10.1 10.9,2.3 15.7,3.4 15.7,3.4 v 0.8 c 0,0 -7,-1.5 -15.9,-3.5 -8.9,-2 -12.6,-2.7 -16.7,-8.3 -3.4,-4.7 -17.4,-24.8 -17.4,-24.8 v -5.6 z"
   id="path31"
   inkscape:connector-curvature="0"
   style="fill:#ffffff" />
	<path
   d="m 127.3,41.6 c 0,0 13.5,14.1 17.4,18.2 4.1,4.3 9.4,5.9 16.7,7.2 7,1.2 15.8,2.7 15.8,2.7 v 0.8 c 0,0 -8.3,-1.4 -15.8,-2.6 -7.4,-1.3 -12.6,-2 -16.8,-5.9 -3.8,-3.5 -17.3,-16.2 -17.3,-16.2 v -4.2 z"
   id="path33"
   inkscape:connector-curvature="0"
   style="fill:#ffffff" />
	<path
   d="m 127.3,48 c 0,0 12.8,11.9 17.4,15.9 4.2,3.7 7.6,4.9 16.8,6.5 9.2,1.6 15.8,2.6 15.8,2.6 v 0.8 c 0,0 -8.3,-1.4 -15.8,-2.6 C 154,70 149.2,69.5 144.8,65.9 139.6,61.7 127.4,51.7 127.4,51.7 V 48 z"
   id="path35"
   inkscape:connector-curvature="0"
   style="fill:#ffffff" />
	<path
   d="m 127.3,54.8 c 0,0 14.6,11.6 17.4,13.6 2.7,2 6.3,4.4 16.8,5.9 10.4,1.5 15.7,2.3 15.7,2.3 v 0.9 c 0,0 -9.4,-1.4 -15.7,-2.2 -6.3,-0.8 -11.1,-1.1 -16.8,-4.9 -5.5,-3.7 -17.4,-12 -17.4,-12 v -3.6 z"
   id="path37"
   inkscape:connector-curvature="0"
   style="fill:#ffffff" />
	<path
   d="m 127.3,61.3 c 0,0 14.7,9.8 17.4,11.3 2.8,1.5 6,4.1 16.7,5.4 10.7,1.4 15.7,2 15.7,2 v 0.8 c 0,0 -8.9,-1 -15.8,-1.7 -6.9,-0.8 -11.6,-1.8 -16.8,-4.6 -5.2,-2.8 -17.4,-10 -17.4,-10 v -3.2 z"
   id="path39"
   inkscape:connector-curvature="0"
   style="fill:#ffffff" />
	<path
   d="m 127.3,67.8 c 0,0 13,7.1 17.4,9.3 4.9,2.5 9.1,3.6 16.8,4.5 7.5,0.9 15.8,1.8 15.8,1.8 v 0.8 c 0,0 -7.6,-0.8 -15.8,-1.6 -8.1,-0.8 -11,-1.1 -16.8,-3.7 -5.2,-2.3 -17.4,-8 -17.4,-8 v -3.1 z"
   id="path41"
   inkscape:connector-curvature="0"
   style="fill:#ffffff" />
	<path
   d="m 127.3,74.4 c 0,0 10.2,4.4 17.4,7.2 7.1,2.8 12.5,3 16.8,3.5 1.9,0.2 15.7,1.6 15.7,1.6 v 0.8 c 0,0 -8.2,-0.7 -15.7,-1.3 -7.5,-0.7 -10.7,-0.9 -16.8,-3 -6.1,-2 -17.4,-6 -17.4,-6 v -2.8 z"
   id="path43"
   inkscape:connector-curvature="0"
   style="fill:#ffffff" />
	<path
   d="m 127.3,81.1 c 0,0 10.3,3.2 17.4,5.1 7.1,1.9 13.5,2.6 16.8,2.8 3.3,0.2 15.7,1.2 15.7,1.2 V 91 c 0,0 -7.1,-0.5 -15.8,-1.1 -7,-0.5 -12.7,-1 -16.8,-1.9 -4.6,-1 -17.4,-4 -17.4,-4 v -2.9 z"
   id="path45"
   inkscape:connector-curvature="0"
   style="fill:#ffffff" />
	<path
   d="m 127.3,87.7 c 0,0 8.5,1.5 17.4,2.9 6.7,1.1 15.8,1.8 16.7,1.9 1,0 15.8,1.1 15.8,1.1 v 0.8 c 0,0 -9.5,-0.5 -15.8,-0.8 -6.6,-0.4 -13.1,-0.8 -16.8,-1.1 -8.3,-0.9 -17.4,-2 -17.4,-2 v -2.8 z"
   id="path47"
   inkscape:connector-curvature="0"
   style="fill:#ffffff" />
	<path
   d="m 127.3,94.6 c 0,0 13.3,0.5 17.4,0.6 4.1,0.1 32.5,1.2 32.5,1.2 v 0.8 h -49.9 v -2.6 z"
   id="path49"
   inkscape:connector-curvature="0"
   style="fill:#ffffff" />
	<path
   d="m 161.4,56.3 c -12.1,-2.6 -14.8,-7 -16.8,-9.8 -2,-2.7 -17.3,-25.1 -17.3,-25.1 v 5 c 0.6,0.8 13.7,17.9 17.4,22.6 4.1,5.3 10.6,6.5 16.8,7.9 6.2,1.3 15.8,3.2 15.8,3.2 v -0.7 c -0.1,0.1 -12.8,-2.4 -15.9,-3.1"
   id="path51"
   inkscape:connector-curvature="0"
   style="fill:#ffffff" />
	<path
   d="m 161.4,59.8 c -9.9,-1.9 -13.9,-5.1 -16.8,-8.9 -2.9,-3.8 -17.3,-22.8 -17.3,-22.8 v 4.8 c 0.6,0.7 13.8,16.3 17.3,20.4 4.1,4.7 9.9,6 16.8,7.2 7,1.3 15.8,3 15.8,3 v -0.7 c 0,0 -10.1,-1.9 -15.8,-3"
   id="path53"
   inkscape:connector-curvature="0"
   style="fill:#ffffff" />
	<path
   d="m 161.4,63.5 c -10.3,-2 -12.4,-3.6 -16.8,-8.4 -2.7,-3 -16.8,-19.6 -17.4,-20.3 v 4.4 c 0,0 13.1,14 17.3,18.1 5.5,5.4 10.7,5.8 16.8,6.9 6.1,1.1 15.8,2.9 15.8,2.9 v -0.8 c 0.1,0.1 -11.6,-2 -15.7,-2.8"
   id="path55"
   inkscape:connector-curvature="0"
   style="fill:#ffffff" />
	<rect
   x="44.299999"
   y="48.400002"
   width="72"
   height="48.200001"
   id="rect57"
   style="fill:#022b5b" />
	<rect
   x="44.299999"
   y="48.400002"
   width="72"
   height="48.200001"
   id="rect59"
   style="fill:none;stroke:#ffffff;stroke-width:1.26100004" />
	<polygon
   points="77.1,55.2 79.6,55.2 80.3,52.8 81.1,55.2 83.6,55.2 81.5,56.8 82.3,59.3 80.3,57.8 78.3,59.3 79.1,56.8 "
   id="polygon61"
   style="fill:#ffffff" />
	<polygon
   points="77.2,87.4 79.7,87.4 80.4,85 81.2,87.4 83.7,87.4 81.6,88.9 82.4,91.3 80.4,89.8 78.4,91.3 79.2,88.9 "
   id="polygon63"
   style="fill:#ffffff" />
	<polygon
   points="85.1,85.2 87.6,85.2 88.4,82.9 89.1,85.2 91.6,85.2 89.6,86.7 90.4,89.1 88.4,87.7 86.3,89.1 87.1,86.7 "
   id="polygon65"
   style="fill:#ffffff" />
	<polygon
   points="85.1,57.4 87.6,57.4 88.4,55 89.1,57.4 91.6,57.4 89.6,58.9 90.4,61.3 88.4,59.8 86.3,61.3 87.1,58.9 "
   id="polygon67"
   style="fill:#ffffff" />
	<polygon
   points="91,63.3 93.5,63.3 94.3,60.9 95,63.3 97.5,63.3 95.5,64.8 96.3,67.2 94.3,65.7 92.2,67.2 93,64.8 "
   id="polygon69"
   style="fill:#ffffff" />
	<polygon
   points="91,79.4 93.5,79.4 94.3,77.1 95,79.4 97.5,79.4 95.5,80.9 96.3,83.3 94.3,81.9 92.2,83.3 93,80.9 "
   id="polygon71"
   style="fill:#ffffff" />
	<polygon
   points="93.2,71.2 95.7,71.2 96.5,68.9 97.2,71.2 99.7,71.2 97.7,72.7 98.5,75.1 96.5,73.7 94.5,75.1 95.2,72.7 "
   id="polygon73"
   style="fill:#ffffff" />
	<polygon
   points="69,57.4 71.5,57.4 72.2,55.1 73,57.4 75.5,57.4 73.5,58.9 74.2,61.3 72.2,59.8 70.2,61.3 71,58.9 "
   id="polygon75"
   style="fill:#ffffff" />
	<polygon
   points="63.2,63.3 65.7,63.3 66.5,61 67.2,63.3 69.7,63.3 67.7,64.8 68.5,67.2 66.5,65.7 64.5,67.2 65.3,64.8 "
   id="polygon77"
   style="fill:#ffffff" />
	<polygon
   points="61.1,71.2 63.6,71.2 64.4,68.9 65.1,71.2 67.6,71.2 65.6,72.8 66.4,75.2 64.4,73.7 62.4,75.2 63.1,72.8 "
   id="polygon79"
   style="fill:#ffffff" />
	<polygon
   points="63.2,79.4 65.7,79.4 66.5,77.1 67.2,79.4 69.7,79.4 67.7,81 68.5,83.4 66.5,81.9 64.5,83.4 65.3,81 "
   id="polygon81"
   style="fill:#ffffff" />
	<polygon
   points="69.1,85.3 71.6,85.3 72.3,82.9 73,85.3 75.6,85.3 73.5,86.8 74.3,89.2 72.3,87.7 70.3,89.2 71.1,86.8 "
   id="polygon83"
   style="fill:#ffffff" />
</g>
</svg>