<?xml version="1.0" encoding="utf-8"?>
<!-- Generator: Adobe Illustrator 18.1.0, SVG Export Plug-In . SVG Version: 6.00 Build 0)  -->
<svg version="1.1" id="Layer_1" xmlns="http://www.w3.org/2000/svg" xmlns:xlink="http://www.w3.org/1999/xlink" x="0px" y="0px"
	 viewBox="0 0 114 113.8" enable-background="new 0 0 114 113.8" xml:space="preserve">
<g>
	<path d="M38.7,48.6l-10.2,0c0.3,3.6,1.2,7.1,2.7,10.2l9,0C39.4,55.8,38.8,52.4,38.7,48.6z"/>
	<path d="M40.1,34.3l-9,0c-1.5,3.1-2.4,6.6-2.7,10.2l10.2,0C38.8,40.7,39.3,37.3,40.1,34.3z"/>
	<path d="M45.9,62.9c3,6.7,7.2,10.4,9.1,11.8l0-11.8L45.9,62.9z"/>
	<path d="M33.6,62.9c3.5,5,8.5,8.7,14.4,10.7c-2.2-2.5-4.6-6.1-6.4-10.7L33.6,62.9z"/>
	<path d="M47.7,19.4c-5.8,2-10.8,5.8-14.3,10.8l8,0C43.2,25.5,45.6,22,47.7,19.4z"/>
	<path d="M42.7,44.5l12.2,0l0-10.2l-10.5,0C43.5,37.2,42.9,40.6,42.7,44.5z"/>
	<path d="M44.4,58.8l10.6,0l0-10.2l-12.2,0C42.9,52.5,43.5,55.9,44.4,58.8z"/>
	<path d="M54.9,30.1l0-11.9c-0.3,0.2-0.6,0.4-0.9,0.7c-1.2,1-2.9,2.6-4.6,4.9c-1.2,1.7-2.5,3.8-3.5,6.2L54.9,30.1z"/>
	<path d="M58.9,18.3l0,11.8l9.1,0C65.1,23.4,60.9,19.7,58.9,18.3z"/>
	<path d="M66,19.4c2.2,2.5,4.6,6.1,6.4,10.7l8,0C76.9,25.1,71.9,21.3,66,19.4z"/>
	<path d="M73.9,58.7l9,0c1.5-3.1,2.4-6.6,2.7-10.2l-10.2,0C75.2,52.3,74.7,55.7,73.9,58.7z"/>
	<path d="M75.3,44.4l10.2,0c-0.3-3.6-1.2-7.1-2.7-10.2l-9,0C74.6,37.2,75.1,40.6,75.3,44.4z"/>
	<path d="M89.1,0H24.9C11.2,0,0,11.2,0,24.9v43.2C0,81.8,11.2,93,24.9,93h3.9v20.8L72.4,93h16.7c13.7,0,24.9-11.2,24.9-24.9V24.9
		C114,11.2,102.8,0,89.1,0z M57.1,79.2C39,79.3,24.3,64.7,24.3,46.6c-0.1-18.1,14.5-32.8,32.6-32.8C75,13.7,89.7,28.3,89.7,46.4
		C89.8,64.5,75.2,79.2,57.1,79.2z"/>
	<path d="M66.2,73.6c5.8-2,10.8-5.8,14.3-10.8l-8,0C70.8,67.5,68.4,71,66.2,73.6z"/>
	<path d="M71.2,48.5l-12.2,0l0,10.2l10.5,0C70.5,55.8,71.1,52.4,71.2,48.5z"/>
	<path d="M69.6,34.2l-10.6,0l0,10.2l12.2,0C71,40.5,70.5,37.1,69.6,34.2z"/>
	<path d="M59.1,62.9l0,11.8c0.3-0.2,0.6-0.4,0.9-0.7c1.2-1,2.9-2.7,4.6-4.9c1.2-1.7,2.5-3.8,3.5-6.2L59.1,62.9z"/>
</g>
</svg>
