<?xml version="1.0" encoding="UTF-8" standalone="no"?>
<svg width="22px" height="18px" viewBox="0 0 22 18" version="1.1" xmlns="http://www.w3.org/2000/svg" xmlns:xlink="http://www.w3.org/1999/xlink">
    <!-- Generator: Sketch 3.7 (28169) - http://www.bohemiancoding.com/sketch -->
    <title>cast copy 2</title>
    <desc>Created with Sketch.</desc>
    <defs></defs>
    <g id="Event-detail-page" stroke="none" stroke-width="1" fill="none" fill-rule="evenodd">
        <g id="Event_during" transform="translate(-337.000000, -455.000000)" fill="#FFC412">
            <g id="Group-9" transform="translate(-7.000000, 203.000000)">
                <g id="cast-copy-2" transform="translate(344.000000, 252.000000)">
                    <path d="M20,0 L2,0 C0.9,0 0,0.9 0,2 L0,5 L2,5 L2,2 L20,2 L20,16 L13,16 L13,18 L20,18 C21.1,18 22,17.1 22,16 L22,2 C22,0.9 21.1,0 20,0 L20,0 Z M0,15 L0,18 L3,18 C3,16.3 1.7,15 0,15 L0,15 Z M0,11 L0,13 C2.8,13 5,15.2 5,18 L7,18 C7,14.1 3.9,11 0,11 L0,11 Z M0,7 L0,9 C5,9 9,13 9,18 L11,18 C11,11.9 6.1,7 0,7 L0,7 Z" id="Shape"></path>
                </g>
            </g>
        </g>
    </g>
</svg>
