<?xml version="1.0" encoding="utf-8"?>
<!-- Generator: Adobe Illustrator 18.1.0, SVG Export Plug-In . SVG Version: 6.00 Build 0)  -->
<svg version="1.1" id="Layer_1" xmlns="http://www.w3.org/2000/svg" xmlns:xlink="http://www.w3.org/1999/xlink" x="0px" y="0px"
	 viewBox="0 0 140 68" enable-background="new 0 0 140 68" xml:space="preserve">
<g>
	<path fill="#BCBEC0" d="M3,25.5c0,0,37.4-4.9,38.5-5.1c1.6-0.3,3.1-0.6,4.4-1c3-0.8,5.8-2.1,8.3-3.8c2.4-1.6,4.6-3.9,6.7-6.5
		c1.4-1.6,2.8-3.7,4.2-5.8v-1c-1.6,2.4-3.2,4.5-4.8,6.3c-2.2,2.4-4.4,4.4-6.8,5.9c-2.4,1.6-5.1,2.7-8,3.4c-1.3,0.3-2.7,0.6-4.3,0.8
		c-1,0.1-2.1,0.3-3.1,0.4C37.7,19.3,3,23,3,23V25.5z"/>
	<path fill="#BCBEC0" d="M53.2,19.2c-2.3,1.4-5.1,2.4-8,3c-1.3,0.3-2.7,0.5-4.3,0.6C40,22.9,39,22.9,38.1,23c-0.5,0-1,0.1-1.5,0.1
		c-11.5,1-22.9,2.1-33.6,3.2v2.4c10.8-1.3,22.3-2.7,33.7-4c0.5-0.1,1-0.1,1.5-0.2c0.9-0.1,1.9-0.2,2.8-0.3c1.6-0.2,3.1-0.5,4.4-0.8
		c3.1-0.7,5.9-1.8,8.4-3.3c2.4-1.5,4.5-3.5,6.8-6c1.4-1.6,3-3.8,4.5-5.8V7.5c-1.8,2.4-3.4,4.4-5.1,6.1C57.8,16,55.5,17.8,53.2,19.2"
		/>
	<path fill="#BCBEC0" d="M59.8,18.6c-2.3,2.1-4.7,3.8-7.1,4.9c-2.4,1.2-5,2-8.1,2.5c-1.3,0.2-2.7,0.4-4.2,0.5L3,29.6V32l33.2-3.6
		l4.3-0.5c1.6-0.2,3-0.4,4.3-0.6c3.2-0.6,5.9-1.5,8.4-2.8c2.5-1.3,5-3.4,7.3-5.6c1.6-1.5,3.1-3.4,4.7-5.5v-0.8
		C63.3,15,61.5,16.9,59.8,18.6"/>
	<path fill="#BCBEC0" d="M50.7,31.2c-2.2,1.2-3.8,1.9-6.9,2.3c-1.9,0.2-3.8,0.3-5.7,0.4c-0.9,0-1.8,0.1-2.7,0.1
		c-5.6,0.3-11.2,0.7-16.8,1.1L3,36.2v2.4l15.8-1.5c5.1-0.5,11-1,16.8-1.5l4.2-0.3c1.6-0.1,3-0.3,4.2-0.4c3.2-0.4,5.9-1.1,8.3-2
		c2.6-1,5.1-2.5,7.5-4.3c2.2-1.6,5.3-4.8,5.3-4.8v-0.9c-2,2-3.2,3.1-5.4,4.5C57.2,29.2,52.7,30.1,50.7,31.2"/>
	<path fill="#BCBEC0" d="M51.5,35.9c-2.4,0.7-5,1.2-8.1,1.4c-1.3,0.1-2.6,0.2-4.1,0.3l-4.2,0.2c-10.4,0.5-20.7,1-32.1,1.6v2.4
		c10.9-0.8,21.5-1.7,32.2-2.4l4.2-0.3c1.6-0.1,2.9-0.2,4.2-0.4c3.2-0.4,5.9-0.9,8.3-1.7c2.7-0.9,5.3-2.1,7.7-3.7
		c1.8-1.2,3.6-2.6,5.5-4.2v0c-2.1,1.8-4.1,2.2-6,3.4C56.7,34,54.1,35.1,51.5,35.9"/>
	<path fill="#BCBEC0" d="M51.1,39.9c-2.4,0.6-4.9,0.9-8.1,1.1c-1.2,0.1-2.5,0.1-4.1,0.2l-4.1,0.1c-10.4,0.4-21,0.9-31.8,1.3v2.4
		c10.7-0.7,21.3-1.5,31.9-2.1l4.1-0.2c1.6-0.1,2.9-0.2,4.2-0.3c3.2-0.3,5.8-0.7,8.3-1.4c2.7-0.7,5.4-1.7,7.9-3.1
		c1.9-1,3.9-2.3,5.9-3.8v-1c-2.2,1.6-4.2,2.9-6.3,3.9C56.4,38.4,53.8,39.3,51.1,39.9"/>
	<path fill="#BCBEC0" d="M50.8,43.9c-2.4,0.4-4.9,0.7-8.1,0.9c-1.2,0.1-2.4,0.1-4.1,0.1L3,45.9v2.4l31.6-1.7l4.1-0.2
		c1.6-0.1,2.9-0.2,4.1-0.2c3.2-0.2,5.8-0.6,8.2-1.1c2.8-0.6,5.4-1.4,8-2.5c2-0.9,4.1-1.9,6.2-3.2v-1c-2.3,1.3-4.4,2.4-6.5,3.2
		C56.1,42.6,53.5,43.4,50.8,43.9"/>
	<path fill="#BCBEC0" d="M50.5,47.9c-4.4,0.6-8.9,0.7-13.2,0.7c-1,0-2,0-3,0.1L3,49.2v2.4l31.3-1.4c1,0,2-0.1,3-0.1
		c4.4-0.2,8.9-0.4,13.4-1.1c2.8-0.4,5.5-1.1,8-2c2.1-0.7,4.2-1.6,6.4-2.7v-0.9c-2.3,1.1-4.6,2-6.7,2.6
		C55.9,46.9,53.3,47.5,50.5,47.9"/>
	<path fill="#BCBEC0" d="M50.3,51.9c-4.1,0.3-8.3,0.3-12.3,0.3c-1.3,0-2.5,0-3.8,0c-10.4,0-20.7,0.1-31.1,0.2v2.4
		c10-0.3,20.6-0.7,31.2-1c1.3,0,2.5-0.1,3.8-0.1c4.1-0.1,8.3-0.2,12.4-0.7c2.9-0.3,5.5-0.8,8-1.4c2.2-0.5,4.5-1.3,6.7-2.1v-0.9
		c-2.3,0.8-4.7,1.5-6.9,2C55.7,51.3,53.1,51.7,50.3,51.9"/>
	<path fill="#BCBEC0" d="M50.1,55.8c-1.7,0.1-3.6,0.1-5.7,0.1c-0.8,0-1.6,0-2.4,0L34,55.8c-5.5,0-11-0.1-16.1-0.1L3,55.8v2.4
		l14.9-0.4c5.1-0.1,10.6-0.3,16.1-0.4l8.1-0.1c2.2,0,5.1-0.1,8.1-0.3c2.9-0.2,5.5-0.5,8.1-0.9c2.3-0.4,4.6-0.9,6.9-1.5v-0.9
		c-2.4,0.6-4.8,1-7.1,1.3C55.6,55.5,53,55.7,50.1,55.8"/>
	<path fill="#BCBEC0" d="M42,59.7l-8-0.1C23.7,59.4,13.5,59.2,3,59v2.4c10-0.1,20.5-0.1,31-0.3l8-0.1c2.7,0,5.4-0.1,8-0.2
		c5.5-0.2,10.5-0.6,15.1-1.2v-0.8c-4.6,0.5-9.6,0.8-15.1,0.8C47.3,59.7,44.7,59.7,42,59.7"/>
	<polygon fill="#BCBEC0" points="65.1,64 3,62.4 3,64.8 65.1,64.8 	"/>
	<path fill="#BCBEC0" d="M59.6,23.1c-2.4,1.9-4.2,3.3-7.1,4.4c-2.5,1-5.2,1.4-8.3,1.8c-2,0.3-4.1,0.7-6,0.8
		c-0.8,0.1-1.6,0.1-2.4,0.2L3,32.8v2.4l32.8-3.2l4.3-0.4c1.6-0.2,3-0.3,4.3-0.5c3.2-0.5,5.9-1.3,8.4-2.4c2.5-1.1,5.1-3,7.5-5
		c1.6-1.4,3.2-3.1,4.9-5v-0.9C63.1,20,61.4,21.7,59.6,23.1"/>
	<path fill="#BCBEC0" d="M91.6,2.4c0,0,11.2,17.8,13.2,21.1c2,3.3,4.4,5.8,12.7,7.6c8.3,1.8,11.9,2.6,11.9,2.6v0.6
		c0,0-5.3-1.1-12-2.6c-6.8-1.5-9.5-2-12.6-6.3c-2.6-3.6-13.1-18.7-13.1-18.7V2.4z"/>
	<path fill="#BCBEC0" d="M91.6,22.8c0,0,10.2,10.7,13.1,13.7c3.1,3.2,7.1,4.5,12.7,5.4c5.3,0.9,12,2,12,2v0.6c0,0-6.3-1-12-2
		c-5.6-1-9.5-1.5-12.7-4.4c-2.9-2.6-13.1-12.2-13.1-12.2V22.8z"/>
	<path fill="#BCBEC0" d="M91.6,27.6c0,0,9.7,9,13.1,12.1c3.2,2.8,5.7,3.7,12.7,4.9c7,1.2,11.9,2,11.9,2v0.6c0,0-6.3-1-12-1.9
		c-5.7-0.9-9.3-1.3-12.7-4c-3.9-3.2-13.1-10.8-13.1-10.8V27.6z"/>
	<path fill="#BCBEC0" d="M91.6,32.7c0,0,11.1,8.8,13.1,10.3c2.1,1.5,4.8,3.3,12.7,4.5c7.9,1.1,11.9,1.7,11.9,1.7v0.7
		c0,0-7.1-1-11.9-1.6c-4.8-0.6-8.4-0.9-12.7-3.7c-4.2-2.8-13.2-9.1-13.2-9.1V32.7z"/>
	<path fill="#BCBEC0" d="M91.6,37.6c0,0,11.1,7.4,13.2,8.6c2.1,1.2,4.6,3.1,12.7,4.1c8.1,1,11.9,1.5,11.9,1.5v0.6
		c0,0-6.7-0.7-11.9-1.3c-5.2-0.6-8.8-1.3-12.7-3.5c-3.9-2.1-13.1-7.5-13.1-7.5V37.6z"/>
	<path fill="#BCBEC0" d="M91.6,42.6c0,0,9.8,5.3,13.1,7c3.7,1.9,6.9,2.7,12.7,3.4c5.7,0.7,11.9,1.3,11.9,1.3v0.6
		c0,0-5.8-0.6-11.9-1.2c-6.1-0.6-8.3-0.8-12.7-2.8c-3.9-1.8-13.1-6-13.1-6V42.6z"/>
	<path fill="#BCBEC0" d="M91.6,47.6c0,0,7.7,3.3,13.2,5.5c5.4,2.1,9.4,2.3,12.7,2.7c1.4,0.2,11.9,1.2,11.9,1.2v0.6
		c0,0-6.2-0.5-11.9-1c-5.7-0.5-8.1-0.7-12.7-2.2c-4.6-1.5-13.2-4.5-13.2-4.5V47.6z"/>
	<path fill="#BCBEC0" d="M91.6,52.6c0,0,7.8,2.4,13.2,3.8c5.3,1.4,10.2,2,12.7,2.1c2.5,0.2,11.9,0.9,11.9,0.9v0.6
		c0,0-5.4-0.4-11.9-0.8c-5.3-0.4-9.6-0.8-12.7-1.5c-3.5-0.8-13.1-3.1-13.1-3.1V52.6z"/>
	<path fill="#BCBEC0" d="M91.6,57.7c0,0,6.4,1.1,13.2,2.2c5.1,0.8,11.9,1.4,12.7,1.4c0.7,0,11.9,0.8,11.9,0.8v0.6
		c0,0-7.2-0.4-11.9-0.6c-5-0.3-9.9-0.6-12.7-0.9c-6.3-0.7-13.1-1.5-13.1-1.5V57.7z"/>
	<path fill="#BCBEC0" d="M91.6,62.8c0,0,10.1,0.4,13.2,0.4c3.1,0.1,24.6,0.9,24.6,0.9v0.6H91.6V62.8z"/>
	<path fill="#BCBEC0" d="M117.4,33.9c-9.1-2-11.2-5.3-12.7-7.4c-1.5-2.1-13.1-19-13.1-19v3.8c0.5,0.6,10.3,13.5,13.1,17.1
		c3.1,4,8,4.9,12.7,5.9c4.7,1,11.9,2.4,11.9,2.4v-0.5C129.4,36.3,119.8,34.4,117.4,33.9"/>
	<path fill="#BCBEC0" d="M117.4,36.5c-7.5-1.5-10.5-3.8-12.7-6.7c-2.2-2.9-13.1-17.2-13.1-17.2v3.6c0.5,0.5,10.4,12.4,13.1,15.4
		c3.1,3.6,7.5,4.5,12.7,5.5c5.3,1,11.9,2.2,11.9,2.2v-0.5C129.4,38.8,121.7,37.4,117.4,36.5"/>
	<path fill="#BCBEC0" d="M117.4,39.3c-7.8-1.5-9.4-2.8-12.7-6.4c-2.1-2.3-12.7-14.8-13.1-15.3V21c0,0,9.9,10.6,13.1,13.7
		c4.2,4.1,8.1,4.4,12.7,5.2c4.6,0.8,11.9,2.2,11.9,2.2v-0.6C129.4,41.5,120.5,39.9,117.4,39.3"/>
	<rect x="28.8" y="28.4" fill="#0D4F9E" width="54.4" height="36.4"/>
	<polygon fill="#FAEA27" points="56.6,33.6 58.5,33.6 57,34.7 57.6,36.6 56.1,35.5 54.6,36.6 55.2,34.7 53.6,33.6 55.5,33.6 
		56.1,31.7 	"/>
	<polygon fill="#FAEA27" points="56.7,57.8 58.6,57.8 57.1,59 57.7,60.8 56.2,59.7 54.6,60.8 55.2,59 53.7,57.8 55.6,57.8 
		56.2,56.1 	"/>
	<polygon fill="#FAEA27" points="62.7,56.2 64.6,56.2 63.1,57.4 63.7,59.2 62.2,58.1 60.6,59.2 61.2,57.4 59.7,56.2 61.6,56.2 
		62.2,54.5 	"/>
	<polygon fill="#FAEA27" points="62.7,35.2 64.6,35.2 63.1,36.3 63.7,38.1 62.2,37 60.6,38.1 61.2,36.3 59.7,35.2 61.6,35.2 
		62.2,33.4 	"/>
	<polygon fill="#FAEA27" points="67.2,39.6 69.1,39.6 67.5,40.8 68.1,42.6 66.6,41.5 65.1,42.6 65.7,40.8 64.2,39.6 66,39.6 
		66.6,37.9 	"/>
	<polygon fill="#FAEA27" points="67.2,51.8 69.1,51.8 67.5,53 68.1,54.8 66.6,53.7 65.1,54.8 65.7,53 64.2,51.8 66,51.8 66.6,50.1 	
		"/>
	<polygon fill="#FAEA27" points="68.9,45.6 70.8,45.6 69.2,46.8 69.8,48.6 68.3,47.5 66.8,48.6 67.4,46.8 65.8,45.6 67.7,45.6 
		68.3,43.9 	"/>
	<polygon fill="#FAEA27" points="50.5,35.2 52.4,35.2 50.9,36.3 51.5,38.2 50,37 48.4,38.2 49,36.3 47.5,35.2 49.4,35.2 50,33.4 	
		"/>
	<polygon fill="#FAEA27" points="46.2,39.7 48.1,39.7 46.6,40.8 47.1,42.6 45.6,41.5 44.1,42.6 44.7,40.8 43.2,39.7 45.1,39.7 
		45.6,37.9 	"/>
	<polygon fill="#FAEA27" points="44.6,45.7 46.5,45.7 44.9,46.8 45.5,48.6 44,47.5 42.5,48.6 43.1,46.8 41.6,45.7 43.4,45.7 
		44,43.9 	"/>
	<polygon fill="#FAEA27" points="46.2,51.9 48.1,51.9 46.6,53 47.1,54.8 45.6,53.7 44.1,54.8 44.7,53 43.2,51.9 45.1,51.9 
		45.6,50.1 	"/>
	<polygon fill="#FAEA27" points="50.6,56.3 52.5,56.3 51,57.4 51.5,59.2 50,58.1 48.5,59.2 49.1,57.4 47.6,56.3 49.5,56.3 50,54.5 	
		"/>
</g>
</svg>
