<?xml version="1.0" encoding="UTF-8" standalone="no"?>
<svg width="36px" height="36px" viewBox="0 0 36 36" version="1.1" xmlns="http://www.w3.org/2000/svg" xmlns:xlink="http://www.w3.org/1999/xlink">
    <!-- Generator: Sketch 39.1 (31720) - http://www.bohemiancoding.com/sketch -->
    <title>Artboard Copy 3</title>
    <desc>Created with Sketch.</desc>
    <defs></defs>
    <g id="Page-1" stroke="none" stroke-width="1" fill="none" fill-rule="evenodd">
        <g id="Artboard-Copy-3" fill="#FFC412">
            <g id="Warning" transform="translate(0.000000, 1.000000)">
                <g id="Layer_1">
                    <path d="M18.1,0.1 L0,33.9 L36,33.9 L18.1,0.1 L18.1,0.1 Z M18.1,30.4 C16.9,30.4 16,29.5 16,28.3 C16,27.1 16.9,26.2 18.1,26.2 C19.3,26.2 20.2,27.1 20.2,28.3 C20.2,29.5 19.2,30.4 18.1,30.4 L18.1,30.4 Z M18.1,24.1 C16.9,24.1 16,23.2 16,22 L16,15.7 C16,14.5 16.9,13.6 18.1,13.6 C19.3,13.6 20.2,14.5 20.2,15.7 L20.2,22 C20.2,23.1 19.2,24.1 18.1,24.1 L18.1,24.1 Z" id="Shape"></path>
                </g>
            </g>
        </g>
    </g>
</svg>