<?xml version="1.0" encoding="UTF-8" standalone="no"?>
<svg width="36px" height="36px" viewBox="0 0 36 36" version="1.1" xmlns="http://www.w3.org/2000/svg" xmlns:xlink="http://www.w3.org/1999/xlink">
    <!-- Generator: Sketch 39.1 (31720) - http://www.bohemiancoding.com/sketch -->
    <title>Artboard Copy 2</title>
    <desc>Created with Sketch.</desc>
    <defs></defs>
    <g id="Page-1" stroke="none" stroke-width="1" fill="none" fill-rule="evenodd">
        <g id="Artboard-Copy-2" fill="#467A39">
            <g id="Sucess" transform="translate(1.000000, 1.000000)">
                <g id="Layer_1">
                    <path d="M17,0 C7.6,0 0,7.6 0,17 C0,26.4 7.6,34 17,34 C26.4,34 34,26.4 34,17 C34,7.6 26.4,0 17,0 L17,0 Z M24.7,13.5 L15.3,22.5 C15.1,22.7 14.8,22.7 14.6,22.5 L13.2,21.1 L12.5,20.4 L9.3,17.1 C9.2,17 9.2,16.9 9.2,16.7 C9.2,16.6 9.3,16.5 9.3,16.4 L10.8,15.1 C10.9,15 11,15 11.2,15 C11.3,15 11.5,15 11.6,15.1 L14.6,18.3 C14.8,18.5 15.1,18.5 15.3,18.3 L22.6,11.3 C22.8,11.1 23.1,11.1 23.3,11.3 L24.7,12.7 C24.9,13 24.9,13.3 24.7,13.5 L24.7,13.5 Z" id="Shape"></path>
                </g>
            </g>
        </g>
    </g>
</svg>