<svg xmlns="http://www.w3.org/2000/svg" viewBox="0 0 595.3 595.3"><path d="M420.1 0H173.5L0 175.2v246.6l175.2 173.5h246.6l173.5-175.2V175.2L420.1 0zm-83.3 302.7l61.2 61.2c3.4 3.4 3.4 8.5 0 11.9l-22.1 22.1c-3.4 3.4-8.5 3.4-11.9 0l-61.2-61.2c-3.4-3.4-8.5-3.4-11.9 0l-61.2 61.2c-3.4 3.4-8.5 3.4-11.9 0l-22.1-22.1c-3.4-3.4-3.4-8.5 0-11.9l61.2-61.2c3.4-3.4 3.4-8.5 0-11.9l-61.2-61.2c-3.4-3.4-3.4-8.5 0-11.9l22.1-22.1c3.4-3.4 8.5-3.4 11.9 0l61.2 61.2c3.4 3.4 8.5 3.4 11.9 0l61.2-61.2c3.4-3.4 8.5-3.4 11.9 0l22.1 22.1c3.4 3.4 3.4 8.5 0 11.9l-61.2 61.2c-3.4 5.1-3.4 8.5 0 11.9z" fill="#da2131"/></svg>