<?xml version="1.0" encoding="UTF-8" standalone="no"?>
<svg width="36px" height="36px" viewBox="0 0 36 36" version="1.1" xmlns="http://www.w3.org/2000/svg" xmlns:xlink="http://www.w3.org/1999/xlink">
    <!-- Generator: Sketch 39.1 (31720) - http://www.bohemiancoding.com/sketch -->
    <title>Artboard</title>
    <desc>Created with Sketch.</desc>
    <defs></defs>
    <g id="Page-1" stroke="none" stroke-width="1" fill="none" fill-rule="evenodd">
        <g id="Artboard" fill="#DA2131">
            <g id="Error" transform="translate(1.000000, 1.000000)">
                <path d="M24,0 L9.9,0 L0,10 L0,24.1 L10,34 L24.1,34 L34,24 L34,10 L24,0 L24,0 Z M19.2,17.3 L22.7,20.8 C22.9,21 22.9,21.3 22.7,21.5 L21.4,22.8 C21.2,23 20.9,23 20.7,22.8 L17.2,19.3 C17,19.1 16.7,19.1 16.5,19.3 L13,22.8 C12.8,23 12.5,23 12.3,22.8 L11,21.5 C10.8,21.3 10.8,21 11,20.8 L14.5,17.3 C14.7,17.1 14.7,16.8 14.5,16.6 L11,13.1 C10.8,12.9 10.8,12.6 11,12.4 L12.3,11.1 C12.5,10.9 12.8,10.9 13,11.1 L16.5,14.6 C16.7,14.8 17,14.8 17.2,14.6 L20.7,11.1 C20.9,10.9 21.2,10.9 21.4,11.1 L22.7,12.4 C22.9,12.6 22.9,12.9 22.7,13.1 L19.2,16.6 C19,16.9 19,17.1 19.2,17.3 L19.2,17.3 Z" id="Shape"></path>
            </g>
        </g>
    </g>
</svg>