<?xml version="1.0" encoding="utf-8"?>
<!-- Generator: Adobe Illustrator 19.2.0, SVG Export Plug-In . SVG Version: 6.00 Build 0)  -->
<svg version="1.1" id="Layer_1" xmlns="http://www.w3.org/2000/svg" xmlns:xlink="http://www.w3.org/1999/xlink" x="0px" y="0px"
	 width="36px" height="36px" viewBox="0 0 36 36" style="enable-background:new 0 0 36 36;" xml:space="preserve">
<style type="text/css">
	.st0{fill:#DA2131;}
</style>
<path class="st0" d="M25,1H10.9L1,11v14.1L11,35h14.1L35,25V11L25,1z M20.2,18.3l3.5,3.5c0.2,0.2,0.2,0.5,0,0.7l-1.3,1.3
	c-0.2,0.2-0.5,0.2-0.7,0l-3.5-3.5c-0.2-0.2-0.5-0.2-0.7,0l-3.5,3.5c-0.2,0.2-0.5,0.2-0.7,0l-1.3-1.3c-0.2-0.2-0.2-0.5,0-0.7l3.5-3.5
	c0.2-0.2,0.2-0.5,0-0.7l-3.5-3.5c-0.2-0.2-0.2-0.5,0-0.7l1.3-1.3c0.2-0.2,0.5-0.2,0.7,0l3.5,3.5c0.2,0.2,0.5,0.2,0.7,0l3.5-3.5
	c0.2-0.2,0.5-0.2,0.7,0l1.3,1.3c0.2,0.2,0.2,0.5,0,0.7l-3.5,3.5C20,17.9,20,18.1,20.2,18.3z"/>
</svg>
