<?xml version="1.0" encoding="utf-8"?>
<!-- Generator: Adobe Illustrator 19.2.0, SVG Export Plug-In . SVG Version: 6.00 Build 0)  -->
<svg version="1.1" id="Layer_1" xmlns="http://www.w3.org/2000/svg" xmlns:xlink="http://www.w3.org/1999/xlink" x="0px" y="0px"
	 width="36px" height="36px" viewBox="0 0 36 36" style="enable-background:new 0 0 36 36;" xml:space="preserve">
<style type="text/css">
	.st0{fill:#006FB4;}
</style>
<path class="st0" d="M18,1C8.6,1,1,8.6,1,18s7.6,17,17,17s17-7.6,17-17S27.3,1,18,1z M15.8,10.9c0-0.9,0.8-1.7,1.7-1.7h1.1
	c0.9,0,1.7,0.8,1.7,1.7V12c0,0.9-0.8,1.7-1.7,1.7h-1.1c-0.9,0-1.7-0.8-1.7-1.7V10.9z M22.4,26.7h-8.7v-2.1h2.1V18h-2.1v-2.1h6.6v8.7
	h2.2L22.4,26.7L22.4,26.7z"/>
</svg>
