<?xml version="1.0" encoding="UTF-8" standalone="no"?>
<!-- Created with Inkscape (http://www.inkscape.org/) -->

<svg
   xmlns:dc="http://purl.org/dc/elements/1.1/"
   xmlns:cc="http://creativecommons.org/ns#"
   xmlns:rdf="http://www.w3.org/1999/02/22-rdf-syntax-ns#"
   xmlns:svg="http://www.w3.org/2000/svg"
   xmlns="http://www.w3.org/2000/svg"
   version="1.1"
   width="100%"
   height="100%"
   viewBox="0 0 595.3 558.7"
   id="Layer_1"
   xml:space="preserve"><metadata
   id="metadata15"><rdf:RDF><cc:Work
       rdf:about=""><dc:format>image/svg+xml</dc:format><dc:type
         rdf:resource="http://purl.org/dc/dcmitype/StillImage" /><dc:title></dc:title></cc:Work></rdf:RDF></metadata><defs
   id="defs13" />
<g
   transform="translate(0,-141.60001)"
   id="g3">
	<circle
   cx="226.3"
   cy="614.5"
   r="34.900002"
   id="circle5"
   style="fill:#ffffff" />
	<path
   d="m 226.3,370.1 c -19.2,0 -34.9,15.7 -34.9,34.9 v 104.7 c 0,19.2 15.7,34.9 34.9,34.9 19.2,0 34.9,-15.7 34.9,-34.9 V 405 c 0,-19.2 -15.7,-34.9 -34.9,-34.9 z"
   id="path7"
   style="fill:#ffffff" />
</g>
<path
   d="M 298.5,-1.2139185e-5 0,558.69999 H 595.3 L 298.5,-1.2139185e-5 z M 298.5,500.99999 c -19.2,0 -34.9,-15.7 -34.9,-34.9 0,-19.2 15.7,-34.9 34.9,-34.9 19.2,0 34.9,15.7 34.9,34.9 0,19.2 -15.7,34.9 -34.9,34.9 z m 0,-104.7 c -19.2,0 -34.9,-15.7 -34.9,-34.9 v -104.7 c 0,-19.2 15.7,-34.9 34.9,-34.9 19.2,0 34.9,15.7 34.9,34.9 v 104.7 c 0,19.2 -15.7,34.9 -34.9,34.9 z"
   id="path9"
   style="fill:#ffc412" />
</svg>