<?xml version="1.0" encoding="UTF-8" standalone="no"?>
<!-- Created with Inkscape (http://www.inkscape.org/) -->

<svg
   xmlns:dc="http://purl.org/dc/elements/1.1/"
   xmlns:cc="http://creativecommons.org/ns#"
   xmlns:rdf="http://www.w3.org/1999/02/22-rdf-syntax-ns#"
   xmlns:svg="http://www.w3.org/2000/svg"
   xmlns="http://www.w3.org/2000/svg"
   version="1.1"
   width="100%"
   height="100%"
   viewBox="0 0 595.20002 595.20002"
   id="Layer_1"
   xml:space="preserve"><metadata
   id="metadata9"><rdf:RDF><cc:Work
       rdf:about=""><dc:format>image/svg+xml</dc:format><dc:type
         rdf:resource="http://purl.org/dc/dcmitype/StillImage" /><dc:title></dc:title></cc:Work></rdf:RDF></metadata><defs
   id="defs7" />
<path
   d="M 297.6,0 C 132.7,0 0,132.7 0,297.6 0,462.5 132.7,595.2 297.6,595.2 462.5,595.2 595.2,462.5 595.2,297.6 595.2,132.7 460.9,0 297.6,0 z m -39.1,173.5 c 0,-15.3 13.6,-28.9 28.9,-28.9 h 18.7 c 15.3,0 28.9,13.6 28.9,28.9 v 18.7 c 0,15.3 -13.6,28.9 -28.9,28.9 h -18.7 c -15.3,0 -28.9,-13.6 -28.9,-28.9 V 173.5 z M 374.2,450.7 H 221.1 v -37.4 h 37.4 V 297.6 h -37.4 v -37.4 h 115.7 v 153.1 h 39.1 v 37.4 h -1.7 z"
   id="path3"
   style="fill:#006fb4" />
</svg>