<?xml version="1.0" encoding="UTF-8" standalone="no"?>
<!-- Created with Inkscape (http://www.inkscape.org/) -->

<svg
   xmlns:dc="http://purl.org/dc/elements/1.1/"
   xmlns:cc="http://creativecommons.org/ns#"
   xmlns:rdf="http://www.w3.org/1999/02/22-rdf-syntax-ns#"
   xmlns:svg="http://www.w3.org/2000/svg"
   xmlns="http://www.w3.org/2000/svg"
   version="1.1"
   width="100%"
   height="100%"
   viewBox="0 0 595.20002 595.20002"
   id="Layer_1"
   xml:space="preserve"><metadata
   id="metadata9"><rdf:RDF><cc:Work
       rdf:about=""><dc:format>image/svg+xml</dc:format><dc:type
         rdf:resource="http://purl.org/dc/dcmitype/StillImage" /><dc:title></dc:title></cc:Work></rdf:RDF></metadata><defs
   id="defs7" />
<path
   d="M 297.6,0 C 132.7,0 0,132.7 0,297.6 0,462.5 132.7,595.2 297.6,595.2 462.5,595.2 595.2,462.5 595.2,297.6 595.2,132.7 462.6,0 297.6,0 z M 432,236.4 267,394.6 c -3.4,3.4 -8.5,3.4 -11.9,0 l -23.8,-23.8 c -3.4,-3.4 -8.5,-8.5 -11.9,-11.9 l -56.1,-57.8 c -1.7,-1.7 -1.7,-3.4 -1.7,-6.8 0,-1.7 1.7,-3.4 1.7,-5.1 l 25.5,-22.1 c 1.7,-1.7 3.4,-1.7 6.8,-1.7 1.7,0 5.1,0 6.8,1.7 l 52.7,56.1 c 3.4,3.4 8.5,3.4 11.9,0 L 394.6,200.7 c 3.4,-3.4 8.5,-3.4 11.9,0 l 23.8,23.8 c 5.1,3.4 5.1,8.5 1.7,11.9 z"
   id="path3"
   style="fill:#467a39" />
</svg>