<?xml version="1.0" encoding="utf-8"?>
<!-- Generator: Adobe Illustrator 19.2.0, SVG Export Plug-In . SVG Version: 6.00 Build 0)  -->
<svg version="1.1" id="Layer_1" xmlns="http://www.w3.org/2000/svg" xmlns:xlink="http://www.w3.org/1999/xlink" x="0px" y="0px"
	 width="36px" height="36px" viewBox="0 0 36 36" style="enable-background:new 0 0 36 36;" xml:space="preserve">
<style type="text/css">
	.st0{fill:#467A39;}
</style>
<path class="st0" d="M18,1C8.6,1,1,8.6,1,18s7.6,17,17,17s17-7.6,17-17S27.4,1,18,1z M25.7,14.5l-9.4,9c-0.2,0.2-0.5,0.2-0.7,0
	l-1.4-1.4c-0.2-0.2-0.5-0.5-0.7-0.7l-3.2-3.3c-0.1-0.1-0.1-0.2-0.1-0.4c0-0.1,0.1-0.2,0.1-0.3l1.5-1.3c0.1-0.1,0.2-0.1,0.4-0.1
	c0.1,0,0.3,0,0.4,0.1l3,3.2c0.2,0.2,0.5,0.2,0.7,0l7.3-7c0.2-0.2,0.5-0.2,0.7,0l1.4,1.4C25.9,14,25.9,14.3,25.7,14.5z"/>
</svg>
